<svg width="144" height="264" viewBox="0 0 144 264" fill="none" xmlns="http://www.w3.org/2000/svg">
<path opacity="0.2" fill-rule="evenodd" clip-rule="evenodd" d="M0 250.698C0 253.048 0.691388 255.556 2.07416 257.431L2.78531 258.399C3.55572 259.346 4.38539 260.175 5.33358 260.886C5.64964 261.124 5.9657 261.36 6.32128 261.577L7.36823 262.209C8.41519 262.841 9.77822 263.315 11.0227 263.591C14.6575 264.42 17.7984 263.947 21.1566 262.545L28.8013 258.379C29.0581 258.261 29.2161 258.142 29.473 258.004C32.5546 256.444 35.5967 254.765 38.6783 253.226L56.1409 245.012L65.2276 241.241C66.2548 240.826 67.3216 240.471 68.3092 240.056L71.4106 238.891C71.9638 238.694 72.4774 238.536 73.0107 238.338C75.1046 237.529 77.2776 236.897 79.3913 236.186C82.6705 235.081 87.7669 233.699 91.1448 232.889C96.992 231.506 103.432 230.244 109.496 229.77C111.887 229.592 114.237 229.394 116.627 229.414C117.102 229.414 117.299 229.355 117.675 229.335C118.445 229.315 118.958 229.414 119.71 229.414L129.744 230.085C132.273 230.421 134.742 230.737 137.231 231.211C139.602 231.665 141.972 232.099 144.283 232.672L147.759 233.52C151.157 234.37 154.377 235.396 157.696 236.384L160.956 237.45C162.002 237.845 163.05 238.161 164.135 238.536C167.553 239.72 171.701 241.261 174.961 242.663L179.505 244.559C180.019 244.775 180.492 244.973 180.966 245.189L191.298 249.889C191.772 250.087 192.226 250.363 192.7 250.58C193.234 250.817 193.668 251.034 194.162 251.271L207.634 258.142C207.93 258.281 208.108 258.399 208.365 258.537C208.84 258.774 209.254 258.992 209.748 259.268C210.004 259.406 210.142 259.504 210.42 259.642C212.356 260.59 214.093 261.795 216.128 262.545C219.565 263.829 224.267 263.77 227.546 262.189C228.474 261.736 229.384 261.301 230.233 260.689C232.386 259.13 234.124 257.155 235.132 254.687C236.396 251.548 236.219 248.566 234.994 245.466C234.519 244.281 233.769 242.742 233.235 241.478C232.662 240.116 232.149 238.812 231.497 237.47C230.865 236.147 230.371 234.745 229.758 233.422C229.443 232.751 229.185 232.119 228.89 231.428L227.151 227.439C226.855 226.728 226.578 226.117 226.282 225.446C225.986 224.775 225.729 224.143 225.413 223.452L220.197 211.407C219.902 210.736 219.644 210.104 219.329 209.413L214.113 197.37C213.52 196.007 212.948 194.665 212.356 193.322L203.683 173.261C202.024 169.193 200.108 165.226 198.428 161.178C197.876 159.855 197.244 158.493 196.71 157.17C194.774 152.451 192.562 147.85 190.626 143.112C188.69 138.374 186.458 133.753 184.522 129.014L181.025 120.959C180.73 120.307 180.452 119.655 180.157 118.964L174.072 104.907C173.499 103.545 172.926 102.261 172.333 100.918L164.511 82.8126C162.792 78.7849 161.074 74.757 159.276 70.7687L153.172 56.6712C151.73 53.3345 150.229 50.0175 148.846 46.661L141.004 28.5752C138.712 23.2244 136.421 17.854 134.05 12.523C133.023 10.1932 132.608 8.7717 131.206 6.67875C129.982 4.84251 128.282 3.22355 126.346 2.17702C124.51 1.15031 122.574 0.459268 120.46 0.163141C116.133 -0.44894 111.649 0.676552 108.173 3.2828C107.876 3.49996 107.659 3.73684 107.383 3.95401C106.79 4.42788 106.474 4.86233 105.96 5.39545C105.743 5.61262 105.526 5.92846 105.348 6.16534C104.103 7.84366 103.689 9.02829 102.839 10.9238C101.358 14.2408 99.9552 17.5973 98.4933 20.9144C98.197 21.5857 97.9205 22.2175 97.6242 22.9086C96.7747 24.9423 95.8463 26.9166 94.9968 28.9503C93.8906 31.6355 92.6462 34.2615 91.54 36.9468C91.382 37.3022 91.2634 37.5588 91.1251 37.934C90.9671 38.309 90.809 38.625 90.6707 38.9607C90.5325 39.316 90.3745 39.632 90.2362 39.9874L87.1941 47.0164C86.878 47.7271 86.6212 48.3589 86.3052 49.0698C83.9347 54.4007 81.6432 59.7712 79.3517 65.1219L75.8553 73.1578C75.5393 73.8488 75.2824 74.4806 74.9862 75.1519C74.6898 75.8232 74.4132 76.4551 74.117 77.1461L64.5362 99.2399C64.24 99.931 63.9831 100.543 63.6671 101.234L58.4125 113.318C57.7804 114.66 57.3261 115.983 56.694 117.326C55.6667 119.517 54.205 123.032 53.1975 125.362L49.7405 133.378C49.1479 134.74 48.5356 136.083 47.9825 137.425C46.3231 141.473 44.4464 145.422 42.7476 149.47L36.6634 163.527C36.367 164.238 36.0905 164.85 35.7942 165.521C34.9646 167.397 34.0163 169.786 33.1867 171.583L31.4484 175.572C30.0458 178.968 28.505 182.305 27.063 185.661C25.0679 190.34 22.9739 194.96 20.9985 199.659C18.7465 205.05 16.2575 210.361 14.0254 215.751C13.7487 216.422 13.413 217.133 13.1364 217.804C12.8599 218.495 12.5635 219.107 12.2672 219.798C11.7141 221.101 11.1412 222.543 10.5289 223.807L7.9411 229.809C7.66455 230.461 7.36824 231.112 7.07193 231.803C6.77561 232.534 6.49906 233.146 6.183 233.857L1.83712 243.907C0.967946 246.236 0 247.855 0 250.698ZM73.9194 185.325C73.9194 186.213 74.1762 187.142 74.6898 187.853L74.9466 188.207C75.2232 188.563 75.5393 188.879 75.8948 189.136C76.0134 189.215 76.1318 189.314 76.2701 189.392L76.6652 189.629C77.0603 189.867 77.5739 190.044 78.0282 190.143C79.3913 190.459 80.5568 190.281 81.821 189.748L84.6853 188.188C84.7842 188.148 84.8433 188.089 84.9422 188.05C86.0878 187.457 87.2336 186.845 88.3793 186.272L94.8981 183.212L98.2959 181.811C98.6711 181.653 99.0662 181.515 99.4415 181.376L100.607 180.942C100.805 180.863 101.002 180.803 101.2 180.724C101.99 180.429 102.8 180.192 103.59 179.915C104.815 179.501 106.711 178.987 107.975 178.691C110.168 178.178 112.558 177.704 114.83 177.526C115.719 177.448 116.608 177.387 117.496 177.387C117.675 177.387 117.754 177.368 117.892 177.368C118.188 177.368 118.366 177.387 118.642 177.387L122.395 177.645C123.344 177.783 124.272 177.881 125.201 178.06C126.09 178.218 126.978 178.395 127.847 178.612L129.151 178.928C130.416 179.244 131.621 179.639 132.866 179.994L134.091 180.389C134.485 180.527 134.881 180.645 135.275 180.803C136.559 181.258 138.1 181.811 139.325 182.344L141.024 183.055C141.202 183.134 141.399 183.212 141.576 183.291L145.448 185.049C145.626 185.128 145.805 185.226 145.982 185.305C146.179 185.384 146.337 185.463 146.535 185.562L151.572 188.129C151.691 188.188 151.75 188.227 151.848 188.286C152.027 188.386 152.185 188.465 152.362 188.563C152.461 188.623 152.5 188.642 152.62 188.701C153.331 189.056 154.003 189.511 154.753 189.788C156.037 190.261 157.795 190.241 159.02 189.649C159.375 189.471 159.711 189.314 160.027 189.077C160.837 188.504 161.489 187.754 161.864 186.825C162.339 185.661 162.279 184.535 161.805 183.39C161.627 182.937 161.35 182.364 161.153 181.909C160.936 181.396 160.738 180.903 160.501 180.409C160.264 179.915 160.086 179.401 159.849 178.889C159.731 178.631 159.632 178.395 159.534 178.139L158.882 176.637C158.763 176.381 158.664 176.144 158.565 175.887C158.447 175.631 158.348 175.394 158.249 175.137L156.294 170.636C156.175 170.378 156.077 170.142 155.977 169.886L154.022 165.383C153.804 164.87 153.587 164.377 153.37 163.863L150.13 156.36C149.498 154.84 148.787 153.359 148.175 151.839C147.977 151.345 147.74 150.832 147.523 150.338C146.792 148.58 145.982 146.863 145.251 145.086C144.52 143.31 143.691 141.591 142.98 139.815L141.676 136.813C141.557 136.557 141.458 136.32 141.359 136.063L139.088 130.811C138.871 130.298 138.653 129.824 138.436 129.31L135.513 122.538C134.861 121.037 134.229 119.537 133.557 118.037L131.265 112.765C130.732 111.521 130.159 110.278 129.645 109.033L126.722 102.261C125.873 100.267 125.003 98.2527 124.134 96.2586C123.738 95.3898 123.581 94.8568 123.067 94.0867C122.613 93.3956 121.981 92.8034 121.25 92.4085C120.559 92.0334 119.848 91.7767 119.058 91.6582C117.437 91.4213 115.758 91.8556 114.474 92.8231C114.356 92.9021 114.277 92.981 114.178 93.0798C113.961 93.2574 113.842 93.4155 113.645 93.6129C113.566 93.6919 113.487 93.8103 113.408 93.9089C112.934 94.5408 112.795 94.9752 112.479 95.6861C111.926 96.9299 111.393 98.1738 110.859 99.4177C110.741 99.6744 110.642 99.9114 110.543 100.168C110.227 100.938 109.872 101.669 109.556 102.439C109.141 103.446 108.686 104.433 108.252 105.419C108.193 105.559 108.153 105.657 108.094 105.795C108.035 105.933 107.975 106.051 107.936 106.171C107.876 106.309 107.837 106.427 107.778 106.565L106.652 109.191C106.533 109.447 106.434 109.685 106.316 109.961C105.427 111.955 104.578 113.969 103.728 115.964L102.424 118.964C102.306 119.222 102.207 119.458 102.108 119.714C102.01 119.972 101.891 120.208 101.792 120.465L98.2168 128.718C98.0983 128.975 97.9995 129.212 97.9008 129.469L95.9451 133.99C95.7081 134.503 95.5302 134.978 95.2932 135.49C94.9179 136.32 94.3648 137.622 93.9895 138.492L92.7054 141.493C92.4882 142.006 92.2511 142.5 92.0535 142.993C91.4412 144.514 90.73 145.995 90.0979 147.495L87.8262 152.748C87.7077 153.004 87.6089 153.24 87.5101 153.498C87.1941 154.189 86.8385 155.097 86.5422 155.768L85.8904 157.268C85.357 158.532 84.784 159.776 84.2508 161.04C83.5001 162.797 82.7099 164.515 81.9791 166.272C81.1296 168.286 80.2012 170.26 79.3716 172.294C79.2727 172.55 79.1344 172.807 79.0357 173.064C78.9369 173.321 78.8183 173.558 78.7196 173.814C78.5023 174.308 78.3048 174.841 78.0677 175.314L77.0997 177.566C77.001 177.802 76.8825 178.059 76.7838 178.316C76.6652 178.592 76.5665 178.81 76.4479 179.086L74.8281 182.837C74.2749 183.647 73.9194 184.259 73.9194 185.325Z" fill="url(#paint0_linear_255_2529)"/>
<defs>
<linearGradient id="paint0_linear_255_2529" x1="118" y1="0" x2="118" y2="264" gradientUnits="userSpaceOnUse">
<stop stop-color="#FEF0A7"/>
<stop offset="1" stop-color="#CB961B"/>
</linearGradient>
</defs>
</svg>
