<svg width="44" height="44" viewBox="0 0 44 44" fill="none" xmlns="http://www.w3.org/2000/svg">
<path d="M37.482 39.2994L37.1372 39.8199L36.6434 39.979L36.6289 39.5953L36.9804 39.1704C36.9804 39.1704 37.2061 38.978 37.2551 38.9524C37.304 38.9269 37.4808 39.2994 37.4808 39.2994H37.482Z" fill="#5178F2"/>
<path d="M36.3753 40.2375L11.3999 42.0059C10.6269 42.0604 9.87394 41.4876 9.72046 40.728L3.02395 7.5335C2.8827 6.83504 3.38096 6.28006 4.1328 6.29118L28.5009 6.66599C29.166 6.676 29.8278 7.21319 29.9824 7.86716L37.3006 38.8673C37.4674 39.5747 37.0537 40.1886 36.3742 40.2364L36.3753 40.2375Z" fill="#96BFFF"/>
<path d="M3.21094 6.6786L3.58908 6.24707L3.88493 6.7787C3.88493 6.7787 3.50233 7.18576 3.51679 7.20578C3.53125 7.2258 3.33328 7.34925 3.33328 7.34925L3.21094 6.6786Z" fill="#5178F2"/>
<path d="M36.6803 39.7679L11.7671 41.5029C10.9964 41.5563 10.2445 40.9846 10.0922 40.2272L3.39122 7.10721C3.24997 6.41098 3.74601 5.85711 4.49674 5.86934L28.807 6.26862C29.4699 6.27974 30.1317 6.81582 30.2863 7.46867L37.6045 38.4032C37.7713 39.1094 37.3598 39.7211 36.6814 39.7679H36.6803Z" fill="#C9DEFF"/>
<path d="M35.9516 37.5983L11.539 39.1588L4.95703 6.9541L28.8347 7.28553L35.9516 37.5983Z" fill="white"/>
<path d="M19.9134 6.33922L19.7766 5.72862C19.3751 3.93799 17.5334 2.4521 15.6449 2.39983C13.7397 2.34756 12.4985 3.7745 12.8911 5.59516L13.0245 6.21687C11.6832 6.50604 11.2703 6.9126 11.5761 8.35178L11.6028 8.47634L23.3354 8.59868L23.3076 8.47746C22.9895 7.07943 21.3348 6.67176 19.9123 6.34033L19.9134 6.33922ZM16.5379 6.45488C15.8406 6.44265 15.1555 5.89323 15.0109 5.22925C14.8663 4.56527 15.3145 4.04254 16.0108 4.05922C16.7048 4.07479 17.3832 4.62199 17.5289 5.28041C17.6757 5.93994 17.232 6.46601 16.5368 6.45488H16.5379Z" fill="#5C8EDB"/>
<path d="M20.1812 5.73449L20.0465 5.15737C19.6514 3.46491 17.839 2.06049 15.9807 2.01108C14.1059 1.96167 12.8845 3.31038 13.2708 5.03122L13.4021 5.61885C12.0822 5.89217 11.2942 7.00961 11.5952 8.36988L11.6215 8.48762L23.1668 8.60325L23.1395 8.48867C22.8264 7.16729 21.5799 6.0488 20.1801 5.73554L20.1812 5.73449ZM16.8595 5.84381C16.1733 5.83225 15.4991 5.31295 15.3568 4.68537C15.2145 4.0578 15.6556 3.56373 16.3407 3.57949C17.0237 3.59421 17.6913 4.11141 17.8347 4.73373C17.9791 5.3571 17.5424 5.85432 16.8584 5.84381H16.8595Z" fill="#96BFFF"/>
<path d="M17.4494 19.0113L9.81643 19.1281C9.58732 19.1314 9.366 18.9579 9.3204 18.7399C9.27591 18.5219 9.42383 18.3429 9.65294 18.3407L17.2815 18.2383C17.5017 18.235 17.7174 18.4063 17.763 18.6187C17.8098 18.8322 17.6685 19.008 17.4483 19.0113H17.4494Z" fill="#E6ECFF"/>
<path d="M29.5565 20.973L10.2866 21.3734C10.0575 21.3779 9.83506 21.2044 9.78946 20.9853C9.74386 20.7662 9.89289 20.586 10.122 20.5815L29.3818 20.2179C29.5898 20.2134 29.7978 20.3791 29.8456 20.5882C29.8934 20.7962 29.7644 20.9686 29.5565 20.973Z" fill="#E6ECFF"/>
<path d="M30.0485 23.12L10.7487 23.6271C10.5195 23.6327 10.296 23.4592 10.2504 23.239C10.2048 23.0188 10.3538 22.8364 10.5829 22.8308L29.8728 22.3615C30.0808 22.3559 30.2888 22.5216 30.3377 22.7318C30.3866 22.9409 30.2565 23.1155 30.0485 23.1211V23.12Z" fill="#E6ECFF"/>
<path d="M30.5484 25.2799L11.2185 25.8938C10.9883 25.9016 10.7647 25.727 10.7191 25.5057C10.6735 25.2843 10.8226 25.0997 11.0528 25.0919L30.3727 24.5158C30.5807 24.5091 30.7898 24.6749 30.8387 24.8851C30.8876 25.0953 30.7586 25.2721 30.5495 25.2788L30.5484 25.2799Z" fill="#E6ECFF"/>
<path d="M25.2992 13.5116L13.599 13.5338C12.9038 13.5349 12.2254 12.9977 12.0841 12.3349C11.944 11.6731 12.3944 11.1393 13.0873 11.1426L24.7676 11.1882C25.4205 11.1904 26.0666 11.7098 26.2134 12.3493C26.3603 12.9899 25.9521 13.5105 25.2981 13.5116H25.2992Z" fill="#E6ECFF"/>
<path d="M31.227 34.184C31.4728 35.2528 30.8244 36.1726 29.7723 36.2349C28.7146 36.2983 27.6569 35.4719 27.4133 34.392C27.1708 33.3154 27.8337 32.4023 28.8881 32.35C29.9369 32.2977 30.9812 33.1185 31.227 34.1851V34.184Z" fill="white"/>
<path d="M37.926 8.85968C37.1449 8.50177 36.4648 8.31151 36.407 8.43777L36.0136 9.29589C35.9559 9.42214 36.5428 9.81569 37.3238 10.1736C38.1049 10.5315 38.785 10.7218 38.8428 10.5955L39.2362 9.7374C39.2939 9.61115 38.707 9.2176 37.926 8.85968Z" fill="#ED9FA3"/>
<path d="M33.1471 21.9052L33.0284 21.9471C32.8565 22.0087 32.6234 21.9046 32.5536 21.7352L32.4601 21.5129C32.3907 21.3498 32.1743 21.2468 32.0018 21.2959L31.7224 21.3759C31.5498 21.4249 31.3335 21.322 31.264 21.1589L31.156 20.8998C31.1007 20.7651 30.9412 20.6716 30.7887 20.6695C30.789 20.6737 30.7891 20.6758 30.7892 20.6778L30.0923 25.26C30.0585 25.4809 30.4309 25.6525 30.576 25.4819L33.5622 22.0181C33.4623 21.9088 33.288 21.8495 33.1467 21.8989L33.1471 21.9052Z" fill="#FFD3B9"/>
<path d="M31.0809 23.7261C30.8413 23.6161 30.5974 23.5439 30.3638 23.5066L30.0968 25.2653C30.063 25.4863 30.4354 25.6578 30.5805 25.4872L31.7381 24.145C31.5518 23.982 31.3313 23.8397 31.0808 23.724L31.0809 23.7261Z" fill="#948AA7"/>
<path d="M30.7931 20.6573L34.4141 12.7733L35.2167 13.1425L35.345 13.2002L36.3123 13.6439L36.5306 13.7446L37.2432 14.0708L33.622 21.9527L33.5613 22.0249C33.4614 21.9156 33.2871 21.8563 33.1459 21.9057L33.0271 21.9477C32.9453 21.9772 32.8488 21.9679 32.7634 21.9329C32.6695 21.8942 32.5886 21.8256 32.5503 21.7359L32.4568 21.5136C32.3874 21.3505 32.171 21.2475 31.9985 21.2966L31.7191 21.3765C31.6308 21.4022 31.5298 21.3869 31.4418 21.3416C31.3602 21.3002 31.2921 21.2371 31.2606 21.1575L31.1526 20.8984C31.0972 20.7637 30.9377 20.6702 30.7853 20.6681C30.785 20.6619 30.7845 20.6536 30.7864 20.6493L30.7931 20.6573Z" fill="#FFD146"/>
<path d="M37.5228 9.73179C36.6432 9.3271 35.8763 9.11446 35.811 9.25573L34.1048 12.9688C34.0395 13.11 34.7001 13.5538 35.5818 13.9584C36.4634 14.363 37.2282 14.5757 37.2936 14.4345L38.9997 10.7214C39.065 10.5801 38.4045 10.1364 37.5228 9.73179Z" fill="#FFE69F"/>
</svg>
