<svg width="25" height="25" viewBox="0 0 25 25" fill="none" xmlns="http://www.w3.org/2000/svg">
<g filter="url(#filter0_f_7914_7618)">
<path d="M3 12.6C3 7.29807 7.29807 3 12.6 3C17.9019 3 22.2 7.29807 22.2 12.6C22.2 17.9019 17.9019 22.2 12.6 22.2C7.29807 22.2 3 17.9019 3 12.6Z" fill="#F7F7F9"/>
<path d="M4.37143 12.6C4.37143 8.05549 8.05549 4.37143 12.6 4.37143C17.1445 4.37143 20.8286 8.05549 20.8286 12.6C20.8286 17.1445 17.1445 20.8286 12.6 20.8286C8.05549 20.8286 4.37143 17.1445 4.37143 12.6Z" stroke="url(#paint0_linear_7914_7618)" stroke-width="2.74286"/>
</g>
<rect x="2" y="2" width="21.2" height="21.2" rx="7" fill="#F7F7F9" stroke="url(#paint1_linear_7914_7618)" stroke-width="2"/>
<path d="M11.5938 9.3579C11.5425 9.15731 11.2576 9.15731 11.2063 9.35791L10.9379 10.4075C10.7206 11.2572 10.0571 11.9207 9.20733 12.138L8.15777 12.4064C7.95717 12.4577 7.95717 12.7427 8.15777 12.794L9.20733 13.0624C10.0571 13.2797 10.7206 13.9432 10.9379 14.7929L11.2063 15.8425C11.2576 16.0431 11.5425 16.0431 11.5938 15.8425L11.8622 14.7929C12.0795 13.9432 12.7431 13.2797 13.5928 13.0624L14.6424 12.794C14.843 12.7427 14.843 12.4577 14.6424 12.4064L13.5928 12.138C12.7431 11.9207 12.0795 11.2572 11.8622 10.4075L11.5938 9.3579Z" fill="#6C4FFF"/>
<path fill-rule="evenodd" clip-rule="evenodd" d="M16.2001 7.96826C16.3283 7.96826 16.4323 8.07222 16.4323 8.20046V8.76826H17.0001C17.1283 8.76826 17.2323 8.87222 17.2323 9.00046C17.2323 9.1287 17.1283 9.23266 17.0001 9.23266H16.4323V9.80046C16.4323 9.9287 16.3283 10.0327 16.2001 10.0327C16.0718 10.0327 15.9679 9.9287 15.9679 9.80046V9.23266H15.4001C15.2718 9.23266 15.1679 9.1287 15.1679 9.00046C15.1679 8.87222 15.2718 8.76826 15.4001 8.76826H15.9679V8.20046C15.9679 8.07222 16.0718 7.96826 16.2001 7.96826ZM11.4001 9.53769L11.1629 10.4653C10.9246 11.3972 10.1968 12.1249 9.26488 12.3633L8.33731 12.6005L9.26488 12.8377C10.1968 13.076 10.9246 13.8037 11.1629 14.7357L11.4001 15.6632L11.6373 14.7357C11.8756 13.8037 12.6033 13.076 13.5353 12.8377L14.4629 12.6005L13.5353 12.3633C12.6033 12.1249 11.8756 11.3972 11.6373 10.4653L11.4001 9.53769ZM10.9814 9.30064C11.0922 8.86715 11.708 8.86715 11.8188 9.30064L12.0872 10.3502C12.2835 11.1177 12.8828 11.7171 13.6503 11.9133L14.6999 12.1817C15.1334 12.2926 15.1334 12.9083 14.6999 13.0192L13.6503 13.2876C12.8828 13.4839 12.2835 14.0832 12.0872 14.8507L11.8188 15.9003C11.708 16.3338 11.0922 16.3338 10.9814 15.9003L10.713 14.8507C10.5167 14.0832 9.91735 13.4839 9.14982 13.2876L8.10027 13.0192C7.66678 12.9083 7.66677 12.2926 8.10027 12.1817L9.14982 11.9133C9.91735 11.7171 10.5167 11.1177 10.713 10.3502L10.9814 9.30064ZM15.8001 15.1683C15.9283 15.1683 16.0323 15.2722 16.0323 15.4005V15.9683H16.6001C16.7283 15.9683 16.8323 16.0722 16.8323 16.2005C16.8323 16.3287 16.7283 16.4327 16.6001 16.4327H16.0323V17.0005C16.0323 17.1287 15.9283 17.2327 15.8001 17.2327C15.6718 17.2327 15.5679 17.1287 15.5679 17.0005V16.4327H15.0001C14.8718 16.4327 14.7679 16.3287 14.7679 16.2005C14.7679 16.0722 14.8718 15.9683 15.0001 15.9683H15.5679V15.4005C15.5679 15.2722 15.6718 15.1683 15.8001 15.1683Z" fill="#6C4FFF"/>
<defs>
<filter id="filter0_f_7914_7618" x="0.257143" y="0.257143" width="24.6857" height="24.6859" filterUnits="userSpaceOnUse" color-interpolation-filters="sRGB">
<feFlood flood-opacity="0" result="BackgroundImageFix"/>
<feBlend mode="normal" in="SourceGraphic" in2="BackgroundImageFix" result="shape"/>
<feGaussianBlur stdDeviation="1.37143" result="effect1_foregroundBlur_7914_7618"/>
</filter>
<linearGradient id="paint0_linear_7914_7618" x1="34.3714" y1="-7.62857" x2="1.8" y2="24.6" gradientUnits="userSpaceOnUse">
<stop offset="0.265" stop-color="#F97A7A"/>
<stop offset="0.840114" stop-color="#6B4EFF"/>
</linearGradient>
<linearGradient id="paint1_linear_7914_7618" x1="34.3714" y1="-7.62857" x2="1.8" y2="24.6" gradientUnits="userSpaceOnUse">
<stop offset="0.07" stop-color="#F97A7A"/>
<stop offset="0.840114" stop-color="#6B4EFF"/>
</linearGradient>
</defs>
</svg>
