<svg width="25" height="24" viewBox="0 0 25 24" fill="none" xmlns="http://www.w3.org/2000/svg">
<path d="M12.5664 24C19.1938 24 24.5664 18.6274 24.5664 12C24.5664 5.37259 19.1938 0 12.5664 0C5.93898 0 0.566406 5.37259 0.566406 12C0.566406 18.6274 5.93898 24 12.5664 24Z" fill="url(#paint0_linear_6719_26799)"/>
<path d="M10.2613 12.2722C8.4109 12.005 6.62602 11.3092 5.08316 10.2554" stroke="#603813" stroke-width="1.5" stroke-miterlimit="10" stroke-linecap="round"/>
<path d="M6.29761 13.0184C6.64551 13.5931 7.40686 13.8705 8.05224 13.6889C8.70266 13.5074 9.20182 12.9175 9.32282 12.257C9.28753 12.4587 6.93291 11.2032 6.75644 11.173C5.74804 11.0066 5.95476 12.4436 6.29761 13.0184Z" fill="#603813"/>
<path d="M14.8653 12.2722C16.7157 12.005 18.5006 11.3092 20.0434 10.2554" stroke="#603813" stroke-width="1.5" stroke-miterlimit="10" stroke-linecap="round"/>
<path d="M18.829 13.0184C18.4811 13.5932 17.7197 13.8705 17.0744 13.689C16.4239 13.5075 15.9248 12.9176 15.8038 12.2571C15.8391 12.4588 18.1937 11.2033 18.3702 11.173C19.3786 11.0067 19.1718 12.4436 18.829 13.0184Z" fill="#603813"/>
<path d="M17.0336 18.3882C17.0336 18.716 15.0319 18.9832 12.5613 18.9832C10.0907 18.9832 8.08905 18.716 8.08905 18.3882C8.08905 18.0605 10.0907 17.7933 12.5613 17.7933C15.0319 17.7933 17.0336 18.0605 17.0336 18.3882Z" fill="#351800"/>
<defs>
<linearGradient id="paint0_linear_6719_26799" x1="12.5664" y1="23.0118" x2="12.5664" y2="-2.25882" gradientUnits="userSpaceOnUse">
<stop stop-color="#FFD34D"/>
<stop offset="1" stop-color="#EC4963"/>
</linearGradient>
</defs>
</svg>
