<svg width="19" height="17" viewBox="0 0 19 17" fill="none" xmlns="http://www.w3.org/2000/svg">
<path d="M4.03333 12.8875H6.22083C7.77413 12.8875 9.03333 14.1467 9.03333 15.7V5.7C9.03333 4.14686 9.03333 3.37029 8.77959 2.75772C8.44128 1.94096 7.79236 1.29204 6.9756 0.953732C6.36303 0.699997 5.58646 0.699997 4.03333 0.699997C2.9979 0.699997 2.48019 0.699997 2.07181 0.869153C1.5273 1.0947 1.09469 1.5273 0.869148 2.07181C0.699992 2.48019 0.699992 2.9979 0.699992 4.03333V9.55416C0.699992 10.5896 0.699992 11.1073 0.869148 11.5157C1.09469 12.0602 1.5273 12.4928 2.07181 12.7183C2.48019 12.8875 2.9979 12.8875 4.03333 12.8875Z" stroke="url(#paint0_linear_1640_31467)" stroke-width="1.4" stroke-linejoin="round"/>
<path d="M14.0333 12.8875H11.8458C10.2925 12.8875 9.03333 14.1467 9.03333 15.7V5.7C9.03333 4.14686 9.03333 3.37029 9.28706 2.75772C9.62537 1.94096 10.2743 1.29204 11.091 0.953732C11.7036 0.699997 12.4802 0.699997 14.0333 0.699997C15.0688 0.699997 15.5865 0.699997 15.9948 0.869153C16.5394 1.0947 16.972 1.5273 17.1975 2.07181C17.3667 2.48019 17.3667 2.9979 17.3667 4.03333V9.55416C17.3667 10.5896 17.3667 11.1073 17.1975 11.5157C16.972 12.0602 16.5394 12.4928 15.9948 12.7183C15.5865 12.8875 15.0688 12.8875 14.0333 12.8875Z" stroke="url(#paint1_linear_1640_31467)" stroke-width="1.4" stroke-linejoin="round"/>
<defs>
<linearGradient id="paint0_linear_1640_31467" x1="4.86666" y1="0.699997" x2="4.86666" y2="15.7" gradientUnits="userSpaceOnUse">
<stop stop-color="#434343"/>
<stop offset="1" stop-color="#818181"/>
</linearGradient>
<linearGradient id="paint1_linear_1640_31467" x1="13.2" y1="0.699997" x2="13.2" y2="15.7" gradientUnits="userSpaceOnUse">
<stop stop-color="#434343"/>
<stop offset="1" stop-color="#818181"/>
</linearGradient>
</defs>
</svg>
