<svg width="139" height="86" viewBox="0 0 139 86" fill="none" xmlns="http://www.w3.org/2000/svg">
<path d="M138 60.3479C138 61.2164 137.307 61.9204 136.452 61.9204C135.597 61.9204 134.905 61.2164 134.905 60.3479C134.905 59.4794 135.597 58.7754 136.452 58.7754C137.307 58.7754 138 59.4794 138 60.3479Z" stroke="#FF9497" stroke-width="0.5" stroke-miterlimit="10"/>
<path d="M5.34102 41.0574C5.34102 41.9259 4.64814 42.6299 3.79331 42.6299C2.93849 42.6299 2.24561 41.9259 2.24561 41.0574C2.24561 40.1889 2.93849 39.4849 3.79331 39.4849C4.64814 39.4849 5.34102 40.1889 5.34102 41.0574Z" stroke="#FF9497" stroke-width="0.5" stroke-miterlimit="10"/>
<path d="M109.258 2.7715C109.258 3.75 108.478 4.543 107.515 4.543C106.552 4.543 105.771 3.74975 105.771 2.7715C105.771 1.793 106.552 1 107.515 1C108.478 1 109.258 1.79325 109.258 2.7715Z" stroke="#FF9497" stroke-width="0.5" stroke-miterlimit="10"/>
<path d="M137.035 42.8351L125.615 42.8471C125.249 42.8476 124.952 42.5504 124.951 42.1834C124.951 41.8164 125.247 41.5184 125.614 41.5179L137.033 41.5059C137.4 41.5054 137.697 41.8026 137.698 42.1696C137.698 42.5366 137.401 42.8346 137.035 42.8351Z" fill="#FF9497"/>
<path d="M12.0838 64.5592L0.664192 64.5712C0.297912 64.5717 0.000499648 64.2745 6.28607e-07 63.9075C-0.000498391 63.5405 0.296176 63.2425 0.662456 63.242L12.082 63.23C12.4483 63.2295 12.7457 63.5267 12.7462 63.8937C12.7467 64.2607 12.45 64.5587 12.0838 64.5592Z" fill="#12B76A"/>
<path d="M33.4024 3.18814L26.2245 3.20014C25.8582 3.20064 25.5608 2.90339 25.5603 2.53639C25.5598 2.16939 25.8565 1.87139 26.2227 1.87089L33.4006 1.85889C33.7669 1.85839 34.0643 2.15564 34.0648 2.52264C34.0653 2.88964 33.7689 3.18764 33.4024 3.18814Z" fill="#FF9497"/>
<path d="M63.0705 10.071L42.0828 10.083C41.7165 10.0835 41.4191 9.7862 41.4186 9.4192C41.4181 9.0522 41.7148 8.7542 42.081 8.7537L63.0688 8.7417C63.4351 8.7412 63.7325 9.03845 63.733 9.40545C63.7335 9.77245 63.4368 10.0705 63.0705 10.071Z" fill="#12B76A"/>
<path d="M123.856 27.3543L122.607 27.356C122.278 27.3565 122.012 27.0903 122.012 26.7613L122.01 25.5863C122.01 25.2575 122.275 24.9905 122.604 24.99L123.853 24.9883C124.181 24.9878 124.447 25.254 124.448 25.583L124.449 26.758C124.45 27.087 124.184 27.354 123.856 27.3543Z" fill="#12B76A"/>
<path d="M15.1746 12.4554L13.9253 12.4571C13.5972 12.4576 13.3307 12.1914 13.3302 11.8624L13.3285 10.6874C13.328 10.3586 13.5937 10.0916 13.9221 10.0911L15.1711 10.0894C15.4995 10.0889 15.7657 10.3551 15.7662 10.6841L15.7677 11.8591C15.7684 12.1879 15.5027 12.4549 15.1746 12.4554Z" fill="#12B76A"/>
<path opacity="0.5" d="M98 21H32C30.3431 21 29 22.3431 29 24V83C29 84.6569 30.3431 86 32 86H98C99.6569 86 101 84.6569 101 83V24C101 22.3431 99.6569 21 98 21Z" fill="#A3C9FF"/>
<path d="M101.794 28.7358H34.4382C32.7814 28.7358 31.4382 30.079 31.4382 31.7358V80.9741C31.4382 82.631 32.7814 83.9741 34.4382 83.9741H101.794C103.451 83.9741 104.794 82.631 104.794 80.9741V31.7358C104.794 30.079 103.451 28.7358 101.794 28.7358Z" fill="white"/>
<path d="M31.3654 22.5349V31.77H104.851V22.5349C104.851 20.7003 103.366 19.2129 101.534 19.2129H34.6813C32.8499 19.2129 31.3654 20.7003 31.3654 22.5349Z" fill="#1570EF"/>
<path d="M42.6777 27.7007C44.1954 27.7007 45.4258 26.4681 45.4258 24.9477C45.4258 23.4273 44.1954 22.1948 42.6777 22.1948C41.1599 22.1948 39.9296 23.4273 39.9296 24.9477C39.9296 26.4681 41.1599 27.7007 42.6777 27.7007Z" fill="#6AA8FF"/>
<path d="M42.6777 25.9815C41.8079 25.9815 41.1028 25.2752 41.1028 24.4039V17.2769C41.1028 16.4056 41.8079 15.6992 42.6777 15.6992C43.5475 15.6992 44.2526 16.4056 44.2526 17.2769V24.4039C44.2528 25.2749 43.5477 25.9815 42.6777 25.9815Z" fill="white"/>
<path d="M93.8636 27.7007C95.3813 27.7007 96.6117 26.4681 96.6117 24.9477C96.6117 23.4273 95.3813 22.1948 93.8636 22.1948C92.3458 22.1948 91.1155 23.4273 91.1155 24.9477C91.1155 26.4681 92.3458 27.7007 93.8636 27.7007Z" fill="#6AA8FF"/>
<path d="M93.8636 25.9815C92.9938 25.9815 92.2887 25.2752 92.2887 24.4039V17.2769C92.2887 16.4056 92.9938 15.6992 93.8636 15.6992C94.7334 15.6992 95.4385 16.4056 95.4385 17.2769V24.4039C95.4385 25.2749 94.7334 25.9815 93.8636 25.9815Z" fill="white"/>
<path d="M66.1718 37.8906H55.0638V49.018H66.1718V37.8906Z" fill="#EEEFF4"/>
<path d="M80.9502 37.8906H69.8423V49.018H80.9502V37.8906Z" fill="#FF9497"/>
<path d="M51.3932 37.8906H40.2853V49.018H51.3932V37.8906Z" fill="#EEEFF4"/>
<path d="M95.7286 37.8906H84.6207V49.018H95.7286V37.8906Z" fill="#EEEFF4"/>
<path d="M66.1718 52.0156H55.0638V63.143H66.1718V52.0156Z" fill="#EEEFF4"/>
<path d="M51.3932 52.0156H40.2853V63.143H51.3932V52.0156Z" fill="#FF9497"/>
<path d="M80.9502 52.0156H69.8423V63.143H80.9502V52.0156Z" fill="#EEEFF4"/>
<path d="M95.7286 52.0156H84.6207V63.143H95.7286V52.0156Z" fill="#EEEFF4"/>
<path d="M66.1718 66.1396H55.0638V77.267H66.1718V66.1396Z" fill="#FF9497"/>
<path d="M51.3932 66.1396H40.2853V77.267H51.3932V66.1396Z" fill="#EEEFF4"/>
<path d="M80.9502 66.1396H69.8423V77.267H80.9502V66.1396Z" fill="#EEEFF4"/>
<path d="M95.7286 66.1396H84.6207V77.267H95.7286V66.1396Z" fill="#EEEFF4"/>
<path d="M73.4554 43.9399L74.8592 45.0499L77.3371 42.4121" stroke="white" stroke-width="0.78075" stroke-miterlimit="10" stroke-linecap="round" stroke-linejoin="round"/>
<path d="M43.8984 57.9206L45.3022 59.0303L47.7801 56.3926" stroke="white" stroke-width="0.78075" stroke-miterlimit="10" stroke-linecap="round" stroke-linejoin="round"/>
<path d="M58.5521 71.913L59.9559 73.023L62.4337 70.3853" stroke="white" stroke-width="0.78075" stroke-miterlimit="10" stroke-linecap="round" stroke-linejoin="round"/>
<path d="M99.9585 41.8633H106.421V37.5988H99.9585V41.8633Z" fill="#1570EF"/>
<path d="M97.2201 38.7051H109.16V35.3133H97.2201V38.7051Z" fill="#6AA8FF"/>
<path d="M103.266 84C115.155 84 124.793 74.3449 124.793 62.4348C124.793 50.5247 115.155 40.8696 103.266 40.8696C91.3767 40.8696 81.7385 50.5247 81.7385 62.4348C81.7385 74.3449 91.3767 84 103.266 84Z" fill="#6AA8FF"/>
<path d="M107.208 79.6944C116.726 77.5131 122.677 68.0149 120.5 58.4796C118.322 48.9443 108.841 42.9828 99.3222 45.1641C89.8036 47.3454 83.8525 56.8436 86.03 66.3789C88.2076 75.9142 97.6891 81.8758 107.208 79.6944Z" fill="white"/>
<path d="M103.19 47.4478V49.6712" stroke="#F2CCC9" stroke-width="1.47617" stroke-miterlimit="10" stroke-linecap="round" stroke-linejoin="round"/>
<path d="M103.19 75.1265V77.35" stroke="#F2CCC9" stroke-width="1.47617" stroke-miterlimit="10" stroke-linecap="round" stroke-linejoin="round"/>
<path d="M88.2649 62.3994H90.484" stroke="#F2CCC9" stroke-width="1.47617" stroke-miterlimit="10" stroke-linecap="round" stroke-linejoin="round"/>
<path d="M115.896 62.3994H118.115" stroke="#F2CCC9" stroke-width="1.47617" stroke-miterlimit="10" stroke-linecap="round" stroke-linejoin="round"/>
<path d="M103.266 62.9358L110.266 58.0801" stroke="#FC3A52" stroke-width="1.2511" stroke-miterlimit="10" stroke-linecap="round" stroke-linejoin="round"/>
<path d="M103.266 62.9359L94.3168 54.459" stroke="#FC3A52" stroke-width="1.2511" stroke-miterlimit="10" stroke-linecap="round" stroke-linejoin="round"/>
<path d="M104.003 64.2113C104.984 63.8019 105.448 62.6733 105.039 61.6904C104.631 60.7075 103.504 60.2425 102.523 60.6519C101.542 61.0612 101.078 62.1899 101.487 63.1727C101.895 64.1556 103.022 64.6206 104.003 64.2113Z" fill="#FC3A52"/>
</svg>
