<svg width="40" height="40" viewBox="0 0 40 40" fill="none" xmlns="http://www.w3.org/2000/svg">
<ellipse cx="20" cy="21.412" rx="20" ry="18.5882" fill="#FF9000"/>
<mask id="mask0_3256_37586" style="mask-type:alpha" maskUnits="userSpaceOnUse" x="0" y="2" width="40" height="38">
<ellipse cx="20" cy="21.412" rx="20" ry="18.5882" fill="#FF9000"/>
</mask>
<g mask="url(#mask0_3256_37586)">
<path d="M22.3347 45.1741V16.2827" stroke="#F75300" stroke-width="0.914284" stroke-linecap="round" stroke-linejoin="round"/>
<path d="M2.74275 45.1741V16.2827" stroke="#F75300" stroke-width="0.914284" stroke-linecap="round" stroke-linejoin="round"/>
<path d="M27.2326 45.1741V16.2827" stroke="#F75300" stroke-width="0.914284" stroke-linecap="round" stroke-linejoin="round"/>
<path d="M7.6407 45.1741V16.2827" stroke="#F75300" stroke-width="0.914284" stroke-linecap="round" stroke-linejoin="round"/>
<path d="M32.1305 45.1741V16.2827" stroke="#F75300" stroke-width="0.914284" stroke-linecap="round" stroke-linejoin="round"/>
<path d="M12.5386 45.1741V16.2827" stroke="#F75300" stroke-width="0.914284" stroke-linecap="round" stroke-linejoin="round"/>
<path d="M37.0284 45.1741V16.2827" stroke="#F75300" stroke-width="0.914284" stroke-linecap="round" stroke-linejoin="round"/>
<path d="M17.4365 45.1741V16.2827" stroke="#F75300" stroke-width="0.914284" stroke-linecap="round" stroke-linejoin="round"/>
</g>
<ellipse cx="20" cy="18.588" rx="20" ry="18.5882" transform="rotate(-180 20 18.588)" fill="url(#paint0_linear_3256_37586)"/>
<ellipse cx="20" cy="18.5884" rx="17.4683" ry="16.2353" transform="rotate(-180 20 18.5884)" fill="url(#paint1_linear_3256_37586)"/>
<ellipse cx="20.0001" cy="18.5881" rx="13.924" ry="12.9412" transform="rotate(-180 20.0001 18.5881)" fill="#FF8C00"/>
<ellipse cx="20.0001" cy="18.1179" rx="13.924" ry="12.9412" transform="rotate(-180 20.0001 18.1179)" fill="#FFD200"/>
<ellipse cx="20.0001" cy="18.1179" rx="13.924" ry="12.9412" transform="rotate(-180 20.0001 18.1179)" fill="url(#paint2_linear_3256_37586)"/>
<ellipse cx="20.1331" cy="18.2864" rx="13.924" ry="12.9412" transform="rotate(-180 20.1331 18.2864)" fill="#FFD200"/>
<ellipse cx="20.1331" cy="18.2864" rx="13.924" ry="12.9412" transform="rotate(-180 20.1331 18.2864)" fill="url(#paint3_linear_3256_37586)"/>
<path d="M28.6962 14.4858V23.1724C27.4969 23.0437 26.2857 23.0503 25.0887 23.179C23.5631 23.3557 22.0491 23.8138 20.8028 24.6427C20.7887 24.6514 20.8028 24.6711 20.8169 24.6645C21.5046 24.3788 22.2111 24.1693 22.9387 24.0668C24.9197 23.7963 26.9382 24.0886 28.8206 24.6733C29.0835 24.7431 29.2877 24.8761 29.5483 24.8761C30.0177 24.8761 30.4003 24.5227 30.4003 24.0843V14.4858C30.3651 13.4366 28.7291 13.4453 28.6986 14.4858H28.6962Z" fill="white"/>
<path d="M28.6962 14.4858V23.1724C27.4969 23.0437 26.2857 23.0503 25.0887 23.179C23.5631 23.3557 22.0491 23.8138 20.8028 24.6427C20.7887 24.6514 20.8028 24.6711 20.8169 24.6645C21.5046 24.3788 22.2111 24.1693 22.9387 24.0668C24.9197 23.7963 26.9382 24.0886 28.8206 24.6733C29.0835 24.7431 29.2877 24.8761 29.5483 24.8761C30.0177 24.8761 30.4003 24.5227 30.4003 24.0843V14.4858C30.3651 13.4366 28.7291 13.4453 28.6986 14.4858H28.6962Z" fill="url(#paint4_linear_3256_37586)"/>
<path d="M28.2361 21.7079V12.9995C28.2009 11.9502 26.5649 11.959 26.5344 12.9995V20.9509C24.2882 21.1102 22.1007 22.2031 20.7018 23.7847C20.6924 23.7956 20.7088 23.8108 20.7206 23.8021C22.4222 22.6132 24.5041 21.9239 27.0625 22.4191C27.6094 22.6176 28.2924 22.3602 28.2361 21.7057V21.7079Z" fill="white"/>
<path d="M28.2361 21.7079V12.9995C28.2009 11.9502 26.5649 11.959 26.5344 12.9995V20.9509C24.2882 21.1102 22.1007 22.2031 20.7018 23.7847C20.6924 23.7956 20.7088 23.8108 20.7206 23.8021C22.4222 22.6132 24.5041 21.9239 27.0625 22.4191C27.6094 22.6176 28.2924 22.3602 28.2361 21.7057V21.7079Z" fill="url(#paint5_linear_3256_37586)"/>
<path d="M11.3137 14.4619V23.1485C12.5131 23.0198 13.7242 23.0263 14.9213 23.155C16.4469 23.3317 17.9608 23.7898 19.2072 24.6188C19.2212 24.6275 19.2072 24.6472 19.1931 24.6406C18.5054 24.3548 17.7989 24.1454 17.0713 24.0429C15.0903 23.7724 13.0717 24.0647 11.1893 24.6493C10.9265 24.7191 10.7223 24.8522 10.4617 24.8522C9.99229 24.8522 9.60971 24.4988 9.60971 24.0603V14.4619C9.64492 13.4126 11.2809 13.4214 11.3114 14.4619H11.3137Z" fill="white"/>
<path d="M11.3137 14.4619V23.1485C12.5131 23.0198 13.7242 23.0263 14.9213 23.155C16.4469 23.3317 17.9608 23.7898 19.2072 24.6188C19.2212 24.6275 19.2072 24.6472 19.1931 24.6406C18.5054 24.3548 17.7989 24.1454 17.0713 24.0429C15.0903 23.7724 13.0717 24.0647 11.1893 24.6493C10.9265 24.7191 10.7223 24.8522 10.4617 24.8522C9.99229 24.8522 9.60971 24.4988 9.60971 24.0603V14.4619C9.64492 13.4126 11.2809 13.4214 11.3114 14.4619H11.3137Z" fill="url(#paint6_linear_3256_37586)"/>
<path d="M12.1327 21.7079V12.9995C12.1679 11.9502 13.8039 11.959 13.8344 12.9995V20.9509C16.0806 21.1102 18.2681 22.2031 19.667 23.7847C19.6764 23.7956 19.66 23.8108 19.6482 23.8021C17.9466 22.6132 15.8646 21.9239 13.3063 22.4191C12.7594 22.6176 12.0764 22.3602 12.1327 21.7057V21.7079Z" fill="white"/>
<path d="M12.1327 21.7079V12.9995C12.1679 11.9502 13.8039 11.959 13.8344 12.9995V20.9509C16.0806 21.1102 18.2681 22.2031 19.667 23.7847C19.6764 23.7956 19.66 23.8108 19.6482 23.8021C17.9466 22.6132 15.8646 21.9239 13.3063 22.4191C12.7594 22.6176 12.0764 22.3602 12.1327 21.7057V21.7079Z" fill="url(#paint7_linear_3256_37586)"/>
<path d="M20.1837 12.4336C22.4487 12.4336 24.2865 14.1395 24.2865 16.2468C24.2865 18.3519 22.4511 20.06 20.1837 20.06C17.9187 20.06 16.0809 18.3519 16.0809 16.2468C16.0809 14.1417 17.9164 12.4336 20.1837 12.4336Z" fill="white"/>
<path d="M20.1837 12.4336C22.4487 12.4336 24.2865 14.1395 24.2865 16.2468C24.2865 18.3519 22.4511 20.06 20.1837 20.06C17.9187 20.06 16.0809 18.3519 16.0809 16.2468C16.0809 14.1417 17.9164 12.4336 20.1837 12.4336Z" fill="url(#paint8_linear_3256_37586)"/>
<path d="M21.4413 16.0612L19.8288 14.5625C19.6527 14.3989 19.35 14.5145 19.35 14.7457V17.7452C19.35 17.9765 19.6527 18.0943 19.8288 17.9285L21.4413 16.4298C21.5516 16.3273 21.5516 16.1637 21.4413 16.0612Z" fill="white"/>
<path d="M21.4413 16.0612L19.8288 14.5625C19.6527 14.3989 19.35 14.5145 19.35 14.7457V17.7452C19.35 17.9765 19.6527 18.0943 19.8288 17.9285L21.4413 16.4298C21.5516 16.3273 21.5516 16.1637 21.4413 16.0612Z" fill="url(#paint9_linear_3256_37586)"/>
<path d="M20.0001 -9.84678e-05C8.95444 -9.93653e-05 0.000150956 8.32213 0.00014999 18.5881C0.000149517 23.6188 2.15036 28.1827 5.64321 31.5293L34.6836 5.96737C31.0302 2.29748 25.8038 -9.79963e-05 20.0001 -9.84678e-05Z" fill="white" fill-opacity="0.2"/>
<defs>
<linearGradient id="paint0_linear_3256_37586" x1="20" y1="-0.000173569" x2="20" y2="37.1763" gradientUnits="userSpaceOnUse">
<stop stop-color="#FFC200"/>
<stop offset="0.485577" stop-color="#FFCB0B"/>
<stop offset="0.774038" stop-color="#FEEB9B"/>
<stop offset="1" stop-color="#FDFDF5"/>
</linearGradient>
<linearGradient id="paint1_linear_3256_37586" x1="20" y1="2.35317" x2="20" y2="34.8237" gradientUnits="userSpaceOnUse">
<stop stop-color="#FF9300"/>
<stop offset="0.942029" stop-color="#FDD700"/>
</linearGradient>
<linearGradient id="paint2_linear_3256_37586" x1="20.0001" y1="5.17674" x2="20.0001" y2="31.0591" gradientUnits="userSpaceOnUse">
<stop stop-color="#FFBB00"/>
<stop offset="0.942029" stop-color="#FDDF00"/>
</linearGradient>
<linearGradient id="paint3_linear_3256_37586" x1="20.1331" y1="5.3452" x2="20.1331" y2="31.2275" gradientUnits="userSpaceOnUse">
<stop stop-color="#FFBB00"/>
<stop offset="0.942029" stop-color="#FDDF00"/>
</linearGradient>
<linearGradient id="paint4_linear_3256_37586" x1="25.5986" y1="13.7021" x2="25.5986" y2="24.8761" gradientUnits="userSpaceOnUse">
<stop stop-color="#FC7700"/>
<stop offset="1" stop-color="#FFAE00"/>
</linearGradient>
<linearGradient id="paint5_linear_3256_37586" x1="24.4692" y1="12.2158" x2="24.4692" y2="23.8047" gradientUnits="userSpaceOnUse">
<stop stop-color="#FC7700"/>
<stop offset="1" stop-color="#FFAE00"/>
</linearGradient>
<linearGradient id="paint6_linear_3256_37586" x1="14.4114" y1="13.6782" x2="14.4114" y2="24.8522" gradientUnits="userSpaceOnUse">
<stop stop-color="#FC7700"/>
<stop offset="1" stop-color="#FFAE00"/>
</linearGradient>
<linearGradient id="paint7_linear_3256_37586" x1="15.8996" y1="12.2158" x2="15.8996" y2="23.8047" gradientUnits="userSpaceOnUse">
<stop stop-color="#FC7700"/>
<stop offset="1" stop-color="#FFAE00"/>
</linearGradient>
<linearGradient id="paint8_linear_3256_37586" x1="20.1837" y1="12.4336" x2="20.1837" y2="20.06" gradientUnits="userSpaceOnUse">
<stop stop-color="#FC7700"/>
<stop offset="1" stop-color="#FFAE00"/>
</linearGradient>
<linearGradient id="paint9_linear_3256_37586" x1="20.437" y1="14.4858" x2="20.437" y2="18.0061" gradientUnits="userSpaceOnUse">
<stop stop-color="#FFBB00"/>
<stop offset="0.942029" stop-color="#FDDF00"/>
</linearGradient>
</defs>
</svg>
