<svg width="30" height="45" viewBox="0 0 30 45" fill="none" xmlns="http://www.w3.org/2000/svg">
<g opacity="0.5">
<path fill-rule="evenodd" clip-rule="evenodd" d="M20.4882 24.9216C22.3109 21.7645 16.6101 15.0591 7.75477 9.9462C-1.1032 4.83343 -9.75919 3.24849 -11.5819 6.40561C-12.5942 8.1542 -13.604 9.90533 -14.6137 11.6565C-16.4364 14.8137 -10.7357 21.5165 -1.87778 26.6293C6.97764 31.7421 15.6361 33.3297 17.4589 30.1725C18.4686 28.4213 19.4784 26.6728 20.4882 24.9216Z" fill="#FE9923"/>
<path fill-rule="evenodd" clip-rule="evenodd" d="M20.4833 24.9223C21.874 22.5168 18.8906 18.0481 13.4737 13.7969C12.0089 14.4794 10.5133 15.2566 9.01278 16.1232C3.74664 19.1628 -0.535391 22.6983 -3.125 25.8912C-2.71851 26.1417 -2.30437 26.3871 -1.88258 26.63C3.01548 29.4573 7.85219 31.2059 11.5053 31.6712C13.1414 30.9298 14.8183 30.0709 16.503 29.0994C17.3364 28.6163 18.1442 28.1229 18.9265 27.6193L20.4833 24.9223Z" fill="#CE7C1D"/>
<path fill-rule="evenodd" clip-rule="evenodd" d="M7.75415 9.94628C-1.10382 4.83342 -9.75982 3.24849 -11.5825 6.40561C-13.4052 9.56018 -7.70441 16.2656 1.15347 21.3785C10.0089 26.4913 18.6673 28.0788 20.4876 24.9216C22.3102 21.7645 16.6095 15.0591 7.75415 9.94628Z" fill="#FECD3D"/>
<path fill-rule="evenodd" clip-rule="evenodd" d="M1.3125 21.4712C10.1142 26.5099 18.6781 28.0591 20.488 24.9223C21.8787 22.5168 18.8954 18.0481 13.4784 13.7969C12.0136 14.4794 10.5181 15.2566 9.01752 16.1232C6.10825 17.8002 3.50071 19.6306 1.3125 21.4712Z" fill="#CEA732"/>
<path fill-rule="evenodd" clip-rule="evenodd" d="M6.21511 12.6147C-0.830381 8.54736 -7.32875 6.61219 -8.3002 8.29433C-9.26911 9.97646 -4.34548 14.6368 2.70001 18.704C9.7455 22.7712 16.2439 24.7064 17.2152 23.0244C18.1867 21.3448 13.2605 16.6845 6.21511 12.6147Z" fill="#FEA832"/>
<path fill-rule="evenodd" clip-rule="evenodd" d="M3.94531 19.4157C10.4923 22.9972 16.2953 24.6154 17.2079 23.033C17.9672 21.7165 15.1143 18.5746 10.4591 15.3203C9.97848 15.5811 9.49525 15.8495 9.01467 16.1281C7.19709 17.1763 5.49966 18.2832 3.94531 19.4157Z" fill="#CE8829"/>
<path d="M13.8523 29.5721L12.5818 31.7706C12.0424 31.7374 11.4673 31.6735 10.8664 31.5763L12.4821 28.7771L13.8523 29.5721ZM-4.97559 24.692C-4.54352 24.9834 -4.10125 25.2723 -3.64879 25.5561L-2.18137 23.015L-3.55158 22.2275L-4.97559 24.692ZM-13.5625 16.6751C-13.2634 17.1276 -12.9208 17.5928 -12.5348 18.0658L-10.9191 15.2691L-12.2919 14.4766L-13.5625 16.6751ZM-9.54124 21.1564C-9.15013 21.5041 -8.74363 21.8544 -8.3193 22.202L-6.78033 19.5382L-8.15055 18.7509L-9.54124 21.1564ZM-0.0672455 27.6267C0.408242 27.8747 0.881182 28.115 1.34902 28.3425L2.77294 25.8781L1.40273 25.083L-0.0672455 27.6267ZM5.17596 29.9939C5.68977 30.1882 6.19593 30.3646 6.6919 30.5282L8.08259 28.1201L6.71237 27.3327L5.17596 29.9939Z" fill="#C85929"/>
<path d="M17.4882 7.20312V8.80089H19.0885V10.0638H17.4882V11.664H16.2253V10.0638H14.625V8.80089H16.2253V7.20312H17.4882Z" fill="#FEA832"/>
<path fill-rule="evenodd" clip-rule="evenodd" d="M-5.48101 33.3356C-7.30378 30.1785 -1.60038 23.4756 7.25496 18.3627C16.1104 13.2474 24.7688 11.6624 26.5916 14.8196C27.6014 16.5707 28.6111 18.3193 29.6235 20.0705C31.4462 23.2276 25.7428 29.9305 16.8875 35.0459C8.02954 40.1587 -0.626373 41.7437 -2.44914 38.5865C-3.45891 36.8379 -4.47124 35.0867 -5.48101 33.3356Z" fill="#FE9923"/>
<path fill-rule="evenodd" clip-rule="evenodd" d="M7.25496 18.3627C16.1104 13.2474 24.7688 11.6624 26.5916 14.8196C28.4144 17.9767 22.711 24.6796 13.8556 29.7925C4.99766 34.9078 -3.65824 36.4928 -5.48101 33.3356C-7.30377 30.1784 -1.60046 23.4756 7.25496 18.3627Z" fill="#FECD3D"/>
<path fill-rule="evenodd" clip-rule="evenodd" d="M8.7918 21.0379C15.8372 16.9682 22.3382 15.0355 23.307 16.715C24.2785 18.3972 19.3549 23.0575 12.3068 27.1247C5.26141 31.1945 -1.23695 33.1271 -2.20586 31.4476C-3.17732 29.7656 1.74632 25.1053 8.7918 21.0379Z" fill="#FEA832"/>
<path d="M8.2885 35.7546L9.82491 38.4157C9.3111 38.61 8.80494 38.789 8.30643 38.95L6.91573 36.5419L8.2885 35.7546ZM12.2279 34.3L13.6493 36.7643C14.1197 36.5368 14.5926 36.299 15.0656 36.0485L13.5981 33.5075L12.2279 34.3ZM1.14844 37.9939L2.41635 40.1925C2.95837 40.1618 3.53098 40.0953 4.13426 39.9982L2.51856 37.2015L1.14844 37.9939ZM27.2902 22.8984L25.92 23.6909L27.533 26.4876C27.919 26.0148 28.2642 25.552 28.5607 25.0995L27.2902 22.8984ZM17.1821 31.4368L18.6496 33.9805C19.1021 33.6941 19.5443 33.4053 19.9764 33.1139L18.5525 30.6495L17.1821 31.4368ZM21.7812 27.9601L23.3202 30.6264C23.7445 30.2762 24.151 29.9285 24.5396 29.5783L23.1514 27.1727L21.7812 27.9601Z" fill="#C85929"/>
</g>
</svg>
