<svg width="24" height="24" viewBox="0 0 24 24" fill="none" xmlns="http://www.w3.org/2000/svg">
<circle cx="12" cy="12" r="12" fill="url(#paint0_linear_6734_100306)"/>
<g filter="url(#filter0_di_6734_100306)">
<path d="M18.1266 10.3999L15.5736 11.8472C15.2 12.0583 14.7261 11.8928 14.5651 11.4949L12.5224 6.54988C12.3296 6.08363 11.6704 6.08363 11.4776 6.54988L9.43487 11.4949C9.27388 11.8928 8.80004 12.0583 8.42643 11.8472L5.87344 10.3999C5.39504 10.128 4.84071 10.6094 5.0427 11.1213L7.15981 16.4976C7.31168 16.8818 7.68225 17.1354 8.09535 17.1354H15.9047C16.3177 17.1354 16.6883 16.8833 16.8402 16.4976L18.9573 11.1213C19.1593 10.6094 18.605 10.128 18.1266 10.3999Z" fill="#171717"/>
</g>
<defs>
<filter id="filter0_di_6734_100306" x="5" y="6.2002" width="14" height="11.4355" filterUnits="userSpaceOnUse" color-interpolation-filters="sRGB">
<feFlood flood-opacity="0" result="BackgroundImageFix"/>
<feColorMatrix in="SourceAlpha" type="matrix" values="0 0 0 0 0 0 0 0 0 0 0 0 0 0 0 0 0 0 127 0" result="hardAlpha"/>
<feOffset dy="0.5"/>
<feComposite in2="hardAlpha" operator="out"/>
<feColorMatrix type="matrix" values="0 0 0 0 0.482353 0 0 0 0 0.341176 0 0 0 0 0.027451 0 0 0 0.16 0"/>
<feBlend mode="normal" in2="BackgroundImageFix" result="effect1_dropShadow_6734_100306"/>
<feBlend mode="normal" in="SourceGraphic" in2="effect1_dropShadow_6734_100306" result="shape"/>
<feColorMatrix in="SourceAlpha" type="matrix" values="0 0 0 0 0 0 0 0 0 0 0 0 0 0 0 0 0 0 127 0" result="hardAlpha"/>
<feOffset/>
<feGaussianBlur stdDeviation="0.25"/>
<feComposite in2="hardAlpha" operator="arithmetic" k2="-1" k3="1"/>
<feColorMatrix type="matrix" values="0 0 0 0 0.482353 0 0 0 0 0.341176 0 0 0 0 0.027451 0 0 0 0.3 0"/>
<feBlend mode="normal" in2="shape" result="effect2_innerShadow_6734_100306"/>
</filter>
<linearGradient id="paint0_linear_6734_100306" x1="24" y1="12" x2="0" y2="12" gradientUnits="userSpaceOnUse">
<stop stop-color="#9D7634"/>
<stop offset="0.494242" stop-color="#FADAA3"/>
<stop offset="1" stop-color="#987500"/>
</linearGradient>
</defs>
</svg>
