<svg width="64" height="64" viewBox="0 0 64 64" fill="none" xmlns="http://www.w3.org/2000/svg">
<path d="M11.4337 3.00853C8.98664 3.00853 7 4.99517 7 7.44225V13.0697H41.5146L41.165 3H11.4337V3.00853Z" fill="#A7C5F2"/>
<path d="M11.7246 3.00879L46.1625 3.03437L45.6594 3.00879C48.1065 3.00879 50.0931 4.99544 50.0931 7.44251V31.828H16.1668V7.44251C16.1668 4.99544 14.1802 3.00879 11.7331 3.00879" fill="#CADDFB"/>
<path d="M29.1863 13.8975H21.4103C20.7623 13.8975 20.2422 14.4176 20.2422 15.0656V15.0826C20.2422 15.7306 20.7623 16.2507 21.4103 16.2507H29.1863C29.8343 16.2507 30.3544 15.7306 30.3544 15.0826V15.0656C30.3544 14.4176 29.8343 13.8975 29.1863 13.8975Z" fill="#F4FBFF"/>
<path d="M43.3571 18.0488H21.4103C20.7623 18.0488 20.2422 18.5689 20.2422 19.2169V19.234C20.2422 19.882 20.7623 20.4021 21.4103 20.4021H43.3571C44.0051 20.4021 44.5252 19.882 44.5252 19.234V19.2169C44.5252 18.5689 44.0051 18.0488 43.3571 18.0488Z" fill="#F4FBFF"/>
<path d="M43.3571 22.2012H21.4103C20.7623 22.2012 20.2422 22.7213 20.2422 23.3693V23.3863C20.2422 24.0343 20.7623 24.5545 21.4103 24.5545H43.3571C44.0051 24.5545 44.5252 24.0343 44.5252 23.3863V23.3693C44.5252 22.7213 44.0051 22.2012 43.3571 22.2012Z" fill="#F4FBFF"/>
<path d="M54.2618 29.0469H12.5084C10.8543 29.0469 9.51562 30.4111 9.51562 32.0908V42.3651C9.51562 44.0448 10.8543 45.409 12.5084 45.409H54.2618C55.9159 45.409 57.2546 44.0448 57.2546 42.3651V32.0908C57.2546 30.4111 55.9159 29.0469 54.2618 29.0469Z" fill="#5992F6"/>
<path d="M19.9026 34.7946C20.7553 34.7946 21.4459 34.1039 21.4459 33.2513C21.4459 32.3986 20.7553 31.708 19.9026 31.708C19.05 31.708 18.3594 32.3986 18.3594 33.2513C18.3594 34.1039 19.05 34.7946 19.9026 34.7946Z" fill="#F4FBFF"/>
<path d="M15.4847 34.7946C16.3373 34.7946 17.0279 34.1039 17.0279 33.2513C17.0279 32.3986 16.3373 31.708 15.4847 31.708C14.632 31.708 13.9414 32.3986 13.9414 33.2513C13.9414 34.1039 14.632 34.7946 15.4847 34.7946Z" fill="#2461C9"/>
<path d="M50.9116 40.1074H15.425C14.6065 40.1074 13.9414 40.7981 13.9414 41.6507C13.9414 42.5033 14.6065 43.194 15.425 43.194H50.9116C51.7301 43.194 52.3952 42.5033 52.3952 41.6507C52.3952 40.7981 51.7301 40.1074 50.9116 40.1074Z" fill="#1E4A8D"/>
<path d="M16.168 40.0654H19.9025V55.6772C19.9025 56.095 19.57 56.4276 19.1522 56.4276H16.9183C16.5005 56.4276 16.168 56.095 16.168 55.6772V40.0654Z" fill="#CADDFB"/>
<path d="M46.9805 40.0654H50.715V55.6772C50.715 56.095 50.3825 56.4276 49.9647 56.4276H47.7308C47.313 56.4276 46.9805 56.095 46.9805 55.6772V40.0654Z" fill="#CADDFB"/>
<path d="M41.8477 40.0654H45.5822V58.1243C45.5822 58.5421 45.2497 58.8746 44.8319 58.8746H42.598C42.1802 58.8746 41.8477 58.5421 41.8477 58.1243V40.0654Z" fill="#CADDFB"/>
<path d="M36.7148 40.0654H40.4494V55.6772C40.4494 56.095 40.1169 56.4276 39.6991 56.4276H37.4652C37.0474 56.4276 36.7148 56.095 36.7148 55.6772V40.0654Z" fill="#CADDFB"/>
<path d="M31.5645 40.0654H35.299V59.2498C35.299 59.6676 34.9665 60.0001 34.5487 60.0001H32.3148C31.897 60.0001 31.5645 59.6676 31.5645 59.2498V40.0654Z" fill="#CADDFB"/>
<path d="M26.4316 40.0654H30.1662V56.8965C30.1662 57.3143 29.8336 57.6468 29.4159 57.6468H27.182C26.7642 57.6468 26.4316 57.3143 26.4316 56.8965V40.0654Z" fill="#CADDFB"/>
<path d="M21.2988 40.0654H25.0334V58.7382C25.0334 59.156 24.7008 59.4885 24.283 59.4885H22.0491C21.6314 59.4885 21.2988 59.156 21.2988 58.7382V40.0654Z" fill="#CADDFB"/>
</svg>
