<svg width="18" height="18" viewBox="0 0 18 18" fill="none" xmlns="http://www.w3.org/2000/svg">
<path d="M16.5594 3.92985C15.3862 3.19415 13.6364 2.75671 11.5884 2.55787C11.3299 1.36485 10.2761 0.450195 9.00354 0.450195C7.73098 0.450195 6.65726 1.36485 6.41866 2.55787C4.37063 2.75671 2.62087 3.19415 1.44773 3.92985C0.970518 4.2281 1.18924 4.9638 1.74598 4.9638H16.281C16.8178 4.9638 17.0167 4.2281 16.5594 3.92985ZM7.57191 2.47833C7.81052 1.94147 8.34738 1.56368 8.98366 1.56368C9.61994 1.56368 10.1568 1.94147 10.3954 2.47833C9.93808 2.45845 9.46087 2.43857 8.98366 2.43857C8.50645 2.43857 8.02924 2.45845 7.57191 2.47833Z" fill="#343A40"/>
<path d="M15.5457 6.53447L14.1339 16.0985C14.0345 16.9337 13.3187 17.5501 12.4836 17.5501H5.46464C4.62953 17.5501 3.91371 16.9337 3.81429 16.0985L2.40255 6.53447C2.36278 6.29586 2.56162 6.07715 2.80023 6.07715H15.1679C15.4065 6.07715 15.5855 6.27599 15.5457 6.53447Z" fill="#343A40"/>
</svg>
