<svg width="140" height="80" viewBox="0 0 140 80" fill="none" xmlns="http://www.w3.org/2000/svg">
<g clip-path="url(#clip0_12278_32784)">
<path d="M0 8C0 3.58172 3.58172 0 8 0H132C136.418 0 140 3.58172 140 8V80H0V8Z" fill="url(#paint0_linear_12278_32784)"/>
<path d="M64.4623 44.1065C58.3234 44.1065 52.6348 47.3926 47.0689 50.5539C44.245 52.1761 41.2984 53.8816 38.3517 55.0878C24.8872 60.6617 7.94396 56.0861 -1.01876 44.5224L-2.00098 45.3128C7.33007 57.334 24.8463 62.0344 38.8019 56.2525C41.8304 55.0046 44.777 53.2992 47.6828 51.6354C54.2309 47.8917 60.4106 44.3144 67.2861 45.6039C72.9339 46.6438 77.1492 50.6787 81.6101 54.9631C85.1707 58.3739 88.854 61.9096 93.3558 63.823C98.8807 66.1524 105.061 65.8612 110.504 65.5701C115.865 65.3205 121.881 64.9877 127.119 67.1507C131.826 69.1057 136.45 74.222 135.673 79.8375L136.901 80.0039C137.76 73.7229 132.849 68.1906 127.57 65.986C122.086 63.6982 115.906 64.031 110.422 64.2806C105.101 64.5302 99.0854 64.8629 93.806 62.6167C89.4678 60.8281 85.9073 57.3756 82.4286 54.0479C78.0496 49.8467 73.5068 45.4791 67.4908 44.356C66.4676 44.1897 65.4445 44.1065 64.4623 44.1065Z" fill="url(#paint1_linear_12278_32784)" fill-opacity="0.1"/>
<path d="M58.3779 38.1953C53.1278 38.1953 48.1318 41.5824 45.041 45.013C42.416 47.9659 40.3414 51.3965 38.3091 54.7402C37.0389 56.8246 35.7264 59.0392 34.2869 61.0368C24.4218 74.9327 6.68167 82.7926 -9.95766 80.6214L-10 81.0557C-1.74385 82.1413 6.89336 80.8385 14.8955 77.2777C22.8976 73.7168 29.7142 68.2019 34.6256 61.2973C36.0651 59.2564 37.3776 57.0851 38.6478 54.9573C40.6378 51.6136 42.7124 48.183 45.3374 45.317C49.0633 41.1482 55.6682 37.0663 62.0191 39.2375C65.9143 40.5837 68.7934 43.9708 71.5454 47.2277C74.5515 50.8319 77.6846 54.523 82.1726 55.5218C86.9992 56.6074 91.5295 54.1756 95.9752 51.8307C99.9551 49.7029 104.104 47.5316 108.465 47.879C114.943 48.4001 119.643 54.3059 123.58 59.8209L139.627 82.3584L139.966 82.0978L123.919 59.5603C119.939 54.002 115.155 48.0093 108.508 47.4448C104.02 47.0974 99.8704 49.3121 95.8058 51.4399C91.2755 53.8717 86.9569 56.1298 82.2996 55.0876C77.9386 54.1322 75.0172 50.6148 71.8841 46.9237C69.0897 43.58 66.1683 40.1494 62.1884 38.8032C60.8759 38.369 59.6057 38.1953 58.3779 38.1953Z" fill="url(#paint2_linear_12278_32784)" fill-opacity="0.1"/>
<path d="M78.5658 57.6508L78.4825 57.4175C82.0487 56.1446 85.1363 53.8619 87.4111 50.8162C89.7395 47.6989 91.0488 43.9877 91.1968 40.0846L91.4444 40.094C91.2944 44.0479 89.9685 47.8068 87.6096 50.9646C85.3056 54.0493 82.1781 56.3615 78.5658 57.6508Z" fill="#B374FF"/>
<path d="M52.9627 42.7242C52.8248 41.9322 52.7355 41.1205 52.6963 40.3122C52.4456 35.1319 54.2271 30.1645 57.7128 26.3242C61.1986 22.4839 65.9707 20.2311 71.151 19.9804L71.163 20.2279C66.0491 20.4753 61.3376 22.6996 57.8962 26.4906C54.4551 30.2816 52.6963 35.1859 52.9438 40.3002C52.9824 41.0982 53.0708 41.8996 53.207 42.6817L52.9631 42.7241L52.9627 42.7242Z" fill="#B374FF"/>
<path d="M66.3992 68.4118C62.7567 67.7412 59.3198 66.3948 56.183 64.4096C53.109 62.4644 50.4557 59.9916 48.2959 57.0601L48.4953 56.9131C50.6366 59.8199 53.2676 62.2716 56.3155 64.2003C59.4255 66.1681 62.8331 67.5034 66.4442 68.1682L66.3992 68.4118Z" fill="#B374FF"/>
<path d="M94.6107 56.3258L94.4307 56.1557C98.6323 51.7051 99.4645 49.6168 100.244 43.5732L100.49 43.605C99.7036 49.7006 98.8482 51.8372 94.6107 56.3258Z" fill="#B374FF"/>
<path d="M94.8792 22.7861C92.6339 19.741 89.8588 17.2013 86.6308 15.2379C83.3289 13.2296 79.7181 11.9278 75.8984 11.3683L75.9344 11.123C79.7867 11.6871 83.4288 13.0005 86.7592 15.0261C90.0149 17.0064 92.8139 19.568 95.0782 22.6391L94.8788 22.7861H94.8792Z" fill="#B374FF"/>
<path d="M43.484 34.0586L43.2412 34.0091C44.0071 30.2612 45.4874 26.7508 47.641 23.5752C49.7563 20.4558 52.4165 17.8108 55.5471 15.7129L55.685 15.9185C52.5809 17.9987 49.9433 20.6214 47.8458 23.714C45.7107 26.8627 44.2429 30.343 43.4836 34.0586H43.484Z" fill="#B374FF"/>
<path d="M48.1417 61.3543C45.3802 58.3591 43.246 54.9045 41.7975 51.0868C40.378 47.3456 39.6769 43.4182 39.7133 39.4131L39.961 39.4151C39.9251 43.3893 40.6208 47.2866 42.0292 50.9989C43.4661 54.7868 45.5842 58.2142 48.3238 61.1862L48.1417 61.3543Z" fill="#B374FF"/>
<path d="M77.0704 71.2065L77.0283 70.9625C83.6685 69.8213 89.6521 66.6783 94.3327 61.873L94.5103 62.0461C89.7929 66.8889 83.7626 70.0566 77.0704 71.2069V71.2065Z" fill="#B374FF"/>
<path d="M103.596 40.0296L103.348 40.0275C103.384 35.8631 102.62 31.7932 101.075 27.931C99.4956 23.9808 97.1772 20.4481 94.1846 17.4315L94.3605 17.2568C97.3771 20.2974 99.7136 23.8578 101.305 27.8389C102.862 31.7308 103.632 35.8325 103.596 40.0296Z" fill="#B374FF"/>
<path d="M50.2298 15.9842L50.0654 15.7988C53.2142 13.0076 56.8344 10.8973 60.8263 9.52612C64.7471 8.17926 68.8344 7.60906 72.9732 7.83078L72.96 8.0781C68.8525 7.85762 64.7971 8.4237 60.9068 9.76023C56.9459 11.1207 53.3537 13.2149 50.2298 15.9842Z" fill="#B374FF"/>
<g opacity="0.7">
<path d="M36.2312 25.8275L36 25.7388C37.7523 21.1721 40.3325 17.0358 43.6687 13.444C46.9384 9.92409 50.7911 7.0776 55.1199 4.9834L55.2276 5.20636C50.9265 7.28693 47.0986 10.1153 43.8504 13.6125C40.5356 17.1807 37.972 21.2906 36.2312 25.8275Z" fill="#B374FF"/>
</g>
<g opacity="0.7">
<path d="M59.9525 76.0004C56.0767 74.7477 52.4465 72.8942 49.1636 70.4916C45.9633 68.1496 43.1515 65.3308 40.8066 62.1139L41.0069 61.9678C43.3364 65.164 46.1301 67.9646 49.3098 70.2913C52.5716 72.6782 56.1779 74.5193 60.0285 75.7642L59.9521 76L59.9525 76.0004Z" fill="#B374FF"/>
</g>
<g opacity="0.7">
<path d="M88.4828 74.0511L88.375 73.8281C92.8813 71.646 96.8583 68.6517 100.196 64.9282C103.61 61.1197 106.18 56.7376 107.834 51.9043L108.068 51.9844C106.404 56.8495 103.817 61.2601 100.381 65.0934C97.0214 68.8408 93.0188 71.8549 88.4832 74.0511H88.4828Z" fill="#B374FF"/>
</g>
<g opacity="0.7">
<path d="M106.815 24.5035C104.862 19.9604 102.09 15.893 98.5748 12.414C94.9967 8.87215 90.8244 6.11856 86.1748 4.22957L86.2681 4C90.9483 5.90138 95.1474 8.67314 98.7491 12.2381C102.287 15.7394 105.077 19.8333 107.043 24.4056L106.815 24.5035Z" fill="#B374FF"/>
</g>
<path d="M52.5806 52.0608C49.4335 47.1944 48.2741 41.3569 49.3162 35.623L49.5598 35.6672C48.5293 41.3387 49.6759 47.1131 52.7887 51.9262L52.5806 52.0608Z" fill="#B374FF"/>
<path d="M71.7267 62.4878H71.7139V62.2401H71.7267C76.5109 62.2401 81.0771 60.7615 84.9323 57.9629L85.0776 58.1636C81.1799 60.9927 76.5629 62.4878 71.7263 62.4878H71.7267Z" fill="#B374FF"/>
<path d="M94.1289 43.795L93.8853 43.7509C94.4134 40.8383 94.3693 37.8952 93.754 35.0033C93.1248 32.0457 91.9274 29.2913 90.1953 26.8168L90.398 26.6748C92.1491 29.1765 93.3597 31.9615 93.996 34.9517C94.6178 37.875 94.6628 40.8503 94.1285 43.795H94.1289Z" fill="#B374FF"/>
<path d="M59.8785 20.5481L59.748 20.3376C62.2985 18.7578 65.0983 17.7136 68.0691 17.2334C70.987 16.7619 73.9281 16.856 76.8097 17.5138L76.7543 17.7553C73.9041 17.105 70.9949 17.0117 68.1087 17.4778C65.1702 17.9527 62.4013 18.9857 59.8785 20.5481Z" fill="#B374FF"/>
<path d="M66.936 68.4971C67.0994 67.5049 66.4275 66.568 65.4352 66.4046C64.4429 66.2413 63.5061 66.9132 63.3427 67.9055C63.1793 68.8978 63.8513 69.8346 64.8435 69.998C65.8358 70.1614 66.7727 69.4894 66.936 68.4971Z" fill="#B374FF"/>
<path d="M65.4233 68.8915C65.8077 68.7343 65.9918 68.2953 65.8347 67.911C65.6775 67.5266 65.2385 67.3424 64.8541 67.4996C64.4698 67.6568 64.2856 68.0958 64.4428 68.4801C64.5999 68.8645 65.0389 69.0487 65.4233 68.8915Z" fill="#F2F0FF"/>
<path d="M43.572 35.0405C44.4693 35.0405 45.1967 34.3131 45.1967 33.4158C45.1967 32.5184 44.4693 31.791 43.572 31.791C42.6747 31.791 41.9473 32.5184 41.9473 33.4158C41.9473 34.3131 42.6747 35.0405 43.572 35.0405Z" fill="#B374FF"/>
<path d="M43.5723 34.1642C43.9871 34.1642 44.3234 33.828 44.3234 33.4132C44.3234 32.9984 43.9871 32.6621 43.5723 32.6621C43.1575 32.6621 42.8213 32.9984 42.8213 33.4132C42.8213 33.828 43.1575 34.1642 43.5723 34.1642Z" fill="#F2F0FF"/>
<path d="M64.3973 27.8483L64.2412 27.6559C66.5245 25.8049 69.3991 24.8738 72.3368 25.0344C74.564 25.1562 76.6995 25.8973 78.5121 27.1781L78.3692 27.3805C76.5946 26.1265 74.5037 25.4006 72.3232 25.2817C69.4474 25.1244 66.6327 26.0361 64.3973 27.8483Z" fill="#D9DBE9"/>
<path d="M65.8834 29.092C66.616 28.3595 66.616 27.1718 65.8834 26.4393C65.1509 25.7067 63.9632 25.7067 63.2307 26.4393C62.4981 27.1718 62.4981 28.3595 63.2307 29.092C63.9632 29.8245 65.1509 29.8245 65.8834 29.092Z" fill="#F0F0F0"/>
<path d="M65.067 28.4087C65.4197 28.1265 65.4768 27.6117 65.1946 27.259C64.9123 26.9063 64.3976 26.8492 64.0449 27.1315C63.6922 27.4138 63.6351 27.9285 63.9173 28.2812C64.1996 28.6339 64.7143 28.691 65.067 28.4087Z" fill="#FC3A52"/>
<path d="M77.5983 28.1693C78.4012 28.1693 79.0521 27.5184 79.0521 26.7155C79.0521 25.9126 78.4012 25.2617 77.5983 25.2617C76.7954 25.2617 76.1445 25.9126 76.1445 26.7155C76.1445 27.5184 76.7954 28.1693 77.5983 28.1693Z" fill="#F0F0F0"/>
<path d="M78.2004 26.9002C78.3025 26.568 78.116 26.2159 77.7838 26.1138C77.4516 26.0117 77.0995 26.1982 76.9974 26.5304C76.8953 26.8625 77.0818 27.2146 77.414 27.3168C77.7461 27.4189 78.0982 27.2324 78.2004 26.9002Z" fill="#FC3A52"/>
<path d="M100.128 46.2737C100.936 46.2737 101.59 45.6191 101.59 44.8117C101.59 44.0042 100.936 43.3496 100.128 43.3496C99.3206 43.3496 98.666 44.0042 98.666 44.8117C98.666 45.6191 99.3206 46.2737 100.128 46.2737Z" fill="#B374FF"/>
<path d="M100.748 44.9561C100.829 44.6119 100.616 44.267 100.272 44.1857C99.9278 44.1045 99.5828 44.3177 99.5016 44.6619C99.4204 45.0061 99.6335 45.351 99.9778 45.4323C100.322 45.5135 100.667 45.3003 100.748 44.9561Z" fill="#F2F0FF"/>
<path d="M71.9084 55.6528C71.6912 55.6528 71.474 55.647 71.2552 55.635C69.585 55.5438 67.9896 55.1139 66.5127 54.3579L66.6254 54.1375C68.0714 54.8774 69.6333 55.2981 71.2688 55.3873C75.1818 55.6012 78.9078 53.8426 81.2357 50.6836L81.4351 50.8306C79.1873 53.8806 75.6633 55.6528 71.908 55.6528H71.9084Z" fill="#D9DBE9"/>
<path d="M82.5433 51.3943C82.5899 50.4208 81.8385 49.5938 80.865 49.5473C79.8915 49.5007 79.0645 50.2521 79.018 51.2256C78.9714 52.1991 79.7228 53.0261 80.6963 53.0726C81.6698 53.1192 82.4967 52.3678 82.5433 51.3943Z" fill="#D9DBE9"/>
<path d="M81.0939 52.087C81.5175 51.9142 81.7207 51.4307 81.5479 51.0072C81.375 50.5836 80.8916 50.3804 80.468 50.5533C80.0445 50.7261 79.8413 51.2095 80.0141 51.6331C80.187 52.0566 80.6704 52.2598 81.0939 52.087Z" fill="#FC3A52"/>
<path d="M68.4671 55.6485C69.0379 55.179 69.12 54.3357 68.6505 53.7649C68.1809 53.1941 67.3376 53.112 66.7669 53.5815C66.1961 54.051 66.114 54.8943 66.5835 55.4651C67.053 56.0359 67.8963 56.118 68.4671 55.6485Z" fill="#D9DBE9"/>
<path d="M68.1828 54.6497C68.1659 54.9622 67.8984 55.2021 67.5858 55.1848C67.2732 55.1679 67.0333 54.9003 67.0507 54.5878C67.0676 54.2752 67.3352 54.0353 67.6477 54.0526C67.9603 54.0696 68.2002 54.3371 68.1828 54.6497Z" fill="#FC3A52"/>
<path d="M77.0356 12.7186C77.792 12.7186 78.4052 12.1055 78.4052 11.3491C78.4052 10.5927 77.792 9.97949 77.0356 9.97949C76.2792 9.97949 75.666 10.5927 75.666 11.3491C75.666 12.1055 76.2792 12.7186 77.0356 12.7186Z" fill="#B374FF"/>
<path d="M77.0353 11.971C77.379 11.971 77.6575 11.6924 77.6575 11.3488C77.6575 11.0051 77.379 10.7266 77.0353 10.7266C76.6917 10.7266 76.4131 11.0051 76.4131 11.3488C76.4131 11.6924 76.6917 11.971 77.0353 11.971Z" fill="#F2F0FF"/>
<path d="M61.8416 58.0767C62.4094 58.0767 62.8697 57.6164 62.8697 57.0486C62.8697 56.4808 62.4094 56.0205 61.8416 56.0205C61.2738 56.0205 60.8135 56.4808 60.8135 57.0486C60.8135 57.6164 61.2738 58.0767 61.8416 58.0767Z" fill="#AA33FF"/>
<path d="M64.8611 13.482C65.4289 13.482 65.8892 13.0217 65.8892 12.4539C65.8892 11.8861 65.4289 11.4258 64.8611 11.4258C64.2933 11.4258 63.833 11.8861 63.833 12.4539C63.833 13.0217 64.2933 13.482 64.8611 13.482Z" fill="#AA33FF"/>
<path d="M58.9216 42.6748C59.0909 42.1328 58.7888 41.5562 58.2469 41.3869C57.7049 41.2176 57.1283 41.5197 56.9589 42.0616C56.7896 42.6036 57.0917 43.1802 57.6337 43.3496C58.1756 43.5189 58.7523 43.2168 58.9216 42.6748Z" fill="#EDEDED"/>
<path d="M88.1673 33.4838C88.5688 33.0823 88.5688 32.4314 88.1673 32.0299C87.7658 31.6284 87.1148 31.6284 86.7133 32.0299C86.3118 32.4314 86.3118 33.0823 86.7133 33.4838C87.1148 33.8853 87.7658 33.8853 88.1673 33.4838Z" fill="#EDEDED"/>
<path d="M43.9851 43.9927C44.5529 43.9927 45.0132 43.5324 45.0132 42.9646C45.0132 42.3968 44.5529 41.9365 43.9851 41.9365C43.4173 41.9365 42.957 42.3968 42.957 42.9646C42.957 43.5324 43.4173 43.9927 43.9851 43.9927Z" fill="#AA33FF"/>
<path d="M99.115 35.272C99.6828 35.272 100.143 34.8117 100.143 34.2439C100.143 33.6761 99.6828 33.2158 99.115 33.2158C98.5472 33.2158 98.0869 33.6761 98.0869 34.2439C98.0869 34.8117 98.5472 35.272 99.115 35.272Z" fill="#AA33FF"/>
<path d="M81.1417 67.0821C81.2721 66.5294 80.9299 65.9757 80.3772 65.8453C79.8246 65.7149 79.2709 66.0571 79.1405 66.6097C79.01 67.1624 79.3523 67.7161 79.9049 67.8465C80.4575 67.9769 81.0113 67.6347 81.1417 67.0821Z" fill="#AA33FF"/>
<circle cx="99" cy="62" r="6" fill="#CABCF3"/>
<g clip-path="url(#clip1_12278_32784)">
<path d="M100.722 64.4535H97.0755C96.8957 64.4535 96.75 64.3104 96.75 64.134V59.3205C96.75 59.144 96.8957 59.001 97.0755 59.001H100.722C100.902 59.001 101.048 59.144 101.048 59.3205V64.134C101.047 64.3104 100.902 64.4535 100.722 64.4535Z" fill="white"/>
<path d="M98.897 59.4873H97.2441V61.7267H98.897V59.4873Z" fill="#DFD3FB"/>
<path d="M99.0908 59.5859H100.689" stroke="#DFD3FB" stroke-width="0.153695" stroke-miterlimit="10"/>
<path d="M99.0898 60.0234H100.688" stroke="#DFD3FB" stroke-width="0.153695" stroke-miterlimit="10"/>
<path d="M99.0908 60.4619H100.689" stroke="#DFD3FB" stroke-width="0.153695" stroke-miterlimit="10"/>
<path d="M99.0898 60.8994H100.688" stroke="#DFD3FB" stroke-width="0.153695" stroke-miterlimit="10"/>
<path d="M99.0908 61.3369H100.689" stroke="#DFD3FB" stroke-width="0.153695" stroke-miterlimit="10"/>
<path d="M99.0908 61.7764H100.689" stroke="#DFD3FB" stroke-width="0.153695" stroke-miterlimit="10"/>
<path d="M97.2441 62.2148H100.688" stroke="#DFD3FB" stroke-width="0.153695" stroke-miterlimit="10"/>
<path d="M97.2461 62.6523H100.69" stroke="#DFD3FB" stroke-width="0.153695" stroke-miterlimit="10"/>
<path d="M97.2461 63.0908H100.69" stroke="#DFD3FB" stroke-width="0.153695" stroke-miterlimit="10"/>
<path d="M97.2451 63.5283H100.689" stroke="#DFD3FB" stroke-width="0.153695" stroke-miterlimit="10"/>
<path d="M97.2441 63.9658H100.688" stroke="#DFD3FB" stroke-width="0.153695" stroke-miterlimit="10"/>
</g>
<rect x="64" y="2" width="12" height="12" rx="6" fill="#CABCF3"/>
<g clip-path="url(#clip2_12278_32784)">
<g clip-path="url(#clip3_12278_32784)">
<path d="M70.4394 7.91217C70.9615 7.91217 71.3857 7.48794 71.3857 6.96679C71.3857 6.44474 70.9615 6.02051 70.4394 6.02051C69.9174 6.02051 69.4932 6.44474 69.4932 6.96679C69.4932 7.48794 69.9174 7.91217 70.4394 7.91217Z" fill="white"/>
<path d="M69.3174 8.81584C69.3777 8.87161 69.4124 8.95206 69.4124 9.03618L69.4124 9.88646C69.4124 9.93675 69.4536 9.97789 69.5039 9.97789L71.4623 9.97789L71.4623 9.27938C71.4623 9.22818 71.5034 9.18795 71.5537 9.18795C71.604 9.18795 71.6451 9.22818 71.6451 9.27938L71.6451 9.97789L72.1023 9.97789C72.1526 9.97789 72.1937 9.93675 72.1937 9.88646L72.1937 9.21172C72.1937 8.54978 71.6552 8.01126 70.9923 8.01126L70.1558 8.01126C69.9427 8.01126 69.7452 7.91618 69.6136 7.75161C69.2799 7.33652 68.9727 6.86292 68.6984 6.34361C68.6344 6.22201 68.521 6.13424 68.3875 6.10315C68.2531 6.07206 68.1123 6.10041 68.0008 6.18086C67.8115 6.31892 67.7503 6.57949 67.86 6.78612C68.3299 7.67755 68.8063 8.34132 69.3174 8.81584Z" fill="white"/>
</g>
</g>
<rect x="33" y="34" width="12" height="12" rx="6" fill="#CABCF3"/>
<g clip-path="url(#clip4_12278_32784)">
<path fill-rule="evenodd" clip-rule="evenodd" d="M36.876 38.251C36.876 37.9058 37.1558 37.626 37.501 37.626H40.501C40.8462 37.626 41.126 37.9058 41.126 38.251V39.751C41.126 40.0962 40.8462 40.376 40.501 40.376H37.501C37.1558 40.376 36.876 40.0962 36.876 39.751V38.251ZM38.8291 38.4235C38.7472 38.358 38.626 38.4163 38.626 38.5211V39.4808C38.626 39.5856 38.7472 39.6439 38.8291 39.5784L39.4289 39.0986C39.4914 39.0485 39.4914 38.9534 39.4289 38.9034L38.8291 38.4235Z" fill="white"/>
<path d="M39.5 41.2505C39.5 41.5264 39.2762 41.75 39 41.75C38.7239 41.75 38.5 41.5264 38.5 41.2505C38.5 40.9746 38.7239 40.751 39 40.751C39.2762 40.751 39.5 40.9746 39.5 41.2505Z" fill="white"/>
<path fill-rule="evenodd" clip-rule="evenodd" d="M39 41.75C39.2762 41.75 39.5 41.5264 39.5 41.2505C39.5 40.9746 39.2762 40.751 39 40.751C38.7239 40.751 38.5 40.9746 38.5 41.2505C38.5 41.5264 38.7239 41.75 39 41.75Z" fill="white"/>
<path d="M41.25 41.2505C41.25 41.5264 41.0261 41.75 40.75 41.75C40.4738 41.75 40.25 41.5264 40.25 41.2505C40.25 40.9746 40.4738 40.751 40.75 40.751C41.0261 40.751 41.25 40.9746 41.25 41.2505Z" fill="white"/>
<path fill-rule="evenodd" clip-rule="evenodd" d="M40.75 41.75C41.0261 41.75 41.25 41.5264 41.25 41.2505C41.25 40.9746 41.0261 40.751 40.75 40.751C40.4738 40.751 40.25 40.9746 40.25 41.2505C40.25 41.5264 40.4738 41.75 40.75 41.75Z" fill="white"/>
<path d="M37.75 41.2505C37.75 41.5264 37.5261 41.75 37.25 41.75C36.9739 41.75 36.75 41.5264 36.75 41.2505C36.75 40.9746 36.9739 40.751 37.25 40.751C37.5261 40.751 37.75 40.9746 37.75 41.2505Z" fill="white"/>
<path fill-rule="evenodd" clip-rule="evenodd" d="M37.25 41.75C37.5261 41.75 37.75 41.5264 37.75 41.2505C37.75 40.9746 37.5261 40.751 37.25 40.751C36.9739 40.751 36.75 40.9746 36.75 41.2505C36.75 41.5264 36.9739 41.75 37.25 41.75Z" fill="white"/>
<path fill-rule="evenodd" clip-rule="evenodd" d="M37.7501 42.5002C37.8881 42.5002 38.0042 42.3854 37.959 42.255C37.8573 41.9616 37.5783 41.751 37.2501 41.751C36.9218 41.751 36.6428 41.9616 36.5412 42.255C36.496 42.3854 36.612 42.5002 36.7501 42.5002H37.7501Z" fill="white"/>
<path fill-rule="evenodd" clip-rule="evenodd" d="M39.5001 42.5002C39.6382 42.5002 39.7542 42.3854 39.709 42.255C39.6073 41.9616 39.3283 41.751 39.0001 41.751C38.6718 41.751 38.3928 41.9616 38.2912 42.255C38.246 42.3854 38.362 42.5002 38.5001 42.5002H39.5001Z" fill="white"/>
<path fill-rule="evenodd" clip-rule="evenodd" d="M41.2501 42.5002C41.3881 42.5002 41.5041 42.3854 41.459 42.255C41.3573 41.9616 41.0783 41.751 40.7501 41.751C40.4218 41.751 40.1428 41.9616 40.0412 42.255C39.996 42.3854 40.112 42.5002 40.2501 42.5002H41.2501Z" fill="white"/>
</g>
<rect x="54" y="21" width="36" height="36" rx="18" fill="white"/>
<path d="M76.231 43.2301V44.3839M76.231 33.2301V31.4993M76.231 31.4993V30.6019C76.231 30.1417 75.8579 29.7686 75.3977 29.7686H65.9105C65.4502 29.7686 65.0771 30.1417 65.0771 30.6019V31.4993M76.231 31.4993H65.0771M65.0771 31.4993V44.3839M65.0771 44.3839V46.6275C65.0771 47.0878 65.4502 47.4609 65.9105 47.4609H75.3977C75.8579 47.4609 76.231 47.0878 76.231 46.6275V44.3839M65.0771 44.3839H76.231M69.6925 45.9224H70.6541H71.6156" stroke="#202126" stroke-width="0.666667" stroke-linecap="round" stroke-linejoin="round"/>
<path d="M68.9232 35.5376H67.7181C67.534 35.5376 67.3848 35.6869 67.3848 35.871V42.512C67.3848 42.6961 67.534 42.8453 67.7181 42.8453H78.9745C79.1586 42.8453 79.3078 42.6961 79.3078 42.512V35.871C79.3078 35.6869 79.1586 35.5376 78.9745 35.5376H77.3848M68.9232 35.5376V34.7521C68.9232 34.5549 69.0936 34.4003 69.2893 34.4241C70.4724 34.5683 71.7606 34.8772 73.154 35.9223M68.9232 35.5376V40.9735C68.9232 41.1576 69.0724 41.3061 69.2561 41.3181C70.7289 41.4141 72.4394 42.1034 73.154 42.4607M73.154 35.9223C74.5036 34.91 76.1493 34.4898 77.0522 34.4019C77.2355 34.384 77.3848 34.533 77.3848 34.7171V35.5376M73.154 35.9223V42.4607M77.3848 35.5376V40.9735C77.3848 41.1576 77.2361 41.3072 77.0526 41.3218C76.2524 41.3853 74.7411 41.6672 73.154 42.4607" stroke="#FC3A52" stroke-width="0.666667"/>
</g>
<defs>
<linearGradient id="paint0_linear_12278_32784" x1="140" y1="3.8404e-06" x2="-1.65681" y2="76.95" gradientUnits="userSpaceOnUse">
<stop stop-color="#DBCFFF"/>
<stop offset="1" stop-color="#FDF9EF"/>
</linearGradient>
<linearGradient id="paint1_linear_12278_32784" x1="89.76" y1="60.2045" x2="69.6117" y2="64.9039" gradientUnits="userSpaceOnUse">
<stop stop-color="#9875FF"/>
<stop offset="1" stop-color="#FFE6B0"/>
</linearGradient>
<linearGradient id="paint2_linear_12278_32784" x1="89" y1="58" x2="67" y2="62.5" gradientUnits="userSpaceOnUse">
<stop stop-color="#9875FF"/>
<stop offset="1" stop-color="#FFE6B0"/>
</linearGradient>
<clipPath id="clip0_12278_32784">
<path d="M0 8C0 3.58172 3.58172 0 8 0H132C136.418 0 140 3.58172 140 8V80H0V8Z" fill="white"/>
</clipPath>
<clipPath id="clip1_12278_32784">
<rect width="6" height="6" fill="white" transform="translate(96 59)"/>
</clipPath>
<clipPath id="clip2_12278_32784">
<rect width="6" height="6" fill="white" transform="translate(67 5)"/>
</clipPath>
<clipPath id="clip3_12278_32784">
<rect width="5.48571" height="5.48571" fill="white" transform="translate(67.2568 5.25684)"/>
</clipPath>
<clipPath id="clip4_12278_32784">
<rect width="6" height="6" fill="white" transform="translate(36 37)"/>
</clipPath>
</defs>
</svg>
