<svg width="200" height="200" viewBox="0 0 200 200" fill="none" xmlns="http://www.w3.org/2000/svg">
<g style="mix-blend-mode:multiply" opacity="0.3">
<path d="M94.69 99.215H54.123C52.807 99.215 51.74 100.282 51.74 101.598V118.5C51.74 119.816 52.807 120.883 54.123 120.883H58.336C58.092 122.744 57.771 125.413 57.947 125.413C58.134 125.413 60.178 122.605 61.414 120.883H94.69C96.006 120.883 97.073 119.816 97.073 118.5V101.598C97.073 100.282 96.006 99.215 94.69 99.215Z" fill="#DAEEF7"/>
</g>
<path d="M96.6299 94.722H56.0629C54.7469 94.722 53.6799 95.789 53.6799 97.105V114.007C53.6799 115.323 54.7469 116.39 56.0629 116.39H60.2759C60.0319 118.251 59.7109 120.92 59.8869 120.92C60.0739 120.92 62.1179 118.112 63.3539 116.39H96.6299C97.9459 116.39 99.0129 115.323 99.0129 114.007V97.105C99.0129 95.789 97.9459 94.722 96.6299 94.722Z" fill="#FFE6B0"/>
<path d="M62.4779 108.627H60.7239V110.379H62.4779V108.627Z" fill="#FFC0BB"/>
<path d="M62.4791 109.677V108.627H60.7251V109.52C61.1031 109.723 61.6621 109.839 62.4791 109.677Z" fill="#F99893"/>
<path d="M65.245 105.492C65.062 105.402 64.849 105.418 64.657 105.515C64.723 103.787 63.311 102.333 61.533 102.394C59.755 102.333 58.343 103.786 58.409 105.515C58.217 105.418 58.004 105.402 57.821 105.492C57.47 105.665 57.361 106.16 57.577 106.599C57.794 107.037 58.254 107.252 58.605 107.079C58.654 107.055 58.697 107.024 58.737 106.989C58.938 108.418 60.132 109.489 61.533 109.469C62.934 109.489 64.128 108.418 64.329 106.989C64.368 107.024 64.412 107.055 64.461 107.079C64.812 107.252 65.272 107.037 65.489 106.599C65.705 106.161 65.596 105.665 65.245 105.492Z" fill="#FFC0BB"/>
<path d="M59.397 101.709C59.397 101.709 60.277 100.964 62.279 101.084C64.28 101.204 64.661 102.249 64.775 103.74L64.658 105.515C64.658 105.515 64.138 104.981 63.462 103.499C63.462 103.499 62.342 104.756 61.854 104.607C61.366 104.458 62.039 103.553 62.039 103.553C62.039 103.553 59.756 105.517 58.412 105.514C58.412 105.514 57.7 103.215 58.699 102.372C58.699 102.372 57.947 102.408 57.907 102.26C57.867 102.112 58.266 101.891 58.989 101.974C58.989 101.974 58.474 100.966 58.762 100.861C59.05 100.756 59.4 101.708 59.4 101.708L59.397 101.709Z" fill="#07085B"/>
<path d="M116.398 73.317L117.876 82.587L120.999 70.228C120.999 70.228 116.622 68.104 116.429 68.876C116.236 69.648 116.398 73.317 116.398 73.317Z" fill="#07085B"/>
<path d="M141.241 93.269L142.592 109.295L128.45 108.62L130.081 94.428L141.241 93.269Z" fill="#FFC0BB"/>
<path d="M129.305 101.177L130.08 94.428L141.24 93.269L141.708 98.819C139.489 101.03 135.499 103.322 129.305 101.177Z" fill="#F99893"/>
<path d="M120.634 82.471C121.484 84.23 121.033 86.207 119.626 86.887C118.219 87.567 116.389 86.693 115.539 84.934C114.689 83.175 115.14 81.198 116.547 80.518C117.954 79.838 119.784 80.712 120.634 82.471Z" fill="#F99893"/>
<path d="M120.532 90.602C119.52 88.335 118.928 85.897 118.582 83.759C118.508 83.3 118.407 82.847 118.299 82.396C117.859 80.572 117.742 78.617 118.047 76.579C119.03 70.022 124.305 64.794 130.874 63.886C139.723 62.663 147.518 69.214 148.068 77.892C148.978 77.308 150.03 77.12 150.989 77.477C152.829 78.163 153.626 80.584 152.769 82.884C151.912 85.184 149.725 86.493 147.884 85.807C147.628 85.712 147.395 85.58 147.182 85.423C146.898 92.854 141.21 98.937 133.946 99.277C130.394 99.443 127.089 98.205 124.524 96.036C122.88 94.828 121.329 92.478 120.532 90.602Z" fill="#FFC0BB"/>
<path d="M129.598 78.914C129.569 79.78 129.562 80.625 129.518 81.453C129.467 82.219 129.383 83.319 128.906 83.903C128.835 84.003 128.461 84.408 128.452 85.022C128.432 85.595 128.735 86.107 129.112 86.421C129.884 87.07 130.884 87.132 131.712 86.928C130.867 86.779 130.057 86.488 129.586 85.936C129.368 85.662 129.223 85.355 129.274 85.068C129.312 84.738 129.495 84.566 129.562 84.466C129.797 84.155 130.079 83.831 130.2 82.773C130.242 82.319 130.236 81.878 130.194 81.441C130.11 80.571 129.924 79.721 129.599 78.914H129.598Z" fill="#F99893"/>
<path d="M134.61 80.058C134.644 80.786 135.262 81.348 135.989 81.314C136.716 81.28 137.279 80.662 137.245 79.935C137.211 79.207 136.593 78.645 135.866 78.679C135.138 78.713 134.576 79.331 134.61 80.058Z" fill="#333333"/>
<path d="M123.33 81.33C123.364 82.058 123.982 82.62 124.709 82.586C125.437 82.552 125.999 81.934 125.965 81.207C125.931 80.479 125.313 79.917 124.586 79.951C123.858 79.985 123.296 80.603 123.33 81.33Z" fill="#333333"/>
<path d="M136.823 88.989C135.48 90.159 133.734 91.073 131.999 91.283C130.123 91.52 128.466 90.948 126.87 89.964C128.357 91.213 130.079 91.846 132.042 91.626C133.954 91.377 135.741 90.276 136.824 88.988L136.823 88.989Z" fill="#F99893"/>
<path d="M132.955 77.08C134.814 76.506 135.866 76.473 136.716 76.577C138.569 76.826 139.612 77.645 140.26 77.929C139.48 76.492 138.281 75.726 136.833 75.545C135.264 75.357 133.729 76.066 132.956 77.08H132.955Z" fill="#07085B"/>
<path d="M127.144 77.734C126.191 76.892 124.549 76.49 123.042 76.981C121.66 77.438 120.63 78.42 120.143 79.985C120.725 79.58 121.586 78.575 123.357 77.97C124.168 77.704 125.205 77.53 127.144 77.733V77.734Z" fill="#07085B"/>
<path d="M126.871 102.904C126.871 102.904 113.562 104.594 110.182 107.34C106.802 110.086 90.5359 150.435 90.5359 150.435L104.056 166.279L132.786 166.49C132.786 166.49 154.333 178.109 167.853 167.124C181.373 156.139 174.402 117.903 166.586 109.665C158.77 101.426 144.827 101.638 144.827 101.638C144.827 101.638 132.152 110.51 126.871 102.905V102.904Z" fill="#1570EF"/>
<path d="M106.135 157.147C106.22 156.478 111.297 155.731 113.163 155.635C114.577 155.562 123.95 155.249 127.138 155.105L126.904 155.925L126.952 159.545L127.476 161.944C124.679 162.121 117.841 162.389 116.417 162.67C114.515 163.046 111.216 164.48 111.216 164.48C111.216 164.48 109.844 164.168 111.588 163.416C112.988 162.812 113.971 161.876 114.386 161.411C114.625 161.143 114.366 160.667 114.192 160.712C109.445 161.956 108.956 162.162 108.956 162.162C108.956 162.162 103.376 162.131 108.924 160.877C112.25 160.125 113.441 159.689 113.738 159.315C113.864 159.156 113.639 158.615 113.436 158.603C110.555 158.425 105.383 159.446 106.8 158.777C107.955 158.231 111.593 157.632 113.008 157.407C113.095 157.393 113.235 156.866 112.849 156.834C110.105 156.605 106.056 157.769 106.135 157.147Z" fill="#FFC0BB"/>
<path d="M116.115 64.547C116.115 64.547 111.678 64.69 116.334 60.938C120.99 57.186 133.49 52.787 141.503 57.018C141.503 57.018 143.105 53.611 145.421 54.425C147.737 55.238 143.915 57.582 143.915 57.582C143.915 57.582 146.873 57.487 147.775 58.938C148.442 60.011 146.631 60.058 145.641 60.009C147.325 60.295 153.78 64.372 150.54 77.388C149.388 77.135 142.826 67.62 142.826 67.62C142.826 67.62 127.82 75.957 129.304 69.328C129.304 69.328 113.757 79.03 115.963 71.016C115.963 71.016 109.951 71.457 116.113 64.548L116.115 64.547Z" fill="#07085B"/>
<path d="M150.554 77.466C150.554 77.466 149.311 77.029 147.975 78.09C146.639 79.15 146.787 82.877 146.787 82.877C146.787 82.877 140.408 86.99 141.08 69.584C141.796 51.066 146.401 71.069 146.401 71.069L150.554 77.465V77.466Z" fill="#07085B"/>
<g style="mix-blend-mode:multiply" opacity="0.3">
<path d="M65.423 60.846H18.96C17.355 60.846 16.054 62.147 16.054 63.752V82.926C16.054 84.531 17.355 85.832 18.96 85.832H55.54C57.02 87.898 59.705 91.597 59.942 91.597C60.164 91.597 59.737 88.103 59.436 85.832H65.423C67.028 85.832 68.329 84.531 68.329 82.926V63.752C68.329 62.147 67.028 60.846 65.423 60.846Z" fill="#DAEEF7"/>
</g>
<path d="M63.504 55.872H17.042C15.437 55.872 14.136 57.173 14.136 58.778V77.952C14.136 79.557 15.437 80.858 17.042 80.858H53.622C55.102 82.924 57.787 86.623 58.024 86.623C58.246 86.623 57.819 83.129 57.518 80.858H63.505C65.11 80.858 66.411 79.557 66.411 77.952V58.778C66.411 57.173 65.11 55.872 63.505 55.872H63.504Z" fill="#FF9497"/>
<path d="M20.3161 68.557C20.3161 68.557 19.5941 65.593 21.3151 64.483C23.0361 63.373 24.8731 63.119 26.1291 63.758C27.8701 64.645 28.5851 67.04 28.0281 68.366L23.4081 67.206L20.3171 68.558L20.3161 68.557Z" fill="#040744"/>
<path d="M25.2598 72.036H23.1208V74.172H25.2598V72.036Z" fill="#FFC0BB"/>
<path d="M25.2598 73.317V72.037H23.1208V73.126C23.5808 73.373 24.2628 73.515 25.2598 73.317Z" fill="#F99893"/>
<path d="M28.6329 68.213C28.4099 68.103 28.1509 68.123 27.9159 68.241C27.9969 66.134 26.2749 64.361 24.1069 64.436C21.9389 64.361 20.2179 66.134 20.2979 68.241C20.0639 68.122 19.8039 68.103 19.5809 68.213C19.1529 68.424 19.0199 69.028 19.2839 69.563C19.5479 70.097 20.1089 70.36 20.5369 70.149C20.5959 70.12 20.6499 70.082 20.6969 70.039C20.9419 71.781 22.3979 73.087 24.1059 73.063C25.8139 73.087 27.2699 71.781 27.5149 70.039C27.5629 70.082 27.6159 70.12 27.6749 70.149C28.1029 70.36 28.6639 70.098 28.9279 69.563C29.1919 69.029 29.0589 68.424 28.6309 68.213H28.6329Z" fill="#FFC0BB"/>
<path d="M20.299 68.242C20.299 68.242 23.099 67.394 24.324 65.978C24.324 65.978 23.977 67.684 23.719 67.956C23.801 68.01 26.515 66.691 26.884 65.473C27.253 64.255 24.109 63.818 24.109 63.818C24.109 63.818 23.032 64.277 22.977 64.304C22.923 64.331 21.912 64.449 21.796 64.707C21.645 65.042 20.932 65.072 20.932 65.072L20.482 66.009L20.167 66.995L20.301 68.242H20.299Z" fill="#040744"/>
<path d="M18.0061 64.385C18.6241 64.634 19.3391 64.749 20.0791 64.521C21.7131 64.019 22.3601 64.214 22.5771 64.337C22.7081 64.411 22.8631 64.44 23.0061 64.393C23.1671 64.339 23.3171 64.193 23.2701 63.825C23.2701 63.825 23.3351 62.273 22.0041 61.388C20.3441 61.888 18.9341 62.964 18.0061 64.384V64.385Z" fill="#040744"/>
<path d="M21.521 64.283C21.473 64.219 21.488 64.127 21.555 64.083C21.828 63.904 22.53 63.5 23.373 63.457C23.452 63.453 23.518 63.517 23.518 63.596C23.518 63.67 23.46 63.73 23.386 63.734C22.616 63.774 21.955 64.154 21.706 64.316C21.645 64.355 21.564 64.341 21.521 64.283Z" fill="#FEB546"/>
<path d="M60.5481 34.974L61.5171 42.272L56.3331 38.486L40.4661 30.38L52.7391 31.504C52.7391 31.504 58.9911 33.023 59.3301 33.329C59.6681 33.635 60.5491 34.974 60.5491 34.974H60.5481Z" fill="#C12F56"/>
<path d="M65.9821 30.567L40.4651 30.381L60.5481 34.974L65.9821 30.567Z" fill="#FC3A52"/>
<path d="M52.3451 42.316L59.0311 36.946L40.4651 30.381L52.3451 42.316Z" fill="#FC3A52"/>
<path d="M92.107 74.42L91.77 73.922C92.286 73.573 92.758 73.146 93.174 72.651L93.634 73.038C93.182 73.575 92.668 74.04 92.107 74.42Z" fill="#FEB546"/>
<path d="M95.483 69.523L94.91 69.343C95.258 68.234 95.488 66.976 95.594 65.602L96.193 65.648C96.084 67.067 95.845 68.371 95.484 69.523H95.483ZM96.172 61.721L95.574 61.782C95.557 61.617 95.538 61.452 95.516 61.288C95.442 60.729 95.335 60.164 95.198 59.609C95.072 59.097 94.917 58.582 94.739 58.078L95.306 57.877C95.491 58.4 95.651 58.935 95.782 59.465C95.924 60.041 96.035 60.628 96.113 61.209C96.135 61.375 96.155 61.548 96.173 61.722L96.172 61.721ZM93.09 54.644C92.448 53.595 91.681 52.562 90.812 51.575L91.263 51.178C92.155 52.191 92.942 53.252 93.603 54.33L93.09 54.644ZM74.315 53.222C73.906 53.323 72.863 53.346 72.194 52.947C71.694 52.649 71.277 52.18 70.99 51.593L71.53 51.329C71.77 51.819 72.097 52.19 72.502 52.431C72.984 52.719 73.845 52.719 74.171 52.639C74.215 52.628 74.231 52.62 74.231 52.62C74.256 52.604 74.287 52.584 74.317 52.564L74.651 53.064C74.617 53.087 74.582 53.109 74.547 53.131C74.488 53.168 74.412 53.198 74.315 53.222ZM88.074 48.893C87.118 48.079 86.082 47.306 84.997 46.596L85.326 46.093C86.433 46.817 87.488 47.605 88.464 48.435L88.074 48.893ZM76.816 49.687L76.228 49.564C76.306 49.194 76.345 48.816 76.346 48.442C76.347 47.914 76.28 47.37 76.145 46.823C76.072 46.526 75.977 46.223 75.865 45.923L76.427 45.712C76.548 46.034 76.649 46.36 76.728 46.679C76.875 47.273 76.948 47.867 76.947 48.444C76.946 48.859 76.902 49.278 76.816 49.688V49.687ZM71.533 47.838L70.991 47.579C71.535 46.44 72.559 45.443 73.798 44.842L73.881 44.803L74.137 45.347L74.061 45.383C72.942 45.925 72.02 46.82 71.534 47.838H71.533ZM81.502 45.143C80.412 44.81 79.547 44.608 79.128 44.588C78.648 44.565 78.208 44.56 77.785 44.573L77.767 43.972C78.206 43.959 78.661 43.964 79.157 43.987C79.796 44.017 81.01 44.364 81.678 44.568L81.503 45.143H81.502ZM73.916 42.711C73.097 41.751 72.138 40.917 71.067 40.232L71.391 39.726C72.512 40.443 73.516 41.316 74.373 42.321L73.916 42.711Z" fill="#FEB546"/>
<path d="M67.6199 38.692C66.9879 38.518 66.3499 38.398 65.7229 38.334L65.7839 37.736C66.4439 37.803 67.1159 37.93 67.7799 38.112L67.6209 38.691L67.6199 38.692Z" fill="#FEB546"/>
<path d="M40.0499 123.662C40.0499 123.662 39.8289 125.843 38.1079 125.994C39.8289 126.145 40.0499 128.326 40.0499 128.326C40.0499 128.326 40.2709 126.145 41.9919 125.994C40.2709 125.843 40.0499 123.662 40.0499 123.662Z" fill="#FC3A52"/>
<path d="M104.83 92.577C104.83 92.577 104.478 96.049 101.738 96.289C104.478 96.529 104.83 100.001 104.83 100.001C104.83 100.001 105.182 96.529 107.922 96.289C105.182 96.049 104.83 92.577 104.83 92.577Z" fill="#1570EF"/>
<path d="M10.103 50.636C10.103 50.636 9.75099 54.108 7.01099 54.348C9.75099 54.588 10.103 58.06 10.103 58.06C10.103 58.06 10.455 54.588 13.195 54.348C10.455 54.108 10.103 50.636 10.103 50.636Z" fill="#1570EF"/>
<path d="M76.3509 79.681C76.3509 79.681 76.0819 82.757 73.9929 82.97C76.0829 83.183 76.3509 86.259 76.3509 86.259C76.3509 86.259 76.6199 83.183 78.7089 82.97C76.6189 82.757 76.3509 79.681 76.3509 79.681Z" fill="#FEB546"/>
<path d="M22.1361 34.705C22.1361 34.705 21.8671 37.781 19.7781 37.994C21.8681 38.207 22.1361 41.283 22.1361 41.283C22.1361 41.283 22.4051 38.207 24.4941 37.994C22.4041 37.781 22.1361 34.705 22.1361 34.705Z" fill="#FEB546"/>
<path d="M173.007 61.127C183.994 61.127 192.9 53.1004 192.9 43.199C192.9 33.2976 183.994 25.271 173.007 25.271C162.02 25.271 153.114 33.2976 153.114 43.199C153.114 53.1004 162.02 61.127 173.007 61.127Z" fill="#E6F7FF"/>
<path d="M160.77 63.808C160.77 65.102 159.606 66.151 158.171 66.151C156.736 66.151 155.571 65.102 155.571 63.808C155.571 62.514 156.735 61.465 158.171 61.465C159.607 61.465 160.77 62.514 160.77 63.808Z" fill="#E6F7FF"/>
<path d="M182.012 40.231C181.591 37.899 179.984 36.004 177.539 35.827C174.471 35.605 173.265 38.375 173.045 38.631C172.904 38.464 172.268 36.82 170.541 36.057C167.715 34.809 164.29 36.744 163.904 40.867C163.704 43.004 164.331 44.627 165.545 46.33C167.288 48.775 170.325 51.413 172.741 53.197C172.831 53.263 172.892 53.263 172.979 53.197C174.277 52.217 178.683 49.186 180.941 45.662C182.011 43.991 182.364 42.179 182.012 40.23V40.231Z" fill="#FC3A52"/>
<path d="M152.643 122.973C152.167 125.172 151.876 127.404 151.668 129.643C151.553 130.762 151.504 131.887 151.439 133.01C151.405 134.135 151.379 135.261 151.395 136.389C151.439 138.641 151.562 140.901 151.95 143.132C152.328 145.354 152.878 147.583 153.911 149.59C153.216 147.449 152.872 145.248 152.622 143.04C152.377 140.831 152.292 138.603 152.264 136.377C152.218 134.15 152.272 131.918 152.343 129.685C152.422 127.452 152.524 125.217 152.643 122.973Z" fill="white" fill-opacity="0.2"/>
<path d="M112.823 121.494C112.215 124.767 111.571 128.027 110.917 131.282C110.249 134.534 109.557 137.78 108.77 141C107.992 144.221 107.127 147.422 106.081 150.559C105.557 152.128 104.972 153.675 104.286 155.177C103.61 156.682 102.808 158.139 101.733 159.413C102.956 158.271 103.855 156.824 104.667 155.367C105.455 153.889 106.134 152.354 106.719 150.788C107.317 149.226 107.83 147.635 108.316 146.038C108.785 144.436 109.214 142.823 109.614 141.204C109.996 139.581 110.362 137.954 110.69 136.321C111.007 134.685 111.319 133.049 111.581 131.404C112.125 128.118 112.548 124.813 112.823 121.494Z" fill="white" fill-opacity="0.2"/>
<path d="M152.397 149.892C151.232 150.17 150.05 150.372 148.88 150.619C146.525 151.048 144.163 151.423 141.793 151.755C139.421 152.066 137.045 152.353 134.664 152.583C132.292 152.818 129.879 153.02 127.531 153.152L127.215 153.17L127.146 153.444C126.944 154.24 126.813 155.017 126.713 155.813C126.613 156.606 126.572 157.406 126.573 158.206C126.58 159.007 126.649 159.808 126.78 160.601C126.926 161.393 127.16 162.168 127.475 162.911L127.502 162.975L127.553 163.009L130.162 164.759C131.031 165.343 131.904 165.923 132.785 166.491C131.967 165.835 131.141 165.191 130.312 164.552L127.885 162.678C127.634 161.976 127.455 161.251 127.356 160.509C127.264 159.748 127.221 158.981 127.244 158.211C127.269 157.442 127.345 156.674 127.453 155.911C127.55 155.249 127.679 154.581 127.843 153.942C128.969 153.905 130.048 153.832 131.154 153.751C132.354 153.662 133.553 153.567 134.749 153.441C137.142 153.194 139.53 152.895 141.906 152.516C144.281 152.133 146.645 151.669 148.986 151.116C150.152 150.818 151.32 150.531 152.468 150.168C153.625 149.843 154.76 149.437 155.89 149.035C154.722 149.319 153.57 149.646 152.396 149.891L152.397 149.892Z" fill="white" fill-opacity="0.2"/>
<path d="M50.4281 130.261H95.7051C97.0941 130.261 98.3451 131.101 98.8721 132.386L112.736 166.226H137.769C138.469 166.226 139.036 166.793 139.036 167.493C139.036 168.193 138.469 168.76 137.769 168.76H65.4981C64.1631 168.76 62.9531 167.976 62.4071 166.758L47.8331 134.268C46.9891 132.386 48.3661 130.259 50.4281 130.259V130.261Z" fill="#07085B"/>
</svg>
