<svg width="180" height="163" viewBox="0 0 180 163" fill="none" xmlns="http://www.w3.org/2000/svg">
<path d="M168.469 104.294C153.866 101.201 140.577 95.8836 128.634 88.2642C123.225 84.8116 122.764 77.0987 127.675 72.9646C137.982 64.2775 148.266 56.9955 158.509 52.5295C163.171 50.4961 168.595 52.4697 170.866 57.0189C177.395 70.1066 180.669 83.0016 179.886 95.6518C179.537 101.396 174.101 105.483 168.469 104.294Z" fill="#E8F5FF"/>
<path d="M158.435 81.5372L165.425 66.9995C166.226 65.3326 165.817 63.3357 164.425 62.1184C162.178 60.1533 158.651 61.1592 157.779 64.0144L153.068 79.4412C152.682 80.707 153.205 82.0729 154.337 82.7582C155.795 83.6407 157.697 83.0742 158.435 81.5372Z" fill="#1570EF"/>
<path d="M154.816 91.2236C156.51 90.0003 156.892 87.6347 155.669 85.9401C154.446 84.2454 152.08 83.8634 150.386 85.0867C148.691 86.31 148.309 88.6755 149.532 90.3702C150.756 92.0649 153.121 92.447 154.816 91.2236Z" fill="#1570EF"/>
<path d="M12.2739 147.542C12.2739 150.863 20.879 153.773 33.8209 155.417C38.6713 156.033 44.1265 156.467 49.9697 156.684C52.2637 156.763 54.6147 156.821 57.0113 156.832C57.4108 156.832 57.8216 156.832 58.2325 156.832C60.2753 156.832 62.2839 156.809 64.2583 156.752C64.7262 156.741 65.1942 156.729 65.6621 156.706C66.2784 156.684 66.906 156.661 67.5109 156.638C71.2314 156.478 74.7921 156.239 78.1246 155.919C80.43 155.691 82.6326 155.428 84.7097 155.131C96.4989 153.454 104.202 150.681 104.202 147.542C104.202 144.175 95.3462 141.231 82.0848 139.599C80.2816 139.382 78.3985 139.177 76.447 139.017C74.1074 138.811 71.6651 138.64 69.1315 138.526C69.0288 138.515 68.9375 138.515 68.8348 138.515C65.4338 138.355 61.8731 138.264 58.2325 138.264C57.0113 138.264 55.813 138.275 54.6147 138.286C54.1125 138.298 53.6218 138.309 53.1196 138.309C47.0139 138.446 41.2733 138.823 36.1263 139.394C21.9176 140.98 12.2739 144.038 12.2739 147.542Z" fill="#CDCECE"/>
<path d="M58.2439 157.106C57.833 157.106 57.4336 157.106 57.0227 157.106C54.6603 157.095 52.2865 157.049 49.9697 156.958C44.2292 156.752 38.7854 156.318 33.7867 155.691C19.9432 153.933 12 150.966 12 147.554C12 143.959 21.016 140.82 36.1148 139.143C41.4217 138.549 47.1508 138.184 53.131 138.058L54.6261 138.036C55.813 138.013 57.0341 138.013 58.2439 138.013C61.8502 138.013 65.4224 138.093 68.869 138.264L69.1771 138.275C71.6765 138.401 74.1416 138.56 76.4926 138.766C78.3985 138.926 80.293 139.131 82.1418 139.348C96.1451 141.071 104.499 144.141 104.499 147.554C104.499 150.772 97.3092 153.637 84.7667 155.417C82.7353 155.714 80.5212 155.976 78.1702 156.204C74.8035 156.535 71.2314 156.775 67.5451 156.935C66.9288 156.958 66.3126 156.98 65.6963 157.003C65.2284 157.015 64.7604 157.037 64.2925 157.049C62.2269 157.083 60.1954 157.106 58.2439 157.106ZM58.2439 138.538C57.0341 138.538 55.813 138.549 54.6375 138.56L53.1424 138.583C47.1736 138.72 41.4673 139.074 36.1719 139.668C21.8148 141.265 12.5478 144.347 12.5478 147.542C12.5478 150.555 20.7192 153.477 33.8551 155.143C38.831 155.771 44.252 156.204 49.9811 156.41C52.2865 156.49 54.6603 156.547 57.0227 156.558C59.3737 156.581 61.7932 156.547 64.2583 156.478C64.7262 156.467 65.1941 156.455 65.662 156.433C66.2783 156.41 66.8946 156.387 67.5109 156.364C71.1857 156.204 74.7579 155.965 78.1132 155.645C80.4528 155.417 82.6554 155.154 84.6868 154.858C96.5674 153.169 103.951 150.361 103.951 147.542C103.951 144.472 95.5745 141.539 82.0734 139.873C80.2359 139.645 78.3414 139.451 76.447 139.291C74.096 139.085 71.6422 138.914 69.1429 138.8L68.8347 138.789C65.411 138.618 61.8388 138.538 58.2439 138.538Z" fill="#52565E"/>
<path d="M104.214 147.542C104.214 148.547 103.415 149.517 101.955 150.418C98.5194 148.296 91.3865 146.504 82.0967 145.363C80.2935 145.146 78.4104 144.94 76.4589 144.781C74.1193 144.575 71.6656 144.404 69.1434 144.29C69.0407 144.278 68.9494 144.278 68.8467 144.278C65.4457 144.119 61.885 144.027 58.2444 144.027C57.0232 144.027 55.8249 144.039 54.6266 144.05C54.1244 144.062 53.6337 144.073 53.1315 144.073C47.0258 144.21 41.2852 144.587 36.1382 145.157C25.9924 146.287 18.1747 148.159 14.5341 150.418C13.0619 149.517 12.2744 148.547 12.2744 147.542C12.2744 144.039 21.9181 140.98 36.1382 139.405C41.2852 138.835 47.0258 138.458 53.1315 138.321C53.6223 138.31 54.1244 138.298 54.6266 138.298C55.8135 138.275 57.0232 138.275 58.2444 138.275C61.8964 138.275 65.4457 138.355 68.8467 138.526C68.9494 138.538 69.0407 138.538 69.1434 138.538C71.6656 138.663 74.1079 138.823 76.4589 139.029C78.4104 139.2 80.2935 139.394 82.0967 139.611C95.3581 141.231 104.214 144.187 104.214 147.542Z" fill="#EEEFF4"/>
<path d="M14.5336 150.702C14.4879 150.702 14.4309 150.691 14.3852 150.657C12.7989 149.675 12 148.625 12 147.541C12 143.946 21.016 140.808 36.1148 139.13C41.4217 138.536 47.1508 138.171 53.131 138.046L54.626 138.023C55.813 138 57.0341 138 58.2439 138C61.8502 138 65.4224 138.08 68.869 138.251L69.1657 138.262C71.6651 138.388 74.1302 138.548 76.4812 138.753C78.3871 138.913 80.2816 139.118 82.1304 139.335C96.1337 141.059 104.488 144.129 104.488 147.541C104.488 148.637 103.689 149.675 102.091 150.657C102 150.714 101.897 150.714 101.806 150.657C98.439 148.568 91.4203 146.788 82.0619 145.635C80.2245 145.407 78.33 145.213 76.4355 145.053C74.0845 144.848 71.6308 144.676 69.1315 144.562L68.8347 144.551C65.411 144.391 61.8502 144.3 58.2439 144.3C57.0341 144.3 55.813 144.311 54.6375 144.323L53.1424 144.345C47.1736 144.482 41.4673 144.836 36.1719 145.43C25.912 146.571 18.2769 148.42 14.682 150.657C14.6363 150.679 14.5907 150.702 14.5336 150.702ZM58.2439 143.752C61.8502 143.752 65.4224 143.832 68.869 144.003L69.1657 144.014C71.6651 144.14 74.1302 144.3 76.4812 144.505C78.3871 144.665 80.2816 144.87 82.1304 145.087C91.4317 146.228 98.4618 148.009 101.954 150.097C103.278 149.253 103.94 148.397 103.94 147.541C103.94 144.471 95.563 141.538 82.0619 139.872C80.2245 139.643 78.33 139.449 76.4355 139.29C74.0845 139.084 71.6308 138.913 69.1315 138.799L68.8347 138.787C65.411 138.628 61.8502 138.536 58.2439 138.536C57.0341 138.536 55.813 138.548 54.6375 138.559L53.1424 138.582C47.1736 138.719 41.4673 139.073 36.1719 139.666C21.8263 141.264 12.5478 144.345 12.5478 147.541C12.5478 148.397 13.2211 149.253 14.5336 150.097C18.2541 147.86 25.9005 146.023 36.1034 144.882C41.4103 144.288 47.1394 143.923 53.1196 143.798L54.6146 143.775C55.813 143.752 57.0227 143.752 58.2439 143.752Z" fill="#52565E"/>
<path d="M160.576 141.939C162.198 140.058 159.683 138.383 159.683 138.383C159.683 138.383 162.693 137.907 162.382 135.348C162.18 133.691 159.175 133.676 159.175 133.676C159.175 133.676 160.361 133.522 161.636 133.278C162.743 133.065 163.495 132.032 163.366 130.912C163.364 130.899 163.363 130.887 163.361 130.874C163.238 129.776 162.304 128.945 161.199 128.959C159.976 128.974 158.858 129.031 158.858 129.031C161.895 127.583 161.555 124.146 157.643 124.731C155.043 125.119 143.888 123.996 143.888 123.996L139.078 122.612C136.593 123.901 130.509 123.528 130.509 123.528C126.777 130.399 126.78 135.392 130.683 141.722C130.683 141.722 135.383 142.7 138.554 142.995C142.983 143.409 158.954 143.822 160.576 141.939Z" fill="#FFC1A4"/>
<path d="M158.858 129.034C158.858 129.034 153.491 129.722 150.504 129.319L158.858 129.034Z" fill="#FFC1A4"/>
<path d="M152.826 129.747C151.978 129.747 151.161 129.71 150.464 129.617C150.299 129.594 150.183 129.443 150.206 129.278C150.228 129.114 150.38 129 150.544 129.02C153.457 129.412 158.767 128.742 158.82 128.735C158.983 128.717 159.136 128.831 159.156 128.996C159.178 129.161 159.061 129.312 158.896 129.333C158.727 129.353 155.616 129.747 152.826 129.747Z" fill="#202126"/>
<path d="M159.175 133.678C159.175 133.678 155.481 134.31 151.226 133.629L159.175 133.678Z" fill="#FFC1A4"/>
<path d="M155.338 134.244C154.106 134.244 152.673 134.166 151.178 133.927C151.013 133.901 150.902 133.747 150.928 133.582C150.954 133.417 151.109 133.304 151.273 133.332C155.431 133.998 159.087 133.387 159.123 133.381C159.289 133.353 159.443 133.463 159.471 133.627C159.499 133.79 159.389 133.947 159.225 133.975C159.201 133.978 157.613 134.244 155.338 134.244Z" fill="#202126"/>
<path d="M159.683 138.384C159.683 138.384 155.6 139.092 152.132 138.451L159.683 138.384Z" fill="#FFC1A4"/>
<path d="M155.425 139.023C154.35 139.023 153.187 138.953 152.077 138.747C151.914 138.717 151.806 138.56 151.836 138.396C151.866 138.233 152.021 138.124 152.187 138.155C155.562 138.78 159.59 138.094 159.63 138.088C159.794 138.062 159.95 138.169 159.978 138.333C160.006 138.496 159.897 138.653 159.733 138.681C159.619 138.7 157.723 139.023 155.425 139.023Z" fill="#202126"/>
<path d="M134.357 123.71C137.016 122.391 144.259 114.982 146.566 116.826C151.231 120.555 141.815 126.84 141.815 126.84" fill="#FFC1A4"/>
<path d="M34.8823 77.9158C43.1627 92.9471 54.7723 84.1104 56.0792 81.9003C62.5534 83.0334 60.2143 68.9304 60.7397 63.8726L43.7264 61.0801C40.8609 62.4338 31.1118 71.0723 34.8823 77.9158Z" fill="#202126"/>
<path d="M86.197 38.7588C88.8175 40.2808 90.7088 43.0023 91.2193 45.9902C91.7307 48.9772 90.8519 52.1737 88.8867 54.4801C87.6751 55.902 86.0315 57.0753 85.4659 58.8563C84.977 60.3961 85.4089 62.0677 85.9446 63.5925C87.058 66.7628 88.6175 69.7703 89.6056 72.9817C90.5938 76.1931 90.9762 79.7485 89.7188 82.8655C88.0126 87.0931 83.3493 89.7613 78.7926 89.6173C74.2368 89.4743 69.9625 86.7874 67.3672 83.0403C64.7719 79.2932 63.7501 74.6019 63.9445 70.0471C64.139 65.4932 65.4852 61.0524 67.2868 56.865" fill="#202126"/>
<path d="M84.2059 134.689L83.7862 138.794L82.0002 155.5C75.2905 156.013 68.1163 156.726 60.624 156.726C60.1472 156.726 59.6742 156.726 59.2011 156.722C55.3792 156.705 51.6378 156.615 48.0029 156.455C41.956 156.199 36.2054 155.756 30.8708 155.156L32.6397 139.187L33.1557 134.525L60.8559 136.488L60.9092 136.774L84.2059 134.689Z" fill="#202126"/>
<path d="M134.029 121.02L130.546 144.253C130.546 144.253 113.194 143.995 99.4704 140.303C85.7433 136.614 72.7295 90.7529 72.7295 90.7529L81.5353 80.5681C81.5353 80.5681 89.625 79.8155 95.3484 85.396C101.072 90.9801 109.916 121.829 109.916 121.829L134.029 121.02Z" fill="#FC3A52"/>
<path d="M45.9959 80.113C41.8403 80.0597 38.3082 83.1374 37.794 87.2612C35.8233 103.059 31.3133 139.213 31.3133 139.213C30.7346 144.564 86.377 145.19 86.9557 139.839L89.5837 89.1497C89.8231 84.5238 86.1695 80.6272 81.5389 80.5674L45.9959 80.113Z" fill="#FC3A52"/>
<path d="M86.956 140.141C86.9504 140.141 86.9457 140.141 86.9401 140.141C86.7737 140.133 86.6465 139.991 86.6549 139.825L89.1268 92.1489C89.1352 91.9825 89.2783 91.8544 89.4428 91.8638C89.6092 91.8722 89.7364 92.0143 89.7279 92.1798L87.2561 139.856C87.2477 140.017 87.1149 140.141 86.956 140.141Z" fill="white"/>
<path d="M101.456 111.891C109.79 115.776 121.716 109.125 128.091 97.0348C134.466 84.9456 132.878 71.993 124.545 68.1078C116.21 64.2248 104.288 70.8752 97.9127 82.9651C91.5344 95.0563 93.1226 108.006 101.456 111.891ZM101.897 84.709C107.486 73.9204 117.398 67.6955 124.035 70.8048C130.674 73.9128 131.524 85.1793 125.936 95.9687C120.348 106.755 110.435 112.98 103.797 109.873C97.1588 106.763 96.308 95.4963 101.897 84.709Z" fill="#202126"/>
<path d="M75.4992 162.141C76.5444 162.464 77.7055 162.027 78.2469 161.041L104.318 113.579C104.937 112.452 104.515 111.037 103.375 110.417C102.235 109.797 100.81 110.207 100.192 111.333L74.1202 158.795C73.5013 159.922 73.9239 161.337 75.0635 161.957C75.2047 162.035 75.3505 162.095 75.4992 162.141Z" fill="#202126"/>
<path d="M77.502 148.149C77.502 148.149 95.7055 147.784 97.8043 145.057C99.9032 142.33 97.9988 140.375 97.9988 140.375C97.9988 140.375 101.505 139.064 102.1 136.501C102.696 133.937 101.247 133.293 101.247 133.293C101.247 133.293 102.774 132.286 103.251 130.236C103.728 128.185 102.091 127.13 102.091 127.13C102.091 127.13 103.252 125.997 103.051 123.345C102.85 120.693 100.578 120.18 100.578 120.18L98.5859 123.825L98.3961 123.946C96.804 124.965 94.678 124.348 93.8806 122.634L97.5547 115.912C97.5547 115.912 96.9134 112.972 94.089 113.644C92.5203 114.017 91.3666 116.496 90.6505 118.627C90.0185 120.508 88.5853 122.025 86.7136 122.685C82.9198 124.023 79.4233 126.258 76.2166 129.376L77.502 148.149Z" fill="#FFC1A4"/>
<path d="M48.0309 80.2047C48.0309 80.2047 40.0207 78.4938 33.0024 87.237C25.5139 96.5654 15.5815 137.11 29.5928 145.625C43.6042 154.14 77.6551 150.405 77.6551 150.405L77.2475 126.039L46.58 128.35C46.58 128.35 52.3249 99.9292 53.2271 92.436C54.1293 84.9428 48.0309 80.2047 48.0309 80.2047Z" fill="#FC3A52"/>
<path d="M46.6039 128.649L76.9526 126.362C77.1514 126.338 77.5491 126.24 77.5491 126.032C77.5472 125.949 77.5117 125.87 77.4509 125.814C77.3902 125.758 77.3088 125.732 77.2256 125.736L46.9545 128.018C47.6473 124.573 52.6911 99.4115 53.5259 92.4698C53.5456 92.3053 53.4287 92.1548 53.2632 92.1351C53.0977 92.1146 52.9481 92.2333 52.9285 92.3988C52.0556 99.6514 46.5607 126.926 46.2956 128.241L46.2861 128.289C46.2674 128.381 46.2926 128.477 46.3552 128.548C46.4179 128.619 46.5095 128.656 46.6039 128.649Z" fill="white"/>
<path d="M102.089 127.131C102.089 127.131 100.699 129.075 95.3479 128.992L102.089 127.131Z" fill="#FFC1A4"/>
<path d="M95.6801 129.295C95.5698 129.295 95.4586 129.294 95.3445 129.292C95.1781 129.289 95.0453 129.152 95.0481 128.986C95.0509 128.82 95.1874 128.686 95.3539 128.69C100.439 128.778 101.834 126.97 101.847 126.952C101.946 126.819 102.134 126.789 102.266 126.886C102.4 126.984 102.431 127.17 102.335 127.303C102.276 127.387 100.852 129.295 95.6801 129.295Z" fill="#202126"/>
<path d="M100.938 133.387C100.938 133.387 97.7469 134.442 93.7876 134.043L100.938 133.387Z" fill="#FFC1A4"/>
<path d="M95.6246 134.435C95.03 134.435 94.4055 134.408 93.7576 134.342C93.5922 134.325 93.4716 134.178 93.4884 134.012C93.5052 133.848 93.6511 133.728 93.8184 133.743C97.6683 134.133 100.812 133.111 100.843 133.101C101.001 133.047 101.171 133.134 101.224 133.292C101.276 133.45 101.19 133.62 101.032 133.673C100.921 133.708 98.6836 134.435 95.6246 134.435Z" fill="#202126"/>
<path d="M98.1732 140.304C98.1732 140.304 96.1295 141.203 91.6887 140.459L98.1732 140.304Z" fill="#FFC1A4"/>
<path d="M94.9879 141.056C94.0726 141.056 92.9601 140.977 91.6391 140.756C91.4745 140.728 91.3642 140.574 91.3913 140.409C91.4193 140.244 91.5745 140.134 91.7381 140.161C96.0134 140.877 98.0328 140.035 98.0525 140.027C98.2039 139.961 98.3825 140.03 98.4479 140.183C98.5143 140.335 98.4451 140.512 98.2937 140.578C98.2329 140.606 97.1755 141.056 94.9879 141.056Z" fill="#202126"/>
<path d="M57.3645 80.6073C61.6445 85.2397 69.9436 88.1463 72.7296 81.4861L72.3855 72.1885L60.7404 65.3254L59.756 64.1914C59.7195 69.2193 58.5079 75.8917 57.7123 79.1947C57.501 80.0828 57.3645 80.6073 57.3645 80.6073Z" fill="#FFC1A4"/>
<path d="M64.4657 70.9725C67.4508 74.8271 74.5963 76.0611 78.5341 74.6635C94.1179 69.1317 85.0082 42.9489 85.0082 42.9489L67.9903 37.8135C67.9903 37.8135 59.2695 44.7233 59.1676 44.4176C59.0657 44.1119 58.2178 63.2362 58.2178 63.2362" fill="#FFC1A4"/>
<path d="M59.9873 65.7358C61.5766 58.9728 59.1702 53.4541 59.1702 53.4541C59.1702 53.4541 62.1619 54.7685 63.9793 57.7752C63.9793 57.7752 69.3204 52.5322 67.89 47.2463C67.89 47.2463 84.0348 53.627 88.9982 45.7467C91.6608 41.5201 90.2949 38.3498 80.9216 33.78C71.5455 29.2121 63.0136 37.6561 63.0136 37.6561C63.0136 37.6561 55.7111 34.6355 51.9668 41.2639C51.4984 42.0922 51.2049 42.9635 51.0506 43.8536C49.9521 50.1922 48.5152 57.4797 43.377 61.3493" fill="#202126"/>
<path d="M63.2108 56.6802C63.2108 56.6802 59.1272 50.7595 55.8513 54.8422C52.5754 58.9249 55.6054 63.7088 60.5894 64.3408" fill="#FFC1A4"/>
<path d="M60.5903 64.6414C60.5773 64.6414 60.5651 64.6405 60.552 64.6386C57.7735 64.2861 55.4849 62.6772 54.5799 60.4381C53.8011 58.5113 54.1685 56.4564 55.6167 54.652C56.4721 53.5862 57.464 53.0655 58.5644 53.1057C61.1485 53.1992 63.3661 56.3722 63.4586 56.5078C63.553 56.6443 63.5184 56.8322 63.382 56.9266C63.2455 57.021 63.0575 56.9864 62.9631 56.8499C62.9416 56.8191 60.8222 53.7891 58.541 53.7078C57.6435 53.6713 56.8152 54.12 56.086 55.0297C54.7809 56.6564 54.4443 58.4972 55.138 60.2128C55.9617 62.249 58.0652 63.7158 60.6277 64.0412C60.7923 64.0618 60.9091 64.2132 60.8886 64.3778C60.8699 64.5301 60.7399 64.6414 60.5903 64.6414Z" fill="#202126"/>
<path d="M60.7396 57.1865C59.9272 57.3483 59.2167 57.9503 58.925 58.7254C58.6324 59.5004 58.7679 60.4213 59.27 61.0794" fill="#FFC1A4"/>
<path d="M59.27 61.3806C59.1793 61.3806 59.0896 61.3395 59.0307 61.2619C58.4679 60.5242 58.3155 59.4865 58.6436 58.6189C58.9708 57.7504 59.7711 57.0726 60.6817 56.8912C60.8462 56.8566 61.0033 56.9651 61.036 57.1277C61.0687 57.2913 60.9622 57.4493 60.7995 57.4821C60.088 57.6242 59.4635 58.1533 59.2074 58.8321C58.9512 59.5099 59.0699 60.3213 59.5103 60.8972C59.6112 61.0291 59.586 61.2179 59.4532 61.3189C59.3981 61.361 59.3336 61.3806 59.27 61.3806Z" fill="#202126"/>
<path d="M78.3061 64.654C78.1752 64.654 78.0546 64.568 78.0172 64.4362C77.9714 64.2764 78.063 64.1099 78.2229 64.0632C78.7614 63.908 79.0568 63.3386 79.1456 62.8992C79.2615 62.328 79.1615 61.7194 79.0652 61.1313L78.1883 55.7931C78.1611 55.6285 78.2724 55.4743 78.4369 55.4472C78.6015 55.4172 78.7557 55.5313 78.7829 55.6949L79.6598 61.0332C79.7608 61.6455 79.8739 62.3402 79.7364 63.0189C79.5747 63.8154 79.0465 64.4521 78.3902 64.6419C78.3621 64.6503 78.3341 64.654 78.3061 64.654Z" fill="#202126"/>
<path d="M76.2274 68.3098C76.1236 68.3098 76.0236 68.2565 75.9675 68.1611C75.0401 66.5737 73.1207 65.6444 71.3014 65.894C71.1378 65.9183 70.9845 65.8024 70.962 65.6369C70.9396 65.4723 71.0546 65.32 71.2191 65.2975C73.275 65.0114 75.4411 66.066 76.4882 67.8573C76.5724 68.0013 76.5237 68.1854 76.3798 68.2696C76.3312 68.2957 76.2788 68.3098 76.2274 68.3098Z" fill="#202126"/>
<path d="M85.1144 54.7373C84.5825 54.3502 83.9262 54.1371 83.2858 54.1427C82.6454 54.1492 82.0255 54.3745 81.5571 54.7709" fill="#FFC1A4"/>
<path d="M81.5572 55.0721C81.4721 55.0721 81.3871 55.0356 81.3272 54.9655C81.2197 54.8384 81.2356 54.6486 81.3618 54.5411C81.8863 54.097 82.5678 53.8483 83.2821 53.8408C83.9917 53.8427 84.7041 54.0661 85.2912 54.4924C85.4258 54.5897 85.4557 54.7785 85.3576 54.9131C85.2594 55.0478 85.0715 55.0777 84.9369 54.9795C84.4601 54.6327 83.8832 54.4429 83.312 54.4429C83.3045 54.4429 83.2961 54.4429 83.2886 54.4429C82.7146 54.4485 82.1696 54.6467 81.7517 55.0001C81.6956 55.0487 81.6264 55.0721 81.5572 55.0721Z" fill="#202126"/>
<path d="M82.2548 57.1772C82.1538 58.0336 82.5567 58.7843 83.1541 58.8544C83.7515 58.9245 84.3171 58.2879 84.4181 57.4315C84.5191 56.5751 84.1161 55.8244 83.5187 55.7543C82.9213 55.6842 82.3557 56.3209 82.2548 57.1772Z" fill="#202126"/>
<path d="M76.2878 55.4228C75.7558 55.0358 75.0995 54.8226 74.4591 54.8282C73.8187 54.8348 73.1989 55.0601 72.7305 55.4565" fill="#FFC1A4"/>
<path d="M72.7296 55.7576C72.6445 55.7576 72.5594 55.7212 72.4996 55.6511C72.3921 55.5239 72.408 55.3341 72.5342 55.2266C73.0587 54.7825 73.7402 54.5338 74.4545 54.5264C75.1584 54.5254 75.8764 54.7507 76.4636 55.178C76.5982 55.2762 76.6281 55.4641 76.5299 55.5987C76.4327 55.7333 76.2439 55.7632 76.1092 55.6651C75.6259 55.3136 75.0304 55.1275 74.4601 55.1284C73.886 55.1341 73.3401 55.3313 72.9231 55.6856C72.8679 55.7343 72.7988 55.7576 72.7296 55.7576Z" fill="#202126"/>
<path d="M73.4276 57.8628C73.3266 58.7191 73.7296 59.4699 74.327 59.54C74.9244 59.6101 75.49 58.9734 75.591 58.1171C75.6919 57.2607 75.289 56.51 74.6916 56.4398C74.0942 56.3697 73.5286 57.0064 73.4276 57.8628Z" fill="#202126"/>
<path d="M130.347 154.905C129.195 154.905 128.015 154.896 126.841 154.876C126.675 154.874 126.542 154.737 126.545 154.571C126.548 154.406 126.682 154.274 126.846 154.274C126.848 154.274 126.85 154.274 126.851 154.274C128.02 154.293 129.196 154.303 130.346 154.303L131.06 154.302H131.061C131.226 154.302 131.361 154.436 131.362 154.602C131.363 154.769 131.228 154.904 131.062 154.904L130.347 154.905ZM135.277 154.847C135.114 154.847 134.98 154.717 134.976 154.553C134.972 154.386 135.104 154.249 135.27 154.244C136.131 154.224 136.992 154.199 137.849 154.168C138.392 154.148 138.934 154.126 139.477 154.1C139.638 154.088 139.783 154.221 139.792 154.387C139.799 154.554 139.671 154.694 139.505 154.702C138.961 154.728 138.416 154.749 137.871 154.77C137.011 154.801 136.149 154.827 135.284 154.847C135.282 154.847 135.279 154.847 135.277 154.847ZM122.632 154.767C122.629 154.767 122.625 154.767 122.621 154.767C121.232 154.717 119.813 154.654 118.405 154.577C118.238 154.569 118.111 154.427 118.121 154.26C118.13 154.095 118.272 153.964 118.438 153.976C119.843 154.053 121.257 154.116 122.643 154.166C122.809 154.171 122.939 154.311 122.933 154.477C122.927 154.639 122.794 154.767 122.632 154.767ZM143.698 154.447C143.542 154.447 143.41 154.328 143.398 154.169C143.384 154.003 143.509 153.858 143.674 153.845C145.132 153.733 146.539 153.597 147.857 153.441C148.023 153.418 148.172 153.539 148.192 153.705C148.211 153.87 148.094 154.02 147.928 154.04C146.601 154.197 145.186 154.334 143.72 154.446C143.714 154.447 143.706 154.447 143.698 154.447ZM114.215 154.31C114.207 154.31 114.2 154.31 114.192 154.309C112.8 154.207 111.385 154.092 109.985 153.965C109.82 153.95 109.697 153.803 109.712 153.638C109.727 153.472 109.875 153.347 110.039 153.365C111.435 153.492 112.847 153.607 114.235 153.709C114.401 153.721 114.526 153.865 114.514 154.03C114.503 154.189 114.371 154.31 114.215 154.31ZM152.065 153.436C151.921 153.436 151.794 153.333 151.769 153.186C151.74 153.022 151.85 152.866 152.014 152.837C153.45 152.586 154.829 152.295 156.117 151.972C156.277 151.932 156.442 152.029 156.482 152.19C156.523 152.352 156.425 152.516 156.264 152.556C154.963 152.883 153.568 153.178 152.117 153.431C152.1 153.435 152.083 153.436 152.065 153.436ZM160.225 151.35C160.101 151.35 159.985 151.273 159.942 151.15C159.885 150.994 159.967 150.821 160.124 150.765C161.493 150.275 162.783 149.72 163.958 149.117C164.106 149.041 164.287 149.1 164.364 149.247C164.439 149.396 164.381 149.577 164.233 149.653C163.035 150.268 161.721 150.833 160.327 151.332C160.293 151.344 160.258 151.35 160.225 151.35ZM167.657 147.444C167.567 147.444 167.479 147.404 167.42 147.328C167.318 147.197 167.341 147.007 167.472 146.905C168.593 146.032 169.588 145.059 170.427 144.012C170.532 143.882 170.721 143.861 170.851 143.966C170.981 144.07 171.001 144.26 170.898 144.39C170.028 145.472 169 146.479 167.842 147.381C167.787 147.422 167.722 147.444 167.657 147.444ZM172.835 140.904C172.795 140.904 172.755 140.897 172.717 140.88C172.564 140.814 172.493 140.638 172.558 140.484C173.103 139.207 173.452 137.87 173.592 136.508C173.609 136.343 173.755 136.225 173.923 136.24C174.088 136.258 174.209 136.406 174.191 136.571C174.044 137.993 173.681 139.39 173.111 140.722C173.063 140.836 172.952 140.904 172.835 140.904ZM173.703 132.644C173.561 132.644 173.435 132.543 173.408 132.399C173.161 131.095 172.732 129.773 172.133 128.469C172.063 128.318 172.13 128.139 172.28 128.07C172.431 128 172.61 128.066 172.68 128.218C173.299 129.566 173.743 130.935 173.999 132.287C174.03 132.451 173.922 132.608 173.759 132.639C173.741 132.643 173.722 132.644 173.703 132.644Z" fill="#999CA1"/>
<path d="M166.11 125.505C165.991 125.505 165.879 125.434 165.831 125.316C165.769 125.162 165.844 124.986 165.998 124.924C169.335 123.582 172.253 120.988 174.215 117.621C174.299 117.477 174.483 117.429 174.627 117.513C174.771 117.597 174.82 117.781 174.736 117.925C172.707 121.407 169.684 124.091 166.224 125.483C166.186 125.498 166.148 125.505 166.11 125.505Z" fill="#999CA1"/>
<path d="M178.043 125.777C178.003 125.777 177.964 125.77 177.926 125.754C174.049 124.11 170.42 121.821 167.139 118.949C167.014 118.84 167.001 118.649 167.111 118.524C167.22 118.399 167.41 118.386 167.536 118.495C170.769 121.325 174.344 123.58 178.161 125.198C178.315 125.264 178.386 125.44 178.321 125.593C178.272 125.708 178.16 125.777 178.043 125.777Z" fill="#999CA1"/>
<path d="M25.383 52.6567L24.6445 51.7686C23.0449 49.9708 22.1838 47.3783 22.454 43.9294C22.7223 40.862 22.627 38.8127 21.4752 37.186C20.1691 35.3433 18.1422 34.9348 15.8396 36.5119C14.5382 37.4338 13.4004 38.8922 12.9835 40.2188L10.5032 38.5575C11.0809 36.8448 12.731 34.8076 14.6457 33.4502C18.8013 30.5052 22.4989 31.7384 24.4453 34.4851C26.187 36.942 26.0683 39.6859 25.7944 42.9749C25.5364 45.9806 26.0851 47.9804 27.4996 49.7464L28.2018 50.6598L25.383 52.6567ZM28.1737 58.2792C27.2257 56.9423 27.4632 55.3623 28.7281 54.4658C29.993 53.5692 31.5253 53.8945 32.4733 55.2314C33.3699 56.4964 33.2297 58.0604 31.8927 59.0084C30.6288 59.905 29.0693 59.5441 28.1737 58.2792Z" fill="#FFCB50"/>
<path d="M17.2668 71.5303L16.3422 71.4929C14.4126 71.4798 12.4072 70.601 10.4991 68.5891C8.81722 66.7819 7.54576 65.7386 5.9583 65.5525C4.16049 65.3412 2.82825 66.3275 2.53189 68.5451C2.3823 69.8147 2.6394 71.275 3.20595 72.2352L0.884596 72.8195C0.175942 71.5564 -0.152207 69.48 0.0674944 67.6112C0.545228 63.5565 3.26391 62.0177 5.94427 62.3327C8.34229 62.6151 9.91198 64.1586 11.7229 66.0873C13.3739 67.8542 14.8585 68.6012 16.6704 68.7069L17.5913 68.7798L17.2668 71.5303ZM22.1124 72.8868C20.8073 72.7335 19.9949 71.7444 20.1398 70.5094C20.2847 69.2753 21.3009 68.5367 22.6061 68.691C23.8401 68.8359 24.6965 69.7586 24.5432 71.0638C24.3983 72.2978 23.3465 73.0317 22.1124 72.8868Z" fill="#FFCB50"/>
<g opacity="0.3">
<path d="M101.897 85.0195C107.486 74.2585 117.398 68.0495 124.035 71.1509C130.674 74.2509 131.524 85.4886 125.936 96.2503C120.348 107.009 110.436 113.218 103.797 110.119C97.1591 107.017 96.3083 95.7792 101.897 85.0195Z" fill="#EEEFF4"/>
</g>
<path d="M140.294 23.6013C140.294 23.5758 140.294 23.5631 140.307 23.5376C140.613 21.191 142.705 19.4439 145.064 19.5204C145.408 19.5331 145.74 19.5842 146.072 19.6607C147.041 16.9825 149.693 15.1079 152.754 15.3247C156.006 15.5542 158.633 18.2196 158.837 21.4716C158.914 22.7596 158.62 23.9712 158.059 25.0169" fill="white"/>
<path d="M158.034 25.3225C157.983 25.3225 157.944 25.3098 157.893 25.2843C157.753 25.2078 157.702 25.0292 157.779 24.8889C158.34 23.8559 158.595 22.6827 158.531 21.4966C158.34 18.3721 155.84 15.8471 152.716 15.6175C149.897 15.4135 147.27 17.1224 146.326 19.7622C146.275 19.9025 146.122 19.979 145.982 19.9408C145.676 19.8642 145.357 19.8132 145.038 19.8005C142.819 19.724 140.868 21.3819 140.588 23.5626L140.575 23.6136C140.562 23.7667 140.409 23.8942 140.256 23.8687C140.103 23.8559 139.988 23.7029 140.001 23.5499L140.014 23.4861C140.345 21.012 142.552 19.1373 145.064 19.2138C145.332 19.2266 145.612 19.2521 145.88 19.3031C146.99 16.5485 149.783 14.8013 152.767 15.0181C156.172 15.2604 158.914 18.0278 159.118 21.4456C159.194 22.7337 158.914 24.0217 158.302 25.144C158.238 25.2588 158.136 25.3225 158.034 25.3225Z" fill="#CDCECE"/>
<path d="M142.309 24.1601C142.309 22.7318 143.47 21.5713 144.898 21.5713L142.309 24.1601Z" fill="white"/>
<path d="M142.309 24.4411C142.143 24.4411 142.016 24.3136 142.016 24.1478C142.016 22.5664 143.304 21.2656 144.898 21.2656C145.064 21.2656 145.191 21.3932 145.191 21.5589C145.191 21.7247 145.064 21.8523 144.898 21.8523C143.635 21.8523 142.602 22.8853 142.602 24.1478C142.602 24.3136 142.462 24.4411 142.309 24.4411Z" fill="#CDCECE"/>
<path d="M152.244 17.415C153.698 17.415 154.999 18.1165 155.815 19.1877L152.244 17.415Z" fill="white"/>
<path d="M155.815 19.4941C155.726 19.4941 155.636 19.4558 155.585 19.3793C154.782 18.3208 153.57 17.7214 152.244 17.7214C152.078 17.7214 151.951 17.5939 151.951 17.4281C151.951 17.2623 152.078 17.1348 152.244 17.1348C153.749 17.1348 155.139 17.8234 156.044 19.035C156.146 19.1625 156.121 19.341 155.993 19.4431C155.942 19.4686 155.879 19.4941 155.815 19.4941Z" fill="#CDCECE"/>
<path d="M43.2944 8.60135C43.2944 8.57584 43.2944 8.56309 43.3072 8.53758C43.6133 6.19103 45.7048 4.44387 48.0641 4.52039C48.4084 4.53314 48.74 4.58416 49.0715 4.66067C50.0408 1.98255 52.6934 0.107855 55.7541 0.324656C59.0061 0.55421 61.6332 3.21958 61.8373 6.4716C61.9138 7.75965 61.6205 8.97119 61.0594 10.0169" fill="white"/>
<path d="M61.0337 10.3225C60.9827 10.3225 60.9444 10.3098 60.8934 10.2843C60.7531 10.2078 60.7021 10.0292 60.7786 9.88893C61.3398 8.85594 61.5948 7.68266 61.5311 6.49663C61.3398 3.37215 58.8402 0.847056 55.7157 0.617502C52.8973 0.413454 50.2702 2.12236 49.3265 4.76223C49.2754 4.90251 49.1224 4.97903 48.9821 4.94077C48.6761 4.86425 48.3572 4.81324 48.0384 4.80049C45.8194 4.72397 43.8682 6.38186 43.5876 8.56262L43.5749 8.61363C43.5621 8.76667 43.4091 8.8942 43.256 8.86869C43.103 8.85594 42.9882 8.7029 43.001 8.54987L43.0137 8.4861C43.3453 6.01202 45.5516 4.13733 48.0639 4.21385C48.3317 4.2266 48.6123 4.2521 48.8801 4.30312C49.9896 1.54847 52.7825 -0.198687 55.7667 0.0181136C59.1718 0.260421 61.9137 3.02782 62.1177 6.44562C62.1942 7.73367 61.9137 9.02173 61.3015 10.144C61.2377 10.2588 61.1357 10.3225 61.0337 10.3225Z" fill="#CDCECE"/>
<path d="M45.3091 9.16015C45.3091 7.73181 46.4696 6.57129 47.8979 6.57129L45.3091 9.16015Z" fill="white"/>
<path d="M45.309 9.44112C45.1432 9.44112 45.0156 9.31359 45.0156 9.1478C45.0156 7.56643 46.3037 6.26562 47.8978 6.26562C48.0636 6.26562 48.1911 6.39315 48.1911 6.55894C48.1911 6.72473 48.0636 6.85226 47.8978 6.85226C46.6353 6.85226 45.6023 7.88525 45.6023 9.1478C45.6023 9.31359 45.462 9.44112 45.309 9.44112Z" fill="#CDCECE"/>
<path d="M55.2439 2.41504C56.6977 2.41504 57.9985 3.11645 58.8147 4.1877L55.2439 2.41504Z" fill="white"/>
<path d="M58.8148 4.49407C58.7256 4.49407 58.6363 4.45581 58.5853 4.37929C57.7818 3.32079 56.5703 2.7214 55.244 2.7214C55.0782 2.7214 54.9507 2.59388 54.9507 2.42809C54.9507 2.2623 55.0782 2.13477 55.244 2.13477C56.7489 2.13477 58.1389 2.82343 59.0444 4.03496C59.1464 4.16249 59.1209 4.34103 58.9934 4.44306C58.9424 4.46856 58.8786 4.49407 58.8148 4.49407Z" fill="#CDCECE"/>
</svg>
