<svg width="176" height="177" viewBox="0 0 176 177" fill="none" xmlns="http://www.w3.org/2000/svg">
<path d="M135.573 20.7924C135.56 20.7924 135.56 20.7924 135.547 20.7924C135.381 20.7797 135.267 20.6394 135.279 20.4864C135.33 19.6829 135.126 18.8667 134.693 18.1781C134.259 17.4894 133.622 16.9538 132.869 16.6477C132.716 16.5839 132.652 16.4182 132.703 16.2651C132.767 16.1121 132.933 16.0483 133.086 16.0993C133.94 16.4437 134.693 17.0686 135.19 17.8592C135.688 18.6499 135.917 19.5936 135.866 20.5119C135.853 20.6777 135.726 20.7924 135.573 20.7924Z" fill="white"/>
<path d="M156.72 162.479C153.098 165.45 149.438 168.065 145.076 164.953L142.271 148.004L153.621 147.507L156.72 162.479Z" fill="#FFC1A4"/>
<path d="M143.916 158.232L156.312 160.541L155.84 158.232H143.916Z" fill="#202126"/>
<path d="M144.936 164.674C144.936 164.674 144.082 166.701 142.398 167.313C140.715 167.926 139.299 168.729 138.649 170.272C137.999 171.803 138.203 175.373 138.203 175.373L157.753 175.31L157.715 162.085C157.715 162.085 156.873 161.332 154.476 162.429C152.078 163.526 148.992 165.452 144.936 164.674Z" fill="#52565E"/>
<path d="M138.189 173.485C138.164 174.53 138.215 175.372 138.215 175.372L157.765 175.308V173.421L138.189 173.485Z" fill="#202126"/>
<path d="M147.601 166.638C146.542 166.638 145.394 166.523 144.119 166.255C143.941 166.217 143.826 166.038 143.864 165.86C143.902 165.681 144.081 165.566 144.259 165.605C149.348 166.689 152.498 165.158 154.424 163.921C156.298 162.71 157.816 163.36 157.88 163.386C158.045 163.462 158.122 163.653 158.045 163.819C157.969 163.985 157.778 164.061 157.612 163.985C157.561 163.959 156.349 163.462 154.793 164.47C153.225 165.477 150.942 166.638 147.601 166.638Z" fill="#EEEFF4"/>
<path d="M144.757 168.525C144.668 168.525 144.566 168.487 144.502 168.411L143.201 166.906C143.086 166.766 143.099 166.561 143.239 166.434C143.38 166.319 143.584 166.332 143.711 166.472L145.012 167.977C145.127 168.117 145.114 168.321 144.974 168.449C144.91 168.5 144.833 168.525 144.757 168.525Z" fill="#EEEFF4"/>
<path d="M143.634 169.163C143.545 169.163 143.443 169.125 143.379 169.048L142.078 167.543C141.963 167.403 141.976 167.199 142.116 167.072C142.257 166.957 142.461 166.97 142.588 167.11L143.889 168.615C144.004 168.755 143.991 168.959 143.851 169.087C143.787 169.138 143.711 169.163 143.634 169.163Z" fill="#EEEFF4"/>
<path d="M142.513 169.813C142.424 169.813 142.322 169.774 142.258 169.698L140.958 168.193C140.843 168.053 140.856 167.849 140.996 167.721C141.136 167.606 141.34 167.619 141.468 167.759L142.769 169.264C142.883 169.404 142.871 169.608 142.73 169.736C142.666 169.787 142.59 169.813 142.513 169.813Z" fill="#EEEFF4"/>
<path d="M152.294 173.765C152.255 173.765 152.23 173.765 152.191 173.752C152.013 173.701 151.924 173.51 151.975 173.331C153.352 168.957 157.701 168.932 157.739 168.932C157.918 168.932 158.071 169.085 158.071 169.263C158.071 169.442 157.918 169.595 157.739 169.595C157.586 169.595 153.837 169.646 152.6 173.535C152.561 173.676 152.434 173.765 152.294 173.765Z" fill="#EEEFF4"/>
<path d="M134.884 162.479C131.262 165.45 127.602 168.065 123.241 164.953L120.435 148.004L131.785 147.507L134.884 162.479Z" fill="#FFC1A4"/>
<path d="M122.079 158.232L134.475 160.541L134.003 158.232H122.079Z" fill="#EEEFF4"/>
<path d="M123.099 164.674C123.099 164.674 122.244 166.701 120.561 167.313C118.878 167.926 117.462 168.729 116.812 170.272C116.161 171.803 116.365 175.373 116.365 175.373L135.916 175.31L135.877 162.085C135.877 162.085 135.036 161.332 132.638 162.429C130.241 163.526 127.154 165.452 123.099 164.674Z" fill="#52565E"/>
<path d="M116.353 173.485C116.328 174.53 116.379 175.372 116.379 175.372L135.929 175.308V173.421L116.353 173.485Z" fill="#202126"/>
<path d="M125.752 166.638C124.694 166.638 123.546 166.523 122.271 166.255C122.092 166.217 121.977 166.038 122.016 165.86C122.054 165.681 122.232 165.566 122.411 165.605C127.499 166.689 130.649 165.158 132.575 163.921C134.45 162.71 135.967 163.36 136.031 163.386C136.197 163.462 136.274 163.653 136.197 163.819C136.12 163.985 135.929 164.061 135.763 163.985C135.712 163.959 134.501 163.462 132.945 164.47C131.389 165.477 129.106 166.638 125.752 166.638Z" fill="#EEEFF4"/>
<path d="M122.921 168.525C122.831 168.525 122.729 168.487 122.666 168.411L121.365 166.906C121.25 166.766 121.263 166.561 121.403 166.434C121.543 166.319 121.747 166.332 121.875 166.472L123.176 167.977C123.291 168.117 123.278 168.321 123.137 168.449C123.074 168.5 122.997 168.525 122.921 168.525Z" fill="#EEEFF4"/>
<path d="M121.798 169.163C121.709 169.163 121.607 169.125 121.543 169.048L120.242 167.543C120.127 167.403 120.14 167.199 120.28 167.072C120.421 166.957 120.625 166.97 120.752 167.11L122.053 168.615C122.168 168.755 122.155 168.959 122.015 169.087C121.951 169.138 121.874 169.163 121.798 169.163Z" fill="#EEEFF4"/>
<path d="M120.676 169.813C120.587 169.813 120.485 169.774 120.421 169.698L119.12 168.193C119.005 168.053 119.018 167.849 119.158 167.721C119.299 167.606 119.503 167.619 119.63 167.759L120.931 169.264C121.046 169.404 121.033 169.608 120.893 169.736C120.829 169.787 120.752 169.813 120.676 169.813Z" fill="#EEEFF4"/>
<path d="M130.444 173.765C130.406 173.765 130.381 173.765 130.342 173.752C130.164 173.701 130.075 173.51 130.126 173.331C131.503 168.957 135.852 168.932 135.89 168.932C136.068 168.932 136.221 169.085 136.221 169.263C136.221 169.442 136.068 169.595 135.89 169.595C135.737 169.595 131.988 169.646 130.75 173.535C130.725 173.676 130.585 173.765 130.444 173.765Z" fill="#EEEFF4"/>
<path d="M132.844 152.952H122.336C122.17 152.952 122.042 152.824 122.042 152.659C122.042 152.493 122.17 152.365 122.336 152.365H132.844C133.01 152.365 133.138 152.493 133.138 152.659C133.138 152.824 133.01 152.952 132.844 152.952Z" fill="white"/>
<path d="M153.937 152.952H144.755C144.589 152.952 144.462 152.824 144.462 152.659C144.462 152.493 144.589 152.365 144.755 152.365H153.937C154.103 152.365 154.231 152.493 154.231 152.659C154.231 152.824 154.103 152.952 153.937 152.952Z" fill="white"/>
<path d="M58.8132 10.5512C58.979 9.7733 59.1576 8.89334 59.3744 7.86035L58.8132 10.5512Z" fill="white"/>
<path d="M58.8133 10.8448C58.7878 10.8448 58.7751 10.8448 58.7496 10.8448C58.5965 10.8066 58.4945 10.6535 58.52 10.5005L59.0812 7.80963C59.1194 7.65659 59.2724 7.55457 59.4255 7.58008C59.5785 7.61834 59.6805 7.77137 59.655 7.92441L59.0939 10.6153C59.0684 10.7428 58.9409 10.8448 58.8133 10.8448Z" fill="#FFCB50"/>
<path d="M122.565 24.7845C122.221 24.7845 121.889 24.6952 121.583 24.5294C121.048 24.2361 120.678 23.7005 120.576 23.1011C120.55 22.9481 120.652 22.795 120.818 22.7695C120.971 22.744 121.124 22.846 121.15 23.0118C121.226 23.4327 121.494 23.828 121.864 24.0321C122.234 24.2361 122.718 24.2616 123.114 24.0958C123.267 24.0321 123.433 24.1086 123.496 24.2489C123.56 24.4019 123.484 24.5677 123.343 24.6315C123.088 24.7335 122.82 24.7845 122.565 24.7845Z" fill="white"/>
<path d="M122.349 19.7103C122.273 19.7103 122.196 19.6848 122.145 19.621C121.839 19.3022 121.661 18.8686 121.673 18.4222C121.686 17.9759 121.865 17.5423 122.184 17.2362C122.298 17.1214 122.477 17.1342 122.592 17.249C122.706 17.3637 122.694 17.5423 122.579 17.6571C122.375 17.8611 122.247 18.1417 122.235 18.435C122.235 18.7156 122.349 19.0216 122.541 19.2257C122.655 19.3405 122.643 19.519 122.528 19.6338C122.49 19.672 122.413 19.7103 122.349 19.7103Z" fill="white"/>
<path d="M139.655 47.7276L129.605 48.6586L128.866 43.3788L128.33 39.6039L128.203 38.673L137.193 32.1689L139.655 47.7276Z" fill="#FFC1A4"/>
<path d="M133.113 38.292C132.501 41.0466 128.866 43.3804 128.866 43.3804L128.33 39.6055L128.866 38.4833L133.113 38.292Z" fill="#202126"/>
<path d="M135.09 32.1949C135.447 37.7425 132.042 41.4919 128 41.7597C123.957 42.0275 120.794 38.699 120.437 33.1514C120.08 27.6039 123.09 22.847 127.133 22.5792C131.175 22.3114 134.733 26.6346 135.09 32.1949Z" fill="#FFC1A4"/>
<path d="M120.654 29.6963C120.654 29.6963 119.034 32.9738 119.302 33.5477C119.57 34.1216 121.495 34.1216 121.495 34.1216L120.654 29.6963Z" fill="#FFC1A4"/>
<path d="M138.214 38.29C138.214 38.29 133.993 38.5451 132.666 35.4079C132.666 35.4079 134.656 30.3704 132.59 29.7328C130.511 29.0951 130.498 32.4237 130.498 32.4237L129.019 32.3599L128.713 27.7306C128.713 27.7306 125.435 27.4372 124.747 25.8559C124.747 25.8559 121.507 27.9984 119.48 25.1162C117.452 22.234 118.817 19.6452 121.329 19.5814C121.329 19.5814 119.454 15.6152 122.668 14.8245C125.869 14.0338 125.894 16.5207 125.894 16.5207C125.894 16.5207 127.425 11.8658 132.373 13.1411C137.755 14.5312 137.066 20.6654 137.066 20.6654C137.066 20.6654 141.109 19.2498 143.124 24.0067C145.139 28.7636 138.214 38.29 138.214 38.29Z" fill="#202126"/>
<path d="M123.752 30.4598C123.624 30.9571 123.242 31.3015 122.885 31.2122C122.54 31.1229 122.349 30.6511 122.477 30.141C122.604 29.6308 122.987 29.2993 123.344 29.3885C123.688 29.4778 123.88 29.9624 123.752 30.4598Z" fill="#202126"/>
<path d="M123.267 37.1426C122.834 37.1426 122.4 37.0278 122.03 36.7983C121.89 36.709 121.852 36.5304 121.941 36.4029C122.03 36.2626 122.209 36.2244 122.336 36.3136C122.808 36.607 123.408 36.658 123.918 36.4539C124.071 36.3902 124.237 36.4667 124.3 36.6197C124.364 36.7728 124.288 36.9385 124.135 37.0023C123.867 37.0788 123.561 37.1426 123.267 37.1426Z" fill="#202126"/>
<path d="M158.414 58.2988L171.359 90.4491L160.659 95.9202L147.307 63.5786L158.414 58.2988Z" fill="#FFC1A4"/>
<path d="M159.002 59.7783L149.233 68.2336L148.072 65.2494L159.002 59.7783Z" fill="#F7B094"/>
<path d="M148.339 44.5908C152.102 44.1955 155.621 46.5037 156.769 50.1128L159.715 59.4098L146.822 65.85L148.339 44.5908Z" fill="#FC3A52"/>
<path d="M159.563 158.233H141.836L133.929 131.821L133.279 129.666C133.113 129.092 132.96 128.531 132.82 127.945C132.348 125.955 132.067 123.927 132.003 121.887L131.506 107.565L130.945 91.3179L133.559 77.8125L147.307 80.1846L148.34 121.696L159.563 158.233Z" fill="#202126"/>
<path d="M135.523 98.8301L133.928 131.822L132.819 127.958C132.347 125.968 132.067 123.941 132.003 121.9L131.505 107.579L135.523 98.8301Z" fill="#202126"/>
<path d="M130.486 124.844C130.473 124.844 130.447 124.844 130.435 124.844C130.282 124.818 130.18 124.665 130.205 124.499L136.48 92.4639C136.505 92.3109 136.658 92.2089 136.824 92.2344C136.977 92.2599 137.079 92.4129 137.053 92.5787L130.779 124.614C130.741 124.742 130.626 124.844 130.486 124.844Z" fill="white"/>
<path d="M146.683 147.06C146.555 147.06 146.44 146.983 146.402 146.856L139.911 125.316C139.388 123.582 139.222 121.783 139.439 119.985L141.237 104.503C141.25 104.35 141.403 104.235 141.556 104.248C141.709 104.261 141.824 104.414 141.811 104.567L140.013 120.049C139.809 121.771 139.962 123.48 140.459 125.15L146.95 146.69C147.001 146.843 146.912 147.009 146.759 147.047C146.734 147.06 146.708 147.06 146.683 147.06Z" fill="white"/>
<path d="M147.702 65.7083H147.689C147.523 65.6956 147.408 65.568 147.408 65.4023L148.046 51.8841C148.059 51.7183 148.186 51.6035 148.352 51.6035C148.518 51.6163 148.632 51.7438 148.632 51.9096L147.995 65.4278C147.995 65.5935 147.867 65.7083 147.702 65.7083Z" fill="white"/>
<path d="M70.0742 98.2805L65.853 104.466L30.0681 119.31L4.76611 58.2871L45.3589 41.4531L41.0866 48.5438L49.0063 50.5588L50.6641 50.9796L41.8263 62.8271L56.9386 70.581L58.0099 71.1166L53.6101 75.7204L52.0542 77.3528L63.4937 82.6708L58.3925 93.3578L66.4906 96.7629L70.0742 98.2805Z" fill="white"/>
<path d="M58.3929 93.3581L66.4911 96.7631L38.8553 107.68L29.9282 85.0814L53.6105 75.7207L52.0547 77.3531L63.4941 82.6711L58.3929 93.3581Z" fill="#EEEFF4"/>
<path d="M56.9388 70.5798L28.6144 81.7642L20.7075 61.742L49.0064 50.5576L50.6643 50.9785L41.8265 62.826L56.9388 70.5798Z" fill="#EEEFF4"/>
<path d="M30.0689 119.589C30.0306 119.589 29.9924 119.577 29.9541 119.564C29.8776 119.538 29.8266 119.475 29.801 119.411L4.49911 58.4005C4.4736 58.324 4.4736 58.2474 4.49911 58.1837C4.52462 58.1071 4.58838 58.0561 4.65215 58.0306L45.2449 41.1967C45.3597 41.1457 45.5 41.1839 45.5765 41.2732C45.653 41.3625 45.6658 41.5028 45.602 41.6175L41.5338 48.3766L50.7287 50.7232C50.818 50.7487 50.8945 50.8124 50.9328 50.9017C50.971 50.991 50.9455 51.093 50.8945 51.1695L42.2735 62.7365L58.151 70.8729C58.2275 70.9112 58.2912 70.9877 58.304 71.0769C58.3167 71.1662 58.2912 71.2555 58.2275 71.332L52.5524 77.2621L63.6347 82.4144C63.7113 82.4526 63.7623 82.5036 63.7878 82.5801C63.8133 82.6567 63.8133 82.7332 63.775 82.8097L58.8014 93.2289L70.2025 98.024C70.2791 98.0623 70.3428 98.126 70.3683 98.2153C70.3938 98.3046 70.3811 98.3939 70.3301 98.4576L66.1216 104.643C66.0833 104.694 66.0451 104.732 65.9941 104.745L30.2092 119.589C30.1454 119.589 30.1071 119.589 30.0689 119.589ZM5.13676 58.4387L30.2219 118.913L65.6625 104.209L69.6287 98.3939L58.2785 93.6115C58.202 93.586 58.151 93.5222 58.1255 93.4457C58.1 93.3692 58.1 93.2927 58.1382 93.2161L63.1119 82.7969L51.9275 77.5937C51.8382 77.5555 51.7872 77.479 51.7617 77.3897C51.749 77.3004 51.7745 77.1984 51.8382 77.1346L57.5261 71.1917L41.6996 63.0808C41.6231 63.0426 41.5721 62.966 41.5466 62.8895C41.5211 62.8003 41.5466 62.7237 41.5976 62.6472L50.1676 51.1568L41.0237 48.823C40.9344 48.7975 40.8579 48.7337 40.8324 48.6572C40.7941 48.5679 40.8069 48.4786 40.8579 48.4021L44.6711 42.0639L5.13676 58.4387Z" fill="#202126"/>
<path d="M45.3597 41.4528L46.8008 39.0552L34.9532 33.1123L0.277832 47.4849L4.76689 58.2867L45.3597 41.4528Z" fill="white"/>
<path d="M4.76685 58.58C4.72859 58.58 4.69033 58.5672 4.65207 58.5545C4.57555 58.529 4.52454 58.4652 4.49903 58.4014L0.0227317 47.5997C-0.0410332 47.4466 0.0354863 47.2808 0.175769 47.2171L34.8384 32.8317C34.9149 32.7934 35.0042 32.8062 35.0807 32.8444L46.9282 38.7873C47.0048 38.8256 47.0558 38.8894 47.0813 38.9659C47.1068 39.0424 47.094 39.1317 47.0558 39.1954L45.6147 41.593C45.5764 41.644 45.5382 41.6823 45.4744 41.7078L4.88162 58.5417C4.83061 58.5672 4.80511 58.58 4.76685 58.58ZM0.660381 47.6507L4.91988 57.9168L45.1556 41.2232L46.3926 39.1699L34.9404 33.4311L0.660381 47.6507Z" fill="#202126"/>
<path d="M9.81679 52.1841C10.851 51.719 11.3123 50.5035 10.8471 49.4693C10.3819 48.4351 9.1665 47.9739 8.13232 48.439C7.09814 48.9042 6.63685 50.1196 7.102 51.1538C7.56715 52.188 8.78261 52.6493 9.81679 52.1841Z" fill="#FC3A52"/>
<path d="M8.97511 52.6752C8.65629 52.6752 8.35021 52.6114 8.04414 52.4839C7.47025 52.2416 7.0239 51.7824 6.79435 51.1958C6.56479 50.6092 6.56479 49.9715 6.81985 49.3976C7.06216 48.8238 7.52127 48.3774 8.1079 48.1478C9.30668 47.6632 10.684 48.2626 11.1559 49.4614C11.6405 50.6602 11.0411 52.0375 9.84232 52.5094C9.56175 52.6114 9.26843 52.6752 8.97511 52.6752ZM8.97511 48.5559C8.75831 48.5559 8.54151 48.5942 8.32471 48.6835C7.8911 48.862 7.54678 49.1936 7.35548 49.6272C7.16419 50.0608 7.16418 50.5454 7.34272 50.979C7.52127 51.4126 7.85285 51.7569 8.28645 51.9482C8.72005 52.1395 9.20466 52.1395 9.63826 51.961C10.5437 51.6039 10.9901 50.5709 10.6202 49.6655C10.3397 48.9768 9.67653 48.5559 8.97511 48.5559Z" fill="#202126"/>
<path d="M15.5925 49.8858C16.6462 49.4665 17.1605 48.2725 16.7413 47.2188C16.3221 46.1651 15.128 45.6508 14.0744 46.07C13.0207 46.4893 12.5064 47.6833 12.9256 48.737C13.3448 49.7906 14.5388 50.305 15.5925 49.8858Z" fill="#FFCB50"/>
<path d="M14.8157 50.3412C14.4969 50.3412 14.1908 50.2774 13.8847 50.1499C13.3108 49.9076 12.8645 49.4485 12.6349 48.8618C12.4054 48.2752 12.4054 47.6375 12.6604 47.0637C12.9027 46.4898 13.3618 46.0434 13.9485 45.8139C15.1473 45.3292 16.5246 45.9286 16.9964 47.1274C17.4811 48.3262 16.8817 49.7035 15.6829 50.1754C15.4151 50.2774 15.1218 50.3412 14.8157 50.3412ZM14.8157 46.222C14.5989 46.222 14.3821 46.2602 14.1653 46.3495C13.7317 46.528 13.3874 46.8596 13.1961 47.2932C13.0048 47.7268 13.0048 48.2114 13.1833 48.645C13.3618 49.0786 13.6934 49.423 14.127 49.6143C14.5606 49.8055 15.0452 49.8056 15.4788 49.627C16.3843 49.2699 16.8307 48.2369 16.4608 47.3315C16.193 46.6428 15.5171 46.222 14.8157 46.222Z" fill="#202126"/>
<path d="M22.5832 44.8958C23.0041 45.9543 22.4939 47.1531 21.4354 47.5739C20.3769 47.9948 19.1782 47.4847 18.7573 46.4262C18.3365 45.3677 18.8466 44.1689 19.9051 43.748C20.9636 43.3272 22.1624 43.8373 22.5832 44.8958Z" fill="#12B76A"/>
<path d="M20.6702 48.0072C20.3513 48.0072 20.0453 47.9434 19.7392 47.8159C19.1653 47.5736 18.719 47.1145 18.4894 46.5278C18.2599 45.9412 18.2599 45.3036 18.5149 44.7297C18.7572 44.1558 19.2163 43.7094 19.803 43.4799C21.0018 42.9953 22.3791 43.5947 22.8509 44.7934C23.3356 45.9922 22.7362 47.3695 21.5374 47.8414C21.2568 47.9434 20.9635 48.0072 20.6702 48.0072ZM20.6702 43.888C20.4534 43.888 20.2366 43.9262 20.0198 44.0155C19.5862 44.194 19.2418 44.5256 19.0505 44.9592C18.8593 45.3928 18.8593 45.8774 19.0378 46.311C19.2163 46.7446 19.5479 47.089 19.9815 47.2803C20.4151 47.4716 20.8997 47.4716 21.3333 47.293C22.2388 46.9359 22.6852 45.9029 22.3153 44.9975C22.0347 44.3088 21.3716 43.888 20.6702 43.888Z" fill="#202126"/>
<path d="M106.05 21.7119L107.517 33.3044L68.0972 38.2781L62.1033 43.9786L70.686 48.8758L59.0298 57.9559L72.4332 70.2371L65.0492 74.6623L74.6777 82.8243L66.9239 91.7896L76.884 99.62L71.1834 104.466L115.768 98.842L106.05 21.7119Z" fill="white"/>
<path d="M59.0303 57.9549L70.6865 48.862L69.1944 48.0203L100.592 44.6025L102.926 66.0148L71.5537 69.4199L59.0303 57.9549Z" fill="#EEEFF4"/>
<path d="M105.936 93.7148L73.8366 97.2091L66.9245 91.7891L74.6783 82.8237L65.0498 74.6618L66.9755 73.5013L103.309 69.5479L105.936 93.7148Z" fill="#EEEFF4"/>
<path d="M71.1838 104.747C71.069 104.747 70.967 104.683 70.916 104.568C70.865 104.453 70.8905 104.313 70.9925 104.224L76.4253 99.6072L66.7458 91.9937C66.682 91.9426 66.6437 91.8661 66.631 91.7896C66.6182 91.7131 66.6437 91.6366 66.6947 91.5728L74.2445 82.837L64.8456 74.8664C64.769 74.8026 64.7308 74.7134 64.7435 74.6241C64.7563 74.5348 64.8073 74.4455 64.8838 74.3945L71.9362 70.1733L58.8134 58.16C58.7496 58.0962 58.7114 58.0197 58.7241 57.9304C58.7241 57.8411 58.7624 57.7646 58.8389 57.7136L70.1508 48.9013L61.9506 44.2337C61.8741 44.1827 61.8231 44.1062 61.8103 44.0169C61.7976 43.9276 61.8359 43.8384 61.8996 43.7746L67.8935 38.0612C67.9445 38.023 67.9955 37.9847 68.0593 37.9847L107.186 33.0493L105.757 21.7374C105.732 21.5844 105.846 21.4313 106.012 21.4186C106.178 21.3931 106.318 21.5079 106.331 21.6736L116.049 98.8165C116.074 98.9696 115.96 99.1226 115.794 99.1353L71.2093 104.747C71.2093 104.747 71.1965 104.747 71.1838 104.747ZM67.3451 91.7386L77.0629 99.3776C77.1267 99.4287 77.1777 99.5179 77.1777 99.5944C77.1777 99.6837 77.1395 99.7602 77.0757 99.824L72.1148 104.032L115.437 98.5742L107.249 33.6105L68.2251 38.5459L62.5883 43.9276L70.8267 48.6207C70.916 48.6717 70.967 48.761 70.967 48.8503C70.9798 48.9523 70.9287 49.0416 70.8522 49.1053L59.4766 57.9814L72.6249 70.033C72.6887 70.0968 72.7269 70.186 72.7142 70.2753C72.7014 70.3646 72.6504 70.4539 72.5739 70.4921L65.5342 74.7134L74.8567 82.6202C74.9204 82.6712 74.9587 82.7477 74.9587 82.8243C74.9587 82.9008 74.9332 82.9773 74.8949 83.0411L67.3451 91.7386Z" fill="#202126"/>
<path d="M68.0974 38.279L107.517 33.3054L106.05 21.7129L60.2671 27.4772L70.1252 36.3406L68.0974 38.279Z" fill="white"/>
<path d="M68.0974 38.5593C67.9826 38.5593 67.8806 38.4955 67.8296 38.3935C67.7786 38.2787 67.8041 38.1512 67.8933 38.0619L69.6915 36.353L60.063 27.6937C59.9737 27.6172 59.9482 27.5024 59.9737 27.3877C59.9992 27.2729 60.1012 27.1964 60.216 27.1836L105.999 21.4193C106.076 21.4065 106.152 21.432 106.216 21.483C106.28 21.534 106.318 21.5978 106.331 21.6743L107.797 33.2795C107.823 33.4326 107.708 33.5856 107.542 33.5984L68.1229 38.5593C68.1229 38.5593 68.1101 38.5593 68.0974 38.5593ZM60.9302 27.681L70.3164 36.1235C70.3802 36.1745 70.4057 36.251 70.4184 36.3403C70.4184 36.4168 70.3929 36.4933 70.3292 36.5571L68.9391 37.8834L107.198 33.0627L105.808 22.0442L60.9302 27.681Z" fill="#202126"/>
<path d="M118.013 81.8799L112.988 117.703C112.491 121.274 112.618 124.908 113.371 128.428L119.747 158.232H138.163L130.485 124.551L138.851 81.8799H118.013Z" fill="#202126"/>
<path d="M148.338 44.5898L118.42 47.0512L116.927 84.9786L147.828 83.2059L148.338 44.5898Z" fill="#FC3A52"/>
<path d="M109.084 49.1051L96.7775 49.3856L87.8376 30.1924L75.7478 34.1713L86.7026 60.0089C87.9014 63.1079 90.9111 65.1356 94.2396 65.0846L111.099 64.7913L109.084 49.1051Z" fill="#FFC1A4"/>
<path d="M107.504 49.1309L104.328 64.9063L107.963 64.8425L107.504 49.1309Z" fill="#F7B094"/>
<path d="M118.421 47.0508L107.466 48.1475L108.002 66.5629H118.855C122.553 66.5629 125.448 63.3874 125.116 59.7145L124.759 55.7993C124.632 54.4093 124.045 53.0957 123.089 52.0755L118.421 47.0508Z" fill="#FC3A52"/>
<path d="M118.854 66.8462H117.846C117.68 66.8462 117.553 66.7187 117.553 66.5529C117.553 66.3871 117.68 66.2595 117.846 66.2595H118.854C120.537 66.2595 122.144 65.5454 123.279 64.3083C124.414 63.0713 124.975 61.4006 124.822 59.7173C124.809 59.5515 124.924 59.4112 125.09 59.3984C125.243 59.3857 125.396 59.5005 125.409 59.6662C125.575 61.5027 124.962 63.3391 123.713 64.6909C122.476 66.0682 120.703 66.8462 118.854 66.8462Z" fill="white"/>
<path d="M87.8262 30.195L86.908 23.0023C86.8953 22.2371 86.2959 21.6122 85.5434 21.5612C84.7655 21.4975 84.0768 22.0714 83.9748 22.8493L83.5795 26.012L80.1362 19.508C79.8173 18.9214 79.0522 18.6791 78.5038 19.0616C78.2615 19.2274 78.0957 19.4953 78.1339 19.9161C77.3815 19.2402 76.2338 19.2912 75.5578 20.0436L75.137 20.5155C74.3718 20.3497 73.5939 20.7195 73.224 21.4082L72.8542 22.1224L72.3568 22.0841C71.8212 22.0458 71.2856 22.2754 70.954 22.709L68.3269 26.1906L71.885 25.7697L75.8129 34.3397L87.8262 30.195Z" fill="#FFC1A4"/>
<path d="M80.2133 24.0222C80.1113 24.0222 80.0092 23.9712 79.9582 23.8691L77.8922 20.0305C77.8157 19.8902 77.8667 19.7117 78.007 19.6352C78.1473 19.5586 78.3258 19.6096 78.4024 19.7499L80.4683 23.5886C80.5449 23.7289 80.4938 23.9074 80.3536 23.9839C80.3153 24.0222 80.2643 24.0222 80.2133 24.0222Z" fill="#202126"/>
<path d="M77.4201 24.6201C77.3181 24.6201 77.2288 24.569 77.165 24.4798L74.8822 20.6411C74.8057 20.5008 74.844 20.3223 74.9843 20.2458C75.1246 20.1693 75.3031 20.2075 75.3796 20.3478L77.6624 24.1865C77.7389 24.3267 77.7007 24.5053 77.5604 24.5818C77.5221 24.6073 77.4711 24.6201 77.4201 24.6201Z" fill="#202126"/>
<path d="M74.7548 25.6399C74.6528 25.6399 74.5635 25.5888 74.4997 25.4996L72.5995 22.2476C72.523 22.1073 72.5613 21.9287 72.7016 21.8522C72.8418 21.7757 73.0204 21.814 73.0969 21.9542L74.9971 25.2063C75.0736 25.3465 75.0354 25.5251 74.8951 25.6016C74.8441 25.6271 74.8058 25.6399 74.7548 25.6399Z" fill="#202126"/>
<path d="M126.137 151.373C125.996 151.373 125.882 151.271 125.856 151.144L120.258 122.309C119.913 120.537 119.99 118.687 120.462 116.953L126.302 95.834C126.341 95.6809 126.506 95.5917 126.66 95.6299C126.813 95.6682 126.902 95.834 126.864 95.987L121.023 117.106C120.564 118.751 120.5 120.511 120.819 122.194L126.417 151.029C126.443 151.182 126.341 151.335 126.188 151.373C126.175 151.373 126.149 151.373 126.137 151.373Z" fill="white"/>
<path d="M121.24 93.3452C121.189 93.3452 121.138 93.3325 121.099 93.307C120.003 92.6821 119.646 91.3175 119.773 90.2335C119.913 89.0985 120.487 88.0782 120.997 87.1728C121.074 87.0325 121.253 86.9815 121.393 87.058C121.533 87.1345 121.584 87.3131 121.508 87.4533C121.023 88.3078 120.475 89.277 120.347 90.2973C120.232 91.19 120.513 92.3122 121.38 92.7969C121.52 92.8734 121.571 93.0519 121.495 93.1922C121.444 93.2942 121.342 93.3452 121.24 93.3452Z" fill="white"/>
<path d="M160.416 93.6117L159.383 100.46C159.153 101.136 159.472 101.876 160.11 102.182C160.811 102.513 161.653 102.22 161.985 101.531L163.553 98.3303C163.553 98.3303 166.027 106.645 167.621 106.543C169.075 106.454 168.948 103.98 168.948 103.98C168.948 103.98 169.522 106.148 170.708 105.918C172.021 105.663 171.307 103.087 171.307 103.087C171.307 103.087 171.843 105.357 173.08 104.962C174.559 104.49 173.679 102.067 173.679 102.067C173.679 102.067 175.439 103.776 175.975 101.57C176.434 99.6694 170.529 88.7783 170.529 88.7783L160.416 93.6117Z" fill="#FFC1A4"/>
<path d="M163.706 98.6242C163.617 98.6242 163.553 98.6242 163.54 98.6242C163.374 98.6114 163.259 98.4839 163.272 98.3181C163.285 98.1523 163.425 98.0376 163.578 98.0503C163.591 98.0503 165.415 98.1396 166.32 97.0683C167.226 95.9971 166.945 94.6835 166.945 94.6708C166.907 94.5177 167.009 94.3647 167.162 94.3264C167.315 94.2882 167.468 94.3902 167.506 94.5432C167.519 94.607 167.863 96.1501 166.767 97.4509C165.836 98.5349 164.229 98.6242 163.706 98.6242Z" fill="#202126"/>
<path d="M168.948 104.285C168.821 104.285 168.719 104.208 168.668 104.081L167.367 100.179C167.316 100.026 167.392 99.8597 167.545 99.8087C167.698 99.7577 167.864 99.8342 167.915 99.9872L169.216 103.89C169.267 104.043 169.191 104.208 169.037 104.259C169.012 104.272 168.974 104.285 168.948 104.285Z" fill="#202126"/>
<path d="M171.307 103.393C171.193 103.393 171.078 103.329 171.04 103.214L169.535 99.4139C169.471 99.2609 169.548 99.0951 169.701 99.0313C169.854 98.9676 170.019 99.0441 170.083 99.1971L171.588 102.998C171.652 103.151 171.575 103.316 171.422 103.38C171.384 103.38 171.346 103.393 171.307 103.393Z" fill="#202126"/>
<path d="M173.679 102.372C173.564 102.372 173.449 102.295 173.411 102.18L172.085 98.5584C172.034 98.4054 172.11 98.2396 172.263 98.1886C172.416 98.1376 172.582 98.2141 172.633 98.3671L173.959 101.989C174.01 102.142 173.934 102.308 173.781 102.359C173.742 102.372 173.704 102.372 173.679 102.372Z" fill="#202126"/>
<path d="M57.6273 123.317L38.1917 124.771C34.7484 125.026 32.3891 121.392 34.0215 118.344L42.5915 102.39C44.0963 99.5712 48.0243 99.2779 49.9372 101.841L60.8028 116.341C62.856 119.096 61.0578 123.062 57.6273 123.317Z" fill="white"/>
<path d="M37.8473 125.077C36.2659 125.077 34.8376 124.299 33.9576 122.96C33.0139 121.506 32.9373 119.733 33.7535 118.216L42.3236 102.262C43.076 100.859 44.4788 99.9406 46.0729 99.8259C47.6671 99.7111 49.1974 100.4 50.1539 101.675L61.0067 116.175C62.0397 117.553 62.231 119.325 61.5168 120.894C60.8026 122.462 59.3488 123.483 57.6272 123.61L38.1916 125.064C38.0896 125.077 37.962 125.077 37.8473 125.077ZM46.4428 100.374C46.3407 100.374 46.2387 100.374 46.1367 100.387C44.7466 100.489 43.5096 101.292 42.8464 102.529L34.2764 118.483C33.5623 119.81 33.626 121.366 34.455 122.641C35.2839 123.904 36.674 124.592 38.1788 124.49L57.6144 123.036C59.1193 122.922 60.3945 122.029 61.0194 120.651C61.6443 119.274 61.4786 117.731 60.5731 116.52L49.7203 102.019C48.9169 100.974 47.7181 100.374 46.4428 100.374Z" fill="#202126"/>
<path d="M49.6322 106.531C49.6449 106.659 49.6322 106.786 49.6322 106.914L49.0838 114.757C49.02 115.751 48.2166 116.529 47.2346 116.593C46.2399 116.644 45.3599 115.968 45.1814 114.986L43.7276 107.258C43.396 105.485 44.6968 103.827 46.4949 103.725C48.1401 103.623 49.5302 104.911 49.6322 106.531Z" fill="#1570EF"/>
<path d="M49.4271 119.476C49.4909 120.611 48.6237 121.58 47.5014 121.644C46.3664 121.708 45.3971 120.84 45.3334 119.718C45.2696 118.583 46.1368 117.614 47.2591 117.55C48.3941 117.486 49.3633 118.341 49.4271 119.476Z" fill="#1570EF"/>
<path d="M54.8084 24.8619C51.059 18.2686 47.3224 11.6753 43.573 5.08203L54.8084 24.8619Z" fill="white"/>
<path d="M54.8082 25.1558C54.7062 25.1558 54.6042 25.1048 54.5532 25.0028L43.3178 5.22288C43.2413 5.0826 43.2923 4.90405 43.4325 4.82753C43.5728 4.75102 43.7514 4.80203 43.8279 4.94231L55.0633 24.7222C55.1398 24.8625 55.0888 25.041 54.9485 25.1175C54.8975 25.1431 54.8592 25.1558 54.8082 25.1558Z" fill="#FFCB50"/>
<path d="M56.7217 20.4878C57.4614 16.9553 57.8439 15.1826 58.2903 13.0273L56.7217 20.4878Z" fill="white"/>
<path d="M56.7215 20.7815C56.696 20.7815 56.6833 20.7815 56.6578 20.7815C56.5047 20.7432 56.4027 20.5902 56.4282 20.4371L57.9968 12.9766C58.0351 12.8236 58.1881 12.7216 58.3412 12.7471C58.4942 12.7853 58.5962 12.9384 58.5707 13.0914L57.0021 20.5519C56.9766 20.6922 56.8491 20.7815 56.7215 20.7815Z" fill="#FFCB50"/>
<path d="M40.577 21.4444C39.5185 21.0108 38.4728 20.5645 37.4143 20.1309L40.577 21.4444Z" fill="white"/>
<path d="M40.5769 21.7381C40.5387 21.7381 40.5004 21.7254 40.4622 21.7126L37.2994 20.399C37.1464 20.3353 37.0826 20.1695 37.1464 20.0165C37.2101 19.8634 37.3759 19.7996 37.529 19.8634L40.6917 21.177C40.8447 21.2407 40.9085 21.4065 40.8447 21.5596C40.7937 21.6743 40.6917 21.7381 40.5769 21.7381Z" fill="#FFCB50"/>
<path d="M50.6388 25.6258C48.5983 24.7713 46.5579 23.9296 44.5046 23.0752L50.6388 25.6258Z" fill="white"/>
<path d="M50.6387 25.9195C50.6004 25.9195 50.5622 25.9067 50.5239 25.894L44.3897 23.3434C44.2367 23.2796 44.1729 23.1138 44.2367 22.9608C44.3005 22.8078 44.4663 22.744 44.6193 22.8077L50.7535 25.3583C50.9065 25.4221 50.9703 25.5879 50.9065 25.7409C50.8683 25.8557 50.7535 25.9195 50.6387 25.9195Z" fill="#FFCB50"/>
<path d="M52.9974 140.148C52.8827 140.148 52.7806 140.084 52.7296 139.97C52.6659 139.829 52.7296 139.651 52.8827 139.587C59.782 136.526 65.9672 132.254 71.2852 126.898C72.0632 126.12 72.8539 125.265 73.568 124.334C72.8921 124.194 72.2545 123.99 71.6678 123.722C69.3213 122.664 67.7399 120.458 67.7144 118.239C67.7016 116.785 68.5178 115.305 69.8314 114.4C71.0047 113.584 72.3437 113.38 73.517 113.826C75.9273 114.757 76.7945 117.856 76.2206 120.317C75.9146 121.618 75.3279 122.817 74.5883 123.914C75.7233 124.054 76.9986 124.016 78.4269 123.837C83.7959 123.136 88.8844 120.674 92.774 116.912C96.6637 113.15 99.2908 108.151 100.184 102.807C100.209 102.654 100.362 102.54 100.515 102.565C100.668 102.591 100.783 102.744 100.757 102.897C99.8519 108.355 97.1611 113.482 93.1821 117.32C89.2032 121.159 83.9872 123.671 78.5034 124.398C76.8965 124.615 75.4682 124.628 74.2057 124.436C73.4405 125.482 72.5478 126.439 71.6933 127.293C66.3243 132.7 60.0754 136.998 53.1122 140.097C53.074 140.135 53.0357 140.148 52.9974 140.148ZM72.229 114.183C71.5275 114.183 70.8134 114.425 70.1375 114.884C68.9769 115.688 68.2628 116.976 68.2755 118.239C68.2883 120.241 69.7421 122.23 71.8846 123.199C72.5095 123.48 73.1854 123.697 73.9251 123.824C74.703 122.715 75.3279 121.516 75.6213 120.202C76.1314 117.983 75.3917 115.203 73.2747 114.387C72.9559 114.247 72.5988 114.183 72.229 114.183Z" fill="#6AA8FF"/>
<path d="M55.4464 143.221L50.2814 142.264C49.6438 142.149 49.274 141.473 49.5163 140.874L51.442 135.99C51.7608 135.186 52.8703 135.11 53.2911 135.875L56.5176 141.716C56.9512 142.468 56.3009 143.374 55.4464 143.221Z" fill="#6AA8FF"/>
<path d="M102.925 8.60135C102.925 8.57584 102.925 8.56309 102.938 8.53758C103.244 6.19103 105.335 4.44387 107.694 4.52039C108.039 4.53314 108.37 4.58416 108.702 4.66067C109.671 1.98255 112.324 0.107855 115.384 0.324656C118.637 0.55421 121.264 3.21958 121.468 6.4716C121.544 7.75965 121.251 8.97119 120.69 10.0169" fill="white"/>
<path d="M120.664 10.3225C120.613 10.3225 120.575 10.3098 120.524 10.2843C120.384 10.2078 120.333 10.0292 120.409 9.88893C120.97 8.85594 121.225 7.68266 121.162 6.49664C120.97 3.37215 118.471 0.847058 115.346 0.617504C112.541 0.413456 109.901 2.12236 108.957 4.76223C108.906 4.90251 108.753 4.97903 108.613 4.94077C108.307 4.86425 107.988 4.81324 107.669 4.80049C105.463 4.72397 103.499 6.38186 103.218 8.56262L103.205 8.61363C103.18 8.76667 103.04 8.88145 102.887 8.86869C102.734 8.84319 102.619 8.7029 102.632 8.54987L102.644 8.4861C102.976 6.01202 105.182 4.13733 107.695 4.21385C107.962 4.2266 108.243 4.25211 108.511 4.30312C109.62 1.54847 112.413 -0.198687 115.397 0.0181136C118.815 0.26042 121.544 3.02782 121.748 6.44562C121.825 7.73368 121.544 9.02173 120.932 10.144C120.868 10.2588 120.766 10.3225 120.664 10.3225Z" fill="#CDCECE"/>
<path d="M104.941 9.16307C104.941 7.73474 106.101 6.57422 107.53 6.57422L104.941 9.16307Z" fill="white"/>
<path d="M104.941 9.45577C104.775 9.45577 104.647 9.32824 104.647 9.16245C104.647 7.58108 105.936 6.28027 107.53 6.28027C107.695 6.28027 107.823 6.40781 107.823 6.57359C107.823 6.73938 107.695 6.86691 107.53 6.86691C106.267 6.86691 105.234 7.8999 105.234 9.16245C105.234 9.31549 105.107 9.45577 104.941 9.45577Z" fill="#CDCECE"/>
<path d="M114.875 2.42969C116.329 2.42969 117.63 3.1311 118.446 4.20235L114.875 2.42969Z" fill="white"/>
<path d="M118.446 4.49505C118.357 4.49505 118.268 4.45679 118.217 4.38027C117.413 3.32177 116.202 2.72238 114.875 2.72238C114.71 2.72238 114.582 2.59485 114.582 2.42906C114.582 2.26327 114.71 2.13574 114.875 2.13574C116.38 2.13574 117.77 2.8244 118.676 4.03594C118.778 4.16347 118.752 4.34201 118.625 4.44403C118.574 4.46954 118.51 4.49505 118.446 4.49505Z" fill="#CDCECE"/>
<path d="M5.55664 24.6717C5.55664 24.6462 5.55665 24.6334 5.5694 24.6079C5.87547 22.2613 7.96696 20.5142 10.3263 20.5907C10.6706 20.6035 11.0022 20.6545 11.3338 20.731C12.303 18.0529 14.9556 16.1782 18.0163 16.395C21.2683 16.6245 23.8955 19.2899 24.0995 22.5419C24.176 23.83 23.8827 25.0415 23.3216 26.0872" fill="white"/>
<path d="M23.2959 26.3928C23.2449 26.3928 23.2066 26.3801 23.1556 26.3546C23.0153 26.2781 22.9643 26.0995 23.0409 25.9592C23.602 24.9263 23.857 23.753 23.7933 22.5669C23.602 19.4425 21.1024 16.9174 17.9779 16.6878C15.1595 16.4838 12.5324 18.1927 11.5887 20.8325C11.5377 20.9728 11.3846 21.0493 11.2443 21.0111C10.9383 20.9346 10.6194 20.8836 10.3006 20.8708C8.08159 20.7943 6.13038 22.4522 5.84982 24.6329L5.83706 24.6839C5.82431 24.837 5.67127 24.9645 5.51823 24.939C5.3652 24.9263 5.25042 24.7732 5.26317 24.6202L5.27593 24.5564C5.60751 22.0823 7.81378 20.2076 10.3261 20.2842C10.5939 20.2969 10.8745 20.3224 11.1423 20.3734C12.2518 17.6188 15.0447 15.8716 18.0289 16.0884C21.434 16.3307 24.1759 19.0981 24.3799 22.5159C24.4564 23.804 24.1759 25.092 23.5637 26.2143C23.5 26.3291 23.3979 26.3928 23.2959 26.3928Z" fill="#CDCECE"/>
<path d="M7.57129 25.2305C7.57129 23.8021 8.73181 22.6416 10.1601 22.6416L7.57129 25.2305Z" fill="white"/>
<path d="M7.57116 25.5114C7.40537 25.5114 7.27783 25.3839 7.27783 25.2181C7.27783 23.6367 8.56589 22.3359 10.16 22.3359C10.3258 22.3359 10.4533 22.4635 10.4533 22.6293C10.4533 22.795 10.3258 22.9226 10.16 22.9226C8.89747 22.9226 7.86447 23.9556 7.86447 25.2181C7.86447 25.3839 7.72419 25.5114 7.57116 25.5114Z" fill="#CDCECE"/>
<path d="M17.5061 18.4854C18.9599 18.4854 20.2608 19.1868 21.0769 20.258L17.5061 18.4854Z" fill="white"/>
<path d="M21.077 20.5644C20.9878 20.5644 20.8985 20.5261 20.8475 20.4496C20.0441 19.3911 18.8325 18.7917 17.5062 18.7917C17.3404 18.7917 17.2129 18.6642 17.2129 18.4984C17.2129 18.3326 17.3404 18.2051 17.5062 18.2051C19.0111 18.2051 20.4011 18.8937 21.3066 20.1053C21.4086 20.2328 21.3831 20.4113 21.2556 20.5134C21.2046 20.5389 21.1408 20.5644 21.077 20.5644Z" fill="#CDCECE"/>
<path d="M79.8686 168.817C79.7538 168.817 79.6518 168.754 79.6008 168.639C78.1342 165.323 75.5964 162.543 73.135 159.877L72.5484 159.24C69.883 156.319 67.1794 153.144 66.0061 149.267C65.9551 149.114 66.0444 148.948 66.1974 148.91C66.3504 148.859 66.5162 148.948 66.5545 149.101C67.6895 152.863 70.3549 155.975 72.9692 158.857L73.5559 159.495C76.0427 162.211 78.6188 165.017 80.1237 168.422C80.1874 168.575 80.1237 168.741 79.9706 168.805C79.9451 168.817 79.9069 168.817 79.8686 168.817Z" fill="#999CA1"/>
<path d="M84.7016 169.326C84.5868 169.326 84.4721 169.249 84.4338 169.135C83.5539 166.788 83.5666 164.097 84.4593 161.763C85.2117 159.812 86.5381 158.142 87.8134 156.535C88.1067 156.152 88.4127 155.782 88.7061 155.4C90.0579 153.652 91.601 151.306 91.6265 148.73C91.6265 148.577 91.754 148.437 91.9198 148.437C92.0856 148.437 92.2131 148.564 92.2131 148.73C92.1876 151.472 90.568 153.92 89.1652 155.744C88.8718 156.127 88.5658 156.509 88.2725 156.879C87.0227 158.46 85.7219 160.08 85.0077 161.955C84.1532 164.161 84.1405 166.699 84.9822 168.918C85.0332 169.071 84.9567 169.237 84.8164 169.288C84.7781 169.326 84.7399 169.326 84.7016 169.326Z" fill="#999CA1"/>
<path d="M97.876 176.072C97.876 176.072 98.8835 173.547 97.5061 172.833C96.1288 172.118 93.6675 172.833 93.6675 172.833C93.6675 172.833 95.5932 170.894 95.0831 169.326C94.573 167.757 92.7875 166.966 90.9383 168.611C90.9383 168.611 95.4912 162.656 94.1011 160.411C91.576 156.318 84.7659 162.056 84.0007 167.272C84.0007 167.272 82.0112 156.738 78.5807 156.981C75.1501 157.223 77.2671 164.148 78.0068 165.665C78.0068 165.665 73.7346 160.756 70.8014 162.375C67.8682 163.995 71.2732 173.343 79.0526 176.072" fill="white"/>
<path d="M79.7408 174.032C79.6516 174.032 79.575 173.994 79.5113 173.93C78.3763 172.566 77.4325 171.099 76.6929 169.569C76.6291 169.428 76.6801 169.25 76.8331 169.186C76.9734 169.122 77.152 169.173 77.2157 169.326C77.9427 170.806 78.8609 172.234 79.9704 173.573C80.0724 173.701 80.0597 173.879 79.9321 173.981C79.8684 174.019 79.8046 174.032 79.7408 174.032Z" fill="#CDCECE"/>
<path d="M87.5067 174.197C87.4557 174.197 87.4047 174.184 87.3664 174.158C87.2261 174.082 87.1751 173.903 87.2644 173.763L89.2028 170.435C89.2794 170.294 89.4579 170.243 89.5982 170.332C89.7385 170.409 89.7895 170.588 89.7002 170.728L87.7617 174.056C87.7107 174.146 87.6087 174.197 87.5067 174.197Z" fill="#CDCECE"/>
<path d="M79.0385 176.352C79.0003 176.352 78.9748 176.352 78.9365 176.34C73.5037 174.427 69.7926 169.058 69.4738 165.181C69.3463 163.689 69.7671 162.605 70.6471 162.12C72.8788 160.883 75.7355 163.064 77.2276 164.467C76.6027 162.554 75.9013 159.378 76.845 157.746C77.2149 157.108 77.7887 156.751 78.5539 156.7C81.5126 156.496 83.3491 163.025 84.0122 165.946C85.058 162.656 88.1187 159.391 90.9116 158.817C92.3909 158.511 93.577 159.008 94.3549 160.258C95.4516 162.031 93.2964 165.704 92.0211 167.604C92.5695 167.4 93.1178 167.361 93.628 167.502C94.4314 167.719 95.0818 168.369 95.3624 169.249C95.7195 170.371 95.0053 171.621 94.4442 172.373C95.3241 172.22 96.6887 172.093 97.6452 172.59C99.2393 173.419 98.1935 176.085 98.1553 176.199C98.0915 176.352 97.9257 176.416 97.7727 176.365C97.6196 176.301 97.5559 176.136 97.6069 175.983C97.6197 175.957 98.4996 173.7 97.3773 173.113C96.1148 172.463 93.781 173.126 93.7555 173.139C93.628 173.177 93.4877 173.126 93.4239 173.011C93.3601 172.896 93.3729 172.756 93.4622 172.654C93.4749 172.641 95.2476 170.818 94.8012 169.44C94.5844 168.752 94.0871 168.241 93.4622 168.076C92.7353 167.884 91.9063 168.152 91.1284 168.854C91.0136 168.956 90.8478 168.956 90.733 168.854C90.6183 168.752 90.6055 168.586 90.6948 168.458C91.9318 166.851 94.9033 162.286 93.8448 160.59C93.2071 159.557 92.2506 159.161 91.0136 159.416C88.1187 160.016 84.7774 163.944 84.2673 167.349C84.2418 167.489 84.127 167.591 83.9867 167.591C83.8464 167.591 83.7316 167.489 83.7061 167.349C83.1705 164.53 81.2448 157.287 78.6815 157.287C78.656 157.287 78.6177 157.287 78.5922 157.287C78.0183 157.325 77.6102 157.567 77.3424 158.039C76.3094 159.837 77.5974 164.199 78.2606 165.551C78.3244 165.678 78.2861 165.844 78.1586 165.92C78.0311 165.997 77.878 165.984 77.776 165.869C77.7377 165.818 73.6185 161.151 70.9276 162.643C70.2645 163.013 69.9457 163.905 70.0604 165.155C70.3155 168.254 73.389 173.802 79.1406 175.817C79.2936 175.868 79.3701 176.034 79.3191 176.187C79.2808 176.289 79.1661 176.352 79.0385 176.352Z" fill="#CDCECE"/>
<path d="M85.3903 173.994C85.2373 173.994 85.097 173.866 85.097 173.7C85.0715 171.303 85.875 168.931 87.4181 166.865C87.5201 166.737 87.6986 166.712 87.8262 166.801C87.9537 166.903 87.9792 167.081 87.8899 167.209C86.4233 169.173 85.6582 171.417 85.6837 173.688C85.6837 173.866 85.5561 173.994 85.3903 173.994Z" fill="#CDCECE"/>
<path d="M83.2488 172.782C83.1341 172.782 83.032 172.718 82.981 172.603L80.3794 166.418C80.3157 166.265 80.3922 166.099 80.5325 166.035C80.6855 165.972 80.8513 166.048 80.915 166.188L83.5167 172.374C83.5804 172.527 83.5039 172.692 83.3636 172.756C83.3254 172.782 83.2871 172.782 83.2488 172.782Z" fill="#CDCECE"/>
<path d="M93.9476 148.501C94.2114 147.383 93.5195 146.264 92.4022 146C91.2849 145.736 90.1653 146.428 89.9015 147.545C89.6377 148.663 90.3296 149.782 91.4468 150.046C92.5641 150.31 93.6838 149.618 93.9476 148.501Z" fill="#EEEFF4"/>
<path d="M91.9194 150.376C90.6059 150.376 89.5474 149.317 89.5474 148.004C89.5474 146.69 90.6059 145.632 91.9194 145.632C93.233 145.632 94.2915 146.69 94.2915 148.004C94.3042 149.317 93.233 150.376 91.9194 150.376ZM91.9194 146.206C90.9247 146.206 90.1212 147.009 90.1212 148.004C90.1212 148.999 90.9247 149.802 91.9194 149.802C92.9142 149.802 93.7176 148.999 93.7176 148.004C93.7176 147.009 92.9142 146.206 91.9194 146.206Z" fill="#999CA1"/>
<path d="M68.3785 150.574C68.6423 149.457 67.9504 148.337 66.8332 148.073C65.7159 147.809 64.5963 148.501 64.3324 149.619C64.0686 150.736 64.7605 151.855 65.8778 152.119C66.9951 152.383 68.1147 151.691 68.3785 150.574Z" fill="#EEEFF4"/>
<path d="M66.363 152.454C65.0495 152.454 63.991 151.396 63.991 150.082C63.991 148.768 65.0495 147.71 66.363 147.71C67.6766 147.71 68.7351 148.768 68.7351 150.082C68.7351 151.396 67.6638 152.454 66.363 152.454ZM66.363 148.297C65.3683 148.297 64.5649 149.1 64.5649 150.095C64.5649 151.089 65.3683 151.893 66.363 151.893C67.345 151.893 68.1612 151.089 68.1612 150.095C68.1484 149.1 67.345 148.297 66.363 148.297Z" fill="#999CA1"/>
</svg>
