<svg width="360" height="138" viewBox="0 0 360 138" fill="none" xmlns="http://www.w3.org/2000/svg">
<g clip-path="url(#clip0_9673_1154)">
<path d="M0 16C0 7.16344 7.16344 0 16 0H344C352.837 0 360 7.16344 360 16V138H0V16Z" fill="white"/>
<foreignObject x="-104" y="-104" width="569" height="346"><div xmlns="http://www.w3.org/1999/xhtml" style="backdrop-filter:blur(52px);clip-path:url(#bgblur_1_9673_1154_clip_path);height:100%;width:100%"></div></foreignObject><path data-figma-bg-blur-radius="104" d="M361 132.074C361 135.347 358.347 138 355.074 138L5.9256 138C2.65298 138 3.4797e-07 135.347 7.77212e-07 132.074L1.81004e-05 9.48231e-06L361 3.05176e-05L361 132.074Z" fill="url(#paint0_linear_9673_1154)"/>
<g style="mix-blend-mode:screen" opacity="0.98">
<mask id="mask0_9673_1154" style="mask-type:luminance" maskUnits="userSpaceOnUse" x="316" y="-7" width="32" height="25">
<path d="M345.088 10.2464C340.336 16.323 330.667 19.0497 323.49 16.3683C316.328 13.6923 314.339 6.61167 319.09 0.535126C323.828 -5.5231 333.484 -8.25089 340.642 -5.57629C347.818 -2.89484 349.821 4.18686 345.084 10.2451L345.088 10.2464Z" fill="url(#paint1_radial_9673_1154)"/>
</mask>
<g mask="url(#mask0_9673_1154)">
<path style="mix-blend-mode:overlay" opacity="0.25" d="M345.088 10.2464C340.336 16.323 330.667 19.0497 323.49 16.3683C316.328 13.6923 314.339 6.61167 319.09 0.535126C323.828 -5.5231 333.484 -8.25089 340.642 -5.57629C347.818 -2.89484 349.821 4.18686 345.084 10.2451L345.088 10.2464Z" fill="url(#paint2_radial_9673_1154)"/>
</g>
<path style="mix-blend-mode:screen" d="M355.762 5.44979C358.603 6.52114 359.437 9.29366 357.625 11.6378C355.812 13.9819 352.036 15.0164 349.191 13.9437C346.349 12.8723 345.515 10.0998 347.328 7.7557C349.142 5.40857 352.917 4.37703 355.762 5.44979Z" fill="url(#paint3_radial_9673_1154)"/>
<path style="mix-blend-mode:soft-light" opacity="0.5" d="M350.669 41.7436C353.606 42.8514 357.503 41.7844 359.374 39.3647C361.248 36.942 360.388 34.0811 357.451 32.9733C354.518 31.8669 350.617 32.9325 348.743 35.3552C346.872 37.7748 347.73 40.6388 350.667 41.7466L350.669 41.7436Z" fill="url(#paint4_radial_9673_1154)"/>
<path style="mix-blend-mode:soft-light" opacity="0.2" d="M297.434 8.75206C301.763 10.3865 307.513 8.8142 310.278 5.24132C313.043 1.66844 311.77 -2.55365 307.443 -4.18369C303.114 -5.81816 297.364 -4.24582 294.599 -0.672944C291.834 2.89994 293.109 7.119 297.434 8.75206Z" fill="url(#paint5_radial_9673_1154)"/>
<path fill-rule="evenodd" clip-rule="evenodd" d="M348.113 4.46879L336.767 0.321811L329.334 9.36148L336.376 0.170071L325.281 -4.29009L336.627 -0.143126L344.06 -9.19028L337.016 0.00418784L348.113 4.46879Z" fill="url(#paint6_radial_9673_1154)"/>
<path fill-rule="evenodd" clip-rule="evenodd" d="M344.905 -1.93273L336.787 0.239428L338.329 6.21L336.504 0.31078L328.328 2.27469L336.447 0.106961L334.902 -5.86498L336.724 0.0372981L344.905 -1.93273Z" fill="url(#paint7_radial_9673_1154)"/>
<mask id="mask1_9673_1154" style="mask-type:luminance" maskUnits="userSpaceOnUse" x="330" y="-5" width="13" height="10">
<path style="mix-blend-mode:multiply" fill-rule="evenodd" clip-rule="evenodd" d="M332.965 4.11465C330.194 3.04896 329.401 0.356741 331.196 -1.90305C332.998 -4.16758 336.704 -5.13832 339.474 -4.07706C342.25 -3.01748 343.037 -0.323584 341.24 1.93926C339.44 4.20074 335.738 5.17285 332.962 4.11328L332.965 4.11465Z" fill="url(#paint8_radial_9673_1154)"/>
</mask>
<g mask="url(#mask1_9673_1154)">
<mask id="mask2_9673_1154" style="mask-type:luminance" maskUnits="userSpaceOnUse" x="330" y="-5" width="13" height="10">
<path style="mix-blend-mode:multiply" fill-rule="evenodd" clip-rule="evenodd" d="M332.965 4.11465C330.194 3.04896 329.401 0.356741 331.196 -1.90305C332.998 -4.16758 336.704 -5.13832 339.474 -4.07706C342.25 -3.01748 343.037 -0.323584 341.24 1.93926C339.44 4.20074 335.738 5.17285 332.962 4.11328L332.965 4.11465Z" fill="url(#paint9_radial_9673_1154)"/>
</mask>
<g mask="url(#mask2_9673_1154)">
<path fill-rule="evenodd" clip-rule="evenodd" d="M332.965 4.11465C330.194 3.04896 329.401 0.356741 331.196 -1.90305C332.998 -4.16758 336.704 -5.13832 339.474 -4.07706C342.25 -3.01748 343.037 -0.323584 341.24 1.93926C339.44 4.20074 335.738 5.17285 332.962 4.11328L332.965 4.11465Z" fill="url(#paint10_radial_9673_1154)"/>
</g>
</g>
<path fill-rule="evenodd" clip-rule="evenodd" d="M337.79 -5.43105L322.716 -10.9401L312.841 1.07434L322.201 -11.1387L307.459 -17.0647L322.533 -11.5557L332.407 -23.5746L323.045 -11.3585L337.79 -5.43105Z" fill="url(#paint11_radial_9673_1154)"/>
<path style="mix-blend-mode:soft-light" opacity="0.3" d="M336.533 -0.625437C340.325 0.80442 345.364 -0.572092 347.786 -3.70356C350.207 -6.83504 349.091 -10.5306 345.301 -11.9635C341.509 -13.3933 336.469 -12.0168 334.051 -8.88836C331.632 -5.75991 332.743 -2.05832 336.535 -0.628463L336.533 -0.625437Z" fill="url(#paint12_radial_9673_1154)"/>
<path style="mix-blend-mode:soft-light" opacity="0.2" d="M277.087 4.43459C281.416 6.06906 287.166 4.49673 289.929 0.926877C292.694 -2.646 291.421 -6.8681 287.09 -8.49954C282.761 -10.134 277.011 -8.56168 274.249 -4.9874C271.487 -1.41754 272.76 2.80455 277.085 4.43762L277.087 4.43459Z" fill="url(#paint13_radial_9673_1154)"/>
<path fill-rule="evenodd" clip-rule="evenodd" d="M304.237 27.3855L288.793 21.7404L278.682 34.0497L288.267 21.5377L273.166 15.4678L288.609 21.1085L298.724 8.80049L289.133 21.3142L304.237 27.3855Z" fill="url(#paint14_radial_9673_1154)"/>
<path fill-rule="evenodd" clip-rule="evenodd" d="M299.871 18.6777L288.821 21.6306L290.914 29.7591L288.438 21.7274L277.309 24.4012L288.357 21.4514L286.257 13.3246L288.738 21.3576L299.871 18.6777Z" fill="url(#paint15_radial_9673_1154)"/>
<mask id="mask3_9673_1154" style="mask-type:luminance" maskUnits="userSpaceOnUse" x="279" y="15" width="18" height="13">
<path style="mix-blend-mode:multiply" fill-rule="evenodd" clip-rule="evenodd" d="M283.618 26.9045C279.845 25.453 278.771 21.7895 281.214 18.7112C283.664 15.6312 288.706 14.3112 292.476 15.7539C296.256 17.1963 297.324 20.8615 294.882 23.9442C292.431 27.0197 287.392 28.3486 283.614 26.9032L283.618 26.9045Z" fill="url(#paint16_radial_9673_1154)"/>
</mask>
<g mask="url(#mask3_9673_1154)">
<mask id="mask4_9673_1154" style="mask-type:luminance" maskUnits="userSpaceOnUse" x="279" y="15" width="18" height="13">
<path style="mix-blend-mode:multiply" fill-rule="evenodd" clip-rule="evenodd" d="M283.618 26.9045C279.845 25.453 278.771 21.7895 281.214 18.7112C283.664 15.6312 288.706 14.3112 292.476 15.7539C296.256 17.1963 297.324 20.8615 294.882 23.9442C292.431 27.0197 287.392 28.3486 283.614 26.9032L283.618 26.9045Z" fill="url(#paint17_radial_9673_1154)"/>
</mask>
<g mask="url(#mask4_9673_1154)">
<path fill-rule="evenodd" clip-rule="evenodd" d="M283.618 26.9045C279.845 25.453 278.771 21.7895 281.214 18.7112C283.664 15.6313 288.706 14.3113 292.476 15.754C296.256 17.1964 297.324 20.8615 294.882 23.9442C292.431 27.0198 287.392 28.3486 283.614 26.9032L283.618 26.9045Z" fill="url(#paint18_radial_9673_1154)"/>
</g>
</g>
</g>
<circle cx="332" cy="66" r="100" fill="white"/>
<circle opacity="0.25" cx="341" cy="66" r="100" fill="#A3C9FF"/>
</g>
<defs>
<clipPath id="bgblur_1_9673_1154_clip_path" transform="translate(104 104)"><path d="M361 132.074C361 135.347 358.347 138 355.074 138L5.9256 138C2.65298 138 3.4797e-07 135.347 7.77212e-07 132.074L1.81004e-05 9.48231e-06L361 3.05176e-05L361 132.074Z"/>
</clipPath><linearGradient id="paint0_linear_9673_1154" x1="376.959" y1="131.56" x2="274.517" y2="-114.356" gradientUnits="userSpaceOnUse">
<stop offset="0.0919961" stop-color="#B7DFFF"/>
<stop offset="1" stop-color="#EBF3FD"/>
</linearGradient>
<radialGradient id="paint1_radial_9673_1154" cx="0" cy="0" r="1" gradientUnits="userSpaceOnUse" gradientTransform="translate(332.12 5.40876) rotate(128.016) scale(13.8743 13.2332)">
<stop stop-color="white"/>
<stop offset="0.37" stop-color="#FDFDFD"/>
<stop offset="0.51" stop-color="#F6F6F6"/>
<stop offset="0.6" stop-color="#EAEAEA"/>
<stop offset="0.68" stop-color="#D9D9D9"/>
<stop offset="0.75" stop-color="#C4C4C3"/>
<stop offset="0.8" stop-color="#A9A9A8"/>
<stop offset="0.86" stop-color="#888887"/>
<stop offset="0.91" stop-color="#636362"/>
<stop offset="0.95" stop-color="#383837"/>
<stop offset="0.99" stop-color="#0B0B09"/>
<stop offset="1" stop-color="#020200"/>
</radialGradient>
<radialGradient id="paint2_radial_9673_1154" cx="0" cy="0" r="1" gradientUnits="userSpaceOnUse" gradientTransform="translate(332.084 5.40064) rotate(-51.7835) scale(13.9166 13.2443)">
<stop offset="0.16" stop-color="#D7B558"/>
<stop offset="0.28" stop-color="#A08741"/>
<stop offset="0.41" stop-color="#6F5E2D"/>
<stop offset="0.54" stop-color="#473C1D"/>
<stop offset="0.66" stop-color="#282110"/>
<stop offset="0.78" stop-color="#120F07"/>
<stop offset="0.9" stop-color="#040301"/>
<stop offset="1"/>
</radialGradient>
<radialGradient id="paint3_radial_9673_1154" cx="0" cy="0" r="1" gradientUnits="userSpaceOnUse" gradientTransform="translate(352.313 10.0204) rotate(-52.2792) scale(5.35005 5.26176)">
<stop offset="0.16" stop-color="#D7B558"/>
<stop offset="0.28" stop-color="#A08741"/>
<stop offset="0.41" stop-color="#6F5E2D"/>
<stop offset="0.54" stop-color="#473C1D"/>
<stop offset="0.66" stop-color="#282110"/>
<stop offset="0.78" stop-color="#120F07"/>
<stop offset="0.9" stop-color="#040301"/>
<stop offset="1"/>
</radialGradient>
<radialGradient id="paint4_radial_9673_1154" cx="0" cy="0" r="1" gradientUnits="userSpaceOnUse" gradientTransform="translate(354.064 37.3561) rotate(-52.0729) scale(5.53805 5.43462)">
<stop offset="0.16" stop-color="#D7B558"/>
<stop offset="0.28" stop-color="#A08741"/>
<stop offset="0.41" stop-color="#6F5E2D"/>
<stop offset="0.54" stop-color="#473C1D"/>
<stop offset="0.66" stop-color="#282110"/>
<stop offset="0.78" stop-color="#120F07"/>
<stop offset="0.9" stop-color="#040301"/>
<stop offset="1"/>
</radialGradient>
<radialGradient id="paint5_radial_9673_1154" cx="0" cy="0" r="1" gradientUnits="userSpaceOnUse" gradientTransform="translate(302.437 2.28349) rotate(-52.0729) scale(8.17106 8.01847)">
<stop offset="0.16" stop-color="#D7B558"/>
<stop offset="0.28" stop-color="#A08741"/>
<stop offset="0.41" stop-color="#6F5E2D"/>
<stop offset="0.54" stop-color="#473C1D"/>
<stop offset="0.66" stop-color="#282110"/>
<stop offset="0.78" stop-color="#120F07"/>
<stop offset="0.9" stop-color="#040301"/>
<stop offset="1"/>
</radialGradient>
<radialGradient id="paint6_radial_9673_1154" cx="0" cy="0" r="1" gradientUnits="userSpaceOnUse" gradientTransform="translate(336.685 0.0884193) rotate(127.971) scale(12.0101 11.5065)">
<stop offset="0.16" stop-color="#D7B558"/>
<stop offset="0.28" stop-color="#A08741"/>
<stop offset="0.41" stop-color="#6F5E2D"/>
<stop offset="0.54" stop-color="#473C1D"/>
<stop offset="0.66" stop-color="#282110"/>
<stop offset="0.78" stop-color="#120F07"/>
<stop offset="0.9" stop-color="#040301"/>
<stop offset="1"/>
</radialGradient>
<radialGradient id="paint7_radial_9673_1154" cx="0" cy="0" r="1" gradientUnits="userSpaceOnUse" gradientTransform="translate(336.603 0.173319) rotate(127.971) scale(5.38586 5.16005)">
<stop offset="0.16" stop-color="#D7B558"/>
<stop offset="0.28" stop-color="#A08741"/>
<stop offset="0.41" stop-color="#6F5E2D"/>
<stop offset="0.54" stop-color="#473C1D"/>
<stop offset="0.66" stop-color="#282110"/>
<stop offset="0.78" stop-color="#120F07"/>
<stop offset="0.9" stop-color="#040301"/>
<stop offset="1"/>
</radialGradient>
<radialGradient id="paint8_radial_9673_1154" cx="0" cy="0" r="1" gradientUnits="userSpaceOnUse" gradientTransform="translate(336.312 -0.0329768) rotate(128.5) scale(5.2211 5.15016)">
<stop offset="0.22" stop-color="white"/>
<stop offset="0.29" stop-color="#EEEEEE"/>
<stop offset="0.45" stop-color="#C2C2C2"/>
<stop offset="0.66" stop-color="#7B7B7B"/>
<stop offset="0.93" stop-color="#1B1B1B"/>
<stop offset="1"/>
</radialGradient>
<radialGradient id="paint9_radial_9673_1154" cx="0" cy="0" r="1" gradientUnits="userSpaceOnUse" gradientTransform="translate(336.312 -0.0329768) rotate(128.5) scale(5.2211 5.15016)">
<stop offset="0.22" stop-color="white"/>
<stop offset="0.29" stop-color="#EEEEEE"/>
<stop offset="0.45" stop-color="#C2C2C2"/>
<stop offset="0.66" stop-color="#7B7B7B"/>
<stop offset="0.93" stop-color="#1B1B1B"/>
<stop offset="1"/>
</radialGradient>
<radialGradient id="paint10_radial_9673_1154" cx="0" cy="0" r="1" gradientUnits="userSpaceOnUse" gradientTransform="translate(336.207 0.0170158) rotate(128.025) scale(5.30599 5.05645)">
<stop offset="0.16" stop-color="#D7B558"/>
<stop offset="0.28" stop-color="#A08741"/>
<stop offset="0.41" stop-color="#6F5E2D"/>
<stop offset="0.54" stop-color="#473C1D"/>
<stop offset="0.66" stop-color="#282110"/>
<stop offset="0.78" stop-color="#120F07"/>
<stop offset="0.9" stop-color="#040301"/>
<stop offset="1"/>
</radialGradient>
<radialGradient id="paint11_radial_9673_1154" cx="0" cy="0" r="1" gradientUnits="userSpaceOnUse" gradientTransform="translate(322.614 -11.2482) rotate(127.971) scale(15.9563 15.2874)">
<stop offset="0.16" stop-color="#D7B558"/>
<stop offset="0.28" stop-color="#A08741"/>
<stop offset="0.41" stop-color="#6F5E2D"/>
<stop offset="0.54" stop-color="#473C1D"/>
<stop offset="0.66" stop-color="#282110"/>
<stop offset="0.78" stop-color="#120F07"/>
<stop offset="0.9" stop-color="#040301"/>
<stop offset="1"/>
</radialGradient>
<radialGradient id="paint12_radial_9673_1154" cx="0" cy="0" r="1" gradientUnits="userSpaceOnUse" gradientTransform="translate(340.917 -6.29446) rotate(-52.0729) scale(7.15919 7.02549)">
<stop offset="0.16" stop-color="#D7B558"/>
<stop offset="0.28" stop-color="#A08741"/>
<stop offset="0.41" stop-color="#6F5E2D"/>
<stop offset="0.54" stop-color="#473C1D"/>
<stop offset="0.66" stop-color="#282110"/>
<stop offset="0.78" stop-color="#120F07"/>
<stop offset="0.9" stop-color="#040301"/>
<stop offset="1"/>
</radialGradient>
<radialGradient id="paint13_radial_9673_1154" cx="0" cy="0" r="1" gradientUnits="userSpaceOnUse" gradientTransform="translate(282.09 -2.03398) rotate(-52.0729) scale(8.17106 8.01847)">
<stop offset="0.16" stop-color="#D7B558"/>
<stop offset="0.28" stop-color="#A08741"/>
<stop offset="0.41" stop-color="#6F5E2D"/>
<stop offset="0.54" stop-color="#473C1D"/>
<stop offset="0.66" stop-color="#282110"/>
<stop offset="0.78" stop-color="#120F07"/>
<stop offset="0.9" stop-color="#040301"/>
<stop offset="1"/>
</radialGradient>
<radialGradient id="paint14_radial_9673_1154" cx="0" cy="0" r="1" gradientUnits="userSpaceOnUse" gradientTransform="translate(288.692 21.4241) rotate(127.971) scale(16.3444 15.6592)">
<stop offset="0.16" stop-color="#D7B558"/>
<stop offset="0.28" stop-color="#A08741"/>
<stop offset="0.41" stop-color="#6F5E2D"/>
<stop offset="0.54" stop-color="#473C1D"/>
<stop offset="0.66" stop-color="#282110"/>
<stop offset="0.78" stop-color="#120F07"/>
<stop offset="0.9" stop-color="#040301"/>
<stop offset="1"/>
</radialGradient>
<radialGradient id="paint15_radial_9673_1154" cx="0" cy="0" r="1" gradientUnits="userSpaceOnUse" gradientTransform="translate(288.575 21.5412) rotate(127.971) scale(7.32992 7.02259)">
<stop offset="0.16" stop-color="#D7B558"/>
<stop offset="0.28" stop-color="#A08741"/>
<stop offset="0.41" stop-color="#6F5E2D"/>
<stop offset="0.54" stop-color="#473C1D"/>
<stop offset="0.66" stop-color="#282110"/>
<stop offset="0.78" stop-color="#120F07"/>
<stop offset="0.9" stop-color="#040301"/>
<stop offset="1"/>
</radialGradient>
<radialGradient id="paint16_radial_9673_1154" cx="0" cy="0" r="1" gradientUnits="userSpaceOnUse" gradientTransform="translate(287.874 21.1966) rotate(128.502) scale(7.10585 7.00908)">
<stop offset="0.22" stop-color="white"/>
<stop offset="0.29" stop-color="#EEEEEE"/>
<stop offset="0.45" stop-color="#C2C2C2"/>
<stop offset="0.66" stop-color="#7B7B7B"/>
<stop offset="0.93" stop-color="#1B1B1B"/>
<stop offset="1"/>
</radialGradient>
<radialGradient id="paint17_radial_9673_1154" cx="0" cy="0" r="1" gradientUnits="userSpaceOnUse" gradientTransform="translate(287.874 21.1966) rotate(128.502) scale(7.10585 7.00908)">
<stop offset="0.22" stop-color="white"/>
<stop offset="0.29" stop-color="#EEEEEE"/>
<stop offset="0.45" stop-color="#C2C2C2"/>
<stop offset="0.66" stop-color="#7B7B7B"/>
<stop offset="0.93" stop-color="#1B1B1B"/>
<stop offset="1"/>
</radialGradient>
<radialGradient id="paint18_radial_9673_1154" cx="0" cy="0" r="1" gradientUnits="userSpaceOnUse" gradientTransform="translate(288.039 21.3278) rotate(128.027) scale(7.22381 6.88392)">
<stop offset="0.16" stop-color="#D7B558"/>
<stop offset="0.28" stop-color="#A08741"/>
<stop offset="0.41" stop-color="#6F5E2D"/>
<stop offset="0.54" stop-color="#473C1D"/>
<stop offset="0.66" stop-color="#282110"/>
<stop offset="0.78" stop-color="#120F07"/>
<stop offset="0.9" stop-color="#040301"/>
<stop offset="1"/>
</radialGradient>
<clipPath id="clip0_9673_1154">
<path d="M0 16C0 7.16344 7.16344 0 16 0H344C352.837 0 360 7.16344 360 16V138H0V16Z" fill="white"/>
</clipPath>
</defs>
</svg>
