<svg width="24" height="24" viewBox="0 0 24 24" fill="none" xmlns="http://www.w3.org/2000/svg">
<path d="M23.7832 11.8589C23.7984 18.4286 18.4891 23.7631 11.9244 23.7832C5.35465 23.7984 0.0202003 18.4891 3.22405e-05 11.9244C-0.0150938 5.35465 5.29415 0.0202003 11.8589 3.22405e-05C18.4286 -0.0150938 23.7631 5.29415 23.7832 11.8639V11.8589Z" fill="#EC4963"/>
<path d="M18.6305 8.6924C18.1717 7.46215 17.1078 6.55963 15.9078 6.3882C13.7095 6.0756 12.4742 7.19997 11.8943 8.14282C11.3095 7.19492 10.0792 6.0756 7.8809 6.3882C6.6809 6.55963 5.61704 7.46719 5.15821 8.6924C4.69939 9.92265 4.80527 11.4554 5.2288 12.7008C5.65233 13.9462 6.40863 15.0252 7.29099 15.9378C8.58174 17.2689 10.2053 18.3932 11.8994 18.963C13.5935 18.3983 15.2221 17.2739 16.5078 15.9378C17.3901 15.0252 18.1464 13.9462 18.57 12.7008C18.9935 11.4554 19.0994 9.92265 18.6406 8.6924H18.6305Z" fill="white"/>
</svg>
