<svg width="18" height="18" viewBox="0 0 18 18" fill="none" xmlns="http://www.w3.org/2000/svg">
<g clip-path="url(#clip0_2923_76532)">
<path d="M17.4375 7.59375V10.4062C17.4375 11.1819 16.8069 11.8125 16.0312 11.8125H15.6484C15.1106 14.9996 12.3382 17.4375 9 17.4375C8.68909 17.4375 8.4375 17.1859 8.4375 16.875C8.4375 16.5641 8.68909 16.3125 9 16.3125C12.1014 16.3125 14.625 13.7889 14.625 10.6875V7.3125C14.625 4.21106 12.1014 1.6875 9 1.6875C5.89856 1.6875 3.375 4.21106 3.375 7.3125V11.25C3.375 11.5609 3.12341 11.8125 2.8125 11.8125H1.96875C1.19312 11.8125 0.5625 11.1819 0.5625 10.4062V7.59375C0.5625 6.81812 1.19312 6.1875 1.96875 6.1875H2.35162C2.8894 3.00037 5.6618 0.5625 9 0.5625C12.3382 0.5625 15.1106 3.00037 15.6484 6.1875H16.0312C16.8069 6.1875 17.4375 6.81812 17.4375 7.59375ZM9 2.8125C6.51874 2.8125 4.5 4.83124 4.5 7.3125V10.125C4.5 12.6063 6.51874 14.625 9 14.625C11.4813 14.625 13.5 12.6063 13.5 10.125V7.3125C13.5 4.83124 11.4813 2.8125 9 2.8125Z" fill="black"/>
</g>
<defs>
<clipPath id="clip0_2923_76532">
<rect width="18" height="18" fill="white"/>
</clipPath>
</defs>
</svg>
