<svg width="16" height="16" viewBox="0 0 16 16" fill="none" xmlns="http://www.w3.org/2000/svg">
<g clip-path="url(#clip0_6786_40630)">
<path d="M15.4155 4.03706C15.3201 2.45055 13.9953 1.20762 12.3998 1.20762H11.623V0.603808C11.623 0.270506 11.3525 0 11.0192 0C10.6859 0 10.4154 0.270506 10.4154 0.603808V1.20762H5.5849V0.603808C5.5849 0.270506 5.31439 0 4.98109 0C4.64779 0 4.37728 0.270506 4.37728 0.603808V1.20762H3.60049C2.00462 1.20762 0.679868 2.45055 0.584768 4.03706C0.405739 7.02108 0.40906 10.048 0.594731 13.0335C0.688925 14.5497 1.90348 15.7642 3.41965 15.8584C4.93913 15.9529 6.46948 16 7.99983 16C9.52988 16 11.0605 15.9529 12.58 15.8584C14.0962 15.7642 15.3107 14.5497 15.4049 13.0335C15.5909 10.0495 15.5942 7.02289 15.4155 4.03706ZM14.2 12.9586C14.1433 13.8683 13.4148 14.5968 12.5054 14.6532C9.51599 14.8389 6.48427 14.8389 3.49482 14.6532C2.58518 14.5964 1.85669 13.868 1.80023 12.9586C1.65743 10.6632 1.62815 8.34372 1.70453 6.03808H14.296C14.3721 8.34462 14.3428 10.6642 14.2 12.9586ZM4.98109 3.62285C5.31439 3.62285 5.5849 3.35234 5.5849 3.01904V2.41523H10.4154V3.01904C10.4154 3.35234 10.6859 3.62285 11.0192 3.62285C11.3525 3.62285 11.623 3.35234 11.623 3.01904V2.41523H12.3998C13.3577 2.41523 14.1529 3.15942 14.21 4.10921C14.2242 4.34893 14.2302 4.59015 14.242 4.83046H1.75827C1.77034 4.59015 1.77608 4.34893 1.79027 4.10921C1.84733 3.15942 2.64224 2.41523 3.60049 2.41523H4.37728V3.01904C4.37728 3.35234 4.64779 3.62285 4.98109 3.62285Z" fill="#343A40"/>
<path d="M4.98365 9.65517C5.48386 9.65517 5.88937 9.24967 5.88937 8.74946C5.88937 8.24925 5.48386 7.84375 4.98365 7.84375C4.48344 7.84375 4.07794 8.24925 4.07794 8.74946C4.07794 9.24967 4.48344 9.65517 4.98365 9.65517Z" fill="#343A40"/>
<path d="M7.99928 9.65517C8.49949 9.65517 8.90499 9.24967 8.90499 8.74946C8.90499 8.24925 8.49949 7.84375 7.99928 7.84375C7.49907 7.84375 7.09357 8.24925 7.09357 8.74946C7.09357 9.24967 7.49907 9.65517 7.99928 9.65517Z" fill="#343A40"/>
<path d="M4.98365 12.6786C5.48386 12.6786 5.88937 12.2731 5.88937 11.7729C5.88937 11.2727 5.48386 10.8672 4.98365 10.8672C4.48344 10.8672 4.07794 11.2727 4.07794 11.7729C4.07794 12.2731 4.48344 12.6786 4.98365 12.6786Z" fill="#343A40"/>
<path d="M11.0149 9.65517C11.5151 9.65517 11.9206 9.24967 11.9206 8.74946C11.9206 8.24925 11.5151 7.84375 11.0149 7.84375C10.5147 7.84375 10.1092 8.24925 10.1092 8.74946C10.1092 9.24967 10.5147 9.65517 11.0149 9.65517Z" fill="#343A40"/>
<path d="M11.0149 12.6786C11.5151 12.6786 11.9206 12.2731 11.9206 11.7729C11.9206 11.2727 11.5151 10.8672 11.0149 10.8672C10.5147 10.8672 10.1092 11.2727 10.1092 11.7729C10.1092 12.2731 10.5147 12.6786 11.0149 12.6786Z" fill="#343A40"/>
<path d="M7.99928 12.6786C8.49949 12.6786 8.90499 12.2731 8.90499 11.7729C8.90499 11.2727 8.49949 10.8672 7.99928 10.8672C7.49907 10.8672 7.09357 11.2727 7.09357 11.7729C7.09357 12.2731 7.49907 12.6786 7.99928 12.6786Z" fill="#343A40"/>
</g>
<defs>
<clipPath id="clip0_6786_40630">
<rect width="16" height="16" fill="white"/>
</clipPath>
</defs>
</svg>
