<svg width="16" height="16" viewBox="0 0 16 16" fill="none" xmlns="http://www.w3.org/2000/svg">
<path d="M14.2684 3.0441H10.672V2.19552C10.672 1.83105 10.5152 1.48151 10.2361 1.22379C9.95697 0.966074 9.57839 0.821289 9.18364 0.821289H6.66826C6.27351 0.821289 5.89494 0.966074 5.61581 1.22379C5.33668 1.48151 5.17987 1.83105 5.17987 2.19552V3.04239H1.58354C1.43551 3.04239 1.29354 3.09668 1.18887 3.19332C1.0842 3.28997 1.02539 3.42105 1.02539 3.55772C1.02539 3.6944 1.0842 3.82547 1.18887 3.92212C1.29354 4.01876 1.43551 4.07306 1.58354 4.07306H2.57518L3.11658 13.0708C3.15086 13.6414 3.42073 14.1781 3.87066 14.5705C4.32058 14.9629 4.91631 15.1811 5.53522 15.1803H10.3223C10.9412 15.1811 11.5369 14.9629 11.9868 14.5705C12.4368 14.1781 12.7066 13.6414 12.7409 13.0708L13.2823 4.07306H14.2739C14.422 4.07306 14.5639 4.01876 14.6686 3.92212C14.7733 3.82547 14.8321 3.6944 14.8321 3.55772C14.8321 3.42105 14.7733 3.28997 14.6686 3.19332C14.5639 3.09668 14.422 3.04239 14.2739 3.04239L14.2684 3.0441ZM6.29616 2.19552C6.29616 2.1044 6.33536 2.01702 6.40515 1.95259C6.47493 1.88816 6.56957 1.85196 6.66826 1.85196H9.18364C9.28233 1.85196 9.37698 1.88816 9.44676 1.95259C9.51654 2.01702 9.55574 2.1044 9.55574 2.19552V3.04239H6.29616V2.19552ZM6.95292 11.9525H5.83662V6.28385H6.95292V11.9525ZM10.0153 11.9525H8.89899V6.28385H10.0153V11.9525Z" fill="#202126"/>
</svg>
