<svg width="16" height="16" viewBox="0 0 16 16" fill="none" xmlns="http://www.w3.org/2000/svg">
<g clip-path="url(#clip0_1433_21559)">
<path d="M10.2 15.8667H5.8C3.73333 15.8667 2.06666 14.2667 1.93333 12.2L1.46666 3.8667H0.666665C0.399998 3.8667 0.133331 3.60003 0.133331 3.33336C0.133331 3.0667 0.399998 2.80003 0.666665 2.80003H4.13333V2.6667C4.13333 1.2667 5.26666 0.133362 6.66667 0.133362H9.33333C10.7333 0.133362 11.8667 1.2667 11.8667 2.6667V2.80003H15.3333C15.6 2.80003 15.8667 3.0667 15.8667 3.33336C15.8667 3.60003 15.6 3.8667 15.3333 3.8667H14.5333L14.1333 12.2C14 14.2667 12.2667 15.8667 10.2 15.8667ZM2.53333 3.8667L2.93333 12.1334C3 13.6 4.26666 14.8 5.73333 14.8H10.2C11.6667 14.8 12.9333 13.6 13 12.1334L13.4 3.8667H2.53333ZM5.2 2.80003H10.8V2.6667C10.8 1.8667 10.1333 1.20003 9.33333 1.20003H6.66667C5.86666 1.20003 5.2 1.8667 5.2 2.6667V2.80003Z" fill="#202126"/>
<path d="M9.99999 11.2C9.73333 11.2 9.46666 10.9333 9.46666 10.6667V7.33332C9.46666 7.06665 9.73333 6.79999 9.99999 6.79999C10.2667 6.79999 10.5333 7.06665 10.5333 7.33332V10.6667C10.5333 10.9333 10.2667 11.2 9.99999 11.2ZM5.99999 11.2C5.73333 11.2 5.46666 10.9333 5.46666 10.6667V7.33332C5.46666 7.06665 5.73333 6.79999 5.99999 6.79999C6.26666 6.79999 6.53333 7.06665 6.53333 7.33332V10.6667C6.53333 10.9333 6.26666 11.2 5.99999 11.2Z" fill="#FF2121"/>
</g>
<defs>
<clipPath id="clip0_1433_21559">
<rect width="16" height="16" fill="white"/>
</clipPath>
</defs>
</svg>
