<svg width="10" height="14" viewBox="0 0 10 14" fill="none" xmlns="http://www.w3.org/2000/svg">
<path d="M4.97094 10.9362L4.97146 10.9365L4.97337 10.9376L4.97549 10.9386L4.97667 10.9392L4.97799 10.9398L4.97926 10.9403L4.98042 10.9407L4.98261 10.9415L4.98436 10.9419L4.986 10.9423L4.98788 10.9428L4.99002 10.9431L4.99092 10.9432L4.99852 10.9444C4.99893 10.9444 4.99935 10.9444 4.99976 10.9444L5.00665 10.9433L5.00735 10.9432L5.01039 10.9428L5.01226 10.9423L5.01356 10.942L5.01565 10.9415L5.0174 10.9408L5.01771 10.9407L5.02025 10.9398L5.02161 10.9392L5.02276 10.9386L5.02493 10.9376L5.02734 10.9362L5.02789 10.9358L5.02937 10.935L5.03167 10.9332L5.03192 10.933L5.03812 10.9285C5.03814 10.9285 5.03816 10.9285 5.03818 10.9284M4.97094 10.9362L5.03896 10.9293C5.03909 10.9292 5.03922 10.9292 5.03933 10.9291L5.39199 11.2818L5.03952 10.9277C5.04301 10.9249 5.04553 10.9231 5.04636 10.9225M4.97094 10.9362L4.9689 10.935M4.97094 10.9362L4.9689 10.935M5.03818 10.9284L5.03846 10.9282L5.03843 10.9282L5.03924 10.9274L5.03939 10.9275L5.04273 10.9251L5.04553 10.9231L5.04636 10.9225M5.03818 10.9284C5.03919 10.9274 5.04019 10.9264 5.04115 10.9255L8.92731 7.03933C8.949 7.01764 8.949 6.98245 8.92731 6.96076C8.90562 6.93907 8.87043 6.93906 8.84874 6.96076L5.90822 9.90125L5.05467 10.7548V9.5477V0.888921C5.05467 0.858241 5.0298 0.833374 4.99912 0.833374C4.96844 0.833374 4.94357 0.85824 4.94357 0.888921V9.5477V10.7548L4.09002 9.90125L1.14953 6.96076C1.12784 6.93906 1.09265 6.93906 1.07096 6.96076C1.04926 6.98245 1.04926 7.01764 1.07096 7.03933L4.95709 10.9255C4.95797 10.9263 4.95886 10.9272 4.95978 10.9281C4.95987 10.9282 4.95998 10.9283 4.9601 10.9284L4.9666 10.9332L4.96736 10.9338L4.9689 10.935M5.03818 10.9284L4.9689 10.935M5.04636 10.9225L5.04658 10.9223L5.04636 10.9225ZM5.03167 10.9358L5.03065 10.9362L5.03012 10.9354C5.03097 10.9349 5.03173 10.9345 5.0324 10.9342C5.0325 10.9342 5.03259 10.9341 5.03269 10.9341C5.03345 10.9337 5.03407 10.9334 5.03453 10.9332L5.03065 10.9362C5.03113 10.936 5.03147 10.9359 5.03167 10.9358ZM5.03167 10.9358L5.03173 10.9358L5.03167 10.9358ZM4.9935 10.9454L4.99345 10.9454C4.99347 10.9454 4.99349 10.9454 4.9935 10.9454ZM4.9935 10.9454L4.99359 10.9455L4.9935 10.9454ZM5.03531 10.9328C5.03516 10.9329 5.03491 10.933 5.03456 10.9331L5.03536 10.9328L5.03531 10.9328ZM5.03531 10.9328L5.03455 10.9331M5.03531 10.9328L5.03455 10.9331M5.03455 10.9331L5.03399 10.9325C5.03511 10.9317 5.03612 10.9311 5.03697 10.9306L5.03455 10.9331ZM5.03932 10.9291L5.03895 10.9293L5.03829 10.9287C5.0384 10.9286 5.03851 10.9285 5.03862 10.9284L5.03932 10.9291ZM5.03665 10.93C5.0366 10.93 5.03656 10.9301 5.03651 10.9301L5.03691 10.9305L5.03655 10.9307L5.03387 10.9323L5.03383 10.9323C5.0348 10.9315 5.03575 10.9307 5.03665 10.93ZM5.0323 10.9336C5.03288 10.9332 5.03344 10.9328 5.03396 10.9325L5.03452 10.9332L5.03265 10.934L5.03237 10.9342L5.03194 10.9344L5.03004 10.9352L5.02995 10.9351C5.03067 10.9346 5.03137 10.9342 5.03204 10.9337C5.03213 10.9337 5.03222 10.9336 5.0323 10.9336ZM5.02949 10.9357L5.02997 10.9364L5.02852 10.9369L5.0282 10.9364C5.02865 10.9361 5.02908 10.9359 5.02949 10.9357ZM5.02855 10.937C5.02909 10.9368 5.02957 10.9366 5.02998 10.9364L5.02855 10.937ZM5.00497 10.9441L5.00492 10.9441L5.00497 10.9441ZM4.95829 10.9287C4.95814 10.9286 4.95817 10.9286 4.95835 10.9287L4.95829 10.9287ZM4.96292 10.9328C4.96277 10.9327 4.9628 10.9327 4.96298 10.9328L4.96292 10.9328ZM4.96686 10.9359C4.96673 10.9359 4.96675 10.9359 4.9669 10.9359L4.96686 10.9359ZM4.97044 10.9385C4.97031 10.9385 4.97036 10.9385 4.97058 10.9385L4.97044 10.9385ZM4.97616 10.9412C4.97593 10.9411 4.97597 10.9411 4.97624 10.9412L4.97616 10.9412ZM4.97842 10.9422L4.97836 10.9421L4.97842 10.9422ZM4.98413 10.9442L4.98401 10.9441L4.98413 10.9442ZM4.98885 10.945L4.98877 10.945L4.98885 10.945ZM4.98912 10.946C4.98925 10.946 4.98942 10.946 4.98961 10.946L4.98912 10.946ZM4.99322 10.9453L4.99318 10.9453C4.9932 10.9453 4.99321 10.9453 4.99322 10.9453ZM4.99852 10.9459C4.9984 10.9459 4.99842 10.9459 4.99859 10.9458L4.99852 10.9459ZM4.99975 10.9459L4.99968 10.9458L4.99975 10.9459ZM5.00941 10.945C5.00931 10.9451 5.00933 10.9451 5.00945 10.945L5.00941 10.945ZM5.01984 10.9422C5.01966 10.9423 5.0197 10.9423 5.01993 10.9421L5.01984 10.9422ZM5.0221 10.9412L5.02202 10.9412L5.0221 10.9412ZM5.0279 10.9385L5.02777 10.9385L5.0279 10.9385ZM5.01396 10.9443L5.01386 10.9443L5.01396 10.9443ZM5.03998 10.9287L5.03992 10.9287L5.03998 10.9287ZM4.9348 10.9048C4.93441 10.9045 4.9354 10.9054 4.93706 10.9068L4.93673 10.9065L4.93533 10.9053L4.93496 10.905L4.9348 10.9048ZM5.0629 10.9053C5.0632 10.9051 5.06327 10.905 5.06304 10.9052L5.0629 10.9053Z" stroke="#FFB3B5"/>
<path d="M8.888 12.5555H1.11023C0.803411 12.5555 0.554688 12.8043 0.554688 13.1111C0.554688 13.4179 0.803411 13.6667 1.11023 13.6667H8.88802C9.19484 13.6667 9.44357 13.4179 9.44357 13.1111C9.44357 12.8043 9.19482 12.5555 8.888 12.5555Z" fill="#EEEFF4"/>
</svg>
