<svg width="16" height="16" viewBox="0 0 16 16" fill="none" xmlns="http://www.w3.org/2000/svg">
<g id="trash-can 1">
<g id="Icon">
<path id="Vector" fill-rule="evenodd" clip-rule="evenodd" d="M13.1693 4C13.1693 3.724 12.9453 3.5 12.6693 3.5H3.33594C3.05994 3.5 2.83594 3.724 2.83594 4V13C2.83594 13.5747 3.06394 14.126 3.4706 14.532C3.8766 14.9387 4.42794 15.1667 5.0026 15.1667H11.0026C11.5773 15.1667 12.1286 14.9387 12.5346 14.532C12.9413 14.126 13.1693 13.5747 13.1693 13C13.1693 10 13.1693 4 13.1693 4ZM12.1693 4.5V13C12.1693 13.3093 12.0466 13.606 11.8273 13.8247C11.6086 14.044 11.3119 14.1667 11.0026 14.1667C9.30794 14.1667 6.69727 14.1667 5.0026 14.1667C4.69327 14.1667 4.3966 14.044 4.17794 13.8247C3.9586 13.606 3.83594 13.3093 3.83594 13V4.5H12.1693Z" fill="#EEEFF4"/>
<path id="Vector_2" fill-rule="evenodd" clip-rule="evenodd" d="M11 4.49992C11.276 4.49992 11.5 4.27592 11.5 3.99992C11.5 3.99992 11.5 3.33325 11.5 2.66659C11.5 2.18059 11.3067 1.71392 10.9633 1.36992C10.6193 1.02659 10.1527 0.833252 9.66667 0.833252C8.67467 0.833252 7.32533 0.833252 6.33333 0.833252C5.84733 0.833252 5.38067 1.02659 5.03667 1.36992C4.69333 1.71392 4.5 2.18059 4.5 2.66659V3.99992C4.5 4.27592 4.724 4.49992 5 4.49992H11ZM10.5 3.49992H5.5V2.66659C5.5 2.44525 5.588 2.23392 5.744 2.07725C5.90067 1.92125 6.112 1.83325 6.33333 1.83325H9.66667C9.888 1.83325 10.0993 1.92125 10.256 2.07725C10.412 2.23392 10.5 2.44525 10.5 2.66659V3.49992Z" fill="#EEEFF4"/>
<path id="Vector_3" fill-rule="evenodd" clip-rule="evenodd" d="M13.3346 3.5H2.66797C2.39197 3.5 2.16797 3.724 2.16797 4C2.16797 4.276 2.39197 4.5 2.66797 4.5H13.3346C13.6106 4.5 13.8346 4.276 13.8346 4C13.8346 3.724 13.6106 3.5 13.3346 3.5Z" fill="#EEEFF4"/>
<path id="Vector_4" fill-rule="evenodd" clip-rule="evenodd" d="M5.83594 7V11.6667C5.83594 11.9427 6.05994 12.1667 6.33594 12.1667C6.61194 12.1667 6.83594 11.9427 6.83594 11.6667V7C6.83594 6.724 6.61194 6.5 6.33594 6.5C6.05994 6.5 5.83594 6.724 5.83594 7Z" fill="#EEEFF4"/>
<path id="Vector_5" fill-rule="evenodd" clip-rule="evenodd" d="M9.16797 7V11.6667C9.16797 11.9427 9.39197 12.1667 9.66797 12.1667C9.94397 12.1667 10.168 11.9427 10.168 11.6667V7C10.168 6.724 9.94397 6.5 9.66797 6.5C9.39197 6.5 9.16797 6.724 9.16797 7Z" fill="#EEEFF4"/>
</g>
</g>
</svg>
