<svg width="10" height="14" viewBox="0 0 10 14" fill="none" xmlns="http://www.w3.org/2000/svg">
<path d="M4.97182 10.9362L4.97235 10.9365L4.97425 10.9376L4.97638 10.9386L4.97756 10.9392L4.97888 10.9398L4.98015 10.9403L4.98131 10.9407L4.98349 10.9415L4.98524 10.9419L4.98689 10.9423L4.98877 10.9428L4.9909 10.9431L4.99181 10.9432L4.9994 10.9444C4.99982 10.9444 5.00023 10.9444 5.00065 10.9444L5.00753 10.9433L5.00823 10.9432L5.01127 10.9428L5.01315 10.9423L5.01444 10.942L5.01653 10.9415L5.01828 10.9408L5.0186 10.9407L5.02114 10.9398L5.02249 10.9392L5.02365 10.9386L5.02581 10.9376L5.02823 10.9362L5.02877 10.9358L5.03025 10.935L5.03256 10.9332L5.0328 10.933L5.039 10.9285C5.03902 10.9285 5.03904 10.9285 5.03906 10.9284M4.97182 10.9362L5.03984 10.9293C5.03998 10.9292 5.0401 10.9292 5.04021 10.9291L5.39287 11.2818L5.04041 10.9277C5.0439 10.9249 5.04641 10.9231 5.04725 10.9225M4.97182 10.9362L4.96979 10.935M4.97182 10.9362L4.96979 10.935M5.03906 10.9284L5.03934 10.9282L5.03932 10.9282L5.04013 10.9274L5.04027 10.9275L5.04361 10.9251L5.04642 10.9231L5.04725 10.9225M5.03906 10.9284C5.04008 10.9274 5.04107 10.9264 5.04204 10.9255L8.9282 7.03933C8.94989 7.01764 8.94989 6.98245 8.9282 6.96076C8.90651 6.93907 8.87132 6.93906 8.84963 6.96076L5.9091 9.90125L5.05555 10.7548V9.5477V0.888921C5.05555 0.858241 5.03069 0.833374 5.00001 0.833374C4.96933 0.833374 4.94446 0.85824 4.94446 0.888921V9.5477V10.7548L4.09091 9.90125L1.15041 6.96076C1.12872 6.93906 1.09353 6.93906 1.07184 6.96076C1.05015 6.98245 1.05015 7.01764 1.07184 7.03933L4.95797 10.9255C4.95885 10.9263 4.95975 10.9272 4.96067 10.9281C4.96076 10.9282 4.96086 10.9283 4.96099 10.9284L4.96748 10.9332L4.96824 10.9338L4.96979 10.935M5.03906 10.9284L4.96979 10.935M5.04725 10.9225L5.04746 10.9223L5.04725 10.9225ZM5.03256 10.9358L5.03153 10.9362L5.031 10.9354C5.03185 10.9349 5.03262 10.9345 5.03329 10.9342C5.03339 10.9342 5.03348 10.9341 5.03357 10.9341C5.03433 10.9337 5.03495 10.9334 5.03541 10.9332L5.03154 10.9362C5.03201 10.936 5.03236 10.9359 5.03256 10.9358ZM5.03256 10.9358L5.03262 10.9358L5.03256 10.9358ZM4.99439 10.9454L4.99433 10.9454C4.99435 10.9454 4.99437 10.9454 4.99439 10.9454ZM4.99439 10.9454L4.99447 10.9455L4.99439 10.9454ZM5.03619 10.9328C5.03605 10.9329 5.03579 10.933 5.03544 10.9331L5.03624 10.9328L5.03619 10.9328ZM5.03619 10.9328L5.03543 10.9331M5.03619 10.9328L5.03543 10.9331M5.03543 10.9331L5.03487 10.9325C5.036 10.9317 5.037 10.9311 5.03785 10.9306L5.03543 10.9331ZM5.04021 10.9291L5.03983 10.9293L5.03917 10.9287C5.03928 10.9286 5.0394 10.9285 5.03951 10.9284L5.04021 10.9291ZM5.03753 10.93C5.03749 10.93 5.03744 10.9301 5.03739 10.9301L5.0378 10.9305L5.03743 10.9307L5.03475 10.9323L5.03471 10.9323C5.03569 10.9315 5.03663 10.9307 5.03753 10.93ZM5.03319 10.9336C5.03377 10.9332 5.03432 10.9328 5.03485 10.9325L5.03541 10.9332L5.03354 10.934L5.03325 10.9342L5.03282 10.9344L5.03092 10.9352L5.03083 10.9351C5.03156 10.9346 5.03226 10.9342 5.03293 10.9337C5.03301 10.9337 5.0331 10.9336 5.03319 10.9336ZM5.03038 10.9357L5.03085 10.9364L5.02941 10.9369L5.02908 10.9364C5.02953 10.9361 5.02996 10.9359 5.03038 10.9357ZM5.02944 10.937C5.02997 10.9368 5.03045 10.9366 5.03087 10.9364L5.02944 10.937ZM5.00585 10.9441L5.00581 10.9441L5.00585 10.9441ZM4.95918 10.9287C4.95903 10.9286 4.95905 10.9286 4.95924 10.9287L4.95918 10.9287ZM4.9638 10.9328C4.96366 10.9327 4.96369 10.9327 4.96387 10.9328L4.9638 10.9328ZM4.96774 10.9359C4.96762 10.9359 4.96764 10.9359 4.96778 10.9359L4.96774 10.9359ZM4.97133 10.9385C4.97119 10.9385 4.97125 10.9385 4.97146 10.9385L4.97133 10.9385ZM4.97705 10.9412C4.97682 10.9411 4.97686 10.9411 4.97713 10.9412L4.97705 10.9412ZM4.9793 10.9422L4.97925 10.9421L4.9793 10.9422ZM4.98502 10.9442L4.9849 10.9441L4.98502 10.9442ZM4.98974 10.945L4.98966 10.945L4.98974 10.945ZM4.99001 10.946C4.99014 10.946 4.9903 10.946 4.9905 10.946L4.99001 10.946ZM4.99411 10.9453L4.99407 10.9453C4.99408 10.9453 4.99409 10.9453 4.99411 10.9453ZM4.99941 10.9459C4.99928 10.9459 4.99931 10.9459 4.99947 10.9458L4.99941 10.9459ZM5.00063 10.9459L5.00056 10.9458L5.00063 10.9459ZM5.0103 10.945C5.01019 10.9451 5.01021 10.9451 5.01034 10.945L5.0103 10.945ZM5.02073 10.9422C5.02054 10.9423 5.02058 10.9423 5.02081 10.9421L5.02073 10.9422ZM5.02299 10.9412L5.0229 10.9412L5.02299 10.9412ZM5.02879 10.9385L5.02866 10.9385L5.02879 10.9385ZM5.01485 10.9443L5.01475 10.9443L5.01485 10.9443ZM5.04086 10.9287L5.0408 10.9287L5.04086 10.9287ZM4.93569 10.9048C4.93529 10.9045 4.93628 10.9054 4.93794 10.9068L4.93761 10.9065L4.93622 10.9053L4.93584 10.905L4.93569 10.9048ZM5.06379 10.9053C5.06408 10.9051 5.06415 10.905 5.06392 10.9052L5.06379 10.9053Z" stroke="#FC3A52"/>
<path d="M8.88888 12.5555H1.11112C0.804296 12.5555 0.555573 12.8043 0.555573 13.1111C0.555573 13.4179 0.804296 13.6667 1.11112 13.6667H8.88891C9.19573 13.6667 9.44445 13.4179 9.44445 13.1111C9.44445 12.8043 9.1957 12.5555 8.88888 12.5555Z" fill="#202126"/>
</svg>
