<svg width="20" height="20" viewBox="0 0 20 20" fill="none" xmlns="http://www.w3.org/2000/svg">
<path d="M4.72656 1.8125H5.40094C5.40344 1.8125 5.40594 1.81375 5.40844 1.81375C5.70094 1.81375 5.95406 2.02187 6.01031 2.30875L6.09781 2.75375C6.25781 3.56688 6.97469 4.1575 7.80344 4.1575H9.66156C10.4909 4.1575 11.2084 3.5675 11.3672 2.75437L11.4553 2.30875C11.5116 2.02187 11.7647 1.81375 12.0572 1.81375C12.0597 1.81375 12.0622 1.8125 12.0647 1.8125H12.7391C13.5147 1.8125 14.1453 2.44313 14.1453 3.21875V10.9438C14.1453 11.2544 14.3972 11.5062 14.7078 11.5062C15.0184 11.5062 15.2703 11.2544 15.2703 10.9438V3.21875C15.2703 1.82313 14.1347 0.6875 12.7391 0.6875H4.72656C3.33094 0.6875 2.19531 1.82313 2.19531 3.21875V16.7812C2.19531 18.1769 3.33094 19.3125 4.72656 19.3125H6.89531C7.20594 19.3125 7.45781 19.0606 7.45781 18.75C7.45781 18.4394 7.20594 18.1875 6.89531 18.1875H4.72656C3.95094 18.1875 3.32031 17.5569 3.32031 16.7812V3.21875C3.32031 2.44313 3.95094 1.8125 4.72656 1.8125ZM10.3509 2.0925L10.2628 2.53813C10.2066 2.825 9.95344 3.03313 9.66094 3.03313H7.80281C7.51031 3.03313 7.25719 2.825 7.20094 2.53813L7.11344 2.09313C7.09406 1.99625 7.06656 1.90313 7.03219 1.81313H10.4316C10.3978 1.9025 10.3697 1.99563 10.3509 2.0925Z" fill="#343A40"/>
<path d="M17.5069 13.6481C16.9406 13.1369 16.1213 12.8438 15.2594 12.8438C14.5081 12.8438 13.8075 13.0575 13.2656 13.4419C12.7238 13.0575 12.0238 12.8438 11.2719 12.8438C10.41 12.8438 9.59062 13.1369 9.02375 13.6488C8.83 13.8238 8.71875 14.08 8.71875 14.3519V17.965C8.71875 18.3012 8.88937 18.6044 9.17562 18.7769C9.46937 18.9544 9.82813 18.9619 10.1363 18.8C10.98 18.3531 12.2769 18.5144 12.8556 19.1319C12.9619 19.245 13.1106 19.3094 13.2663 19.3094C13.4219 19.3094 13.57 19.245 13.6762 19.1319C14.2544 18.515 15.5519 18.3531 16.3962 18.8006C16.7037 18.9625 17.0625 18.955 17.3563 18.7769C17.6425 18.6044 17.8131 18.3006 17.8131 17.965V14.3519C17.8119 14.0788 17.7006 13.8225 17.5069 13.6481ZM9.84312 17.6931V14.4269C10.2044 14.1344 10.7188 13.9688 11.2713 13.9688C11.8319 13.9688 12.345 14.1481 12.7025 14.4425V17.7C12.2706 17.5138 11.785 17.4075 11.2713 17.4075C10.7681 17.4069 10.2794 17.5056 9.84312 17.6931ZM16.6869 17.6931C15.8019 17.3125 14.6975 17.3388 13.8275 17.7038V14.4419C14.1856 14.1475 14.6988 13.9681 15.2594 13.9681C15.8119 13.9681 16.3263 14.1344 16.6875 14.4262V17.6931H16.6869Z" fill="#343A40"/>
</svg>
