<svg width="20" height="20" viewBox="0 0 20 20" fill="none" xmlns="http://www.w3.org/2000/svg">
<path d="M14.2307 14.2308V15.3847M14.2307 4.23083V2.50006M14.2307 2.50006V1.60262C14.2307 1.14238 13.8577 0.769287 13.3974 0.769287H3.91024C3.45 0.769287 3.0769 1.14238 3.0769 1.60262V2.50006M14.2307 2.50006H3.0769M3.0769 2.50006V15.3847M3.0769 15.3847V17.6283C3.0769 18.0885 3.45 18.4616 3.91024 18.4616H13.3974C13.8577 18.4616 14.2307 18.0885 14.2307 17.6283V15.3847M3.0769 15.3847H14.2307M7.69229 16.9231H8.65383H9.61537" stroke="#202126" stroke-width="0.666667" stroke-linecap="round" stroke-linejoin="round"/>
<path d="M6.92311 6.53861H5.71798C5.53388 6.53861 5.38464 6.68785 5.38464 6.87195V13.513C5.38464 13.6971 5.53388 13.8463 5.71798 13.8463H16.9744C17.1585 13.8463 17.3077 13.6971 17.3077 13.513V6.87195C17.3077 6.68785 17.1585 6.53861 16.9744 6.53861H15.3846M6.92311 6.53861V5.75309C6.92311 5.55589 7.09345 5.40124 7.28921 5.4251C8.47226 5.56931 9.76048 5.87819 11.1539 6.92323M6.92311 6.53861V11.9745C6.92311 12.1586 7.07232 12.3071 7.25602 12.3191C8.72879 12.4151 10.4393 13.1044 11.1539 13.4617M11.1539 6.92323C12.5035 5.91099 14.1492 5.49076 15.0521 5.40286C15.2353 5.38502 15.3846 5.534 15.3846 5.7181V6.53861M11.1539 6.92323V13.4617M15.3846 6.53861V11.9745C15.3846 12.1586 15.236 12.3082 15.0524 12.3227C14.2523 12.3862 12.741 12.6681 11.1539 13.4617" stroke="#FC3A52" stroke-width="0.666667"/>
</svg>
