<svg width="24" height="24" viewBox="0 0 24 24" fill="none" xmlns="http://www.w3.org/2000/svg">
<path d="M17.077 17.0769V18.4615M17.077 5.07693V3M17.077 3V1.92308C17.077 1.3708 16.6293 0.92308 16.077 0.92308H4.69238C4.1401 0.92308 3.69238 1.3708 3.69238 1.92308V3M17.077 3H3.69238M3.69238 3V18.4615M3.69238 18.4615V21.1539C3.69238 21.7061 4.1401 22.1539 4.69238 22.1539H16.077C16.6293 22.1539 17.077 21.7061 17.077 21.1539V18.4615M3.69238 18.4615H17.077M9.23084 20.3077H10.3847H11.5385" stroke="white" stroke-width="0.8" stroke-linecap="round" stroke-linejoin="round"/>
<path d="M8.30807 7.84616H6.86191C6.641 7.84616 6.46191 8.02524 6.46191 8.24616V16.2154C6.46191 16.4363 6.641 16.6154 6.86191 16.6154H20.3696C20.5905 16.6154 20.7696 16.4363 20.7696 16.2154V8.24616C20.7696 8.02524 20.5905 7.84616 20.3696 7.84616H18.4619M8.30807 7.84616V6.90353C8.30807 6.66689 8.51248 6.48131 8.74739 6.50994C10.1671 6.68299 11.7129 7.05364 13.385 8.30769M8.30807 7.84616V14.3692C8.30807 14.5901 8.48712 14.7683 8.70757 14.7827C10.4749 14.898 12.5274 15.7251 13.385 16.1538M13.385 8.30769C15.0046 7.09301 16.9793 6.58873 18.0629 6.48325C18.2828 6.46184 18.4619 6.64063 18.4619 6.86154V7.84616M13.385 8.30769V16.1538M18.4619 7.84616V14.3692C18.4619 14.5901 18.2835 14.7696 18.0633 14.7871C17.1031 14.8633 15.2895 15.2016 13.385 16.1538" stroke="#FFB3B5" stroke-width="0.8"/>
</svg>
