<svg xmlns="http://www.w3.org/2000/svg" width="24" height="24" viewBox="0 0 24 24" fill="none">
<path d="M3.21469 3.85588L9.57861 12.6647V19.0359C9.57861 19.313 9.71068 19.5899 9.94829 19.7284L13.1962 21.8615C13.3283 21.9445 13.4604 22 13.6188 22C13.7508 22 13.8829 21.9724 14.0148 21.8893C14.2789 21.7507 14.4108 21.4738 14.4108 21.1691L14.411 12.665L20.7749 3.8561L20.8278 3.80065C21.039 3.44048 21.0654 2.99742 20.8541 2.60961C20.6692 2.24944 20.2732 2.00019 19.8771 2.00019L4.11256 2C3.71654 2 3.32032 2.22163 3.13557 2.60942C2.95064 2.96959 2.95064 3.44049 3.16191 3.80045C3.18825 3.80045 3.18835 3.82825 3.21469 3.85588ZM18.9 3.66207L12.985 11.8615C12.8795 12.0001 12.8266 12.1939 12.8266 12.36V19.6453L11.163 18.565V12.3877C11.163 12.1937 11.1101 12.0276 11.0046 11.8892L5.06314 3.66207H18.9Z" fill="white"/>
</svg>