<svg width="16" height="16" viewBox="0 0 16 16" fill="none" xmlns="http://www.w3.org/2000/svg">
<path d="M8.01651 12.2264C7.7897 12.2264 7.60414 12.0408 7.60414 11.814V7.52533L6.32991 8.8078C6.25156 8.88615 6.14847 8.92739 6.03713 8.92739C5.92579 8.92739 5.82269 8.88615 5.74434 8.8078C5.66599 8.72945 5.62476 8.62636 5.62476 8.51502C5.62476 8.40368 5.66599 8.30058 5.74434 8.22223L7.72373 6.24285C7.80208 6.1645 7.90517 6.11914 8.01651 6.11914C8.12785 6.11914 8.23094 6.16038 8.30517 6.23873L10.2887 8.22223C10.367 8.30058 10.4124 8.40368 10.4124 8.51502C10.4124 8.62636 10.3711 8.72945 10.2928 8.80368L10.2887 8.8078C10.2103 8.88615 10.1072 8.92739 9.99589 8.92739C9.88455 8.92739 9.78146 8.88615 9.70723 8.8078L8.42888 7.52533V11.814C8.433 12.0408 8.24744 12.2264 8.01651 12.2264Z" fill="#1570EF"/>
<path d="M3.73196 16C2.77526 16 2 15.2247 2 14.268V1.73196C2 0.775258 2.77526 0 3.73196 0H10.1443C10.701 0.00412371 11.2289 0.276289 11.5505 0.734021L13.7237 3.78969C13.934 4.0866 14.0412 4.43299 14.0412 4.79175V14.268C14.0412 15.2247 13.266 16 12.3093 16H3.73196ZM3.73196 0.824742C3.23299 0.824742 2.82474 1.23299 2.82474 1.73196V14.268C2.82474 14.767 3.23299 15.1753 3.73196 15.1753H12.3093C12.8082 15.1753 13.2165 14.767 13.2165 14.268V4.7835H11.6495C10.6928 4.7835 9.91753 4.00825 9.91753 3.05155V0.824742H3.73196ZM10.7423 3.05155C10.7423 3.55052 11.1505 3.95876 11.6495 3.95876H12.833L10.7423 1.00619V3.05155Z" fill="#1570EF"/>
</svg>
