<svg width="20" height="20" viewBox="0 0 20 20" fill="none" xmlns="http://www.w3.org/2000/svg">
<path d="M17.8334 14.8497H2.16671C1.43337 14.8497 0.833374 14.2497 0.833374 13.5163V2.16634C0.833374 1.43301 1.43337 0.833008 2.16671 0.833008H17.8334C18.5667 0.833008 19.1667 1.43301 19.1667 2.16634V13.5163C19.1667 14.2497 18.5667 14.8497 17.8334 14.8497ZM2.16671 1.66634C1.89171 1.66634 1.66671 1.89134 1.66671 2.16634V13.5163C1.66671 13.7913 1.89171 14.0163 2.16671 14.0163H17.8334C18.1084 14.0163 18.3334 13.7913 18.3334 13.5163V2.16634C18.3334 1.89134 18.1084 1.66634 17.8334 1.66634H2.16671Z" fill="#202126"/>
<path d="M19.1667 17.6748H0.833374V18.5081H19.1667V17.6748Z" fill="#202126"/>
<path d="M8.63334 10.7917C8.51667 10.7917 8.40001 10.7583 8.29167 10.7C8.09167 10.575 7.96667 10.3667 7.96667 10.125V5.63335C7.96667 5.38335 8.10834 5.15835 8.32501 5.04168C8.55001 4.92501 8.81667 4.95001 9.01667 5.09168L12.6083 7.65835C12.8 7.79168 12.9 8.01668 12.8833 8.24168C12.8667 8.47501 12.7333 8.67501 12.5333 8.78335L8.94167 10.7083C8.84167 10.7583 8.73334 10.7917 8.62501 10.7917H8.63334ZM8.80001 5.95835V9.84168L11.9083 8.17501L8.80001 5.95001V5.95835Z" fill="#FC3A52"/>
<path d="M14.8501 19.5829C15.6739 19.5829 16.3417 18.9151 16.3417 18.0913C16.3417 17.2675 15.6739 16.5996 14.8501 16.5996C14.0262 16.5996 13.3584 17.2675 13.3584 18.0913C13.3584 18.9151 14.0262 19.5829 14.8501 19.5829Z" fill="#FC3A52"/>
<path d="M14.8501 19.9993C13.8001 19.9993 12.9418 19.1409 12.9418 18.0909C12.9418 17.0409 13.8001 16.1826 14.8501 16.1826C15.9001 16.1826 16.7584 17.0409 16.7584 18.0909C16.7584 19.1409 15.9001 19.9993 14.8501 19.9993ZM14.8501 17.0076C14.2584 17.0076 13.7751 17.491 13.7751 18.0826C13.7751 18.6743 14.2584 19.1576 14.8501 19.1576C15.4418 19.1576 15.9251 18.6743 15.9251 18.0826C15.9251 17.491 15.4418 17.0076 14.8501 17.0076Z" fill="white"/>
</svg>
