<svg width="20" height="20" viewBox="0 0 20 20" fill="none" xmlns="http://www.w3.org/2000/svg">
<path d="M17.9665 14.7659H2.03353C1.75947 14.7658 1.49669 14.6568 1.3029 14.463C1.10911 14.2692 1.00016 14.0065 1 13.7324V2.03353C1.00016 1.75947 1.10911 1.49669 1.3029 1.3029C1.49669 1.10911 1.75947 1.00016 2.03353 1H17.9665C18.2405 1.00016 18.5033 1.10911 18.6971 1.3029C18.8909 1.49669 18.9998 1.75947 19 2.03353V13.7324C18.9998 14.0065 18.8909 14.2692 18.6971 14.463C18.5033 14.6568 18.2405 14.7658 17.9665 14.7659ZM2.03457 2.03353L2.03353 13.7324H17.9665V2.03353H2.03457ZM2.03353 1.51677L2.0325 2.03353H2.03353V1.51677Z" fill="#343A40"/>
<path d="M8.72526 10.8448C8.50605 10.8435 8.2962 10.7557 8.14137 10.6005C7.98653 10.4453 7.89922 10.2353 7.89844 10.0161V5.84257C7.89828 5.69053 7.94009 5.54139 8.01926 5.41158C8.09843 5.28178 8.21188 5.17634 8.34713 5.10688C8.48237 5.03742 8.63417 5.00663 8.78579 5.0179C8.93742 5.02917 9.08299 5.08207 9.20648 5.17077L12.5448 7.55482C12.6593 7.6365 12.751 7.74603 12.8114 7.87306C12.8717 8.00008 12.8987 8.14039 12.8897 8.28073C12.8807 8.42108 12.836 8.5568 12.76 8.67509C12.6839 8.79337 12.5789 8.8903 12.455 8.9567L9.11666 10.7452C8.99653 10.8105 8.86199 10.8447 8.72526 10.8448ZM8.93197 6.2443V9.67087L11.6732 8.20233L8.93197 6.2443Z" fill="#343A40"/>
<path d="M19 17.4297H1V18.4632H19V17.4297Z" fill="#343A40"/>
<path d="M14.763 19.5182C14.4514 19.5182 14.1468 19.4258 13.8877 19.2527C13.6286 19.0796 13.4267 18.8335 13.3074 18.5456C13.1882 18.2577 13.157 17.941 13.2178 17.6353C13.2786 17.3297 13.4286 17.049 13.649 16.8286C13.8693 16.6083 14.15 16.4583 14.4556 16.3975C14.7613 16.3367 15.0781 16.3679 15.3659 16.4871C15.6538 16.6064 15.8999 16.8083 16.073 17.0674C16.2461 17.3265 16.3385 17.6311 16.3385 17.9427C16.3382 18.3604 16.172 18.761 15.8767 19.0563C15.5813 19.3517 15.1808 19.5178 14.763 19.5182ZM14.763 16.884C14.5536 16.884 14.3489 16.946 14.1748 17.0624C14.0007 17.1787 13.865 17.3441 13.7849 17.5375C13.7047 17.731 13.6838 17.9439 13.7246 18.1493C13.7655 18.3546 13.8663 18.5433 14.0144 18.6914C14.1624 18.8394 14.3511 18.9403 14.5565 18.9811C14.7618 19.022 14.9747 19.001 15.1682 18.9209C15.3616 18.8407 15.527 18.705 15.6433 18.5309C15.7597 18.3568 15.8218 18.1521 15.8218 17.9427C15.8213 17.6621 15.7096 17.393 15.5112 17.1946C15.3127 16.9961 15.0437 16.8844 14.763 16.884Z" fill="white"/>
<path d="M14.7625 19.2595C15.49 19.2595 16.0798 18.6697 16.0798 17.9422C16.0798 17.2147 15.49 16.625 14.7625 16.625C14.0351 16.625 13.4453 17.2147 13.4453 17.9422C13.4453 18.6697 14.0351 19.2595 14.7625 19.2595Z" fill="#343A40"/>
</svg>
