<svg width="14" height="14" viewBox="0 0 14 14" fill="none" xmlns="http://www.w3.org/2000/svg">
    <path
        d="M7.39325 9.73191H7.99937L7.88413 9.13684L6.97279 4.43115H12.1614C12.5774 4.43115 12.9168 4.77056 12.9169 5.1866C12.9169 5.1866 12.9169 5.18661 12.9169 5.18661V12.1613C12.9169 12.5773 12.5774 12.9167 12.1614 12.9167H6.09048L5.4535 9.73191H7.39325Z"
        stroke="white" />
    <path fill-rule="evenodd" clip-rule="evenodd"
        d="M12.4193 6.38571V7.1382H11.6944V11.018H10.721V9.38875C10.6313 9.41636 10.5277 9.43708 10.4103 9.43708C10.2861 9.43708 10.1756 9.40946 10.0721 9.36804V9.40946C10.0721 10.1896 9.48527 10.7626 8.54639 10.7626C7.64203 10.7626 7.17259 10.2724 7 10.017L7.66964 9.40256C7.81462 9.65799 8.11147 9.95484 8.5602 9.95484C8.92609 9.95484 9.14009 9.73393 9.14009 9.43017C9.14009 9.13332 8.92609 8.95383 8.48426 8.95383H8.11147V8.14611H8.35309C8.77421 8.14611 8.9468 7.9252 8.9468 7.61454C8.9468 7.3453 8.7604 7.15891 8.46355 7.15891C8.18741 7.15891 8.00101 7.29008 7.86984 7.50409L7.26233 6.93109C7.48325 6.61353 7.91817 6.3512 8.49116 6.3512C9.29888 6.3512 9.83735 6.81373 9.83735 7.51789C9.83735 7.91139 9.65786 8.24967 9.33339 8.40845V8.43606C9.40933 8.44987 9.49217 8.47748 9.56811 8.51891H9.57502C9.58882 8.53271 9.60263 8.53962 9.61644 8.54652C9.80283 8.64317 9.99613 8.68459 10.1687 8.68459C10.4103 8.68459 10.5898 8.63627 10.721 8.56723V7.1382H10.1825V6.38571H12.4193Z"
        fill="white" />
    <path
        d="M8.2902 9.49759C8.22744 9.33717 8.07258 9.23145 7.90045 9.23145H5.35408C5.22852 9.23145 5.10996 9.28752 5.03018 9.38462C4.95067 9.48143 4.91914 9.60921 4.9437 9.73196L5.61328 13.0798C5.65402 13.2832 5.82672 13.4085 6.00862 13.4163C6.02063 13.4165 6.03261 13.4165 6.04461 13.4163C6.13751 13.4121 6.23043 13.3766 6.3077 13.3055L8.1845 9.95765C8.31113 9.84074 8.35297 9.65801 8.2902 9.49759Z"
        fill="white" />
    <path
        d="M7.90105 10.069H1.83943C1.14714 10.069 0.583984 9.50581 0.583984 8.81351V1.83882C0.583984 1.14655 1.14716 0.583374 1.83943 0.583374H6.22711C6.42763 0.583374 6.59981 0.725597 6.63796 0.922288L8.31188 9.5709C8.33559 9.69352 8.30343 9.82046 8.2239 9.91666C8.14434 10.0131 8.0261 10.069 7.90105 10.069Z"
        fill="white" />
    <path fill-rule="evenodd" clip-rule="evenodd"
        d="M5.21444 6.86839H3.41654L3.07474 7.8938H1.98438L3.83696 2.91711H4.78718L6.65002 7.8938H5.55966L5.21444 6.86839ZM3.69393 6.03755H4.9381L4.3126 4.17471L3.69393 6.03755Z"
        fill="#202126" />
</svg>
