<svg width="14" height="14" viewBox="0 0 14 14" fill="none" xmlns="http://www.w3.org/2000/svg">
    <path
        d="M7.39325 9.73191H7.99937L7.88413 9.13684L6.97279 4.43115H12.1614C12.5774 4.43115 12.9168 4.77056 12.9169 5.1866C12.9169 5.1866 12.9169 5.18661 12.9169 5.18661V12.1613C12.9169 12.5773 12.5774 12.9167 12.1614 12.9167H6.09048L5.4535 9.73191H7.39325Z"
        stroke="#52565E" />
    <path fill-rule="evenodd" clip-rule="evenodd"
        d="M12.4198 6.38571V7.1382H11.6949V11.018H10.7215V9.38875C10.6317 9.41636 10.5282 9.43708 10.4108 9.43708C10.2866 9.43708 10.1761 9.40946 10.0726 9.36804V9.40946C10.0726 10.1896 9.48576 10.7626 8.54688 10.7626C7.64252 10.7626 7.17308 10.2724 7.00049 10.017L7.67013 9.40256C7.81511 9.65799 8.11196 9.95484 8.56069 9.95484C8.92657 9.95484 9.14058 9.73393 9.14058 9.43017C9.14058 9.13332 8.92657 8.95383 8.48475 8.95383H8.11196V8.14611H8.35358C8.7747 8.14611 8.94728 7.9252 8.94728 7.61454C8.94728 7.3453 8.76089 7.15891 8.46404 7.15891C8.1879 7.15891 8.0015 7.29008 7.87033 7.50409L7.26282 6.93109C7.48374 6.61353 7.91866 6.3512 8.49165 6.3512C9.29936 6.3512 9.83784 6.81373 9.83784 7.51789C9.83784 7.91139 9.65835 8.24967 9.33388 8.40845V8.43606C9.40982 8.44987 9.49266 8.47748 9.5686 8.51891H9.57551C9.58931 8.53271 9.60312 8.53962 9.61693 8.54652C9.80332 8.64317 9.99662 8.68459 10.1692 8.68459C10.4108 8.68459 10.5903 8.63627 10.7215 8.56723V7.1382H10.183V6.38571H12.4198Z"
        fill="#52565E" />
    <path
        d="M8.2902 9.49759C8.22744 9.33717 8.07258 9.23145 7.90045 9.23145H5.35408C5.22852 9.23145 5.10996 9.28752 5.03018 9.38462C4.95067 9.48143 4.91914 9.60921 4.9437 9.73196L5.61328 13.0798C5.65401 13.2832 5.82672 13.4085 6.00862 13.4163C6.02063 13.4165 6.03261 13.4165 6.04461 13.4163C6.13751 13.4121 6.23043 13.3766 6.3077 13.3055L8.1845 9.95765C8.31113 9.84074 8.35297 9.65801 8.2902 9.49759Z"
        fill="#52565E" />
    <path
        d="M7.90056 10.069H1.83894C1.14665 10.069 0.583496 9.50581 0.583496 8.81351V1.83882C0.583496 1.14655 1.14667 0.583374 1.83894 0.583374H6.22662C6.42715 0.583374 6.59932 0.725597 6.63747 0.922288L8.31139 9.5709C8.3351 9.69352 8.30294 9.82046 8.22341 9.91666C8.14385 10.0131 8.02562 10.069 7.90056 10.069Z"
        fill="#52565E" />
    <path fill-rule="evenodd" clip-rule="evenodd"
        d="M5.21395 6.86839H3.41605L3.07425 7.8938H1.98389L3.83647 2.91711H4.78669L6.64954 7.8938H5.55917L5.21395 6.86839ZM3.69344 6.03755H4.93761L4.31211 4.17471L3.69344 6.03755Z"
        fill="white" />
</svg>
