<svg xmlns="http://www.w3.org/2000/svg" width="16" height="18" viewBox="0 0 16 18" fill="none">
    <path d="M14.6663 8.33268C14.6663 11.23 10.5381 14.9341 8.77878 16.3812C8.32222 16.7567 7.67712 16.7567 7.22057 16.3812C5.46123 14.9341 1.33301 11.23 1.33301 8.33268C1.33301 4.65078 4.31778 1.66602 7.99967 1.66602C11.6816 1.66602 14.6663 4.65078 14.6663 8.33268Z" stroke="#999CA1" stroke-width="1.5"/>
    <path d="M9.99967 8.33268C9.99967 9.43725 9.10424 10.3327 7.99967 10.3327C6.89511 10.3327 5.99967 9.43725 5.99967 8.33268C5.99967 7.22811 6.89511 6.33268 7.99967 6.33268C9.10424 6.33268 9.99967 7.22811 9.99967 8.33268Z" stroke="#999CA1" stroke-width="1.5"/>
</svg>