<svg width="14" height="14" viewBox="0 0 14 14" fill="none" xmlns="http://www.w3.org/2000/svg">
<g id="lightbulb 1" clip-path="url(#clip0_8327_13498)">
<g id="Group">
<g id="Group_2">
<g id="Group_3">
<path id="Vector" d="M7.01297 3.01758C5.03147 3.01758 3.4126 4.63645 3.4126 6.61795C3.4126 7.65403 3.86588 8.65125 4.62999 9.3247C5.19983 9.89454 5.14803 11.1119 5.13508 11.1249C5.13508 11.1896 5.14803 11.2414 5.19983 11.2932C5.23868 11.3321 5.30344 11.358 5.35524 11.358H8.65774C8.7225 11.358 8.7743 11.3321 8.81315 11.2932C8.85201 11.2544 8.87791 11.1896 8.87791 11.1249C8.87791 11.1119 8.81315 9.89454 9.383 9.3247C9.39595 9.31175 9.4089 9.2988 9.42185 9.28585C10.173 8.59945 10.6133 7.62812 10.6133 6.61795C10.6133 4.63645 8.99447 3.01758 7.01297 3.01758ZM9.08512 8.98798C9.07217 9.00093 9.04627 9.02683 9.04627 9.03978C8.54118 9.58372 8.45053 10.4773 8.43757 10.9047H5.57541C5.56246 10.4773 5.4718 9.54487 4.92786 8.98798C4.24146 8.39223 3.83998 7.52452 3.83998 6.605C3.83998 4.85662 5.25164 3.44496 7.00002 3.44496C8.7484 3.44496 10.1601 4.85662 10.1601 6.605C10.1601 7.52452 9.77152 8.39223 9.08512 8.98798Z" fill="#1570EF"/>
<path id="Vector_2" d="M6.99946 3.93652C6.8829 3.93652 6.7793 4.04013 6.7793 4.15669C6.7793 4.27325 6.8829 4.37686 6.99946 4.37686C8.30751 4.37686 9.35654 5.43884 9.35654 6.73393C9.35654 6.85049 9.46015 6.9541 9.57671 6.9541C9.69327 6.9541 9.79687 6.85049 9.79687 6.73393C9.80982 5.19277 8.55358 3.93652 6.99946 3.93652Z" fill="#1570EF"/>
<path id="Vector_3" d="M8.43517 11.6035H5.56005C5.26218 11.6035 5.01611 11.8496 5.01611 12.1475C5.01611 12.4453 5.26218 12.6914 5.56005 12.6914H8.42222C8.73304 12.6784 8.97911 12.4453 8.97911 12.1475C8.97911 11.8496 8.73304 11.6035 8.43517 11.6035ZM8.43517 12.2381H5.56005C5.50825 12.2381 5.45645 12.1993 5.45645 12.1345C5.45645 12.0698 5.4953 12.0309 5.56005 12.0309H8.42222C8.47402 12.0309 8.52583 12.0698 8.52583 12.1345C8.52583 12.1993 8.48697 12.2381 8.43517 12.2381Z" fill="#1570EF"/>
<path id="Vector_4" d="M8.00912 12.9121H5.98877C5.69089 12.9121 5.44482 13.1582 5.44482 13.4561C5.44482 13.7539 5.69089 14 5.98877 14H8.00912C8.30699 14 8.55306 13.7539 8.55306 13.4561C8.55306 13.1452 8.30699 12.9121 8.00912 12.9121ZM8.00912 13.5467H5.98877C5.93696 13.5467 5.88516 13.5079 5.88516 13.4431C5.88516 13.3783 5.92401 13.3395 5.98877 13.3395H8.00912C8.06092 13.3395 8.11272 13.3783 8.11272 13.4431C8.11272 13.5079 8.06092 13.5467 8.00912 13.5467Z" fill="#1570EF"/>
<path id="Vector_5" d="M6.99946 1.94265C7.12897 1.94265 7.21963 1.83904 7.21963 1.72248V0.220167C7.21963 0.103608 7.11602 0 6.99946 0C6.8829 0 6.7793 0.103608 6.7793 0.220167V1.72248C6.7793 1.83904 6.8829 1.94265 6.99946 1.94265Z" fill="#1570EF"/>
<path id="Vector_6" d="M10.6636 1.11393C10.56 1.03622 10.4305 1.07508 10.3657 1.16573L9.53688 2.40903C9.45917 2.51263 9.48508 2.65509 9.58868 2.71985C9.62754 2.74575 9.66639 2.7587 9.70524 2.7587C9.78295 2.7587 9.8477 2.71985 9.88656 2.65509L10.7154 1.4118C10.7931 1.32114 10.7672 1.17868 10.6636 1.11393Z" fill="#1570EF"/>
<path id="Vector_7" d="M4.36993 2.70793C4.40878 2.70793 4.44764 2.69498 4.48649 2.66908C4.5901 2.60432 4.616 2.46186 4.55125 2.35826L3.74828 1.10201C3.68353 0.998404 3.54107 0.972502 3.43746 1.03726C3.33385 1.10201 3.30795 1.24447 3.37271 1.34808L4.17567 2.60432C4.22747 2.68203 4.29223 2.70793 4.36993 2.70793Z" fill="#1570EF"/>
<path id="Vector_8" d="M2.80264 4.07988L1.49459 3.36757C1.39099 3.31577 1.24853 3.35462 1.19672 3.45823C1.13197 3.56184 1.17082 3.7043 1.28738 3.7561L2.59543 4.46841C2.63428 4.48136 2.66018 4.49431 2.69903 4.49431C2.77674 4.49431 2.85445 4.45545 2.8933 4.37775C2.9451 4.27414 2.90625 4.13168 2.80264 4.07988Z" fill="#1570EF"/>
<path id="Vector_9" d="M12.8149 3.45823C12.7631 3.35462 12.6206 3.31577 12.517 3.36757L11.196 4.07988C11.0924 4.13168 11.0536 4.27414 11.1054 4.37775C11.1442 4.45545 11.2219 4.49431 11.2996 4.49431C11.3385 4.49431 11.3773 4.48136 11.4032 4.46841L12.7242 3.7561C12.8278 3.7043 12.8667 3.56184 12.8149 3.45823Z" fill="#1570EF"/>
</g>
</g>
</g>
</g>
<defs>
<clipPath id="clip0_8327_13498">
<rect width="14" height="14" fill="white"/>
</clipPath>
</defs>
</svg>
