<svg width="36" height="36" viewBox="0 0 36 36" fill="none" xmlns="http://www.w3.org/2000/svg">
<rect width="36" height="36" rx="18" fill="#EEEFF4"/>
<path d="M22.2307 22.2308V23.3847M22.2307 12.2308V10.5001M22.2307 10.5001V9.76929C22.2307 9.217 21.783 8.76929 21.2307 8.76929H12.0769C11.5246 8.76929 11.0769 9.217 11.0769 9.76929V10.5001M22.2307 10.5001H11.0769M11.0769 10.5001V23.3847M11.0769 23.3847V25.4616C11.0769 26.0139 11.5246 26.4616 12.0769 26.4616H21.2307C21.783 26.4616 22.2307 26.0139 22.2307 25.4616V23.3847M11.0769 23.3847H22.2307M15.6923 24.9231H16.6538H17.6154" stroke="#999CA1" stroke-linecap="round" stroke-linejoin="round"/>
<path d="M14.9231 14.5386H13.7846C13.5637 14.5386 13.3846 14.7177 13.3846 14.9386V21.4463C13.3846 21.6672 13.5637 21.8463 13.7846 21.8463H24.9077C25.1286 21.8463 25.3077 21.6672 25.3077 21.4463V14.9386C25.3077 14.7177 25.1286 14.5386 24.9077 14.5386H23.3846M14.9231 14.5386V13.8268C14.9231 13.5901 15.1275 13.4043 15.3622 13.4342C16.5252 13.5823 17.7891 13.8996 19.1539 14.9232M14.9231 14.5386V19.9078C14.9231 20.1288 15.1023 20.3069 15.3225 20.3238C16.7799 20.4357 18.45 21.1097 19.1539 21.4617M19.1539 14.9232C20.4713 13.9351 22.0709 13.5111 22.9863 13.4097C23.2059 13.3854 23.3846 13.5639 23.3846 13.7848V14.5386M19.1539 14.9232V21.4617M23.3846 14.5386V19.9078C23.3846 20.1288 23.2058 20.3086 22.9858 20.3284C22.1703 20.4019 20.698 20.6897 19.1539 21.4617" stroke="#999CA1" stroke-width="0.8"/>
</svg>
