<svg width="16" height="16" viewBox="0 0 16 16" fill="none" xmlns="http://www.w3.org/2000/svg">
<g clip-path="url(#clip0_8465_22738)">
<path d="M15.3332 5.33333C14.9652 5.33333 14.6665 5.03533 14.6665 4.66667V2C14.6665 1.632 14.3672 1.33333 13.9998 1.33333H11.3332C10.9652 1.33333 10.6665 1.03533 10.6665 0.666667C10.6665 0.298 10.9652 0 11.3332 0H13.9998C15.1025 0 15.9998 0.897333 15.9998 2V4.66667C15.9998 5.03533 15.7012 5.33333 15.3332 5.33333Z" fill="white"/>
<path d="M13.9998 16.0003H11.3332C10.9652 16.0003 10.6665 15.7023 10.6665 15.3337C10.6665 14.965 10.9652 14.667 11.3332 14.667H13.9998C14.3672 14.667 14.6665 14.3683 14.6665 14.0003V11.3337C14.6665 10.965 14.9652 10.667 15.3332 10.667C15.7012 10.667 15.9998 10.965 15.9998 11.3337V14.0003C15.9998 15.103 15.1025 16.0003 13.9998 16.0003Z" fill="white"/>
<path d="M4.66667 16.0003H2C0.897333 16.0003 0 15.103 0 14.0003V11.3337C0 10.965 0.298667 10.667 0.666667 10.667C1.03467 10.667 1.33333 10.965 1.33333 11.3337V14.0003C1.33333 14.3683 1.63267 14.667 2 14.667H4.66667C5.03467 14.667 5.33333 14.965 5.33333 15.3337C5.33333 15.7023 5.03467 16.0003 4.66667 16.0003Z" fill="white"/>
<path d="M0.666667 5.33333C0.298667 5.33333 0 5.03533 0 4.66667V2C0 0.897333 0.897333 0 2 0H4.66667C5.03467 0 5.33333 0.298 5.33333 0.666667C5.33333 1.03533 5.03467 1.33333 4.66667 1.33333H2C1.63267 1.33333 1.33333 1.632 1.33333 2V4.66667C1.33333 5.03533 1.03467 5.33333 0.666667 5.33333Z" fill="white"/>
<path d="M12.0002 7.33301C11.6322 7.33301 11.3335 7.03501 11.3335 6.66634V4.66634H4.66683V6.66634C4.66683 7.03501 4.36816 7.33301 4.00016 7.33301C3.63216 7.33301 3.3335 7.03501 3.3335 6.66634V4.66634C3.3335 3.93101 3.9315 3.33301 4.66683 3.33301H11.3335C12.0688 3.33301 12.6668 3.93101 12.6668 4.66634V6.66634C12.6668 7.03501 12.3682 7.33301 12.0002 7.33301Z" fill="white"/>
<path d="M14 9.33366C14 9.70233 13.7013 10.0003 13.3333 10.0003H12.6667V11.3337C12.6667 12.069 12.0687 12.667 11.3333 12.667H4.66667C3.93133 12.667 3.33333 12.069 3.33333 11.3337V10.0003H2.66667C2.29867 10.0003 2 9.70233 2 9.33366C2 8.96499 2.29867 8.66699 2.66667 8.66699H13.3333C13.7013 8.66699 14 8.96499 14 9.33366Z" fill="white"/>
</g>
<defs>
<clipPath id="clip0_8465_22738">
<rect width="16" height="16" fill="white"/>
</clipPath>
</defs>
</svg>
