<svg width="18" height="18" viewBox="0 0 18 18" fill="none" xmlns="http://www.w3.org/2000/svg">
<path d="M16 7.83779V4.54365C16 3.92834 15.5129 3.23049 14.908 2.99787L10.532 1.28702C9.54994 0.904327 8.4422 0.904327 7.46016 1.28702L3.08417 2.99787C2.48709 3.23049 2 3.92834 2 4.54365V7.83779C2 11.5071 4.789 14.9438 8.59933 15.9494C8.85859 16.0169 9.14141 16.0169 9.40067 15.9494C13.211 14.9438 16 11.5071 16 7.83779ZM9.58923 9.15095V11.1244C9.58923 11.4321 9.32211 11.6872 9 11.6872C8.67789 11.6872 8.41077 11.4321 8.41077 11.1244V9.15095C7.61728 8.91083 7.03591 8.20548 7.03591 7.37256C7.03591 6.33704 7.91582 5.49662 9 5.49662C10.0842 5.49662 10.9641 6.33704 10.9641 7.37256C10.9641 8.21298 10.3827 8.91083 9.58923 9.15095Z" fill="#343A40"/>
</svg>
