<svg width="20" height="20" viewBox="0 0 20 20" fill="none" xmlns="http://www.w3.org/2000/svg">
<path d="M7.50008 1.66699C5.31675 1.66699 3.54175 3.44199 3.54175 5.62533C3.54175 7.76699 5.21675 9.50033 7.40008 9.57533C7.46675 9.56699 7.53341 9.56699 7.58342 9.57533C7.60008 9.57533 7.60841 9.57533 7.62508 9.57533C7.63341 9.57533 7.63341 9.57533 7.64175 9.57533C9.77508 9.50033 11.4501 7.76699 11.4584 5.62533C11.4584 3.44199 9.68341 1.66699 7.50008 1.66699Z" fill="#252E23"/>
<path d="M11.734 11.7904C9.40903 10.2404 5.61737 10.2404 3.2757 11.7904C2.21737 12.4988 1.63403 13.4571 1.63403 14.4821C1.63403 15.5071 2.21737 16.4571 3.26737 17.1571C4.43403 17.9404 5.96737 18.3321 7.5007 18.3321C9.03403 18.3321 10.5674 17.9404 11.734 17.1571C12.784 16.4488 13.3674 15.4988 13.3674 14.4654C13.359 13.4404 12.784 12.4904 11.734 11.7904Z" fill="#F9C63E"/>
<path d="M16.6578 6.11512C16.7911 7.73179 15.6411 9.14846 14.0495 9.34012C14.0411 9.34012 14.0411 9.34012 14.0328 9.34012H14.0078C13.9578 9.34012 13.9078 9.34012 13.8661 9.35679C13.0578 9.39846 12.3161 9.14012 11.7578 8.66512C12.6161 7.89846 13.1078 6.74846 13.0078 5.49846C12.9495 4.82346 12.7161 4.20679 12.3661 3.68179C12.6828 3.52346 13.0495 3.42346 13.4245 3.39012C15.0578 3.24846 16.5161 4.46512 16.6578 6.11512Z" fill="#252E23"/>
<path d="M18.3251 13.8257C18.2584 14.634 17.7418 15.334 16.8751 15.809C16.0418 16.2673 14.9918 16.484 13.9501 16.459C14.5501 15.9173 14.9001 15.2423 14.9668 14.5257C15.0501 13.4923 14.5584 12.5007 13.5751 11.709C13.0168 11.2673 12.3668 10.9173 11.6584 10.659C13.5001 10.1257 15.8168 10.484 17.2418 11.634C18.0084 12.2507 18.4001 13.0257 18.3251 13.8257Z" fill="#F9C63E"/>
</svg>
