<svg width="16" height="16" viewBox="0 0 16 16" fill="none" xmlns="http://www.w3.org/2000/svg">
<path d="M3.33464 14.6667C2.93464 14.6667 2.66797 14.4 2.66797 14V8.66667C2.66797 8.26667 2.93464 8 3.33464 8C3.73464 8 4.0013 8.26667 4.0013 8.66667V14C4.0013 14.4 3.73464 14.6667 3.33464 14.6667Z" fill="white"/>
<path d="M7.9987 14.6663C7.5987 14.6663 7.33203 14.3997 7.33203 13.9997V1.99967C7.33203 1.59967 7.5987 1.33301 7.9987 1.33301C8.3987 1.33301 8.66536 1.59967 8.66536 1.99967V13.9997C8.66536 14.3997 8.3987 14.6663 7.9987 14.6663Z" fill="#FFB3B5"/>
<path d="M12.6667 14.667C12.2667 14.667 12 14.4003 12 14.0003V6.33366C12 5.93366 12.2667 5.66699 12.6667 5.66699C13.0667 5.66699 13.3333 5.93366 13.3333 6.33366V14.0003C13.3333 14.4003 13.0667 14.667 12.6667 14.667Z" fill="white"/>
</svg>
