<svg width="66" height="66" viewBox="0 0 66 66" fill="none" xmlns="http://www.w3.org/2000/svg">
<g filter="url(#filter0_d_16124_16955)">
<rect x="11" y="4" width="44" height="44" rx="22" fill="#1570EF"/>
<g clip-path="url(#clip0_16124_16955)">
<path d="M41.8281 21.8594H38.2734V34.8281H37.1016V26.5469H33.5859V34.8281H32.4141V24.2031H28.8984V34.8281H27.7266V28.8906H24.1719V34.8281H23V36H43V34.8281H41.8281V21.8594Z" fill="white"/>
<path d="M25.9688 26.5469C26.938 26.5469 27.7266 25.7583 27.7266 24.7891C27.7266 24.4494 27.6254 24.1349 27.458 23.8659L30.0839 20.5837C30.2643 20.6463 30.4548 20.6875 30.6562 20.6875C31.0161 20.6875 31.3504 20.5781 31.6293 20.3918L33.6737 21.9247C33.6218 22.0902 33.5859 22.2628 33.5859 22.4453C33.5859 23.4146 34.3745 24.2031 35.3438 24.2031C36.313 24.2031 37.1016 23.4146 37.1016 22.4453C37.1016 22.1748 37.035 21.9215 36.9253 21.6923L39.2782 19.3394C39.5074 19.4491 39.7607 19.5156 40.0312 19.5156C41.0005 19.5156 41.7891 18.7271 41.7891 17.7578C41.7891 16.7886 41.0005 16 40.0312 16C39.062 16 38.2734 16.7886 38.2734 17.7578C38.2734 18.0284 38.34 18.2816 38.4497 18.5108L36.0968 20.8637C35.8676 20.754 35.6143 20.6875 35.3438 20.6875C34.9839 20.6875 34.6496 20.7969 34.3707 20.9832L32.3263 19.4503C32.3782 19.2848 32.4141 19.1122 32.4141 18.9297C32.4141 17.9604 31.6255 17.1719 30.6562 17.1719C29.687 17.1719 28.8984 17.9604 28.8984 18.9297C28.8984 19.2693 28.9996 19.5838 29.167 19.8528L26.5411 23.135C26.3607 23.0724 26.1702 23.0312 25.9688 23.0312C24.9995 23.0312 24.2109 23.8198 24.2109 24.7891C24.2109 25.7583 24.9995 26.5469 25.9688 26.5469Z" fill="white"/>
</g>
</g>
<defs>
<filter id="filter0_d_16124_16955" x="0.285714" y="0.428572" width="65.4286" height="65.4286" filterUnits="userSpaceOnUse" color-interpolation-filters="sRGB">
<feFlood flood-opacity="0" result="BackgroundImageFix"/>
<feColorMatrix in="SourceAlpha" type="matrix" values="0 0 0 0 0 0 0 0 0 0 0 0 0 0 0 0 0 0 127 0" result="hardAlpha"/>
<feOffset dy="7.14286"/>
<feGaussianBlur stdDeviation="5.35714"/>
<feColorMatrix type="matrix" values="0 0 0 0 0 0 0 0 0 0 0 0 0 0 0 0 0 0 0.03 0"/>
<feBlend mode="normal" in2="BackgroundImageFix" result="effect1_dropShadow_16124_16955"/>
<feBlend mode="normal" in="SourceGraphic" in2="effect1_dropShadow_16124_16955" result="shape"/>
</filter>
<clipPath id="clip0_16124_16955">
<rect width="20" height="20" fill="white" transform="translate(23 16)"/>
</clipPath>
</defs>
</svg>
