<svg width="20" height="20" viewBox="0 0 20 20" fill="none" xmlns="http://www.w3.org/2000/svg">
<path d="M10.4164 16.6693V7.6026C10.4164 6.08794 10.5115 4.41683 8.9604 3.6266C8.38974 3.33594 7.64307 3.33594 6.14974 3.33594H3.83863C2.73996 3.33594 2.4164 3.72438 2.4164 4.75816V12.5804C2.4164 13.0853 2.3844 13.6426 2.90174 13.9057C3.09196 14.0026 3.33996 14.0026 3.83685 14.0026H6.35418C8.46707 14.0026 9.25196 14.9235 10.4155 16.6693C11.58 14.9235 12.3648 14.0026 14.4777 14.0026H16.996C17.4928 14.0026 17.7417 14.0026 17.9311 13.9057C18.4475 13.6426 18.4164 13.0844 18.4164 12.5804V4.75816C18.4164 3.72349 18.092 3.33594 16.9942 3.33594H14.6831C13.1897 3.33594 12.4422 3.33594 11.8715 3.6266C10.3195 4.41683 10.4155 6.08794 10.4155 7.6026" stroke="white" stroke-width="1.16667" stroke-linecap="round" stroke-linejoin="round"/>
</svg>
