<svg width="16" height="16" viewBox="0 0 16 16" fill="none" xmlns="http://www.w3.org/2000/svg">
<g clip-path="url(#clip0_28_5740)">
<path d="M8 0C3.57841 0 0 3.578 0 8C0 12.4215 3.578 16 8 16C12.4216 16 16 12.422 16 8C16 3.57841 12.422 0 8 0ZM8 14.8837C4.20431 14.8837 1.11628 11.7957 1.11628 8C1.11628 4.20428 4.20431 1.11628 8 1.11628C11.7957 1.11628 14.8837 4.20428 14.8837 8C14.8837 11.7957 11.7957 14.8837 8 14.8837Z" fill="#AF7900"/>
<path d="M7.76125 10.125C7.31897 10.125 6.96094 10.4936 6.96094 10.9358C6.96094 11.3676 7.30844 11.7467 7.76125 11.7467C8.21406 11.7467 8.57206 11.3676 8.57206 10.9358C8.57206 10.4936 8.2035 10.125 7.76125 10.125Z" fill="#AF7900"/>
<path d="M7.90262 3.98438C6.481 3.98438 5.82812 4.82684 5.82812 5.39547C5.82812 5.80616 6.17563 5.99572 6.45994 5.99572C7.02859 5.99572 6.79694 5.18484 7.87103 5.18484C8.39753 5.18484 8.81878 5.41653 8.81878 5.90094C8.81878 6.46956 8.22906 6.796 7.88156 7.09084C7.57616 7.35406 7.17603 7.78584 7.17603 8.69147C7.17603 9.23903 7.32347 9.397 7.75519 9.397C8.27116 9.397 8.37647 9.16534 8.37647 8.96522C8.37647 8.41766 8.387 8.10175 8.96619 7.64894C9.2505 7.42781 10.1456 6.71172 10.1456 5.72187C10.1456 4.73203 9.2505 3.98438 7.90262 3.98438Z" fill="#AF7900"/>
</g>
<defs>
<clipPath id="clip0_28_5740">
<rect width="16" height="16" fill="white"/>
</clipPath>
</defs>
</svg>
