<svg width="9" height="11" viewBox="0 0 9 11" fill="none" xmlns="http://www.w3.org/2000/svg">
<path d="M5.29443 0.547852C5.81729 -0.123385 6.72973 -0.184669 7.46533 0.400391L8.31006 1.07129C8.65651 1.34221 8.8882 1.69961 8.96729 2.0752C9.05848 2.48845 8.96059 2.89505 8.68701 3.24609L3.65283 9.75586C3.42187 10.0511 3.08178 10.2174 2.71729 10.2236L0.710449 10.248C0.601142 10.2479 0.510137 10.1739 0.48584 10.0693L0.0297852 8.09277C-0.0492495 7.72941 0.030206 7.35391 0.26123 7.06445L3.82959 2.44531C3.89036 2.37144 3.9998 2.35934 4.07275 2.41406L5.57471 3.60938C5.67185 3.68919 5.8053 3.73218 5.94482 3.71387C6.24272 3.67691 6.44397 3.40567 6.41357 3.11621C6.3953 2.96849 6.32231 2.84527 6.2251 2.75293C6.19493 2.72848 4.78751 1.60016 4.76611 1.58301C4.67492 1.5091 4.65605 1.37302 4.729 1.28125L5.29443 0.547852Z" fill="white"/>
</svg>
