<svg width="20" height="20" viewBox="0 0 20 20" fill="none" xmlns="http://www.w3.org/2000/svg">
<g id="Thumbs-30" clip-path="url(#clip0_8037_8705)">
<path id="Vector" d="M18.1177 5.68215H18.3234C19.2006 5.68215 19.9117 6.39324 19.9117 7.27049C19.9117 8.14774 19.2006 8.85882 18.3234 8.85882H17.9362C18.8134 8.85882 19.5245 9.5699 19.5245 10.4472C19.5245 11.3244 18.754 12.0355 17.8768 12.0355H14.7549C13.808 12.4617 13.5013 13.2107 13.4655 14.0317C13.4381 14.6617 13.5698 15.3339 13.6935 15.9352C13.8548 16.7195 13.9389 17.5395 13.6864 18.3048C13.4339 19.0702 12.7848 19.774 11.9071 19.9596C11.6323 20.0177 11.3318 20.0217 11.078 19.9118C10.668 19.7345 10.474 19.3015 10.4637 18.8984C10.4534 18.4954 10.5879 18.1019 10.6605 17.7039C10.7643 17.1346 10.739 16.5397 10.5183 15.9969C10.0905 14.9447 9.01179 14.2274 8.01154 13.5423C7.45004 13.1577 6.91396 12.7343 6.40954 12.2802C6.20512 12.0962 6.13862 11.9509 6.03604 11.6868C6.00396 11.6042 5.90412 11.2035 5.78054 11.2035H1.32471V1.36165H3.45587C4.32096 1.36165 5.51812 1.61724 6.16012 0.921904C6.30546 0.764488 6.42529 0.579571 6.60012 0.455654C7.15787 0.0604045 8.21029 0.256488 8.84796 0.257738C11.4615 0.262821 14.0751 0.263488 16.6888 0.263488H17.6084C18.2275 0.263488 18.7295 0.765404 18.7295 1.38457C18.7295 2.00374 18.2275 2.50574 17.6084 2.50574H18.1178C18.995 2.50574 19.7061 3.21682 19.7061 4.09407C19.7061 4.97132 18.995 5.68215 18.1177 5.68215Z" fill="#FF9497"/>
<path id="Vector_2" d="M2.40496 0H1.89846C0.898781 0 0.0883789 0.810402 0.0883789 1.81008V10.5531C0.0883789 11.5528 0.898781 12.3632 1.89846 12.3632H2.40496C3.40464 12.3632 4.21505 11.5528 4.21505 10.5531V1.81008C4.21505 0.810402 3.40464 0 2.40496 0Z" fill="#FC3A52"/>
</g>
<defs>
<clipPath id="clip0_8037_8705">
<rect width="20" height="20" fill="white"/>
</clipPath>
</defs>
</svg>
