<svg width="48" height="48" viewBox="0 0 48 48" fill="none" xmlns="http://www.w3.org/2000/svg">
<path d="M21.5391 27.92V22.5801L20.0391 24.2501" stroke="white" stroke-width="1.5" stroke-linecap="round" stroke-linejoin="round"/>
<path d="M22.0195 16.47L23.9995 14" stroke="white" stroke-width="1.5" stroke-linecap="round" stroke-linejoin="round"/>
<path d="M16.9094 19.8C15.7994 21.28 15.1094 23.11 15.1094 25.11C15.1094 30.02 19.0894 34 23.9994 34C28.9094 34 32.8894 30.02 32.8894 25.11C32.8894 20.2 28.9094 16.22 23.9994 16.22C23.3194 16.22 22.6594 16.31 22.0194 16.46" stroke="white" stroke-width="1.5" stroke-linecap="round" stroke-linejoin="round"/>
<path d="M26 22.5801C27.1 22.5801 28 23.4801 28 24.5801V25.9301C28 27.0301 27.1 27.9301 26 27.9301C24.9 27.9301 24 27.0301 24 25.9301V24.5801C24 23.4701 24.9 22.5801 26 22.5801Z" stroke="white" stroke-width="1.5" stroke-linecap="round" stroke-linejoin="round"/>
</svg>
