<svg width="24" height="24" viewBox="0 0 24 24" fill="none" xmlns="http://www.w3.org/2000/svg">
<path d="M10.6301 10.37C10.4901 10.37 10.3501 10.33 10.2201 10.25C9.98008 10.1 9.83008 9.85 9.83008 9.56V4.85C9.83008 4.55 10.0001 4.28 10.2601 4.14C10.5301 4 10.8401 4.02 11.0901 4.2L14.9201 6.89C15.1501 7.05 15.2701 7.32 15.2601 7.6C15.2401 7.88 15.0801 8.12 14.8401 8.26L11.0101 10.28C10.8901 10.34 10.7601 10.37 10.6401 10.37H10.6301ZM10.8301 5.24V9.24L14.0801 7.53L10.8301 5.25V5.24Z" fill="#FFB3B5"/>
<path d="M4.01008 18.58C3.09008 18.58 2.33008 17.84 2.33008 16.92C2.33008 16 3.08008 15.26 4.01008 15.26C4.94008 15.26 5.69008 16 5.69008 16.92C5.69008 17.84 4.94008 18.58 4.01008 18.58ZM4.01008 16.26C3.64008 16.26 3.33008 16.55 3.33008 16.92C3.33008 17.29 3.63008 17.58 4.01008 17.58C4.39008 17.58 4.69008 17.29 4.69008 16.92C4.69008 16.55 4.39008 16.26 4.01008 16.26Z" fill="#FFB3B5"/>
<path d="M21 1H3C2.45 1 2 1.45 2 2V12.3C2 12.85 2.45 13.3 3 13.3H21C21.55 13.3 22 12.85 22 12.3V2C22 1.45 21.55 1 21 1ZM21 12.3H3V2H21V12.3Z" fill="white"/>
<path d="M21.17 16.49H7C6.72 16.49 6.5 16.71 6.5 16.99C6.5 17.27 6.72 17.49 7 17.49H21.17C21.45 17.49 21.67 17.27 21.67 16.99C21.67 16.71 21.45 16.49 21.17 16.49Z" fill="white"/>
<path d="M21.17 21.42H7C6.72 21.42 6.5 21.64 6.5 21.92C6.5 22.2 6.72 22.42 7 22.42H21.17C21.45 22.42 21.67 22.2 21.67 21.92C21.67 21.64 21.45 21.42 21.17 21.42Z" fill="white"/>
<path d="M4.01008 23.5C3.09008 23.5 2.33008 22.76 2.33008 21.84C2.33008 20.92 3.08008 20.18 4.01008 20.18C4.94008 20.18 5.69008 20.92 5.69008 21.84C5.69008 22.76 4.94008 23.5 4.01008 23.5ZM4.01008 21.18C3.64008 21.18 3.33008 21.47 3.33008 21.84C3.33008 22.21 3.63008 22.5 4.01008 22.5C4.39008 22.5 4.69008 22.21 4.69008 21.84C4.69008 21.47 4.39008 21.18 4.01008 21.18Z" fill="#FFB3B5"/>
</svg>
