<svg width="16" height="16" viewBox="0 0 16 16" fill="none" xmlns="http://www.w3.org/2000/svg">
<path d="M14.8726 3.42484C14.6896 3.33577 14.4849 3.30071 14.2827 3.32377C14.0805 3.34683 13.8891 3.42707 13.7308 3.55506L11.8869 5.02991V4.71407C11.9291 4.34956 11.8884 3.98022 11.7678 3.63367C11.6471 3.28712 11.4497 2.97233 11.1902 2.71286C10.9307 2.45339 10.616 2.25594 10.2694 2.1353C9.92286 2.01466 9.55352 1.97394 9.18901 2.01619H2.71407C2.34956 1.97394 1.98022 2.01466 1.63367 2.1353C1.28712 2.25594 0.972333 2.45339 0.71286 2.71286C0.453387 2.97233 0.255944 3.28712 0.135301 3.63367C0.0146578 3.98022 -0.0260628 4.34956 0.0161854 4.71407V10.4696C-0.0260628 10.8341 0.0146578 11.2034 0.135301 11.55C0.255944 11.8965 0.453387 12.2113 0.71286 12.4708C0.972333 12.7303 1.28712 12.9277 1.63367 13.0483C1.98022 13.169 2.34956 13.2097 2.71407 13.1675H9.18901C9.55352 13.2097 9.92286 13.169 10.2694 13.0483C10.616 12.9277 10.9307 12.7303 11.1902 12.4708C11.4497 12.2113 11.6471 11.8965 11.7678 11.55C11.8884 11.2034 11.9291 10.8341 11.8869 10.4696V10.1537L13.7308 11.6286C13.921 11.7822 14.1582 11.866 14.4028 11.866C14.5654 11.8658 14.7259 11.8291 14.8726 11.7588C15.0563 11.6713 15.2114 11.5333 15.3197 11.3609C15.428 11.1886 15.485 10.989 15.4841 10.7854V4.39824C15.485 4.19469 15.428 3.99507 15.3197 3.82271C15.2114 3.65035 15.0563 3.51235 14.8726 3.42484ZM10.8077 10.4696C10.8077 11.6041 10.3236 12.0883 9.18901 12.0883H2.71407C1.57952 12.0883 1.09534 11.6041 1.09534 10.4696V4.71407C1.09534 3.57952 1.57952 3.09534 2.71407 3.09534H9.18901C10.3236 3.09534 10.8077 3.57952 10.8077 4.71407V10.4696ZM14.4049 10.7861L11.8869 8.7717V6.41194L14.4049 4.39752V10.7861Z" fill="#AF7900"/>
</svg>
