<svg width="48" height="55" viewBox="0 0 48 55" fill="none" xmlns="http://www.w3.org/2000/svg">
<path d="M43.4757 39.2602C43.4859 39.6975 43.3524 40.1261 43.0957 40.4802C42.8424 40.8413 42.4767 41.1085 42.0557 41.2402L38.6357 42.3802C37.5823 42.7301 36.624 43.3187 35.8357 44.1002C35.0484 44.8839 34.4588 45.8436 34.1157 46.9002L32.9157 50.3002C32.7907 50.7084 32.5384 51.0658 32.1957 51.3202C31.83 51.5686 31.3979 51.701 30.9557 51.7002C30.512 51.7192 30.0746 51.5899 29.7125 51.3328C29.3504 51.0757 29.0841 50.7054 28.9557 50.2802L27.8157 46.8602C27.4727 45.8036 26.8831 44.8439 26.0957 44.0602C25.301 43.2824 24.3451 42.6884 23.2957 42.3202L19.8757 41.2002C19.4709 41.0583 19.1163 40.8011 18.8557 40.4602C18.5932 40.0991 18.4467 39.6666 18.4357 39.2202C18.4168 38.7765 18.546 38.3391 18.8032 37.977C19.0603 37.6149 19.4306 37.3486 19.8557 37.2202L23.2957 36.0802C24.3626 35.7355 25.3323 35.1423 26.1251 34.3496C26.9178 33.5568 27.511 32.5871 27.8557 31.5202L28.9957 28.1402C29.1123 27.7243 29.3604 27.3574 29.7029 27.0942C30.0454 26.831 30.4639 26.6858 30.8957 26.6802C31.3257 26.6802 31.7477 26.7982 32.1157 27.0202C32.4797 27.2702 32.7597 27.6262 32.9157 28.0402L34.0757 31.5202C34.4205 32.5871 35.0136 33.5568 35.8064 34.3496C36.5992 35.1423 37.5689 35.7355 38.6357 36.0802L42.0357 37.2802C42.4494 37.4158 42.8075 37.6827 43.0557 38.0402C43.3267 38.3893 43.4744 38.8183 43.4757 39.2602ZM23.4777 26.5402C23.4747 26.9323 23.3564 27.3148 23.1377 27.6402C22.9013 27.9622 22.5739 28.206 22.1977 28.3402L19.6777 29.1802C18.9717 29.4242 18.3317 29.8202 17.7977 30.3402C17.2757 30.8726 16.8794 31.5149 16.6377 32.2202L15.7777 34.7002C15.6558 35.0829 15.4094 35.4138 15.0777 35.6402C14.7489 35.8698 14.3587 35.9952 13.9577 36.0002C13.5478 35.9934 13.1498 35.8608 12.8177 35.6202C12.5032 35.381 12.2666 35.0539 12.1377 34.6802L11.3177 32.1802C11.0771 31.4803 10.6805 30.8442 10.1577 30.3202C9.64553 29.7828 9.00567 29.3838 8.29774 29.1602L5.79774 28.3202C5.40982 28.1981 5.07261 27.9522 4.83774 27.6202C4.67854 27.3709 4.57664 27.0894 4.53937 26.7959C4.5021 26.5024 4.5304 26.2043 4.62223 25.9231C4.71405 25.6419 4.86711 25.3846 5.07039 25.1697C5.27366 24.9547 5.52208 24.7876 5.79774 24.6802L8.29774 23.8602C9.00514 23.6132 9.64768 23.2098 10.1775 22.68C10.7073 22.1502 11.1107 21.5076 11.3577 20.8002L12.1777 18.3402C12.2956 17.9716 12.5179 17.645 12.8177 17.4002C13.1363 17.1602 13.5194 17.0209 13.9177 17.0002C14.3213 16.9894 14.7188 17.1009 15.0577 17.3202C15.3914 17.5454 15.6493 17.8661 15.7977 18.2402L16.6377 20.8002C16.8847 21.5076 17.2882 22.1502 17.818 22.68C18.3478 23.2098 18.9903 23.6132 19.6977 23.8602L22.1977 24.7202C22.5716 24.8487 22.8942 25.0941 23.1177 25.4202C23.3545 25.7454 23.4806 26.138 23.4777 26.5402Z" fill="white"/>
<path d="M40.9274 14.786C40.932 14.9865 40.8708 15.1829 40.7532 15.3452C40.6371 15.5107 40.4695 15.6332 40.2765 15.6935L38.709 16.216C38.2262 16.3764 37.787 16.6462 37.4257 17.0044C37.0648 17.3635 36.7946 17.8034 36.6374 18.2877L36.0874 19.846C36.0301 20.0331 35.9144 20.1969 35.7574 20.3135C35.5897 20.4274 35.3917 20.4881 35.189 20.4877C34.9857 20.4964 34.7852 20.4372 34.6192 20.3193C34.4532 20.2015 34.3312 20.0317 34.2724 19.8369L33.7499 18.2694C33.5926 17.7851 33.3224 17.3452 32.9615 16.986C32.5972 16.6295 32.1592 16.3573 31.6782 16.1885L30.1107 15.6752C29.9251 15.6102 29.7626 15.4923 29.6432 15.336C29.5228 15.1705 29.4557 14.9723 29.4507 14.7677C29.442 14.5643 29.5012 14.3639 29.6191 14.1979C29.7369 14.0319 29.9067 13.9099 30.1015 13.851L31.6782 13.3285C32.1672 13.1705 32.6116 12.8987 32.975 12.5353C33.3383 12.172 33.6102 11.7275 33.7682 11.2385L34.2907 9.68938C34.3441 9.49876 34.4578 9.33056 34.6148 9.20994C34.7718 9.08932 34.9636 9.02276 35.1615 9.02021C35.3586 9.02021 35.552 9.07429 35.7207 9.17604C35.8875 9.29063 36.0159 9.45379 36.0874 9.64354L36.619 11.2385C36.777 11.7275 37.0489 12.172 37.4123 12.5353C37.7756 12.8987 38.2201 13.1705 38.709 13.3285L40.2674 13.8785C40.4569 13.9407 40.6211 14.063 40.7349 14.2269C40.859 14.3869 40.9267 14.5835 40.9274 14.786ZM31.7616 8.95604C31.7602 9.13574 31.706 9.31106 31.6058 9.46021C31.4974 9.60778 31.3474 9.71952 31.1749 9.78104L30.0199 10.166C29.6964 10.2779 29.403 10.4594 29.1583 10.6977C28.919 10.9417 28.7374 11.2361 28.6266 11.5594L28.2324 12.696C28.1766 12.8714 28.0636 13.0231 27.9116 13.1269C27.7609 13.2321 27.5821 13.2896 27.3983 13.2919C27.2104 13.2888 27.028 13.228 26.8758 13.1177C26.7316 13.008 26.6231 12.8581 26.5641 12.6869L26.1883 11.541C26.078 11.2202 25.8962 10.9287 25.6566 10.6885C25.4218 10.4422 25.1286 10.2593 24.8041 10.1569L23.6583 9.77188C23.4805 9.71591 23.3259 9.60321 23.2183 9.45104C23.1453 9.33677 23.0986 9.20772 23.0815 9.07322C23.0644 8.93871 23.0774 8.80209 23.1195 8.6732C23.1616 8.54431 23.2317 8.42637 23.3249 8.32786C23.4181 8.22935 23.5319 8.15274 23.6583 8.10354L24.8041 7.72771C25.1283 7.6145 25.4228 7.4296 25.6657 7.18676C25.9085 6.94393 26.0934 6.64943 26.2066 6.32521L26.5824 5.19771C26.6365 5.02874 26.7384 4.87908 26.8758 4.76688C27.0218 4.65686 27.1974 4.59301 27.3799 4.58354C27.5649 4.57857 27.7471 4.6297 27.9024 4.73021C28.0554 4.83343 28.1736 4.98039 28.2416 5.15188L28.6266 6.32521C28.7398 6.64943 28.9247 6.94393 29.1676 7.18676C29.4104 7.4296 29.7049 7.6145 30.0291 7.72771L31.1749 8.12188C31.3463 8.18074 31.4942 8.29324 31.5966 8.44271C31.7051 8.59176 31.7629 8.77169 31.7616 8.95604ZM37.0682 4.04271C37.0599 4.20985 37.006 4.37152 36.9124 4.51021C36.817 4.64093 36.6819 4.73737 36.5274 4.78521L35.959 4.97771C35.8486 5.01581 35.7483 5.07853 35.6658 5.16111C35.5832 5.24369 35.5205 5.34398 35.4824 5.45438L35.2807 6.03188C35.2253 6.1725 35.1336 6.29588 35.0149 6.38938C34.8797 6.49764 34.7113 6.55592 34.5382 6.55438C34.3797 6.54454 34.2258 6.49743 34.089 6.41688C33.952 6.31591 33.8495 6.17503 33.7957 6.01354L33.6032 5.44521C33.5701 5.33249 33.5067 5.23103 33.4199 5.15188C33.339 5.06708 33.2382 5.00402 33.1265 4.96854L32.5582 4.78521C32.407 4.72624 32.2741 4.62818 32.1732 4.50104C32.0781 4.36366 32.0269 4.20063 32.0265 4.03354C32.0319 3.86586 32.086 3.70338 32.1824 3.56604C32.2811 3.43875 32.4149 3.34316 32.5674 3.29104L33.1265 3.10771C33.2394 3.06919 33.3426 3.00664 33.429 2.92438C33.5113 2.83798 33.5738 2.73478 33.6124 2.62188L33.8049 2.05354C33.8599 1.91146 33.9469 1.78588 34.0615 1.68688C34.193 1.58981 34.3481 1.52968 34.5107 1.51271C34.6837 1.51172 34.853 1.56282 34.9965 1.65938C35.1257 1.75659 35.2269 1.88625 35.2899 2.03521L35.4824 2.62188C35.5209 2.73478 35.5834 2.83798 35.6657 2.92438C35.7509 3.00355 35.8505 3.06577 35.959 3.10771L36.5365 3.30021C36.6834 3.35799 36.8128 3.45272 36.9124 3.57521C37.0124 3.71068 37.0669 3.87433 37.0682 4.04271Z" fill="#DEE2E6"/>
</svg>
