<svg width="16" height="16" viewBox="0 0 16 16" fill="none" xmlns="http://www.w3.org/2000/svg">
<path d="M7.99875 9.27973C8.70567 9.27973 9.27875 8.70665 9.27875 7.99973C9.27875 7.2928 8.70567 6.71973 7.99875 6.71973C7.29183 6.71973 6.71875 7.2928 6.71875 7.99973C6.71875 8.70665 7.29183 9.27973 7.99875 9.27973Z" fill="#EEEFF4"/>
<path d="M7.99875 13.3598C8.70567 13.3598 9.27875 12.7867 9.27875 12.0798C9.27875 11.3729 8.70567 10.7998 7.99875 10.7998C7.29183 10.7998 6.71875 11.3729 6.71875 12.0798C6.71875 12.7867 7.29183 13.3598 7.99875 13.3598Z" fill="#EEEFF4"/>
<path d="M7.99875 5.19965C8.70567 5.19965 9.27875 4.62657 9.27875 3.91965C9.27875 3.21272 8.70567 2.63965 7.99875 2.63965C7.29183 2.63965 6.71875 3.21272 6.71875 3.91965C6.71875 4.62657 7.29183 5.19965 7.99875 5.19965Z" fill="#EEEFF4"/>
</svg>
