<svg width="20" height="20" viewBox="0 0 20 20" fill="none" xmlns="http://www.w3.org/2000/svg">
<path d="M8.85832 8.64164C8.74165 8.64164 8.62498 8.60831 8.51665 8.54164C8.31665 8.41664 8.19165 8.20831 8.19165 7.96664V4.04164C8.19165 3.79164 8.33332 3.56664 8.54998 3.44998C8.77498 3.33331 9.03332 3.34998 9.24165 3.49998L12.4333 5.74164C12.625 5.87498 12.725 6.09998 12.7167 6.33331C12.7 6.56664 12.5667 6.76664 12.3667 6.88331L9.17498 8.56664C9.07498 8.61664 8.96665 8.64164 8.86665 8.64164H8.85832ZM9.02498 4.36664V7.69998L11.7333 6.27498L9.02498 4.37498V4.36664Z" fill="#FC3A52"/>
<path d="M3.34165 15.4833C2.57498 15.4833 1.94165 14.8667 1.94165 14.1C1.94165 13.3333 2.56665 12.7167 3.34165 12.7167C4.11665 12.7167 4.74165 13.3333 4.74165 14.1C4.74165 14.8667 4.11665 15.4833 3.34165 15.4833ZM3.34165 13.55C3.03332 13.55 2.77498 13.7917 2.77498 14.1C2.77498 14.4083 3.02498 14.65 3.34165 14.65C3.65832 14.65 3.90832 14.4083 3.90832 14.1C3.90832 13.7917 3.65832 13.55 3.34165 13.55Z" fill="#FC3A52"/>
<path d="M17.5 0.833374H2.49996C2.04163 0.833374 1.66663 1.20837 1.66663 1.66671V10.25C1.66663 10.7084 2.04163 11.0834 2.49996 11.0834H17.5C17.9583 11.0834 18.3333 10.7084 18.3333 10.25V1.66671C18.3333 1.20837 17.9583 0.833374 17.5 0.833374ZM17.5 10.25H2.49996V1.66671H17.5V10.25Z" fill="#202126"/>
<path d="M17.6416 13.7417H5.83329C5.59996 13.7417 5.41663 13.925 5.41663 14.1584C5.41663 14.3917 5.59996 14.575 5.83329 14.575H17.6416C17.875 14.575 18.0583 14.3917 18.0583 14.1584C18.0583 13.925 17.875 13.7417 17.6416 13.7417Z" fill="#202126"/>
<path d="M17.6416 17.8501H5.83329C5.59996 17.8501 5.41663 18.0334 5.41663 18.2668C5.41663 18.5001 5.59996 18.6834 5.83329 18.6834H17.6416C17.875 18.6834 18.0583 18.5001 18.0583 18.2668C18.0583 18.0334 17.875 17.8501 17.6416 17.8501Z" fill="#202126"/>
<path d="M3.34165 19.5833C2.57498 19.5833 1.94165 18.9667 1.94165 18.2C1.94165 17.4333 2.56665 16.8167 3.34165 16.8167C4.11665 16.8167 4.74165 17.4333 4.74165 18.2C4.74165 18.9667 4.11665 19.5833 3.34165 19.5833ZM3.34165 17.65C3.03332 17.65 2.77498 17.8917 2.77498 18.2C2.77498 18.5083 3.02498 18.75 3.34165 18.75C3.65832 18.75 3.90832 18.5083 3.90832 18.2C3.90832 17.8917 3.65832 17.65 3.34165 17.65Z" fill="#FC3A52"/>
</svg>
