<svg width="15" height="14" viewBox="0 0 15 14" fill="none" xmlns="http://www.w3.org/2000/svg">
    <path
        d="M8.46759 2.2717C8.5424 1.97916 8.95793 1.97916 9.03274 2.2717L9.42415 3.8023C9.74104 5.04151 10.7087 6.00916 11.9479 6.32606L13.4785 6.71747C13.771 6.79228 13.771 7.20781 13.4785 7.28261L11.9479 7.67403C10.7087 7.99092 9.74104 8.95857 9.42415 10.1978L9.03274 11.7284C8.95793 12.0209 8.5424 12.0209 8.46759 11.7284L8.07618 10.1978C7.75928 8.95857 6.79163 7.99092 5.55242 7.67403L4.02182 7.28261C3.72928 7.2078 3.72928 6.79228 4.02182 6.71747L5.55243 6.32606C6.79163 6.00916 7.75928 5.04151 8.07618 3.8023L8.46759 2.2717Z"
        fill="#12B76A" />
    <path
        d="M1.75016 0.583374V2.91671M2.91683 1.75004H0.583496M2.3335 11.0834V13.4167M3.50016 12.25H1.16683M5.55243 6.32606L4.02182 6.71747C3.72928 6.79228 3.72928 7.2078 4.02182 7.28261L5.55242 7.67403C6.79163 7.99092 7.75928 8.95857 8.07618 10.1978L8.46759 11.7284C8.5424 12.0209 8.95793 12.0209 9.03274 11.7284L9.42415 10.1978C9.74104 8.95857 10.7087 7.99092 11.9479 7.67403L13.4785 7.28261C13.771 7.20781 13.771 6.79228 13.4785 6.71747L11.9479 6.32606C10.7087 6.00916 9.74104 5.04151 9.42415 3.8023L9.03274 2.2717C8.95793 1.97916 8.5424 1.97916 8.46759 2.2717L8.07618 3.8023C7.75928 5.04151 6.79163 6.00916 5.55243 6.32606Z"
        stroke="#12B76A" stroke-linecap="round" stroke-linejoin="round" />
</svg>
