<svg width="15" height="14" viewBox="0 0 15 14" fill="none" xmlns="http://www.w3.org/2000/svg">
    <path
        d="M8.46808 2.2717C8.54289 1.97916 8.95842 1.97916 9.03322 2.2717L9.42464 3.8023C9.74153 5.04151 10.7092 6.00916 11.9484 6.32606L13.479 6.71747C13.7715 6.79228 13.7715 7.20781 13.479 7.28261L11.9484 7.67403C10.7092 7.99092 9.74153 8.95857 9.42464 10.1978L9.03322 11.7284C8.95841 12.0209 8.54289 12.0209 8.46808 11.7284L8.07666 10.1978C7.75977 8.95857 6.79212 7.99092 5.55291 7.67403L4.02231 7.28261C3.72977 7.2078 3.72977 6.79228 4.02231 6.71747L5.55291 6.32606C6.79212 6.00916 7.75977 5.04151 8.07666 3.8023L8.46808 2.2717Z"
        fill="#3DE295" />
    <path
        d="M1.75065 0.583374V2.91671M2.91732 1.75004H0.583984M2.33398 11.0834V13.4167M3.50065 12.25H1.16732M5.55291 6.32606L4.02231 6.71747C3.72977 6.79228 3.72977 7.2078 4.02231 7.28261L5.55291 7.67403C6.79212 7.99092 7.75977 8.95857 8.07667 10.1978L8.46808 11.7284C8.54289 12.0209 8.95841 12.0209 9.03322 11.7284L9.42464 10.1978C9.74153 8.95857 10.7092 7.99092 11.9484 7.67403L13.479 7.28261C13.7715 7.20781 13.7715 6.79228 13.479 6.71747L11.9484 6.32606C10.7092 6.00916 9.74153 5.04151 9.42464 3.8023L9.03322 2.2717C8.95841 1.97916 8.54289 1.97916 8.46808 2.2717L8.07667 3.8023C7.75977 5.04151 6.79212 6.00916 5.55291 6.32606Z"
        stroke="#3DE295" stroke-linecap="round" stroke-linejoin="round" />
</svg>
