<svg width="46" height="44" viewBox="0 0 46 44" fill="none" xmlns="http://www.w3.org/2000/svg">
<path d="M42.0075 12.5358V32.7328C39.4157 32.4335 36.7985 32.4487 34.2117 32.748C30.9149 33.1588 27.6434 34.2239 24.9501 36.1513C24.9197 36.1716 24.9501 36.2173 24.9805 36.2021C26.4667 35.5376 27.9934 35.0507 29.5657 34.8123C33.8465 34.1834 38.2085 34.863 42.2763 36.2223C42.8444 36.3846 43.2856 36.694 43.8486 36.694C44.8631 36.694 45.6898 35.8724 45.6898 34.8529V12.5358C45.6137 10.0961 42.0785 10.1164 42.0126 12.5358H42.0075Z" fill="#E7D6AF"/>
<path d="M40.2483 29.3755V9.12781C40.1722 6.68815 36.637 6.70844 36.571 9.12781V27.6155C31.7171 27.9858 26.9899 30.5269 23.9669 34.2041C23.9467 34.2295 23.9822 34.265 24.0075 34.2447C27.6848 31.4804 32.1837 29.8777 37.7123 31.029C38.8941 31.4906 40.37 30.8921 40.2483 29.3704V29.3755Z" fill="#E7D6AF"/>
<path d="M3.68232 12.5358V32.7328C6.27415 32.4335 8.89134 32.4487 11.4781 32.748C14.7749 33.1588 18.0464 34.2239 20.7397 36.1513C20.7701 36.1716 20.7397 36.2173 20.7093 36.2021C19.2232 35.5376 17.6965 35.0507 16.1241 34.8123C11.8433 34.1834 7.48131 34.863 3.4135 36.2223C2.84543 36.3846 2.40416 36.694 1.84116 36.694C0.826748 36.694 0 35.8724 0 34.8529V12.5358C0.0760811 10.0961 3.61131 10.1164 3.67725 12.5358H3.68232Z" fill="#E7D6AF"/>
<path d="M5.45238 29.3755V9.12781C5.52846 6.68815 9.06369 6.70844 9.12963 9.12781V27.6155C13.9836 27.9858 18.7108 30.5269 21.7337 34.2041C21.754 34.2295 21.7185 34.265 21.6931 34.2447C18.0159 31.4804 13.517 29.8777 7.98841 31.029C6.80662 31.4906 5.33065 30.8921 5.45238 29.3704V29.3755Z" fill="#E7D6AF"/>
<path d="M22.823 7.81641C27.7176 7.81641 31.689 11.7828 31.689 16.6824C31.689 21.5769 27.7226 25.5484 22.823 25.5484C17.9285 25.5484 13.957 21.5769 13.957 16.6824C13.957 11.7878 17.9234 7.81641 22.823 7.81641Z" fill="#E7D6AF"/>
<path d="M25.5544 16.2567L22.0699 12.7722C21.6895 12.3918 21.0352 12.6606 21.0352 13.1983V20.1724C21.0352 20.71 21.6895 20.9839 22.0699 20.5984L25.5544 17.1139C25.7928 16.8755 25.7928 16.4951 25.5544 16.2567Z" fill="#F4ECD7"/>
</svg>
