<svg width="17" height="18" viewBox="0 0 17 18" fill="none" xmlns="http://www.w3.org/2000/svg">
<path fill-rule="evenodd" clip-rule="evenodd" d="M0 8.99998C0 15.5628 0.62699 15.7532 5.39773 17.2012C5.73003 17.3021 6.0828 17.4091 6.45652 17.5248C9.60315 18.4985 11.2402 17.9523 12.0771 16.103C12.9627 16.0951 13.7134 16.0399 14.3223 15.8608C15.0294 15.6529 15.5689 15.2704 15.9201 14.6289C16.2436 14.038 16.3735 13.2841 16.4365 12.403C16.5 11.516 16.5 10.3969 16.5 9.02195V8.96801C16.5 7.59318 16.5 6.47459 16.4365 5.5885C16.3735 4.70839 16.2436 3.95535 15.9197 3.36538C15.568 2.72462 15.0279 2.34395 14.3212 2.13729C13.7128 1.95935 12.9624 1.90475 12.0771 1.89702C11.2401 0.0478026 9.60308 -0.498511 6.45652 0.475207C6.08273 0.590857 5.73025 0.697864 5.39788 0.798718C0.62699 2.24675 0 2.43707 0 8.99998ZM13.9138 14.4988C13.5812 14.5967 13.1367 14.651 12.5258 14.6724C12.8352 13.2187 12.9131 11.3121 12.9131 8.99998C12.9131 6.68779 12.8352 4.7813 12.5258 3.32748C13.1372 3.34864 13.5819 3.40255 13.9148 3.49993C14.3179 3.61777 14.5177 3.78627 14.6591 4.04397C14.8285 4.3525 14.9451 4.84729 15.0054 5.68903C15.0648 6.51901 15.0653 7.58757 15.0653 8.99503C15.0653 10.4024 15.0648 11.4717 15.0053 12.3026C14.9451 13.1453 14.8285 13.6417 14.6588 13.9518C14.5167 14.2112 14.3164 14.3804 13.9138 14.4988ZM9.32611 9.71042C8.92987 9.71042 8.60874 9.39233 8.60874 9.00001C8.60874 8.60762 8.92991 8.2896 9.32611 8.2896C9.72231 8.2896 10.0435 8.60762 10.0435 9.00001C10.0435 9.39237 9.72231 9.71042 9.32611 9.71042Z" fill="#2F3136"/>
</svg>
