<svg width="224" height="192" viewBox="0 0 224 192" fill="none" xmlns="http://www.w3.org/2000/svg">
<path d="M4.68586 116.469C4.79764 105.532 6.1391 94.483 5.91552 83.7719C5.58016 65.0556 -4.70433 43.9716 6.02731 26.3829C15.4175 11.1618 35.8747 6.08813 52.5311 4.96064C74.5533 3.83316 96.4637 1.91643 118.374 1.23994C143.079 0.450701 183.323 -4.84848 202.327 15.6718C210.935 24.9171 212.611 38.6725 211.27 51.1875C209.928 63.7026 206.016 75.8795 205.01 88.3946C204.339 96.1742 204.563 104.969 208.028 111.959C214.847 125.489 223.343 135.298 220.213 151.421C216.636 169.686 202.215 185.02 184.329 190.206C169.573 194.378 158.394 189.981 144.868 185.246C132.571 180.961 118.262 179.383 105.407 181.074C81.3724 184.231 60.2444 191.108 37.3279 179.157C23.1309 171.603 12.9582 158.299 7.9277 142.965C5.24479 134.17 4.57407 125.263 4.68586 116.469Z" fill="black" fill-opacity="0.2"/>
<path opacity="0.2" d="M183.658 119.175C182.764 119.739 181.646 119.739 180.752 119.288C176.057 116.469 168.679 111.959 166.666 109.704C163.425 106.209 158.394 98.8802 165.325 94.1448C166.555 93.2428 168.679 93.0173 170.132 93.3555C171.362 93.6938 172.368 94.483 173.374 95.2723C174.38 96.0615 175.162 96.9635 175.945 97.8655C177.063 99.2185 177.398 97.3017 177.398 96.3998C177.622 92.1153 174.268 89.0711 172.256 85.6886C170.579 82.8699 168.79 79.9385 168.343 76.556C167.896 73.1736 168.79 69.7911 170.132 66.6341C170.914 64.8302 171.921 63.1389 173.262 61.6732C175.162 59.6437 177.733 58.8545 180.528 58.8545C184.329 58.8545 188.018 60.433 190.366 63.4772C192.937 66.8596 193.607 71.9333 191.931 75.7668C190.813 78.36 189.248 80.615 188.353 83.5464C187.571 86.2524 187.235 89.7476 189.136 92.1153C191.372 94.7085 195.731 91.7771 198.638 92.1153C200.985 92.3408 202.886 95.1595 202.662 97.5272C202.103 101.586 196.178 110.832 183.658 119.175Z" fill="#E2E2E2"/>
<g opacity="0.2">
<path d="M181.531 69.9038C181.531 70.3548 181.531 135.072 181.531 135.072" stroke="#808083" stroke-width="0.5" stroke-linecap="round" stroke-linejoin="round"/>
<path opacity="0.2" d="M187.234 71.3696L181.645 77.0071" stroke="#202026" stroke-width="0.5" stroke-linecap="round" stroke-linejoin="round"/>
<path d="M172.926 75.7666L181.422 84.3355" stroke="#808083" stroke-width="0.5" stroke-linecap="round" stroke-linejoin="round"/>
<path d="M192.376 98.7676L181.645 106.322" stroke="#808083" stroke-width="0.5" stroke-linecap="round" stroke-linejoin="round"/>
<path d="M170.801 102.601L181.421 110.719" stroke="#808083" stroke-width="0.5" stroke-linecap="round" stroke-linejoin="round"/>
</g>
<path opacity="0.5" d="M127.765 165.402C125.753 160.215 124.3 150.181 143.303 150.293C143.303 150.293 148.557 141.95 157.389 142.739C157.389 142.739 159.066 125.827 177.734 126.053C196.403 126.278 196.962 144.318 196.962 144.318C196.962 144.318 215.518 144.318 215.742 157.509C215.742 157.509 215.966 161.681 214.401 165.176C213.618 166.868 211.718 167.995 209.705 167.995C197.409 168.108 146.21 168.446 132.46 168.446C130.336 168.671 128.436 167.318 127.765 165.402Z" fill="#E2E2E2" fill-opacity="0.2"/>
<path opacity="0.5" d="M16.9825 152.887C18.4357 147.588 23.6897 142.627 37.5514 141.95C37.5514 141.95 35.7628 122.445 54.655 121.994C54.655 121.994 70.3053 122.332 70.1935 140.146C70.1935 140.146 84.3906 140.71 85.732 149.392C85.732 149.392 105.966 143.303 101.271 168.446C101.271 168.446 50.1835 168.333 28.9438 168.221C21.0068 168.333 14.8585 160.666 16.9825 152.887Z" fill="#E2E2E2" fill-opacity="0.2"/>
<path opacity="0.5" d="M54.7671 122.332C54.2082 122.332 53.6492 122.219 53.0903 122.106C50.6309 121.543 48.507 120.19 46.7184 118.724C43.7001 116.356 42.0233 113.312 42.0233 109.817C41.9115 107.562 44.9298 106.547 45.4887 104.518C46.4948 101.248 42.2469 98.7675 39.6757 96.6253C38.1107 95.385 34.8689 92.7918 37.6635 91.2133C41.129 89.2966 47.5009 87.4926 47.2773 84.7867C47.2773 84.7867 47.7245 80.3895 44.1472 77.1198C44.1472 77.1198 41.7997 73.0608 45.6005 71.2568C49.4013 69.5656 50.2956 65.1684 50.072 61.786C49.8484 58.629 51.3017 55.6975 55.9968 55.8103C62.3687 55.923 60.2447 61.6732 60.6919 64.9429C61.2508 68.5509 65.7223 70.2421 66.6166 73.6245C66.952 74.752 66.952 75.8795 66.6166 76.8943C66.0577 78.5855 64.2691 79.6002 63.3748 81.1787C62.2569 83.0954 62.1451 85.5759 64.3809 87.0416C68.6288 89.6348 76.5657 91.5516 70.7528 96.1743C70.7528 96.1743 63.9337 100.12 64.2691 102.714C64.6044 105.307 67.3991 107.449 67.5109 110.042C67.6227 111.395 67.0638 112.974 66.393 114.214C64.6044 118.16 60.1329 122.445 54.7671 122.332Z" fill="#E2E2E2" fill-opacity="0.2"/>
<g filter="url(#filter0_d_5663_50066)">
<path d="M75.8989 48.0525C69.9667 57.5494 70.3025 70.7771 76.7943 79.8218C81.1595 85.9269 87.6513 89.997 92.9119 95.3107C98.0606 100.737 102.09 108.652 99.2918 115.548C96.4936 122.671 88.3229 125.497 82.2788 130.019C75.5631 134.881 70.9741 142.456 69.519 150.709C68.064 158.962 69.9667 167.668 74.5558 174.564H138.019C138.019 174.564 149.212 153.083 134.885 136.69C120.558 120.296 112.835 120.07 113.395 109.33C113.954 98.5894 121.342 95.0846 125.595 91.1276C129.848 87.0575 150.555 77.6737 138.355 47.9395H75.8989V48.0525Z" fill="black"/>
</g>
<path d="M75.8989 48.0525C69.9667 57.5494 70.3025 70.7771 76.7943 79.8218C81.1595 85.9269 87.6513 89.997 92.9119 95.3107C98.0606 100.737 102.09 108.652 99.2918 115.548C96.4936 122.671 88.3229 125.497 82.2788 130.019C75.5631 134.881 70.9741 142.456 69.519 150.709C68.064 158.962 69.9667 167.668 74.5558 174.564H138.019C138.019 174.564 149.212 153.083 134.885 136.69C120.558 120.296 112.835 120.07 113.395 109.33C113.954 98.5894 121.342 95.0846 125.595 91.1276C129.848 87.0575 150.555 77.6737 138.355 47.9395H75.8989V48.0525Z" fill="white" fill-opacity="0.85"/>
<path d="M108.356 104.355C107.013 111.252 108.916 117.922 107.684 124.479C107.461 125.61 105.894 125.384 105.894 124.253C106.006 119.957 105.894 115.661 105.11 111.365C104.215 106.164 102.424 101.077 99.2899 96.8934C98.6184 95.9889 99.5138 94.6322 100.633 95.0845C104.215 96.5542 109.028 101.416 108.356 104.355Z" fill="#15919A"/>
<path d="M136.564 155.118C136.34 152.744 135.668 150.031 133.653 149.013C132.422 148.335 130.855 148.448 129.512 148.787C128.169 149.126 126.826 149.805 125.483 150.144C122.796 150.935 119.886 150.822 117.2 149.918C114.626 149.013 112.499 147.317 110.149 145.961C107.798 144.604 105 143.586 102.426 144.265C97.9485 145.395 95.5981 150.935 91.121 152.179C89.1063 152.744 86.9796 152.405 84.9649 151.953C82.9502 151.5 80.9355 150.935 78.8089 150.935C77.2419 151.048 75.4511 151.614 74.3318 152.631C74.108 152.857 73.996 152.97 73.7722 153.196C72.429 155.118 72.2052 157.606 72.541 159.867C72.9887 162.467 74.2199 164.728 75.4511 166.989C76.9062 169.703 78.5851 172.303 81.1594 174.112C84.1814 176.26 87.987 174.79 91.7925 175.13C100.523 175.808 109.813 176.26 118.543 175.582C123.132 175.243 127.497 175.695 131.079 172.868C133.653 170.833 135.332 167.894 136.116 164.728C136.899 161.676 136.899 158.397 136.564 155.118Z" fill="#15919A"/>
<path d="M69.7447 177.617C69.7447 177.617 69.5208 174.677 73.3264 172.981H140.147C140.147 172.981 143.617 174.79 144.065 177.504L69.7447 177.617Z" fill="#1C374E"/>
<path d="M138.8 48.5049C138.688 48.5049 138.8 48.5049 138.8 48.5049L75.897 48.0526C75.897 48.0526 75.6732 47.9396 75.3374 47.6004C73.5466 46.1306 74.5539 43.3042 76.7925 43.3042L137.793 43.7564C140.255 43.8695 141.039 47.3743 138.8 48.5049Z" fill="#1C374E"/>
<path d="M106.006 132.394C106.677 132.168 107.573 132.846 107.349 133.525C107.237 134.203 106.23 134.655 105.67 134.203C105.11 133.864 105.222 132.733 106.006 132.394Z" fill="#15919A"/>
<g opacity="0.24">
<g opacity="0.24">
<path opacity="0.24" d="M92.8008 157.945C94.5916 156.588 97.054 156.927 99.1807 157.38C101.419 157.832 103.546 158.623 105.784 158.284C107.463 158.058 109.03 157.266 110.597 156.814C112.276 156.475 114.179 156.701 115.186 158.171C108.023 160.545 100.076 160.545 92.8008 157.945Z" fill="black"/>
</g>
</g>
<path d="M152.451 170.494L152.227 175.13C152.227 175.13 152.451 176.147 152.451 176.373C152.451 176.713 152.339 177.617 152.339 177.617C151.892 177.956 150.66 178.069 149.989 177.843L149.877 177.73C149.877 177.73 149.765 177.843 148.87 178.069C147.974 178.295 145.176 178.408 144.84 178.069C144.84 178.069 144.504 176.713 145.624 176.373C148.422 175.695 148.87 174.904 149.093 173.999C149.317 172.869 149.653 170.155 149.653 170.155L152.451 170.494Z" fill="#F4B998"/>
<path d="M148.199 175.017C148.199 175.017 148.982 174.904 149.43 175.356C149.878 175.808 150.101 176.147 150.773 175.921C152.34 175.582 152.228 174.338 152.9 174.904V178.069L144.281 178.521V176.147L148.199 175.017Z" fill="#00101A"/>
<path d="M144.505 177.617C144.505 177.617 144.617 178.069 147.303 177.843C149.99 177.73 150.213 177.052 152.34 177.052L152.228 177.843L144.281 178.635L144.505 177.617Z" fill="#00101A"/>
<path d="M158.273 125.724C156.594 121.427 151.333 121.088 150.326 125.61C148.311 135.56 150.662 149.127 148.535 174.451C149.654 175.243 151.221 175.469 152.453 174.904C153.684 175.017 160.735 131.942 158.273 125.724Z" fill="#414141"/>
<path d="M160.623 170.268L160.4 174.904C160.4 174.904 160.176 175.808 160.176 176.147C160.176 176.487 160.176 177.391 160.176 177.391C160.512 177.73 161.855 177.956 162.414 177.843L162.526 177.73C162.526 177.73 162.638 177.843 163.534 178.069C164.429 178.408 167.115 178.635 167.563 178.408C167.563 178.408 168.011 177.052 166.891 176.713C164.093 175.808 163.757 174.904 163.646 174.112C163.534 172.982 163.422 170.155 163.422 170.155L160.623 170.268Z" fill="#F4B998"/>
<path d="M164.429 175.13C164.429 175.13 163.645 175.017 163.198 175.356C162.75 175.695 162.414 176.034 161.854 175.808C160.287 175.356 160.511 174.113 159.84 174.678L159.504 177.843L168.01 178.974L168.234 176.6L164.429 175.13Z" fill="#00101A"/>
<path d="M167.899 178.07C167.899 178.07 167.787 178.522 165.101 178.07C162.414 177.73 162.19 177.052 160.176 176.939V177.73L168.011 179.2L167.899 178.07Z" fill="#00101A"/>
<path d="M166.557 124.932C165.885 120.297 157.826 121.088 157.714 125.837C157.603 132.846 160.177 174.904 160.177 174.904C161.856 175.808 162.08 175.582 163.982 174.791C164.878 153.875 169.019 141.213 166.557 124.932Z" fill="#414141"/>
<path fill-rule="evenodd" clip-rule="evenodd" d="M154.357 103.225C154.357 103.225 152.454 107.634 152.118 105.599C151.334 101.416 146.074 97.7982 144.731 95.537C143.835 94.1803 143.164 93.8411 143.835 92.9367C145.85 89.7711 150.775 87.736 155.028 86.2663C156.595 85.701 156.259 87.1707 155.252 88.4144C154.245 89.4319 148.312 92.7106 148.76 93.502C149.208 94.4064 152.23 97.1198 156.371 98.0243C160.289 98.9287 156.707 102.32 154.357 103.225Z" fill="#EF3E3E"/>
<path fill-rule="evenodd" clip-rule="evenodd" d="M161.633 100.511C161.633 100.511 161.073 99.72 161.745 101.868C162.192 103.451 168.796 109.669 171.818 112.269C174.84 114.87 174.952 114.531 179.205 114.191C182.339 113.965 185.921 113.513 186.704 112.948C186.704 112.948 186.816 112.835 186.704 112.722C186.481 112.495 185.697 112.156 185.697 111.704C185.697 111.365 185.361 111.365 184.914 111.591C184.578 111.704 177.526 111.478 175.847 111.252C174.169 111.026 169.02 102.32 168.236 101.529C167.453 100.511 164.207 99.0416 161.633 100.511Z" fill="#EF3E3E"/>
<path fill-rule="evenodd" clip-rule="evenodd" d="M162.304 92.3716L162.192 93.7283C162.192 93.7283 162.08 96.5547 162.08 96.8939C162.08 97.2331 162.192 97.3461 162.528 97.5722C162.975 98.3636 161.632 101.755 160.737 101.868C159.841 101.981 155.7 101.529 155.364 101.303C155.14 101.077 157.267 98.0245 157.155 97.5722C157.379 97.5722 157.827 97.5722 157.939 97.4592C158.162 96.8939 158.61 94.5197 157.939 93.7283C157.603 93.0499 162.304 92.3716 162.304 92.3716Z" fill="#FFC2A0"/>
<path fill-rule="evenodd" clip-rule="evenodd" d="M154.355 102.433C155.139 101.981 155.586 102.32 156.37 103.225C157.153 104.129 157.937 104.016 158.384 104.242C158.832 104.468 158.608 112.269 155.698 113.4C154.579 113.852 153.907 113.4 153.572 112.382C152.788 110.8 152.34 103.677 154.355 102.433Z" fill="#F5F4F4"/>
<path fill-rule="evenodd" clip-rule="evenodd" d="M163.648 98.0241C163.312 97.5719 162.64 97.4589 162.64 97.4589C162.193 99.0417 160.066 100.964 158.611 100.738C158.387 100.738 158.275 100.624 158.051 100.511C156.708 99.4939 157.939 97.3458 157.939 97.3458C157.38 97.1197 156.82 97.4589 156.82 97.4589C151.448 98.2503 152.007 106.73 151.559 114.304C151.224 121.879 149.209 127.08 149.321 128.776C149.433 129.567 150.44 129.793 151.112 129.906C153.91 130.246 156.708 130.359 159.618 130.246C161.073 130.246 162.528 130.133 163.871 130.02C164.655 129.906 166.782 130.133 167.117 129.228C168.349 125.836 164.543 114.078 168.013 105.034C169.02 102.433 167.565 99.0417 163.648 98.0241Z" fill="#EF3E3E"/>
<path fill-rule="evenodd" clip-rule="evenodd" d="M156.147 90.7886C156.147 90.7886 155.587 90.4494 155.587 89.7711C155.587 89.2058 155.811 88.9797 155.811 88.9797C155.811 88.9797 155.363 87.623 155.363 86.4924C155.363 85.3618 156.818 81.2917 163.534 82.3093C169.018 83.1007 167.675 89.9972 167.563 90.3364C167.451 90.7886 166.556 91.6931 165.213 91.8061C163.758 92.1453 159.505 92.7106 156.147 90.7886Z" fill="#01061B"/>
<path fill-rule="evenodd" clip-rule="evenodd" d="M156.372 89.9974C157.043 90.1104 157.603 90.7888 157.491 91.4671C157.379 92.1455 156.708 92.7108 156.036 92.5977C155.364 92.4847 154.805 91.8063 154.917 91.128C155.029 90.4496 155.7 89.8843 156.372 89.9974Z" fill="#FFC2A0"/>
<path fill-rule="evenodd" clip-rule="evenodd" d="M165.325 91.241C165.996 91.3541 166.556 92.0324 166.444 92.7108C166.332 93.3891 165.661 93.9544 164.989 93.8414C164.318 93.7283 163.758 93.05 163.87 92.3716C163.982 91.6933 164.653 91.128 165.325 91.241Z" fill="#FFC2A0"/>
<path fill-rule="evenodd" clip-rule="evenodd" d="M161.521 83.8921C163.983 84.2312 165.662 86.6054 165.326 89.0927L164.766 93.1628C164.431 95.6501 162.08 97.3459 159.618 97.0068C157.155 96.6676 155.476 94.2934 155.812 91.8061L156.372 87.736C156.708 85.3618 159.058 83.5529 161.521 83.8921Z" fill="#FFC2A0"/>
<path fill-rule="evenodd" clip-rule="evenodd" d="M162.864 87.7359C161.409 86.1531 156.931 87.7359 156.372 87.5098C154.133 86.9445 157.715 83.8919 158.386 83.3267C158.386 83.3267 163.087 83.3267 163.311 83.6658C163.423 83.7789 163.535 84.005 163.759 84.2311C164.207 84.3442 164.766 84.4572 164.766 84.5703C164.878 84.6834 166.333 86.1531 166.557 86.4923C166.781 86.8315 167.341 90.4493 165.214 90.3362C162.976 90.1101 163.423 88.3012 162.864 87.7359Z" fill="#01061B"/>
<path fill-rule="evenodd" clip-rule="evenodd" d="M157.938 94.7456C158.161 93.7281 158.609 93.2759 159.281 93.2759C160.288 93.3889 160.064 95.1979 160.064 95.1979L157.938 94.7456Z" fill="white"/>
<path fill-rule="evenodd" clip-rule="evenodd" d="M186.929 113.174C186.929 113.174 187.041 113.174 186.929 113.174C187.265 113.174 187.6 113.174 187.824 113.061C189.056 112.835 190.623 112.156 190.734 111.704C190.958 111.252 190.287 111.478 190.287 111.478C190.287 111.478 190.846 111.139 190.958 110.8C190.958 110.46 190.511 110.46 190.511 110.46C190.511 110.46 191.07 110.008 190.958 109.782C190.846 109.556 190.399 109.669 190.399 109.669C190.399 109.669 190.846 109.217 190.623 109.104C190.399 108.991 189.391 109.669 188.832 109.782C188.496 109.895 187.824 110.008 187.377 110.121C187.377 110.008 187.377 110.008 187.377 109.895C187.712 108.878 187.041 107.86 186.817 108.538C186.705 108.878 186.593 109.33 186.257 109.556C185.698 110.008 185.25 110.913 185.25 111.478C185.698 112.722 186.369 113.061 186.929 113.174Z" fill="#FFC2A0"/>
<path fill-rule="evenodd" clip-rule="evenodd" d="M186.929 113.174C186.929 113.174 187.041 113.174 186.929 113.174C187.265 113.174 187.6 113.174 187.824 113.061C188.048 113.061 188.272 112.948 188.496 112.835C188.048 112.948 187.6 112.948 187.377 112.948C186.257 112.722 185.698 111.591 185.698 110.348C185.362 110.8 185.25 111.252 185.25 111.704C185.698 112.722 186.369 113.061 186.929 113.174Z" fill="#FFC2A0"/>
<path opacity="0.2" d="M151.892 104.695C152.004 101.077 152.34 100.399 150.997 99.4941C149.654 98.5896 145.065 95.5371 143.834 93.0498C143.274 93.9543 143.945 94.2934 144.841 95.6501C145.96 97.6852 150.661 100.851 151.892 104.695Z" fill="black"/>
<path opacity="0.2" d="M167.677 106.051C167.453 106.617 167.341 107.295 167.117 107.973C168.796 109.669 170.587 111.252 171.818 112.269C174.84 114.87 174.952 114.531 179.205 114.191C182.004 113.965 185.138 113.626 186.369 113.061C186.145 112.948 185.921 112.835 185.697 112.496C183.123 113.061 178.87 113.852 176.743 113.739C173.945 113.513 169.02 107.634 167.677 106.051Z" fill="black"/>
<path d="M157.379 73.8296C157.491 73.8296 158.834 73.6035 158.834 73.6035L159.729 79.0303H158.946L157.379 73.8296Z" fill="#D9D9D9"/>
<path d="M162.415 72.6992L163.87 72.8123L163.535 78.126L162.191 78.0129L162.415 72.6992Z" fill="#D9D9D9"/>
<path d="M161.801 80.408L161.899 79.1684L163.238 79.2766L163.14 80.5162L161.801 80.408Z" fill="#D9D9D9"/>
<path opacity="0.1" d="M113.729 178.974C150.385 178.974 180.102 177.708 180.102 176.147C180.102 174.586 150.385 173.321 113.729 173.321C77.0717 173.321 47.3555 174.586 47.3555 176.147C47.3555 177.708 77.0717 178.974 113.729 178.974Z" fill="black"/>
<defs>
<filter id="filter0_d_5663_50066" x="63.0391" y="43.9395" width="85.1406" height="138.625" filterUnits="userSpaceOnUse" color-interpolation-filters="sRGB">
<feFlood flood-opacity="0" result="BackgroundImageFix"/>
<feColorMatrix in="SourceAlpha" type="matrix" values="0 0 0 0 0 0 0 0 0 0 0 0 0 0 0 0 0 0 127 0" result="hardAlpha"/>
<feOffset dy="2"/>
<feGaussianBlur stdDeviation="3"/>
<feColorMatrix type="matrix" values="0 0 0 0 0 0 0 0 0 0 0 0 0 0 0 0 0 0 0.2 0"/>
<feBlend mode="normal" in2="BackgroundImageFix" result="effect1_dropShadow_5663_50066"/>
<feBlend mode="normal" in="SourceGraphic" in2="effect1_dropShadow_5663_50066" result="shape"/>
</filter>
</defs>
</svg>
