<svg width="180" height="166" viewBox="0 0 180 166" fill="none" xmlns="http://www.w3.org/2000/svg">
<path d="M139.311 77.0025L139.166 91.2222L155.871 92.3949L157.039 80.3249L156.58 75.2266L139.311 77.0025Z" fill="#FFC1A4"/>
<path d="M142.352 80.703C138.183 83.286 132.019 83.8723 128.898 80.7984C126.691 78.6249 126.513 74.103 126.516 68.796C125.95 68.306 124.611 68.0953 124.048 67.6064C123.604 67.2218 123.126 66.7686 123.109 66.1822C123.092 65.5929 123.549 65.1149 123.95 64.6865C125.205 63.3518 126.242 61.8104 127.007 60.1437C129.239 52.222 134.285 45.5047 140.995 46.2968C156.116 48.0817 159.537 58.5258 159.993 62.2864C160.449 66.05 156.857 79.2938 156.857 79.2938" fill="#FFC1A4"/>
<path d="M129.474 59.9788C130.032 59.8596 130.627 59.9222 131.133 60.1527C131.639 60.3833 132.051 60.7808 132.282 61.2609" fill="#FFC1A4"/>
<path d="M132.282 61.5742C132.165 61.5742 132.053 61.5086 131.999 61.3963C131.798 60.9799 131.444 60.64 131.003 60.4382C130.563 60.2365 130.029 60.1818 129.539 60.2852C129.369 60.3209 129.202 60.2136 129.166 60.0437C129.13 59.8737 129.238 59.7078 129.408 59.671C130.036 59.5368 130.695 59.6064 131.263 59.8668C131.838 60.1291 132.3 60.5754 132.564 61.124C132.64 61.28 132.574 61.4678 132.417 61.5434C132.373 61.5652 132.328 61.5742 132.282 61.5742Z" fill="#202126"/>
<path d="M129.839 64.6372C130.426 64.7604 131.043 64.18 131.219 63.3402C131.395 62.5005 131.064 61.7163 130.478 61.5971C129.89 61.4738 129.273 62.0542 129.097 62.894C128.92 63.7338 129.255 64.5169 129.839 64.6372Z" fill="#202126"/>
<path d="M157.346 82.7603C157.346 82.7603 154.197 84.8812 150.48 83.3576C146.763 81.8341 143.246 74.2661 143.246 74.2661C143.246 74.2661 148.726 66.5451 145.377 65.0126C142.028 63.4801 139.818 66.7995 139.818 66.7995C139.818 66.7995 131.249 70.2789 135.062 58.2138C135.062 58.2138 128.351 56.3971 125.304 50.7224C121.935 44.4513 124.943 35.3956 131.903 35.8776C138.862 36.3596 140.613 42.3921 140.613 42.3921C140.613 42.3921 145.641 33.071 150.98 37.0424C156.319 41.0127 154.21 47.2748 154.21 47.2748C154.21 47.2748 163.275 45.314 167.924 55.1906C172.572 65.0673 157.346 82.7603 157.346 82.7603Z" fill="#202126"/>
<path d="M140.684 65.7691C140.684 65.7691 147.015 61.2582 148.839 66.6139C150.662 71.9696 145.82 75.7133 140.524 74.5188" fill="#FFC1A4"/>
<path d="M142.507 75.0558C141.835 75.0558 141.146 74.9792 140.455 74.8242C140.286 74.7855 140.18 74.6175 140.218 74.4485C140.255 74.2786 140.423 74.1742 140.593 74.211C143.322 74.8262 146.003 74.1097 147.592 72.3406C148.931 70.8499 149.268 68.8513 148.541 66.7136C148.133 65.517 147.456 64.7587 146.526 64.4586C144.176 63.6983 140.898 66 140.866 66.0229C140.724 66.1243 140.529 66.0905 140.427 65.9493C140.327 65.8082 140.36 65.6124 140.501 65.5111C140.645 65.4077 144.064 63.0036 146.717 63.8593C147.846 64.2231 148.66 65.1145 149.134 66.5099C149.939 68.8722 149.556 71.0914 148.058 72.759C146.726 74.2448 144.705 75.0558 142.507 75.0558Z" fill="#202126"/>
<path d="M144.013 67.2188C144.706 67.7862 145.077 68.7214 144.961 69.6089C144.846 70.4964 144.249 71.3064 143.435 71.678" fill="#FFC1A4"/>
<path d="M143.436 71.9925C143.317 71.9925 143.203 71.9249 143.15 71.8096C143.077 71.6516 143.147 71.4658 143.305 71.3932C144.021 71.0653 144.549 70.3497 144.65 69.5686C144.752 68.7874 144.424 67.9605 143.814 67.4616C143.68 67.3523 143.66 67.1536 143.771 67.0194C143.88 66.8852 144.078 66.8653 144.213 66.9757C144.986 67.6087 145.402 68.6582 145.273 69.6491C145.145 70.6399 144.475 71.5483 143.566 71.9637C143.523 71.9835 143.48 71.9925 143.436 71.9925Z" fill="#202126"/>
<path d="M129.538 74.7463C129.35 74.7463 129.178 74.7254 129.014 74.6827C128.846 74.639 128.744 74.468 128.788 74.3001C128.832 74.1321 129.003 74.0327 129.171 74.0745C129.407 74.1351 129.683 74.1321 130.038 74.0655C131.042 73.8757 131.986 73.3102 132.628 72.5152C132.736 72.38 132.935 72.3591 133.069 72.4675C133.205 72.5768 133.225 72.7745 133.117 72.9087C132.383 73.8181 131.303 74.4641 130.156 74.6817C129.93 74.7244 129.727 74.7463 129.538 74.7463Z" fill="#202126"/>
<path d="M103.695 106.23H9.53559C5.92107 106.23 2.9585 103.361 2.84421 99.7482L0.317911 20.4469C0.197659 16.6674 3.22881 13.5388 7.0093 13.5388H101.169C104.783 13.5388 107.746 16.408 107.86 20.0205L110.386 99.3219C110.508 103.101 107.477 106.23 103.695 106.23Z" fill="white"/>
<path d="M103.695 106.544H9.53536C5.72803 106.544 2.65117 103.563 2.52992 99.7577L0.00363361 20.4574C-0.0569894 18.5433 0.642657 16.7326 1.97537 15.3571C3.30709 13.9826 5.09497 13.2253 7.00907 13.2253H101.169C104.976 13.2253 108.053 16.2058 108.174 20.0112L110.7 99.3125C110.761 101.227 110.061 103.037 108.73 104.412C107.398 105.786 105.61 106.544 103.695 106.544ZM7.01006 13.8524C5.2669 13.8524 3.64002 14.5422 2.42657 15.7934C1.21411 17.0456 0.576075 18.6944 0.631729 20.4365L3.15802 99.7369C3.26833 103.201 6.06991 105.915 9.53635 105.915H103.696C105.439 105.915 107.067 105.226 108.279 103.974C109.492 102.721 110.129 101.073 110.074 99.3314L107.548 20.0301C107.438 16.5656 104.636 13.8515 101.17 13.8515H7.01006V13.8524Z" fill="#202126"/>
<path d="M85.8401 98.5394H32.454C31.3539 98.5394 30.4415 97.6866 30.367 96.5895L29.3632 81.7536C29.2817 80.5461 30.2388 79.5205 31.4503 79.5205H84.8363C85.9365 79.5205 86.8488 80.3732 86.9233 81.4704L87.9271 96.3062C88.0086 97.5147 87.0505 98.5394 85.8401 98.5394Z" fill="#1570EF"/>
<path d="M39.676 90.726C39.8835 90.726 40.0523 90.6994 40.1824 90.6461C40.3156 90.5928 40.4193 90.5238 40.4936 90.4392C40.568 90.3546 40.6191 90.259 40.647 90.1525C40.6748 90.0459 40.6888 89.9378 40.6888 89.8281C40.6888 89.7027 40.6717 89.5899 40.6377 89.4896C40.6067 89.3893 40.5509 89.3047 40.4704 89.2357C40.393 89.1668 40.2892 89.1135 40.1591 89.0759C40.0291 89.0383 39.8649 89.0195 39.6667 89.0195H38.5703V90.726H39.676ZM38.5703 86.2646V87.957H39.3879C39.5614 87.957 39.7178 87.9445 39.8572 87.9194C39.9965 87.8943 40.1142 87.8505 40.2102 87.7878C40.3094 87.7251 40.3837 87.6389 40.4332 87.5292C40.4859 87.4195 40.5122 87.2816 40.5122 87.1155C40.5122 86.9525 40.4921 86.8178 40.4518 86.7112C40.4116 86.6015 40.3496 86.5138 40.266 86.448C40.1824 86.3821 40.0755 86.3351 39.9454 86.3069C39.8185 86.2787 39.6667 86.2646 39.4901 86.2646H38.5703ZM39.4901 85.0752C39.9578 85.0752 40.3558 85.1191 40.6841 85.2069C41.0124 85.2946 41.2803 85.4184 41.4878 85.5782C41.6954 85.7381 41.8456 85.9324 41.9385 86.1612C42.0345 86.39 42.0825 86.6454 42.0825 86.9275C42.0825 87.081 42.0608 87.2299 42.0175 87.3741C41.9741 87.5151 41.906 87.6483 41.813 87.7737C41.7201 87.8959 41.6009 88.0087 41.4553 88.1122C41.3098 88.2156 41.1348 88.3049 40.9303 88.3801C41.3763 88.4898 41.7062 88.6669 41.9199 88.9113C42.1336 89.1558 42.2405 89.4724 42.2405 89.861C42.2405 90.1525 42.1847 90.4236 42.0732 90.6743C41.9617 90.925 41.7976 91.1444 41.5808 91.3324C41.3671 91.5173 41.1022 91.6631 40.7863 91.7696C40.4704 91.8731 40.1096 91.9248 39.7039 91.9248H37V85.0752H39.4901Z" fill="white"/>
<path d="M46.0493 90.6696C46.2599 90.6696 46.4473 90.6351 46.6114 90.5662C46.7787 90.4941 46.9196 90.3922 47.0342 90.2606C47.1488 90.1289 47.2355 89.9691 47.2944 89.7811C47.3563 89.5899 47.3873 89.3736 47.3873 89.1323V85.0752H48.9576V89.1323C48.9576 89.5523 48.8894 89.9378 48.7531 90.2888C48.62 90.6398 48.4279 90.9422 48.1771 91.1961C47.9262 91.45 47.6211 91.6474 47.2618 91.7884C46.9026 91.9295 46.4984 92 46.0493 92C45.5971 92 45.1914 91.9295 44.8321 91.7884C44.4728 91.6474 44.1677 91.45 43.9169 91.1961C43.666 90.9422 43.474 90.6398 43.3408 90.2888C43.2076 89.9378 43.141 89.5523 43.141 89.1323V85.0752H44.7113V89.1276C44.7113 89.3689 44.7407 89.5852 44.7996 89.7764C44.8615 89.9644 44.9498 90.1258 45.0644 90.2606C45.179 90.3922 45.3183 90.4941 45.4825 90.5662C45.6497 90.6351 45.8387 90.6696 46.0493 90.6696Z" fill="white"/>
<path d="M53.427 89.3203V91.9248H51.8568V89.3203L49.4038 85.0752H50.7882C50.9245 85.0752 51.0313 85.1081 51.1088 85.1739C51.1893 85.2366 51.2559 85.3181 51.3085 85.4184L52.2656 87.4117C52.3461 87.5684 52.4189 87.7157 52.4839 87.8536C52.549 87.9884 52.6063 88.1216 52.6558 88.2532C52.7023 88.1184 52.7549 87.9837 52.8138 87.8489C52.8757 87.711 52.947 87.5653 53.0275 87.4117L53.9752 85.4184C53.9969 85.3777 54.0232 85.3369 54.0542 85.2962C54.0852 85.2554 54.1208 85.2194 54.1611 85.188C54.2044 85.1536 54.2524 85.1269 54.3051 85.1081C54.3608 85.0862 54.4212 85.0752 54.4863 85.0752H55.88L53.427 89.3203Z" fill="white"/>
<path d="M64.0696 85.0752V91.9248H63.252C63.1312 91.9248 63.029 91.906 62.9453 91.8684C62.8648 91.8276 62.7843 91.7587 62.7037 91.6615L59.5121 87.5762C59.5245 87.6985 59.5322 87.8176 59.5353 87.9335C59.5415 88.0463 59.5446 88.1529 59.5446 88.2532V91.9248H58.1602V85.0752H58.9871C59.0552 85.0752 59.1125 85.0784 59.159 85.0846C59.2055 85.0909 59.2473 85.1034 59.2844 85.1222C59.3216 85.1379 59.3572 85.1614 59.3913 85.1927C59.4254 85.2241 59.4641 85.2664 59.5074 85.3197L62.727 89.4332C62.7115 89.3015 62.7007 89.1746 62.6945 89.0524C62.6883 88.927 62.6852 88.8095 62.6852 88.6998V85.0752H64.0696Z" fill="white"/>
<path d="M72.0264 88.4976C72.0264 88.9928 71.9412 89.4535 71.7709 89.8798C71.6036 90.306 71.3667 90.6774 71.0601 90.994C70.7535 91.3074 70.3833 91.5534 69.9497 91.732C69.5192 91.9107 69.0407 92 68.5142 92C67.9877 92 67.5076 91.9107 67.074 91.732C66.6404 91.5534 66.2687 91.3074 65.959 90.994C65.6524 90.6774 65.4139 90.306 65.2435 89.8798C65.0763 89.4535 64.9927 88.9928 64.9927 88.4976C64.9927 88.0025 65.0763 87.5418 65.2435 87.1155C65.4139 86.6893 65.6524 86.3195 65.959 86.006C66.2687 85.6926 66.6404 85.4466 67.074 85.268C67.5076 85.0893 67.9877 85 68.5142 85C69.0407 85 69.5192 85.0909 69.9497 85.2727C70.3833 85.4513 70.7535 85.6973 71.0601 86.0107C71.3667 86.3242 71.6036 86.694 71.7709 87.1202C71.9412 87.5465 72.0264 88.0056 72.0264 88.4976ZM70.419 88.4976C70.419 88.1592 70.3756 87.8552 70.2889 87.5856C70.2022 87.313 70.0767 87.0826 69.9126 86.8946C69.7515 86.7065 69.5533 86.5623 69.3179 86.4621C69.0825 86.3618 68.8146 86.3116 68.5142 86.3116C68.2107 86.3116 67.9397 86.3618 67.7012 86.4621C67.4658 86.5623 67.266 86.7065 67.1019 86.8946C66.9408 87.0826 66.8169 87.313 66.7302 87.5856C66.6435 87.8552 66.6001 88.1592 66.6001 88.4976C66.6001 88.8393 66.6435 89.1464 66.7302 89.4191C66.8169 89.6886 66.9408 89.9174 67.1019 90.1054C67.266 90.2935 67.4658 90.4377 67.7012 90.5379C67.9397 90.6351 68.2107 90.6837 68.5142 90.6837C68.8146 90.6837 69.0825 90.6351 69.3179 90.5379C69.5533 90.4377 69.7515 90.2935 69.9126 90.1054C70.0767 89.9174 70.2022 89.6886 70.2889 89.4191C70.3756 89.1464 70.419 88.8393 70.419 88.4976Z" fill="white"/>
<path d="M82 85.0752L79.9094 91.9248H78.4878L77.2148 87.6797C77.19 87.6138 77.1668 87.5418 77.1451 87.4634C77.1235 87.3819 77.1018 87.2973 77.0801 87.2095C77.0584 87.2973 77.0367 87.3819 77.0151 87.4634C76.9934 87.5418 76.9701 87.6138 76.9454 87.6797L75.6538 91.9248H74.2322L72.1416 85.0752H73.461C73.5973 85.0752 73.7103 85.1066 73.8002 85.1692C73.8931 85.2319 73.9535 85.315 73.9813 85.4184L74.9105 88.9913C74.9384 89.1041 74.9663 89.2279 74.9941 89.3627C75.022 89.4943 75.0499 89.6322 75.0778 89.7764C75.1335 89.4818 75.2016 89.2201 75.2822 88.9913L76.3786 85.4184C76.4065 85.3306 76.4653 85.2523 76.5551 85.1833C76.648 85.1113 76.7595 85.0752 76.8896 85.0752H77.3542C77.4905 85.0752 77.6004 85.1081 77.684 85.1739C77.7677 85.2366 77.8312 85.3181 77.8745 85.4184L78.9616 88.9913C79.0422 89.2107 79.1103 89.4598 79.1661 89.7388C79.1908 89.5977 79.2156 89.4661 79.2404 89.3439C79.2683 89.2185 79.2961 89.101 79.324 88.9913L80.2532 85.4184C80.278 85.3275 80.3368 85.2476 80.4297 85.1786C80.5226 85.1097 80.6341 85.0752 80.7642 85.0752H82Z" fill="white"/>
<path d="M73.702 71.115C73.7746 73.3733 71.9636 75.2435 69.7041 75.2435H14.8034C12.6443 75.2435 10.8748 73.53 10.8054 71.372L9.33631 25.6637C9.26372 23.4053 11.0747 21.5352 13.3342 21.5352H68.2349C70.3941 21.5352 72.1635 23.2487 72.2329 25.4067L73.702 71.115Z" fill="#EEEFF4"/>
<path fill-rule="evenodd" clip-rule="evenodd" d="M21 62.0861C20.9989 62.4337 21.1099 62.7729 21.3173 63.0562L21.422 63.1979C21.5317 63.332 21.6586 63.4521 21.7995 63.5551C21.8471 63.589 21.8947 63.6228 21.9455 63.6536L22.1041 63.7429C22.2726 63.8354 22.4544 63.9029 22.6435 63.9431C23.1482 64.0544 23.6767 64.0014 24.1473 63.7922L25.28 63.1948L25.3816 63.1393C25.8385 62.9145 26.289 62.6743 26.7459 62.4526L29.3348 61.2731L30.6832 60.728C30.8323 60.6695 31.0005 60.6172 31.1401 60.5586L31.6001 60.3923C31.6826 60.3646 31.7587 60.3431 31.8381 60.3123C32.1553 60.1953 32.4726 60.1059 32.7899 60.0043C33.2753 59.8473 34.0304 59.6471 34.5285 59.5331C35.4218 59.3166 36.3308 59.1663 37.2476 59.0835C37.6029 59.0558 37.952 59.0281 38.3041 59.0312C38.3739 59.0312 38.4025 59.0312 38.4596 59.0312C38.5738 59.0312 38.65 59.0312 38.761 59.0312L40.249 59.1266C40.6202 59.1759 40.9882 59.2221 41.3563 59.2898C41.7243 59.3576 42.0606 59.4161 42.4033 59.4993L42.9205 59.6224C43.425 59.7456 43.9008 59.8935 44.3926 60.0351L44.8781 60.1891C45.0335 60.2445 45.1953 60.2907 45.3476 60.3462C45.8553 60.5186 46.4708 60.7373 46.953 60.9405L47.6256 61.2146C47.7018 61.2423 47.7716 61.2731 47.8414 61.3039L49.3738 61.9814C49.4468 62.0091 49.5135 62.0492 49.5833 62.08L49.8022 62.1816L51.7978 63.1701L51.9056 63.2287L52.1087 63.3303L52.2103 63.3857C52.4958 63.5212 52.756 63.6937 53.0542 63.8015C53.6043 63.9929 54.2089 63.9741 54.7453 63.7491C54.8852 63.6894 55.019 63.6173 55.1451 63.5335C55.4672 63.318 55.7191 63.0178 55.8716 62.6682C55.96 62.4568 56.0036 62.2304 55.9998 62.0023C55.996 61.7743 55.9448 61.5493 55.8494 61.3409C55.7796 61.1715 55.6686 60.9467 55.5924 60.7681C55.5163 60.5894 55.4274 60.3831 55.3354 60.1922C55.2434 60.0012 55.1672 59.8011 55.0752 59.607C55.0276 59.5116 54.9896 59.4192 54.9452 59.3206L54.6881 58.7448L54.5613 58.4584C54.5169 58.3598 54.4788 58.2674 54.4312 58.1689L53.657 56.4351C53.6158 56.3365 53.5745 56.2472 53.5301 56.1456L52.756 54.4118C52.6672 54.2178 52.5846 54.0237 52.4958 53.8297L51.2267 50.9411C50.9792 50.3559 50.6969 49.7862 50.4494 49.2011C50.3669 49.0102 50.2717 48.8162 50.1924 48.6252C49.9069 47.9446 49.5769 47.2825 49.2913 46.6019C49.0058 45.9213 48.6568 45.2561 48.3871 44.5725L47.8668 43.4145C47.8255 43.3191 47.7811 43.2267 47.7399 43.1251L46.8388 41.1048C46.7531 40.9078 46.6675 40.723 46.5787 40.529L45.4206 37.9236C45.1636 37.3447 44.9098 36.7626 44.6433 36.1898L43.739 34.1604C43.5264 33.6769 43.3044 33.2026 43.1045 32.7191L41.9433 30.1138C41.6006 29.3439 41.2643 28.574 40.9121 27.8041C40.8005 27.511 40.6591 27.2293 40.4901 26.9633C40.3078 26.6933 40.0607 26.4703 39.7699 26.3136C39.5007 26.1665 39.2061 26.0684 38.9006 26.0241C38.2562 25.9347 37.6015 26.0963 37.0794 26.4737L36.9589 26.5722C36.8844 26.6364 36.8144 26.7053 36.7495 26.7786C36.7154 26.8127 36.6846 26.8498 36.6575 26.8894C36.4846 27.0948 36.3405 27.3216 36.2292 27.5639C36.0102 28.0381 35.804 28.5247 35.5946 29.002L35.4646 29.2884C35.3408 29.5964 35.2012 29.8674 35.0775 30.16C34.9157 30.548 34.7316 30.9268 34.5635 31.3117C34.5413 31.3641 34.5254 31.401 34.5 31.4534C34.4747 31.5058 34.4556 31.5519 34.4334 31.5981C34.4112 31.6443 34.3921 31.6967 34.3699 31.749L33.9194 32.7591C33.8718 32.8608 33.8338 32.9532 33.7862 33.0671C33.4372 33.8308 33.0977 34.6069 32.7582 35.3768L32.2378 36.5347L32.111 36.8242C32.0665 36.9166 32.0253 37.0121 31.9809 37.1106L30.5626 40.2918C30.5214 40.3904 30.4802 40.4797 30.4357 40.5813L29.6584 42.3213C29.5632 42.5153 29.4966 42.7032 29.4014 42.8972C29.2491 43.2051 29.0334 43.7194 28.8843 44.0551L28.3703 45.2069C28.2846 45.404 28.1926 45.598 28.1101 45.7889C27.8658 46.374 27.5866 46.9438 27.336 47.5227L26.4349 49.546L26.3048 49.8355C26.1843 50.1034 26.0415 50.4514 25.9178 50.707L25.6607 51.2829C25.4545 51.7695 25.2261 52.2499 25.0262 52.7334C24.728 53.4078 24.4171 54.0761 24.1252 54.7505C23.7921 55.5266 23.424 56.2903 23.094 57.0664C23.0528 57.1649 23.002 57.2666 22.9607 57.3743C22.9195 57.4821 22.8751 57.5622 22.8307 57.6607C22.7482 57.8486 22.6657 58.058 22.5769 58.2397L22.1898 59.102C22.1517 59.1975 22.1042 59.2899 22.0629 59.3915C22.0217 59.4931 21.974 59.5824 21.9296 59.684L21.2951 61.1314C21.126 61.4299 21.0284 61.7614 21.0095 62.1015L21 62.0861ZM31.9555 52.678C31.9538 52.8067 31.9937 52.9327 32.0697 53.0383L32.111 53.0906C32.1518 53.141 32.1986 53.1865 32.2505 53.2261L32.3044 53.2631L32.3648 53.297C32.4282 53.3316 32.4966 53.3565 32.5678 53.3709C32.7563 53.4115 32.9532 53.392 33.1294 53.3154L33.5514 53.0906L33.5894 53.0691L34.1003 52.8135L35.0521 52.3731L35.5534 52.1698L35.7247 52.1052L35.8992 52.0436L35.988 52.0128C36.1023 51.9697 36.2228 51.9358 36.3402 51.8988C36.5243 51.8372 36.8034 51.7633 36.9906 51.7202C37.3253 51.6399 37.6658 51.5843 38.0091 51.5539C38.1392 51.5539 38.2693 51.5323 38.4025 51.5323H38.5738L39.129 51.5693C39.2686 51.5878 39.4051 51.6032 39.5447 51.6309C39.6843 51.6586 39.8048 51.6771 39.9349 51.7079L40.1285 51.7541C40.3157 51.8003 40.4933 51.8557 40.6774 51.9081L40.8582 51.9666L41.0358 52.0251C41.223 52.0898 41.4547 52.1698 41.6355 52.2468L41.8862 52.3484L41.9655 52.3823L42.5397 52.6348C42.5652 52.649 42.5917 52.6614 42.619 52.6718L42.6983 52.7118L43.444 53.0814C43.459 53.086 43.473 53.0933 43.4853 53.1029L43.5614 53.1399L43.5994 53.1615C43.7073 53.2107 43.8025 53.2754 43.9167 53.3154C44.1228 53.389 44.3501 53.3824 44.5513 53.297C44.6026 53.2733 44.6524 53.2466 44.7004 53.2169C44.8201 53.1361 44.9136 53.024 44.9701 52.8935C45.0039 52.815 45.0212 52.7307 45.0212 52.6456C45.0212 52.5605 45.0039 52.4763 44.9701 52.3977C44.9415 52.3331 44.9003 52.2499 44.8717 52.1821C44.8432 52.1144 44.8114 52.0374 44.7765 51.9666C44.7416 51.8957 44.713 51.8218 44.6781 51.7479C44.6432 51.674 44.6464 51.6802 44.6306 51.6401L44.5354 51.4276C44.5195 51.3876 44.5037 51.3537 44.4878 51.3199L44.4402 51.2121L44.1515 50.5623C44.1325 50.5253 44.1198 50.4914 44.1008 50.4545L43.812 49.8078L43.7169 49.5891L43.2346 48.5113C43.1426 48.2926 43.0378 48.0771 42.9458 47.8615C42.9141 47.7876 42.8793 47.7167 42.8475 47.6459C42.7428 47.3903 42.6191 47.1439 42.5112 46.8883C42.4033 46.6327 42.2796 46.3864 42.1717 46.1307L41.9813 45.6965C41.9813 45.6626 41.9464 45.6257 41.9306 45.5887L41.5942 44.8342L41.4991 44.6187L41.0644 43.6455C40.9692 43.4299 40.8741 43.2113 40.7757 42.9957L40.4362 42.2381C40.3569 42.0595 40.2744 41.8809 40.1983 41.6992L39.7636 40.7261C39.6367 40.4397 39.5098 40.1502 39.3797 39.8638C39.3361 39.7568 39.283 39.6538 39.221 39.5558C39.1522 39.4552 39.0599 39.3718 38.9514 39.3125C38.8535 39.2577 38.7459 39.2212 38.6341 39.2047C38.515 39.1882 38.3937 39.1946 38.2772 39.2237C38.1607 39.2528 38.0512 39.3039 37.9551 39.3741L37.9107 39.408C37.879 39.4357 37.86 39.4573 37.8314 39.485C37.8029 39.5127 37.8092 39.5158 37.7965 39.5281C37.7389 39.6071 37.692 39.693 37.6569 39.7837C37.5744 39.9623 37.4983 40.144 37.4189 40.3226L37.3714 40.4304C37.3238 40.5382 37.2698 40.646 37.2254 40.7538C37.181 40.8616 37.0953 41.0402 37.0319 41.1849C37.0258 41.2029 37.0184 41.2204 37.0096 41.2373C37.0096 41.2588 36.9906 41.2742 36.9842 41.2927C36.9771 41.3117 36.9687 41.3303 36.9589 41.3481L36.7907 41.7269L36.7432 41.8347C36.6131 42.1211 36.4861 42.4106 36.356 42.7001L36.1657 43.1312C36.1467 43.1682 36.1339 43.2051 36.1149 43.239L36.0674 43.3468L35.5375 44.5355L35.4899 44.6433L35.198 45.2931C35.1663 45.367 35.1377 45.4378 35.1028 45.5117C35.0679 45.5857 34.9664 45.8197 34.9093 45.9429L34.7189 46.374C34.6872 46.4479 34.6523 46.5188 34.6206 46.5927C34.5286 46.8083 34.4239 47.0208 34.3319 47.2394L33.9955 47.9939C33.9797 48.0339 33.9638 48.0678 33.948 48.1017C33.9004 48.2033 33.8496 48.3327 33.802 48.4281L33.7069 48.6437C33.6275 48.8254 33.5419 49.004 33.4625 49.1857C33.3515 49.4382 33.2373 49.6877 33.1262 49.9402C33.0152 50.1927 32.8661 50.5161 32.7423 50.8056L32.6916 50.9164L32.644 51.0242C32.6122 51.092 32.5805 51.172 32.5488 51.2398L32.4028 51.5631C32.4028 51.597 32.3711 51.6309 32.3553 51.6679L32.3076 51.7787L32.0665 52.3207C32.0018 52.432 31.9649 52.5565 31.9587 52.6841L31.9555 52.678Z" fill="#FC3A52"/>
<path d="M100.017 28.828H79.9827C79.8088 28.828 79.6687 28.6879 79.6687 28.514C79.6687 28.3401 79.8088 28.2 79.9827 28.2H100.017C100.191 28.2 100.331 28.3401 100.331 28.514C100.331 28.6879 100.19 28.828 100.017 28.828Z" fill="#EEEFF4"/>
<path d="M100.316 34.997H80.2813C80.1074 34.997 79.9673 34.8569 79.9673 34.6829C79.9673 34.509 80.1074 34.3689 80.2813 34.3689H100.316C100.49 34.3689 100.63 34.509 100.63 34.6829C100.629 34.8569 100.489 34.997 100.316 34.997Z" fill="#EEEFF4"/>
<path d="M100.614 41.1679H80.5797C80.4057 41.1679 80.2656 41.0278 80.2656 40.8538C80.2656 40.6799 80.4057 40.5398 80.5797 40.5398H100.614C100.788 40.5398 100.928 40.6799 100.928 40.8538C100.928 41.0268 100.788 41.1679 100.614 41.1679Z" fill="#EEEFF4"/>
<path d="M100.913 47.3381H80.879C80.7051 47.3381 80.5649 47.1979 80.5649 47.024C80.5649 46.8501 80.7051 46.71 80.879 46.71H100.913C101.087 46.71 101.227 46.8501 101.227 47.024C101.227 47.1979 101.086 47.3381 100.913 47.3381Z" fill="#EEEFF4"/>
<path d="M101.213 53.5075H81.1786C81.0046 53.5075 80.8645 53.3674 80.8645 53.1934C80.8645 53.0195 81.0046 52.8794 81.1786 52.8794H101.213C101.387 52.8794 101.527 53.0195 101.527 53.1934C101.527 53.3674 101.386 53.5075 101.213 53.5075Z" fill="#EEEFF4"/>
<path d="M103.966 71.0215H78.5054L78.1257 58.7488H103.586L103.966 71.0215Z" fill="#EEEFF4"/>
<path d="M176.723 107.15C176.723 107.15 182.296 139.138 171.098 145.339C159.158 151.951 128.782 130.446 128.782 130.446L134.44 113.518L159.993 126.318L161.636 111.327L176.723 107.15Z" fill="#FFC1A4"/>
<path d="M179.684 114.847L177.077 100.894C176.401 92.8821 169.701 86.7234 161.66 86.7234H159.72L154.916 117.685C163.391 119.033 174.921 117.995 179.684 114.847Z" fill="#FC3A52"/>
<path d="M157.621 86.8753L137.82 89.7852C131.127 90.7691 125.403 95.1131 122.655 101.296L107.239 153.832C123.845 167.944 141.412 169.436 166.747 159.65L173.34 102.993C174.949 93.6711 166.98 85.4999 157.621 86.8753Z" fill="#FC3A52"/>
<path d="M166.747 159.962C166.735 159.962 166.723 159.961 166.71 159.96C166.539 159.94 166.415 159.784 166.435 159.612L173.028 102.955C173.048 102.783 173.205 102.658 173.376 102.68C173.548 102.7 173.671 102.856 173.651 103.028L167.058 159.685C167.04 159.845 166.905 159.962 166.747 159.962Z" fill="white"/>
<path d="M134.441 127.263C134.441 127.263 124.997 156.241 107.24 156.438C96.5966 156.557 74.5059 130.84 74.5059 130.84L74.5089 130.837L71.5145 128.962C69.4623 128.942 63.1168 125.95 60.3977 121.648C57.6816 117.35 60.0528 115.508 60.0528 115.508C57.3109 111.316 61.1251 109.262 61.1251 109.262C58.6933 104.743 63.888 103.746 63.888 103.746C63.888 103.746 61.4034 99.8535 60.6412 98.5804C59.8789 97.3083 56.2147 91.5451 59.1226 90.4211C62.0295 89.2961 71.601 101.468 71.601 101.468C71.601 101.468 75.7234 99.3059 80.9489 105.393C83.7783 108.692 86.0273 113.611 87.2735 116.727L87.2765 116.73L106.811 130.684L117.012 110.744L134.441 127.263Z" fill="#FFC1A4"/>
<path d="M137.164 89.8933C137.164 89.8933 144.115 100.285 142.564 109.32C141.012 118.354 133.361 133.478 133.361 133.478C123.225 128.471 114.974 125.441 111.782 113.975L119.067 101.894C122.538 96.1365 128.181 92.0201 134.723 90.4717L137.164 89.8933Z" fill="#FC3A52"/>
<path d="M133.36 133.791C133.313 133.791 133.265 133.781 133.221 133.758C132.319 133.313 131.432 132.883 130.562 132.461C121.545 128.091 114.425 124.64 111.479 114.058C111.456 113.974 111.468 113.886 111.513 113.811L118.797 101.73C118.887 101.581 119.08 101.533 119.229 101.624C119.377 101.713 119.424 101.906 119.335 102.055L112.121 114.02C115.013 124.227 122 127.613 130.836 131.897C131.618 132.275 132.412 132.66 133.219 133.058L140.113 119.245C140.19 119.09 140.378 119.027 140.534 119.104C140.689 119.182 140.753 119.37 140.675 119.526L133.642 133.617C133.586 133.727 133.475 133.791 133.36 133.791Z" fill="white"/>
<path d="M71.6006 101.468C71.6006 101.468 74.1309 105.979 74.5353 106.363C75.554 107.327 77.4105 106.909 77.4105 106.909" fill="white"/>
<path d="M76.4801 107.314C75.8102 107.314 74.9397 107.179 74.3195 106.591C73.9011 106.194 71.7535 102.381 71.3261 101.621C71.2417 101.47 71.2953 101.278 71.4464 101.194C71.5984 101.108 71.7892 101.163 71.8737 101.314C73.0872 103.478 74.5083 105.903 74.7508 106.135C75.6383 106.975 77.3238 106.607 77.3407 106.603C77.5087 106.564 77.6776 106.67 77.7164 106.84C77.7542 107.009 77.6488 107.177 77.4789 107.216C77.4421 107.224 77.0277 107.314 76.4801 107.314Z" fill="#202126"/>
<path d="M63.886 103.746C63.886 103.746 65.5993 105.445 67.1417 106.627Z" fill="white"/>
<path d="M67.1417 106.941C67.0751 106.941 67.0075 106.92 66.9509 106.877C65.4095 105.696 63.6822 103.987 63.6653 103.97C63.5421 103.847 63.5411 103.649 63.6633 103.525C63.7856 103.402 63.9843 103.401 64.1076 103.523C64.1245 103.54 65.8249 105.222 67.3335 106.378C67.4716 106.483 67.4975 106.681 67.3921 106.818C67.3295 106.899 67.2361 106.941 67.1417 106.941Z" fill="#202126"/>
<path d="M61.1255 109.263C61.1255 109.263 62.6132 111.32 64.9318 112.185Z" fill="white"/>
<path d="M64.9306 112.498C64.8938 112.498 64.8571 112.492 64.8213 112.478C62.4421 111.591 60.9335 109.533 60.8708 109.447C60.7695 109.307 60.8013 109.111 60.9414 109.009C61.0825 108.907 61.2783 108.938 61.3797 109.078C61.3946 109.098 62.8446 111.071 65.0409 111.89C65.2039 111.95 65.2864 112.131 65.2248 112.293C65.1781 112.42 65.0578 112.498 64.9306 112.498Z" fill="#202126"/>
<path d="M60.053 115.51C60.053 115.51 61.2992 116.547 62.7472 117.3Z" fill="white"/>
<path d="M62.7473 117.615C62.6986 117.615 62.6489 117.604 62.6022 117.579C61.1412 116.819 59.9039 115.796 59.8523 115.752C59.7191 115.642 59.7012 115.444 59.8115 115.31C59.9228 115.177 60.1206 115.159 60.2538 115.269C60.2657 115.279 61.4931 116.294 62.8924 117.022C63.0464 117.103 63.106 117.292 63.0255 117.446C62.9699 117.553 62.8606 117.615 62.7473 117.615Z" fill="#202126"/>
<path d="M55.125 151.216H22.964C21.0956 151.216 19.5313 149.802 19.3425 147.943L17.019 125.007C16.8013 122.862 18.4848 121 20.6404 121H52.8015C54.6698 121 56.2341 122.414 56.4229 124.272L58.7465 147.209C58.9631 149.353 57.2806 151.216 55.125 151.216Z" fill="#E8F5FF"/>
<path fill-rule="evenodd" clip-rule="evenodd" d="M31.4707 130.514L32.9381 138.742H43.8028C44.4514 138.742 45.0113 138.288 45.1448 137.653L46.2988 132.168C46.3183 132.075 46.3281 131.98 46.3281 131.885C46.3281 131.128 45.7141 130.514 44.9567 130.514H31.4707Z" stroke="#6AA8FF" stroke-width="1.3"/>
<ellipse cx="35.6284" cy="144.502" rx="1.09714" ry="1.09714" stroke="#6AA8FF" stroke-width="1.3"/>
<circle cx="43.3086" cy="144.502" r="1.09714" stroke="#6AA8FF" stroke-width="1.3"/>
<path d="M27.3999 126.399H28.6117C29.6749 126.399 30.5851 127.162 30.7719 128.208L32.8672 139.951C33.054 140.997 33.9642 141.759 35.0274 141.759H44.4056V141.759" stroke="#6AA8FF" stroke-width="1.3" stroke-linecap="round" stroke-linejoin="round"/>
<path d="M131.137 24.1557L120.188 19.1812L131.41 18.3249L131.137 24.1557Z" stroke="#FFCB50" stroke-width="0.6"/>
<path d="M118.786 0.313477L116.413 17.6239L129.632 7.24442L118.786 0.313477Z" fill="white"/>
<path d="M116.413 17.9384C116.359 17.9384 116.306 17.9245 116.257 17.8967C116.146 17.8331 116.085 17.7089 116.102 17.5817L118.475 0.271205C118.49 0.164865 118.558 0.073433 118.654 0.0287108C118.751 -0.0160114 118.865 -0.00806009 118.955 0.0495818L129.802 6.98052C129.887 7.03518 129.942 7.1286 129.947 7.22997C129.952 7.33134 129.907 7.42973 129.827 7.49234L116.608 17.8719C116.55 17.9156 116.482 17.9384 116.413 17.9384ZM119.031 0.842656L116.829 16.8979L129.09 7.27072L119.031 0.842656Z" fill="#FFCB50"/>
<path d="M62.3125 151.272C63.3133 153.843 65.2949 156.018 67.7616 157.252C70.2283 158.486 73.1571 158.768 75.8145 158.028C77.6233 157.524 79.4161 156.428 80.0741 154.669C80.732 152.91 79.7073 150.527 77.8409 150.326C76.1246 150.141 74.6498 151.896 74.6389 153.622C74.6279 155.349 75.7062 156.912 77.0021 158.053C79.1935 159.983 82.1362 161.037 85.0551 160.939C87.9739 160.841 90.8381 159.589 92.8943 157.515" fill="white"/>
<path d="M84.6775 161.26C81.8054 161.26 78.9521 160.189 76.7955 158.29C76.7319 158.234 76.6653 158.173 76.5957 158.109C76.3711 158.19 76.1386 158.265 75.9001 158.331C73.171 159.093 70.1548 158.801 67.6225 157.533C65.0903 156.266 63.048 154.025 62.0214 151.387C61.9588 151.225 62.0383 151.043 62.2003 150.98C62.3613 150.917 62.5441 150.997 62.6067 151.159C63.5777 153.655 65.5087 155.773 67.9038 156.972C70.2989 158.17 73.1522 158.446 75.7321 157.727C75.8583 157.692 75.9826 157.655 76.1038 157.615C75.2511 156.692 74.3159 155.296 74.3259 153.622C74.3328 152.588 74.8297 151.506 75.6228 150.797C76.2837 150.208 77.0807 149.93 77.8748 150.015C78.7374 150.108 79.4927 150.614 80.0036 151.442C80.6237 152.447 80.7638 153.726 80.3683 154.781C79.8873 156.068 78.7762 157.143 77.2397 157.845C79.3715 159.709 82.2188 160.72 85.0442 160.626C87.8885 160.53 90.6682 159.315 92.6708 157.295C92.793 157.172 92.9918 157.171 93.115 157.293C93.2383 157.415 93.2393 157.614 93.117 157.737C91.0022 159.87 88.0674 161.152 85.0661 161.253C84.9369 161.258 84.8067 161.26 84.6775 161.26ZM77.5955 150.627C77.0519 150.627 76.5073 150.849 76.0412 151.265C75.3763 151.859 74.9589 152.763 74.954 153.625C74.944 155.212 75.9259 156.544 76.7448 157.376C78.2524 156.747 79.3347 155.753 79.7819 154.559C80.1049 153.695 79.9827 152.601 79.4709 151.771C79.0644 151.112 78.4741 150.71 77.8092 150.638C77.7376 150.631 77.6661 150.627 77.5955 150.627Z" fill="#CDCECE"/>
<path d="M155.294 12.6013C155.294 12.5758 155.294 12.5631 155.307 12.5376C155.613 10.191 157.705 8.44387 160.064 8.52039C160.408 8.53314 160.74 8.58416 161.072 8.66067C162.041 5.98255 164.693 4.10785 167.754 4.32466C171.006 4.55421 173.633 7.21958 173.837 10.4716C173.914 11.7596 173.62 12.9712 173.059 14.0169" fill="white"/>
<path d="M173.034 14.3225C172.983 14.3225 172.944 14.3098 172.893 14.2843C172.753 14.2078 172.702 14.0292 172.779 13.8889C173.34 12.8559 173.595 11.6827 173.531 10.4966C173.34 7.37215 170.84 4.84706 167.716 4.6175C164.897 4.41345 162.27 6.12236 161.326 8.76223C161.275 8.90251 161.122 8.97903 160.982 8.94077C160.676 8.86425 160.357 8.81324 160.038 8.80049C157.819 8.72397 155.868 10.3819 155.588 12.5626L155.575 12.6136C155.562 12.7667 155.409 12.8942 155.256 12.8687C155.103 12.8559 154.988 12.7029 155.001 12.5499L155.014 12.4861C155.345 10.012 157.552 8.13733 160.064 8.21385C160.332 8.2266 160.612 8.2521 160.88 8.30312C161.99 5.54847 164.783 3.80131 167.767 4.01811C171.172 4.26042 173.914 7.02782 174.118 10.4456C174.194 11.7337 173.914 13.0217 173.302 14.144C173.238 14.2588 173.136 14.3225 173.034 14.3225Z" fill="#CDCECE"/>
<path d="M157.309 13.1601C157.309 11.7318 158.47 10.5713 159.898 10.5713Z" fill="white"/>
<path d="M157.309 13.4411C157.143 13.4411 157.016 13.3136 157.016 13.1478C157.016 11.5664 158.304 10.2656 159.898 10.2656C160.064 10.2656 160.191 10.3932 160.191 10.5589C160.191 10.7247 160.064 10.8523 159.898 10.8523C158.635 10.8523 157.602 11.8853 157.602 13.1478C157.602 13.3136 157.462 13.4411 157.309 13.4411Z" fill="#CDCECE"/>
<path d="M167.244 6.41528C168.698 6.41528 169.999 7.1167 170.815 8.18795Z" fill="white"/>
<path d="M170.815 8.49407C170.726 8.49407 170.636 8.45581 170.585 8.37929C169.782 7.32079 168.57 6.7214 167.244 6.7214C167.078 6.7214 166.951 6.59388 166.951 6.42809C166.951 6.2623 167.078 6.13477 167.244 6.13477C168.749 6.13477 170.139 6.82343 171.044 8.03496C171.146 8.16249 171.121 8.34103 170.993 8.44306C170.942 8.46856 170.879 8.49407 170.815 8.49407Z" fill="#CDCECE"/>
</svg>
