<svg width="200" height="170" viewBox="0 0 200 170" fill="none" xmlns="http://www.w3.org/2000/svg">
    <path opacity="0.5"
        d="M164.204 116.109C163.371 116.676 162.304 116.706 161.449 116.172C156.918 113.349 149.961 108.955 148.061 106.781C144.976 103.255 140.169 96.1439 146.746 91.3654C147.947 90.4939 149.992 90.1923 151.367 90.6165C152.532 90.9777 153.555 91.7399 154.489 92.5319C155.407 93.3073 156.202 94.2186 156.959 95.1663C158.048 96.5349 158.305 94.6461 158.355 93.6917C158.587 89.4136 155.395 86.4909 153.396 83.0843C151.778 80.3206 150.1 77.3647 149.647 74.1007C149.188 70.7803 150.056 67.3936 151.329 64.3715C152.082 62.5787 153.007 60.8324 154.308 59.424C156.139 57.449 158.571 56.5576 161.177 56.5907C164.828 56.6338 168.273 58.1648 170.522 61.2433C172.973 64.5968 173.644 69.5376 171.975 73.4181C170.861 75.9995 169.36 78.2959 168.587 81.0662C167.836 83.7703 167.475 87.2365 169.391 89.5097C171.573 92.1011 175.734 89.1684 178.388 89.46C180.681 89.7119 182.489 92.4855 182.27 94.8051C181.9 98.7551 176.174 107.967 164.204 116.109Z"
        fill="#E3E3E4" />
    <g opacity="0.2">
        <path opacity="0.2" d="M162.234 67.3604C162.234 67.8508 162.234 131.727 162.234 131.727"
            stroke="#696867" stroke-width="0.5" stroke-linecap="round" stroke-linejoin="round" />
        <path opacity="0.2" d="M167.713 68.832L162.333 74.4754" stroke="#696867" stroke-width="0.5"
            stroke-linecap="round" stroke-linejoin="round" />
        <path opacity="0.2" d="M154.097 73.2559L162.105 81.6927" stroke="#696867" stroke-width="0.5"
            stroke-linecap="round" stroke-linejoin="round" />
        <path opacity="0.2" d="M172.565 95.8594L162.333 103.441" stroke="#696867" stroke-width="0.5"
            stroke-linecap="round" stroke-linejoin="round" />
        <path opacity="0.2" d="M152.063 99.7891L162.08 107.815" stroke="#696867" stroke-width="0.5"
            stroke-linecap="round" stroke-linejoin="round" />
    </g>
    <g opacity="0.4">
        <path opacity="0.5"
            d="M110.94 161.932C108.999 156.753 107.637 146.834 125.789 146.99C125.789 146.99 130.789 138.835 139.196 139.581C139.196 139.581 140.786 122.853 158.627 123.062C176.468 123.27 177.035 141.168 177.035 141.168C177.035 141.168 194.762 141.168 194.99 154.191C194.99 154.191 195.19 158.35 193.654 161.77C192.894 163.463 191.117 164.57 189.148 164.583C177.415 164.659 128.636 164.977 115.598 165.001C113.499 165.004 111.631 163.778 110.94 161.932Z"
            fill="#E3E3E4" />
    </g>
    <g opacity="0.4">
        <path opacity="0.5"
            d="M5.41121 149.492C6.82038 144.217 11.8491 139.415 25.0636 138.663C25.0636 138.663 23.3789 119.357 41.3561 118.866C41.3561 118.866 56.3377 119.257 56.154 136.896C56.154 136.896 69.7327 137.486 70.9519 146.009C70.9519 146.009 90.2433 139.935 85.7498 164.924C85.7498 164.924 37.0495 164.832 16.8397 164.719C9.23022 164.682 3.36237 157.163 5.41121 149.492Z"
            fill="#E3E3E4" />
    </g>
    <g opacity="0.5">
        <path opacity="0.5"
            d="M41.3564 119.24C40.818 119.227 40.2734 119.164 39.7224 119.045C37.3062 118.531 35.2859 117.149 33.5505 115.728C30.7005 113.391 29.0887 110.303 28.9873 106.996C28.9177 104.706 31.7297 103.775 32.3535 101.737C33.3479 98.4894 29.2027 95.971 26.815 94.0225C25.2823 92.7732 22.2265 90.1851 24.9118 88.6277C28.2558 86.6858 34.2504 84.8864 34.0129 82.2487C34.0129 82.2487 34.453 77.8646 31.0298 74.7529C31.0298 74.7529 28.81 70.6704 32.4137 68.9538C36.068 67.2141 36.942 62.8598 36.7362 59.6753C36.5304 56.5272 37.8889 53.5746 42.3982 53.6939C48.5036 53.8563 46.4421 59.5527 46.8759 62.6974C47.3794 66.326 51.6702 67.9431 52.5886 71.2569C52.8894 72.3438 52.9464 73.4937 52.5981 74.5707C52.0661 76.201 50.3624 77.3145 49.4852 78.8255C48.3959 80.7078 48.2692 83.2329 50.4764 84.6147C54.5741 87.1829 62.1298 89.128 56.6356 93.5685C56.6356 93.5685 50.0837 97.4522 50.4606 100.09C50.8279 102.678 53.4689 104.776 53.6241 107.271C53.7096 108.673 53.1871 110.184 52.5727 111.469C50.8279 115.098 46.4959 119.383 41.3564 119.24Z"
            fill="#E3E3E4" />
    </g>
    <path
        d="M108.907 25.375C108.907 25.375 108.473 39.2862 117.451 41.407L112.729 57.2899L94.5685 54.9272L92.0479 48.7437L95.8985 40.4394C95.8985 40.4394 97.7827 39.1967 96.8264 36.4695L108.907 25.375Z"
        fill="#F9C1A0" />
    <path
        d="M90.3157 14.7202C90.3157 14.7202 86.6518 34.8182 96.2975 36.9092C96.2975 36.9092 104.908 37.9232 108.033 26.0102C108.033 26.0102 110.988 26.8254 112.204 23.558C112.204 23.558 113.854 18.3753 109.946 20.0123C109.946 20.0123 112.704 13.4742 105.266 12.0129C105.266 12.0129 102.504 11.5522 98.1405 13.7493C97.3045 14.1668 96.44 14.5015 95.5249 14.6473C94.046 14.876 91.253 15.1841 90.3157 14.7202Z"
        fill="#F9C1A0" />
    <path
        d="M94.0378 103C96.5553 103 99.0697 103 101.587 103C101.682 103.013 101.78 103.036 101.875 103.036C103.959 103.073 106.04 103.093 108.12 103.146C110.517 103.205 112.911 103.272 115.305 103.374C118.12 103.49 120.939 103.64 123.748 103.888C125.822 104.074 127.899 104.239 129.935 104.72C133.973 105.671 136.674 108.216 137.934 112.342C138.599 114.529 138.834 116.815 139.077 119.092C139.141 119.678 139.147 120.268 139.277 120.841C139.277 129.311 139.277 137.775 139.277 146.245C139.207 146.331 139.22 146.437 139.214 146.536C139.008 149.022 138.758 151.504 138.226 153.939C137.184 158.704 134.403 161.693 129.812 162.724C127.158 163.321 124.444 163.466 121.743 163.659C118.377 163.897 115.011 164.03 111.638 164.126C107.161 164.255 102.683 164.354 98.2052 164.341C90.0827 164.318 81.9633 164.169 73.8566 163.609C71.2726 163.427 68.6918 163.208 66.1394 162.714C63.2071 162.147 60.8701 160.607 59.1601 158.038C58.0929 156.438 57.6116 154.612 57.2886 152.723C56.8041 149.92 56.5539 147.086 56.3639 144.243C56.1201 140.575 55.9776 136.9 56.0029 133.225C56.0314 128.728 56.2087 124.245 56.6331 119.768C56.8579 117.408 57.0827 115.046 57.6971 112.759C58.8117 108.604 61.3672 105.89 65.3636 104.763C67.3238 104.21 69.3599 104.084 71.3771 103.898C74.4139 103.623 77.4571 103.474 80.5003 103.351C84.5758 103.192 88.6513 103.083 92.73 103.046C93.1512 103.053 93.5977 103.08 94.0378 103Z"
        fill="#FC3A52" />
    <path fill-rule="evenodd" clip-rule="evenodd"
        d="M85.9991 147.39C85.9963 147.682 86.0836 147.968 86.2492 148.208L86.3352 148.326C86.4252 148.438 86.5288 148.539 86.6436 148.626C86.6821 148.656 86.7224 148.684 86.764 148.71L86.8964 148.785C87.0343 148.863 87.1834 148.92 87.3384 148.953C87.7511 149.046 88.1831 149 88.5665 148.821L89.493 148.317C89.5234 148.301 89.5419 148.288 89.575 148.27C89.9482 148.081 90.3148 147.88 90.6907 147.692L92.8082 146.697L93.9106 146.24C94.0337 146.191 94.1634 146.146 94.2838 146.097L94.661 145.957C94.7285 145.934 94.7933 145.915 94.8555 145.889C95.1083 145.792 95.373 145.715 95.6298 145.625C96.0268 145.492 96.6435 145.322 97.0525 145.228C97.7825 145.045 98.5253 144.918 99.2745 144.848C99.563 144.825 99.8489 144.804 100.139 144.806C100.196 144.806 100.219 144.798 100.271 144.796C100.364 144.796 100.427 144.806 100.516 144.806L101.732 144.886C102.037 144.929 102.337 144.966 102.639 145.019C102.94 145.072 103.212 145.126 103.494 145.196L103.916 145.299C104.327 145.402 104.718 145.527 105.12 145.646L105.517 145.778C105.65 145.826 105.771 145.866 105.902 145.911C106.317 146.056 106.819 146.241 107.214 146.412L107.764 146.641C107.825 146.666 107.883 146.693 107.94 146.719L109.194 147.288C109.252 147.311 109.306 147.347 109.364 147.372C109.423 147.397 109.482 147.426 109.542 147.456L111.175 148.29C111.211 148.307 111.232 148.322 111.262 148.338L111.429 148.425C111.461 148.442 111.477 148.453 111.511 148.47C111.735 148.599 111.966 148.717 112.202 148.822C112.652 148.982 113.146 148.966 113.585 148.779C113.698 148.727 113.807 148.666 113.91 148.596C114.173 148.414 114.379 148.161 114.503 147.867C114.575 147.689 114.61 147.498 114.607 147.306C114.604 147.115 114.563 146.925 114.486 146.75C114.429 146.605 114.338 146.417 114.274 146.267C114.211 146.116 114.142 145.942 114.064 145.781C113.986 145.619 113.932 145.451 113.852 145.29C113.814 145.208 113.783 145.131 113.748 145.048L113.537 144.563C113.501 144.477 113.467 144.402 113.433 144.321C113.398 144.24 113.364 144.162 113.327 144.078L112.696 142.622C112.658 142.54 112.627 142.463 112.59 142.378L111.957 140.923C111.886 140.758 111.817 140.594 111.745 140.432L110.693 138C110.492 137.507 110.26 137.026 110.058 136.534C109.992 136.374 109.915 136.21 109.849 136.048C109.615 135.477 109.346 134.918 109.112 134.345C108.877 133.772 108.607 133.211 108.372 132.637L107.95 131.661C107.914 131.58 107.88 131.502 107.844 131.419L107.107 129.716C107.038 129.549 106.966 129.395 106.896 129.231L105.947 127.036C105.74 126.549 105.532 126.059 105.315 125.58L104.575 123.871C104.399 123.466 104.219 123.065 104.045 122.658L103.095 120.465C102.816 119.815 102.539 119.164 102.252 118.519C102.161 118.273 102.046 118.036 101.909 117.811C101.759 117.585 101.557 117.398 101.321 117.265C101.1 117.14 100.858 117.057 100.607 117.02C100.081 116.945 99.546 117.082 99.1197 117.4C99.0839 117.426 99.0561 117.454 99.023 117.48C98.961 117.534 98.9031 117.593 98.8497 117.655C98.8224 117.685 98.7972 117.716 98.7743 117.749C98.6486 117.928 98.5463 118.122 98.4699 118.326C98.2899 118.723 98.1205 119.136 97.9405 119.538C97.9061 119.619 97.8703 119.697 97.8359 119.781C97.7327 120.027 97.6202 120.268 97.5183 120.514C97.386 120.841 97.2351 121.16 97.0988 121.484C97.0802 121.528 97.0657 121.558 97.0472 121.603C97.0286 121.648 97.0088 121.686 96.9929 121.726C96.977 121.766 96.9585 121.807 96.94 121.85L96.5707 122.703C96.5337 122.789 96.5019 122.864 96.4635 122.95C96.1763 123.596 95.8997 124.247 95.6218 124.896L95.1983 125.871C95.1613 125.956 95.1295 126.033 95.0938 126.115C95.058 126.197 95.0236 126.273 94.9879 126.357L93.8285 129.035C93.7928 129.119 93.761 129.194 93.724 129.278L93.0888 130.744C93.012 130.907 92.9564 131.066 92.8796 131.23C92.7552 131.494 92.5779 131.922 92.4562 132.205L92.0366 133.175C91.9665 133.341 91.891 133.503 91.8235 133.666C91.6237 134.156 91.3947 134.636 91.1909 135.122L90.4538 136.825C90.418 136.91 90.3836 136.987 90.3492 137.067C90.2486 137.295 90.1335 137.585 90.0316 137.802L89.8225 138.286C89.6518 138.697 89.4665 139.102 89.2931 139.509C89.0509 140.077 88.7968 140.638 88.5586 141.207C88.2846 141.861 87.9842 142.503 87.7129 143.158C87.6799 143.24 87.6388 143.326 87.6057 143.407C87.5726 143.487 87.5356 143.565 87.4998 143.649C87.4324 143.806 87.3675 143.982 87.2908 144.135L86.9758 144.861C86.9427 144.942 86.9056 145.019 86.8712 145.103C86.8368 145.188 86.7998 145.265 86.7627 145.352L86.2333 146.571C86.1182 146.848 86.0004 147.045 86.0004 147.388L85.9991 147.39ZM94.9535 139.465C94.9525 139.575 94.9853 139.681 95.0474 139.771L95.0792 139.815C95.1125 139.857 95.1512 139.895 95.1943 139.927C95.2085 139.939 95.2235 139.95 95.2394 139.959L95.287 139.987C95.3386 140.016 95.3944 140.038 95.4524 140.05C95.6066 140.085 95.7679 140.069 95.9116 140.003L96.2584 139.815C96.2703 139.815 96.2769 139.803 96.2888 139.798C96.4291 139.726 96.5654 139.651 96.7057 139.581L97.4998 139.209L97.9127 139.038C97.9577 139.021 98.0067 139.004 98.0517 138.985L98.1932 138.932C98.2184 138.924 98.2409 138.918 98.266 138.907C98.36 138.871 98.4593 138.842 98.5545 138.81C98.7028 138.76 98.9344 138.697 99.0839 138.661C99.357 138.593 99.6348 138.546 99.915 138.519C100.022 138.511 100.129 138.503 100.238 138.503C100.258 138.503 100.267 138.503 100.284 138.503C100.301 138.503 100.343 138.503 100.377 138.503L100.831 138.534C100.945 138.55 101.057 138.563 101.17 138.584C101.282 138.605 101.384 138.624 101.49 138.65L101.647 138.69C101.801 138.728 101.947 138.775 102.097 138.822L102.246 138.871L102.389 138.922C102.543 138.974 102.731 139.045 102.88 139.108L103.085 139.194L103.151 139.223L103.619 139.435C103.641 139.444 103.662 139.458 103.683 139.467L103.749 139.499L104.359 139.81L104.392 139.828L104.454 139.861C104.466 139.861 104.472 139.872 104.485 139.877C104.571 139.926 104.659 139.97 104.75 140.009C104.918 140.069 105.103 140.063 105.267 139.992C105.309 139.974 105.35 139.951 105.387 139.925C105.486 139.857 105.563 139.762 105.61 139.652C105.637 139.585 105.65 139.514 105.649 139.442C105.648 139.37 105.632 139.3 105.603 139.234C105.582 139.181 105.548 139.111 105.524 139.054C105.5 138.997 105.475 138.932 105.446 138.873C105.417 138.813 105.395 138.749 105.366 138.689C105.352 138.658 105.341 138.629 105.328 138.599L105.249 138.417C105.235 138.386 105.223 138.356 105.209 138.327L105.17 138.236L104.934 137.691L104.895 137.599L104.658 137.054L104.579 136.87L104.182 135.961C104.106 135.777 104.02 135.598 103.945 135.414C103.92 135.354 103.891 135.293 103.867 135.232C103.778 135.019 103.679 134.81 103.59 134.597C103.502 134.383 103.402 134.172 103.315 133.957L103.156 133.592C103.143 133.563 103.13 133.534 103.116 133.502L102.841 132.865C102.816 132.803 102.79 132.746 102.763 132.684L102.408 131.864C102.33 131.682 102.252 131.5 102.172 131.318L101.895 130.68C101.83 130.528 101.763 130.379 101.699 130.227L101.344 129.407C101.24 129.164 101.137 128.92 101.029 128.679C100.994 128.587 100.95 128.498 100.897 128.415C100.842 128.33 100.766 128.259 100.677 128.21C100.596 128.163 100.506 128.132 100.413 128.118C100.216 128.09 100.015 128.141 99.8555 128.26L99.8198 128.29C99.7968 128.311 99.7752 128.332 99.7549 128.355C99.7449 128.367 99.7356 128.378 99.7271 128.391C99.6799 128.458 99.6416 128.53 99.6133 128.607C99.5458 128.756 99.481 128.91 99.4174 129.059L99.3777 129.149C99.3393 129.242 99.297 129.332 99.2586 129.425C99.2097 129.546 99.1528 129.665 99.1025 129.787C99.0958 129.803 99.0905 129.815 99.0826 129.831C99.0747 129.847 99.0694 129.863 99.0628 129.877L99.0429 129.923L98.9106 130.241L98.8695 130.335C98.7637 130.576 98.6591 130.819 98.5559 131.062L98.3971 131.426L98.3587 131.517L98.319 131.607L97.8862 132.609C97.8717 132.639 97.8598 132.668 97.8465 132.699L97.6083 133.247C97.5805 133.307 97.5593 133.367 97.5302 133.428C97.4839 133.529 97.4177 133.693 97.3727 133.793L97.2166 134.156C97.1901 134.217 97.161 134.278 97.1358 134.338C97.0617 134.522 96.9757 134.701 96.9002 134.885L96.625 135.522L96.5853 135.612C96.5482 135.696 96.5045 135.805 96.4662 135.886L96.3881 136.067C96.3246 136.22 96.2557 136.371 96.1896 136.525C96.0996 136.737 96.0043 136.946 95.9156 137.159C95.8137 137.404 95.7012 137.643 95.5993 137.888C95.5874 137.918 95.5715 137.95 95.5596 137.981C95.5477 138.011 95.5331 138.04 95.5199 138.071C95.4948 138.13 95.4696 138.203 95.4418 138.253L95.324 138.524C95.3121 138.554 95.2976 138.584 95.2843 138.614C95.2711 138.645 95.2579 138.675 95.2446 138.707L95.0474 139.164C94.9957 139.257 94.9659 139.361 94.9601 139.468L94.9535 139.465Z"
        fill="#FFB3B5" />
    <path opacity="0.2"
        d="M116.042 101.82L116.568 103.487C116.568 103.487 112.308 112.613 84.0269 109.028L73.4217 133.222L71.2969 122.104L75.1475 100.289L78.5992 98.9009L86.4336 95.7031L112.853 98.9009L116.042 101.82Z"
        fill="#282727" />
    <path
        d="M34.1012 139.795C34.1012 139.795 32.3532 143.155 29.9655 145.621C29.9655 145.621 29.3702 151.817 35.8492 151.817C35.8492 151.817 38.8322 147.337 39.9057 143.566L34.1012 139.795Z"
        fill="#F9C1A0" />
    <path
        d="M59.82 149.72C59.82 149.72 59.3893 152.567 57.9453 153.922C57.9453 153.922 60.8302 156.941 62.7048 156.487L65.8778 155.277C65.8778 155.277 65.9507 153.737 67.9013 149.084L59.82 149.72Z"
        fill="#F9C1A0" />
    <path
        d="M33.4674 140.08C34.1197 141.445 35.8582 144.192 39.6361 145.385C40.1618 145.548 40.7286 145.382 41.1276 144.984C45.2791 140.796 68.5542 116.883 72.294 103.284C72.294 103.284 120.38 116.582 120.814 95.3041L105.611 80.1934L65.5458 84.6206C63.6743 84.8293 62.0118 85.9659 61.084 87.6825L33.5212 138.582C33.2679 139.043 33.2394 139.609 33.4674 140.08Z"
        fill="#18181F" />
    <path
        d="M81.9268 105.455L68.9656 148.534C68.7091 149.392 68.0789 150.058 67.2651 150.333C65.8021 150.827 63.2149 151.208 59.8234 149.72C58.7467 149.249 58.1166 148.046 58.2686 146.83C58.2686 146.83 59.1806 123.694 64.7349 99.3672C74.4503 103.808 81.9268 105.455 81.9268 105.455Z"
        fill="#18181F" />
    <path
        d="M83.1846 58.6938C83.1846 58.6938 83.1846 42.569 97.0736 40.1068C97.6119 40.0141 98.1439 39.855 98.6379 39.6164L100.057 38.9238C100.057 38.9238 99.6259 52.3545 113.467 39.5269C113.467 39.5269 130.032 40.4316 128.753 62.2196L123.275 74.9942C123.275 74.9942 128.322 97.4814 121.112 95.8212L106.545 82.9936L83.7577 81.635L83.1846 58.6938Z"
        fill="#6AA8FF" />
    <path
        d="M83.1844 58.6934C83.1844 61.8646 83.3269 74.6889 83.3269 76.5016L76.8193 79.7954L77.1265 83.1987L88.7545 82.4166C91.12 82.1482 92.8649 79.9744 92.7065 77.4857L91.6679 59.3197L83.1844 58.6934Z"
        fill="#F8B797" />
    <path
        d="M118.413 63.0183C118.413 63.0183 118.011 71.9324 119.046 76.6711C119.046 76.6711 101.427 76.3463 79.0702 81.3932C78.6522 81.486 78.3767 81.9168 78.3672 82.3641L87.6424 83.5372L122.121 86.4301C125.798 86.6157 128.135 83.3715 128.249 79.5242L128.758 62.3125L118.413 63.0183Z"
        fill="#F9C1A0" />
    <path
        d="M75.5401 66.064L77.2565 84.7868C77.3356 85.6649 77.6618 86.2879 78.0386 86.2879H88.0042L85.8793 63.751H76.3191C75.3533 63.8139 75.4261 64.5463 75.5401 66.064Z"
        fill="#1B374E" />
    <path
        d="M86.5098 65.0462C86.4338 64.3469 86.4243 63.7306 85.8828 63.7505L88.0077 86.2874C88.0077 86.2874 88.2135 86.2013 88.4478 86.082L86.5098 65.0462Z"
        fill="#1F2234" />
    <path
        d="M81.427 76.2927C81.9504 76.2562 82.345 75.8035 82.3084 75.2815C82.2717 74.7596 81.8178 74.3661 81.2944 74.4026C80.771 74.4391 80.3764 74.8919 80.413 75.4138C80.4496 75.9357 80.9036 76.3292 81.427 76.2927Z"
        fill="#CAD2DD" />
    <path
        d="M13.4826 146.366L30.9152 157.782C31.9823 158.481 33.3947 158.077 33.9773 156.904C34.8228 155.207 35.8583 152.901 36.023 151.503C36.023 151.503 31.406 152.106 29.9652 145.617C29.9652 145.617 24.6261 147.085 15.6138 143.5C15.3383 143.391 15.0406 143.357 14.7524 143.414C14.2046 143.52 13.3591 143.828 12.9823 144.709C12.7416 145.286 12.9728 146.035 13.4826 146.366Z"
        fill="#100F22" />
    <path
        d="M57.9457 153.922C57.9457 153.922 54.2597 158.054 48.0213 159.343C47.312 159.489 46.6755 159.943 46.3208 160.606C46.3113 160.626 46.3018 160.642 46.2923 160.662C45.6875 161.838 46.476 163.27 47.749 163.353C51.017 163.568 61.0934 164.039 65.5299 162.157C66.3405 161.815 66.882 161.013 66.9707 160.105C67.1005 158.757 67.0562 156.696 65.8845 155.277C65.8782 155.281 60.8274 156.49 57.9457 153.922Z"
        fill="#100F22" />
    <path
        d="M83.4851 76.5151C84.4161 76.8398 88.1717 78.2747 89.5651 80.8926C89.5651 80.8926 87.6967 82.9173 85.8411 80.1669C85.8411 80.1669 85.1697 79.2324 84.5681 78.6889C84.0107 78.1819 83.0576 77.6153 83.2096 76.6907C83.2317 76.5582 83.3616 76.472 83.4851 76.5151Z"
        fill="#F9C1A0" />
    <path
        d="M86.3354 78.7852C86.3354 78.7852 85.6419 81.1247 78.4694 80.2764C77.9437 80.2134 76.3192 81.0087 79.7139 82.364C82.3296 83.4079 88.1974 84.9554 89.5338 82.7186C90.8733 80.4818 86.3354 78.7852 86.3354 78.7852Z"
        fill="#F9C1A0" />
    <path
        d="M75.9699 71.4753C76.2454 71.3129 76.5589 71.3063 76.8692 71.3361C77.1511 71.3593 77.4709 71.3162 77.6989 71.5283C78.3037 72.0884 77.6356 72.9267 77.8667 73.5928C77.9586 73.8612 78.1581 74.1296 78.2151 74.408C78.2626 74.6565 78.1042 74.9813 78.0472 75.2265C77.9839 75.5148 78.1676 75.7335 78.1802 76.0284C78.1929 76.33 78.0187 76.5619 77.9997 76.8635C77.9744 77.228 78.1897 77.4732 78.2721 77.8411C78.3481 78.1824 78.1644 78.633 77.8161 78.7987C77.4551 78.9677 76.9516 79.0903 76.6286 78.875C75.7197 78.2685 75.4442 75.929 75.3872 75.0012C75.3429 74.2754 75.2194 71.9227 75.9699 71.4753Z"
        fill="#F9C1A0" />
    <path
        d="M99.6858 49.6311C99.5084 50.4264 98.6819 50.8539 97.9853 50.4828C90.6671 46.5858 82.9214 34.2586 85.7334 17.4677C85.9614 16.1057 86.4269 14.7968 87.1141 13.6171C89.4131 9.68696 95.8921 1.75711 109.021 6.43284C109.021 6.43284 118.391 9.73998 120.291 27.7603C120.374 28.5456 120.541 29.8247 120.681 30.6035C121.479 34.9279 123.92 47.8682 125.475 52.6036C126.036 54.3102 125.786 56.2288 124.709 57.6405C123.534 59.1781 121.343 60.328 117.394 59.2145C117.394 59.2145 103.207 55.4236 106.491 31.581C106.656 30.3914 106.988 29.2316 107.422 28.1215L107.425 28.1148C107.533 27.8365 107.697 27.5879 107.903 27.3825C109.005 26.2459 112.479 22.1766 107.666 20.5362C107.549 20.4965 107.425 20.4766 107.302 20.4766C105.997 20.4832 97.8649 20.3672 94.2391 16.6227C93.8306 16.1985 93.1751 16.1356 92.6779 16.4437C92.3517 16.6459 91.9813 16.9375 91.6012 17.355C90.5594 18.4983 90.0654 20.069 90.1034 21.6497C90.2016 25.8416 89.7107 36.9029 98.3748 36.0579C99.5464 35.9453 100.563 36.9129 100.61 38.139C100.712 40.7867 100.671 45.2072 99.6858 49.6311Z"
        fill="#100F22" />
</svg>
