<svg width="32" height="32" viewBox="0 0 32 32" fill="none" xmlns="http://www.w3.org/2000/svg">
<path d="M28.4414 7.33989C27.7536 6.36286 26.9548 5.46711 26.0617 4.67218C25.0403 3.76316 23.9026 2.99017 22.6803 2.37468C21.458 1.75918 20.1595 1.30576 18.8209 1.02647C17.4812 0.747183 16.1091 0.645645 14.7426 0.724512C13.3804 0.803378 12.0293 1.06144 10.7269 1.49147C9.46381 1.90847 8.2579 2.48417 7.1446 3.20193C6.89546 3.45686 6.93719 3.81188 7.1598 4.00217L8.5068 5.15454L3.54111 6.4685L4.67852 1.55876L5.72476 2.57003L6.46013 1.80935L4.74171 0.14857C4.60472 0.0161613 4.40695 -0.0323164 4.22413 0.0217083C4.04083 0.075733 3.90167 0.223818 3.85874 0.409528L2.31228 7.0852C2.27032 7.26584 2.32627 7.45517 2.45941 7.58445C2.59254 7.71348 2.78355 7.7634 2.96299 7.71613L9.75202 5.91981C10.0752 5.83443 10.2739 5.45433 10.0511 5.08387L8.40478 3.67513C9.24602 3.19638 10.136 2.80109 11.0587 2.49623C12.2736 2.09515 13.5335 1.85445 14.8038 1.78089C16.0775 1.70709 17.3565 1.80187 18.6053 2.06235C19.8537 2.32258 21.0649 2.74562 22.2047 3.31963C23.3448 3.89364 24.4057 4.61453 25.3584 5.46253C26.3113 6.31052 27.1489 7.28176 27.8484 8.34875C28.5459 9.41284 29.1028 10.5683 29.5038 11.7832C29.9049 12.998 30.1456 14.2579 30.2192 15.5282C30.2927 16.8019 30.1982 18.0809 29.9377 19.3298C29.6775 20.5781 29.2545 21.7893 28.6804 22.9294C28.1064 24.0695 27.3855 25.1304 26.5375 26.0831C25.6896 27.036 24.7183 27.8736 23.6513 28.573L24.2311 29.4579C25.376 28.7076 26.4179 27.8087 27.3277 26.7866C28.2367 25.7652 29.0097 24.6276 29.6252 23.4052C30.2406 22.1829 30.6941 20.8844 30.9734 19.5459C31.0513 19.1727 31.1147 18.797 31.1649 18.4195V18.3969L31.2001 14.8L30.6267 11.7832C29.2001 8.4 29.5038 9.1113 29.5038 9.1113L28.4414 7.33989Z" fill="#FFB700"/>
<path d="M8.59497 30.35C9.81728 30.9655 11.1158 31.4189 12.4544 31.6982L12.6702 30.6626C11.4219 30.4023 10.2109 29.9793 9.07058 29.4053L8.59473 30.3502L8.59497 30.35Z" fill="#FFB700"/>
<path d="M3.42713 24.3762L2.54224 24.956C3.29255 26.1009 4.19119 27.1428 5.21356 28.0525L5.91685 27.2622C4.96394 26.4142 4.12632 25.443 3.42689 24.376L3.42713 24.3762Z" fill="#FFB700"/>
<path d="M16.4717 30.9439L16.5327 32C17.8949 31.9211 19.246 31.6631 20.5484 31.233L20.2165 30.2285C19.0017 30.6296 17.7417 30.8703 16.4714 30.9439H16.4717Z" fill="#FFB700"/>
<path d="M2.59491 9.79519L1.64996 9.31934C1.03447 10.5416 0.581046 11.8399 0.301758 13.1787L1.33739 13.3946C1.59763 12.1462 2.02066 10.935 2.59467 9.79495L2.59491 9.79519Z" fill="#FFB700"/>
<path d="M0 17.2576C0.0788664 18.6197 0.336931 19.9708 0.766958 21.2732L1.77148 20.9414C1.3704 19.7265 1.1297 18.4666 1.05614 17.1963L0 17.2573V17.2576Z" fill="#FFB700"/>
<path d="M24.1401 11.1052C23.9862 11.1052 23.8444 11.0041 23.7993 10.849C23.3263 9.22082 22.0717 7.96643 20.4435 7.49323C20.2551 7.43848 20.1468 7.24144 20.2016 7.05332C20.2563 6.8652 20.4531 6.7557 20.6417 6.81141C22.5049 7.35262 23.9401 8.7879 24.4814 10.651C24.5361 10.8391 24.4278 11.0364 24.2395 11.0909C24.2064 11.1006 24.1731 11.1052 24.1403 11.1052H24.1401Z" fill="#FFB700"/>
<path d="M22.5879 11.381C22.434 11.381 22.2922 11.2799 22.2471 11.1249C21.9541 10.1162 21.1767 9.33916 20.1681 9.04588C19.9797 8.99113 19.8714 8.79409 19.9262 8.60596C19.9809 8.41784 20.178 8.30859 20.3664 8.36406C21.6099 8.72535 22.5681 9.68356 22.9291 10.9269C22.9839 11.1152 22.8756 11.3123 22.6872 11.3668C22.6542 11.3764 22.6209 11.381 22.5881 11.381H22.5879Z" fill="#FFB700"/>
<path d="M7.16102 11.1052C7.12822 11.1052 7.09494 11.1006 7.0619 11.091C6.87354 11.0362 6.76525 10.8392 6.81999 10.651C7.36121 8.78791 8.79672 7.35264 10.6596 6.81143C10.8477 6.75572 11.0448 6.86497 11.0998 7.05334C11.1545 7.24146 11.0462 7.43874 10.8579 7.49325C9.22964 7.96645 7.97525 9.22084 7.50206 10.8491C7.45696 11.0044 7.31514 11.1052 7.16127 11.1052H7.16102Z" fill="#FFB700"/>
<path d="M8.71327 11.3811C8.68047 11.3811 8.64719 11.3765 8.61415 11.3669C8.42578 11.3121 8.31749 11.1153 8.37224 10.927C8.73353 9.68345 9.69151 8.72547 10.935 8.36418C11.1234 8.30847 11.3202 8.41748 11.3752 8.60609C11.4299 8.79421 11.3217 8.9915 11.1333 9.046C10.1244 9.33928 9.34734 10.1164 9.0543 11.125C9.0092 11.2803 8.86739 11.3811 8.71351 11.3811H8.71327Z" fill="#FFB700"/>
<path d="M23.6246 21.9498L23.498 21.9223C22.5439 21.7152 21.8729 20.9574 21.8729 20.0874V14.3734C21.8729 11.5578 19.4886 9.23691 16.4113 8.90456V7.5578C16.4113 7.13766 16.0708 6.79688 15.6504 6.79688C15.23 6.79688 14.8895 7.13742 14.8895 7.5578V8.90456C11.812 9.23715 9.42792 11.5578 9.42792 14.3734V20.0874C9.42792 20.9576 8.75695 21.7152 7.80284 21.9223L7.67622 21.9498C7.01345 22.0938 6.54749 22.6201 6.54749 23.2245C6.54749 23.6661 6.9054 24.0242 7.34724 24.0242H23.9533C24.3949 24.0242 24.7531 23.6663 24.7531 23.2245C24.7531 22.6201 24.2871 22.0938 23.6244 21.9498H23.6246Z" fill="#FFB700"/>
<path d="M13.2264 10.3501C13.1314 10.1955 12.9254 10.1562 12.7653 10.2413C11.1581 11.0963 10.1014 12.6404 10.1014 14.3732V17.1912C10.1014 17.3827 10.2609 17.5356 10.4521 17.5277C10.6325 17.5202 10.7748 17.3719 10.7748 17.1912V14.3732C10.7748 12.8888 11.6969 11.564 13.0998 10.8257C13.2674 10.7374 13.3323 10.5225 13.2264 10.3501Z" fill="#FFC940"/>
<path d="M10.1014 19.751C10.1014 19.9485 10.2712 20.1062 10.4729 20.086C10.6482 20.0684 10.7748 19.908 10.7748 19.7317V18.6288C10.7748 18.4402 10.6197 18.2882 10.4311 18.2921C10.2478 18.2959 10.1014 18.4455 10.1014 18.6288V19.7507V19.751Z" fill="#FFC940"/>
<path d="M21.2248 13.6665V19.3806C21.2248 19.9886 21.553 20.5409 22.0759 20.8897C21.9459 20.6444 21.8728 20.3724 21.8728 20.0875V14.3734C21.8728 12.8952 21.2149 11.5538 20.145 10.5645C20.8261 11.4479 21.2248 12.5159 21.2248 13.6665Z" fill="#FFA600"/>
<path d="M24.0263 22.0957C24.0772 22.2286 24.1052 22.3704 24.1052 22.517C24.1052 22.9587 23.7473 23.3168 23.3054 23.3168H6.69936C6.64895 23.3168 6.59975 23.3115 6.55176 23.3026C6.59131 23.7073 6.93234 24.0237 7.34742 24.0237H23.9535C24.3951 24.0237 24.7533 23.6656 24.7533 23.224C24.7533 22.7512 24.4675 22.3275 24.0263 22.0957Z" fill="#FFA600"/>
<path d="M16.4386 26.9052H14.8627C13.5721 26.9052 12.5259 25.8589 12.5259 24.5684H18.7756C18.7756 25.8589 17.7294 26.9052 16.4388 26.9052H16.4386Z" fill="#FFB700"/>
<path d="M18.3581 24.5684C18.1748 25.6761 17.2151 26.5219 16.0553 26.5219H14.4794C13.9317 26.5219 13.4293 26.3321 13.0309 26.0167C13.459 26.5571 14.1196 26.9052 14.8627 26.9052H16.4385C17.7291 26.9052 18.7754 25.8589 18.7754 24.5684H18.3581Z" fill="#FFA600"/>
</svg>
