<svg width="32" height="32" viewBox="0 0 32 32" fill="none" xmlns="http://www.w3.org/2000/svg">
<path d="M29.9363 7.34901V23.5781C29.9363 23.9149 29.912 24.2456 29.8695 24.5702C29.1528 24.2272 28.3512 24.0313 27.507 24.0313C24.4887 24.0313 22.0412 26.4993 22.0412 29.543C22.0412 30.0207 22.102 30.4861 22.2113 30.9271H9.28772C5.26126 30.9271 2 27.6323 2 23.5781V7.34901C2 3.28868 5.26126 0 9.28772 0H22.6485C26.675 0 29.9363 3.28868 29.9363 7.34901Z" fill="#FFB3B5"/>
<path d="M25.0756 13.5276H6.85633C6.5211 13.5276 6.24902 13.2538 6.24902 12.9152C6.24902 12.5765 6.5211 12.3027 6.85633 12.3027H25.0756C25.4109 12.3027 25.6829 12.5765 25.6829 12.9152C25.6829 13.2538 25.4109 13.5276 25.0756 13.5276Z" fill="white"/>
<path d="M25.0756 7.17405H6.85633C6.5211 7.17405 6.24902 6.9003 6.24902 6.56164C6.24902 6.22297 6.5211 5.94922 6.85633 5.94922H25.0756C25.4109 5.94922 25.6829 6.22297 25.6829 6.56164C25.6829 6.9003 25.4109 7.17405 25.0756 7.17405Z" fill="white"/>
<path d="M15.3587 19.345H6.85633C6.5211 19.345 6.24902 19.0712 6.24902 18.7325C6.24902 18.3939 6.5211 18.1201 6.85633 18.1201H15.3587C15.6939 18.1201 15.966 18.3939 15.966 18.7325C15.966 19.0712 15.6939 19.345 15.3587 19.345Z" fill="white"/>
<path d="M15.3587 25.6985H6.85633C6.5211 25.6985 6.24902 25.4247 6.24902 25.0861C6.24902 24.7474 6.5211 24.4736 6.85633 24.4736H15.3587C15.6939 24.4736 15.966 24.7474 15.966 25.0861C15.966 25.4247 15.6939 25.6985 15.3587 25.6985Z" fill="white"/>
<path d="M26.5933 20.5867C25.8067 20.2133 24.9267 20 24 20C20.6867 20 18 22.6867 18 26C18 26.52 18.0667 27.0267 18.1867 27.5067C18.86 30.0933 21.2067 32 24 32C27.3133 32 30 29.32 30 26C30 23.6133 28.6067 21.5533 26.5933 20.5867ZM26.4733 27.5333C26.7333 27.7933 26.7333 28.2133 26.4733 28.4733C26.34 28.6067 26.1733 28.6667 26 28.6667C25.8267 28.6667 25.66 28.6067 25.5267 28.4733L24 26.9467L22.4733 28.4733C22.34 28.6067 22.1733 28.6667 22 28.6667C21.8267 28.6667 21.66 28.6067 21.5267 28.4733C21.2667 28.2133 21.2667 27.7933 21.5267 27.5333L23.06 26.0067L21.5267 24.4733C21.2667 24.2133 21.2667 23.7933 21.5267 23.5333C21.7867 23.2733 22.2133 23.2733 22.4733 23.5333L24 25.06L25.5267 23.5333C25.7867 23.2733 26.2133 23.2733 26.4733 23.5333C26.7333 23.7933 26.7333 24.2133 26.4733 24.4733L24.9467 26.0067L26.4733 27.5333Z" fill="#FC3A52"/>
<path d="M26.4708 27.5339C26.7308 27.7939 26.7308 28.2139 26.4708 28.4739C26.3374 28.6072 26.1708 28.6672 25.9974 28.6672C25.8241 28.6672 25.6574 28.6072 25.5241 28.4739L23.9974 26.9472L22.4708 28.4739C22.3374 28.6072 22.1708 28.6672 21.9974 28.6672C21.8241 28.6672 21.6574 28.6072 21.5241 28.4739C21.2641 28.2139 21.2641 27.7939 21.5241 27.5339L23.0574 26.0072L21.5241 24.4739C21.2641 24.2139 21.2641 23.7939 21.5241 23.5339C21.7841 23.2739 22.2108 23.2739 22.4708 23.5339L23.9974 25.0605L25.5241 23.5339C25.7841 23.2739 26.2108 23.2739 26.4708 23.5339C26.7308 23.7939 26.7308 24.2139 26.4708 24.4739L24.9441 26.0072L26.4708 27.5339Z" fill="white"/>
</svg>
