<svg width="164" height="120" viewBox="0 0 164 120" fill="none" xmlns="http://www.w3.org/2000/svg">
<g clip-path="url(#clip0_7394_160672)">
<rect width="164" height="120" fill="#F4ECD7"/>
<g opacity="0.3">
<path d="M39.2487 47.5936C5.85854 20.3868 -25.6766 28.5283 -35.7246 35.9998V93.9688C74.8031 57.6415 144.881 82.8902 199.243 90.1041V39.8642C160.597 9.72032 125.816 37.5455 120.405 41.4101C114.995 45.2747 80.9865 81.6022 39.2487 47.5936Z" fill="#F2D084"/>
<path d="M35.8923 58.8578C-0.133965 48.9574 -34.1588 51.92 -45 54.6389V75.7335C74.2536 62.5142 149.864 71.7021 208.518 74.3272V56.0451C166.821 45.0759 129.294 55.2013 123.456 56.6076C117.619 58.0139 80.9251 71.2333 35.8923 58.8578Z" fill="#FFB104"/>
</g>
<g opacity="0.2">
<path d="M114.948 108V99.516H120.936V100.884H116.448V103.116H120.348V104.46H116.448V106.632H120.936V108H114.948ZM122.21 104.508V103.188H126.158V104.508H122.21ZM127.885 108V99.516H131.365C131.757 99.516 132.117 99.552 132.445 99.624C132.781 99.688 133.069 99.804 133.309 99.972C133.557 100.14 133.749 100.364 133.885 100.644C134.021 100.924 134.089 101.272 134.089 101.688C134.089 102.072 134.001 102.424 133.825 102.744C133.649 103.056 133.389 103.292 133.045 103.452C133.509 103.572 133.865 103.804 134.113 104.148C134.361 104.484 134.485 104.924 134.485 105.468C134.485 105.956 134.393 106.364 134.209 106.692C134.033 107.012 133.785 107.268 133.465 107.46C133.153 107.652 132.789 107.792 132.373 107.88C131.957 107.96 131.513 108 131.041 108H127.885ZM129.385 106.632H131.173C131.397 106.632 131.617 106.616 131.833 106.584C132.049 106.552 132.245 106.496 132.421 106.416C132.597 106.336 132.733 106.22 132.829 106.068C132.933 105.908 132.985 105.704 132.985 105.456C132.985 105.232 132.945 105.048 132.865 104.904C132.785 104.76 132.673 104.648 132.529 104.568C132.393 104.48 132.229 104.42 132.037 104.388C131.845 104.348 131.645 104.328 131.437 104.328H129.385V106.632ZM129.385 103.068H130.969C131.217 103.068 131.441 103.044 131.641 102.996C131.841 102.948 132.013 102.876 132.157 102.78C132.301 102.676 132.413 102.552 132.493 102.408C132.573 102.256 132.613 102.072 132.613 101.856C132.613 101.576 132.549 101.368 132.421 101.232C132.293 101.088 132.117 100.996 131.893 100.956C131.677 100.908 131.433 100.884 131.161 100.884H129.385V103.068ZM138.577 108.084C137.929 108.084 137.369 107.952 136.897 107.688C136.433 107.424 136.073 107.048 135.817 106.56C135.569 106.072 135.445 105.5 135.445 104.844C135.445 104.18 135.573 103.608 135.829 103.128C136.085 102.64 136.445 102.26 136.909 101.988C137.373 101.716 137.929 101.58 138.577 101.58C139.217 101.58 139.769 101.716 140.233 101.988C140.697 102.26 141.053 102.644 141.301 103.14C141.549 103.628 141.673 104.204 141.673 104.868C141.673 105.516 141.549 106.084 141.301 106.572C141.061 107.052 140.709 107.424 140.245 107.688C139.781 107.952 139.225 108.084 138.577 108.084ZM138.565 106.752C138.965 106.752 139.285 106.664 139.525 106.488C139.773 106.312 139.953 106.08 140.065 105.792C140.177 105.504 140.233 105.192 140.233 104.856C140.233 104.52 140.177 104.204 140.065 103.908C139.953 103.612 139.773 103.376 139.525 103.2C139.285 103.016 138.965 102.924 138.565 102.924C138.165 102.924 137.841 103.016 137.593 103.2C137.345 103.376 137.165 103.612 137.053 103.908C136.941 104.196 136.885 104.512 136.885 104.856C136.885 105.192 136.941 105.508 137.053 105.804C137.173 106.092 137.353 106.324 137.593 106.5C137.841 106.668 138.165 106.752 138.565 106.752ZM145.737 108.084C145.089 108.084 144.529 107.952 144.057 107.688C143.593 107.424 143.233 107.048 142.977 106.56C142.729 106.072 142.605 105.5 142.605 104.844C142.605 104.18 142.733 103.608 142.989 103.128C143.245 102.64 143.605 102.26 144.069 101.988C144.533 101.716 145.089 101.58 145.737 101.58C146.377 101.58 146.929 101.716 147.393 101.988C147.857 102.26 148.213 102.644 148.461 103.14C148.709 103.628 148.833 104.204 148.833 104.868C148.833 105.516 148.709 106.084 148.461 106.572C148.221 107.052 147.869 107.424 147.405 107.688C146.941 107.952 146.385 108.084 145.737 108.084ZM145.725 106.752C146.125 106.752 146.445 106.664 146.685 106.488C146.933 106.312 147.113 106.08 147.225 105.792C147.337 105.504 147.393 105.192 147.393 104.856C147.393 104.52 147.337 104.204 147.225 103.908C147.113 103.612 146.933 103.376 146.685 103.2C146.445 103.016 146.125 102.924 145.725 102.924C145.325 102.924 145.001 103.016 144.753 103.2C144.505 103.376 144.325 103.612 144.213 103.908C144.101 104.196 144.045 104.512 144.045 104.856C144.045 105.192 144.101 105.508 144.213 105.804C144.333 106.092 144.513 106.324 144.753 106.5C145.001 106.668 145.325 106.752 145.725 106.752ZM150.005 108V99.516H151.469V104.208H152.381L154.049 101.676H155.693L153.641 104.688L155.861 108H154.157L152.465 105.492H151.469V108H150.005Z" fill="#7B5707"/>
</g>
<path d="M107 45.334H57V77.4523H107V45.334Z" fill="#F0BA78"/>
<path d="M59.7529 41H78.3036C80.3439 41 81.9988 42.8175 81.9988 45.0581V75.025H59.7529V41Z" fill="white"/>
<path d="M104.245 75.0273H81.9992V45.0605C81.9992 42.8199 83.6542 41.0024 85.6945 41.0024H104.245V75.0273Z" fill="white"/>
<path d="M61.9325 72.6074H79.8216C81.024 72.6074 82.0012 73.6806 82.0012 75.001V75.0316H59.7529V75.001C59.7529 73.6806 60.7301 72.6074 61.9325 72.6074Z" fill="#F2F2F2"/>
<path d="M84.0761 72.6074H102.172C103.318 72.6074 104.247 73.6296 104.247 74.8863V75.029H82.001V74.8863C82.001 73.6271 82.9318 72.6074 84.0761 72.6074Z" fill="#F2F2F2"/>
<path d="M70.7871 49.2402H62.2383V50.2242H70.7871V49.2402Z" fill="#EBEBEB"/>
<path d="M66.5115 52.0078H62.2383V52.9918H66.5115V52.0078Z" fill="#EBEBEB"/>
<path d="M73.7252 52.0078H67.8457V52.9918H73.7252V52.0078Z" fill="#EBEBEB"/>
<path d="M79.4245 52.0078H74.3945V52.9918H79.4245V52.0078Z" fill="#EBEBEB"/>
<path d="M67.8462 54.7725H62.2383V55.7564H67.8462V54.7725Z" fill="#EBEBEB"/>
<path d="M74.9048 54.7725H69.2969V55.7564H74.9048V54.7725Z" fill="#EBEBEB"/>
<path d="M77.0307 49.2402H72.1191V50.2242H77.0307V49.2402Z" fill="#EBEBEB"/>
<path d="M79.4239 49.1836H77.8896V50.1981H79.4239V49.1836Z" fill="#EBEBEB"/>
<path d="M70.7871 59.4756H62.2383V60.4595H70.7871V59.4756Z" fill="#EBEBEB"/>
<path d="M66.5115 62.2461H62.2383V63.23H66.5115V62.2461Z" fill="#EBEBEB"/>
<path d="M73.7252 62.2461H67.8457V63.23H73.7252V62.2461Z" fill="#EBEBEB"/>
<path d="M79.4245 62.2461H74.3945V63.23H79.4245V62.2461Z" fill="#EBEBEB"/>
<path d="M67.8462 65.0117H62.2383V65.9957H67.8462V65.0117Z" fill="#EBEBEB"/>
<path d="M74.9048 65.0117H69.2969V65.9957H74.9048V65.0117Z" fill="#EBEBEB"/>
<path d="M77.0307 59.4756H72.1191V60.4595H77.0307V59.4756Z" fill="#EBEBEB"/>
<path d="M79.4239 59.418H77.8896V60.4325H79.4239V59.418Z" fill="#EBEBEB"/>
<path d="M93.0771 49.2402H84.5283V50.2242H93.0771V49.2402Z" fill="#EBEBEB"/>
<path d="M88.8016 52.0078H84.5283V52.9918H88.8016V52.0078Z" fill="#EBEBEB"/>
<path d="M96.0162 52.0078H90.1367V52.9918H96.0162V52.0078Z" fill="#EBEBEB"/>
<path d="M101.715 52.0078H96.6846V52.9918H101.715V52.0078Z" fill="#EBEBEB"/>
<path d="M90.1362 54.7725H84.5283V55.7564H90.1362V54.7725Z" fill="#EBEBEB"/>
<path d="M97.1948 54.7725H91.5869V55.7564H97.1948V54.7725Z" fill="#EBEBEB"/>
<path d="M99.3237 49.2402H94.4121V50.2242H99.3237V49.2402Z" fill="#EBEBEB"/>
<path d="M101.714 49.1836H100.18V50.1981H101.714V49.1836Z" fill="#EBEBEB"/>
<path d="M93.0771 59.4756H84.5283V60.4595H93.0771V59.4756Z" fill="#EBEBEB"/>
<path d="M88.8016 62.2461H84.5283V63.23H88.8016V62.2461Z" fill="#EBEBEB"/>
<path d="M96.0162 62.2461H90.1367V63.23H96.0162V62.2461Z" fill="#EBEBEB"/>
<path d="M101.715 62.2461H96.6846V63.23H101.715V62.2461Z" fill="#EBEBEB"/>
<path d="M90.1362 65.0117H84.5283V65.9957H90.1362V65.0117Z" fill="#EBEBEB"/>
<path d="M97.1948 65.0117H91.5869V65.9957H97.1948V65.0117Z" fill="#EBEBEB"/>
<path d="M99.3237 59.4756H94.4121V60.4595H99.3237V59.4756Z" fill="#EBEBEB"/>
<path d="M101.714 59.418H100.18V60.4325H101.714V59.418Z" fill="#EBEBEB"/>
<path d="M107 77.4521H57V78.8975H107V77.4521Z" fill="#E4A559"/>
<path d="M82.2964 70.7393H87.6002L82.2964 78.6157L76.9902 70.7393H82.2964Z" fill="white"/>
<path d="M107 45.334H57V77.4523H107V45.334Z" fill="#F0BA78"/>
<path d="M59.7529 41H78.3036C80.3439 41 81.9988 42.8175 81.9988 45.0581V75.025H59.7529V41Z" fill="white"/>
<path d="M104.245 75.0273H81.9992V45.0605C81.9992 42.8199 83.6542 41.0024 85.6945 41.0024H104.245V75.0273Z" fill="white"/>
<path d="M61.9325 72.6074H79.8216C81.024 72.6074 82.0012 73.6806 82.0012 75.001V75.0316H59.7529V75.001C59.7529 73.6806 60.7301 72.6074 61.9325 72.6074Z" fill="#F2F2F2"/>
<path d="M84.0761 72.6074H102.172C103.318 72.6074 104.247 73.6296 104.247 74.8863V75.029H82.001V74.8863C82.001 73.6271 82.9318 72.6074 84.0761 72.6074Z" fill="#F2F2F2"/>
<path d="M70.7881 49.2402H62.2393V50.2242H70.7881V49.2402Z" fill="#EBEBEB"/>
<path d="M66.5125 52.0078H62.2393V52.9918H66.5125V52.0078Z" fill="#EBEBEB"/>
<path d="M73.7262 52.0078H67.8467V52.9918H73.7262V52.0078Z" fill="#EBEBEB"/>
<path d="M79.4254 52.0078H74.3955V52.9918H79.4254V52.0078Z" fill="#EBEBEB"/>
<path d="M67.8472 54.7725H62.2393V55.7564H67.8472V54.7725Z" fill="#EBEBEB"/>
<path d="M74.9058 54.7725H69.2979V55.7564H74.9058V54.7725Z" fill="#EBEBEB"/>
<path d="M77.0317 49.2402H72.1201V50.2242H77.0317V49.2402Z" fill="#EBEBEB"/>
<path d="M79.4249 49.1836H77.8906V50.1981H79.4249V49.1836Z" fill="#EBEBEB"/>
<path d="M70.7881 59.4756H62.2393V60.4595H70.7881V59.4756Z" fill="#EBEBEB"/>
<path d="M66.5125 62.2461H62.2393V63.23H66.5125V62.2461Z" fill="#EBEBEB"/>
<path d="M73.7262 62.2461H67.8467V63.23H73.7262V62.2461Z" fill="#EBEBEB"/>
<path d="M79.4254 62.2461H74.3955V63.23H79.4254V62.2461Z" fill="#EBEBEB"/>
<path d="M67.8472 65.0117H62.2393V65.9957H67.8472V65.0117Z" fill="#EBEBEB"/>
<path d="M74.9058 65.0117H69.2979V65.9957H74.9058V65.0117Z" fill="#EBEBEB"/>
<path d="M77.0317 59.4756H72.1201V60.4595H77.0317V59.4756Z" fill="#EBEBEB"/>
<path d="M79.4249 59.418H77.8906V60.4325H79.4249V59.418Z" fill="#EBEBEB"/>
<path d="M93.0781 49.2402H84.5293V50.2242H93.0781V49.2402Z" fill="#EBEBEB"/>
<path d="M88.8025 52.0078H84.5293V52.9918H88.8025V52.0078Z" fill="#EBEBEB"/>
<path d="M96.0172 52.0078H90.1377V52.9918H96.0172V52.0078Z" fill="#EBEBEB"/>
<path d="M101.715 52.0078H96.6855V52.9918H101.715V52.0078Z" fill="#EBEBEB"/>
<path d="M90.1372 54.7725H84.5293V55.7564H90.1372V54.7725Z" fill="#EBEBEB"/>
<path d="M97.1958 54.7725H91.5879V55.7564H97.1958V54.7725Z" fill="#EBEBEB"/>
<path d="M99.3246 49.2402H94.4131V50.2242H99.3246V49.2402Z" fill="#EBEBEB"/>
<path d="M101.715 49.1836H100.181V50.1981H101.715V49.1836Z" fill="#EBEBEB"/>
<path d="M93.0781 59.4756H84.5293V60.4595H93.0781V59.4756Z" fill="#EBEBEB"/>
<path d="M88.8025 62.2461H84.5293V63.23H88.8025V62.2461Z" fill="#EBEBEB"/>
<path d="M96.0172 62.2461H90.1377V63.23H96.0172V62.2461Z" fill="#EBEBEB"/>
<path d="M101.715 62.2461H96.6855V63.23H101.715V62.2461Z" fill="#EBEBEB"/>
<path d="M90.1372 65.0117H84.5293V65.9957H90.1372V65.0117Z" fill="#EBEBEB"/>
<path d="M97.1958 65.0117H91.5879V65.9957H97.1958V65.0117Z" fill="#EBEBEB"/>
<path d="M99.3246 59.4756H94.4131V60.4595H99.3246V59.4756Z" fill="#EBEBEB"/>
<path d="M101.715 59.418H100.181V60.4325H101.715V59.418Z" fill="#EBEBEB"/>
<path d="M107 77.4521H57V78.8975H107V77.4521Z" fill="#E4A559"/>
<path d="M82.2964 70.7393H87.6002L82.2964 78.6157L76.9902 70.7393H82.2964Z" fill="white"/>
<path d="M50.5381 49.863C50.6172 49.8532 50.6962 49.8434 50.7755 49.8409L50.4223 49.8523C48.9759 49.7545 47.805 48.5793 47.7282 47.0945L47.7066 47.0952C47.7762 48.5803 46.7205 49.8562 45.2924 50.1044L44.9392 50.1158C45.0185 50.1132 45.098 50.1179 45.1775 50.1225C45.0985 50.1323 45.0194 50.1421 44.9401 50.1446L45.2934 50.1332C46.7398 50.231 47.9106 51.4062 47.9874 52.891L48.009 52.8903C47.9395 51.4052 48.9952 50.1293 50.4232 49.8811L50.7764 49.8697C50.6971 49.8723 50.6176 49.8676 50.5381 49.863Z" fill="white"/>
<path d="M115.467 30.2582C115.585 30.2437 115.702 30.2292 115.82 30.2253L115.295 30.2423C113.144 30.0969 111.402 28.3492 111.288 26.141L111.256 26.142C111.36 28.3506 109.79 30.2481 107.666 30.6173L107.14 30.6342C107.258 30.6304 107.377 30.6373 107.495 30.6442C107.377 30.6588 107.26 30.6733 107.142 30.6771L107.667 30.6602C109.818 30.8055 111.56 32.5533 111.674 34.7615L111.706 34.7605C111.602 32.5519 113.173 30.6544 115.296 30.2852L115.822 30.2683C115.704 30.2721 115.585 30.2651 115.467 30.2582Z" fill="white"/>
<path d="M104.811 90.07C104.864 90.0635 104.916 90.0569 104.97 90.0552L104.733 90.0628C103.765 89.9974 102.981 89.2109 102.93 88.217L102.915 88.2175C102.962 89.2115 102.255 90.0655 101.3 90.2316L101.063 90.2392C101.116 90.2375 101.17 90.2406 101.223 90.2437C101.17 90.2503 101.117 90.2568 101.064 90.2585L101.3 90.2509C102.268 90.3163 103.052 91.1029 103.103 92.0967L103.118 92.0962C103.071 91.1023 103.778 90.2483 104.734 90.0821L104.97 90.0745C104.917 90.0762 104.864 90.0731 104.811 90.07Z" fill="white"/>
</g>
<defs>
<clipPath id="clip0_7394_160672">
<rect width="164" height="120" fill="white"/>
</clipPath>
</defs>
</svg>
