<svg width="108" height="80" viewBox="0 0 108 80" fill="none" xmlns="http://www.w3.org/2000/svg">
<g clip-path="url(#clip0_9020_188422)">
<rect width="108" height="79.0244" rx="12" fill="#F4ECD7"/>
<g opacity="0.3">
<path d="M25.8463 31.3413C3.85766 13.4246 -16.9094 18.786 -23.5264 23.7063V61.881C49.2602 37.9581 95.4092 54.5854 131.209 59.336V26.2512C105.759 6.40033 82.854 24.7242 79.291 27.2692C75.728 29.8142 53.3321 53.7372 25.8463 31.3413Z" fill="#F2D084"/>
<path d="M23.6358 38.7586C-0.0888386 32.2389 -22.4954 34.1899 -29.6348 35.9803V49.8719C48.8981 41.1665 98.6905 47.217 137.316 48.9458V36.9064C109.857 29.6828 85.144 36.3507 81.2998 37.2768C77.4555 38.2029 53.2915 46.9084 23.6358 38.7586Z" fill="#FFB104"/>
</g>
<g opacity="0.2">
<path d="M65.1604 71.2188V65.6317H66.1482V70.3179H69.0563V71.2188H65.1604ZM69.6404 71.2188V67.0542H70.6045V71.2188H69.6404ZM70.1225 66.5721C69.9381 66.5721 69.7906 66.5168 69.6799 66.4062C69.5693 66.2955 69.514 66.1507 69.514 65.9715C69.514 65.7977 69.5719 65.6554 69.6878 65.5448C69.8037 65.4289 69.9486 65.3709 70.1225 65.3709C70.2911 65.3709 70.4359 65.4263 70.5571 65.5369C70.6783 65.6475 70.7389 65.7924 70.7389 65.9715C70.7389 66.1507 70.6809 66.2955 70.565 66.4062C70.4491 66.5168 70.3016 66.5721 70.1225 66.5721ZM72.5978 71.2188L71.0884 67.0542H72.1553L73.2537 70.3969L74.3442 67.0542H75.4032L73.8938 71.2188H72.5978ZM77.7486 71.2741C77.3166 71.2741 76.9479 71.1845 76.6423 71.0054C76.342 70.8263 76.1128 70.5787 75.9548 70.2626C75.802 69.9412 75.7256 69.5698 75.7256 69.1483C75.7256 68.7268 75.8046 68.3554 75.9627 68.0341C76.126 67.7074 76.3578 67.4519 76.6581 67.2675C76.9637 67.0831 77.3298 66.9909 77.7565 66.9909C78.0726 66.9909 78.3492 67.0489 78.5863 67.1648C78.8234 67.2754 79.0209 67.4282 79.179 67.6231C79.3423 67.8181 79.4635 68.0393 79.5425 68.2869C79.6215 68.5346 79.6584 68.7953 79.6531 69.0693C79.6479 69.1325 79.6426 69.1957 79.6373 69.2589C79.6321 69.3169 79.6242 69.3801 79.6136 69.4486H76.6897C76.7055 69.633 76.7529 69.8016 76.832 69.9544C76.9162 70.1071 77.0322 70.2283 77.1797 70.3179C77.3324 70.4074 77.5221 70.4522 77.7486 70.4522C77.8803 70.4522 78.0068 70.4364 78.128 70.4048C78.2491 70.3679 78.3545 70.3152 78.4441 70.2468C78.5389 70.1783 78.6021 70.0913 78.6337 69.986H79.5978C79.5293 70.2863 79.4029 70.5312 79.2185 70.7209C79.0341 70.9106 78.8128 71.0502 78.5547 71.1397C78.3018 71.2293 78.0331 71.2741 77.7486 71.2741ZM76.7055 68.7295H78.7127C78.7127 68.5556 78.6732 68.3976 78.5942 68.2553C78.5152 68.1131 78.4019 68.0025 78.2544 67.9234C78.1122 67.8391 77.9383 67.797 77.7328 67.797C77.5116 67.797 77.3272 67.8418 77.1797 67.9313C77.0322 68.0209 76.9189 68.1368 76.8399 68.279C76.7608 68.4213 76.7161 68.5714 76.7055 68.7295ZM85.1259 71.282C84.5464 71.282 84.059 71.1634 83.6639 70.9264C83.2688 70.684 82.9711 70.3495 82.7709 69.9228C82.5708 69.496 82.4707 69.0008 82.4707 68.4371C82.4707 67.8734 82.5734 67.3755 82.7789 66.9435C82.9843 66.5115 83.2846 66.1744 83.6797 65.932C84.0749 65.6844 84.5569 65.5606 85.1259 65.5606C85.5473 65.5606 85.9188 65.6317 86.2401 65.774C86.5615 65.9162 86.8223 66.119 87.0225 66.3825C87.2279 66.6406 87.3596 66.9593 87.4176 67.3387H86.4614C86.3876 67.07 86.2375 66.8592 86.0109 66.7065C85.7844 66.5537 85.4894 66.4773 85.1259 66.4773C84.7308 66.4773 84.412 66.5695 84.1697 66.7539C83.9273 66.9383 83.7509 67.1753 83.6402 67.4651C83.5349 67.7548 83.4822 68.0657 83.4822 68.3976C83.4822 68.74 83.5375 69.0614 83.6481 69.3617C83.764 69.662 83.9458 69.9043 84.1934 70.0887C84.441 70.2731 84.7597 70.3653 85.1496 70.3653C85.3919 70.3653 85.6027 70.331 85.7818 70.2626C85.9662 70.1941 86.1189 70.0966 86.2401 69.9702C86.3666 69.8385 86.4535 69.6857 86.5009 69.5118H87.5045C87.4413 69.8859 87.299 70.2046 87.0778 70.468C86.8618 70.7314 86.5852 70.9343 86.248 71.0765C85.9161 71.2135 85.5421 71.282 85.1259 71.282ZM88.2389 71.2188V65.6317H89.203V71.2188H88.2389ZM91.465 71.2741C91.2701 71.2741 91.0857 71.2477 90.9118 71.195C90.738 71.1424 90.5825 71.066 90.4456 70.9659C90.3086 70.8605 90.198 70.7314 90.1137 70.5787C90.0346 70.4206 89.9951 70.2362 89.9951 70.0255C89.9951 69.7568 90.0478 69.5382 90.1532 69.3696C90.2585 69.1957 90.4008 69.064 90.5799 68.9745C90.7643 68.8849 90.9724 68.8243 91.2042 68.7927C91.436 68.7558 91.6784 68.7374 91.9312 68.7374H92.7452C92.7452 68.553 92.7162 68.3949 92.6583 68.2632C92.6003 68.1263 92.5081 68.0183 92.3817 67.9392C92.2605 67.8602 92.1025 67.8207 91.9075 67.8207C91.7811 67.8207 91.6625 67.8365 91.5519 67.8681C91.4465 67.8945 91.3544 67.9392 91.2753 68.0025C91.2016 68.0604 91.1489 68.1368 91.1173 68.2316H90.1295C90.1664 68.0156 90.2401 67.8312 90.3507 67.6785C90.4666 67.5204 90.6063 67.3913 90.7696 67.2912C90.9382 67.1911 91.1225 67.1174 91.3227 67.07C91.5229 67.0173 91.7258 66.9909 91.9312 66.9909C92.5371 66.9909 92.977 67.1648 93.2509 67.5125C93.5302 67.8602 93.6698 68.3475 93.6698 68.9745V71.2188H92.8163L92.7926 70.6814C92.6714 70.8605 92.5265 70.9922 92.358 71.0765C92.1894 71.1608 92.0261 71.2135 91.868 71.2346C91.71 71.2609 91.5756 71.2741 91.465 71.2741ZM91.6546 70.4917C91.8654 70.4917 92.0524 70.4522 92.2157 70.3732C92.379 70.2942 92.5081 70.1835 92.6029 70.0413C92.703 69.899 92.7531 69.7357 92.7531 69.5513V69.417H91.9945C91.868 69.417 91.7416 69.4223 91.6151 69.4328C91.494 69.4381 91.3833 69.4591 91.2832 69.496C91.1831 69.5276 91.1015 69.5777 91.0383 69.6462C90.9803 69.7147 90.9513 69.8121 90.9513 69.9386C90.9513 70.065 90.9829 70.1677 91.0462 70.2468C91.1146 70.3258 91.2016 70.3864 91.3069 70.4285C91.4176 70.4707 91.5335 70.4917 91.6546 70.4917ZM96.1865 71.2741C95.9863 71.2741 95.7861 71.253 95.5859 71.2108C95.391 71.1687 95.2066 71.1002 95.0328 71.0054C94.8589 70.9053 94.714 70.7709 94.5981 70.6024C94.4822 70.4338 94.4058 70.223 94.3689 69.9702H95.3409C95.3831 70.0861 95.4489 70.1809 95.5385 70.2547C95.6333 70.3231 95.7413 70.3758 95.8625 70.4127C95.9889 70.4443 96.1128 70.4601 96.2339 70.4601C96.3077 70.4601 96.3867 70.4548 96.471 70.4443C96.5606 70.4338 96.6422 70.4127 96.716 70.3811C96.795 70.3495 96.8582 70.3047 96.9056 70.2468C96.953 70.1835 96.9768 70.1019 96.9768 70.0018C96.9768 69.9069 96.9504 69.8332 96.8977 69.7805C96.845 69.7226 96.7739 69.6778 96.6844 69.6462C96.5948 69.6093 96.4868 69.5803 96.3604 69.5592C96.1338 69.5118 95.8915 69.4618 95.6333 69.4091C95.3752 69.3511 95.1513 69.2616 94.9616 69.1404C94.8826 69.093 94.8141 69.0377 94.7562 68.9745C94.6982 68.9112 94.6482 68.8428 94.606 68.769C94.5691 68.69 94.5402 68.6057 94.5191 68.5161C94.5033 68.4266 94.4954 68.3291 94.4954 68.2237C94.4954 68.0025 94.5402 67.8154 94.6297 67.6627C94.7246 67.5046 94.8484 67.3782 95.0011 67.2833C95.1592 67.1832 95.3383 67.1095 95.5385 67.0621C95.7387 67.0147 95.9442 66.9909 96.1549 66.9909C96.4394 66.9909 96.6975 67.0357 96.9293 67.1253C97.1611 67.2148 97.3534 67.3518 97.5062 67.5362C97.6643 67.7206 97.7591 67.955 97.7907 68.2395H96.874C96.8477 68.1078 96.766 68.0025 96.629 67.9234C96.4973 67.8444 96.3288 67.8049 96.1233 67.8049C96.0495 67.8049 95.9731 67.8128 95.8941 67.8286C95.8151 67.8391 95.7387 67.8602 95.6649 67.8918C95.5965 67.9182 95.5385 67.9603 95.4911 68.0183C95.4489 68.0762 95.4279 68.1473 95.4279 68.2316C95.4279 68.3107 95.4463 68.3791 95.4832 68.4371C95.5253 68.495 95.5859 68.5451 95.6649 68.5872C95.7492 68.6241 95.8467 68.6557 95.9573 68.6821C96.1365 68.7189 96.3235 68.7558 96.5184 68.7927C96.7133 68.8296 96.8819 68.8665 97.0242 68.9033C97.1928 68.9508 97.3455 69.0192 97.4825 69.1088C97.6195 69.1931 97.7249 69.3064 97.7986 69.4486C97.8776 69.5856 97.9171 69.7621 97.9171 69.9781C97.9171 70.2309 97.8645 70.4417 97.7591 70.6103C97.659 70.7788 97.5247 70.9106 97.3561 71.0054C97.1875 71.1002 97.0005 71.1687 96.795 71.2108C96.5895 71.253 96.3867 71.2741 96.1865 71.2741ZM100.223 71.2741C100.022 71.2741 99.8222 71.253 99.622 71.2108C99.4271 71.1687 99.2427 71.1002 99.0689 71.0054C98.895 70.9053 98.7501 70.7709 98.6342 70.6024C98.5183 70.4338 98.4419 70.223 98.4051 69.9702H99.3771C99.4192 70.0861 99.4851 70.1809 99.5746 70.2547C99.6694 70.3231 99.7774 70.3758 99.8986 70.4127C100.025 70.4443 100.149 70.4601 100.27 70.4601C100.344 70.4601 100.423 70.4548 100.507 70.4443C100.597 70.4338 100.678 70.4127 100.752 70.3811C100.831 70.3495 100.894 70.3047 100.942 70.2468C100.989 70.1835 101.013 70.1019 101.013 70.0018C101.013 69.9069 100.987 69.8332 100.934 69.7805C100.881 69.7226 100.81 69.6778 100.72 69.6462C100.631 69.6093 100.523 69.5803 100.396 69.5592C100.17 69.5118 99.9276 69.4618 99.6694 69.4091C99.4113 69.3511 99.1874 69.2616 98.9977 69.1404C98.9187 69.093 98.8502 69.0377 98.7923 68.9745C98.7343 68.9112 98.6843 68.8428 98.6421 68.769C98.6053 68.69 98.5763 68.6057 98.5552 68.5161C98.5394 68.4266 98.5315 68.3291 98.5315 68.2237C98.5315 68.0025 98.5763 67.8154 98.6658 67.6627C98.7607 67.5046 98.8845 67.3782 99.0373 67.2833C99.1953 67.1832 99.3744 67.1095 99.5746 67.0621C99.7748 67.0147 99.9803 66.9909 100.191 66.9909C100.475 66.9909 100.734 67.0357 100.965 67.1253C101.197 67.2148 101.39 67.3518 101.542 67.5362C101.7 67.7206 101.795 67.955 101.827 68.2395H100.91C100.884 68.1078 100.802 68.0025 100.665 67.9234C100.533 67.8444 100.365 67.8049 100.159 67.8049C100.086 67.8049 100.009 67.8128 99.9302 67.8286C99.8512 67.8391 99.7748 67.8602 99.7011 67.8918C99.6326 67.9182 99.5746 67.9603 99.5272 68.0183C99.4851 68.0762 99.464 68.1473 99.464 68.2316C99.464 68.3107 99.4824 68.3791 99.5193 68.4371C99.5614 68.495 99.622 68.5451 99.7011 68.5872C99.7854 68.6241 99.8828 68.6557 99.9934 68.6821C100.173 68.7189 100.36 68.7558 100.555 68.7927C100.749 68.8296 100.918 68.8665 101.06 68.9033C101.229 68.9508 101.382 69.0192 101.519 69.1088C101.656 69.1931 101.761 69.3064 101.835 69.4486C101.914 69.5856 101.953 69.7621 101.953 69.9781C101.953 70.2309 101.901 70.4417 101.795 70.6103C101.695 70.7788 101.561 70.9106 101.392 71.0054C101.224 71.1002 101.037 71.1687 100.831 71.2108C100.626 71.253 100.423 71.2741 100.223 71.2741Z" fill="#7B5707"/>
</g>
<path d="M33.2805 32.8361C33.3326 32.8297 33.3847 32.8232 33.4369 32.8216L33.2043 32.8291C32.2518 32.7647 31.4807 31.9908 31.4301 31.013L31.4159 31.0134C31.4617 31.9914 30.7665 32.8316 29.8261 32.9951L29.5935 33.0026C29.6457 33.0009 29.698 33.004 29.7504 33.007C29.6984 33.0135 29.6463 33.0199 29.5941 33.0216L29.8267 33.0141C30.7792 33.0785 31.5503 33.8524 31.6008 34.8302L31.6151 34.8297C31.5692 33.8518 32.2645 33.0115 33.2049 32.8481L33.4375 32.8406C33.3853 32.8422 33.3329 32.8392 33.2805 32.8361Z" fill="white"/>
<path d="M76.0388 19.9249C76.1162 19.9154 76.1937 19.9058 76.2713 19.9033L75.9254 19.9145C74.5088 19.8187 73.3621 18.6678 73.2869 17.2136L73.2657 17.2143C73.3339 18.6687 72.2999 19.9183 70.9013 20.1614L70.5554 20.1726C70.6331 20.1701 70.711 20.1746 70.7888 20.1792C70.7114 20.1887 70.634 20.1983 70.5563 20.2008L70.9023 20.1897C72.3188 20.2854 73.4655 21.4363 73.5407 22.8905L73.5619 22.8898C73.4938 21.4354 74.5277 20.1858 75.9263 19.9427L76.2722 19.9316C76.1946 19.9341 76.1167 19.9295 76.0388 19.9249Z" fill="white"/>
<path d="M69.0211 59.314C69.056 59.3097 69.0908 59.3054 69.1258 59.3043L68.9701 59.3093C68.3326 59.2662 67.8165 58.7482 67.7827 58.0938L67.7731 58.0941C67.8038 58.7486 67.3385 59.311 66.709 59.4204L66.5534 59.4254C66.5883 59.4243 66.6234 59.4264 66.6584 59.4284C66.6236 59.4327 66.5887 59.437 66.5538 59.4382L66.7095 59.4331C67.347 59.4762 67.8631 59.9942 67.8969 60.6487L67.9064 60.6484C67.8758 59.9938 68.3411 59.4314 68.9705 59.322L69.1262 59.317C69.0913 59.3181 69.0562 59.3161 69.0211 59.314Z" fill="white"/>
<path d="M68.3833 32.6951L64.4385 35.463V33.9915C64.4385 30.663 61.7505 28.0003 58.4691 28.0003H43.528C39.9324 27.9653 37 30.9083 37 34.517V46.0088C37 49.0219 38.5011 52 42.9695 52H58.4342C61.7505 52 64.4036 49.3022 64.4036 46.0088V44.5023L68.3484 47.2701C70.3382 48.6365 71.9091 47.7957 71.9091 45.4132V34.5521C71.9091 32.1696 70.3382 31.3638 68.3833 32.6951Z" fill="#F2D084"/>
<path d="M55.4922 44.5879C57.7013 42.3788 57.7013 38.797 55.4922 36.5879C53.283 34.3788 49.7013 34.3788 47.4922 36.5879C45.283 38.797 45.283 42.3788 47.4922 44.5879C49.7013 46.797 53.283 46.797 55.4922 44.5879Z" fill="white"/>
<path d="M53.731 40.8663L50.9744 42.6497C50.6412 42.8653 50.2021 42.6262 50.2021 42.2289V38.6634C50.2021 38.2661 50.6412 38.0285 50.9744 38.2426L53.731 40.0274C54.0355 40.2247 54.0355 40.6702 53.731 40.8663Z" fill="#7B5707"/>
</g>
<defs>
<clipPath id="clip0_9020_188422">
<rect width="108" height="79.0244" rx="12" fill="white"/>
</clipPath>
</defs>
</svg>
