<svg width="148" height="222" viewBox="0 0 148 222" fill="none" xmlns="http://www.w3.org/2000/svg">
<rect width="148" height="222" rx="12" fill="#F4ECD7"/>
<path d="M77.9998 125.334H69.9998C62.7598 125.334 59.6665 122.24 59.6665 115V107C59.6665 99.7603 62.7598 96.667 69.9998 96.667H77.9998C85.2398 96.667 88.3332 99.7603 88.3332 107V115C88.3332 122.24 85.2398 125.334 77.9998 125.334Z" fill="#E7D6AF"/>
<path d="M72.3463 116.827C71.7863 116.827 71.2663 116.694 70.7996 116.427C69.733 115.814 69.1196 114.561 69.1196 112.974V109.027C69.1196 107.454 69.733 106.187 70.7996 105.574C71.8663 104.961 73.253 105.054 74.6263 105.854L78.053 107.827C79.413 108.614 80.1996 109.774 80.1996 111.001C80.1996 112.227 79.413 113.387 78.053 114.174L74.6263 116.147C73.853 116.601 73.0663 116.827 72.3463 116.827ZM72.3596 107.174C72.1463 107.174 71.9596 107.214 71.813 107.307C71.3863 107.561 71.133 108.187 71.133 109.027V112.974C71.133 113.814 71.373 114.441 71.813 114.694C72.2396 114.947 72.9063 114.841 73.6396 114.414L77.0663 112.441C77.7996 112.014 78.213 111.494 78.213 111.001C78.213 110.507 77.7996 109.974 77.0663 109.561L73.6396 107.587C73.1596 107.307 72.7196 107.174 72.3596 107.174Z" fill="#F4ECD7"/>
</svg>
