<svg width="32" height="32" viewBox="0 0 32 32" fill="none" xmlns="http://www.w3.org/2000/svg">
<g clip-path="url(#clip0_7507_40830)">
<path d="M0 16C0 24.8366 7.16344 32 16 32C24.8366 32 32 24.8366 32 16C32 7.16344 24.8366 0 16 0C7.16344 0 0 7.16344 0 16Z" fill="#AF7900"/>
<path d="M16.2663 17.6752C19.4903 17.6752 22.1039 15.0616 22.1039 11.8376C22.1039 8.61358 19.4903 6 16.2663 6C13.0423 6 10.4287 8.61358 10.4287 11.8376C10.4287 15.0616 13.0423 17.6752 16.2663 17.6752Z" fill="#FBF5E8"/>
<path d="M25.3689 31.8609C22.897 33.5446 19.725 33.9997 16.266 33.9997C12.807 33.9997 9.63507 33.5446 7.16316 31.8609C6.36007 31.3138 5.92143 30.3728 6.01165 29.4053C6.64408 22.624 11.7838 19.4229 16.266 19.4229C20.7482 19.4229 25.888 22.624 26.5204 29.4053C26.6106 30.3728 26.172 31.3138 25.3689 31.8609Z" fill="#FBF5E8"/>
</g>
<rect x="0.5" y="0.5" width="31" height="31" rx="15.5" stroke="#AF7900"/>
<defs>
<clipPath id="clip0_7507_40830">
<rect width="32" height="32" rx="16" fill="white"/>
</clipPath>
</defs>
</svg>
