<svg width="328" height="124" viewBox="0 0 328 124" fill="none" xmlns="http://www.w3.org/2000/svg">
<g clip-path="url(#clip0_3352_4274)">
<path d="M0 8C0 3.58172 3.58172 0 8 0H320C324.418 0 328 3.58172 328 8V116C328 120.418 324.418 124 320 124H7.99999C3.58171 124 0 120.418 0 116V8Z" fill="#1570EF"/>
<rect width="328" height="126" rx="8" fill="url(#paint0_linear_3352_4274)"/>
<path d="M-3.23685 15.0834C10.1493 28.5725 29.1762 37 50.2862 37C82.5338 37 109.922 17.3352 119.763 -10H-3.23685V15.0834Z" fill="url(#paint1_linear_3352_4274)"/>
<g opacity="0.5">
<path d="M16.1954 103.502C19.181 103.502 21.6012 101.151 21.6012 98.2511C21.6012 95.351 19.181 93 16.1954 93C13.2098 93 10.7895 95.351 10.7895 98.2511C10.7895 101.151 13.2098 103.502 16.1954 103.502Z" fill="#E88102"/>
<path d="M16.1953 102.948C19.1504 102.948 21.546 100.721 21.546 97.9742C21.546 95.227 19.1504 93 16.1953 93C13.2402 93 10.8446 95.227 10.8446 97.9742C10.8446 100.721 13.2402 102.948 16.1953 102.948Z" fill="#FDD835"/>
<path opacity="0.5" d="M18.331 93.4121L11.2879 99.9574C11.0518 99.4549 10.904 98.9093 10.8598 98.337L16.5857 93.0121C17.2013 93.0552 17.7882 93.1926 18.331 93.4121Z" fill="white"/>
<path opacity="0.5" d="M20.8575 95.5333L13.5695 102.308C13.1149 102.07 12.7045 101.773 12.3449 101.426L19.9109 94.3948C20.2816 94.7271 20.6015 95.1107 20.8575 95.5333Z" fill="white"/>
<path opacity="0.5" d="M19.6921 94.2082L12.1459 101.223C12.029 101.096 11.9164 100.963 11.8127 100.825L19.264 93.8985C19.4119 93.9949 19.5553 94.0995 19.6921 94.2082Z" fill="white"/>
<path opacity="0.5" d="M21.3779 96.7332L14.8599 102.792C14.6635 102.745 14.4716 102.688 14.284 102.622L21.1947 96.1978C21.2653 96.3722 21.3271 96.5506 21.3779 96.7332Z" fill="white"/>
<path opacity="0.5" d="M21.546 97.9742C21.546 98.009 21.546 98.0418 21.5438 98.0767C21.4864 95.3773 19.1145 93.2051 16.1953 93.2051C13.2761 93.2051 10.9041 95.3773 10.8468 98.0767C10.8468 98.0418 10.8446 98.009 10.8446 97.9742C10.8446 95.2276 13.2408 93 16.1953 93C19.1498 93 21.546 95.2276 21.546 97.9742Z" fill="white"/>
<path opacity="0.5" d="M20.5423 98.1896C20.5423 100.341 18.6646 102.087 16.35 102.087C15.0503 102.087 13.8875 101.535 13.1175 100.672C13.8831 101.441 14.9775 101.923 16.1955 101.923C18.5101 101.923 20.3878 100.177 20.3878 98.0255C20.3878 97.0819 20.0282 96.2184 19.428 95.5435C20.1186 96.2389 20.5423 97.1681 20.5423 98.1896Z" fill="white"/>
<path d="M16.1953 101.923C18.5106 101.923 20.3876 100.178 20.3876 98.0255C20.3876 95.873 18.5106 94.1282 16.1953 94.1282C13.8799 94.1282 12.003 95.873 12.003 98.0255C12.003 100.178 13.8799 101.923 16.1953 101.923Z" fill="#F39E09"/>
<path d="M19.3726 95.482C18.6378 94.8933 17.6824 94.5384 16.6366 94.5384C14.322 94.5384 12.4443 96.284 12.4443 98.4357C12.4443 99.408 12.826 100.296 13.4592 100.979C12.5678 100.263 12.003 99.2069 12.003 98.0255C12.003 95.8737 13.8807 94.1282 16.1953 94.1282C17.464 94.1282 18.6025 94.6533 19.3726 95.482Z" fill="#E88102"/>
<path d="M18.2549 95.7076V95.3999L17.8709 95.7076H14.4046L14.142 96.4296V96.7373H15.243C15.5916 96.7475 15.8255 96.8727 15.9469 97.1147H14.3626L14.1376 97.609V97.9167H15.9778C15.863 98.249 15.6115 98.4193 15.221 98.4254H14.2545L14.2589 99.1598L16.1389 101.246H17.6768V100.938L17.4032 100.877L16.0153 99.2951C16.4345 99.1762 16.7589 99.0059 16.9861 98.7823C17.2134 98.5587 17.359 98.2716 17.423 97.9188H18.0254L18.2505 97.1168V96.8091L17.9327 97.1168H17.4318C17.3965 96.8932 17.3193 96.6901 17.198 96.5117H18.0276L18.2549 95.7076Z" fill="#DB6704"/>
<path d="M18.0284 96.2019H17.1988C17.318 96.3804 17.3974 96.5834 17.4327 96.807H18.2513L18.0262 97.609H17.4239C17.3599 97.9619 17.2165 98.249 16.987 98.4726C16.7597 98.6962 16.4354 98.8664 16.0161 98.9854L17.6776 100.881V100.938H16.1397L14.262 98.8541L14.2576 98.1198H15.224C15.6146 98.1116 15.8661 97.9434 15.9808 97.609H14.1406L14.3657 96.807H15.9499C15.8308 96.567 15.5947 96.4399 15.2461 96.4296H14.145L14.4076 95.3999H18.2579L18.0284 96.2019Z" fill="#FDD835"/>
<path opacity="0.5" d="M14.3626 96.8069H14.6781L14.2523 97.2028L14.3626 96.8069Z" fill="white"/>
<path opacity="0.5" d="M16.1904 95.3999L15.0828 96.4296H14.1406L14.4032 95.3999H16.1904Z" fill="white"/>
<path opacity="0.5" d="M18.0285 96.2013H17.9645L18.0506 96.124L18.0285 96.2013Z" fill="white"/>
<path opacity="0.5" d="M18.249 96.8071L18.0239 97.6091H17.4216C17.3598 97.9619 17.2141 98.2491 16.9847 98.4726C16.7574 98.6962 16.4331 98.8665 16.0138 98.9854L16.5213 99.5618L15.6387 100.382L14.648 99.2829L17.4127 96.7127C17.4194 96.7435 17.426 96.7742 17.4304 96.805L18.249 96.8071Z" fill="white"/>
<path opacity="0.5" d="M15.2219 98.1199C15.341 98.1178 15.4491 98.0993 15.5418 98.0665L14.4584 99.0737L14.2598 98.8542L14.2576 98.5527L14.7232 98.1199H15.2219Z" fill="white"/>
<path opacity="0.5" d="M18.2537 95.3999L18.1986 95.5968L17.5476 96.2019H17.199C17.2454 96.2696 17.2851 96.3414 17.3182 96.4173L15.9479 97.6911C15.959 97.6665 15.97 97.6378 15.9788 97.6111H15.2728L17.6491 95.3999H18.2537Z" fill="white"/>
<path opacity="0.5" d="M17.3338 100.491L16.855 100.938H16.1379L16.118 100.916L16.994 100.101L17.3338 100.491Z" fill="white"/>
<path opacity="0.25" d="M19.6926 95.8737C16.9787 96.7598 14.7987 98.7064 13.7307 101.178C13.638 101.115 13.5476 101.049 13.4593 100.977C12.8261 100.294 12.4443 99.4059 12.4443 98.4357C12.4443 96.284 14.3221 94.5384 16.6367 94.5384C17.6825 94.5384 18.6379 94.8932 19.3705 95.4819C19.4874 95.6071 19.5933 95.7383 19.6926 95.8737Z" fill="white"/>
</g>
<g opacity="0.8">
<path d="M309.668 35.3932C311.136 36.0393 312.901 35.4144 313.61 33.9978C314.319 32.5811 313.704 30.909 312.235 30.2631C310.768 29.6171 309.004 30.2419 308.295 31.6586C307.585 33.0752 308.201 34.7473 309.668 35.3932Z" fill="#E88102"/>
<path d="M309.804 35.1225C311.257 35.7617 312.979 35.1924 313.65 33.8504C314.322 32.5086 313.689 30.9026 312.237 30.2632C310.784 29.6239 309.061 30.1932 308.39 31.5351C307.718 32.8769 308.352 34.4831 309.804 35.1225Z" fill="#FDD835"/>
<path opacity="0.5" d="M313.19 30.9266L308.126 32.6C308.134 32.3035 308.195 32.005 308.313 31.7158L312.429 30.3536C312.72 30.5078 312.976 30.7019 313.19 30.9266Z" fill="white"/>
<path opacity="0.5" d="M313.909 32.5096L308.67 34.2422C308.504 34.0277 308.375 33.7936 308.284 33.5465L313.721 31.7487C313.822 31.9913 313.885 32.2479 313.909 32.5096Z" fill="white"/>
<path opacity="0.5" d="M313.661 31.6101L308.237 33.4041C308.211 33.3167 308.187 33.2272 308.17 33.1377L313.527 31.3662C313.576 31.4453 313.621 31.5275 313.661 31.6101Z" fill="white"/>
<path opacity="0.5" d="M313.868 33.2081L309.183 34.7578C309.098 34.6921 309.017 34.6226 308.942 34.55L313.909 32.907C313.901 33.0075 313.888 33.108 313.868 33.2081Z" fill="white"/>
<path opacity="0.5" d="M313.651 33.845C313.643 33.8619 313.636 33.8779 313.626 33.8944C314.257 32.5651 313.622 30.9928 312.189 30.3618C310.755 29.7311 309.06 30.2783 308.373 31.583C308.381 31.566 308.387 31.5494 308.396 31.5325C309.067 30.1924 310.788 29.6235 312.239 30.2618C313.69 30.9002 314.323 32.5049 313.651 33.845Z" fill="white"/>
<path opacity="0.5" d="M313.102 33.7385C312.577 34.7896 311.227 35.2359 310.09 34.7352C309.45 34.454 309.013 33.9329 308.847 33.3447C309.034 33.886 309.455 34.3582 310.053 34.6217C311.191 35.1224 312.54 34.6761 313.067 33.625C313.297 33.1642 313.331 32.6647 313.202 32.2051C313.371 32.6942 313.352 33.2397 313.102 33.7385Z" fill="white"/>
<path d="M310.056 34.6216C311.194 35.1225 312.543 34.6764 313.069 33.6249C313.594 32.5736 313.098 31.3153 311.96 30.8143C310.822 30.3133 309.473 30.7595 308.947 31.811C308.421 32.8623 308.917 34.1206 310.056 34.6216Z" fill="#F39E09"/>
<path d="M313.192 32.1631C312.975 31.7165 312.593 31.3365 312.078 31.1103C310.94 30.6096 309.591 31.0559 309.065 32.1069C308.827 32.5818 308.798 33.0983 308.942 33.5689C308.678 33.0263 308.659 32.3882 308.948 31.8111C309.474 30.76 310.824 30.3137 311.961 30.8144C312.585 31.089 313.017 31.5918 313.192 32.1631Z" fill="#E88102"/>
<path d="M312.588 32.0308L312.662 31.8804L312.399 31.9477L310.693 31.1973L310.387 31.4933L310.313 31.6437L310.854 31.882C311.023 31.9625 311.107 32.0743 311.107 32.2189L310.328 31.8759L310.097 32.0688L310.021 32.2192L310.927 32.6175C310.789 32.7551 310.623 32.784 310.429 32.7024L309.954 32.4932L309.776 32.8531L310.191 34.2797L310.947 34.6126L311.023 34.4623L310.904 34.373L310.607 33.2995C310.843 33.3321 311.044 33.3192 311.211 33.2591C311.378 33.1991 311.519 33.0901 311.637 32.9316L311.933 33.062L312.24 32.7187L312.316 32.5683L312.084 32.65L311.837 32.5416C311.875 32.4248 311.887 32.3087 311.87 32.1952L312.278 32.3749L312.588 32.0308Z" fill="#DB6704"/>
<path d="M312.355 32.2237L311.947 32.0441C311.963 32.1571 311.952 32.2736 311.914 32.3904L312.317 32.5677L312.01 32.9109L311.714 32.7805C311.596 32.9392 311.456 33.0484 311.287 33.1081C311.122 33.1681 310.919 33.1811 310.684 33.1484L311.038 34.4345L311.024 34.4625L310.267 34.1296L309.854 32.7046L310.031 32.3448L310.506 32.5539C310.701 32.6345 310.866 32.6068 311.003 32.4682L310.099 32.0698L310.405 31.7266L311.185 32.0695C311.185 31.9265 311.1 31.8131 310.931 31.7327L310.389 31.4944L310.771 31.048L312.664 31.8814L312.355 32.2237Z" fill="#FDD835"/>
<path opacity="0.5" d="M310.408 31.7267L310.562 31.795L310.257 31.8961L310.408 31.7267Z" fill="white"/>
<path opacity="0.5" d="M311.651 31.4331L310.855 31.6961L310.392 31.4925L310.773 31.0468L311.651 31.4331Z" fill="white"/>
<path opacity="0.5" d="M312.355 32.2197L312.323 32.206L312.385 32.1866L312.355 32.2197Z" fill="white"/>
<path opacity="0.5" d="M312.315 32.5675L312.008 32.9106L311.712 32.7803C311.595 32.9393 311.453 33.0481 311.286 33.1076C311.119 33.1677 310.918 33.1808 310.683 33.1482L310.791 33.5396L310.157 33.7494L309.938 32.998L311.926 32.3405C311.922 32.357 311.917 32.3734 311.912 32.3895L312.315 32.5675Z" fill="white"/>
<path opacity="0.5" d="M310.508 32.5557C310.566 32.5805 310.625 32.5948 310.678 32.5989L309.899 32.8563L309.856 32.7062L309.927 32.5585L310.263 32.4477L310.508 32.5557Z" fill="white"/>
<path opacity="0.5" d="M312.662 31.8785L312.586 31.9627L312.12 32.1174L311.948 32.042C311.954 32.085 311.957 32.1287 311.954 32.1729L310.969 32.4986C310.98 32.4889 310.993 32.4773 311.004 32.4662L310.658 32.3134L312.365 31.7476L312.662 31.8785Z" fill="white"/>
<path opacity="0.5" d="M310.961 34.1711L310.616 34.286L310.264 34.1308L310.26 34.1155L310.889 33.9073L310.961 34.1711Z" fill="white"/>
<path opacity="0.25" d="M313.253 32.4233C311.703 32.2691 310.155 32.7483 309.026 33.7245C308.996 33.6734 308.967 33.6218 308.942 33.5677C308.798 33.0971 308.827 32.5806 309.065 32.1068C309.59 31.0558 310.94 30.6095 312.078 31.1101C312.591 31.3364 312.975 31.7164 313.191 32.1624C313.218 32.2488 313.237 32.3357 313.253 32.4233Z" fill="white"/>
</g>
<path d="M290.621 13C290.621 11.8956 289.66 11 288.474 11C289.659 11 290.621 10.1047 290.621 9C290.621 10.1044 291.582 11 292.767 11C291.582 11 290.621 11.8954 290.621 13Z" fill="white"/>
<path d="M204.746 12.8103C204.746 12.0342 204.071 11.4052 203.237 11.4052C204.07 11.4052 204.746 10.776 204.746 10C204.746 10.7762 205.421 11.4052 206.254 11.4052C205.421 11.4052 204.746 12.0343 204.746 12.8103Z" fill="white"/>
<path d="M157.509 12.8103C157.509 12.0342 156.833 11.4052 156 11.4052C156.832 11.4052 157.509 10.776 157.509 10C157.509 10.7762 158.184 11.4052 159.017 11.4052C158.184 11.4052 157.509 12.0343 157.509 12.8103Z" fill="white"/>
<path d="M270.168 34.2738C272.819 34.4126 275.116 32.452 275.297 29.8943C275.479 27.3365 273.477 25.1503 270.826 25.0114C268.174 24.8722 265.878 26.8329 265.696 29.3905C265.515 31.9485 267.517 34.1344 270.168 34.2738Z" fill="#E88102"/>
<path d="M270.203 33.7841C272.827 33.9218 275.094 32.0695 275.265 29.6466C275.438 27.2243 273.45 25.1488 270.826 25.0112C268.202 24.8735 265.936 26.7259 265.763 29.1483C265.592 31.571 267.579 33.6463 270.203 33.7841Z" fill="#FDD835"/>
<path opacity="0.5" d="M272.699 25.4668L266.035 30.9108C265.857 30.4566 265.76 29.9685 265.757 29.462L271.174 25.0327C271.718 25.0993 272.231 25.248 272.699 25.4668Z" fill="white"/>
<path opacity="0.5" d="M274.807 27.4643L267.912 33.0997C267.523 32.8686 267.178 32.5874 266.88 32.2648L274.038 26.4166C274.346 26.7267 274.606 27.0797 274.807 27.4643Z" fill="white"/>
<path opacity="0.5" d="M273.856 26.2374L266.717 32.0723C266.621 31.9546 266.529 31.8317 266.446 31.7059L273.496 25.9445C273.621 26.0362 273.741 26.1352 273.856 26.2374Z" fill="white"/>
<path opacity="0.5" d="M275.191 28.5523L269.025 33.5922C268.853 33.5413 268.686 33.4817 268.524 33.415L275.062 28.0716C275.113 28.2285 275.158 28.389 275.191 28.5523Z" fill="white"/>
<path opacity="0.5" d="M275.255 29.6349C275.253 29.6656 275.251 29.6946 275.247 29.7251C275.365 27.3467 273.397 25.3241 270.808 25.1878C268.219 25.0517 265.981 26.8529 265.762 29.2262C265.764 29.1955 265.764 29.1665 265.766 29.1358C265.937 26.7183 268.201 24.8693 270.821 25.0072C273.441 25.1452 275.427 27.2176 275.255 29.6349Z" fill="white"/>
<path opacity="0.5" d="M274.36 29.794C274.225 31.6911 272.448 33.1427 270.394 33.035C269.24 32.9746 268.242 32.4339 267.612 31.6366C268.244 32.3505 269.186 32.8265 270.266 32.8831C272.322 32.9909 274.097 31.539 274.232 29.6419C274.291 28.8099 274.025 28.0316 273.536 27.4088C274.105 28.054 274.423 28.893 274.36 29.794Z" fill="white"/>
<path d="M270.266 32.8795C272.322 32.9872 274.098 31.5361 274.232 29.6378C274.368 27.74 272.81 26.1137 270.754 26.0059C268.699 25.8983 266.923 27.3493 266.788 29.2476C266.653 31.1455 268.211 32.7718 270.266 32.8795Z" fill="#F39E09"/>
<path d="M273.492 27.3454C272.876 26.7921 272.05 26.4345 271.122 26.386C269.066 26.278 267.29 27.7299 267.154 29.6273C267.094 30.4849 267.377 31.2857 267.897 31.9177C267.15 31.2449 266.715 30.287 266.789 29.2453C266.923 27.3475 268.7 25.8957 270.755 26.0036C271.881 26.0625 272.86 26.5787 273.492 27.3454Z" fill="#E88102"/>
<path d="M272.486 27.4935L272.505 27.2217L272.144 27.4753L269.064 27.3131L268.786 27.9383L268.767 28.2102L269.746 28.2617C270.054 28.2867 270.254 28.4082 270.347 28.6275L268.939 28.5536L268.708 28.9794L268.689 29.2511L270.325 29.3373C270.202 29.6254 269.967 29.7636 269.619 29.7508L268.761 29.7057L268.72 30.3544L270.259 32.2837L271.626 32.3556L271.646 32.0842L271.406 32.0168L270.271 30.5558C270.652 30.4704 270.951 30.3356 271.167 30.1487C271.382 29.9617 271.529 29.715 271.609 29.4068L272.144 29.4348L272.394 28.7374L272.413 28.4655L272.111 28.7224L271.666 28.6989C271.65 28.5002 271.593 28.317 271.496 28.1538L272.234 28.1927L272.486 27.4935Z" fill="#DB6704"/>
<path d="M272.254 27.9193L271.517 27.8803C271.612 28.0435 271.669 28.2262 271.687 28.4253L272.414 28.4637L272.164 29.1611L271.629 29.1331C271.55 29.4413 271.405 29.6883 271.187 29.8749C270.972 30.0617 270.672 30.1967 270.293 30.2824L271.65 32.0329L271.646 32.0835L270.28 32.0118L268.741 30.0842L268.784 29.4358L269.642 29.481C269.989 29.4918 270.224 29.3553 270.347 29.0655L268.711 28.9793L268.962 28.282L270.369 28.3559C270.278 28.1384 270.077 28.0156 269.768 27.9901L268.789 27.9386L269.087 27.042L272.508 27.2221L272.254 27.9193Z" fill="#FDD835"/>
<path opacity="0.5" d="M268.964 28.277L269.244 28.2916L268.842 28.6212L268.964 28.277Z" fill="white"/>
<path opacity="0.5" d="M270.67 27.1195L269.623 27.9744L268.787 27.9303L269.084 27.0361L270.67 27.1195Z" fill="white"/>
<path opacity="0.5" d="M272.412 28.4662L272.162 29.1631L271.626 29.1347C271.55 29.4433 271.402 29.6895 271.185 29.8764C270.969 30.0628 270.671 30.1979 270.29 30.2832L270.705 30.8153L269.87 31.498L269.059 30.4821L271.675 28.3439C271.68 28.3715 271.684 28.3989 271.685 28.4261L272.412 28.4662Z" fill="white"/>
<path opacity="0.5" d="M269.647 29.4808C269.753 29.4848 269.85 29.4734 269.935 29.4489L268.909 30.2859L268.747 30.0835L268.764 29.8175L269.204 29.4577L269.647 29.4808Z" fill="white"/>
<path opacity="0.5" d="M272.498 27.2198L272.437 27.391L271.821 27.8937L271.511 27.8776C271.548 27.9394 271.579 28.0044 271.604 28.0729L270.308 29.1318C270.319 29.1106 270.331 29.0858 270.34 29.0629L269.714 29.03L271.96 27.1914L272.498 27.2198Z" fill="white"/>
<path opacity="0.25" d="M273.751 27.7076C271.286 28.3625 269.229 29.9777 268.125 32.1073C268.047 32.0469 267.972 31.9852 267.897 31.9176C267.378 31.2859 267.094 30.4847 267.155 29.6292C267.29 27.732 269.067 26.2802 271.121 26.3877C272.05 26.4366 272.876 26.7937 273.49 27.3472C273.585 27.4628 273.671 27.5835 273.751 27.7076Z" fill="white"/>
<path d="M46.6256 83.9257C33.4175 77.0409 19.1392 72.0013 6.17115 64.735C4.07972 63.5632 2.01461 62.3184 0 61V127.677H82.051C82.4 122.606 80.987 117.45 78.6849 112.801C72.3642 100.036 59.8338 90.8104 46.6256 83.9257Z" fill="url(#paint2_linear_3352_4274)"/>
<path d="M223.622 58.8863C225.564 58.4004 226.704 56.4924 226.169 54.6247C225.632 52.7571 223.624 51.6369 221.683 52.1229C219.74 52.6089 218.6 54.517 219.136 56.3846C219.671 58.2524 221.68 59.3724 223.622 58.8863Z" fill="#E88102"/>
<path d="M223.52 58.529C225.442 58.0481 226.588 56.2239 226.081 54.455C225.573 52.6861 223.604 51.6418 221.681 52.1229C219.76 52.604 218.614 54.4279 219.121 56.1969C219.628 57.9658 221.598 59.01 223.52 58.529Z" fill="#FDD835"/>
<path opacity="0.5" d="M223.147 52.0347L219.775 57.3959C219.529 57.1106 219.333 56.7834 219.198 56.422L221.938 52.0612C222.346 51.9887 222.753 51.9817 223.147 52.0347Z" fill="white"/>
<path opacity="0.5" d="M225.183 52.9968L221.694 58.5457C221.355 58.4665 221.033 58.3418 220.735 58.1771L224.357 52.4177C224.66 52.5713 224.938 52.7663 225.183 52.9968Z" fill="white"/>
<path opacity="0.5" d="M224.18 52.33L220.569 58.0756C220.468 58.0127 220.371 57.9452 220.278 57.8736L223.845 52.2003C223.958 52.2383 224.071 52.2822 224.18 52.33Z" fill="white"/>
<path opacity="0.5" d="M225.742 53.6893L222.623 58.652C222.487 58.6537 222.351 58.6478 222.217 58.6361L225.524 53.3744C225.603 53.4752 225.676 53.5801 225.742 53.6893Z" fill="white"/>
<path opacity="0.5" d="M226.071 54.4487C226.077 54.4711 226.083 54.4922 226.088 54.5149C225.552 52.7894 223.612 51.7786 221.715 52.2528C219.82 52.7271 218.68 54.5085 219.141 56.2526C219.134 56.2301 219.127 56.2094 219.12 56.1871C218.613 54.422 219.758 52.601 221.677 52.121C223.597 51.6411 225.564 52.6835 226.071 54.4487Z" fill="white"/>
<path opacity="0.5" d="M225.468 54.7601C225.865 56.1456 224.966 57.5751 223.461 57.9517C222.616 58.1632 221.758 57.9972 221.098 57.5665C221.738 57.9372 222.539 58.0695 223.331 57.8712C224.836 57.4946 225.735 56.0651 225.338 54.6797C225.163 54.0722 224.77 53.5747 224.255 53.2379C224.832 53.5732 225.279 54.1024 225.468 54.7601Z" fill="white"/>
<path d="M223.331 57.8686C224.837 57.4919 225.735 56.0627 225.338 54.6767C224.939 53.2908 223.397 52.4726 221.891 52.8495C220.385 53.2263 219.486 54.6555 219.884 56.0414C220.281 57.4274 221.825 58.2455 223.331 57.8686Z" fill="#F39E09"/>
<path d="M224.207 53.2021C223.62 52.9427 222.934 52.8696 222.254 53.0398C220.748 53.4166 219.85 54.8462 220.247 56.2317C220.426 56.8579 220.838 57.3676 221.377 57.7043C220.665 57.3885 220.102 56.8002 219.884 56.0395C219.486 54.6538 220.385 53.2242 221.891 52.8475C222.716 52.641 223.553 52.7939 224.207 53.2021Z" fill="#E88102"/>
<path d="M223.522 53.53L223.465 53.3317L223.272 53.5925L221.016 54.1568L220.978 54.6649L221.035 54.8632L221.752 54.684C221.98 54.6339 222.156 54.6765 222.279 54.8128L221.249 55.0706L221.194 55.4259L221.251 55.6242L222.449 55.3247C222.435 55.5575 222.303 55.7083 222.05 55.7758L221.421 55.933L221.559 56.4058L223.17 57.4445L224.171 57.1942L224.113 56.9959L223.924 57.0008L222.728 56.2072C222.979 56.0622 223.158 55.8997 223.265 55.7185C223.372 55.5374 223.413 55.3287 223.389 55.0908L223.782 54.9929L223.78 54.4392L223.723 54.2409L223.572 54.4909L223.246 54.5725C223.183 54.4341 223.094 54.3158 222.982 54.2205L223.523 54.0854L223.522 53.53Z" fill="#DB6704"/>
<path d="M223.467 53.8855L222.926 54.0205C223.037 54.1161 223.126 54.2341 223.191 54.3725L223.724 54.2393L223.725 54.7929L223.333 54.8909C223.357 55.1288 223.317 55.3371 223.209 55.5186C223.102 55.6997 222.923 55.8623 222.671 56.0072L224.104 56.9584L224.115 56.9954L223.114 57.2457L221.506 56.208L221.368 55.7354L221.996 55.5781C222.248 55.5092 222.381 55.3599 222.394 55.1257L221.197 55.4252L221.195 54.8716L222.226 54.6138C222.104 54.4784 221.927 54.4349 221.698 54.485L220.981 54.6642L220.962 53.9578L223.467 53.3311L223.467 53.8855Z" fill="#FDD835"/>
<path opacity="0.5" d="M221.195 54.8675L221.4 54.8162L221.196 55.1405L221.195 54.8675Z" fill="white"/>
<path opacity="0.5" d="M222.119 53.6638L221.59 54.5057L220.978 54.6588L220.958 53.9542L222.119 53.6638Z" fill="white"/>
<path opacity="0.5" d="M223.458 53.886L223.417 53.8964L223.458 53.8322V53.886Z" fill="white"/>
<path opacity="0.5" d="M223.723 54.2412L223.724 54.7944L223.332 54.8925C223.358 55.1298 223.316 55.3386 223.208 55.5198C223.101 55.7009 222.922 55.8634 222.671 56.0082L223.107 56.2968L222.685 56.969L221.837 56.4221L223.161 54.3167C223.171 54.3355 223.181 54.3542 223.19 54.3733L223.723 54.2412Z" fill="white"/>
<path opacity="0.5" d="M221.999 55.5769C222.077 55.5562 222.144 55.5268 222.197 55.4905L221.679 56.3151L221.509 56.2061L221.453 56.0123L221.675 55.6581L221.999 55.5769Z" fill="white"/>
<path opacity="0.5" d="M223.459 53.3318L223.46 53.4675L223.149 53.9629L222.922 54.0196C222.965 54.0557 223.004 54.0953 223.04 54.1388L222.383 55.1816C222.386 55.1639 222.389 55.1437 222.389 55.125L221.93 55.24L223.066 53.4302L223.459 53.3318Z" fill="white"/>
<path opacity="0.5" d="M223.811 56.7674L223.582 57.1329L223.116 57.2497L223.1 57.2383L223.519 56.572L223.811 56.7674Z" fill="white"/>
<path opacity="0.25" d="M224.487 53.4037C222.886 54.416 221.828 56.0242 221.59 57.7896C221.519 57.7638 221.447 57.7363 221.376 57.7043C220.839 57.3676 220.426 56.8578 220.247 56.2331C219.85 54.8475 220.748 53.4179 222.254 53.0412C222.934 52.871 223.62 52.9439 224.205 53.2038C224.305 53.2654 224.397 53.3327 224.487 53.4037Z" fill="white"/>
<path d="M327.968 56.6926C319.122 58.5664 310.494 62.2291 304.279 68.3572C298.266 74.2862 294.921 82.042 290.777 89.2155C281.608 105.088 267.855 118.781 250.987 127.71C249.363 128.57 247.671 129.429 246 130.329H332.191V56C330.78 56.1728 329.372 56.3951 327.968 56.6926Z" fill="url(#paint3_linear_3352_4274)"/>
<path d="M248.699 39.8979C247.712 38.6322 243.184 37.5732 242.635 42.0247C242.344 44.3879 243.122 54.1799 238.246 54.1799C236.279 54.1932 234.349 56.7085 235.352 60.3518C236.714 65.2994 241.237 64.8277 244.917 62.83C249.216 60.4963 247.153 48.6074 247.41 44.9719C247.622 41.9646 248.208 41.2914 248.699 39.8979Z" fill="#050505"/>
<path d="M247.41 44.9718L248.576 44.6901L249.731 40.8413L248.699 39.8979C248.699 39.8979 246.734 42.4876 247.41 44.9718Z" fill="#FC3A52"/>
<path d="M257.547 47.119C257.547 47.119 259.71 46.2149 258.232 41.734C256.928 37.7788 250.17 38.3329 248.701 42.2101C247.231 46.0869 250.133 49.1656 253.338 49.7518C255.411 46.9616 257.547 47.119 257.547 47.119Z" fill="#050505"/>
<path d="M259.441 112.125C259.441 112.125 259.202 113.725 260.908 113.877C262.616 114.03 267.464 114.209 267.681 113.269C267.842 112.567 265.007 111.871 263.176 111.534C261.345 111.197 259.49 110.904 259.441 112.125Z" fill="#050505"/>
<path d="M266.238 112.666C266.221 112.364 261.897 111.19 260.551 111.516C259.658 111.732 259.881 112.38 260.31 112.466C261.436 112.691 266.26 113.042 266.238 112.666Z" fill="#FFB680"/>
<path d="M239.979 108.048C241.074 107.374 241.898 108.948 242.668 110.53C242.885 110.974 243.122 111.494 243.337 112.018C244.555 112.539 245.577 113.126 245.406 113.552C245.237 113.975 244.095 114.016 242.759 113.9C242.272 113.842 241.918 113.701 241.668 113.417C240.722 112.315 239.758 110.91 239.301 110.178C238.442 108.798 239.979 108.048 239.979 108.048Z" fill="#050505"/>
<path d="M240.089 108.757C239.979 108.561 240.11 108.198 240.587 108.128C240.967 108.071 241.245 108.527 241.245 108.527C241.354 108.733 242.509 110.794 243.115 112.202C243.693 112.43 244.086 112.633 244.073 112.761C244.062 112.869 243.362 112.81 242.69 112.707L242.683 112.713C241.739 111.438 240.342 109.208 240.089 108.757Z" fill="#FFB680"/>
<path d="M263.92 84.6282C262.237 85.1056 262.142 86.9587 262.124 87.4181C261.962 91.6178 260.268 110.021 259.958 111.975L261.631 112.27C261.962 110.184 264.932 97.4659 266.981 89.2977C267.244 88.2521 267.366 87.9275 267.59 86.826C267.826 85.6691 266.469 83.9051 263.92 84.6282Z" fill="url(#paint4_linear_3352_4274)"/>
<path d="M259.048 86.7699C257.344 86.3606 256.142 87.7836 255.87 88.1671C253.384 91.6651 241.692 106.688 240.129 108.431L241.607 109.245C243.19 107.48 252.719 98.215 259.044 92.2397C259.854 91.4755 260.14 91.2576 260.949 90.4264C261.798 89.5534 261.628 87.3898 259.048 86.7699Z" fill="#FFB680"/>
<path d="M300.027 52.9005C300.027 52.9005 295.728 58.5735 289.402 63.985C289.402 63.985 288.408 64.9229 289.371 65.9597C290.391 67.0589 291.426 66.1991 291.426 66.1991C291.453 66.1808 291.478 66.1621 291.503 66.1425C297.84 61.453 302.514 55.6363 302.371 54.0826C302.229 52.5294 300.844 52.0699 300.027 52.9005Z" fill="url(#paint5_linear_3352_4274)"/>
<path d="M295.25 58.1061L299.478 62.2653C299.478 62.2653 301.436 60.3203 303.485 57.7365C304.653 56.2642 302.369 49.5304 300.635 51.6034C299.055 53.4923 295.25 58.1061 295.25 58.1061Z" fill="url(#paint6_linear_3352_4274)"/>
<path d="M259.543 53.702C259.543 53.702 263.776 59.4182 270.038 64.8934C270.038 64.8934 271.021 65.8413 270.047 66.8683C269.013 67.9569 267.988 67.0868 267.988 67.0868C267.962 67.0682 267.937 67.0493 267.911 67.0294C261.63 62.2761 257.025 56.4124 257.185 54.8603C257.345 53.3087 258.736 52.8631 259.543 53.702Z" fill="#FFB680"/>
<path d="M264.417 58.9668L260.885 63.3586C260.885 63.3586 257.743 60.8844 255.748 58.2641C254.189 56.217 255.699 49.4976 258.493 52.1214C260.304 53.8217 264.417 58.9668 264.417 58.9668Z" fill="url(#paint7_linear_3352_4274)"/>
<path d="M267.7 64.927C274.652 60.1666 279.786 54.7542 279.786 54.7542L280.977 55.3631C280.977 55.3631 276.241 61.9559 269.573 67.2514C269.573 67.2514 268.741 67.848 267.716 66.7369C266.75 65.6886 267.63 64.9759 267.63 64.9759C267.653 64.9599 267.676 64.9442 267.7 64.927Z" fill="#FFB680"/>
<path d="M264.096 71.6496C263.516 69.4775 261.992 63.9069 261.992 63.9069C261.992 63.9069 258.562 64.1279 256.125 64.4234C253.688 64.7187 252.021 64.9819 252.021 64.9819C252.021 64.9819 251.19 72.2595 251.767 75.5618C255.466 75.3356 256.317 75.5618 259.438 74.2418C260.774 73.6767 264.096 71.6496 264.096 71.6496Z" fill="#FFB680"/>
<path d="M262.87 59.6205C262.475 57.7629 260.711 57.1924 260.219 55.6762C259.508 53.6503 258.684 52.0257 257.802 51.6505C255.526 50.6818 251.767 52.0922 251.767 54.5138C251.767 61.9727 251.337 67.754 251.337 67.754C251.337 67.754 251.763 68.687 256.577 68.1018C262.933 67.329 262.701 65.9042 262.701 65.9042C262.701 65.9042 262.294 64.3287 261.666 61.6215C262.217 61.473 263.052 60.4755 262.87 59.6205Z" fill="#FC3A52"/>
<path d="M257.026 42.9672C257.026 42.9672 259.414 46.9947 258.796 48.2623C258.177 49.5305 256.104 49.3994 256.104 49.3994C256.104 49.3994 256.712 50.7249 256.889 51.0103C257.066 51.2948 259.458 53.8544 257.595 55.1565C256.013 56.2616 254.416 52.5941 254.416 52.5941L252.252 46.8903C252.252 46.8903 250.769 46.3838 250.977 45.3067C251.187 44.2294 252.751 45.2583 252.751 45.2583L251.591 42.9977C251.591 42.9977 255.613 43.7977 257.026 42.9672Z" fill="#FFB680"/>
<path d="M257.585 51.5667C257.585 51.5667 259.129 53.229 259.343 55.0584C259.557 56.8878 260.917 57.8685 260.917 58.1156C260.917 58.9057 256.974 59.2828 256.071 58.4719C255.77 58.202 255.463 56.7691 254.977 55.5083C254.49 54.2474 253.867 52.5784 252.847 52.4631C253.442 51.522 256.882 50.8811 257.585 51.5667Z" fill="#FFB680"/>
<path style="mix-blend-mode:color-burn" d="M258.926 57.3966C258.918 56.9233 258.936 56.6294 258.898 56.6236C258.86 56.6172 258.772 56.9083 258.728 57.3903C258.698 57.7179 258.692 58.1361 258.734 58.5994C258.714 58.5477 258.694 58.4961 258.672 58.4439C258.431 57.8679 258.114 57.3856 257.844 57.0695C257.574 56.7513 257.354 56.5971 257.327 56.6236C257.301 56.649 257.462 56.841 257.682 57.1749C257.903 57.5075 258.18 57.9833 258.412 58.5386C258.465 58.6654 258.513 58.7901 258.558 58.9123C258.721 58.9037 258.883 58.8912 259.042 58.8741C258.958 58.3056 258.932 57.7888 258.926 57.3966Z" fill="url(#paint8_linear_3352_4274)"/>
<path d="M267.715 89.5517C267.99 87.5997 268.321 85.6195 267.715 83.378C267.715 83.378 264.399 72.7601 263.863 70.7838C263.863 70.7838 261.825 72.3711 258.496 72.5632C254.309 72.8044 253.064 72.393 251.563 71.7993C251.583 73.7983 252.91 86.1004 252.91 86.1004C252.91 86.1004 252.901 86.135 252.908 86.1904C252.912 90.1171 249.312 93.5645 247.952 95.4721C246.866 96.9962 252.57 99.5078 255.341 97.971C258.113 96.4341 258.564 98.887 262.242 99.085C265.92 99.2831 267.799 96.5484 267.886 96.0865C268.056 95.1718 267.44 91.5036 267.715 89.5517Z" fill="#2F3136"/>
<path style="mix-blend-mode:color-burn" d="M260.752 85.648C258.798 85.6448 259.05 88.8728 257.773 93.1727C257.004 95.7652 256.541 97.5099 254.537 98.2885C254.824 98.2123 255.095 98.108 255.342 97.9711C257.829 96.5913 258.449 98.4261 261.21 98.9593C258.653 98.4706 263.098 85.6518 260.752 85.648Z" fill="url(#paint9_linear_3352_4274)"/>
<path d="M263.589 69.7677C263.589 69.7677 261.444 70.8425 258.04 71.1654C254.635 71.4882 251.6 70.5825 251.6 70.5825L251.563 72.2379C251.563 72.2379 253.568 73.3524 258.412 73.129C262.702 72.931 263.934 71.0365 263.934 71.0365L263.589 69.7677Z" fill="#5E85DD"/>
<path d="M258.97 69.3548C259.021 69.62 259.146 69.8211 259.249 69.8041C259.352 69.7868 259.395 69.5578 259.344 69.2926C259.293 69.0272 259.168 68.8261 259.065 68.8433C258.961 68.8603 258.919 69.0894 258.97 69.3548Z" fill="#FB9D5F"/>
<path d="M311.887 63.7643H240.061C239.352 63.7643 238.776 64.2997 238.776 64.9602V90.9597C238.776 91.6202 239.352 92.1556 240.061 92.1556H311.887C312.597 92.1556 313.172 91.6202 313.172 90.9597V64.9602C313.172 64.2997 312.597 63.7643 311.887 63.7643Z" fill="#1570EF"/>
<path d="M310.586 83.1262V72.7938C306.656 72.7938 303.469 69.8285 303.469 66.1705H248.479C248.479 69.8285 245.293 72.7938 241.362 72.7938V83.1262C245.293 83.1262 248.479 86.0914 248.479 89.7494H303.469C303.469 86.0914 306.656 83.1262 310.586 83.1262Z" fill="#A3C9FF"/>
<path style="mix-blend-mode:color-burn" d="M303.469 66.1704H302.557C302.557 69.8284 305.744 72.7936 309.674 72.7936V83.1261C305.744 83.1261 302.557 86.0913 302.557 89.7493H303.469C303.469 86.0912 306.656 83.1261 310.586 83.1261V72.7936C306.656 72.7936 303.469 69.8284 303.469 66.1704Z" fill="url(#paint10_linear_3352_4274)"/>
<path d="M238.776 90.9596V64.9601C238.776 64.3023 239.355 63.7642 240.061 63.7642H238.785C238.078 63.7642 237.5 64.3023 237.5 64.9601V90.9596C237.5 91.6174 238.078 92.1556 238.785 92.1556H240.061C239.355 92.1556 238.776 91.6174 238.776 90.9596Z" fill="#92B4EA"/>
<path style="mix-blend-mode:color-burn" d="M238.776 90.9596V64.9601C238.776 64.3023 239.355 63.7642 240.061 63.7642H238.785C238.078 63.7642 237.5 64.3023 237.5 64.9601V90.9596C237.5 91.6174 238.078 92.1556 238.785 92.1556H240.061C239.355 92.1556 238.776 91.6174 238.776 90.9596Z" fill="url(#paint11_linear_3352_4274)" fill-opacity="0.5"/>
<path d="M284.738 77.9599C284.738 73.4557 280.814 69.8043 275.974 69.8043C271.134 69.8043 267.21 73.4556 267.21 77.9599C267.21 82.4642 271.134 86.1155 275.974 86.1155C280.814 86.1155 284.738 82.4641 284.738 77.9599Z" fill="#175CD3"/>
<path d="M295.746 77.9598C295.746 76.1661 294.183 74.7119 292.256 74.7119C290.328 74.7119 288.766 76.1661 288.766 77.9598C288.766 79.7536 290.328 81.2078 292.256 81.2078C294.183 81.2078 295.746 79.7537 295.746 77.9598Z" fill="#6AA8FF"/>
<path d="M259.693 81.2078C261.62 81.2078 263.183 79.7536 263.183 77.9598C263.183 76.1661 261.62 74.7119 259.693 74.7119C257.765 74.7119 256.202 76.1661 256.202 77.9598C256.202 79.7536 257.765 81.2078 259.693 81.2078Z" fill="#6AA8FF"/>
<path d="M304.157 77.9599C304.157 76.8336 303.176 75.9205 301.965 75.9205C300.755 75.9205 299.774 76.8336 299.774 77.9599C299.774 79.0863 300.755 79.9993 301.965 79.9993C303.175 79.9993 304.157 79.0863 304.157 77.9599Z" fill="#6B94DD"/>
<path d="M252.175 77.9599C252.175 76.8336 251.193 75.9205 249.983 75.9205C248.773 75.9205 247.792 76.8336 247.792 77.9599C247.792 79.0863 248.773 79.9993 249.983 79.9993C251.193 79.9993 252.175 79.0863 252.175 77.9599Z" fill="#6AA8FF"/>
<path d="M283.189 75.8021C282.985 75.8021 282.793 75.6878 282.715 75.5009C282.63 75.2996 282.533 75.1 282.428 74.9074C282.3 74.6741 282.4 74.3886 282.65 74.2698C282.901 74.1508 283.208 74.2435 283.336 74.4768C283.456 74.6968 283.566 74.925 283.663 75.1549C283.766 75.3986 283.637 75.6738 283.375 75.7693C283.314 75.7916 283.251 75.8021 283.189 75.8021Z" fill="white"/>
<path d="M281.79 73.6741C281.649 73.6741 281.509 73.6198 281.408 73.5136C281.306 73.4061 281.199 73.3001 281.09 73.1987C280.207 72.3766 279.112 71.7795 277.924 71.4724C277.653 71.4022 277.494 71.1409 277.569 70.8886C277.645 70.6364 277.926 70.4886 278.197 70.5587C279.554 70.9096 280.803 71.5907 281.811 72.5283C281.935 72.6437 282.056 72.7642 282.172 72.8864C282.358 73.0828 282.338 73.3824 282.127 73.5555C282.03 73.6351 281.91 73.6741 281.79 73.6741Z" fill="white"/>
<path style="mix-blend-mode:color-burn" d="M270.343 77.9599C270.343 73.4557 272.864 69.8043 275.974 69.8043C271.134 69.8043 267.21 73.4556 267.21 77.9599C267.21 82.4642 271.134 86.1154 275.974 86.1154C272.864 86.1154 270.343 82.4641 270.343 77.9599Z" fill="url(#paint12_linear_3352_4274)"/>
<path d="M295.129 77.1005C295.048 77.1005 294.971 77.055 294.94 76.9806C294.906 76.9004 294.868 76.821 294.826 76.7442C294.775 76.6513 294.815 76.5376 294.914 76.4903C295.014 76.4429 295.136 76.4797 295.187 76.5727C295.235 76.6603 295.279 76.7512 295.318 76.8428C295.359 76.9398 295.307 77.0494 295.203 77.0875C295.179 77.0963 295.154 77.1005 295.129 77.1005Z" fill="url(#paint13_linear_3352_4274)"/>
<path d="M294.572 76.2532C294.516 76.2532 294.46 76.2316 294.42 76.1893C294.38 76.1465 294.337 76.1044 294.293 76.0639C293.942 75.7365 293.506 75.4986 293.032 75.3763C292.925 75.3484 292.861 75.2444 292.891 75.1439C292.921 75.0436 293.033 74.9846 293.141 75.0126C293.681 75.1522 294.179 75.4235 294.58 75.7969C294.63 75.8428 294.678 75.8908 294.724 75.9395C294.798 76.0176 294.79 76.137 294.706 76.2059C294.668 76.2376 294.62 76.2532 294.572 76.2532Z" fill="url(#paint14_linear_3352_4274)"/>
<path style="mix-blend-mode:color-burn" d="M290.013 77.9598C290.013 76.166 291.017 74.7119 292.256 74.7119C290.328 74.7119 288.766 76.166 288.766 77.9598C288.766 79.7537 290.328 81.2078 292.256 81.2078C291.017 81.2078 290.013 79.7537 290.013 77.9598Z" fill="url(#paint15_linear_3352_4274)"/>
<path d="M262.566 77.1005C262.485 77.1005 262.408 77.055 262.377 76.9806C262.343 76.9004 262.305 76.821 262.263 76.7442C262.212 76.6513 262.251 76.5376 262.351 76.4903C262.451 76.4429 262.573 76.4797 262.624 76.5727C262.672 76.6603 262.716 76.7512 262.755 76.8428C262.795 76.9398 262.744 77.0494 262.64 77.0875C262.615 77.0963 262.59 77.1005 262.566 77.1005Z" fill="url(#paint16_linear_3352_4274)"/>
<path d="M262.009 76.2532C261.953 76.2532 261.897 76.2316 261.857 76.1893C261.816 76.1465 261.773 76.1044 261.73 76.0639C261.378 75.7365 260.942 75.4986 260.469 75.3763C260.361 75.3484 260.298 75.2444 260.328 75.1439C260.358 75.0436 260.469 74.9846 260.577 75.0126C261.118 75.1522 261.616 75.4235 262.017 75.7969C262.066 75.8428 262.115 75.8908 262.161 75.9395C262.235 76.0176 262.227 76.137 262.143 76.2059C262.104 76.2376 262.057 76.2532 262.009 76.2532Z" fill="url(#paint17_linear_3352_4274)"/>
<path style="mix-blend-mode:color-burn" d="M257.45 77.9598C257.45 76.166 258.454 74.7119 259.693 74.7119C257.765 74.7119 256.202 76.166 256.202 77.9598C256.202 79.7537 257.765 81.2078 259.693 81.2078C258.454 81.2078 257.45 79.7537 257.45 77.9598Z" fill="url(#paint18_linear_3352_4274)"/>
<path d="M303.77 77.4203C303.719 77.4203 303.671 77.3917 303.651 77.3449C303.63 77.2947 303.606 77.2447 303.579 77.1965C303.547 77.1381 303.572 77.0668 303.635 77.037C303.698 77.0073 303.774 77.0305 303.806 77.0889C303.837 77.1439 303.864 77.201 303.888 77.2584C303.914 77.3194 303.881 77.3881 303.816 77.4121C303.801 77.4177 303.785 77.4203 303.77 77.4203Z" fill="url(#paint19_linear_3352_4274)"/>
<path d="M303.42 76.8882C303.385 76.8882 303.35 76.8747 303.324 76.8481C303.299 76.8213 303.272 76.7947 303.245 76.7694C303.024 76.5638 302.75 76.4145 302.453 76.3377C302.385 76.3202 302.346 76.2549 302.365 76.1918C302.383 76.1287 302.453 76.0917 302.521 76.1092C302.861 76.197 303.173 76.3674 303.425 76.6019C303.456 76.6307 303.487 76.6608 303.516 76.6914C303.562 76.7405 303.557 76.8154 303.504 76.8587C303.48 76.8787 303.45 76.8882 303.42 76.8882Z" fill="url(#paint20_linear_3352_4274)"/>
<path style="mix-blend-mode:color-burn" d="M300.557 77.9599C300.557 76.8336 301.188 75.9205 301.965 75.9205C300.755 75.9205 299.774 76.8336 299.774 77.9599C299.774 79.0863 300.755 79.9993 301.965 79.9993C301.188 79.9993 300.557 79.0863 300.557 77.9599Z" fill="url(#paint21_linear_3352_4274)"/>
<path d="M251.787 77.4203C251.736 77.4203 251.688 77.3917 251.669 77.3449C251.647 77.2947 251.623 77.2447 251.597 77.1965C251.565 77.1381 251.59 77.0668 251.652 77.037C251.715 77.0073 251.792 77.0305 251.824 77.0889C251.854 77.1439 251.881 77.201 251.906 77.2584C251.931 77.3194 251.899 77.3881 251.834 77.4121C251.818 77.4177 251.803 77.4203 251.787 77.4203Z" fill="url(#paint22_linear_3352_4274)"/>
<path d="M251.437 76.8882C251.402 76.8882 251.367 76.8747 251.342 76.8481C251.316 76.8213 251.289 76.7947 251.262 76.7694C251.041 76.5638 250.767 76.4145 250.47 76.3377C250.403 76.3202 250.363 76.2549 250.382 76.1918C250.4 76.1287 250.471 76.0917 250.539 76.1092C250.878 76.197 251.19 76.3674 251.442 76.6019C251.473 76.6307 251.504 76.6608 251.533 76.6914C251.579 76.7405 251.574 76.8154 251.521 76.8587C251.497 76.8787 251.467 76.8882 251.437 76.8882Z" fill="url(#paint23_linear_3352_4274)"/>
<path style="mix-blend-mode:color-burn" d="M248.575 77.9599C248.575 76.8336 249.205 75.9205 249.983 75.9205C248.773 75.9205 247.792 76.8336 247.792 77.9599C247.792 79.0863 248.773 79.9993 249.983 79.9993C249.205 79.9993 248.575 79.0863 248.575 77.9599Z" fill="url(#paint24_linear_3352_4274)"/>
<path d="M320.098 108.766C320.008 107.173 318.28 107.326 318.28 107.326C316.967 107.318 317.201 109.055 317.483 110.772C317.553 111.195 317.643 111.676 317.751 112.158C316.618 112.636 315.709 113.164 315.861 113.569C316.022 113.994 317.164 114.055 318.501 113.963C318.877 113.924 319.957 113.712 319.957 113.255C319.985 113.177 320.005 112.766 320.015 112.682C320.162 111.278 320.145 109.611 320.098 108.766Z" fill="#050505"/>
<path d="M318.995 112.764C319.037 111.215 319.04 108.481 318.988 107.976C318.965 107.756 318.259 107.519 317.818 107.701C317.466 107.847 317.5 108.371 317.5 108.371C317.529 108.593 317.761 110.812 318.069 112.3C317.548 112.502 317.201 112.681 317.21 112.8C317.219 112.909 318.995 112.764 318.995 112.764Z" fill="#FFB680"/>
<path d="M296.139 68.0512C299.007 63.9405 305.446 70.4883 303.527 74.3623C302.332 76.7719 297.727 82.8377 293.995 87.6614C293.598 88.1759 292.239 89.4198 290.219 89.1844C288.247 88.9549 287.715 86.7088 287.97 86.0426C290.019 80.687 296.139 68.0512 296.139 68.0512Z" fill="#1570EF"/>
<path d="M298.301 69.0968C298.794 65.7268 302.85 65.2043 305.139 67.6555C306.273 68.869 307.851 71.1377 307.863 72.4433C307.887 75.0969 306.516 81.8402 305.351 87.6845C305.227 88.3077 304.569 89.9721 302.634 90.5613C300.745 91.1366 299.235 89.3164 299.16 88.6123C298.558 82.9552 298.301 69.0968 298.301 69.0968Z" fill="#175CD3"/>
<path d="M301.31 51.1161C298.584 52.276 295.886 66.7903 294.557 71.3565C295.59 72.4729 297.416 74.1227 301.377 74.4524C307.265 74.9423 307.873 73.9758 307.985 73.3937C307.654 70.9231 309.526 57.0253 307.985 53.2747C307.443 51.956 303.586 50.1474 301.31 51.1161Z" fill="#FFCB50"/>
<path d="M293.527 112.133C293.527 112.133 293.763 113.733 292.056 113.883C290.349 114.032 285.499 114.203 285.285 113.262C285.125 112.56 287.962 111.869 289.793 111.535C291.626 111.201 293.48 110.912 293.527 112.133Z" fill="#050505"/>
<path d="M292.5 112.5C291.332 112.658 286.706 113.038 286.728 112.662C286.755 112.207 291.702 111.473 292.372 111.451C293.311 111.421 293.303 112.392 292.5 112.5Z" fill="#FFB680"/>
<path d="M291.407 111.809C291.346 110.752 290.987 103.941 290.983 103.738L292.615 103.717C292.617 103.767 293.055 110.569 293.112 111.862C293.135 112.391 292.56 112.526 292.362 112.513C292.132 112.499 291.444 112.433 291.407 111.809Z" fill="#FFB680"/>
<path d="M288.282 89.1213C288.122 88.0577 288.032 87.7241 287.917 86.6079C287.796 85.4359 289.321 83.7949 291.788 84.7313C293.417 85.3496 293.7 87.182 293.673 87.6408C293.48 90.8739 293.51 99.108 293.534 102.716C293.541 103.79 293.084 104.353 292.776 104.68C292.182 105.314 291.603 105.419 290.909 104.88C290.528 104.585 289.896 104.069 289.833 103.035C289.668 100.315 289.149 94.9293 288.282 89.1213Z" fill="#1570EF"/>
<path d="M292.723 104.479L290.976 104.663L291.066 106.337C291.066 106.337 291.347 106.545 291.963 106.493C292.581 106.442 292.855 106.368 292.855 106.368L292.723 104.479Z" fill="#1570EF"/>
<path style="mix-blend-mode:color-burn" d="M292.243 104.766L292.327 106.456C292.421 106.445 292.501 106.434 292.569 106.423L292.486 104.756C292.483 104.693 292.426 104.645 292.359 104.648C292.292 104.651 292.24 104.704 292.243 104.766ZM291.309 106.442C291.376 106.461 291.457 106.478 291.554 106.49L291.484 105.076C291.481 105.014 291.424 104.966 291.357 104.968C291.29 104.971 291.238 105.024 291.241 105.087L291.309 106.442ZM291.779 104.96L291.855 106.5C291.89 106.498 291.926 106.496 291.963 106.493C292.01 106.489 292.055 106.485 292.098 106.481L292.022 104.95C292.018 104.887 291.961 104.839 291.895 104.842C291.827 104.845 291.776 104.898 291.779 104.96Z" fill="url(#paint25_linear_3352_4274)"/>
<path d="M317.403 108.697C316.727 107.846 312.401 102.341 312.278 102.174L313.629 101.321C313.66 101.362 318.046 106.818 318.857 107.868C319.189 108.298 318.789 108.705 318.616 108.797C318.415 108.902 317.802 109.2 317.403 108.697Z" fill="#FFB680"/>
<path d="M301.383 91.3491C300.621 90.5426 300.349 90.31 299.593 89.4368C298.799 88.5199 299.103 86.369 301.717 85.8881C303.443 85.5705 304.762 86.956 305.01 87.3533C306.76 90.1524 311.652 97.0135 313.804 100.014C314.445 100.908 314.396 101.612 314.333 102.043C314.211 102.876 313.789 103.26 312.891 103.166C312.398 103.114 311.565 103.006 310.902 102.175C309.157 99.9881 305.54 95.7558 301.383 91.3491Z" fill="#175CD3"/>
<path d="M314.169 101.902L312.819 102.95L313.883 104.303C313.883 104.303 314.24 104.332 314.725 103.973C315.21 103.614 315.396 103.412 315.396 103.412L314.169 101.902Z" fill="#2E5FB7"/>
<path style="mix-blend-mode:color-burn" d="M313.938 102.387L315.007 103.756C315.079 103.698 315.139 103.648 315.189 103.604L314.135 102.254C314.096 102.204 314.019 102.192 313.965 102.229C313.911 102.266 313.899 102.337 313.938 102.387ZM314.148 104.265C314.216 104.247 314.294 104.22 314.382 104.179L313.488 103.035C313.448 102.984 313.372 102.973 313.318 103.01C313.262 103.046 313.251 103.117 313.291 103.168L314.148 104.265ZM313.665 102.787L314.639 104.034C314.667 104.015 314.696 103.995 314.725 103.973C314.762 103.945 314.797 103.919 314.83 103.894L313.862 102.654C313.822 102.603 313.746 102.592 313.692 102.629C313.638 102.666 313.625 102.737 313.665 102.787Z" fill="url(#paint26_linear_3352_4274)"/>
<path d="M295.532 66.1677C289.042 60.8719 284.714 55.426 284.714 55.426L283.181 55.5833C283.181 55.5833 287.294 62.5285 293.452 68.3347C293.452 68.3347 294.226 68.9953 295.349 67.9697C296.408 67.0021 295.598 66.222 295.598 66.222C295.575 66.2041 295.554 66.1867 295.532 66.1677Z" fill="url(#paint27_linear_3352_4274)"/>
<path d="M302.544 54.9617C302.873 55.0159 302.698 56.0316 303.028 56.0779C304.037 56.2194 306.521 52.9209 305.538 51.0408C305.066 50.1383 303.111 50.2333 302.446 50.765C301 51.9219 300.431 55.3424 301.445 55.6597C301.848 55.7858 302.125 54.8927 302.544 54.9617Z" fill="#1570EF"/>
<path d="M300.608 46.0241C300.608 46.0241 298.234 44.6047 299.439 40.6227C300.644 36.6404 308.256 37.4407 309.604 41.356C310.952 45.2708 308.803 47.65 307.114 48.3897C305.362 49.1569 303.927 48.9086 303.377 47.381C302.22 44.1643 300.608 46.0241 300.608 46.0241Z" fill="#050505"/>
<path d="M300.769 42.7616C300.769 42.7616 299.345 47.1666 300.235 48.2848C301.127 49.4033 303.125 48.8692 303.125 48.8692C303.125 48.8692 302.71 50.5284 302.601 50.842C302.492 51.1548 300.522 54.5097 302.838 54.7486C304.995 54.971 305.529 51.4288 305.529 51.4288L306.322 45.6621C306.322 45.6621 307.658 44.8764 307.211 43.8642C306.763 42.852 305.466 44.1642 305.466 44.1642L306.089 41.727C306.089 41.727 302.338 43.2969 300.769 42.7616Z" fill="#FFB680"/>
<path d="M304.445 55.4438C304.445 55.4438 299.802 60.8766 293.151 65.9395C293.151 65.9395 292.101 66.8225 292.997 67.9092C293.947 69.0612 295.035 68.2585 295.035 68.2585C295.062 68.2417 295.089 68.2244 295.115 68.2062C301.732 63.8646 306.759 58.3084 306.712 56.7496C306.667 55.1915 305.312 54.6582 304.445 55.4438Z" fill="#FFB680"/>
<path d="M299.196 60.3854L302.396 64.9921C302.396 64.9921 305.281 63.1974 307.464 60.7105C309.17 58.7676 308.59 51.4944 305.609 53.9338C303.678 55.5146 299.196 60.3854 299.196 60.3854Z" fill="url(#paint28_linear_3352_4274)"/>
<path d="M281.825 53.7166C282.266 53.6532 283.647 53.5588 283.7 53.885C283.827 54.658 283.006 54.3284 282.21 54.982C281.696 55.4049 280.16 54.4203 280.16 54.4203C280.16 54.4203 280.905 53.8474 281.825 53.7166Z" fill="#FFB680"/>
<path d="M280.17 54.4085C281.608 53.3514 283.171 54.6628 284.458 56.4315C285.017 57.1986 282.295 59.0221 281.504 58.4571C280.051 57.418 277.89 56.0837 280.17 54.4085Z" fill="#FFB680"/>
<path d="M282.764 53.9221C282.341 53.7889 280.998 53.4747 280.885 53.7876C280.617 54.5287 281.488 54.3356 282.151 55.1068C282.579 55.6058 284.274 54.8818 284.274 54.8818C284.274 54.8818 283.645 54.1981 282.764 53.9221Z" fill="#FB9D5F"/>
<path d="M284.267 54.8687C283.045 53.597 281.01 54.9565 279.414 56.4926C278.722 57.1589 281.682 58.9622 282.095 58.784C283.759 58.0673 286.203 56.884 284.267 54.8687Z" fill="#FB9D5F"/>
<path d="M282.538 57.0034C284.031 56.0144 284.289 56.2258 284.854 56.6606C285.621 57.2513 282.651 59.3373 281.865 58.7669C281.1 58.2122 281.439 57.7314 282.538 57.0034Z" fill="#FFB680"/>
<path d="M251.716 54.184C251.716 54.184 247.116 59.6485 240.505 64.7568C240.505 64.7568 239.462 65.647 240.367 66.7275C241.327 67.873 242.407 67.0629 242.407 67.0629C242.435 67.0458 242.461 67.0283 242.488 67.0099C249.07 62.6232 254.052 57.0327 253.994 55.4744C253.936 53.9165 252.577 53.3926 251.716 54.184Z" fill="#FFB680"/>
<path d="M246.664 59.1592L250.662 63.5111C250.662 63.5111 252.113 62.4473 254.241 59.9193C255.615 58.2874 254.238 50.9277 252.394 52.9168C250.714 54.7292 246.664 59.1592 246.664 59.1592Z" fill="url(#paint29_linear_3352_4274)"/>
<path d="M242.832 64.9671C247.414 71.7742 252.83 76.9428 252.83 76.9428L252.089 78.0025C252.089 78.0025 245.378 73.1153 240.202 66.5313C240.202 66.5313 239.625 65.7148 240.892 64.8467C242.087 64.0284 242.785 64.8978 242.785 64.8978C242.801 64.9208 242.816 64.943 242.832 64.9671Z" fill="#FFB680"/>
<path d="M253.59 75.6358C254.023 75.533 255.387 75.3146 255.474 75.6347C255.681 76.3926 254.829 76.1384 254.104 76.8604C253.637 77.3277 252.005 76.4859 252.005 76.4859C252.005 76.4859 252.688 75.8486 253.59 75.6358Z" fill="#FFB680"/>
<path d="M252.014 76.4733C253.336 75.2917 254.839 77.2471 256.554 78.3286C257.379 78.8484 255.188 80.6641 253.86 80.5309C252.009 80.3454 249.919 78.3459 252.014 76.4733Z" fill="#FFB680"/>
<path d="M261.665 61.6218C261.704 61.6114 261.744 61.596 261.785 61.5778C260.284 62.0608 255.473 62.789 254.491 60.6691C254.813 63.5112 261.32 62.6022 261.788 62.15C261.748 61.979 261.707 61.8031 261.665 61.6218Z" fill="#FF9497"/>
<path d="M276.791 83.561C276.582 83.5184 276.432 83.3992 276.29 83.2564C275.073 82.0321 273.852 80.8109 272.632 79.5893C272.426 79.3834 272.363 79.1473 272.481 78.8876C272.6 78.623 272.832 78.5012 273.137 78.5C273.785 78.4975 274.434 78.5162 275.081 78.4905C275.726 78.4648 276.182 78.1413 276.49 77.5939C276.438 77.5939 276.404 77.5939 276.37 77.5939C275.499 77.5939 274.627 77.5948 273.756 77.5934C273.364 77.5928 273.061 77.3123 273.063 76.9581C273.065 76.6045 273.368 76.3305 273.765 76.3298C274.626 76.3282 275.488 76.3293 276.349 76.3293C276.388 76.3293 276.427 76.3293 276.479 76.3293C276.374 76.1081 276.226 75.9319 276.038 75.7857C275.739 75.5545 275.395 75.43 275.006 75.4277C274.371 75.4239 273.736 75.4277 273.102 75.4251C272.808 75.424 272.557 75.2536 272.462 75.0003C272.368 74.7462 272.454 74.4675 272.683 74.299C272.817 74.2 272.972 74.1611 273.142 74.1613C274.425 74.1623 275.707 74.1618 276.99 74.1618C277.664 74.1618 278.338 74.1607 279.012 74.1624C279.315 74.1632 279.571 74.3381 279.662 74.5995C279.751 74.8543 279.657 75.133 279.426 75.2967C279.298 75.3871 279.153 75.4263 278.993 75.426C278.536 75.4255 278.079 75.4259 277.621 75.4259C277.586 75.4259 277.55 75.4259 277.503 75.4259C277.519 75.4548 277.528 75.4762 277.541 75.4957C277.698 75.7315 277.816 75.983 277.887 76.2518C277.904 76.3176 277.935 76.331 278.001 76.3305C278.336 76.3277 278.672 76.3264 279.007 76.3302C279.326 76.3338 279.59 76.5279 279.665 76.806C279.74 77.0829 279.612 77.3779 279.338 77.5087C279.234 77.5584 279.107 77.586 278.99 77.5899C278.668 77.6008 278.345 77.5957 278.023 77.5922C277.944 77.5913 277.909 77.6075 277.882 77.6872C277.506 78.8373 276.678 79.5207 275.407 79.7347C275.234 79.7638 275.054 79.7564 274.877 79.7643C274.815 79.767 274.754 79.7647 274.672 79.7647C274.701 79.7985 274.716 79.8196 274.734 79.838C275.605 80.7105 276.474 81.5835 277.346 82.4544C277.503 82.6105 277.594 82.785 277.565 83.0016C277.53 83.2594 277.377 83.4317 277.117 83.5239C277.081 83.5367 277.044 83.5483 277.008 83.5606L276.791 83.561Z" fill="white"/>
<g opacity="0.8">
<path d="M187.307 32.8926C188.58 33.4425 190.143 32.8479 190.797 31.5646C191.452 30.2812 190.95 28.7951 189.677 28.2452C188.404 27.6953 186.842 28.2899 186.188 29.5733C185.533 30.8566 186.034 32.3428 187.307 32.8926Z" fill="#E88102"/>
<path d="M187.43 32.6508C188.69 33.1954 190.215 32.6509 190.835 31.4346C191.455 30.2183 190.936 28.7908 189.676 28.2462C188.415 27.7017 186.89 28.2462 186.27 29.4625C185.65 30.6788 186.169 32.1063 187.43 32.6508Z" fill="#FDD835"/>
<path opacity="0.5" d="M190.469 28.8222L185.987 30.4225C186 30.1564 186.06 29.8876 186.17 29.6261L189.815 28.3235C190.068 28.456 190.287 28.625 190.469 28.8222Z" fill="white"/>
<path opacity="0.5" d="M191.099 30.2273L186.461 31.8841C186.32 31.695 186.213 31.4876 186.137 31.2679L190.952 29.5488C191.036 29.7642 191.085 29.993 191.099 30.2273Z" fill="white"/>
<path opacity="0.5" d="M190.888 29.4257L186.085 31.1412C186.064 31.0634 186.046 30.9836 186.033 30.9036L190.776 29.2097C190.817 29.2796 190.854 29.3524 190.888 29.4257Z" fill="white"/>
<path opacity="0.5" d="M191.069 30.8543L186.92 32.336C186.847 32.2789 186.778 32.2181 186.713 32.1545L191.112 30.5835C191.102 30.6737 191.088 30.7641 191.069 30.8543Z" fill="white"/>
<path opacity="0.5" d="M190.827 31.4711C190.819 31.4867 190.812 31.5014 190.803 31.5165C191.392 30.3002 190.867 28.8891 189.613 28.3465C188.359 27.8038 186.846 28.3332 186.208 29.5282C186.216 29.5126 186.222 29.4975 186.23 29.4819C186.855 28.2552 188.391 27.7057 189.66 28.2549C190.929 28.804 191.452 30.2444 190.827 31.4711Z" fill="white"/>
<path opacity="0.5" d="M190.371 31.3432C189.885 32.2965 188.689 32.7236 187.701 32.2968C187.146 32.0572 186.775 31.5983 186.641 31.0738C186.794 31.5557 187.152 31.9711 187.672 32.1957C188.66 32.6224 189.856 32.1953 190.342 31.242C190.555 30.824 190.597 30.375 190.493 29.9654C190.631 30.4008 190.602 30.8906 190.371 31.3432Z" fill="white"/>
<path d="M187.662 32.1964C188.649 32.6231 189.844 32.1964 190.33 31.2434C190.816 30.2904 190.409 29.172 189.422 28.7454C188.434 28.3187 187.239 28.7454 186.753 29.6984C186.267 30.6513 186.674 31.7698 187.662 32.1964Z" fill="#F39E09"/>
<path d="M190.463 29.9303C190.283 29.5343 189.956 29.2011 189.509 29.0083C188.522 28.5818 187.327 29.0086 186.841 29.9613C186.622 30.3918 186.584 30.8554 186.7 31.2745C186.481 30.7933 186.479 30.2215 186.746 29.6984C187.231 28.7457 188.426 28.3189 189.414 28.7454C189.955 28.9792 190.322 29.4215 190.463 29.9303Z" fill="#E88102"/>
<path d="M189.938 29.8264L190.007 29.6909L189.775 29.7559L188.302 29.1188L188.029 29.3886L187.96 29.5241L188.428 29.7265C188.573 29.7951 188.645 29.8932 188.642 30.0221L187.969 29.7309L187.763 29.9073L187.694 30.0428L188.475 30.381C188.352 30.5063 188.207 30.5351 188.04 30.466L187.629 30.2884L187.466 30.6126L187.797 31.877L188.45 32.1597L188.519 32.0241L188.417 31.9468L188.182 30.9951C188.387 31.0197 188.563 31.0043 188.709 30.9476C188.856 30.8909 188.982 30.7912 189.088 30.6475L189.344 30.7583L189.62 30.4463L189.689 30.3108L189.485 30.388L189.272 30.2959C189.307 30.1909 189.32 30.0873 189.308 29.9864L189.661 30.1389L189.938 29.8264Z" fill="#DB6704"/>
<path d="M189.731 30.0035L189.378 29.8509C189.389 29.9515 189.377 30.0556 189.342 30.1606L189.69 30.3111L189.414 30.6232L189.158 30.5124C189.052 30.6561 188.926 30.7563 188.779 30.8127C188.632 30.8694 188.456 30.8848 188.251 30.8601L188.532 32.0009L188.519 32.0262L187.865 31.7434L187.535 30.4797L187.698 30.1553L188.109 30.333C188.276 30.4012 188.421 30.3733 188.545 30.2471L187.763 29.9087L188.038 29.5966L188.712 29.8879C188.715 29.7603 188.643 29.6608 188.497 29.5922L188.029 29.3897L188.372 28.9842L190.008 29.6922L189.731 30.0035Z" fill="#FDD835"/>
<path opacity="0.5" d="M188.013 29.589L188.147 29.6468L187.877 29.7432L188.013 29.589Z" fill="white"/>
<path opacity="0.5" d="M189.111 29.3158L188.401 29.5697L187.997 29.3947L188.343 28.9839L189.111 29.3158Z" fill="white"/>
<path opacity="0.5" d="M189.734 30.028L189.707 30.0163L189.761 29.9977L189.734 30.028Z" fill="white"/>
<path opacity="0.5" d="M189.698 30.3082L189.421 30.6215L189.165 30.5106C189.059 30.6553 188.932 30.7555 188.784 30.8121C188.636 30.8692 188.46 30.8848 188.254 30.8602L188.341 31.2086L187.779 31.409L187.605 30.7404L189.363 30.1125C189.359 30.1274 189.355 30.1422 189.35 30.1566L189.698 30.3082Z" fill="white"/>
<path opacity="0.5" d="M188.1 30.3199C188.152 30.341 188.202 30.3527 188.249 30.3553L187.558 30.6021L187.523 30.468L187.59 30.3339L187.887 30.2278L188.1 30.3199Z" fill="white"/>
<path opacity="0.5" d="M190.007 29.7022L189.938 29.7794L189.523 29.9278L189.374 29.8634C189.379 29.902 189.379 29.9412 189.376 29.981L188.502 30.2932C188.513 30.2843 188.524 30.2736 188.534 30.2634L188.232 30.133L189.748 29.5906L190.007 29.7022Z" fill="white"/>
<path opacity="0.5" d="M188.496 31.7577L188.19 31.8679L187.883 31.7352L187.88 31.7215L188.439 31.5216L188.496 31.7577Z" fill="white"/>
<path opacity="0.25" d="M190.518 30.1628C189.159 30.055 187.79 30.5153 186.776 31.4131C186.751 31.3678 186.727 31.3221 186.705 31.274C186.59 30.8549 186.627 30.3912 186.846 29.9616C187.332 29.0087 188.528 28.5817 189.515 29.0083C189.962 29.201 190.289 29.5342 190.469 29.9299C190.49 30.0069 190.506 30.0845 190.518 30.1628Z" fill="white"/>
</g>
</g>
<defs>
<linearGradient id="paint0_linear_3352_4274" x1="-33.9868" y1="-15.1875" x2="315.578" y2="110.982" gradientUnits="userSpaceOnUse">
<stop offset="0.175" stop-color="#1570EF"/>
<stop offset="0.6" stop-color="#6AA8FF"/>
<stop offset="0.965" stop-color="#98C3FF"/>
</linearGradient>
<linearGradient id="paint1_linear_3352_4274" x1="-48.0132" y1="-36" x2="165.38" y2="48.6483" gradientUnits="userSpaceOnUse">
<stop offset="0.000500023" stop-color="#1570EF"/>
<stop offset="0.935413" stop-color="#6AA8FF"/>
</linearGradient>
<linearGradient id="paint2_linear_3352_4274" x1="-11.3289" y1="94" x2="78.8476" y2="144.616" gradientUnits="userSpaceOnUse">
<stop stop-color="#1570EF"/>
<stop offset="1" stop-color="#A3C9FF"/>
</linearGradient>
<linearGradient id="paint3_linear_3352_4274" x1="289.095" y1="56" x2="289.095" y2="130.329" gradientUnits="userSpaceOnUse">
<stop stop-color="#6AA8FF"/>
<stop offset="1" stop-color="#A3C9FF"/>
</linearGradient>
<linearGradient id="paint4_linear_3352_4274" x1="262.777" y1="106.531" x2="264.383" y2="89.1944" gradientUnits="userSpaceOnUse">
<stop stop-color="#FFB680"/>
<stop offset="1" stop-color="#FC9E5E"/>
</linearGradient>
<linearGradient id="paint5_linear_3352_4274" x1="295.439" y1="60.324" x2="292.797" y2="63.6425" gradientUnits="userSpaceOnUse">
<stop stop-color="#FFB680"/>
<stop offset="1" stop-color="#FC9E5E"/>
</linearGradient>
<linearGradient id="paint6_linear_3352_4274" x1="301.274" y1="55.0932" x2="297.638" y2="60.3375" gradientUnits="userSpaceOnUse">
<stop stop-color="#FFCB50"/>
<stop offset="1" stop-color="#EAAC30"/>
</linearGradient>
<linearGradient id="paint7_linear_3352_4274" x1="257.166" y1="54.2547" x2="260.028" y2="59.2003" gradientUnits="userSpaceOnUse">
<stop stop-color="#FC3A52"/>
<stop offset="1" stop-color="#DF1543"/>
</linearGradient>
<linearGradient id="paint8_linear_3352_4274" x1="258.009" y1="56.0317" x2="258.573" y2="59.6469" gradientUnits="userSpaceOnUse">
<stop stop-color="white"/>
<stop offset="1" stop-color="#A0A0A0"/>
</linearGradient>
<linearGradient id="paint9_linear_3352_4274" x1="257.274" y1="101.784" x2="262.56" y2="69.6306" gradientUnits="userSpaceOnUse">
<stop stop-color="white"/>
<stop offset="1" stop-color="#A0A0A0"/>
</linearGradient>
<linearGradient id="paint10_linear_3352_4274" x1="306.572" y1="65.392" x2="306.572" y2="89.4615" gradientUnits="userSpaceOnUse">
<stop stop-color="white"/>
<stop offset="1" stop-color="#A0A0A0"/>
</linearGradient>
<linearGradient id="paint11_linear_3352_4274" x1="238.78" y1="58.2267" x2="238.78" y2="91.1485" gradientUnits="userSpaceOnUse">
<stop stop-color="white"/>
<stop offset="1" stop-color="#A0A0A0"/>
</linearGradient>
<linearGradient id="paint12_linear_3352_4274" x1="271.592" y1="70.1695" x2="271.592" y2="91.6722" gradientUnits="userSpaceOnUse">
<stop stop-color="white"/>
<stop offset="1" stop-color="#A0A0A0"/>
</linearGradient>
<linearGradient id="paint13_linear_3352_4274" x1="286.853" y1="72.4212" x2="294.97" y2="77.4007" gradientUnits="userSpaceOnUse">
<stop stop-color="white"/>
<stop offset="1" stop-color="white"/>
</linearGradient>
<linearGradient id="paint14_linear_3352_4274" x1="287.107" y1="72.0085" x2="295.224" y2="76.9878" gradientUnits="userSpaceOnUse">
<stop stop-color="white"/>
<stop offset="1" stop-color="white"/>
</linearGradient>
<linearGradient id="paint15_linear_3352_4274" x1="290.511" y1="74.8573" x2="290.511" y2="83.4207" gradientUnits="userSpaceOnUse">
<stop stop-color="white"/>
<stop offset="1" stop-color="#A0A0A0"/>
</linearGradient>
<linearGradient id="paint16_linear_3352_4274" x1="254.291" y1="72.4213" x2="262.407" y2="77.4005" gradientUnits="userSpaceOnUse">
<stop stop-color="white"/>
<stop offset="1" stop-color="white"/>
</linearGradient>
<linearGradient id="paint17_linear_3352_4274" x1="254.544" y1="72.0085" x2="262.661" y2="76.9878" gradientUnits="userSpaceOnUse">
<stop stop-color="white"/>
<stop offset="1" stop-color="white"/>
</linearGradient>
<linearGradient id="paint18_linear_3352_4274" x1="257.948" y1="74.8573" x2="257.948" y2="83.4207" gradientUnits="userSpaceOnUse">
<stop stop-color="white"/>
<stop offset="1" stop-color="#A0A0A0"/>
</linearGradient>
<linearGradient id="paint19_linear_3352_4274" x1="298.574" y1="74.4824" x2="303.67" y2="77.6083" gradientUnits="userSpaceOnUse">
<stop stop-color="white"/>
<stop offset="1" stop-color="white"/>
</linearGradient>
<linearGradient id="paint20_linear_3352_4274" x1="298.733" y1="74.2231" x2="303.829" y2="77.3495" gradientUnits="userSpaceOnUse">
<stop stop-color="white"/>
<stop offset="1" stop-color="white"/>
</linearGradient>
<linearGradient id="paint21_linear_3352_4274" x1="300.87" y1="76.0118" x2="300.87" y2="81.3889" gradientUnits="userSpaceOnUse">
<stop stop-color="white"/>
<stop offset="1" stop-color="#A0A0A0"/>
</linearGradient>
<linearGradient id="paint22_linear_3352_4274" x1="246.591" y1="74.4823" x2="251.688" y2="77.6086" gradientUnits="userSpaceOnUse">
<stop stop-color="white"/>
<stop offset="1" stop-color="white"/>
</linearGradient>
<linearGradient id="paint23_linear_3352_4274" x1="246.75" y1="74.223" x2="251.846" y2="77.3494" gradientUnits="userSpaceOnUse">
<stop stop-color="white"/>
<stop offset="1" stop-color="white"/>
</linearGradient>
<linearGradient id="paint24_linear_3352_4274" x1="248.887" y1="76.0118" x2="248.887" y2="81.3889" gradientUnits="userSpaceOnUse">
<stop stop-color="white"/>
<stop offset="1" stop-color="#A0A0A0"/>
</linearGradient>
<linearGradient id="paint25_linear_3352_4274" x1="292.529" y1="107.064" x2="291.667" y2="104.742" gradientUnits="userSpaceOnUse">
<stop stop-color="white"/>
<stop offset="0.9879" stop-color="#AEAEAE"/>
</linearGradient>
<linearGradient id="paint26_linear_3352_4274" x1="315.018" y1="104.419" x2="313.491" y2="102.362" gradientUnits="userSpaceOnUse">
<stop stop-color="white"/>
<stop offset="0.9879" stop-color="#AEAEAE"/>
</linearGradient>
<linearGradient id="paint27_linear_3352_4274" x1="289.97" y1="61.8482" x2="286.599" y2="56.4933" gradientUnits="userSpaceOnUse">
<stop stop-color="#FFB680"/>
<stop offset="1" stop-color="#FC9E5E"/>
</linearGradient>
<linearGradient id="paint28_linear_3352_4274" x1="305.687" y1="57.4968" x2="301.929" y2="63.085" gradientUnits="userSpaceOnUse">
<stop stop-color="#FFCB50"/>
<stop offset="1" stop-color="#EAAC30"/>
</linearGradient>
<linearGradient id="paint29_linear_3352_4274" x1="248.454" y1="55.1024" x2="251.166" y2="59.5434" gradientUnits="userSpaceOnUse">
<stop stop-color="#FC3A52"/>
<stop offset="1" stop-color="#DF1543"/>
</linearGradient>
<clipPath id="clip0_3352_4274">
<path d="M0 8C0 3.58172 3.58172 0 8 0H320C324.418 0 328 3.58172 328 8V116C328 120.418 324.418 124 320 124H7.99999C3.58171 124 0 120.418 0 116V8Z" fill="white"/>
</clipPath>
</defs>
</svg>
