<svg width="44" height="44" viewBox="0 0 44 44" fill="none" xmlns="http://www.w3.org/2000/svg">
<path d="M29.1763 7H12.6413C10.6303 7 9 8.63027 9 10.6413V33.7673C9 35.7783 10.6303 37.4086 12.6413 37.4086H29.1763C31.1873 37.4086 32.8176 35.7783 32.8176 33.7673V14.6021V10.6413C32.8176 8.63027 31.1873 7 29.1763 7Z" stroke="#FFB2A8" stroke-width="4.1986"/>
<path d="M5.99609 8.36984C5.99609 7.19964 6.77729 6.17343 7.90523 5.86192L21.5433 2.09538C23.2003 1.63777 24.8376 2.88429 24.8376 4.6033V39.3967C24.8376 41.1157 23.2003 42.3622 21.5433 41.9046L7.90523 38.1381C6.7773 37.8266 5.99609 36.8004 5.99609 35.6302V8.36984Z" fill="#ED9300"/>
<path d="M4 8.36984C4 7.19964 4.7812 6.17343 5.90914 5.86192L19.5472 2.09538C21.2042 1.63777 22.8415 2.88429 22.8415 4.6033V39.3967C22.8415 41.1157 21.2042 42.3622 19.5472 41.9046L5.90914 38.1381C4.7812 37.8266 4 36.8004 4 35.6302V8.36984Z" fill="#FFB741"/>
<ellipse cx="19.1407" cy="21.8431" rx="1.30086" ry="2.47984" fill="white"/>
<path d="M28.5 21.501H40.9996M40.9996 21.501L38.4997 19.001M40.9996 21.501L38.4997 24.001" stroke="#DA8800" stroke-width="4.1986" stroke-linecap="round" stroke-linejoin="round"/>
</svg>
