<svg width="226" height="192" viewBox="0 0 226 192" fill="none" xmlns="http://www.w3.org/2000/svg">
<path d="M3.68654 116.663C3.80087 105.703 5.1819 94.7439 4.9521 83.8976C4.60571 65.1426 -6.0882 44.0149 5.0653 26.5026C14.6136 11.25 35.7751 6.0528 52.9111 5.03596C75.4547 3.79316 97.996 1.87246 120.538 1.19456C145.955 0.403685 187.244 -4.90649 206.909 15.6563C215.766 24.9209 217.491 38.7047 216.111 51.1328C214.73 63.5608 210.706 75.8759 209.67 88.3039C208.98 96.0997 209.21 104.912 212.776 111.917C219.791 125.475 228.531 135.305 225.312 151.461C221.632 169.764 206.795 185.13 188.509 190.327C173.327 194.507 161.826 190.101 147.91 185.356C135.259 181.062 120.538 179.481 107.312 181.175C82.584 184.339 60.8475 191.231 37.2704 179.255C22.6644 171.798 12.198 158.353 7.02364 143.1C4.26159 134.401 3.57334 125.475 3.68767 116.663H3.68654Z" fill="#F6F6F6"/>
<path d="M187.702 119.374C186.782 119.939 185.632 119.939 184.712 119.487C179.881 116.662 172.29 112.256 170.22 109.884C166.885 106.381 161.71 99.0372 168.84 94.2919C170.105 93.3881 172.29 93.1621 173.786 93.5011C175.05 93.84 176.086 94.6309 177.122 95.4218C178.156 96.2126 178.961 97.1165 179.766 98.0204C180.916 99.3761 181.26 97.4554 181.26 96.5516C181.491 92.2583 178.042 89.3207 175.971 85.8183C174.246 82.9937 172.405 80.0562 171.946 76.6667C171.486 73.2772 172.407 69.8878 173.786 66.7242C174.59 64.9165 175.626 63.2218 177.006 61.753C178.961 59.7193 181.606 58.9285 184.367 58.9285C188.277 58.9285 191.957 60.5102 194.487 63.5607C197.133 66.9502 197.823 72.0344 196.098 75.8758C194.948 78.4744 193.338 80.7341 192.417 83.6716C191.612 86.3832 191.267 89.8856 193.223 92.2583C195.523 94.8568 200.009 91.9193 202.997 92.2583C205.414 92.4842 207.369 95.3088 207.138 97.6814C206.679 101.749 200.584 111.013 187.702 119.374V119.374Z" fill="#E3E3E4"/>
<path opacity="0.2" fill-rule="evenodd" clip-rule="evenodd" d="M174.475 102.766L185.401 110.9L174.475 102.766ZM185.516 70.0007V135.192V70.0007ZM191.382 71.4695L185.632 77.1186L191.382 71.4695ZM176.659 75.8758L185.401 84.4625L176.659 75.8758ZM196.556 98.9242L185.63 106.494L196.556 98.9242Z" stroke="#696867" stroke-width="0.5" stroke-linecap="round" stroke-linejoin="round"/>
<path opacity="0.5" d="M130.198 165.697C128.126 160.5 126.632 150.444 146.183 150.557C146.183 150.557 151.589 142.197 160.676 143.1C160.676 143.1 162.4 126.153 181.606 126.379C200.813 126.605 201.388 144.682 201.388 144.682C201.388 144.682 220.48 144.682 220.711 157.901C220.711 157.901 220.939 162.082 219.33 165.584C218.525 167.279 216.57 168.409 214.5 168.409C201.848 168.521 149.289 168.86 135.143 168.86C132.843 168.86 130.886 167.618 130.198 165.697V165.697ZM16.2236 153.156C17.7178 147.846 23.1231 142.875 37.385 142.197C37.385 142.197 35.5444 122.651 54.9807 122.199C54.9807 122.199 71.0821 122.538 70.9667 140.389C70.9667 140.389 85.575 140.954 86.9526 149.653C86.9526 149.653 107.77 143.552 102.94 168.747C102.94 168.747 50.4946 168.634 28.5284 168.521C20.4788 168.521 14.0377 160.952 16.2225 153.156H16.2236Z" fill="#E3E3E4"/>
<path opacity="0.5" d="M55.0949 122.538C54.5199 122.538 53.9448 122.425 53.3698 122.312C50.8398 121.747 48.655 120.391 46.8156 118.922C43.7105 116.55 41.9842 113.499 41.9842 109.997C41.871 107.737 44.9761 106.72 45.55 104.687C46.5846 101.41 42.214 98.9244 39.5686 96.7778C37.96 95.535 34.624 92.9364 37.4993 91.3546C41.0639 89.4339 47.6193 87.6262 47.3906 84.9146C47.3906 84.9146 47.8502 80.5083 44.1701 77.2318C44.1701 77.2318 41.7544 73.1645 45.6643 71.3567C49.5753 69.662 50.4945 65.2557 50.2647 61.8662C50.0349 58.7027 51.5314 55.7652 56.3616 55.8782C62.9159 55.9911 60.7311 61.7532 61.1907 65.0297C61.7669 68.6452 66.3662 70.3399 67.2865 73.7294C67.6317 74.8592 67.6317 75.989 67.2865 77.0058C66.7125 78.7006 64.8708 79.7174 63.9505 81.2992C62.8015 83.2199 62.6872 85.7055 64.9874 87.1743C69.3569 89.7729 77.5231 91.6936 71.5416 96.3258C71.5416 96.3258 64.5267 100.28 64.8708 102.879C65.2161 105.477 68.0924 107.624 68.2068 110.11C68.32 111.465 67.7472 113.047 67.0567 114.29C65.3315 118.357 60.6157 122.651 55.0961 122.538H55.0949V122.538Z" fill="#E3E3E4"/>
<path d="M146.759 63.4479C145.262 63.7868 143.768 63.3349 142.733 62.2051C141.698 61.0752 141.352 59.6065 141.813 58.1377L149.059 35.3153C149.519 33.8465 150.669 32.8296 152.164 32.4907C153.658 32.1518 155.154 32.6037 156.188 33.7335L172.75 51.3588C173.786 52.4886 174.131 53.9573 173.671 55.4261C173.211 56.8949 172.061 57.9117 170.566 58.2507L146.758 63.4479H146.759ZM152.394 33.7335C151.358 33.9595 150.554 34.7503 150.208 35.7672L142.963 58.5896C142.619 59.6065 142.85 60.6233 143.654 61.4142C144.344 62.2051 145.379 62.544 146.53 62.318L170.337 57.0079C171.373 56.7819 172.176 55.991 172.522 54.9742C172.867 53.9573 172.636 52.9405 171.831 52.1496L155.269 34.5244C154.579 33.8465 153.43 33.5075 152.394 33.7335Z" fill="#E0E0E0"/>
<path d="M155.499 54.7482C155.269 53.9573 155.844 53.0534 156.765 52.9404C157.685 52.7145 158.49 53.2794 158.72 54.0703C158.95 54.8611 158.375 55.765 157.571 55.878C156.534 56.1039 155.613 55.539 155.499 54.7482ZM152.739 42.5461L155.615 41.8682L157.224 51.0197L155.269 51.4717L152.739 42.5461V42.5461Z" fill="#E0E0E0"/>
<path opacity="0.1" d="M115.937 176.43C144.774 176.43 168.152 175.47 168.152 174.284C168.152 173.098 144.774 172.137 115.937 172.137C87.0995 172.137 63.7217 173.098 63.7217 174.284C63.7217 175.47 87.0995 176.43 115.937 176.43V176.43Z" fill="#020203"/>
<path d="M137.904 174.284L95.466 174.058C90.4037 174.058 86.2651 169.99 86.2651 164.906L86.7236 60.2844C86.7236 55.3132 90.8644 51.2458 96.0399 51.2458L138.479 51.4718C143.539 51.4718 147.679 55.5392 147.679 60.6234L147.219 165.245C147.105 170.216 142.963 174.284 137.904 174.284V174.284Z" fill="#1B374E"/>
<path d="M138.019 54.4094H129.738C128.588 54.4094 127.783 55.3132 127.783 56.4431V57.9118C127.783 59.0416 126.863 59.9455 125.829 59.9455L109.727 59.8325C108.577 59.8325 107.771 58.9287 107.771 57.7988V56.3301C107.771 55.2002 106.852 54.2964 105.817 54.2964H95.695C92.1292 54.2964 89.2539 57.1209 89.1385 60.6234L88.6812 162.646C88.6812 166.149 91.5564 168.973 95.1222 169.086L137.446 169.312C141.01 169.312 143.886 166.488 144 162.985L144.461 60.9623C144.461 57.3469 141.586 54.5224 138.02 54.4094H138.019Z" fill="#F8F7F7"/>
<g opacity="0.1">
<path opacity="0.1" d="M112.487 91.1285H120.881V92.2584H112.488V91.1285H112.487ZM110.415 89.3208H122.836V90.4507H110.415V89.3208ZM118.811 75.424C118.811 76.5538 117.891 77.5707 116.625 77.5707C115.475 77.5707 114.44 76.6668 114.44 75.424C114.44 74.1812 115.361 73.2773 116.625 73.2773C117.891 73.2773 118.812 74.2942 118.812 75.424H118.811ZM120.536 82.3159V86.3833C119.386 86.9482 118.006 87.1742 116.626 87.1742C115.245 87.1742 113.866 86.8352 112.716 86.3833V82.3159C112.716 80.1693 114.44 78.4745 116.626 78.4745C118.812 78.4745 120.536 80.2822 120.536 82.3159Z" fill="#C1DBE5"/>
<path opacity="0.36" d="M116.626 87.5131C115.245 87.5131 113.867 87.1742 112.601 86.6093C109.152 85.0275 106.851 81.6381 106.851 77.9097C106.851 72.5995 111.22 68.3062 116.625 68.3062C122.029 68.3062 126.401 72.5995 126.401 77.9097C126.401 81.6381 124.101 85.0275 120.651 86.6093C119.385 87.1742 118.12 87.5131 116.625 87.5131H116.626Z" fill="#E3F2F5"/>
<path opacity="0.1" d="M90.8643 143.213H92.0144V165.923H90.8643V143.213V143.213ZM95.4647 143.213H96.6136V165.923H95.4647V143.213V143.213ZM100.065 143.213H101.215V165.923H100.065V143.213V143.213ZM104.664 143.213H105.816V165.923H104.664V143.213V143.213ZM109.266 143.213H110.416V165.923H109.266V143.213V143.213ZM113.866 143.213H115.016V165.923H113.866V143.213V143.213ZM118.467 143.213H119.617V165.923H118.467V143.213V143.213ZM123.067 143.213H124.217V165.923H123.067V143.213V143.213ZM127.666 143.213H128.816V165.923H127.666V143.213V143.213ZM132.268 143.213H133.418V165.923H132.268V143.213V143.213ZM136.868 143.213H138.017V165.923H136.868V143.213V143.213ZM141.584 143.213H142.734V165.923H141.584V143.213V143.213Z" fill="#C1DBE5"/>
<path opacity="0.1" d="M90.8643 149.992H92.0144V165.923H90.8643V149.992ZM95.4647 155.529H96.6136V165.923H95.4647V155.529ZM100.065 146.49H101.215V165.923H100.065V146.49ZM104.664 160.274H105.816V165.923H104.664V160.274ZM109.266 154.625H110.416V165.923H109.266V154.625ZM113.866 150.331H115.016V165.923H113.866V150.331ZM118.467 155.868H119.617V165.923H118.467V155.868ZM123.067 148.863H124.217V165.923H123.067V148.863ZM127.666 156.545H128.816V165.923H127.666V156.545ZM132.268 151.009H133.418V166.036H132.268V151.009V151.009ZM136.868 158.466H138.017V165.923H136.868V158.466ZM141.584 151.009H142.734V166.036H141.584V151.009V151.009Z" fill="#04A8B5"/>
<g opacity="0.1">
<path opacity="0.1" d="M121.226 113.499C119.616 108.98 115.244 106.268 110.643 106.381C109.493 106.381 108.458 106.607 107.307 107.059C103.973 108.189 101.557 110.901 100.638 113.951C99.9472 116.098 99.9472 118.47 100.752 120.73C100.868 120.956 100.868 121.182 100.983 121.408C101.443 122.425 102.019 123.329 102.708 124.12C105.583 127.396 110.298 128.752 114.669 127.283C120.305 125.136 123.294 119.035 121.224 113.499H121.225H121.226ZM113.75 124.571C110.415 125.701 106.963 124.684 104.779 122.199C104.319 121.634 103.858 120.956 103.515 120.165C103.399 120.052 103.399 119.826 103.283 119.713C102.73 118.069 102.69 116.296 103.17 114.629C103.858 112.369 105.7 110.336 108.23 109.432C109.034 109.093 109.955 108.98 110.76 108.98C114.209 108.867 117.431 110.901 118.695 114.29C120.191 118.583 118.006 123.103 113.75 124.571V124.571Z" fill="#C1DBE5"/>
<path opacity="0.1" d="M103.169 114.629L100.523 113.838C101.56 110.788 103.859 108.189 107.194 106.946C108.344 106.607 109.379 106.381 110.529 106.268L110.645 108.98C109.841 108.98 108.921 109.206 108.115 109.432C106.972 109.906 105.942 110.613 105.09 111.508C104.239 112.403 103.584 113.466 103.168 114.629H103.169Z" fill="#04A8B5"/>
<path opacity="0.1" d="M103.513 120.278L100.984 121.295C100.871 121.069 100.753 120.843 100.753 120.617C99.9498 118.357 99.9498 115.985 100.64 113.838L103.283 114.629C102.824 116.211 102.824 118.018 103.399 119.713C103.399 119.939 103.399 120.052 103.513 120.278V120.278Z" fill="#33B3B5"/>
<path opacity="0.1" d="M102.709 124.006C102.019 123.216 101.445 122.312 100.984 121.295L103.514 120.278C103.858 121.069 104.318 121.634 104.778 122.312L102.709 124.006V124.006Z" fill="#07979B"/>
<path opacity="0.1" d="M130.656 119.939C128.815 119.148 126.746 119.6 125.48 120.956C125.135 121.295 124.905 121.634 124.677 122.086C124.101 123.442 124.101 124.797 124.79 126.04C125.251 126.831 125.941 127.509 126.861 127.961C126.975 127.961 127.09 128.074 127.09 128.074C127.551 128.187 127.895 128.3 128.356 128.413C130.197 128.526 131.921 127.622 132.727 125.927C133.876 123.668 132.841 121.069 130.656 119.939V119.939ZM131.807 125.362C131.231 126.605 129.852 127.396 128.47 127.283C128.126 127.283 127.781 127.17 127.551 127.057C127.438 127.057 127.438 127.057 127.321 126.944C126.631 126.605 126.057 126.153 125.826 125.475C125.366 124.571 125.251 123.442 125.713 122.538C125.826 122.199 126.056 121.973 126.286 121.634C127.206 120.617 128.815 120.278 130.197 120.956C131.807 121.747 132.611 123.781 131.807 125.362V125.362Z" fill="#C1DBE5"/>
<path opacity="0.1" d="M125.711 125.475L124.676 126.04C124.101 124.91 123.985 123.442 124.562 122.086C124.791 121.634 125.021 121.295 125.366 120.956L126.17 121.747C125.941 121.973 125.711 122.312 125.596 122.651C125.251 123.555 125.251 124.684 125.711 125.475V125.475Z" fill="#04A8B5"/>
<path opacity="0.1" d="M127.551 127.057L127.091 128.074C126.977 128.074 126.861 127.961 126.861 127.961C125.942 127.509 125.251 126.831 124.792 126.04L125.827 125.475C126.171 126.04 126.631 126.605 127.322 126.944C127.322 127.057 127.436 127.057 127.551 127.057Z" fill="#33B3B5"/>
<g opacity="0.1">
<path opacity="0.1" d="M132.84 112.369C133.646 110.562 133.187 108.528 131.806 107.285C131.462 106.946 131.116 106.72 130.656 106.494C129.278 105.929 127.895 105.929 126.631 106.607C125.827 107.059 125.137 107.737 124.676 108.641C124.676 108.754 124.563 108.867 124.563 108.867C124.447 109.319 124.331 109.658 124.217 110.11C124.104 111.917 125.022 113.612 126.747 114.403C129.047 115.533 131.694 114.629 132.843 112.369H132.842H132.84ZM127.321 113.499C126.056 112.934 125.25 111.578 125.366 110.223C125.366 109.884 125.48 109.545 125.596 109.319C125.596 109.206 125.596 109.206 125.711 109.093C126.055 108.415 126.515 107.85 127.205 107.624C128.126 107.172 129.277 107.059 130.197 107.511C130.541 107.624 130.771 107.85 131.116 108.076C132.151 108.98 132.497 110.562 131.807 111.917C131.001 113.612 128.93 114.29 127.321 113.499V113.499Z" fill="#C1DBE5"/>
<path opacity="0.1" d="M127.205 107.624L126.63 106.607C127.256 106.308 127.938 106.144 128.632 106.124C129.325 106.105 130.015 106.231 130.657 106.494C131.116 106.72 131.462 106.946 131.807 107.285L131.001 108.076C130.771 107.85 130.427 107.624 130.082 107.511C129.161 107.059 128.01 107.172 127.207 107.624H127.205Z" fill="#C1DBE5"/>
<path opacity="0.1" d="M125.595 109.319L124.56 108.867C124.56 108.754 124.675 108.641 124.675 108.641C125.136 107.737 125.825 107.059 126.63 106.607L127.205 107.624C126.63 107.963 126.055 108.415 125.711 109.093C125.596 109.206 125.596 109.206 125.596 109.319H125.595Z" fill="#33B3B5"/>
<path opacity="0.1" d="M124.215 110.223C124.215 109.771 124.33 109.319 124.56 108.98L125.597 109.432C125.48 109.771 125.366 110.11 125.366 110.336L124.216 110.223H124.215Z" fill="#07979B"/>
</g>
<path opacity="0.1" d="M127.321 131.35H118.926V131.124H127.205V128.074H127.321V131.35ZM111.565 131.35H100.639V131.124H111.335V126.04H111.565V131.35Z" fill="#E2F3FE"/>
<path opacity="0.1" d="M100.639 129.43H108.114V130.56H100.639V129.43ZM118.926 129.43H123.295V130.56H118.926V129.43Z" fill="#C1DBE5"/>
</g>
</g>
<path d="M111.68 99.3763L101.56 122.086C100.179 125.136 102.71 128.413 106.046 128.074C113.061 127.396 123.526 126.266 130.772 125.588C134.338 125.249 136.177 121.069 133.992 118.244L118.581 98.5854C116.74 96.2128 112.944 96.6647 111.68 99.3763V99.3763Z" fill="#FFCF5C"/>
<path d="M112.254 100.958C112.254 100.958 112.254 100.845 112.37 100.732C112.37 100.619 112.484 100.619 112.484 100.506C112.6 100.393 112.6 100.28 112.715 100.167L113.06 99.8284C113.174 99.7154 113.405 99.6024 113.52 99.4894C113.865 99.2635 114.439 99.0375 115.014 98.9245C115.589 98.8115 116.28 98.8115 116.97 99.1505C117.314 99.2635 117.661 99.4894 118.006 99.7154L118.236 99.9413L118.466 100.167C118.579 100.28 118.696 100.506 118.811 100.619C119.846 101.862 120.996 103.331 122.26 105.026C124.79 108.302 127.897 112.143 131.231 116.437C131.692 117.002 132.036 117.567 132.496 118.019C132.956 118.583 133.302 119.374 133.417 120.052C133.647 121.521 132.956 123.216 131.692 124.12C131.001 124.572 130.311 124.91 129.506 125.023C128.7 125.136 128.012 125.136 127.206 125.249C125.712 125.362 124.101 125.588 122.491 125.701C119.271 126.04 116.164 126.379 113.175 126.605C111.681 126.718 110.185 126.944 108.805 127.057C108.46 127.057 108.115 127.17 107.768 127.17H106.622C105.815 127.17 105.125 126.944 104.55 126.492C103.286 125.701 102.595 124.233 102.595 122.877V122.312C102.595 122.199 102.71 121.973 102.71 121.86L102.94 121.408C103.054 121.295 103.054 121.069 103.17 120.956C103.4 120.391 103.63 119.826 103.974 119.261C105.011 117.002 105.93 114.968 106.736 113.16C108.461 109.432 109.841 106.381 110.761 104.235C111.221 103.218 111.681 102.427 111.91 101.862C112.026 101.184 112.256 100.958 112.256 100.958C112.256 100.958 112.141 101.297 111.91 101.862C111.681 102.427 111.335 103.218 110.875 104.348C109.957 106.494 108.691 109.545 106.966 113.273C106.161 115.194 105.24 117.228 104.205 119.487L103.514 121.182C103.401 121.295 103.401 121.521 103.285 121.634L103.171 122.086C103.171 122.199 103.055 122.425 103.055 122.538V122.99C103.055 124.233 103.63 125.475 104.78 126.153C105.355 126.492 105.93 126.718 106.622 126.718H107.656C108 126.718 108.347 126.605 108.691 126.605C110.185 126.492 111.566 126.266 113.06 126.153C116.051 125.814 119.157 125.588 122.377 125.249C123.986 125.136 125.482 124.91 127.093 124.797C127.896 124.684 128.587 124.684 129.392 124.572C130.082 124.459 130.773 124.233 131.348 123.781C132.498 122.99 133.073 121.521 132.842 120.165C132.729 119.487 132.498 118.922 132.038 118.357C131.578 117.793 131.233 117.228 130.773 116.776C127.437 112.482 124.447 108.528 121.801 105.252C120.537 103.67 119.387 102.088 118.35 100.845C118.237 100.732 118.122 100.506 118.007 100.393L117.776 100.167L117.547 99.9413C117.284 99.6887 116.97 99.4959 116.626 99.3764C115.936 99.1505 115.362 99.0375 114.786 99.1505C114.211 99.2635 113.751 99.3764 113.405 99.6024C113.176 99.7154 113.062 99.8284 112.946 99.9413L112.601 100.28C112.488 100.393 112.488 100.506 112.371 100.619C112.258 100.732 112.258 100.845 112.258 100.845V100.958H112.254V100.958Z" fill="#F6F6F6"/>
<path d="M113.866 106.155L115.36 115.194C115.474 115.985 116.164 116.437 116.855 116.437C117.661 116.437 118.351 115.759 118.351 114.968L118.464 105.703C118.464 105.025 117.89 104.461 117.201 104.574L114.901 104.8C114.21 104.8 113.751 105.477 113.865 106.155H113.866ZM119.73 120.956C119.501 122.199 118.236 122.877 116.97 122.651C115.706 122.425 115.014 121.182 115.245 119.939C115.475 118.696 116.739 118.018 118.006 118.244C119.156 118.47 119.961 119.713 119.731 120.956H119.73Z" fill="#F6F6F6"/>
<path d="M97.9939 129.882L97.7641 129.656C97.6509 129.543 97.5343 129.43 97.5343 129.317C97.4211 129.204 97.3034 129.091 97.1891 128.865C96.9593 128.526 96.7295 128.074 96.4985 127.622C96.2687 127.17 96.039 126.605 95.9246 125.927C95.8092 125.362 95.6948 124.684 95.6948 124.232C95.6948 123.668 95.6948 123.216 95.808 122.764C95.808 122.538 95.9246 122.425 95.9246 122.199C95.9246 122.086 96.039 121.86 96.039 121.86C96.1544 121.634 96.1544 121.521 96.1544 121.521C96.1544 121.521 96.039 121.973 95.9246 122.764C95.8092 123.103 95.8092 123.668 95.8092 124.119C95.8092 124.684 95.9246 125.249 96.039 125.814C96.1544 126.379 96.3842 126.944 96.614 127.396C96.8438 127.848 97.0736 128.3 97.3045 128.639C97.6486 129.543 97.995 129.882 97.995 129.882H97.9939ZM101.214 130.333C101.214 130.333 101.101 130.22 100.869 130.108C100.756 129.995 100.639 129.995 100.524 129.882C100.411 129.769 100.294 129.656 100.064 129.543C99.7191 129.204 99.3738 128.865 99.144 128.413C98.7999 127.961 98.5689 127.396 98.3392 126.718C98.1094 126.153 97.9939 125.475 97.8796 124.91C97.7664 124.345 97.7664 123.781 97.8796 123.442C97.8796 123.216 97.8796 122.99 97.9939 122.877C97.9939 122.651 97.9939 122.538 98.1094 122.425C97.9962 122.086 97.9962 121.973 97.9962 121.973C97.9962 121.973 97.8796 122.538 97.8796 123.329C97.8796 123.781 97.8796 124.232 97.9939 124.797C98.1094 125.362 98.2237 125.927 98.4546 126.605C98.6844 127.17 99.0297 127.735 99.2583 128.187C99.6047 128.639 99.8345 129.091 100.179 129.317C100.754 129.995 101.216 130.333 101.216 130.333H101.214V130.333ZM136.063 126.379C136.063 126.379 136.294 125.814 136.639 124.91C136.752 124.458 136.983 123.893 137.099 123.329C137.212 122.764 137.328 122.086 137.328 121.295C137.328 120.617 137.328 119.939 137.213 119.261C137.098 118.696 136.983 118.131 136.869 117.679C136.639 116.776 136.408 116.211 136.408 116.211C136.408 116.211 136.521 116.324 136.639 116.55C136.752 116.776 136.869 117.115 136.983 117.566C137.096 118.018 137.213 118.583 137.328 119.148C137.441 119.826 137.441 120.504 137.441 121.182C137.441 121.86 137.328 122.651 137.099 123.216C136.983 123.781 136.753 124.345 136.639 124.797C136.408 125.249 136.294 125.588 136.178 125.814C136.178 126.266 136.063 126.379 136.063 126.379V126.379ZM139.051 125.701C139.051 125.701 139.283 125.249 139.513 124.571C139.626 124.232 139.743 123.781 139.858 123.329C139.971 122.877 139.971 122.312 139.971 121.747C139.971 121.182 139.858 120.617 139.858 120.165C139.743 119.713 139.628 119.261 139.513 118.922C139.283 118.244 139.053 117.792 139.053 117.792L139.283 118.018C139.396 118.244 139.513 118.47 139.743 118.809C139.856 119.148 140.088 119.6 140.204 120.165C140.317 120.617 140.433 121.182 140.433 121.86C140.433 122.425 140.318 122.99 140.318 123.555L139.974 124.91C139.858 125.249 139.743 125.588 139.629 125.701C139.168 125.588 139.053 125.701 139.053 125.701H139.052H139.051Z" fill="#263239"/>
<path d="M61.536 178.69C61.536 178.69 60.5002 179.029 59.9263 179.255C59.4667 179.368 56.9355 179.481 56.9355 179.481L57.8559 178.577L61.536 178.69V178.69Z" fill="#202E57"/>
<path d="M57.5118 173.606C57.625 174.058 58.2012 175.639 58.8917 175.978C59.5822 176.317 61.0765 177.108 61.4217 177.447C61.767 177.786 61.767 178.69 61.536 178.69C61.4217 178.69 58.3167 179.142 57.5118 179.255C56.7058 179.368 55.901 179.368 54.8652 178.916C53.8306 178.464 51.8756 177.56 51.5304 177.447C51.1851 177.334 51.0708 177.108 51.0708 176.769C51.0708 176.317 51.4161 174.735 51.7602 174.51C53.5997 173.38 57.5107 173.606 57.5107 173.606H57.5118ZM71.7726 171.459C72.2322 171.798 73.6121 173.38 74.3026 173.719C74.9931 174.058 76.8326 174.622 77.4065 175.526C77.8673 176.317 76.0278 176.543 75.9123 176.656C75.6825 176.656 72.462 176.995 72.0024 176.995C71.5428 176.995 70.2773 176.204 69.2426 176.091C68.2069 175.978 66.3674 175.978 66.021 175.3C65.5614 174.622 65.9078 172.25 66.021 172.024C66.021 171.685 71.7715 171.459 71.7715 171.459H71.7726Z" fill="#061119"/>
<path d="M73.1514 176.882C73.6121 176.769 74.4169 176.543 74.8777 176.43L77.2922 176.091C76.9469 176.43 76.0289 176.543 75.9112 176.543C75.6825 176.656 74.3026 176.769 73.1525 176.882H73.1514Z" fill="#202E57"/>
<path d="M73.382 123.442C73.7261 126.831 74.3023 136.547 73.382 141.406C72.4617 146.264 71.7723 160.048 71.7723 162.872C71.7723 165.697 71.3116 169.651 71.5425 170.668C71.7723 171.572 72.3462 171.685 71.4271 171.798C70.5067 171.911 67.8613 172.928 66.3671 172.702C64.8706 172.476 64.986 171.007 65.1026 167.053C65.2158 163.211 65.3313 151.348 64.986 148.637C64.6408 145.925 63.6061 136.547 63.0311 136.322C62.456 136.096 57.1662 153.382 56.821 156.206C56.4757 159.031 56.0161 167.844 56.4757 169.651C56.9353 171.459 57.6258 173.719 57.396 173.832C57.1662 173.945 55.9018 173.38 54.4053 174.058C52.9111 174.623 51.7599 174.961 51.5301 174.961C51.1848 174.848 50.1502 166.262 49.9192 162.081C49.6895 157.788 51.3003 149.54 51.8753 145.812C52.4504 142.084 52.679 136.547 52.5658 134.062C52.4515 131.576 52.679 126.492 54.4053 123.555C56.2459 120.617 73.382 123.442 73.382 123.442V123.442Z" fill="#263238"/>
<path d="M77.2919 106.155C77.2919 106.155 77.1787 104.687 75.9108 102.54C74.6487 100.506 70.1614 102.879 70.1614 102.879L68.5518 107.059L73.2665 108.98L77.2919 106.155Z" fill="#EFAF8F"/>
<path d="M68.2079 92.3714C69.3569 92.5973 70.8522 93.1623 72.1178 93.7272C73.3822 94.2921 74.0716 95.3089 74.993 97.5686C75.5669 99.0373 76.142 100.732 76.4873 102.088C76.6016 102.314 76.3741 102.653 76.142 102.653C74.8787 102.879 71.7725 103.331 71.1975 104.235C70.507 105.251 70.8522 111.126 71.4273 112.256C72.0023 113.499 75.4526 122.651 74.993 123.893C74.5323 125.136 71.082 127.622 67.2876 127.735C59.1214 127.961 54.2901 125.362 53.4852 124.91C53.0245 124.571 54.521 119.6 54.521 117.227C54.521 114.855 54.9806 107.963 54.0603 106.042C53.2554 104.122 52.7958 95.5349 53.4852 94.0661C54.0603 92.5973 56.7057 92.3714 57.3962 91.9194C58.2011 91.4675 59.6965 90.1117 59.9262 89.4338C60.0394 88.7559 60.8466 88.417 61.5359 88.643C62.2264 88.7559 68.2079 92.3714 68.2079 92.3714V92.3714Z" fill="#FF647C"/>
<path d="M57.6265 104.009C57.9717 104.686 57.9717 108.641 58.5468 108.641C59.1218 108.641 62.1114 108.867 64.4116 108.189C66.7118 107.511 67.7476 107.285 67.9774 106.946C68.3226 106.607 69.9323 104.799 70.1621 104.799C70.3919 104.799 71.6575 108.754 71.6575 108.754C71.6575 108.754 70.6217 109.545 70.1632 109.545C69.7025 109.545 68.8977 109.658 68.2072 110.223C67.5178 110.675 64.6414 112.595 62.6865 113.047C60.616 113.612 59.6969 113.612 58.2004 114.064C56.7062 114.516 55.2108 115.081 54.5214 112.595C53.7154 110.223 52.3355 106.72 52.1069 105.703C51.8759 104.686 57.6265 104.009 57.6265 104.009V104.009Z" fill="#F9C1A0"/>
<path d="M61.3057 86.3833C61.3057 86.3833 61.4211 88.304 61.1902 88.7559C60.9604 89.2079 59.9258 90.6766 59.9258 90.6766C59.9258 90.6766 62.801 95.9868 63.95 96.2128C65.1012 96.3257 68.5504 92.2584 68.5504 92.2584L68.667 91.0156L61.3057 86.3833V86.3833Z" fill="#EFAF8F"/>
<path d="M71.6571 83.8977C71.6571 83.8977 72.1178 83.1069 71.7703 81.6381C71.4284 80.1693 69.0127 78.1356 67.8615 77.5707C66.7125 77.0058 64.1814 77.3447 62.8015 78.5876C61.4205 79.8304 60.5013 81.7511 60.8454 84.0107C61.1907 86.2704 61.7657 86.9482 61.7657 86.9482L62.8026 87.8521L71.6571 83.8977Z" fill="#0A0D19"/>
<path d="M66.0205 82.542C66.0205 82.542 67.6313 83.2199 68.8957 83.2199C70.047 83.2199 71.5412 82.655 71.6566 82.8809C71.7698 83.1069 71.4269 85.8185 71.3114 85.9315C71.1971 86.0444 70.6209 86.3834 70.5077 87.2873C70.3911 88.1911 69.3564 91.3546 67.1706 92.4844C65.7895 93.2753 62.3404 89.5469 62.226 89.095C62.1117 88.756 62.3404 87.4002 61.9962 87.2873C61.7653 87.2873 61.0759 86.9483 60.845 86.0444C60.6152 85.1406 60.3854 83.7848 61.1903 83.6718C61.8808 83.5588 62.5713 84.3497 62.6845 84.9146C62.8011 85.4795 62.4558 87.1743 62.6845 87.1743C62.9154 87.1743 63.2618 86.0444 63.4905 85.4795C63.7203 84.9146 63.9501 84.2367 64.8715 84.2367C65.6752 84.3497 66.0205 82.542 66.0205 82.542V82.542Z" fill="#F9C1A0"/>
<path d="M77.1769 105.59C77.6376 106.833 76.9471 110.336 75.2219 111.013C73.9586 111.465 72.4621 111.352 70.8524 108.641C69.8167 106.946 66.4807 98.0205 66.1366 97.6815C65.7913 97.3426 65.1019 96.7777 65.3317 95.7608C65.5615 94.744 65.5615 94.2921 65.3317 94.2921C65.2174 94.2921 65.1019 95.1959 64.871 95.1959C64.5269 95.1959 63.9507 95.1959 63.9507 94.4051C63.9507 93.6142 63.9507 92.2584 65.3317 91.2416C65.3317 91.2416 67.5176 91.0156 68.207 91.4675C68.7831 91.9194 68.7831 93.5012 68.6677 94.0661C68.5522 94.631 68.0926 95.8738 68.4379 96.4387C68.7832 97.0036 70.8513 99.9412 71.4263 100.619C72.1169 101.41 73.6134 102.653 74.4171 103.331C75.3374 104.009 76.9471 104.912 77.1769 105.59Z" fill="#F9C1A0"/>
<path d="M53.3695 94.0662C55.0947 93.8402 56.9353 97.7946 57.2806 99.0374C57.6258 100.28 58.7748 103.896 58.2009 104.122C57.6258 104.235 53.0243 105.929 52.3349 106.72C51.6444 107.511 50.6098 101.523 50.7263 99.3764C50.9561 97.2297 51.1859 94.4051 53.3707 94.0662H53.3695Z" fill="#FF647C"/>
</svg>
