<svg width="32" height="32" viewBox="0 0 32 32" fill="none" xmlns="http://www.w3.org/2000/svg">
<g clip-path="url(#clip0_21172_58639)">
<path d="M31.0325 8.11625C30.1931 5.02375 26.9769 1.8075 23.8844 0.968125C21.9888 0.495 19.4481 0.008125 16 0C12.5525 0.00875 10.0119 0.495 8.11625 0.968125C5.02375 1.80813 1.8075 5.02375 0.968125 8.11625C0.495 10.0119 0.00875 12.5525 0 16C0.00875 19.4481 0.495 21.9888 0.968125 23.8844C1.8075 26.9769 5.02375 30.1925 8.11625 31.0325C10.0119 31.5056 12.5538 31.9919 16 32.0006C19.4481 31.9919 21.9888 31.5056 23.8844 31.0325C26.9769 30.1925 30.1931 26.9769 31.0325 23.8844C31.5056 21.9888 31.9919 19.4469 32.0006 16C31.9919 12.5525 31.5056 10.0119 31.0325 8.11625Z" fill="#FFE5E5"/>
<path d="M24.1492 13.4403C24.2986 13.3053 25.0555 12.6447 25.1836 12.5278C25.3911 12.7591 25.5811 12.9653 25.6086 12.9897C25.6631 13.0332 25.7295 13.0593 25.7991 13.0646C25.8686 13.0698 25.9382 13.0539 25.9986 13.0191C26.2104 12.8929 26.3973 12.729 26.5498 12.5353C26.5925 12.4795 26.6177 12.4124 26.6223 12.3424C26.627 12.2724 26.6109 12.2025 26.5761 12.1416C26.5361 12.0741 25.7236 11.0928 25.6286 10.9897C25.5336 10.8866 24.6911 9.92718 24.633 9.8803C24.5784 9.83691 24.512 9.81091 24.4425 9.80567C24.3729 9.80043 24.3034 9.8162 24.243 9.85093C24.0308 9.97682 23.8437 10.1408 23.6911 10.3347C23.6485 10.3906 23.6233 10.4578 23.6186 10.5279C23.614 10.598 23.63 10.668 23.6648 10.7291C23.683 10.7597 23.8611 10.9791 24.0586 11.2184C23.9405 11.3178 23.1967 11.9578 23.0586 12.0734L24.1492 13.4403Z" fill="url(#paint0_linear_21172_58639)"/>
<path d="M20.1717 10.611C20.1924 10.441 20.3874 9.55973 20.4049 9.40911C20.8761 9.40036 21.3049 9.38911 21.3586 9.38098C21.4623 9.36616 21.5603 9.32491 21.6434 9.2612C21.7265 9.19749 21.7918 9.11348 21.833 9.01723C21.8896 8.86109 21.9295 8.69934 21.9517 8.53473C21.9757 8.37486 21.9814 8.21277 21.9686 8.05161C21.9562 7.95762 21.9124 7.87059 21.8443 7.80458C21.7763 7.73857 21.6879 7.69745 21.5936 7.68786C21.4799 7.66973 19.5567 7.63911 19.3436 7.64536C19.1317 7.63911 17.1999 7.66973 17.0811 7.68786C16.9776 7.70273 16.8796 7.744 16.7966 7.80771C16.7137 7.87142 16.6485 7.95541 16.6074 8.05161C16.5505 8.20794 16.5105 8.3699 16.488 8.53473C16.4642 8.69442 16.4587 8.85631 16.4717 9.01723C16.4839 9.11069 16.5271 9.19735 16.5945 9.26331C16.6618 9.32927 16.7493 9.37071 16.843 9.38098C16.8949 9.38911 17.3205 9.40036 17.7892 9.40911C17.7649 9.55973 17.5624 10.441 17.5349 10.611H20.1717Z" fill="url(#paint1_linear_21172_58639)"/>
<path d="M7.60125 15.5272C7.60125 15.0936 7.24979 14.7422 6.81625 14.7422C6.38271 14.7422 6.03125 15.0936 6.03125 15.5272C6.03125 15.9607 6.38271 16.3122 6.81625 16.3122C7.24979 16.3122 7.60125 15.9607 7.60125 15.5272Z" fill="url(#paint2_linear_21172_58639)"/>
<path d="M18.9525 10.4375C17.5287 10.4375 16.1444 10.865 14.9387 11.5994H12.1344H12.1294H7.27375C7.0673 11.5992 6.86914 11.6806 6.72245 11.8259C6.57577 11.9712 6.49244 12.1686 6.49062 12.375V12.3831C6.49062 12.5908 6.57313 12.79 6.72 12.9369C6.86686 13.0837 7.06605 13.1662 7.27375 13.1662H11.1237C11.321 13.1806 11.5055 13.2691 11.6402 13.4139C11.775 13.5587 11.8499 13.7491 11.85 13.9469V13.955C11.85 14.1627 11.7675 14.3619 11.6206 14.5088C11.4738 14.6556 11.2746 14.7381 11.0669 14.7381H8.91C8.80663 14.7379 8.70424 14.7581 8.60872 14.7976C8.5132 14.8371 8.42646 14.8952 8.35348 14.9684C8.2805 15.0416 8.22274 15.1285 8.18353 15.2242C8.14431 15.3198 8.12442 15.4223 8.125 15.5256V15.5331C8.125 15.7408 8.20751 15.94 8.35437 16.0869C8.50124 16.2337 8.70043 16.3162 8.90812 16.3162H9.75625C9.96395 16.3162 10.1631 16.3988 10.31 16.5456C10.4569 16.6925 10.5394 16.8917 10.5394 17.0994V17.1069C10.5394 17.3146 10.4569 17.5138 10.31 17.6606C10.1631 17.8075 9.96395 17.89 9.75625 17.89H6.1575C5.94991 17.8902 5.75088 17.9727 5.60415 18.1196C5.45742 18.2664 5.375 18.4655 5.375 18.6731V18.6812C5.37517 18.8888 5.45775 19.0879 5.60459 19.2346C5.75144 19.3813 5.95054 19.4638 6.15812 19.4637H10.375C10.4783 19.4635 10.5806 19.4837 10.676 19.5231C10.7714 19.5626 10.8581 19.6205 10.9311 19.6936C11.004 19.7666 11.0618 19.8534 11.1011 19.9489C11.1404 20.0444 11.1604 20.1467 11.16 20.25V20.2581C11.1592 20.4655 11.076 20.6642 10.9288 20.8103C10.7816 20.9564 10.5824 21.0382 10.375 21.0375H8.32687C8.11918 21.0375 7.91999 21.12 7.77312 21.2669C7.62626 21.4137 7.54375 21.6129 7.54375 21.8206V21.8287C7.54375 21.9316 7.56401 22.0334 7.60337 22.1283C7.64274 22.2233 7.70043 22.3096 7.77316 22.3823C7.84589 22.455 7.93222 22.5126 8.02723 22.5519C8.12224 22.5912 8.22406 22.6113 8.32687 22.6112H12.6312C13.7069 23.6975 15.2281 24.3569 16.9962 24.3569C20.8406 24.3569 24.3956 21.2406 24.9337 17.3956C25.4719 13.5506 22.7975 10.4375 18.9525 10.4375Z" fill="url(#paint3_linear_21172_58639)"/>
<path d="M21.5461 16.688L18.2667 21.7505C18.2297 21.8078 18.1789 21.855 18.119 21.8878C18.0591 21.9205 17.9919 21.9378 17.9236 21.938H17.6667C17.6049 21.938 17.5438 21.924 17.4881 21.897C17.4324 21.87 17.3836 21.8307 17.3453 21.782C17.307 21.7334 17.2803 21.6767 17.2671 21.6163C17.254 21.5558 17.2547 21.4931 17.2692 21.433L18.0774 18.0973H16.1067C16.0516 18.0973 15.9971 18.0847 15.9475 18.0606C15.8979 18.0364 15.8544 18.0013 15.8203 17.958C15.7862 17.9146 15.7623 17.8641 15.7506 17.8101C15.7388 17.7562 15.7394 17.7004 15.7524 17.6467L16.8461 13.1342C16.8653 13.0547 16.9107 12.984 16.975 12.9335C17.0393 12.8829 17.1187 12.8554 17.2005 12.8555H19.4674C19.5226 12.8555 19.577 12.8681 19.6266 12.8923C19.6762 12.9164 19.7197 12.9515 19.7538 12.9948C19.788 13.0382 19.8118 13.0888 19.8235 13.1427C19.8353 13.1966 19.8347 13.2525 19.8217 13.3061L19.1549 16.0586H21.203C21.2763 16.0588 21.3482 16.0786 21.4111 16.1161C21.4741 16.1536 21.5258 16.2073 21.5609 16.2717C21.596 16.336 21.6131 16.4086 21.6105 16.4819C21.6079 16.5551 21.5857 16.6263 21.5461 16.688Z" fill="url(#paint4_linear_21172_58639)"/>
</g>
<defs>
<linearGradient id="paint0_linear_21172_58639" x1="25.9186" y1="13.1872" x2="23.368" y2="10.6372" gradientUnits="userSpaceOnUse">
<stop stop-color="#34344F"/>
<stop offset="0.54" stop-color="#353551"/>
<stop offset="1" stop-color="#666684"/>
</linearGradient>
<linearGradient id="paint1_linear_21172_58639" x1="20.6986" y1="10.2147" x2="17.5411" y2="7.05786" gradientUnits="userSpaceOnUse">
<stop stop-color="#34344F"/>
<stop offset="0.54" stop-color="#353551"/>
<stop offset="1" stop-color="#666684"/>
</linearGradient>
<linearGradient id="paint2_linear_21172_58639" x1="7.37125" y1="16.0822" x2="6.26125" y2="14.9722" gradientUnits="userSpaceOnUse">
<stop stop-color="#EF3739"/>
<stop offset="0.54" stop-color="#EF3739"/>
<stop offset="1" stop-color="#FF8C8B"/>
</linearGradient>
<linearGradient id="paint3_linear_21172_58639" x1="22.8112" y1="24.5469" x2="9.80875" y2="11.5438" gradientUnits="userSpaceOnUse">
<stop stop-color="#EF3739"/>
<stop offset="0.54" stop-color="#EF3739"/>
<stop offset="1" stop-color="#FF8C8B"/>
</linearGradient>
<linearGradient id="paint4_linear_21172_58639" x1="20.5961" y1="19.4342" x2="15.533" y2="14.3711" gradientUnits="userSpaceOnUse">
<stop stop-color="#FFD2D2"/>
<stop offset="0.57" stop-color="white"/>
<stop offset="1" stop-color="white"/>
</linearGradient>
<clipPath id="clip0_21172_58639">
<rect width="32" height="32" fill="white"/>
</clipPath>
</defs>
</svg>
