<svg width="32" height="32" viewBox="0 0 32 32" fill="none" xmlns="http://www.w3.org/2000/svg">
<path d="M22.125 4.33301H17.75C17.3876 4.33301 17.0938 4.62682 17.0938 4.98926V6.30176C17.0938 6.66419 17.3876 6.95801 17.75 6.95801H22.125C22.4874 6.95801 22.7812 6.66419 22.7812 6.30176V4.98926C22.7812 4.62682 22.4874 4.33301 22.125 4.33301Z" fill="#EAAC30"/>
<path d="M9.4375 13.958H5.0625C4.88845 13.958 4.72153 14.0271 4.59846 14.1502C4.47539 14.2733 4.40625 14.4402 4.40625 14.6143C4.40625 14.7883 4.47539 14.9552 4.59846 15.0783C4.72153 15.2014 4.88845 15.2705 5.0625 15.2705H9.4375C9.61155 15.2705 9.77847 15.2014 9.90154 15.0783C10.0246 14.9552 10.0938 14.7883 10.0938 14.6143C10.0938 14.4402 10.0246 14.2733 9.90154 14.1502C9.77847 14.0271 9.61155 13.958 9.4375 13.958Z" fill="#EAAC30"/>
<path d="M9.21875 19.8643C9.21875 19.6902 9.14961 19.5233 9.02654 19.4002C8.90347 19.2771 8.73655 19.208 8.5625 19.208H4.1875C4.01345 19.208 3.84653 19.2771 3.72346 19.4002C3.60039 19.5233 3.53125 19.6902 3.53125 19.8643C3.53125 20.0383 3.60039 20.2052 3.72346 20.3283C3.84653 20.4514 4.01345 20.5205 4.1875 20.5205H8.5625C8.73655 20.5205 8.90347 20.4514 9.02654 20.3283C9.14961 20.2052 9.21875 20.0383 9.21875 19.8643Z" fill="#EAAC30"/>
<path d="M9 21.833H5.9375C5.76345 21.833 5.59653 21.9021 5.47346 22.0252C5.35039 22.1483 5.28125 22.3152 5.28125 22.4893C5.28125 22.6633 5.35039 22.8302 5.47346 22.9533C5.59653 23.0764 5.76345 23.1455 5.9375 23.1455H9C9.17405 23.1455 9.34097 23.0764 9.46404 22.9533C9.58711 22.8302 9.65625 22.6633 9.65625 22.4893C9.65625 22.3152 9.58711 22.1483 9.46404 22.0252C9.34097 21.9021 9.17405 21.833 9 21.833Z" fill="#EAAC30"/>
<path d="M9.21875 17.2393C9.21875 17.0652 9.14961 16.8983 9.02654 16.7752C8.90347 16.6521 8.73655 16.583 8.5625 16.583H2.875C2.70095 16.583 2.53403 16.6521 2.41096 16.7752C2.28789 16.8983 2.21875 17.0652 2.21875 17.2393C2.21875 17.4133 2.28789 17.5802 2.41096 17.7033C2.53403 17.8264 2.70095 17.8955 2.875 17.8955H8.5625C8.73655 17.8955 8.90347 17.8264 9.02654 17.7033C9.14961 17.5802 9.21875 17.4133 9.21875 17.2393Z" fill="#EAAC30"/>
<path d="M19.9375 18.5518V11.1143C15.8364 11.1143 12.5 14.4507 12.5 18.5518C12.5 22.6528 15.8364 25.9893 19.9375 25.9893C24.0386 25.9893 27.375 22.6528 27.375 18.5518H19.9375Z" fill="#EAAC30"/>
<path d="M27.1354 11.8445L27.839 11.1408C27.9008 11.08 27.9499 11.0076 27.9835 10.9278C28.0172 10.848 28.0347 10.7623 28.035 10.6757C28.0354 10.589 28.0186 10.5032 27.9856 10.4231C27.9526 10.343 27.9041 10.2702 27.8428 10.2089C27.7816 10.1477 27.7088 10.0992 27.6287 10.0662C27.5486 10.0332 27.4627 10.0164 27.3761 10.0167C27.2895 10.0171 27.2038 10.0346 27.1239 10.0682C27.0441 10.1019 26.9717 10.151 26.911 10.2127L26.1786 10.9451C24.7682 9.78318 23.0611 9.03866 21.25 8.79551V7.61426H18.625V8.79551C16.8139 9.03856 15.1068 9.78297 13.6964 10.9447L12.964 10.2124C12.9033 10.1507 12.8309 10.1015 12.7511 10.0679C12.6712 10.0343 12.5855 10.0168 12.4989 10.0164C12.4123 10.0161 12.3264 10.0329 12.2463 10.0658C12.1662 10.0988 12.0934 10.1474 12.0322 10.2086C11.9709 10.2699 11.9224 10.3426 11.8894 10.4227C11.8564 10.5029 11.8396 10.5887 11.84 10.6753C11.8403 10.762 11.8578 10.8477 11.8915 10.9275C11.9251 11.0073 11.9742 11.0797 12.036 11.1405L12.7396 11.8442C11.0379 13.6629 10.0919 16.061 10.0938 18.5518C10.0938 23.9796 14.5097 28.3955 19.9375 28.3955C25.3653 28.3955 29.7813 23.9796 29.7813 18.5518C29.783 16.0611 28.837 13.6632 27.1354 11.8445ZM19.9375 26.6455C18.3367 26.6455 16.7719 26.1708 15.4409 25.2815C14.1098 24.3921 13.0724 23.128 12.4599 21.6491C11.8473 20.1702 11.687 18.5428 11.9993 16.9727C12.3116 15.4027 13.0824 13.9605 14.2144 12.8286C15.3463 11.6967 16.7885 10.9258 18.3585 10.6135C19.9285 10.3012 21.5559 10.4615 23.0348 11.0741C24.5138 11.6867 25.7779 12.7241 26.6672 14.0551C27.5566 15.3861 28.0313 16.951 28.0313 18.5518C28.0313 19.6146 27.8219 20.6671 27.4152 21.6491C27.0084 22.6311 26.4122 23.5233 25.6606 24.2749C24.9091 25.0265 24.0168 25.6227 23.0348 26.0294C22.0529 26.4362 21.0004 26.6455 19.9375 26.6455Z" fill="#EAAC30"/>
</svg>
