<svg width="14" height="15" viewBox="0 0 14 15" fill="none" xmlns="http://www.w3.org/2000/svg">
<path d="M11.25 0H2.25C1.65326 0 1.08097 0.237053 0.65901 0.65901C0.237053 1.08097 0 1.65326 0 2.25V12.75C0 13.3467 0.237053 13.919 0.65901 14.341C1.08097 14.7629 1.65326 15 2.25 15H11.25C11.8467 15 12.419 14.7629 12.841 14.341C13.2629 13.919 13.5 13.3467 13.5 12.75V2.25C13.5 1.65326 13.2629 1.08097 12.841 0.65901C12.419 0.237053 11.8467 0 11.25 0ZM3.75 2.625H6.75C6.94891 2.625 7.13968 2.70402 7.28033 2.84467C7.42098 2.98532 7.5 3.17609 7.5 3.375C7.5 3.57391 7.42098 3.76468 7.28033 3.90533C7.13968 4.04598 6.94891 4.125 6.75 4.125H3.75C3.55109 4.125 3.36032 4.04598 3.21967 3.90533C3.07902 3.76468 3 3.57391 3 3.375C3 3.17609 3.07902 2.98532 3.21967 2.84467C3.36032 2.70402 3.55109 2.625 3.75 2.625ZM9.75 12.375H3.75C3.55109 12.375 3.36032 12.296 3.21967 12.1553C3.07902 12.0147 3 11.8239 3 11.625C3 11.4261 3.07902 11.2353 3.21967 11.0947C3.36032 10.954 3.55109 10.875 3.75 10.875H9.75C9.94891 10.875 10.1397 10.954 10.2803 11.0947C10.421 11.2353 10.5 11.4261 10.5 11.625C10.5 11.8239 10.421 12.0147 10.2803 12.1553C10.1397 12.296 9.94891 12.375 9.75 12.375ZM9.75 9.6225H3.75C3.55109 9.6225 3.36032 9.54348 3.21967 9.40283C3.07902 9.26218 3 9.07141 3 8.8725C3 8.67359 3.07902 8.48282 3.21967 8.34217C3.36032 8.20152 3.55109 8.1225 3.75 8.1225H9.75C9.94891 8.1225 10.1397 8.20152 10.2803 8.34217C10.421 8.48282 10.5 8.67359 10.5 8.8725C10.5 9.07141 10.421 9.26218 10.2803 9.40283C10.1397 9.54348 9.94891 9.6225 9.75 9.6225ZM9.75 6.8775H3.75C3.55109 6.8775 3.36032 6.79848 3.21967 6.65783C3.07902 6.51718 3 6.32641 3 6.1275C3 5.92859 3.07902 5.73782 3.21967 5.59717C3.36032 5.45652 3.55109 5.3775 3.75 5.3775H9.75C9.94891 5.3775 10.1397 5.45652 10.2803 5.59717C10.421 5.73782 10.5 5.92859 10.5 6.1275C10.5 6.32641 10.421 6.51718 10.2803 6.65783C10.1397 6.79848 9.94891 6.8775 9.75 6.8775Z" fill="black"/>
</svg>
