<svg width="25" height="24" viewBox="0 0 25 24" fill="none" xmlns="http://www.w3.org/2000/svg">
<path d="M24.5665 11.8589C24.5816 18.4286 19.2723 23.7631 12.7076 23.7832C6.13788 23.7984 0.803428 18.4891 0.78326 11.9244C0.763092 5.35969 6.07737 0.0202003 12.6421 3.22405e-05C19.2118 -0.0150938 24.5463 5.29415 24.5665 11.8639V11.8589Z" fill="#0071BC"/>
<path d="M16.8063 10.0135V9.64039C16.8063 9.08576 16.3525 8.64207 15.8029 8.64207L12.5105 8.65215C12.7827 8.24374 13.0853 7.4219 12.934 5.85887C12.8483 4.96644 12.213 4.25551 11.6231 4.06896C11.0281 3.8824 10.4432 4.3261 10.5844 4.93114C10.65 5.2135 10.7659 5.56139 10.7458 5.98492C10.6651 7.56308 9.75753 8.73282 9.25837 9.26224C9.14745 9.35803 9.04661 9.45887 8.96089 9.55467C8.94577 9.5698 8.93568 9.57988 8.93568 9.57988H8.94577C8.26509 10.3463 8.2903 11.0572 8.2903 11.0572H7.50879L7.52391 16.7547H8.65333C9.87854 18.0606 11.2802 18.1564 11.9962 18.1009C12.097 18.1311 12.1979 18.1564 12.3088 18.1564L15.8332 18.1463C16.3878 18.1463 16.8315 17.6975 16.8315 17.1429V16.7698C16.8315 16.2152 16.3777 15.7715 15.8281 15.7715C16.3827 15.7715 16.8264 15.3227 16.8264 14.7681V14.395C16.8264 13.8404 16.3727 13.3967 15.8231 13.3967C16.3777 13.3967 17.0483 12.948 17.0483 12.3933V12.0202C17.0483 11.4656 16.3727 11.0219 15.818 11.0219C16.3727 11.0219 16.8164 10.5732 16.8164 10.0185L16.8063 10.0135Z" fill="white"/>
</svg>
