<svg width="60" height="60" viewBox="0 0 60 60" fill="none" xmlns="http://www.w3.org/2000/svg">
<rect width="60" height="60" rx="30" fill="#584415"/>
<g clip-path="url(#clip0_21063_78440)">
<path d="M35.6562 14.4141H30.1875C29.7345 14.4141 29.3672 14.7813 29.3672 15.2344V16.875C29.3672 17.328 29.7345 17.6953 30.1875 17.6953H35.6562C36.1093 17.6953 36.4766 17.328 36.4766 16.875V15.2344C36.4766 14.7813 36.1093 14.4141 35.6562 14.4141Z" fill="#FFF5DC"/>
<path d="M19.7969 26.4453H14.3281C14.1106 26.4453 13.9019 26.5317 13.7481 26.6856C13.5942 26.8394 13.5078 27.0481 13.5078 27.2656C13.5078 27.4832 13.5942 27.6918 13.7481 27.8457C13.9019 27.9995 14.1106 28.0859 14.3281 28.0859H19.7969C20.0144 28.0859 20.2231 27.9995 20.3769 27.8457C20.5308 27.6918 20.6172 27.4832 20.6172 27.2656C20.6172 27.0481 20.5308 26.8394 20.3769 26.6856C20.2231 26.5317 20.0144 26.4453 19.7969 26.4453Z" fill="#FFF5DC"/>
<path d="M19.5234 33.8281C19.5234 33.6106 19.437 33.4019 19.2832 33.2481C19.1293 33.0942 18.9207 33.0078 18.7031 33.0078H13.2344C13.0168 33.0078 12.8082 33.0942 12.6543 33.2481C12.5005 33.4019 12.4141 33.6106 12.4141 33.8281C12.4141 34.0457 12.5005 34.2543 12.6543 34.4082C12.8082 34.562 13.0168 34.6484 13.2344 34.6484H18.7031C18.9207 34.6484 19.1293 34.562 19.2832 34.4082C19.437 34.2543 19.5234 34.0457 19.5234 33.8281Z" fill="#FFF5DC"/>
<path d="M19.25 36.2891H15.4219C15.2043 36.2891 14.9957 36.3755 14.8418 36.5293C14.688 36.6832 14.6016 36.8918 14.6016 37.1094C14.6016 37.3269 14.688 37.5356 14.8418 37.6894C14.9957 37.8433 15.2043 37.9297 15.4219 37.9297H19.25C19.4676 37.9297 19.6762 37.8433 19.83 37.6894C19.9839 37.5356 20.0703 37.3269 20.0703 37.1094C20.0703 36.8918 19.9839 36.6832 19.83 36.5293C19.6762 36.3755 19.4676 36.2891 19.25 36.2891Z" fill="#FFF5DC"/>
<path d="M19.5234 30.5469C19.5234 30.3293 19.437 30.1207 19.2832 29.9668C19.1293 29.813 18.9207 29.7266 18.7031 29.7266H11.5938C11.3762 29.7266 11.1675 29.813 11.0137 29.9668C10.8599 30.1207 10.7734 30.3293 10.7734 30.5469C10.7734 30.7644 10.8599 30.9731 11.0137 31.1269C11.1675 31.2808 11.3762 31.3672 11.5938 31.3672H18.7031C18.9207 31.3672 19.1293 31.2808 19.2832 31.1269C19.437 30.9731 19.5234 30.7644 19.5234 30.5469Z" fill="#FFF5DC"/>
<path d="M32.9219 32.1875V22.8906C27.7955 22.8906 23.625 27.0612 23.625 32.1875C23.625 37.3138 27.7955 41.4844 32.9219 41.4844C38.0482 41.4844 42.2188 37.3138 42.2188 32.1875H32.9219Z" fill="#FFF5DC"/>
<path d="M41.9192 23.8034L42.7988 22.9238C42.876 22.8478 42.9374 22.7574 42.9794 22.6576C43.0215 22.5578 43.0433 22.4507 43.0438 22.3424C43.0442 22.2341 43.0232 22.1268 42.982 22.0266C42.9407 21.9265 42.8801 21.8355 42.8035 21.759C42.727 21.6824 42.636 21.6218 42.5359 21.5805C42.4357 21.5393 42.3284 21.5183 42.2201 21.5187C42.1118 21.5192 42.0047 21.541 41.9049 21.5831C41.8051 21.6251 41.7147 21.6865 41.6387 21.7637L40.7233 22.6791C38.9602 21.2268 36.8264 20.2961 34.5625 19.9922V18.5156H31.2813V19.9922C29.0174 20.296 26.8836 21.2265 25.1205 22.6787L24.205 21.7633C24.1291 21.6861 24.0386 21.6247 23.9388 21.5827C23.839 21.5406 23.7319 21.5188 23.6236 21.5183C23.5153 21.5179 23.408 21.5389 23.3079 21.5801C23.2078 21.6213 23.1168 21.682 23.0402 21.7586C22.9637 21.8351 22.903 21.9261 22.8618 22.0262C22.8205 22.1264 22.7995 22.2337 22.8 22.342C22.8004 22.4502 22.8223 22.5574 22.8643 22.6572C22.9064 22.7569 22.9678 22.8474 23.045 22.9234L23.9246 23.803C21.7974 26.0764 20.6149 29.0741 20.6172 32.1875C20.6172 38.9723 26.1371 44.4922 32.9219 44.4922C39.7067 44.4922 45.2266 38.9723 45.2266 32.1875C45.2287 29.0742 44.0463 26.0767 41.9192 23.8034ZM32.9219 42.3047C30.9209 42.3047 28.9648 41.7113 27.3011 40.5996C25.6373 39.4879 24.3406 37.9079 23.5748 36.0592C22.8091 34.2105 22.6087 32.1763 22.9991 30.2137C23.3895 28.2512 24.353 26.4485 25.7679 25.0336C27.1829 23.6187 28.9856 22.6551 30.9481 22.2647C32.9107 21.8743 34.9449 22.0747 36.7936 22.8404C38.6422 23.6062 40.2223 24.9029 41.334 26.5667C42.4457 28.2305 43.0391 30.1865 43.0391 32.1875C43.0391 33.5161 42.7774 34.8317 42.2689 36.0592C41.7605 37.2867 41.0153 38.402 40.0758 39.3414C39.1363 40.2809 38.021 41.0261 36.7936 41.5346C35.5661 42.043 34.2505 42.3047 32.9219 42.3047Z" fill="#FFF5DC"/>
</g>
<defs>
<clipPath id="clip0_21063_78440">
<rect width="35" height="35" fill="white" transform="translate(10.5 11.5)"/>
</clipPath>
</defs>
</svg>
