<svg width="328" height="112" viewBox="0 0 328 112" fill="none" xmlns="http://www.w3.org/2000/svg">
<g clip-path="url(#clip0_9445_1959)">
<rect width="328" height="112" rx="12" fill="url(#paint0_linear_9445_1959)"/>
<circle opacity="0.15" cx="315" cy="56" r="100" fill="#FF9497"/>
<circle opacity="0.15" cx="303" cy="56" r="100" fill="#FF9497"/>
<g style="mix-blend-mode:soft-light" opacity="0.3">
<path d="M250.264 91.9046C254.546 91.9046 258.017 91.1166 258.017 90.1445C258.017 89.1725 254.546 88.3845 250.264 88.3845C245.982 88.3845 242.511 89.1725 242.511 90.1445C242.511 91.1166 245.982 91.9046 250.264 91.9046Z" fill="#FFECEC"/>
</g>
<g style="mix-blend-mode:soft-light" opacity="0.5">
<path d="M299.525 91.8629C297.91 91.8629 296.371 91.9107 294.968 91.9971C295.947 91.7243 296.503 91.4116 296.503 91.0791C296.503 90.0175 290.833 89.1569 283.838 89.1569C276.843 89.1569 271.173 90.0175 271.173 91.0791C271.173 92.1406 276.843 93.0012 283.838 93.0012C285.633 93.0012 287.34 92.9442 288.887 92.842C288.12 93.0732 287.687 93.3331 287.687 93.608C287.687 94.5718 292.987 95.3531 299.525 95.3531C306.063 95.3531 311.363 94.5718 311.363 93.608C311.363 92.6442 306.063 91.8629 299.525 91.8629Z" fill="#FFECEC"/>
</g>
<g style="mix-blend-mode:soft-light" opacity="0.5">
<path d="M265.372 92.8471C265.138 92.8471 264.906 92.8486 264.675 92.8511C265.124 92.6445 265.372 92.4206 265.372 92.1864C265.372 91.1526 260.576 90.3146 254.66 90.3146C248.743 90.3146 243.947 91.1527 243.947 92.1864C243.947 93.2161 248.705 94.0513 254.589 94.058C253.522 94.416 252.908 94.8316 252.908 95.2755C252.908 96.6167 258.488 97.7039 265.372 97.7039C272.256 97.7039 277.837 96.6167 277.837 95.2755C277.837 93.9343 272.256 92.8471 265.372 92.8471Z" fill="#FFECEC"/>
</g>
<path d="M283.314 37.6007C281.779 35.5681 279.755 33.9075 277.461 32.7994C277.018 38.6925 276.796 44.6219 276.925 50.5303C278.511 49.7038 280.068 48.7876 281.39 47.5825C282.711 46.3774 283.809 44.863 284.248 43.1293C284.75 41.1482 284.392 39.028 283.314 37.6007Z" fill="#FFE6B0"/>
<path d="M277.761 32.9499C277.598 33.1413 277.478 33.3751 277.406 33.6173C277.405 33.622 277.404 33.6269 277.403 33.6316C277.355 34.2989 277.31 34.9665 277.268 35.6345C277.251 37.9709 277.233 40.3073 277.215 42.6436C277.206 43.8325 277.203 45.056 277.642 46.1612C277.856 46.7007 278.17 47.1928 278.524 47.6503C278.723 47.9078 279.237 48.7424 279.654 48.636C280.019 48.5429 280.142 47.3828 280.244 47.0492C280.44 46.4046 280.656 45.7664 280.893 45.1358C281.017 44.807 281.148 44.4717 281.156 44.1204C281.163 43.7785 281.053 43.4462 280.945 43.1217C280.319 41.2439 279.714 39.3397 279.531 37.3688C279.427 36.2476 279.461 35.1184 279.525 33.994C278.96 33.6086 278.371 33.2603 277.761 32.9499Z" fill="#F9CF76"/>
<path d="M247.69 21.4891C247.69 21.4891 245.72 21.3293 243.918 24.0971C248.618 23.0266 251.151 23.9143 251.151 23.9143C251.151 23.9143 249.817 21.3616 247.69 21.4891Z" fill="#808285"/>
<path d="M259.946 21.8063C259.131 20.8475 258.434 19.7889 257.876 18.6617C258.719 17.9189 258.805 16.4434 258.469 15.3708C258.134 14.2982 257.243 13.4446 256.198 13.0316C255.152 12.6187 253.972 12.6195 252.884 12.9026C251.564 13.2462 250.296 14.071 249.771 15.3297C249.246 16.5884 249.701 18.2775 250.948 18.8319C250.336 20.5022 249.512 22.152 248.364 23.5101C251.652 23.5378 254.94 23.5655 258.227 23.4707C258.763 23.4552 259.331 23.4267 259.775 23.1271C260.22 22.8275 260.293 22.2149 259.946 21.8063ZM256.089 17.2767C255.487 17.6977 254.683 17.7608 254.005 17.4907C253.61 17.3329 253.242 17.0538 253.059 16.6563C252.888 16.2876 252.893 15.849 253.011 15.4588C253.135 15.0489 253.395 14.693 253.722 14.4345C254.17 14.0802 256.434 13.4782 256.952 15.3245C257.155 16.0515 256.692 16.8558 256.089 17.2767Z" fill="#BCBEC0"/>
<path d="M251.1 23.5299C251.539 21.9245 252.105 20.3498 252.832 18.8549C251.56 18.4678 250.608 17.2068 250.584 15.8778C250.566 14.853 251.102 13.8506 251.924 13.2463C250.982 13.682 250.167 14.383 249.772 15.3298C249.247 16.5886 249.702 18.2776 250.948 18.8321C250.337 20.5023 249.513 22.1521 248.364 23.5102C249.276 23.5179 250.188 23.5248 251.1 23.5299Z" fill="#D1D3D4"/>
<path d="M235.592 22.5354H278.002L283.421 84.3554L241.527 89.4064L235.592 22.5354Z" fill="#6AA8FF"/>
<path d="M267.116 28.9926C267.116 28.9926 270.943 27.5747 269.703 22.5354H264.398L267.116 28.9926Z" fill="#155F99"/>
<path d="M235.592 22.5354L234 23.6955L239.971 88.7913L241.527 89.4064L235.592 22.5354Z" fill="#A3C9FF"/>
<path d="M239.933 25.5958L277.757 24.9172C279.018 43.5456 281.204 62.1097 284.819 80.4273C272.232 80.8125 259.582 82.5711 247.213 84.9361C243.761 72.3951 239.933 36.719 239.933 25.5958Z" fill="white"/>
<path d="M265.493 25.1371L267.116 28.9924C267.116 28.9924 269.614 28.0682 269.922 25.0576C268.446 25.0841 266.969 25.1106 265.493 25.1371Z" fill="#E6E7E8"/>
<path d="M251.757 21.9592C254.428 21.8374 257.1 21.7158 259.771 21.5941C259.248 20.9557 258.776 20.2759 258.361 19.5624C257.449 19.6355 256.55 19.8273 255.676 20.1151C254.303 20.5676 253.008 21.2322 251.757 21.9592Z" fill="#808285"/>
<path d="M249.757 28.9811L267.116 28.9929C268.03 27.0138 267.631 24.6359 266.903 22.4869C266.664 21.7839 266.04 21.2848 265.301 21.2165C259.663 20.6959 253.892 20.6586 247.69 21.4893C249.623 22.507 249.928 26.1944 249.757 28.9811Z" fill="#BCBEC0"/>
<path d="M267.37 24.1248L249.419 24.1748C249.688 25.2172 249.792 26.4159 249.798 27.5677L267.565 27.4738C267.732 26.3929 267.625 25.2496 267.37 24.1248Z" fill="#D1D3D4"/>
<path d="M257.674 21.2437C256.612 21.2661 255.524 21.3371 254.551 21.7629C254.377 21.839 254.179 21.9795 254.214 22.1662C254.244 22.3283 254.431 22.4015 254.59 22.4434C257.035 23.0858 259.591 23.0565 262.094 22.8716C262.586 22.8353 265.108 22.9072 265.002 22.2368C264.859 21.3413 262.666 21.4488 262.049 21.3935C260.595 21.2631 259.134 21.2131 257.674 21.2437Z" fill="#D1D3D4"/>
<path d="M252.261 22.648C252.931 22.648 253.475 22.4376 253.475 22.178C253.475 21.9184 252.931 21.708 252.261 21.708C251.59 21.708 251.047 21.9184 251.047 22.178C251.047 22.4376 251.59 22.648 252.261 22.648Z" fill="#D1D3D4"/>
<path d="M276.184 42.8078L269.315 43.1559L268.001 34.826L274.871 34.4779L276.184 42.8078ZM270.023 42.2833L275.214 42.0203L274.163 35.3504L268.971 35.6135L270.023 42.2833Z" fill="#CDCECE"/>
<path d="M278.281 57.3367L271.409 57.6534L270.134 49.3176L277.005 49.001L278.281 57.3367ZM272.122 56.7841L277.314 56.5448L276.293 49.8703L271.101 50.1096L272.122 56.7841Z" fill="#CDCECE"/>
<path d="M274.109 72.249L272.687 63.9369L279.552 63.4991L280.974 71.8112L274.109 72.249ZM273.668 64.7118L274.806 71.3673L279.994 71.0364L278.855 64.3809L273.668 64.7118Z" fill="#CDCECE"/>
<path d="M243.923 39.5199C243.642 39.5199 243.41 39.297 243.401 39.0144C243.392 38.7261 243.618 38.4849 243.906 38.4757L265.551 37.7834C265.842 37.7751 266.08 38.0005 266.089 38.2886C266.099 38.577 265.872 38.8181 265.584 38.8273L243.94 39.5195C243.934 39.5197 243.928 39.5199 243.923 39.5199Z" fill="#CDCECE"/>
<path d="M244.342 41.7112C244.061 41.7112 243.829 41.4882 243.82 41.2056C243.811 40.9173 244.037 40.6761 244.325 40.667L265.969 39.9747C266.264 39.9671 266.499 40.1917 266.508 40.4799C266.517 40.7682 266.291 41.0094 266.003 41.0185L244.359 41.7108C244.353 41.711 244.347 41.7112 244.342 41.7112Z" fill="#CDCECE"/>
<path d="M244.76 43.9023C244.479 43.9023 244.247 43.6793 244.238 43.3967C244.229 43.1084 244.455 42.8673 244.743 42.8581L255.565 42.512C255.858 42.5023 256.095 42.7291 256.104 43.0172C256.113 43.3056 255.887 43.5466 255.599 43.5559L244.777 43.9019C244.771 43.9021 244.765 43.9023 244.76 43.9023Z" fill="#CDCECE"/>
<path d="M243.442 37.3409C243.161 37.3409 242.929 37.1179 242.92 36.8354C242.911 36.547 243.137 36.3059 243.426 36.2967L254.248 35.9505C254.541 35.9426 254.777 36.1676 254.786 36.4557C254.796 36.7441 254.569 36.9852 254.281 36.9944L243.459 37.3406C243.453 37.3408 243.448 37.3409 243.442 37.3409Z" fill="#FF9497"/>
<path d="M246.85 55.1946C246.584 55.1946 246.356 54.9919 246.331 54.7214C246.304 54.4343 246.515 54.1795 246.802 54.1524L268.361 52.1168C268.647 52.0876 268.903 52.3004 268.93 52.5876C268.957 52.8748 268.747 53.1295 268.459 53.1566L246.9 55.1921C246.883 55.1937 246.867 55.1946 246.85 55.1946Z" fill="#CDCECE"/>
<path d="M247.404 57.3556C247.138 57.3556 246.91 57.1528 246.885 56.8824C246.858 56.5953 247.068 56.3405 247.356 56.3134L268.915 54.2779C269.201 54.2498 269.457 54.4615 269.484 54.7487C269.511 55.0358 269.3 55.2906 269.013 55.3176L247.454 57.3533C247.437 57.3548 247.421 57.3556 247.404 57.3556Z" fill="#CDCECE"/>
<path d="M247.958 59.5161C247.692 59.5161 247.464 59.3133 247.439 59.043C247.411 58.7558 247.622 58.501 247.909 58.4739L258.689 57.4559C258.975 57.4316 259.231 57.6397 259.258 57.9267C259.285 58.2139 259.074 58.4688 258.787 58.4959L248.008 59.5138C247.991 59.5152 247.974 59.5161 247.958 59.5161Z" fill="#CDCECE"/>
<path d="M246.235 53.0498C245.968 53.0498 245.741 52.8472 245.715 52.5767C245.688 52.2895 245.899 52.0348 246.186 52.0077L256.966 50.9899C257.251 50.9621 257.508 51.1735 257.535 51.4607C257.562 51.7478 257.351 52.0026 257.064 52.0296L246.284 53.0475C246.268 53.0491 246.251 53.0498 246.235 53.0498Z" fill="#FF9497"/>
<path d="M249.408 70.4752C249.145 70.4752 248.919 70.2777 248.89 70.0105C248.858 69.7239 249.064 69.4656 249.351 69.434L270.875 67.0466C271.161 67.0134 271.419 67.2212 271.451 67.508C271.483 67.7946 271.276 68.0529 270.99 68.0845L249.466 70.4719C249.447 70.4741 249.427 70.4752 249.408 70.4752Z" fill="#CDCECE"/>
<path d="M249.998 72.6267C249.735 72.6267 249.509 72.4292 249.479 72.162C249.447 71.8754 249.654 71.6171 249.941 71.5855L271.464 69.1981C271.75 69.1647 272.009 69.3727 272.041 69.6595C272.072 69.9461 271.866 70.2044 271.579 70.236L250.056 72.6234C250.036 72.6257 250.017 72.6267 249.998 72.6267Z" fill="#CDCECE"/>
<path d="M250.586 74.7778C250.324 74.7778 250.098 74.5803 250.068 74.3131C250.036 74.0265 250.243 73.7682 250.529 73.7366L261.291 72.5431C261.578 72.5104 261.836 72.7177 261.868 73.0045C261.899 73.2911 261.693 73.5494 261.406 73.581L250.645 74.7746C250.625 74.7768 250.606 74.7778 250.586 74.7778Z" fill="#CDCECE"/>
<path d="M248.758 68.341C248.495 68.341 248.269 68.1435 248.239 67.8763C248.208 67.5897 248.414 67.3314 248.701 67.2998L259.462 66.106C259.75 66.0722 260.007 66.2807 260.039 66.5675C260.071 66.8541 259.864 67.1123 259.578 67.144L248.816 68.3378C248.796 68.34 248.777 68.341 248.758 68.341Z" fill="#FF9497"/>
<path d="M267.659 35.6662C269.152 36.1561 270.536 36.8191 271.667 38.0113C273.134 36.123 274.456 34.4132 276.526 32.9418C274.565 35.315 273.043 37.934 272.02 40.6964C271.056 38.8372 269.532 37.038 267.659 35.6662Z" fill="#FF9497"/>
<path d="M269.774 50.866C271.267 51.356 272.652 52.0189 273.782 53.2112C275.249 51.3228 276.572 49.613 278.642 48.1416C276.681 50.5148 275.159 53.1338 274.135 55.8962C273.171 54.037 271.648 52.2379 269.774 50.866Z" fill="#FF9497"/>
<path d="M272.397 65.0706C273.89 65.5606 275.274 66.2235 276.405 67.4158C277.872 65.5274 279.194 63.8176 281.264 62.3462C279.303 64.7194 277.781 67.3384 276.758 70.1008C275.794 68.2416 274.27 66.4425 272.397 65.0706Z" fill="#FF9497"/>
<path d="M285.14 87.3077C283.747 87.9835 282.355 88.6593 280.963 89.3351C280.799 89.4144 280.609 89.5367 280.624 89.7179C280.642 89.9377 280.928 90.0045 281.148 90.0123C283.117 90.0826 285.085 90.1529 287.054 90.2233V87.8271C286.444 87.721 285.711 87.5434 285.14 87.3077Z" fill="white"/>
<path d="M299.153 91.1698C298.753 91.9532 296.913 92.7099 295.712 93.2931C295.571 93.3615 295.407 93.4671 295.419 93.6234C295.435 93.8131 295.682 93.8707 295.872 93.8775C297.099 93.9214 299.056 93.9652 300.688 94.009C301.45 94.0295 301.96 93.2324 301.624 92.5475L300.685 90.5072C300.159 90.4156 299.646 91.3731 299.153 91.1698Z" fill="white"/>
<path d="M298.671 54.6526C296.455 55.4139 294.313 55.3791 292.277 55.6576C291.918 56.1582 290.543 58.1851 290.184 58.6857C292.1 58.9262 294.015 59.1668 295.931 59.4072C296.242 59.4463 296.56 59.485 296.865 59.4155C297.319 59.3122 297.688 58.9816 297.976 58.6161C298.828 57.5355 299.057 55.9734 298.671 54.6526Z" fill="#5199FF"/>
<path d="M288.432 51.6644C289.177 50.5242 290.205 49.734 291.245 49.8895C291.16 49.8769 290.357 51.7476 290.233 51.961C289.846 52.6282 289.422 53.2432 288.967 53.7973C288.52 54.342 288.043 54.8279 287.544 55.2464C287.396 55.37 286.995 55.8367 286.868 55.4627C286.788 55.2261 287.128 54.5032 287.205 54.2855C287.543 53.3379 287.934 52.4269 288.432 51.6644Z" fill="#5199FF"/>
<path d="M310.422 40.9592L287.087 61.6143L283.385 57.4325L306.72 36.7774C307.874 35.7551 309.639 35.8624 310.662 37.0172C311.684 38.1719 311.577 39.9369 310.422 40.9592Z" fill="#FFE6B0"/>
<path d="M283.385 57.4331L277.605 66.2806L287.088 61.6149L283.385 57.4331Z" fill="#F98C6E"/>
<path d="M305.844 39.7828L284.492 58.6826L285.98 60.3641L307.332 41.4642L305.844 39.7828Z" fill="#F5C969"/>
<path d="M279.678 63.1072L277.605 66.2803L281.006 64.607L279.678 63.1072Z" fill="#FC3A52"/>
<path d="M306.72 36.7773L304.346 38.8788L308.049 43.0606L310.422 40.9591C311.577 39.9369 311.684 38.1719 310.662 37.0172C309.64 35.8624 307.875 35.7551 306.72 36.7773Z" fill="#F98C6E"/>
<path d="M304.737 38.5328L303.055 40.0214L306.758 44.2031L308.439 42.7145L304.737 38.5328Z" fill="white"/>
<path opacity="0.25" d="M310.422 40.9591C311.36 40.1284 311.607 38.8076 311.118 37.7221C311.005 37.4715 310.854 37.2336 310.662 37.0171L277.605 66.2798L287.088 61.6142L310.422 40.9591Z" fill="#231F20"/>
<path d="M297.316 52.9507C297.854 53.9115 297.896 56.543 297.649 57.6159C298.472 57.7543 299.401 56.4485 300.224 56.587C299.913 55.6106 299.824 54.5643 299.965 53.5493C300.012 53.214 300.074 52.8368 299.87 52.5664C299.612 52.2244 299.084 52.2598 298.685 52.4155C298.286 52.5712 297.743 52.9836 297.316 52.9507Z" fill="#E67A5C"/>
<path d="M293.778 68.0043C293.778 68.0043 288.622 72.8069 287.507 76.6366C286.393 80.4664 284.819 86.9421 284.819 86.9421L287.693 87.5057L290.641 78.3774L295.306 73.5032C295.306 73.5032 295.522 68.7025 293.778 68.0043Z" fill="#52565E"/>
<path d="M293.778 68.0043C293.778 68.0043 291.807 69.8409 290.039 72.1478C290.319 73.6176 290.655 75.0796 290.985 76.5125C291.078 76.915 291.174 77.3169 291.272 77.7182L295.306 73.5033C295.306 73.5033 295.522 68.7025 293.778 68.0043Z" fill="#444953"/>
<path d="M299.167 69.0551C298.905 69.7519 296.952 70.633 296.206 70.7772C295.565 70.901 294.894 70.6105 294.441 70.1544C293.988 69.6983 293.54 69.1273 293.532 68.4927C293.403 59.0694 295.151 57.086 296.74 55.5166C298.129 54.1449 300.003 54.3932 301.061 56.0036C302.231 57.7849 301.612 60.1892 301.143 62.0992C300.509 64.6845 300.224 66.2439 299.167 69.0551Z" fill="#6AA8FF"/>
<path d="M297.209 65.5773C299.026 63.0546 300.035 59.9592 300.055 56.8503C299.445 58.5015 298.463 59.8487 297.25 61.1243C297.064 61.3201 296.869 61.512 296.638 61.6511C295.978 62.0474 295.14 61.9531 294.392 61.7716C294.228 61.7316 294.061 61.6882 293.895 61.6455C293.761 62.5165 293.659 63.5223 293.596 64.6879C294.767 65.0884 295.973 65.3729 297.209 65.5773Z" fill="#3C85EC"/>
<path d="M298.161 74.3539C298.852 72.2301 299.354 71.0671 299.277 68.7587C295.704 69.8464 293.526 68.0043 293.526 68.0043C292.966 73.1075 292.835 75.8443 293.525 80.9341C293.929 83.9226 296.947 88.2609 298.648 90.83C299.381 90.6461 299.717 90.4972 300.45 90.3134C299.818 87.941 298.662 83.6586 297.405 81.509C297.701 78.8418 297.315 76.9497 298.161 74.3539Z" fill="#52565E"/>
<path d="M290.71 50.1914C291.29 49.7128 292.387 49.4565 293.077 49.7535C293.255 49.8298 293.437 49.9679 293.445 50.1611C293.455 50.4088 293.184 50.5629 292.949 50.6436C292.221 50.8941 291.446 51.0073 290.676 50.9752C290.432 50.9052 290.131 50.6701 290.71 50.1914Z" fill="#F98C6E"/>
<path d="M295.851 61.764C296.078 61.7789 296.314 61.7926 296.526 61.7112C296.854 61.5861 297.058 61.2653 297.224 60.9568C297.773 59.9351 298.151 58.8218 298.337 57.6771C298.45 56.9822 298.281 56.1892 297.75 55.7271C296.416 56.7873 295.525 58.3889 295.328 60.0817C294.966 60.0716 294.585 60.0649 294.208 60.0576C294.092 60.5304 293.987 61.0519 293.897 61.636L295.851 61.764Z" fill="#3C85EC"/>
<path d="M288.268 59.5667C288.077 59.3111 287.855 59.054 287.55 58.9591C287.246 58.8641 286.848 59.0071 286.78 59.3187C286.683 59.7642 287.278 60.1853 287.099 60.6048C287.048 60.7251 286.94 60.8129 286.88 60.9291C286.764 61.1519 286.852 61.437 287.024 61.6194C287.197 61.802 287.435 61.9037 287.669 61.9955C287.996 62.1241 288.338 62.2445 288.69 62.2306C288.905 62.2221 289.13 62.1549 289.271 61.9926C289.55 61.6736 289.232 61.1959 289.08 60.8898C288.85 60.4255 288.578 59.982 288.268 59.5667Z" fill="#F98C6E"/>
<path d="M295.596 60.9627C296.234 58.3848 296.154 57.7593 297.066 56.0646C297.367 55.505 297.939 55.1122 298.528 54.8736C299.117 54.6351 299.844 54.6581 300.333 55.0642C300.715 55.3812 300.902 55.8866 300.928 56.3818C300.955 56.877 300.837 57.3683 300.697 57.8441C299.725 61.1568 299.218 61.6306 297.193 64.4275C294.433 64.1692 290.788 63.5967 288.831 62.5647C288.434 62.3552 288.408 61.6798 288.646 61.2987C288.904 60.8862 289.497 60.8782 289.975 60.9674C291.511 61.254 293.249 61.0069 295.596 60.9627Z" fill="#5199FF"/>
<path d="M284.683 86.3215L288.069 87.2354L287.704 88.3844L284.391 87.5055L284.683 86.3215Z" fill="#474B54"/>
<path d="M300.587 89.4003L298.141 90.5169L298.674 91.6134L301.042 90.5167L300.587 89.4003Z" fill="#474B54"/>
<path d="M287.054 90.223V89.5765C284.943 89.5488 282.832 89.5211 280.722 89.4934C280.659 89.5555 280.617 89.6295 280.624 89.7176C280.642 89.9375 280.928 90.0042 281.148 90.0121C283.117 90.0824 285.085 90.1527 287.054 90.223Z" fill="#808285"/>
<path d="M295.616 93.3453C295.506 93.4118 295.41 93.5022 295.419 93.6234C295.435 93.8131 295.682 93.8707 295.872 93.8775C297.099 93.9214 299.056 93.9652 300.688 94.009C301.212 94.0231 301.617 93.6503 301.709 93.1934C299.679 93.267 297.647 93.3175 295.616 93.3453Z" fill="#808285"/>
<path d="M295.123 51.9149C295.038 52.586 295.125 53.6252 295.575 54.1306C295.941 54.5429 296.551 54.675 297.094 54.5791C297.637 54.4832 298.126 54.1909 298.571 53.8646C299.335 53.3042 300.012 52.6263 300.572 51.8622C301.095 51.1484 301.53 50.247 301.267 49.4019C301.075 48.7827 300.538 48.3248 299.958 48.0361C299.251 47.6844 298.423 47.5361 297.659 47.7348C295.729 48.2367 295.33 50.2603 295.123 51.9149Z" fill="#F98C6E"/>
<path d="M300.086 51.616C300.219 51.0291 300.098 50.3897 299.761 49.8916C299.423 49.3935 298.874 49.044 298.28 48.9491C297.746 48.8638 297.203 48.9766 296.667 49.0519C296.131 49.1273 295.561 49.1607 295.071 48.932C294.639 48.7307 294.313 48.3395 294.128 47.9005C293.942 47.4614 293.888 46.9766 293.898 46.5001C293.905 46.1651 293.945 45.8261 294.07 45.5151C294.195 45.2041 294.412 44.9215 294.71 44.7671C295.109 44.5595 295.632 44.6197 295.974 44.9127C296.316 45.2056 296.455 45.7131 296.311 46.1396C296.677 45.5987 297.232 45.1967 297.836 44.9499C298.206 44.7991 298.679 44.735 298.962 45.0154C299.142 45.1935 299.194 45.4718 299.151 45.7216C299.109 45.9714 298.985 46.1993 298.856 46.4169C299.421 45.8464 300.272 45.5742 301.064 45.7106C301.153 45.726 301.247 45.7491 301.31 45.8142C301.418 45.9259 301.39 46.1088 301.337 46.2547C301.184 46.6698 300.875 47.0251 300.485 47.2332C301.079 47.465 301.708 47.7233 302.074 48.2454C302.36 48.6527 302.445 49.1745 302.405 49.6704C302.329 50.5931 301.818 51.4808 301.031 51.9685C300.851 52.08 300.643 52.1735 300.434 52.1398C300.225 52.1061 300.04 51.8224 300.086 51.616Z" fill="#092942"/>
<path d="M300.471 51.2061C300.601 51.1447 300.749 51.098 300.886 51.1416C301.039 51.1905 301.139 51.3469 301.161 51.5061C301.182 51.6653 301.137 51.8262 301.076 51.9747C300.87 52.4733 300.47 52.8887 299.979 53.1125C299.878 53.1584 299.756 53.1951 299.662 53.1361C299.401 52.9718 299.488 52.272 299.595 52.0216C299.744 51.672 300.14 51.3627 300.471 51.2061Z" fill="#F98C6E"/>
<path d="M297.885 50.7401C297.764 51.0444 297.532 51.238 297.368 51.1723C297.203 51.1067 297.167 50.8067 297.288 50.5024C297.41 50.198 297.642 50.0045 297.806 50.0702C297.971 50.1358 298.007 50.4358 297.885 50.7401Z" fill="#092942"/>
<path d="M296.155 50.7401C296.034 51.0444 295.802 51.238 295.637 51.1723C295.472 51.1067 295.437 50.8067 295.558 50.5024C295.679 50.198 295.911 50.0045 296.076 50.0702C296.241 50.1358 296.276 50.4358 296.155 50.7401Z" fill="#092942"/>
<path d="M295.917 51.796C295.848 51.8198 295.775 51.8361 295.713 51.8754C295.652 51.9147 295.603 51.985 295.615 52.0569C295.627 52.1301 295.696 52.1798 295.765 52.2073C295.988 52.2962 296.26 52.2248 296.428 52.052C296.595 51.8792 296.659 51.6194 296.614 51.383C296.601 51.315 296.55 51.174 296.458 51.2264C296.395 51.2619 296.375 51.4066 296.338 51.4669C296.244 51.6221 296.087 51.7374 295.917 51.796Z" fill="#D1684B"/>
<path d="M297.067 53.0659C297.002 53.0659 296.938 53.0589 296.875 53.0445C296.819 53.0316 296.783 52.9757 296.796 52.9195C296.809 52.8632 296.865 52.8274 296.921 52.8409C297.098 52.8813 297.294 52.8456 297.445 52.7454C297.596 52.6453 297.705 52.4788 297.736 52.3003C297.746 52.2433 297.8 52.205 297.857 52.2156C297.914 52.2256 297.952 52.2798 297.942 52.3366C297.901 52.5704 297.758 52.7883 297.56 52.9195C297.416 53.0151 297.241 53.0659 297.067 53.0659Z" fill="#D1684B"/>
<path d="M284.731 36.2645C284.246 36.7872 283.247 37.4609 282.565 37.675C280.888 40.3083 282.194 40.6396 283.557 39.8905C284.098 39.5932 284.638 39.2953 285.179 38.9977C285.269 38.9481 285.364 38.8939 285.414 38.8036C285.487 38.6701 285.438 38.5053 285.388 38.3614C285.161 37.7071 285.248 36.7261 284.731 36.2645Z" fill="#E67A5C"/>
<path d="M278.369 57.9143C278.031 58.3897 277.728 58.8908 277.465 59.4119C277.41 59.522 277.355 59.6468 277.392 59.7644C277.426 59.8749 277.536 59.9481 277.65 59.9718C277.763 59.9954 277.88 59.9784 277.995 59.9614C277.832 60.5396 277.625 61.4748 277.648 61.6106C277.671 61.7463 277.774 61.8791 277.911 61.889C278.078 61.901 278.528 61.2646 278.894 60.63C279.157 60.5239 279.428 60.4062 279.662 60.2458C279.895 60.0853 280.098 59.865 280.186 59.5954C280.319 59.1892 280.17 58.7382 279.928 58.3857C279.779 58.1684 279.593 57.9727 279.364 57.8432C279.134 57.7136 278.627 57.8575 278.369 57.9143Z" fill="#F98C6E"/>
<path d="M284.45 40.8609C284.819 46.8927 282.822 53.4928 280.088 58.9249C279.378 58.9989 278.732 58.9532 278.06 58.7155C278.399 53.9795 279.338 49.302 280.564 44.7151C280.772 43.9365 281.002 43.1338 281.521 42.5167C282.039 41.8997 283.707 40.5487 284.45 40.8609Z" fill="#FFE6B0"/>
<path d="M287.418 40.5137C286.845 40.9413 285.829 41.4191 285.092 41.3059C284.49 41.2136 284.004 40.7669 283.769 40.2551C283.534 39.7434 283.514 39.174 283.551 38.6236C283.615 37.6784 283.84 36.7441 284.215 35.8638C284.566 35.0414 285.143 34.1949 286.084 33.9691C286.774 33.8037 287.519 34.0158 288.133 34.3549C288.882 34.768 289.513 35.3911 289.785 36.1446C290.47 38.0478 288.83 39.4598 287.418 40.5137Z" fill="#F98C6E"/>
<path d="M284.184 35.9189C285.32 36.2461 286.201 36.075 286.77 34.9766C287.052 36.272 289.505 40.6812 291.876 38.5702C290.712 37.9694 290.78 36.7487 290.39 35.5613C290.235 35.0865 290.002 34.6195 289.618 34.265C289.234 33.9105 288.68 33.6827 288.142 33.7539C288.456 33.6399 288.758 33.4995 289.042 33.3351C289.138 33.2797 289.241 33.2071 289.248 33.1036C289.258 32.954 289.064 32.8633 288.901 32.8394C288.484 32.7785 288.043 32.8914 287.727 33.1398C287.613 32.7113 287.312 32.324 286.904 32.0817C286.804 32.0218 286.693 31.9694 286.573 31.9595C286.454 31.9496 286.324 31.9902 286.261 32.0822C286.206 32.1627 286.211 32.2652 286.226 32.3595C286.282 32.7145 286.455 33.055 286.716 33.3262C285.932 33.2025 285.147 33.613 284.666 34.18C284.184 34.7471 283.947 35.4506 283.718 36.1375C283.829 36.1026 284.073 35.9538 284.184 35.9189Z" fill="#092942"/>
<path d="M284.885 35.6011C284.864 35.4587 284.819 35.3079 284.697 35.2153C284.561 35.1115 284.355 35.1092 284.195 35.1755C284.034 35.2417 283.912 35.3653 283.81 35.496C283.47 35.935 283.324 36.495 283.409 37.03C283.426 37.1397 283.465 37.2633 283.576 37.3114C283.884 37.4456 284.482 37.0003 284.65 36.7769C284.886 36.465 284.937 35.9648 284.885 35.6011Z" fill="#F98C6E"/>
<path d="M286.86 37.547C286.65 37.8112 286.608 38.1105 286.768 38.2156C286.927 38.3206 287.227 38.1915 287.437 37.9273C287.647 37.6631 287.688 37.3637 287.529 37.2587C287.37 37.1537 287.07 37.2827 286.86 37.547Z" fill="#092942"/>
<path d="M287.892 39.0149C287.682 39.2792 287.641 39.5785 287.8 39.6835C287.959 39.7885 288.259 39.6595 288.469 39.3952C288.679 39.1309 288.721 38.8316 288.561 38.7266C288.402 38.6216 288.102 38.7507 287.892 39.0149Z" fill="#092942"/>
<path d="M287.054 39.777C287.074 39.8481 287.102 39.9186 287.102 39.9916C287.102 40.0646 287.067 40.1436 286.992 40.1717C286.917 40.2002 286.83 40.1678 286.763 40.124C286.547 39.9815 286.452 39.7132 286.512 39.4795C286.572 39.2458 286.775 39.0535 287.022 38.9664C287.093 38.9414 287.254 38.9102 287.26 39.0161C287.265 39.088 287.143 39.1821 287.109 39.2451C287.021 39.4073 287.007 39.6014 287.054 39.777Z" fill="#D1684B"/>
<path d="M285.19 39.476C285.229 39.5308 285.274 39.5819 285.324 39.6274C285.37 39.6683 285.443 39.6684 285.487 39.6277C285.532 39.587 285.532 39.5206 285.486 39.48C285.343 39.3516 285.259 39.1666 285.262 38.9854C285.265 38.8042 285.354 38.6235 285.501 38.5021C285.548 38.4634 285.552 38.3972 285.508 38.3546C285.465 38.3117 285.392 38.3083 285.345 38.347C285.152 38.5059 285.035 38.7425 285.032 38.9798C285.029 39.1529 285.086 39.3283 285.19 39.476Z" fill="#D1684B"/>
<path d="M262.56 81.2296C263.032 81.1654 263.511 81.1012 263.981 81.1742C264.451 81.2472 264.919 81.4782 265.167 81.884C265.47 82.3794 265.388 83.0151 265.233 83.5746C264.936 84.6476 264.412 85.6421 263.881 86.6202C262.635 88.9111 261.324 91.1656 260.013 93.4198C259.617 93.4211 259.148 93.4684 258.771 93.3423C258.395 93.2163 258.046 92.9393 257.941 92.5567C257.867 92.287 257.921 92.0007 257.974 91.7261C258.452 89.2801 258.93 86.834 259.408 84.3879C259.562 83.5988 259.73 82.7777 260.224 82.1433C260.718 81.509 261.854 80.8462 262.56 81.2296Z" fill="#52565E"/>
<path d="M264.212 86.0006C264.163 85.9267 264.117 85.8527 264.079 85.7785C263.586 84.8213 263.29 83.7639 263.211 82.6905C263.173 82.1778 263.188 81.6617 263.252 81.1516C263.021 81.167 262.79 81.198 262.561 81.2292C262.457 81.1731 262.344 81.1418 262.226 81.1271C261.833 81.2299 261.441 81.3352 261.05 81.4423C260.718 81.6359 260.421 81.8912 260.225 82.143C259.874 82.5931 259.689 83.1376 259.555 83.6975C259.846 84.0949 260.121 84.5091 260.405 84.9093C261.199 86.0285 262.113 87.0621 263.125 87.9892C263.378 87.5337 263.632 87.0779 263.881 86.6198C263.993 86.4144 264.103 86.2081 264.212 86.0006Z" fill="#3F444D"/>
<path d="M262.639 87.4053C262.212 86.7192 261.783 86.0295 261.25 85.4229C260.789 84.8984 260.111 84.4064 259.445 84.6162C259.414 84.626 259.386 84.6407 259.356 84.653C259.127 85.8271 258.897 87.0012 258.668 88.1753C258.787 88.2073 258.906 88.2387 259.004 88.2873C259.743 88.6511 260.287 89.3578 260.596 90.1064C260.808 90.621 260.926 91.1639 261.002 91.7162C261.696 90.5186 262.383 89.3178 263.058 88.1096C262.925 87.8702 262.782 87.6356 262.639 87.4053Z" fill="#3F444D"/>
<path d="M248.2 72.771C251.158 76.175 254.553 79.1992 258.275 81.746C257.925 82.1944 257.525 82.6819 256.96 82.753C256.498 82.8113 256.055 82.5731 255.649 82.3429C253.796 81.2914 251.916 80.2199 250.424 78.699C248.932 77.1781 248.071 74.8978 248.2 72.771Z" fill="#FF596D"/>
<path d="M248.2 72.771C248.071 74.8977 248.932 77.1781 250.424 78.699C250.9 79.184 251.418 79.6196 251.959 80.0272C251.97 79.6239 251.975 79.2205 251.968 78.8172C251.956 78.0663 251.915 77.3118 251.843 76.5609C250.568 75.3582 249.35 74.0942 248.2 72.771Z" fill="#FF6C7E"/>
<path d="M244.731 71.8117C243.702 72.199 242.688 72.6134 241.692 73.0543C241.32 73.2188 240.932 73.4025 240.734 73.7135C240.469 74.129 240.615 74.6484 240.769 75.1145C242.052 78.9991 243.49 82.8523 245.08 86.6655C245.18 86.9056 246.524 90.2429 246.781 90.2819C248.17 90.4927 248.458 87.3815 249.849 87.2797C250.229 87.2519 250.626 87.2061 250.923 87.0137C251.301 86.769 251.432 86.3453 251.531 85.9492C251.978 84.1566 250.301 75.1087 249.166 73.3963C248.03 71.6839 246.797 71.0348 244.731 71.8117Z" fill="#FF596D"/>
<path d="M250.941 83.176C251.113 83.2353 251.308 83.2841 251.49 83.2861C251.406 82.4857 251.279 81.5846 251.122 80.6546C250.201 80.5231 249.3 80.2783 248.432 79.9385C247.916 79.736 247.411 79.502 246.921 79.2422C245.254 78.3596 243.753 77.1949 242.324 75.9652C242.876 76.9868 243.436 78.0192 244.214 78.8816C244.911 79.654 245.764 80.2681 246.625 80.8519C247.981 81.7717 249.393 82.6398 250.941 83.176Z" fill="#FF556A"/>
<path d="M245.638 69.9715C245.454 70.7639 245.426 71.5918 245.553 72.3952C245.616 72.7978 245.294 73.1526 244.888 73.1223C244.566 73.0983 244.247 73.0536 243.931 72.9792C243.809 72.9502 243.681 72.9154 243.588 72.8305C243.46 72.7134 243.424 72.5285 243.396 72.3572C243.265 71.5781 243.135 70.7989 243.005 70.0198C242.968 69.7984 242.935 69.5561 243.047 69.3621C243.2 69.0995 243.55 69.0397 243.853 69.0298C244.184 69.0191 244.525 69.0366 244.825 69.1737C245.126 69.3108 245.713 69.6496 245.638 69.9715Z" fill="#E67A5C"/>
<path d="M247.884 67.9773C248.078 68.665 248.161 69.7848 247.792 70.4331C247.491 70.9618 246.9 71.2564 246.338 71.2931C245.776 71.3299 245.237 71.1452 244.736 70.9135C243.877 70.5156 243.084 69.9717 242.396 69.3067C241.754 68.6855 241.169 67.8437 241.295 66.8841C241.387 66.181 241.851 65.5609 242.388 65.1083C243.041 64.5571 243.848 64.1901 244.649 64.2058C246.672 64.2456 247.404 66.2821 247.884 67.9773Z" fill="#F98C6E"/>
<path d="M244.914 67.439C245.085 67.7297 245.35 67.8753 245.505 67.764C245.66 67.6527 245.647 67.3269 245.475 67.0361C245.303 66.7453 245.039 66.5998 244.884 66.7111C244.729 66.8223 244.742 67.1482 244.914 67.439Z" fill="#092942"/>
<path d="M246.654 66.9988C246.825 67.2895 247.09 67.4351 247.245 67.3238C247.4 67.2126 247.387 66.8867 247.215 66.596C247.043 66.3052 246.779 66.1597 246.624 66.2709C246.469 66.3821 246.482 66.708 246.654 66.9988Z" fill="#092942"/>
<path d="M247.066 68.054C247.139 68.0615 247.215 68.0603 247.283 68.0862C247.351 68.1121 247.412 68.1737 247.412 68.2529C247.412 68.3332 247.35 68.4034 247.286 68.4499C247.075 68.6007 246.791 68.5943 246.594 68.4543C246.397 68.3143 246.29 68.0561 246.297 67.7949C246.299 67.7198 246.327 67.5577 246.429 67.5897C246.497 67.6114 246.542 67.7589 246.588 67.8134C246.708 67.9535 246.885 68.0354 247.066 68.054Z" fill="#D1684B"/>
<path d="M246.118 69.6881C246.183 69.6716 246.247 69.6477 246.307 69.6166C246.362 69.5887 246.388 69.5206 246.366 69.4645C246.344 69.4083 246.282 69.3847 246.227 69.4133C246.057 69.5009 245.854 69.5129 245.686 69.4455C245.517 69.378 245.381 69.2299 245.32 69.0493C245.3 68.9917 245.24 68.965 245.184 68.9906C245.129 69.0156 245.1 69.0824 245.119 69.1399C245.199 69.3764 245.378 69.5703 245.598 69.6587C245.759 69.7231 245.943 69.7323 246.118 69.6881Z" fill="#D1684B"/>
<path d="M242.574 69.4567C242.919 69.0335 243.123 68.4972 243.146 67.9517C243.169 67.4063 243.011 66.8548 242.702 66.4042C243.911 66.2334 245.058 65.9338 246.202 65.5092C246.695 65.3264 247.218 65.0862 247.457 64.6182C247.633 64.2716 247.62 63.8565 247.532 63.4774C247.267 62.3309 246.397 61.4237 245.477 60.6903C245.639 61.1743 245.801 61.6582 245.963 62.1421C245.51 61.6575 244.967 61.2565 244.371 60.9651C244.694 61.6203 244.956 62.3056 245.153 63.0093C244.025 62.9101 242.836 63.0247 241.842 63.5677C240.849 64.1107 240.077 65.1418 240.061 66.2735C240.051 66.9791 240.331 67.6717 240.768 68.2255C241.205 68.7792 241.943 69.1423 242.574 69.4567Z" fill="#092942"/>
<path d="M242.39 68.5881C242.25 68.5562 242.093 68.5444 241.963 68.6253C241.817 68.7158 241.742 68.9067 241.746 69.0803C241.751 69.2539 241.822 69.4125 241.908 69.5538C242.197 70.0284 242.667 70.3655 243.197 70.4771C243.306 70.5001 243.435 70.5077 243.52 70.4216C243.755 70.1817 243.553 69.4645 243.405 69.2271C243.198 68.8955 242.749 68.6694 242.39 68.5881Z" fill="#F98C6E"/>
<path d="M242.469 79.9897C243.954 81.1985 245.526 82.2992 247.239 83.1483C248.613 83.8295 250.086 84.341 251.594 84.6055C251.57 84.0349 251.506 83.3494 251.411 82.5996C250.74 82.36 250.075 82.1021 249.422 81.8184C246.521 80.5595 243.798 78.8899 241.362 76.8724C241.72 77.9139 242.089 78.953 242.469 79.9897Z" fill="#F94F64"/>
<path d="M243.802 75.5645C244.245 77.4061 245.821 78.9399 247.698 79.9237C249.574 80.9074 251.738 81.4075 253.889 81.8053C254.02 81.9875 254.097 82.1595 254.143 82.3696C254.188 82.5797 254.127 82.8206 253.928 82.9501C253.764 83.0572 253.542 83.0694 253.336 83.073C250.599 83.1207 247.853 82.3984 245.616 81.0509C243.379 79.7035 241.663 77.739 240.777 75.5271C240.645 75.1961 240.529 74.8528 240.542 74.5032C240.554 74.1535 240.712 73.7926 241.039 73.5816C241.579 73.2326 242.401 73.4145 242.877 73.8257C243.354 74.2369 243.666 74.9978 243.802 75.5645Z" fill="#FF6C7E"/>
<path d="M264.305 79.3037C264.395 79.6949 264.383 80.8073 264.46 81.3063C260.651 82.6856 256.692 83.2243 252.622 84.3638C251.978 84.5439 251.335 84.7241 250.691 84.9043C250.458 84.9694 250.198 85.0323 249.984 84.9198C249.77 84.8073 249.708 84.4348 249.932 84.3435C254.066 82.6568 258.036 80.5378 262.28 79.1468C262.599 79.042 262.926 78.9387 263.262 78.9319C263.599 78.925 264.23 78.9756 264.305 79.3037Z" fill="#383B41"/>
<path d="M254.673 74.8574L264.536 73.405C265.029 73.3324 265.45 73.7649 265.36 74.2549C264.93 76.5855 264.624 78.9435 264.46 81.3063C260.969 81.7717 257.626 82.1894 253.59 82.8025C253.858 80.0787 253.986 77.915 254.05 75.5608C254.06 75.2061 254.322 74.9091 254.673 74.8574Z" fill="#999CA1"/>
<path d="M261.057 78.2953C260.939 78.9725 260.383 79.4412 259.815 79.3422C259.246 79.2432 258.881 78.6139 258.999 77.9366C259.117 77.2594 259.674 76.7908 260.242 76.8898C260.81 76.9888 261.175 77.6181 261.057 78.2953Z" fill="white"/>
<path d="M247.877 91.3752C249.078 91.8076 250.529 91.692 251.742 91.2961C254.544 90.3818 256.776 88.2846 258.907 86.2487C260.382 88.3793 262.176 90.4253 263.65 92.5559C263.966 93.0121 264.313 93.4932 264.831 93.692C265.349 93.8907 266.69 92.2848 266.625 91.8591C266.561 91.4334 266.36 91.042 266.157 90.6623C264.929 88.3634 263.521 86.1644 262.037 84.0219C261.477 83.2121 260.838 82.3601 259.898 82.0676C258.917 81.7628 257.87 82.1441 256.909 82.5055C253.816 83.6693 251.314 84.0429 247.877 85.116C243.943 86.3443 245.934 90.6756 247.877 91.3752Z" fill="#52565E"/>
<path d="M270.723 92.9066C270.858 92.933 271.02 92.9833 271.051 93.1178C271.089 93.2795 270.909 93.4007 270.755 93.4647C269.214 94.1087 267.537 94.338 265.881 94.5616C265.674 94.5896 265.454 94.6157 265.264 94.528C265.044 94.4257 264.916 94.1933 264.821 93.9695C264.723 93.7392 264.641 93.489 264.682 93.2421C264.739 92.8965 265.026 92.6326 265.332 92.4626C265.57 92.3308 265.96 92.0803 266.234 92.0702C266.533 92.0592 266.903 92.1968 267.2 92.2496C267.958 92.3845 268.715 92.5234 269.472 92.6665C269.889 92.7453 270.306 92.8253 270.723 92.9066Z" fill="white"/>
<path d="M257.399 93.6157C257.332 93.8421 257.281 94.0916 257.374 94.3084C257.456 94.4999 257.641 94.6323 257.838 94.699C258.036 94.7658 258.247 94.7756 258.455 94.7832C259.571 94.8241 260.687 94.8207 261.803 94.8173C262.116 94.8164 262.43 94.8153 262.739 94.7643C262.912 94.7357 263.124 94.6351 263.103 94.4611C263.088 94.3377 262.959 94.2661 262.846 94.215C262.006 93.8362 261.157 93.4802 260.298 93.1475C259.862 92.9787 259.424 92.8158 258.984 92.6591C258.736 92.5708 258.263 92.3 257.99 92.4111C257.652 92.5491 257.491 93.3027 257.399 93.6157Z" fill="white"/>
<path d="M67.16 12.0605C67.173 12.0608 67.1832 12.0719 67.1834 12.085V13.1426C67.1834 13.45 67.3454 13.66 67.5193 13.6709C67.4435 13.6738 67.3663 13.7163 67.3006 13.8047C67.2262 13.905 67.1835 14.0488 67.1834 14.2002V15.2578C67.1834 15.5652 67.3454 15.7763 67.5193 15.7871C67.4435 15.7901 67.3663 15.8316 67.3006 15.9199C67.2262 16.0202 67.1835 16.1641 67.1834 16.3154V17.373C67.1834 17.6805 67.3454 17.8915 67.5193 17.9023C67.4435 17.9053 67.3663 17.9469 67.3006 18.0352C67.2263 18.1355 67.1836 18.2794 67.1834 18.4307V19.4883C67.1834 19.7957 67.3454 20.0067 67.5193 20.0176C67.4435 20.0205 67.3663 20.0622 67.3006 20.1504C67.2262 20.2508 67.1835 20.3955 67.1834 20.5469V21.6045C67.1836 21.9117 67.3455 22.122 67.5193 22.1328C67.4436 22.1358 67.3663 22.1774 67.3006 22.2656C67.2262 22.366 67.1835 22.5107 67.1834 22.6621V23.7197C67.1835 24.027 67.3455 24.2372 67.5193 24.248C67.4435 24.251 67.3663 24.2934 67.3006 24.3818C67.2263 24.4822 67.1835 24.626 67.1834 24.7773V25.835C67.1835 26.1423 67.3455 26.3524 67.5193 26.3633C67.4435 26.3662 67.3663 26.4086 67.3006 26.4971C67.2263 26.5974 67.1835 26.7412 67.1834 26.8926V27.9502C67.1834 28.2576 67.3454 28.4677 67.5193 28.4785C67.4435 28.4815 67.3663 28.5239 67.3006 28.6123C67.2262 28.7127 67.1835 28.8564 67.1834 29.0078V30.0654C67.1834 30.3728 67.3454 30.5829 67.5193 30.5938C67.4435 30.5967 67.3663 30.6392 67.3006 30.7275C67.2262 30.8279 67.1835 30.9717 67.1834 31.123V32.1807C67.1834 32.4881 67.3454 32.6991 67.5193 32.71C67.4435 32.7129 67.3663 32.7544 67.3006 32.8428C67.2262 32.9431 67.1835 33.087 67.1834 33.2383V34.2959C67.1834 34.6034 67.3454 34.8144 67.5193 34.8252C67.4435 34.8281 67.3663 34.8697 67.3006 34.958C67.2263 35.0583 67.1836 35.2023 67.1834 35.3535V36.4111C67.1834 36.7186 67.3454 36.9296 67.5193 36.9404C67.4435 36.9434 67.3663 36.985 67.3006 37.0732C67.2262 37.1736 67.1835 37.3183 67.1834 37.4697V38.5273C67.1835 38.8346 67.3455 39.0448 67.5193 39.0557C67.4436 39.0586 67.3663 39.1003 67.3006 39.1885C67.2262 39.2889 67.1835 39.4336 67.1834 39.585C67.1834 39.7806 67.0245 39.9392 66.8289 39.9395H62.2117C60.5483 39.9393 59.2002 38.5912 59.2 36.9277V33.001C59.2 32.0331 59.7095 31.1493 60.2742 30.3633C60.4639 30.0993 60.6368 29.8103 60.7899 29.501C61.2829 28.5044 61.5721 27.2968 61.5721 26C61.572 24.7032 61.283 23.4955 60.7899 22.499C60.6368 22.1899 60.4639 21.9015 60.2742 21.6377C59.7093 20.8519 59.2 19.9688 59.2 19.001V15.0732C59.2001 13.4097 60.5482 12.0607 62.2117 12.0605H67.16ZM125.211 12.0605C126.874 12.0607 128.223 13.4097 128.223 15.0732V19.084C128.223 20.0049 127.76 20.8546 127.253 21.623C127.076 21.8908 126.915 22.1841 126.773 22.499C126.324 23.4954 126.06 24.7033 126.06 26C126.06 27.2968 126.324 28.5045 126.773 29.501C126.916 29.8164 127.077 30.1106 127.254 30.3789C127.761 31.1473 128.223 31.9963 128.223 32.917V36.9277C128.223 38.5912 126.874 39.9393 125.211 39.9395H68.3377C68.1419 39.9395 67.9832 39.7807 67.9832 39.585C67.9831 39.4338 67.9444 39.2898 67.8768 39.1895C67.8169 39.101 67.7458 39.0587 67.6766 39.0557C67.835 39.0446 67.9831 38.8344 67.9832 38.5273V37.4697C67.9831 37.3184 67.9446 37.1736 67.8768 37.0732C67.8169 36.9848 67.7457 36.9435 67.6766 36.9404C67.835 36.9293 67.9831 36.7191 67.9832 36.4121V35.3545C67.9831 35.2031 67.9446 35.0583 67.8768 34.958C67.8169 34.8695 67.7458 34.8282 67.6766 34.8252C67.8351 34.8141 67.9832 34.6032 67.9832 34.2959V33.2383C67.9831 33.0871 67.9445 32.943 67.8768 32.8428C67.8169 32.7542 67.7458 32.713 67.6766 32.71C67.8351 32.6989 67.9832 32.4879 67.9832 32.1807V31.123C67.9831 30.9719 67.9445 30.8278 67.8768 30.7275C67.8169 30.639 67.7458 30.5978 67.6766 30.5947C67.8351 30.5836 67.9832 30.3727 67.9832 30.0654V29.0078C67.9831 28.8566 67.9445 28.7126 67.8768 28.6123C67.8169 28.5238 67.7458 28.4816 67.6766 28.4785C67.8351 28.4674 67.9832 28.2574 67.9832 27.9502V26.8926C67.9831 26.7414 67.9445 26.5974 67.8768 26.4971C67.8169 26.4085 67.7458 26.3663 67.6766 26.3633C67.8351 26.3522 67.9832 26.1422 67.9832 25.835V24.7773C67.9831 24.6262 67.9445 24.4821 67.8768 24.3818C67.8169 24.2933 67.7458 24.2511 67.6766 24.248C67.835 24.237 67.9832 24.0269 67.9832 23.7197V22.6621C67.9831 22.511 67.9444 22.3669 67.8768 22.2666C67.8169 22.1781 67.7458 22.1359 67.6766 22.1328C67.835 22.1217 67.9831 21.9116 67.9832 21.6045V20.5469C67.9831 20.3955 67.9446 20.2507 67.8768 20.1504C67.8169 20.062 67.7457 20.0206 67.6766 20.0176C67.835 20.0065 67.9831 19.7963 67.9832 19.4893V18.4316C67.9831 18.2803 67.9446 18.1355 67.8768 18.0352C67.8169 17.9467 67.7458 17.9054 67.6766 17.9023C67.8351 17.8913 67.9832 17.6803 67.9832 17.373V16.3154C67.9831 16.1642 67.9445 16.0201 67.8768 15.9199C67.8169 15.8314 67.7458 15.7902 67.6766 15.7871C67.8351 15.776 67.9832 15.565 67.9832 15.2578V14.2002C67.9831 14.049 67.9445 13.9049 67.8768 13.8047C67.8169 13.7162 67.7458 13.6749 67.6766 13.6719C67.8351 13.6608 67.9832 13.4498 67.9832 13.1426V12.085C67.9834 12.0718 67.9934 12.0605 68.0067 12.0605H125.211ZM117.657 22.5C116.906 22.5001 116.23 22.6303 115.629 22.8916C115.034 23.1529 114.528 23.5093 114.11 23.96C113.699 24.4042 113.381 24.9305 113.159 25.5381C112.937 26.1391 112.826 26.7829 112.826 27.4688C112.826 28.3505 112.953 29.128 113.208 29.8008C113.463 30.4671 113.812 31.029 114.257 31.4863C114.701 31.9371 115.224 32.2804 115.825 32.5156C116.426 32.7442 117.076 32.8584 117.775 32.8584C118.128 32.8584 118.491 32.8325 118.863 32.7803C119.242 32.728 119.611 32.6397 119.971 32.5156C120.336 32.385 120.686 32.2149 121.019 32.0059C121.352 31.7903 121.653 31.5254 121.921 31.2119L121.224 30.3301C121.126 30.18 120.977 30.1046 120.774 30.1045C120.624 30.1045 120.467 30.1507 120.304 30.2422C120.147 30.3336 119.96 30.4349 119.745 30.5459C119.536 30.6569 119.287 30.7582 119 30.8496C118.719 30.941 118.383 30.9863 117.991 30.9863C117.599 30.9863 117.239 30.9281 116.913 30.8105C116.593 30.6865 116.315 30.5033 116.08 30.2617C115.845 30.0135 115.655 29.7025 115.512 29.3301C115.368 28.9513 115.276 28.5041 115.237 27.9883H121.46C121.682 27.9883 121.833 27.9259 121.911 27.8018C121.989 27.6711 122.028 27.4225 122.028 27.0566C122.028 26.3315 121.917 25.6878 121.695 25.126C121.48 24.5577 121.179 24.0807 120.794 23.6953C120.408 23.3034 119.948 23.0062 119.412 22.8037C118.876 22.6012 118.291 22.5 117.657 22.5ZM73.0643 18.541V32.7119H75.7V27.7236H77.6697C78.5909 27.7236 79.3949 27.6086 80.0809 27.3799C80.7733 27.1512 81.3482 26.8314 81.8055 26.4199C82.2627 26.0084 82.6061 25.5185 82.8348 24.9502C83.0634 24.3753 83.1775 23.7445 83.1776 23.0586C83.1776 22.3987 83.0667 21.7907 82.8445 21.2354C82.6289 20.6801 82.2953 20.2032 81.8445 19.8047C81.3938 19.4063 80.8221 19.0961 80.1297 18.874C79.4372 18.6519 78.617 18.541 77.6697 18.541H73.0643ZM89.5936 22.4707C89.0056 22.4707 88.4955 22.644 88.0643 22.9902C87.6332 23.3299 87.2606 23.8005 86.9471 24.4014L86.8006 23.2646C86.7679 23.036 86.7023 22.8789 86.6043 22.7939C86.5063 22.7025 86.333 22.6562 86.0848 22.6562H84.6639V32.7119H87.0848V26.5176C87.1958 26.2499 87.3133 26.0117 87.4373 25.8027C87.568 25.5937 87.7154 25.4172 87.8787 25.2734C88.0486 25.1232 88.2381 25.009 88.4471 24.9307C88.6561 24.8523 88.8942 24.8125 89.1619 24.8125C89.3448 24.8125 89.5311 24.8287 89.7205 24.8613C89.9165 24.894 90.0639 24.9102 90.1619 24.9102C90.2664 24.9101 90.3483 24.8875 90.407 24.8418C90.4722 24.7895 90.5209 24.7043 90.5535 24.5869L90.7108 22.7744C90.4299 22.5719 90.0573 22.4707 89.5936 22.4707ZM92.0545 22.6562V32.7119H94.4842V22.6562H92.0545ZM107.605 22.5C107.285 22.5 106.964 22.5356 106.644 22.6074C106.331 22.6793 106.034 22.7902 105.753 22.9404C105.472 23.0907 105.214 23.2876 104.978 23.5293C104.743 23.7644 104.547 24.0488 104.39 24.3818C104.188 23.8136 103.881 23.3592 103.47 23.0195C103.064 22.6733 102.545 22.5 101.911 22.5C101.61 22.5 101.333 22.5356 101.078 22.6074C100.83 22.6727 100.595 22.7643 100.373 22.8818C100.157 22.9994 99.9507 23.1404 99.7547 23.3037C99.5654 23.467 99.3822 23.6469 99.2059 23.8428L99.0496 23.0977C98.9517 22.8038 98.7458 22.6564 98.4324 22.6562H96.952V32.7119H99.3729V25.3516C99.6341 25.0511 99.9152 24.8163 100.216 24.6465C100.523 24.4701 100.853 24.3818 101.206 24.3818C101.728 24.3819 102.124 24.5348 102.391 24.8418C102.666 25.1489 102.803 25.6396 102.803 26.3125V32.7119H105.233V26.3125C105.233 25.999 105.28 25.7212 105.371 25.4795C105.462 25.2378 105.586 25.0377 105.743 24.8809C105.906 24.7177 106.093 24.5937 106.302 24.5088C106.517 24.4239 106.749 24.3819 106.997 24.3818C107.539 24.3818 107.951 24.5445 108.232 24.8711C108.513 25.1912 108.653 25.6722 108.653 26.3125V32.7119H111.074V26.3125C111.074 25.705 110.995 25.1657 110.839 24.6953C110.688 24.2249 110.467 23.8257 110.173 23.499C109.879 23.1725 109.516 22.9247 109.085 22.7549C108.654 22.5851 108.16 22.5 107.605 22.5ZM117.707 24.2344C118.066 24.2344 118.379 24.2968 118.647 24.4209C118.921 24.5384 119.147 24.7013 119.323 24.9102C119.499 25.1192 119.631 25.3646 119.716 25.6455C119.807 25.9198 119.852 26.2138 119.852 26.5273H115.286C115.397 25.7957 115.652 25.2305 116.051 24.832C116.456 24.4337 117.008 24.2344 117.707 24.2344ZM77.6697 20.5791C78.1597 20.5791 78.5848 20.6383 78.9442 20.7559C79.3033 20.8669 79.6006 21.0297 79.8358 21.2451C80.0709 21.4607 80.2475 21.7223 80.3651 22.0293C80.4827 22.3364 80.5418 22.6797 80.5418 23.0586C80.5418 23.4571 80.4826 23.8199 80.3651 24.1465C80.2474 24.4665 80.0677 24.7411 79.826 24.9697C79.5908 25.1918 79.2936 25.3652 78.9344 25.4893C78.5751 25.6068 78.1532 25.665 77.6697 25.665H75.7V20.5791H77.6697ZM93.2498 18.1777C93.0408 18.1777 92.8416 18.2208 92.6522 18.3057C92.4692 18.3841 92.3089 18.4917 92.1717 18.6289C92.0345 18.7661 91.9236 18.9297 91.8387 19.1191C91.7603 19.3086 91.7205 19.511 91.7205 19.7266C91.7205 19.9356 91.7603 20.1316 91.8387 20.3145C91.9236 20.4973 92.0345 20.6577 92.1717 20.7949C92.3089 20.932 92.4693 21.043 92.6522 21.1279C92.8415 21.2063 93.0409 21.2451 93.2498 21.2451C93.4653 21.2451 93.6678 21.2063 93.8572 21.1279C94.0467 21.043 94.2103 20.9321 94.3475 20.7949C94.4912 20.6577 94.6053 20.4974 94.6902 20.3145C94.7752 20.1316 94.8172 19.9356 94.8172 19.7266C94.8172 19.5111 94.7751 19.3085 94.6902 19.1191C94.6053 18.9297 94.4911 18.7661 94.3475 18.6289C94.2103 18.4917 94.0467 18.3841 93.8572 18.3057C93.6678 18.2207 93.4654 18.1778 93.2498 18.1777Z" fill="url(#paint1_linear_9445_1959)"/>

<g style="mix-blend-mode:screen" opacity="0.98">
<mask id="mask0_9445_1959" style="mask-type:luminance" maskUnits="userSpaceOnUse" x="138" y="107" width="22" height="22">
<path d="M145.469 127.406C140.078 125.178 137.524 119.028 139.736 113.676C141.943 108.334 148.089 105.787 153.48 108.015C158.854 110.236 161.409 116.377 159.203 121.716C156.991 127.069 150.844 129.624 145.47 127.403L145.469 127.406Z" fill="url(#paint2_radial_9445_1959)"/>
</mask>
<g mask="url(#mask0_9445_1959)">
<path style="mix-blend-mode:overlay" opacity="0.25" d="M145.469 127.406C140.078 125.178 137.524 119.028 139.736 113.676C141.943 108.334 148.089 105.787 153.48 108.015C158.854 110.236 161.409 116.377 159.203 121.716C156.991 127.069 150.844 129.624 145.47 127.403L145.469 127.406Z" fill="url(#paint3_radial_9445_1959)"/>
</g>
<mask id="mask1_9445_1959" style="mask-type:luminance" maskUnits="userSpaceOnUse" x="190" y="110" width="23" height="22">
<path d="M197.487 130.822C192.096 128.594 189.541 122.444 191.753 117.091C193.96 111.752 200.106 109.206 205.497 111.431C210.872 113.652 213.43 119.794 211.223 125.133C209.011 130.485 202.862 133.04 197.487 130.822Z" fill="url(#paint4_radial_9445_1959)"/>
</mask>
<g mask="url(#mask1_9445_1959)">
<path style="mix-blend-mode:overlay" opacity="0.25" d="M197.487 130.822C192.096 128.594 189.541 122.444 191.753 117.091C193.96 111.752 200.106 109.206 205.497 111.431C210.872 113.652 213.43 119.794 211.223 125.133C209.011 130.485 202.862 133.04 197.487 130.822Z" fill="url(#paint5_radial_9445_1959)"/>
</g>
<path style="mix-blend-mode:screen" d="M178.135 117.734C177.271 119.826 174.868 120.82 172.765 119.952C170.662 119.084 169.66 116.684 170.524 114.592C171.387 112.5 173.793 111.506 175.893 112.374C177.996 113.242 178.998 115.642 178.132 117.733L178.135 117.734Z" fill="url(#paint6_radial_9445_1959)"/>
<path style="mix-blend-mode:screen" d="M141.361 113.614C140.497 115.706 138.091 116.699 135.991 115.832C133.891 114.965 132.886 112.564 133.751 110.469C134.614 108.377 137.02 107.384 139.12 108.251C141.223 109.119 142.225 111.519 141.361 113.614Z" fill="url(#paint7_radial_9445_1959)"/>
<path style="mix-blend-mode:soft-light" opacity="0.5" d="M122.439 112.823C121.545 114.985 122.582 117.463 124.75 118.358C126.92 119.255 129.403 118.23 130.296 116.067C131.188 113.908 130.153 111.427 127.982 110.531C125.814 109.635 123.329 110.659 122.436 112.821L122.439 112.823Z" fill="url(#paint8_radial_9445_1959)"/>
<path style="mix-blend-mode:soft-light" opacity="0.2" d="M146.818 101.395C145.5 104.583 147.028 108.239 150.229 109.562C153.43 110.886 157.094 109.371 158.408 106.185C159.726 102.998 158.198 99.3412 154.997 98.0177C151.796 96.6943 148.135 98.2103 146.818 101.395Z" fill="url(#paint9_radial_9445_1959)"/>
<path fill-rule="evenodd" clip-rule="evenodd" d="M141.12 129.219L144.519 120.803L136.495 117.233L144.644 120.511L148.32 112.213L144.922 120.63L152.953 124.199L144.801 120.92L141.12 129.219Z" fill="url(#paint10_radial_9445_1959)"/>
<path fill-rule="evenodd" clip-rule="evenodd" d="M159.528 116.922L164.043 105.739L153.378 100.998L164.207 105.355L169.092 94.3303L164.577 105.513L175.246 110.253L164.414 105.894L159.528 116.922Z" fill="url(#paint11_radial_9445_1959)"/>
<path fill-rule="evenodd" clip-rule="evenodd" d="M166.852 112.605L164.129 105.733L157.248 108.437L164.041 105.493L161.555 98.5228L164.275 105.397L171.151 102.687L164.361 105.633L166.852 112.605Z" fill="url(#paint12_radial_9445_1959)"/>
<mask id="mask2_9445_1959" style="mask-type:luminance" maskUnits="userSpaceOnUse" x="159" y="99" width="11" height="12">
<path style="mix-blend-mode:multiply" fill-rule="evenodd" clip-rule="evenodd" d="M159.53 103.162C160.7 100.412 163.797 99.0963 166.457 100.222C169.12 101.35 170.328 104.491 169.166 107.238C168.008 109.989 164.905 111.303 162.24 110.181C159.58 109.055 158.364 105.916 159.526 103.163L159.53 103.162Z" fill="url(#paint13_radial_9445_1959)"/>
</mask>
<g mask="url(#mask2_9445_1959)">
<mask id="mask3_9445_1959" style="mask-type:luminance" maskUnits="userSpaceOnUse" x="159" y="99" width="11" height="12">
<path style="mix-blend-mode:multiply" fill-rule="evenodd" clip-rule="evenodd" d="M159.53 103.162C160.7 100.412 163.797 99.0963 166.457 100.222C169.12 101.35 170.328 104.491 169.166 107.238C168.008 109.989 164.905 111.303 162.24 110.181C159.58 109.055 158.364 105.916 159.526 103.163L159.53 103.162Z" fill="url(#paint14_radial_9445_1959)"/>
</mask>
<g mask="url(#mask3_9445_1959)">
<path fill-rule="evenodd" clip-rule="evenodd" d="M159.53 103.162C160.7 100.412 163.797 99.0963 166.457 100.222C169.12 101.35 170.328 104.491 169.166 107.238C168.008 109.989 164.905 111.303 162.24 110.181C159.58 109.055 158.364 105.916 159.526 103.163L159.53 103.162Z" fill="url(#paint15_radial_9445_1959)"/>
</g>
</g>
<mask id="mask4_9445_1959" style="mask-type:luminance" maskUnits="userSpaceOnUse" x="139" y="83" width="22" height="22">
<path d="M146.105 103.477C140.714 101.249 138.16 95.0995 140.372 89.7468C142.578 84.4076 148.725 81.8585 154.116 84.0864C159.49 86.3075 162.046 92.4477 159.839 97.7869C157.627 103.14 151.481 105.695 146.106 103.474L146.105 103.477Z" fill="url(#paint16_radial_9445_1959)"/>
</mask>
<g mask="url(#mask4_9445_1959)">
<path style="mix-blend-mode:overlay" opacity="0.25" d="M146.105 103.477C140.714 101.249 138.16 95.0995 140.372 89.7468C142.578 84.4076 148.725 81.8585 154.116 84.0864C159.49 86.3075 162.046 92.4477 159.839 97.7869C157.627 103.14 151.481 105.695 146.106 103.474L146.105 103.477Z" fill="url(#paint17_radial_9445_1959)"/>
</g>
<path style="mix-blend-mode:screen" d="M195.313 109.34C194.45 111.432 192.046 112.426 189.944 111.558C187.841 110.69 186.839 108.29 187.706 106.196C188.57 104.104 190.973 103.11 193.076 103.978C195.179 104.846 196.178 107.245 195.313 109.34Z" fill="url(#paint18_radial_9445_1959)"/>
<path style="mix-blend-mode:screen" d="M178.771 93.805C177.906 95.8997 175.501 96.8904 173.401 96.0233C171.298 95.1551 170.296 92.755 171.161 90.6603C172.025 88.5683 174.431 87.5749 176.531 88.442C178.634 89.3102 179.636 91.7103 178.769 93.8012L178.771 93.805Z" fill="url(#paint19_radial_9445_1959)"/>
<path style="mix-blend-mode:screen" d="M149.208 103.581C148.345 105.673 145.939 106.667 143.838 105.8C141.738 104.932 140.733 102.531 141.601 100.438C142.465 98.3457 144.871 97.3523 146.971 98.2193C149.074 99.0876 150.076 101.488 149.212 103.58L149.208 103.581Z" fill="url(#paint20_radial_9445_1959)"/>
<path style="mix-blend-mode:screen" d="M166.043 96.5074C165.178 98.6021 162.774 99.5928 160.673 98.7257C158.571 97.8575 157.568 95.4574 158.433 93.3627C159.297 91.2707 161.703 90.2773 163.803 91.1444C165.903 92.0115 166.905 94.4115 166.042 96.5036L166.043 96.5074Z" fill="url(#paint21_radial_9445_1959)"/>
<path style="mix-blend-mode:soft-light" opacity="0.3" d="M156.065 115.981C154.912 118.773 156.25 121.978 159.055 123.136C161.861 124.294 165.068 122.967 166.223 120.176C167.376 117.384 166.038 114.18 163.236 113.022C160.433 111.865 157.22 113.19 156.068 115.982L156.065 115.981Z" fill="url(#paint22_radial_9445_1959)"/>
<path style="mix-blend-mode:soft-light" opacity="0.2" d="M147.454 77.4661C146.136 80.6537 147.664 84.31 150.862 85.6323C154.064 86.9558 157.727 85.4409 159.042 82.2522C160.36 79.0647 158.833 75.4083 155.63 74.0876C152.432 72.7653 148.768 74.2801 147.452 77.465L147.454 77.4661Z" fill="url(#paint23_radial_9445_1959)"/>
<path fill-rule="evenodd" clip-rule="evenodd" d="M182.89 105.191L186.677 95.8135L177.734 91.8388L186.811 95.4912L190.909 86.2462L187.126 95.6223L196.066 99.5959L186.987 95.9463L182.89 105.191Z" fill="url(#paint24_radial_9445_1959)"/>
<path fill-rule="evenodd" clip-rule="evenodd" d="M189.029 101.57L186.746 95.8075L180.98 98.0766L186.674 95.6058L184.589 89.7637L186.869 95.528L192.634 93.2551L186.943 95.7243L189.029 101.57Z" fill="url(#paint25_radial_9445_1959)"/>
<mask id="mask5_9445_1959" style="mask-type:luminance" maskUnits="userSpaceOnUse" x="182" y="90" width="10" height="10">
<path style="mix-blend-mode:multiply" fill-rule="evenodd" clip-rule="evenodd" d="M182.892 93.655C183.87 91.3499 186.469 90.246 188.7 91.187C190.936 92.1329 191.949 94.7665 190.972 97.0689C189.999 99.3762 187.401 100.48 185.167 99.538C182.937 98.5916 181.917 95.9612 182.892 93.655Z" fill="url(#paint26_radial_9445_1959)"/>
</mask>
<g mask="url(#mask5_9445_1959)">
<mask id="mask6_9445_1959" style="mask-type:luminance" maskUnits="userSpaceOnUse" x="182" y="90" width="10" height="10">
<path style="mix-blend-mode:multiply" fill-rule="evenodd" clip-rule="evenodd" d="M182.892 93.655C183.87 91.3499 186.469 90.246 188.7 91.187C190.936 92.1329 191.949 94.7665 190.972 97.0689C189.999 99.3762 187.401 100.48 185.167 99.538C182.937 98.5916 181.917 95.9612 182.892 93.655Z" fill="url(#paint27_radial_9445_1959)"/>
</mask>
<g mask="url(#mask6_9445_1959)">
<path fill-rule="evenodd" clip-rule="evenodd" d="M182.892 93.655C183.87 91.3499 186.469 90.246 188.7 91.187C190.936 92.1329 191.949 94.7665 190.972 97.0689C189.999 99.3762 187.401 100.48 185.167 99.538C182.937 98.5916 181.917 95.9612 182.892 93.655Z" fill="url(#paint28_radial_9445_1959)"/>
</g>
</g>
<path fill-rule="evenodd" clip-rule="evenodd" d="M122.668 107.713L127.295 96.2558L116.368 91.4021L127.462 95.8641L132.465 84.5703L127.842 96.0263L138.768 100.883L127.673 96.4168L122.668 107.713Z" fill="url(#paint29_radial_9445_1959)"/>
<path fill-rule="evenodd" clip-rule="evenodd" d="M130.169 103.293L127.383 96.251L120.335 99.0222L127.291 96.006L124.746 88.865L127.53 95.9054L134.576 93.1304L127.619 96.1493L130.169 103.293Z" fill="url(#paint30_radial_9445_1959)"/>
<mask id="mask7_9445_1959" style="mask-type:luminance" maskUnits="userSpaceOnUse" x="122" y="90" width="11" height="12">
<path style="mix-blend-mode:multiply" fill-rule="evenodd" clip-rule="evenodd" d="M122.671 93.6161C123.869 90.7986 127.043 89.4514 129.769 90.602C132.497 91.7565 133.737 94.9745 132.546 97.7889C131.356 100.61 128.18 101.953 125.45 100.804C122.726 99.6481 121.479 96.4332 122.672 93.6134L122.671 93.6161Z" fill="url(#paint31_radial_9445_1959)"/>
</mask>
<g mask="url(#mask7_9445_1959)">
<mask id="mask8_9445_1959" style="mask-type:luminance" maskUnits="userSpaceOnUse" x="122" y="90" width="11" height="12">
<path style="mix-blend-mode:multiply" fill-rule="evenodd" clip-rule="evenodd" d="M122.671 93.6161C123.869 90.7986 127.043 89.4514 129.769 90.602C132.497 91.7565 133.737 94.9745 132.546 97.7889C131.356 100.61 128.18 101.953 125.45 100.804C122.726 99.6481 121.479 96.4332 122.672 93.6134L122.671 93.6161Z" fill="url(#paint32_radial_9445_1959)"/>
</mask>
<g mask="url(#mask8_9445_1959)">
<path fill-rule="evenodd" clip-rule="evenodd" d="M122.671 93.6161C123.869 90.7986 127.043 89.4514 129.769 90.602C132.497 91.7565 133.737 94.9745 132.546 97.7889C131.356 100.61 128.18 101.953 125.45 100.804C122.726 99.6481 121.479 96.4332 122.672 93.6134L122.671 93.6161Z" fill="url(#paint33_radial_9445_1959)"/>
</g>
</g>
<path fill-rule="evenodd" clip-rule="evenodd" d="M180.354 140.79L186.161 126.412L172.445 120.315L186.368 125.916L192.65 111.743L186.844 126.118L200.557 132.214L186.631 126.612L180.354 140.79Z" fill="url(#paint34_radial_9445_1959)"/>
</g>
<g style="mix-blend-mode:screen" opacity="0.98">
<mask id="mask9_9445_1959" style="mask-type:luminance" maskUnits="userSpaceOnUse" x="174" y="15" width="4" height="5">
<path d="M175.24 19.0099C174.361 18.6463 173.948 17.6469 174.308 16.7762C174.668 15.9055 175.668 15.4925 176.544 15.8549C177.42 16.2174 177.837 17.2153 177.477 18.0859C177.116 18.9566 176.116 19.3724 175.241 19.0138L175.24 19.0099Z" fill="url(#paint35_radial_9445_1959)"/>
</mask>
<g mask="url(#mask9_9445_1959)">
<path style="mix-blend-mode:overlay" opacity="0.2" d="M175.24 19.0099C174.361 18.6463 173.948 17.6469 174.308 16.7762C174.668 15.9055 175.668 15.4925 176.544 15.8549C177.42 16.2174 177.837 17.2153 177.477 18.0859C177.116 18.9566 176.116 19.3724 175.241 19.0138L175.24 19.0099Z" fill="url(#paint36_radial_9445_1959)"/>
</g>
<mask id="mask10_9445_1959" style="mask-type:luminance" maskUnits="userSpaceOnUse" x="134" y="-18" width="22" height="22">
<path d="M141.327 2.8919C135.937 0.664018 133.382 -5.48546 135.594 -10.8382C137.802 -16.1801 143.948 -18.7264 149.338 -16.4986C154.713 -14.2775 157.268 -8.13724 155.062 -2.79806C152.85 2.55467 146.703 5.1103 141.329 2.8892L141.327 2.8919Z" fill="url(#paint37_radial_9445_1959)"/>
</mask>
<g mask="url(#mask10_9445_1959)">
<path style="mix-blend-mode:overlay" opacity="0.25" d="M141.327 2.8919C135.937 0.664018 133.382 -5.48546 135.594 -10.8382C137.802 -16.1801 143.948 -18.7264 149.338 -16.4986C154.713 -14.2775 157.268 -8.13724 155.062 -2.79806C152.85 2.55467 146.703 5.1103 141.329 2.8892L141.327 2.8919Z" fill="url(#paint38_radial_9445_1959)"/>
</g>
<mask id="mask11_9445_1959" style="mask-type:luminance" maskUnits="userSpaceOnUse" x="186" y="-14" width="22" height="22">
<path d="M193.345 6.30769C187.954 4.07981 185.4 -2.06969 187.612 -7.42242C189.818 -12.7616 195.964 -15.308 201.356 -13.0828C206.73 -10.8617 209.288 -4.72034 207.082 0.618846C204.87 5.97158 198.721 8.52607 193.345 6.30769Z" fill="url(#paint39_radial_9445_1959)"/>
</mask>
<g mask="url(#mask11_9445_1959)">
<path style="mix-blend-mode:overlay" opacity="0.25" d="M193.345 6.30769C187.954 4.07981 185.4 -2.06969 187.612 -7.42242C189.818 -12.7616 195.964 -15.308 201.356 -13.0828C206.73 -10.8617 209.288 -4.72034 207.082 0.618846C204.87 5.97158 198.721 8.52607 193.345 6.30769Z" fill="url(#paint40_radial_9445_1959)"/>
</g>
<path style="mix-blend-mode:screen" d="M190.535 8.7576C189.671 10.8496 187.265 11.843 185.165 10.9759C183.062 10.1077 182.06 7.70765 182.927 5.61406C183.791 3.52205 186.194 2.52754 188.297 3.39574C190.397 4.26282 191.4 6.66289 190.535 8.7576Z" fill="url(#paint41_radial_9445_1959)"/>
<path style="mix-blend-mode:screen" d="M183.869 20.2832C183.005 22.3752 180.599 23.3686 178.499 22.5015C176.396 21.6333 175.394 19.2333 176.262 17.1397C177.125 15.0477 179.529 14.0532 181.632 14.9214C183.734 15.7896 184.737 18.1896 183.872 20.2844L183.869 20.2832Z" fill="url(#paint42_radial_9445_1959)"/>
<path style="mix-blend-mode:screen" d="M147.293 4.16973C146.429 6.26174 144.023 7.25512 141.923 6.38805C139.823 5.52097 138.818 3.11979 139.683 1.02507C140.546 -1.06693 142.952 -2.06033 145.052 -1.19325C147.155 -0.325047 148.157 2.07501 147.293 4.16973Z" fill="url(#paint43_radial_9445_1959)"/>
<path fill-rule="evenodd" clip-rule="evenodd" d="M136.979 4.70552L140.378 -3.71136L132.353 -7.28042L140.502 -4.00279L144.179 -12.3005L140.78 -3.88362L148.811 -0.314996L140.659 -3.59376L136.979 4.70552Z" fill="url(#paint44_radial_9445_1959)"/>
<path fill-rule="evenodd" clip-rule="evenodd" d="M142.493 1.4563L140.443 -3.71576L135.266 -1.67774L140.376 -3.89667L138.507 -9.14291L140.552 -3.96927L145.73 -6.01001L140.618 -3.79221L142.493 1.4563Z" fill="url(#paint45_radial_9445_1959)"/>
<mask id="mask12_9445_1959" style="mask-type:luminance" maskUnits="userSpaceOnUse" x="136" y="-9" width="9" height="9">
<path style="mix-blend-mode:multiply" fill-rule="evenodd" clip-rule="evenodd" d="M136.982 -5.65035C137.861 -7.71977 140.194 -8.71207 142.195 -7.86718C144.201 -7.01733 145.112 -4.65188 144.236 -2.58404C143.362 -0.512362 141.028 0.476098 139.024 -0.369915C137.021 -1.21864 136.109 -3.58138 136.983 -5.65306L136.982 -5.65035Z" fill="url(#paint46_radial_9445_1959)"/>
</mask>
<g mask="url(#mask12_9445_1959)">
</g>
<g style="mix-blend-mode:screen">
<path fill-rule="evenodd" clip-rule="evenodd" d="M177.028 36.7712L181.461 25.7928L170.989 21.1383L181.619 25.4135L186.417 14.5904L181.987 25.57L192.459 30.2245L181.826 25.9481L177.028 36.7712Z" fill="url(#paint47_radial_9445_1959)"/>
<path fill-rule="evenodd" clip-rule="evenodd" d="M184.214 32.5338L181.544 25.7857L174.792 28.4419L181.455 25.5483L179.018 18.7066L181.688 25.4547L188.441 22.7958L181.772 25.6871L184.214 32.5338Z" fill="url(#paint48_radial_9445_1959)"/>
<mask id="mask13_9445_1959" style="mask-type:luminance" maskUnits="userSpaceOnUse" x="176" y="19" width="11" height="12">
<path style="mix-blend-mode:multiply" fill-rule="evenodd" clip-rule="evenodd" d="M177.03 23.2622C178.176 20.5627 181.219 19.2692 183.831 20.3751C186.445 21.4821 187.632 24.5669 186.49 27.2648C185.349 29.9665 182.307 31.2573 179.692 30.1531C177.081 29.0472 175.887 25.9628 177.03 23.2622Z" fill="url(#paint49_radial_9445_1959)"/>
</mask>
<g mask="url(#mask13_9445_1959)">
<mask id="mask14_9445_1959" style="mask-type:luminance" maskUnits="userSpaceOnUse" x="176" y="19" width="11" height="12">
<path style="mix-blend-mode:multiply" fill-rule="evenodd" clip-rule="evenodd" d="M177.03 23.2622C178.176 20.5627 181.219 19.2692 183.831 20.3751C186.445 21.4821 187.632 24.5669 186.49 27.2648C185.349 29.9665 182.307 31.2573 179.692 30.1531C177.081 29.0472 175.887 25.9628 177.03 23.2622Z" fill="url(#paint50_radial_9445_1959)"/>
</mask>
<g mask="url(#mask14_9445_1959)">
<path fill-rule="evenodd" clip-rule="evenodd" d="M177.03 23.2622C178.176 20.5627 181.219 19.2692 183.831 20.3751C186.445 21.4821 187.632 24.5669 186.49 27.2648C185.349 29.9665 182.307 31.2573 179.692 30.1531C177.081 29.0472 175.887 25.9628 177.03 23.2622Z" fill="url(#paint51_radial_9445_1959)"/>
</g>
</g>
</g>
<path style="mix-blend-mode:screen" d="M184.506 -3.64842C183.643 -1.55641 181.237 -0.56302 179.137 -1.43009C177.034 -2.2983 176.032 -4.69837 176.899 -6.79196C177.763 -8.88397 180.169 -9.87734 182.269 -9.01027C184.372 -8.14206 185.374 -5.74201 184.509 -3.64729L184.506 -3.64842Z" fill="url(#paint52_radial_9445_1959)"/>
<path style="mix-blend-mode:soft-light" opacity="0.3" d="M151.924 -8.53303C150.771 -5.74098 152.108 -2.53616 154.914 -1.3778C157.72 -0.219437 160.926 -1.54651 162.082 -4.33743C163.234 -7.12949 161.897 -10.3343 159.094 -11.4915C156.291 -12.6488 153.079 -11.324 151.926 -8.5319L151.924 -8.53303Z" fill="url(#paint53_radial_9445_1959)"/>
<path fill-rule="evenodd" clip-rule="evenodd" d="M176.212 16.2761L182.02 1.89826L168.304 -4.19921L182.226 1.40251L188.508 -12.7709L182.702 1.60424L196.415 7.70056L182.49 2.09772L176.212 16.2761Z" fill="url(#paint54_radial_9445_1959)"/>
<path fill-rule="evenodd" clip-rule="evenodd" d="M185.622 10.7246L182.122 1.88697L173.28 5.36898L182.009 1.57891L178.818 -7.38112L182.311 1.45693L191.155 -2.02777L182.423 1.76116L185.622 10.7246Z" fill="url(#paint55_radial_9445_1959)"/>
<mask id="mask15_9445_1959" style="mask-type:luminance" maskUnits="userSpaceOnUse" x="175" y="-6" width="15" height="15">
<path style="mix-blend-mode:multiply" fill-rule="evenodd" clip-rule="evenodd" d="M176.214 -1.416C177.715 -4.95299 181.7 -6.64245 185.121 -5.1985C188.547 -3.74959 190.101 0.29311 188.602 3.82198C187.115 7.36192 183.128 9.05025 179.697 7.60562C176.278 6.15626 174.718 2.12055 176.214 -1.416Z" fill="url(#paint56_radial_9445_1959)"/>
</mask>
<g mask="url(#mask15_9445_1959)">
<mask id="mask16_9445_1959" style="mask-type:luminance" maskUnits="userSpaceOnUse" x="175" y="-6" width="15" height="15">
<path style="mix-blend-mode:multiply" fill-rule="evenodd" clip-rule="evenodd" d="M176.214 -1.416C177.715 -4.95299 181.7 -6.64245 185.121 -5.1985C188.547 -3.74959 190.101 0.29311 188.602 3.82198C187.115 7.36192 183.128 9.05025 179.697 7.60562C176.278 6.15626 174.718 2.12055 176.214 -1.416Z" fill="url(#paint57_radial_9445_1959)"/>
</mask>
<g mask="url(#mask16_9445_1959)">
<path fill-rule="evenodd" clip-rule="evenodd" d="M176.214 -1.416C177.715 -4.95299 181.7 -6.64245 185.121 -5.1985C188.547 -3.74959 190.101 0.29311 188.602 3.82198C187.115 7.36192 183.128 9.05025 179.697 7.60562C176.278 6.15626 174.718 2.12055 176.214 -1.416Z" fill="url(#paint58_radial_9445_1959)"/>
</g>
</g>
</g>
</g>
<defs>
<linearGradient id="paint0_linear_9445_1959" x1="0" y1="56" x2="328" y2="56" gradientUnits="userSpaceOnUse">
<stop stop-color="#D12A28"/>
<stop offset="1" stop-color="#931C15"/>
</linearGradient>

<clipPath id="clip0_9445_1959">
<rect width="328" height="112" rx="12" fill="white"/>
</clipPath>
</defs>
</svg>
