<svg width="32" height="32" viewBox="0 0 32 32" fill="none" xmlns="http://www.w3.org/2000/svg">
<rect width="32" height="32" fill="white"/>
<path d="M29.9363 7.34901V23.5781C29.9363 23.9149 29.912 24.2456 29.8695 24.5702C29.1528 24.2272 28.3512 24.0313 27.507 24.0313C24.4887 24.0313 22.0412 26.4993 22.0412 29.543C22.0412 30.0207 22.102 30.4861 22.2113 30.9271H9.28772C5.26126 30.9271 2 27.6323 2 23.5781V7.34901C2 3.28868 5.26126 0 9.28772 0H22.6485C26.675 0 29.9363 3.28868 29.9363 7.34901Z" fill="#A3C9FF"/>
<rect x="5" y="11" width="4" height="4" rx="1" fill="#FCFCFC"/>
<rect x="11" y="11" width="4" height="4" rx="1" fill="#FCFCFC"/>
<rect x="23" y="11" width="4" height="4" rx="1" fill="#FCFCFC"/>
<rect x="17" y="11" width="4" height="4" rx="1" fill="#FCFCFC"/>
<rect x="5" y="18" width="4" height="4" rx="1" fill="#FCFCFC"/>
<rect x="11" y="18" width="4" height="4" rx="1" fill="#FCFCFC"/>
<rect x="23" y="18" width="4" height="4" rx="1" fill="#FCFCFC"/>
<rect x="17" y="18" width="4" height="4" rx="1" fill="#FCFCFC"/>
<circle cx="25" cy="26" r="6" fill="#175CD3"/>
<path fill-rule="evenodd" clip-rule="evenodd" d="M26.2324 26.2963L23.8753 28.6534L23.2861 28.0643L25.3486 26.0018L23.2861 23.9393L23.8753 23.3501L26.2324 25.7072C26.3105 25.7853 26.3544 25.8913 26.3544 26.0018C26.3544 26.1122 26.3105 26.2182 26.2324 26.2963Z" fill="white"/>
<path d="M29.125 7H2.875C2.392 7 2 6.7765 2 6.5C2 6.2235 2.392 6 2.875 6H29.125C29.608 6 30 6.2235 30 6.5C30 6.7765 29.608 7 29.125 7Z" fill="white"/>
<path d="M8.5 2.90625L8.5 0.09375C8.5 0.042 8.7235 -3.39419e-08 9 -2.18557e-08C9.2765 -9.7695e-09 9.5 0.042 9.5 0.09375L9.5 2.90625C9.5 2.958 9.2765 3 9 3C8.7235 3 8.5 2.958 8.5 2.90625Z" fill="white"/>
<path d="M21.5 2.90625L21.5 0.09375C21.5 0.042 21.7235 -3.39419e-08 22 -2.18557e-08C22.2765 -9.7695e-09 22.5 0.042 22.5 0.09375L22.5 2.90625C22.5 2.958 22.2765 3 22 3C21.7235 3 21.5 2.958 21.5 2.90625Z" fill="white"/>
</svg>
