<svg width="140" height="83" viewBox="0 0 140 83" fill="none" xmlns="http://www.w3.org/2000/svg">
<path d="M0 8C0 3.58172 3.58172 0 8 0H132C136.418 0 140 3.58172 140 8V83H0V8Z" fill="url(#paint0_linear_12278_32888)"/>
<path d="M78.9057 57.7121L78.8227 57.4796C82.3768 56.211 85.454 53.9359 87.7212 50.9005C90.0417 47.7938 91.3466 44.0951 91.4941 40.2051L91.7408 40.2145C91.5914 44.155 90.2699 47.9013 87.919 51.0484C85.6228 54.1227 82.5058 56.4271 78.9057 57.7121Z" fill="#A3C9FF"/>
<path d="M66.7815 68.4365C63.1513 67.7682 59.7259 66.4263 56.5998 64.4478C53.5361 62.5092 50.8918 60.0447 48.7393 57.1231L48.938 56.9766C51.0721 59.8735 53.6941 62.317 56.7319 64.2392C59.8313 66.2004 63.2274 67.5312 66.8264 68.1937L66.7815 68.4365Z" fill="#A3C9FF"/>
<path d="M94.8982 56.3912L94.7188 56.2216C98.9062 51.7861 99.7356 49.7048 100.513 43.6816L100.757 43.7133C99.9739 49.7883 99.1214 51.9178 94.8982 56.3912Z" fill="#A3C9FF"/>
<path d="M95.1648 22.9655C92.927 19.9307 90.1613 17.3995 86.9442 15.4428C83.6534 13.4413 80.0548 12.1438 76.248 11.5862L76.2838 11.3418C80.1232 11.9039 83.753 13.2129 87.0722 15.2317C90.3169 17.2053 93.1064 19.7582 95.3631 22.819L95.1644 22.9655H95.1648Z" fill="#A3C9FF"/>
<path d="M43.9431 34.1989L43.7012 34.1495C44.4645 30.4143 45.9397 26.9157 48.0861 23.7509C50.1943 20.642 52.8456 18.0059 55.9656 15.915L56.103 16.12C53.0093 18.1931 50.3807 20.807 48.2902 23.8891C46.1624 27.0272 44.6995 30.4958 43.9427 34.1989H43.9431Z" fill="#A3C9FF"/>
<path d="M48.5849 61.4033C45.8328 58.4183 43.7057 54.9753 42.2622 51.1705C40.8474 47.4419 40.1487 43.5277 40.1849 39.5361L40.4318 39.5382C40.396 43.4989 41.0894 47.3831 42.493 51.0829C43.9251 54.858 46.0361 58.2739 48.7664 61.2358L48.5849 61.4033Z" fill="#A3C9FF"/>
<path d="M77.417 71.2219L77.375 70.9787C83.9928 69.8413 89.9562 66.709 94.621 61.9199L94.798 62.0923C90.0966 66.9188 84.0866 70.0759 77.417 71.2223V71.2219Z" fill="#A3C9FF"/>
<path d="M103.853 40.151L103.606 40.149C103.642 35.9986 102.88 31.9424 101.341 28.0932C99.7668 24.1564 97.4562 20.6356 94.4736 17.6291L94.6489 17.4551C97.6554 20.4854 99.984 24.0338 101.57 28.0015C103.121 31.8803 103.89 35.9681 103.853 40.151Z" fill="#A3C9FF"/>
<path d="M50.6667 16.186L50.5029 16.0013C53.641 13.2195 57.2491 11.1163 61.2275 9.74974C65.1351 8.40742 69.2086 7.83914 73.3335 8.06012L73.3203 8.3066C69.2267 8.08686 65.1849 8.65103 61.3077 9.98306C57.3602 11.339 53.7801 13.4261 50.6667 16.186Z" fill="#A3C9FF"/>
<g opacity="0.7">
<path d="M36.7148 25.9955L36.4844 25.907C38.2308 21.3558 40.8023 17.2334 44.1272 13.6538C47.3859 10.1457 51.2256 7.30882 55.5398 5.22168L55.6472 5.44389C51.3606 7.51745 47.5455 10.3362 44.3083 13.8217C41.0047 17.3778 38.4497 21.4739 36.7148 25.9955Z" fill="#A3C9FF"/>
</g>
<g opacity="0.7">
<path d="M60.3557 75.9999C56.493 74.7514 52.8751 72.9042 49.6032 70.5097C46.4137 68.1757 43.6113 65.3663 41.2744 62.1603L41.474 62.0146C43.7957 65.2001 46.5799 67.9913 49.7489 70.3101C52.9997 72.689 56.5938 74.5239 60.4315 75.7646L60.3553 75.9995L60.3557 75.9999Z" fill="#A3C9FF"/>
</g>
<g opacity="0.7">
<path d="M88.789 74.0575L88.6816 73.8353C93.1728 71.6605 97.1363 68.6763 100.463 64.9653C103.865 61.1697 106.426 56.8024 108.075 51.9854L108.309 52.0652C106.649 56.9139 104.071 61.3096 100.647 65.1299C97.2989 68.8647 93.3098 71.8687 88.7895 74.0575H88.789Z" fill="#A3C9FF"/>
</g>
<g opacity="0.7">
<path d="M107.061 24.6765C105.115 20.1488 102.352 16.0951 98.8484 12.6278C95.2824 9.09791 91.1242 6.3536 86.4902 4.47098L86.5832 4.24219C91.2476 6.13715 95.4326 8.89956 99.0221 12.4525C102.548 15.942 105.329 20.022 107.288 24.579L107.061 24.6765Z" fill="#A3C9FF"/>
</g>
<path d="M53.0087 52.1411C49.8723 47.2911 48.7168 41.4733 49.7554 35.7588L49.9982 35.8028C48.9711 41.4552 50.1138 47.2101 53.2161 52.0069L53.0087 52.1411Z" fill="#A3C9FF"/>
<path d="M72.0909 62.5331H72.0781V62.2862H72.0909C76.8589 62.2862 81.4097 60.8126 85.2519 58.0234L85.3968 58.2234C81.5122 61.043 76.9108 62.5331 72.0905 62.5331H72.0909Z" fill="#A3C9FF"/>
<path d="M94.4165 43.9033L94.1737 43.8593C94.7 40.9566 94.656 38.0234 94.0428 35.1412C93.4157 32.1936 92.2223 29.4485 90.4961 26.9824L90.6981 26.8408C92.4433 29.3341 93.6498 32.1097 94.284 35.0898C94.9037 38.0032 94.9485 40.9685 94.4161 43.9033H94.4165Z" fill="#A3C9FF"/>
<path d="M60.2824 20.7352L60.1523 20.5253C62.6942 18.9509 65.4846 17.9102 68.4453 17.4316C71.3534 16.9617 74.2845 17.0555 77.1564 17.711L77.1013 17.9518C74.2607 17.3037 71.3612 17.2107 68.4848 17.6752C65.5562 18.1485 62.7967 19.1781 60.2824 20.7352Z" fill="#A3C9FF"/>
<path d="M67.3165 68.5217C67.4793 67.5328 66.8096 66.5991 65.8207 66.4363C64.8318 66.2734 63.8981 66.9431 63.7353 67.932C63.5724 68.921 64.2421 69.8547 65.231 70.0175C66.22 70.1803 67.1537 69.5106 67.3165 68.5217Z" fill="#A3C9FF"/>
<path d="M65.8077 68.9141C66.1908 68.7575 66.3743 68.32 66.2177 67.9369C66.061 67.5538 65.6235 67.3703 65.2405 67.5269C64.8574 67.6836 64.6739 68.1211 64.8305 68.5041C64.9871 68.8872 65.4246 69.0708 65.8077 68.9141Z" fill="#FDF9EF"/>
<path d="M44.0304 35.178C44.9247 35.178 45.6496 34.453 45.6496 33.5587C45.6496 32.6644 44.9247 31.9395 44.0304 31.9395C43.1361 31.9395 42.4111 32.6644 42.4111 33.5587C42.4111 34.453 43.1361 35.178 44.0304 35.178Z" fill="#A3C9FF"/>
<path d="M44.0317 34.3056C44.4451 34.3056 44.7802 33.9705 44.7802 33.5571C44.7802 33.1437 44.4451 32.8086 44.0317 32.8086C43.6183 32.8086 43.2832 33.1437 43.2832 33.5571C43.2832 33.9705 43.6183 34.3056 44.0317 34.3056Z" fill="#FDF9EF"/>
<path d="M64.7854 28.0096L64.6299 27.8179C66.9055 25.9731 69.7704 25.0452 72.6982 25.2052C74.9178 25.3266 77.0461 26.0653 78.8526 27.3417L78.7102 27.5434C76.9416 26.2937 74.8578 25.5702 72.6846 25.4517C69.8185 25.2949 67.0133 26.2035 64.7854 28.0096Z" fill="#D9DBE9"/>
<path d="M66.2665 29.2487C66.9966 28.5186 66.9966 27.3349 66.2665 26.6049C65.5364 25.8748 64.3527 25.8748 63.6227 26.6049C62.8926 27.3349 62.8926 28.5186 63.6227 29.2487C64.3527 29.9787 65.5364 29.9787 66.2665 29.2487Z" fill="#F0F0F0"/>
<path d="M65.452 28.5683C65.8036 28.2869 65.8605 27.7739 65.5792 27.4224C65.2978 27.0709 64.7848 27.014 64.4333 27.2953C64.0818 27.5766 64.0249 28.0896 64.3062 28.4411C64.5875 28.7927 65.1005 28.8496 65.452 28.5683Z" fill="#FC3A52"/>
<path d="M77.9421 28.3294C78.7423 28.3294 79.391 27.6807 79.391 26.8805C79.391 26.0803 78.7423 25.4316 77.9421 25.4316C77.1419 25.4316 76.4932 26.0803 76.4932 26.8805C76.4932 27.6807 77.1419 28.3294 77.9421 28.3294Z" fill="#F0F0F0"/>
<path d="M78.5424 27.0641C78.6441 26.733 78.4583 26.3821 78.1272 26.2803C77.7962 26.1786 77.4453 26.3644 77.3435 26.6955C77.2417 27.0265 77.4276 27.3774 77.7586 27.4792C78.0897 27.581 78.4406 27.3951 78.5424 27.0641Z" fill="#FC3A52"/>
<path d="M100.397 46.3742C101.201 46.3742 101.854 45.7218 101.854 44.9171C101.854 44.1123 101.201 43.46 100.397 43.46C99.5918 43.46 98.9395 44.1123 98.9395 44.9171C98.9395 45.7218 99.5918 46.3742 100.397 46.3742Z" fill="#A3C9FF"/>
<path d="M101.014 45.0597C101.095 44.7167 100.882 44.3729 100.539 44.292C100.196 44.211 99.8526 44.4235 99.7716 44.7665C99.6906 45.1096 99.9031 45.4533 100.246 45.5343C100.589 45.6153 100.933 45.4028 101.014 45.0597Z" fill="#FDF9EF"/>
<path d="M72.2711 55.721C72.0546 55.721 71.8382 55.7152 71.6201 55.7033C69.9555 55.6123 68.3655 55.184 66.8936 54.4305L67.0059 54.2108C68.447 54.9482 70.0037 55.3675 71.6336 55.4564C75.5334 55.6695 79.2468 53.917 81.5669 50.7686L81.7656 50.915C79.5254 53.9548 76.0133 55.721 72.2706 55.721H72.2711Z" fill="#D9DBE9"/>
<path d="M82.87 51.4768C82.9165 50.5066 82.1676 49.6824 81.1974 49.636C80.2271 49.5896 79.403 50.3385 79.3565 51.3087C79.3101 52.2789 80.059 53.1031 81.0292 53.1495C81.9994 53.1959 82.8236 52.4471 82.87 51.4768Z" fill="#D9DBE9"/>
<path d="M81.4262 52.1669C81.8483 51.9946 82.0508 51.5128 81.8785 51.0907C81.7063 50.6686 81.2245 50.466 80.8024 50.6383C80.3803 50.8106 80.1777 51.2924 80.35 51.7145C80.5222 52.1366 81.0041 52.3391 81.4262 52.1669Z" fill="#FC3A52"/>
<path d="M68.8417 55.7166C69.4105 55.2487 69.4923 54.4082 69.0244 53.8394C68.5565 53.2706 67.716 53.1887 67.1472 53.6567C66.5783 54.1246 66.4965 54.965 66.9644 55.5339C67.4324 56.1027 68.2728 56.1846 68.8417 55.7166Z" fill="#D9DBE9"/>
<path d="M68.5579 54.7209C68.5411 55.0324 68.2744 55.2715 67.9629 55.2542C67.6514 55.2373 67.4123 54.9707 67.4296 54.6592C67.4465 54.3477 67.7131 54.1086 68.0246 54.1259C68.3361 54.1428 68.5752 54.4094 68.5579 54.7209Z" fill="#FC3A52"/>
<path d="M77.3815 12.932C78.1354 12.932 78.7465 12.3209 78.7465 11.5671C78.7465 10.8133 78.1354 10.2021 77.3815 10.2021C76.6277 10.2021 76.0166 10.8133 76.0166 11.5671C76.0166 12.3209 76.6277 12.932 77.3815 12.932Z" fill="#A3C9FF"/>
<path d="M77.3818 12.1866C77.7243 12.1866 78.002 11.9089 78.002 11.5664C78.002 11.2239 77.7243 10.9463 77.3818 10.9463C77.0394 10.9463 76.7617 11.2239 76.7617 11.5664C76.7617 11.9089 77.0394 12.1866 77.3818 12.1866Z" fill="#FDF9EF"/>
<path d="M62.2395 58.1372C62.8054 58.1372 63.2641 57.6784 63.2641 57.1125C63.2641 56.5466 62.8054 56.0879 62.2395 56.0879C61.6736 56.0879 61.2148 56.5466 61.2148 57.1125C61.2148 57.6784 61.6736 58.1372 62.2395 58.1372Z" fill="#A3C9FF"/>
<path d="M65.2483 13.6928C65.8142 13.6928 66.2729 13.2341 66.2729 12.6682C66.2729 12.1023 65.8142 11.6436 65.2483 11.6436C64.6824 11.6436 64.2236 12.1023 64.2236 12.6682C64.2236 13.2341 64.6824 13.6928 65.2483 13.6928Z" fill="#A3C9FF"/>
<path d="M59.329 42.7874C59.4977 42.2472 59.1967 41.6726 58.6565 41.5038C58.1164 41.3351 57.5417 41.6361 57.3729 42.1763C57.2042 42.7164 57.5053 43.2911 58.0454 43.4599C58.5855 43.6286 59.1602 43.3275 59.329 42.7874Z" fill="#EDEDED"/>
<path d="M88.4753 33.6269C88.8755 33.2267 88.8755 32.578 88.4753 32.1778C88.0752 31.7777 87.4264 31.7777 87.0263 32.1778C86.6261 32.578 86.6261 33.2267 87.0263 33.6269C87.4264 34.027 88.0752 34.027 88.4753 33.6269Z" fill="#EDEDED"/>
<path d="M44.4426 44.1001C45.0085 44.1001 45.4672 43.6413 45.4672 43.0754C45.4672 42.5095 45.0085 42.0508 44.4426 42.0508C43.8767 42.0508 43.418 42.5095 43.418 43.0754C43.418 43.6413 43.8767 44.1001 44.4426 44.1001Z" fill="#A3C9FF"/>
<path d="M99.3869 35.4096C99.9528 35.4096 100.412 34.9509 100.412 34.385C100.412 33.8191 99.9528 33.3604 99.3869 33.3604C98.821 33.3604 98.3623 33.8191 98.3623 34.385C98.3623 34.9509 98.821 35.4096 99.3869 35.4096Z" fill="#A3C9FF"/>
<path d="M81.474 67.1112C81.604 66.5604 81.2629 66.0086 80.7121 65.8786C80.1614 65.7486 79.6095 66.0897 79.4795 66.6405C79.3495 67.1912 79.6906 67.7431 80.2414 67.8731C80.7921 68.0031 81.344 67.662 81.474 67.1112Z" fill="#A3C9FF"/>
<circle cx="102.636" cy="39.0006" r="5.60606" fill="#D1F3E4"/>
<g clip-path="url(#clip0_12278_32888)">
<path d="M103.924 40.8334H101.198C101.064 40.8334 100.955 40.7265 100.955 40.5946V36.9966C100.955 36.8647 101.064 36.7578 101.198 36.7578H103.924C104.058 36.7578 104.167 36.8647 104.167 36.9966V40.5946C104.167 40.7265 104.058 40.8334 103.924 40.8334Z" fill="white"/>
<path d="M102.561 37.1211H101.325V38.795H102.561V37.1211Z" fill="#DBF4E9"/>
<path d="M102.705 37.1943H103.899" stroke="#DBF4E9" stroke-width="0.102463" stroke-miterlimit="10"/>
<path d="M102.705 37.5225H103.899" stroke="#DBF4E9" stroke-width="0.102463" stroke-miterlimit="10"/>
<path d="M102.705 37.8496H103.899" stroke="#DBF4E9" stroke-width="0.102463" stroke-miterlimit="10"/>
<path d="M102.705 38.1768H103.899" stroke="#DBF4E9" stroke-width="0.102463" stroke-miterlimit="10"/>
<path d="M102.705 38.5039H103.899" stroke="#DBF4E9" stroke-width="0.102463" stroke-miterlimit="10"/>
<path d="M102.705 38.833H103.899" stroke="#DBF4E9" stroke-width="0.102463" stroke-miterlimit="10"/>
<path d="M101.325 39.1602H103.899" stroke="#DBF4E9" stroke-width="0.102463" stroke-miterlimit="10"/>
<path d="M101.326 39.4873H103.9" stroke="#DBF4E9" stroke-width="0.102463" stroke-miterlimit="10"/>
<path d="M101.326 39.8145H103.9" stroke="#DBF4E9" stroke-width="0.102463" stroke-miterlimit="10"/>
<path d="M101.325 40.1426H103.899" stroke="#DBF4E9" stroke-width="0.102463" stroke-miterlimit="10"/>
<path d="M101.325 40.4688H103.899" stroke="#DBF4E9" stroke-width="0.102463" stroke-miterlimit="10"/>
</g>
<rect x="63.3936" y="2" width="11.2121" height="11.2121" rx="5.60606" fill="#D1F3E4"/>
<g clip-path="url(#clip1_12278_32888)">
<g clip-path="url(#clip2_12278_32888)">
<path d="M69.3274 7.53994C69.7177 7.53994 70.0348 7.22284 70.0348 6.8333C70.0348 6.44308 69.7177 6.12598 69.3274 6.12598C68.9372 6.12598 68.6201 6.44308 68.6201 6.8333C68.6201 7.22284 68.9372 7.53994 69.3274 7.53994Z" fill="white"/>
<path d="M68.4883 8.21559C68.5335 8.25728 68.5594 8.31742 68.5594 8.38029L68.5594 9.01586C68.5594 9.05345 68.5902 9.0842 68.6278 9.0842L70.0916 9.0842L70.0916 8.56208C70.0916 8.52381 70.1224 8.49374 70.16 8.49374C70.1975 8.49374 70.2283 8.52381 70.2283 8.56208L70.2283 9.0842L70.57 9.0842C70.6076 9.0842 70.6383 9.05345 70.6383 9.01586L70.6383 8.51151C70.6383 8.01672 70.2358 7.61419 69.7403 7.61419L69.115 7.61419C68.9558 7.61419 68.8082 7.54312 68.7098 7.42011C68.4603 7.10984 68.2307 6.75584 68.0257 6.36766C67.9778 6.27677 67.8931 6.21116 67.7933 6.18793C67.6929 6.16469 67.5876 6.18588 67.5042 6.24602C67.3628 6.34921 67.317 6.54398 67.399 6.69843C67.7503 7.36475 68.1063 7.8609 68.4883 8.21559Z" fill="white"/>
</g>
</g>
<rect x="32" y="36.7578" width="11.2121" height="11.2121" rx="5.60606" fill="#D1F3E4"/>
<g clip-path="url(#clip3_12278_32888)">
<path fill-rule="evenodd" clip-rule="evenodd" d="M35.2246 40.4029C35.2246 40.0159 35.5383 39.7021 35.9254 39.7021H39.289C39.676 39.7021 39.9898 40.0159 39.9898 40.4029V42.0847C39.9898 42.4717 39.676 42.7855 39.289 42.7855H35.9254C35.5383 42.7855 35.2246 42.4717 35.2246 42.0847V40.4029ZM37.4144 40.5964C37.3227 40.523 37.1867 40.5883 37.1867 40.7058V41.7818C37.1867 41.8993 37.3227 41.9647 37.4144 41.8913L38.087 41.3533C38.1571 41.2971 38.1571 41.1905 38.087 41.1344L37.4144 40.5964Z" fill="white"/>
<path d="M38.1661 43.7661C38.1661 44.0754 37.9152 44.3262 37.6055 44.3262C37.2959 44.3262 37.0449 44.0754 37.0449 43.7661C37.0449 43.4568 37.2959 43.2061 37.6055 43.2061C37.9152 43.2061 38.1661 43.4568 38.1661 43.7661Z" fill="white"/>
<path fill-rule="evenodd" clip-rule="evenodd" d="M37.6055 44.3262C37.9152 44.3262 38.1661 44.0754 38.1661 43.7661C38.1661 43.4568 37.9152 43.2061 37.6055 43.2061C37.2959 43.2061 37.0449 43.4568 37.0449 43.7661C37.0449 44.0754 37.2959 44.3262 37.6055 44.3262Z" fill="white"/>
<path d="M40.129 43.7661C40.129 44.0754 39.878 44.3262 39.5684 44.3262C39.2588 44.3262 39.0078 44.0754 39.0078 43.7661C39.0078 43.4568 39.2588 43.2061 39.5684 43.2061C39.878 43.2061 40.129 43.4568 40.129 43.7661Z" fill="white"/>
<path fill-rule="evenodd" clip-rule="evenodd" d="M39.5684 44.3262C39.878 44.3262 40.129 44.0754 40.129 43.7661C40.129 43.4568 39.878 43.2061 39.5684 43.2061C39.2588 43.2061 39.0078 43.4568 39.0078 43.7661C39.0078 44.0754 39.2588 44.3262 39.5684 44.3262Z" fill="white"/>
<path d="M36.2042 43.7661C36.2042 44.0754 35.9532 44.3262 35.6436 44.3262C35.334 44.3262 35.083 44.0754 35.083 43.7661C35.083 43.4568 35.334 43.2061 35.6436 43.2061C35.9532 43.2061 36.2042 43.4568 36.2042 43.7661Z" fill="white"/>
<path fill-rule="evenodd" clip-rule="evenodd" d="M35.6436 44.3262C35.9532 44.3262 36.2042 44.0754 36.2042 43.7661C36.2042 43.4568 35.9532 43.2061 35.6436 43.2061C35.334 43.2061 35.083 43.4568 35.083 43.7661C35.083 44.0754 35.334 44.3262 35.6436 44.3262Z" fill="white"/>
<path fill-rule="evenodd" clip-rule="evenodd" d="M36.2045 45.1672C36.3593 45.1672 36.4893 45.0384 36.4387 44.8923C36.3247 44.5634 36.0119 44.3271 35.6438 44.3271C35.2758 44.3271 34.963 44.5634 34.849 44.8923C34.7984 45.0384 34.9284 45.1672 35.0832 45.1672H36.2045Z" fill="white"/>
<path fill-rule="evenodd" clip-rule="evenodd" d="M38.1664 45.1672C38.3212 45.1672 38.4512 45.0384 38.4006 44.8923C38.2866 44.5634 37.9738 44.3271 37.6058 44.3271C37.2377 44.3271 36.9249 44.5634 36.8109 44.8923C36.7603 45.0384 36.8903 45.1672 37.0452 45.1672H38.1664Z" fill="white"/>
<path fill-rule="evenodd" clip-rule="evenodd" d="M40.1283 45.1672C40.2831 45.1672 40.4131 45.0384 40.3625 44.8923C40.2485 44.5634 39.9357 44.3271 39.5677 44.3271C39.1996 44.3271 38.8868 44.5634 38.7728 44.8923C38.7222 45.0384 38.8522 45.1672 39.0071 45.1672H40.1283Z" fill="white"/>
</g>
<rect x="54" y="21" width="36" height="36" rx="18" fill="white"/>
<path d="M70.8581 37.6413C70.7414 37.6413 70.6247 37.6079 70.5164 37.5413C70.3164 37.4163 70.1914 37.2079 70.1914 36.9663V33.0413C70.1914 32.7913 70.3331 32.5663 70.5497 32.4496C70.7747 32.3329 71.0331 32.3496 71.2414 32.4996L74.4331 34.7413C74.6247 34.8746 74.7247 35.0996 74.7164 35.3329C74.6997 35.5663 74.5664 35.7663 74.3664 35.8829L71.1747 37.5663C71.0747 37.6163 70.9664 37.6413 70.8664 37.6413H70.8581ZM71.0247 33.3663V36.6996L73.7331 35.2746L71.0247 33.3746V33.3663Z" fill="#FC3A52"/>
<path d="M65.3414 44.4835C64.5747 44.4835 63.9414 43.8668 63.9414 43.1001C63.9414 42.3335 64.5664 41.7168 65.3414 41.7168C66.1164 41.7168 66.7414 42.3335 66.7414 43.1001C66.7414 43.8668 66.1164 44.4835 65.3414 44.4835ZM65.3414 42.5501C65.0331 42.5501 64.7747 42.7918 64.7747 43.1001C64.7747 43.4085 65.0247 43.6501 65.3414 43.6501C65.6581 43.6501 65.9081 43.4085 65.9081 43.1001C65.9081 42.7918 65.6581 42.5501 65.3414 42.5501Z" fill="#FC3A52"/>
<path d="M79.5003 29.834H64.5003C64.042 29.834 63.667 30.209 63.667 30.6673V39.2507C63.667 39.709 64.042 40.084 64.5003 40.084H79.5003C79.9587 40.084 80.3337 39.709 80.3337 39.2507V30.6673C80.3337 30.209 79.9587 29.834 79.5003 29.834ZM79.5003 39.2507H64.5003V30.6673H79.5003V39.2507Z" fill="#202126"/>
<path d="M79.642 42.7422H67.8337C67.6003 42.7422 67.417 42.9255 67.417 43.1589C67.417 43.3922 67.6003 43.5755 67.8337 43.5755H79.642C79.8753 43.5755 80.0587 43.3922 80.0587 43.1589C80.0587 42.9255 79.8753 42.7422 79.642 42.7422Z" fill="#202126"/>
<path d="M79.642 46.8506H67.8337C67.6003 46.8506 67.417 47.0339 67.417 47.2673C67.417 47.5006 67.6003 47.6839 67.8337 47.6839H79.642C79.8753 47.6839 80.0587 47.5006 80.0587 47.2673C80.0587 47.0339 79.8753 46.8506 79.642 46.8506Z" fill="#202126"/>
<path d="M65.3414 48.5831C64.5747 48.5831 63.9414 47.9664 63.9414 47.1997C63.9414 46.4331 64.5664 45.8164 65.3414 45.8164C66.1164 45.8164 66.7414 46.4331 66.7414 47.1997C66.7414 47.9664 66.1164 48.5831 65.3414 48.5831ZM65.3414 46.6497C65.0331 46.6497 64.7747 46.8914 64.7747 47.1997C64.7747 47.5081 65.0247 47.7497 65.3414 47.7497C65.6581 47.7497 65.9081 47.5081 65.9081 47.1997C65.9081 46.8914 65.6581 46.6497 65.3414 46.6497Z" fill="#FC3A52"/>
<defs>
<linearGradient id="paint0_linear_12278_32888" x1="140" y1="-7.00607e-06" x2="-3.98552" y2="75.3879" gradientUnits="userSpaceOnUse">
<stop stop-color="#DBF4E9"/>
<stop offset="1" stop-color="#E8F5FF"/>
</linearGradient>
<clipPath id="clip0_12278_32888">
<rect width="4.48485" height="4.48485" fill="white" transform="translate(100.395 36.7578)"/>
</clipPath>
<clipPath id="clip1_12278_32888">
<rect width="4.48485" height="4.48485" fill="white" transform="translate(66.7568 5.36328)"/>
</clipPath>
<clipPath id="clip2_12278_32888">
<rect width="4.10043" height="4.10043" fill="white" transform="translate(66.9482 5.55469)"/>
</clipPath>
<clipPath id="clip3_12278_32888">
<rect width="6.72728" height="6.72728" fill="white" transform="translate(34.2422 39)"/>
</clipPath>
</defs>
</svg>
