<svg width="16" height="16" viewBox="0 0 16 16" fill="none" xmlns="http://www.w3.org/2000/svg">
<path fill-rule="evenodd" clip-rule="evenodd" d="M0 2.90476C0 1.85279 0.852792 1 1.90476 1H14.0952C15.1472 1 16 1.85279 16 2.90476V11.2857C16 12.3377 15.1472 13.1905 14.0952 13.1905H1.90476C0.852792 13.1905 0 12.3377 0 11.2857V2.90476ZM1.90476 1.7619C1.27358 1.7619 0.761905 2.27358 0.761905 2.90476V11.2857C0.761905 11.9169 1.27358 12.4286 1.90476 12.4286H14.0952C14.7264 12.4286 15.2381 11.9169 15.2381 11.2857V2.90476C15.2381 2.27358 14.7264 1.7619 14.0952 1.7619H1.90476Z" fill="#7B5707"/>
<path fill-rule="evenodd" clip-rule="evenodd" d="M6.29877 4.08993C6.42477 4.02433 6.5768 4.03428 6.69314 4.11574L10.5027 6.78242C10.6045 6.85366 10.6652 6.97015 10.6652 7.0945C10.6652 7.21884 10.6045 7.33533 10.5027 7.40657L6.69314 10.0732C6.5768 10.1547 6.42477 10.1647 6.29877 10.0991C6.17278 10.0335 6.09375 9.90318 6.09375 9.76116V4.42783C6.09375 4.28578 6.17278 4.15553 6.29877 4.08993ZM6.85565 5.15951V9.02951L9.61992 7.0945L6.85565 5.15951Z" fill="#7B5707"/>
<path fill-rule="evenodd" clip-rule="evenodd" d="M12.5647 15.0939H3.42188V14.332H12.5647V15.0939Z" fill="#7B5707"/>
</svg>
