<svg width="140" height="80" viewBox="0 0 140 80" fill="none" xmlns="http://www.w3.org/2000/svg">
<g clip-path="url(#clip0_12278_32680)">
<path d="M0 8C0 3.58172 3.58172 0 8 0H132C136.418 0 140 3.58172 140 8V80H0V8Z" fill="url(#paint0_linear_12278_32680)"/>
<path d="M64.4623 44.1065C58.3234 44.1065 52.6348 47.3926 47.0689 50.5539C44.245 52.1761 41.2984 53.8816 38.3517 55.0878C24.8872 60.6617 7.94396 56.0861 -1.01876 44.5224L-2.00098 45.3128C7.33007 57.334 24.8463 62.0344 38.8019 56.2525C41.8304 55.0046 44.777 53.2992 47.6828 51.6354C54.2309 47.8917 60.4106 44.3144 67.2861 45.6039C72.9339 46.6438 77.1492 50.6787 81.6101 54.9631C85.1707 58.3739 88.854 61.9096 93.3558 63.823C98.8807 66.1524 105.061 65.8612 110.504 65.5701C115.865 65.3205 121.881 64.9877 127.119 67.1507C131.826 69.1057 136.45 74.222 135.673 79.8375L136.901 80.0039C137.76 73.7229 132.849 68.1906 127.57 65.986C122.086 63.6982 115.906 64.031 110.422 64.2806C105.101 64.5302 99.0854 64.8629 93.806 62.6167C89.4678 60.8281 85.9073 57.3756 82.4286 54.0479C78.0496 49.8467 73.5068 45.4791 67.4908 44.356C66.4676 44.1897 65.4445 44.1065 64.4623 44.1065Z" fill="url(#paint1_linear_12278_32680)" fill-opacity="0.1"/>
<path d="M58.3779 38.1953C53.1278 38.1953 48.1318 41.5824 45.041 45.013C42.416 47.9659 40.3414 51.3965 38.3091 54.7402C37.0389 56.8246 35.7264 59.0392 34.2869 61.0368C24.4218 74.9327 6.68167 82.7926 -9.95766 80.6214L-10 81.0557C-1.74385 82.1413 6.89336 80.8385 14.8955 77.2777C22.8976 73.7168 29.7142 68.2019 34.6256 61.2973C36.0651 59.2564 37.3776 57.0851 38.6478 54.9573C40.6378 51.6136 42.7124 48.183 45.3374 45.317C49.0633 41.1482 55.6682 37.0663 62.0191 39.2375C65.9143 40.5837 68.7934 43.9708 71.5454 47.2277C74.5515 50.8319 77.6846 54.523 82.1726 55.5218C86.9992 56.6074 91.5295 54.1756 95.9752 51.8307C99.9551 49.7029 104.104 47.5316 108.465 47.879C114.943 48.4001 119.643 54.3059 123.58 59.8209L139.627 82.3584L139.966 82.0978L123.919 59.5603C119.939 54.002 115.155 48.0093 108.508 47.4448C104.02 47.0974 99.8704 49.3121 95.8058 51.4399C91.2755 53.8717 86.9569 56.1298 82.2996 55.0876C77.9386 54.1322 75.0172 50.6148 71.8841 46.9237C69.0897 43.58 66.1683 40.1494 62.1884 38.8032C60.8759 38.369 59.6057 38.1953 58.3779 38.1953Z" fill="url(#paint2_linear_12278_32680)" fill-opacity="0.1"/>
<path d="M78.5658 57.6508L78.4825 57.4175C82.0487 56.1446 85.1363 53.8619 87.4111 50.8162C89.7395 47.6989 91.0488 43.9877 91.1968 40.0846L91.4444 40.094C91.2944 44.0479 89.9685 47.8068 87.6096 50.9646C85.3056 54.0493 82.1781 56.3615 78.5658 57.6508Z" fill="#FFA65A"/>
<path d="M52.9627 42.7242C52.8248 41.9322 52.7355 41.1205 52.6963 40.3122C52.4456 35.1319 54.2271 30.1645 57.7128 26.3242C61.1986 22.4839 65.9707 20.2311 71.151 19.9804L71.163 20.2279C66.0491 20.4753 61.3376 22.6996 57.8962 26.4906C54.4551 30.2816 52.6963 35.1859 52.9438 40.3002C52.9824 41.0982 53.0708 41.8996 53.207 42.6817L52.9631 42.7241L52.9627 42.7242Z" fill="#FFA65A"/>
<path d="M66.3992 68.4118C62.7567 67.7412 59.3198 66.3948 56.183 64.4096C53.109 62.4644 50.4557 59.9916 48.2959 57.0601L48.4953 56.9131C50.6366 59.8199 53.2676 62.2716 56.3155 64.2003C59.4255 66.1681 62.8331 67.5034 66.4442 68.1682L66.3992 68.4118Z" fill="#FFA65A"/>
<path d="M94.6107 56.3258L94.4307 56.1557C98.6323 51.7051 99.4645 49.6168 100.244 43.5732L100.49 43.605C99.7036 49.7006 98.8482 51.8372 94.6107 56.3258Z" fill="#FFA65A"/>
<path d="M94.8792 22.7861C92.6339 19.741 89.8588 17.2013 86.6308 15.2379C83.3289 13.2296 79.7181 11.9278 75.8984 11.3683L75.9344 11.123C79.7867 11.6871 83.4288 13.0005 86.7592 15.0261C90.0149 17.0064 92.8139 19.568 95.0782 22.6391L94.8788 22.7861H94.8792Z" fill="#FFA65A"/>
<path d="M43.484 34.0586L43.2412 34.0091C44.0071 30.2612 45.4874 26.7508 47.641 23.5752C49.7563 20.4558 52.4165 17.8108 55.5471 15.7129L55.685 15.9185C52.5809 17.9987 49.9433 20.6214 47.8458 23.714C45.7107 26.8627 44.2429 30.343 43.4836 34.0586H43.484Z" fill="#FFA65A"/>
<path d="M48.1417 61.3543C45.3802 58.3591 43.246 54.9045 41.7975 51.0868C40.378 47.3456 39.6769 43.4182 39.7133 39.4131L39.961 39.4151C39.9251 43.3893 40.6208 47.2866 42.0292 50.9989C43.4661 54.7868 45.5842 58.2142 48.3238 61.1862L48.1417 61.3543Z" fill="#FFA65A"/>
<path d="M77.0704 71.2065L77.0283 70.9625C83.6685 69.8213 89.6521 66.6783 94.3327 61.873L94.5103 62.0461C89.7929 66.8889 83.7626 70.0566 77.0704 71.2069V71.2065Z" fill="#FFA65A"/>
<path d="M103.596 40.0296L103.348 40.0275C103.384 35.8631 102.62 31.7932 101.075 27.931C99.4956 23.9808 97.1772 20.4481 94.1846 17.4315L94.3605 17.2568C97.3771 20.2974 99.7136 23.8578 101.305 27.8389C102.862 31.7308 103.632 35.8325 103.596 40.0296Z" fill="#FFA65A"/>
<path d="M50.2298 15.9842L50.0654 15.7988C53.2142 13.0076 56.8344 10.8973 60.8263 9.52612C64.7471 8.17926 68.8344 7.60906 72.9732 7.83078L72.96 8.0781C68.8525 7.85762 64.7971 8.4237 60.9068 9.76023C56.9459 11.1207 53.3537 13.2149 50.2298 15.9842Z" fill="#FFA65A"/>
<g opacity="0.7">
<path d="M36.2312 25.8275L36 25.7388C37.7523 21.1721 40.3325 17.0358 43.6687 13.444C46.9384 9.92409 50.7911 7.0776 55.1199 4.9834L55.2276 5.20636C50.9265 7.28693 47.0986 10.1153 43.8504 13.6125C40.5356 17.1807 37.972 21.2906 36.2312 25.8275Z" fill="#FFA65A"/>
</g>
<g opacity="0.7">
<path d="M59.9525 76.0004C56.0767 74.7477 52.4465 72.8942 49.1636 70.4916C45.9633 68.1496 43.1515 65.3308 40.8066 62.1139L41.0069 61.9678C43.3364 65.164 46.1301 67.9646 49.3098 70.2913C52.5716 72.6782 56.1779 74.5193 60.0285 75.7642L59.9521 76L59.9525 76.0004Z" fill="#FFA65A"/>
</g>
<g opacity="0.7">
<path d="M88.4828 74.0511L88.375 73.8281C92.8813 71.646 96.8583 68.6517 100.196 64.9282C103.61 61.1197 106.18 56.7376 107.834 51.9043L108.068 51.9844C106.404 56.8495 103.817 61.2601 100.381 65.0934C97.0214 68.8408 93.0188 71.8549 88.4832 74.0511H88.4828Z" fill="#FFA65A"/>
</g>
<g opacity="0.7">
<path d="M106.815 24.5035C104.862 19.9604 102.09 15.893 98.5748 12.414C94.9967 8.87215 90.8244 6.11856 86.1748 4.22957L86.2681 4C90.9483 5.90138 95.1474 8.67314 98.7491 12.2381C102.287 15.7394 105.077 19.8333 107.043 24.4056L106.815 24.5035Z" fill="#FFA65A"/>
</g>
<path d="M52.5806 52.0608C49.4335 47.1944 48.2741 41.3569 49.3162 35.623L49.5598 35.6672C48.5293 41.3387 49.6759 47.1131 52.7887 51.9262L52.5806 52.0608Z" fill="#FFA65A"/>
<path d="M71.7267 62.4878H71.7139V62.2401H71.7267C76.5109 62.2401 81.0771 60.7615 84.9323 57.9629L85.0776 58.1636C81.1799 60.9927 76.5629 62.4878 71.7263 62.4878H71.7267Z" fill="#FFA65A"/>
<path d="M94.1289 43.795L93.8853 43.7509C94.4134 40.8383 94.3693 37.8952 93.754 35.0033C93.1248 32.0457 91.9274 29.2913 90.1953 26.8168L90.398 26.6748C92.1491 29.1765 93.3597 31.9615 93.996 34.9517C94.6178 37.875 94.6628 40.8503 94.1285 43.795H94.1289Z" fill="#FFA65A"/>
<path d="M59.8785 20.5481L59.748 20.3376C62.2985 18.7578 65.0983 17.7136 68.0691 17.2334C70.987 16.7619 73.9281 16.856 76.8097 17.5138L76.7543 17.7553C73.9041 17.105 70.9949 17.0117 68.1087 17.4778C65.1702 17.9527 62.4013 18.9857 59.8785 20.5481Z" fill="#FFA65A"/>
<path d="M66.936 68.4971C67.0994 67.5049 66.4275 66.568 65.4352 66.4046C64.4429 66.2413 63.5061 66.9132 63.3427 67.9055C63.1793 68.8978 63.8513 69.8346 64.8435 69.998C65.8358 70.1614 66.7727 69.4894 66.936 68.4971Z" fill="#FFA65A"/>
<path d="M65.4233 68.8915C65.8077 68.7343 65.9918 68.2953 65.8347 67.911C65.6775 67.5266 65.2385 67.3424 64.8541 67.4996C64.4698 67.6568 64.2856 68.0958 64.4428 68.4801C64.5999 68.8645 65.0389 69.0487 65.4233 68.8915Z" fill="#FFDBBD"/>
<path d="M43.572 35.0405C44.4693 35.0405 45.1967 34.3131 45.1967 33.4158C45.1967 32.5184 44.4693 31.791 43.572 31.791C42.6747 31.791 41.9473 32.5184 41.9473 33.4158C41.9473 34.3131 42.6747 35.0405 43.572 35.0405Z" fill="#FFA65A"/>
<path d="M43.5723 34.1642C43.9871 34.1642 44.3234 33.828 44.3234 33.4132C44.3234 32.9984 43.9871 32.6621 43.5723 32.6621C43.1575 32.6621 42.8213 32.9984 42.8213 33.4132C42.8213 33.828 43.1575 34.1642 43.5723 34.1642Z" fill="#FFDBBD"/>
<path d="M64.3973 27.8483L64.2412 27.6559C66.5245 25.8049 69.3991 24.8738 72.3368 25.0344C74.564 25.1562 76.6995 25.8973 78.5121 27.1781L78.3692 27.3805C76.5946 26.1265 74.5037 25.4006 72.3232 25.2817C69.4474 25.1244 66.6327 26.0361 64.3973 27.8483Z" fill="#D9DBE9"/>
<path d="M65.8834 29.092C66.616 28.3595 66.616 27.1718 65.8834 26.4393C65.1509 25.7067 63.9632 25.7067 63.2307 26.4393C62.4981 27.1718 62.4981 28.3595 63.2307 29.092C63.9632 29.8245 65.1509 29.8245 65.8834 29.092Z" fill="#F0F0F0"/>
<path d="M65.067 28.4087C65.4197 28.1265 65.4768 27.6117 65.1946 27.259C64.9123 26.9063 64.3976 26.8492 64.0449 27.1315C63.6922 27.4138 63.6351 27.9285 63.9173 28.2812C64.1996 28.6339 64.7143 28.691 65.067 28.4087Z" fill="#FC3A52"/>
<path d="M77.5983 28.1693C78.4012 28.1693 79.0521 27.5184 79.0521 26.7155C79.0521 25.9126 78.4012 25.2617 77.5983 25.2617C76.7954 25.2617 76.1445 25.9126 76.1445 26.7155C76.1445 27.5184 76.7954 28.1693 77.5983 28.1693Z" fill="#F0F0F0"/>
<path d="M78.2004 26.9002C78.3025 26.568 78.116 26.2159 77.7838 26.1138C77.4516 26.0117 77.0995 26.1982 76.9974 26.5304C76.8953 26.8625 77.0818 27.2146 77.414 27.3168C77.7461 27.4189 78.0982 27.2324 78.2004 26.9002Z" fill="#FC3A52"/>
<path d="M100.128 46.2737C100.936 46.2737 101.59 45.6191 101.59 44.8117C101.59 44.0042 100.936 43.3496 100.128 43.3496C99.3206 43.3496 98.666 44.0042 98.666 44.8117C98.666 45.6191 99.3206 46.2737 100.128 46.2737Z" fill="#FFA65A"/>
<path d="M100.748 44.9561C100.829 44.6119 100.616 44.267 100.272 44.1857C99.9278 44.1045 99.5828 44.3177 99.5016 44.6619C99.4204 45.0061 99.6335 45.351 99.9778 45.4323C100.322 45.5135 100.667 45.3003 100.748 44.9561Z" fill="#FFDBBD"/>
<path d="M71.9084 55.6528C71.6912 55.6528 71.474 55.647 71.2552 55.635C69.585 55.5438 67.9896 55.1139 66.5127 54.3579L66.6254 54.1375C68.0714 54.8774 69.6333 55.2981 71.2688 55.3873C75.1818 55.6012 78.9078 53.8426 81.2357 50.6836L81.4351 50.8306C79.1873 53.8806 75.6633 55.6528 71.908 55.6528H71.9084Z" fill="#D9DBE9"/>
<path d="M82.5433 51.3943C82.5899 50.4208 81.8385 49.5938 80.865 49.5473C79.8915 49.5007 79.0645 50.2521 79.018 51.2256C78.9714 52.1991 79.7228 53.0261 80.6963 53.0726C81.6698 53.1192 82.4967 52.3678 82.5433 51.3943Z" fill="#D9DBE9"/>
<path d="M81.0939 52.087C81.5175 51.9142 81.7207 51.4307 81.5479 51.0072C81.375 50.5836 80.8916 50.3804 80.468 50.5533C80.0445 50.7261 79.8413 51.2095 80.0141 51.6331C80.187 52.0566 80.6704 52.2598 81.0939 52.087Z" fill="#FC3A52"/>
<path d="M68.4671 55.6485C69.0379 55.179 69.12 54.3357 68.6505 53.7649C68.1809 53.1941 67.3376 53.112 66.7669 53.5815C66.1961 54.051 66.114 54.8943 66.5835 55.4651C67.053 56.0359 67.8963 56.118 68.4671 55.6485Z" fill="#D9DBE9"/>
<path d="M68.1828 54.6497C68.1659 54.9622 67.8984 55.2021 67.5858 55.1848C67.2732 55.1679 67.0333 54.9003 67.0507 54.5878C67.0676 54.2752 67.3352 54.0353 67.6477 54.0526C67.9603 54.0696 68.2002 54.3371 68.1828 54.6497Z" fill="#FC3A52"/>
<path d="M77.0356 12.7186C77.792 12.7186 78.4052 12.1055 78.4052 11.3491C78.4052 10.5927 77.792 9.97949 77.0356 9.97949C76.2792 9.97949 75.666 10.5927 75.666 11.3491C75.666 12.1055 76.2792 12.7186 77.0356 12.7186Z" fill="#FFA65A"/>
<path d="M77.0353 11.971C77.379 11.971 77.6575 11.6924 77.6575 11.3488C77.6575 11.0051 77.379 10.7266 77.0353 10.7266C76.6917 10.7266 76.4131 11.0051 76.4131 11.3488C76.4131 11.6924 76.6917 11.971 77.0353 11.971Z" fill="#FFDBBD"/>
<path d="M61.8416 58.0767C62.4094 58.0767 62.8697 57.6164 62.8697 57.0486C62.8697 56.4808 62.4094 56.0205 61.8416 56.0205C61.2738 56.0205 60.8135 56.4808 60.8135 57.0486C60.8135 57.6164 61.2738 58.0767 61.8416 58.0767Z" fill="#EE6D00"/>
<path d="M64.8611 13.482C65.4289 13.482 65.8892 13.0217 65.8892 12.4539C65.8892 11.8861 65.4289 11.4258 64.8611 11.4258C64.2933 11.4258 63.833 11.8861 63.833 12.4539C63.833 13.0217 64.2933 13.482 64.8611 13.482Z" fill="#EE6D00"/>
<path d="M58.9216 42.6748C59.0909 42.1328 58.7888 41.5562 58.2469 41.3869C57.7049 41.2176 57.1283 41.5197 56.9589 42.0616C56.7896 42.6036 57.0917 43.1802 57.6337 43.3496C58.1756 43.5189 58.7523 43.2168 58.9216 42.6748Z" fill="#EDEDED"/>
<path d="M88.1673 33.4838C88.5688 33.0823 88.5688 32.4314 88.1673 32.0299C87.7658 31.6284 87.1148 31.6284 86.7133 32.0299C86.3118 32.4314 86.3118 33.0823 86.7133 33.4838C87.1148 33.8853 87.7658 33.8853 88.1673 33.4838Z" fill="#EDEDED"/>
<path d="M43.9851 43.9927C44.5529 43.9927 45.0132 43.5324 45.0132 42.9646C45.0132 42.3968 44.5529 41.9365 43.9851 41.9365C43.4173 41.9365 42.957 42.3968 42.957 42.9646C42.957 43.5324 43.4173 43.9927 43.9851 43.9927Z" fill="#EE6D00"/>
<path d="M99.115 35.272C99.6828 35.272 100.143 34.8117 100.143 34.2439C100.143 33.6761 99.6828 33.2158 99.115 33.2158C98.5472 33.2158 98.0869 33.6761 98.0869 34.2439C98.0869 34.8117 98.5472 35.272 99.115 35.272Z" fill="#EE6D00"/>
<path d="M81.1417 67.0821C81.2721 66.5294 80.9299 65.9757 80.3772 65.8453C79.8246 65.7149 79.2709 66.0571 79.1405 66.6097C79.01 67.1624 79.3523 67.7161 79.9049 67.8465C80.4575 67.9769 81.0113 67.6347 81.1417 67.0821Z" fill="#EE6D00"/>
<circle cx="99" cy="62" r="6" fill="#ECB98D"/>
<g clip-path="url(#clip1_12278_32680)">
<path d="M100.722 64.4535H97.0755C96.8957 64.4535 96.75 64.3104 96.75 64.134V59.3205C96.75 59.144 96.8957 59.001 97.0755 59.001H100.722C100.902 59.001 101.048 59.144 101.048 59.3205V64.134C101.047 64.3104 100.902 64.4535 100.722 64.4535Z" fill="white"/>
<path d="M98.897 59.4873H97.2441V61.7267H98.897V59.4873Z" fill="#F2D4B9"/>
<path d="M99.0908 59.5859H100.689" stroke="#F2D4B9" stroke-width="0.153695" stroke-miterlimit="10"/>
<path d="M99.0898 60.0234H100.688" stroke="#F2D4B9" stroke-width="0.153695" stroke-miterlimit="10"/>
<path d="M99.0908 60.4619H100.689" stroke="#F2D4B9" stroke-width="0.153695" stroke-miterlimit="10"/>
<path d="M99.0898 60.8994H100.688" stroke="#F2D4B9" stroke-width="0.153695" stroke-miterlimit="10"/>
<path d="M99.0908 61.3369H100.689" stroke="#F2D4B9" stroke-width="0.153695" stroke-miterlimit="10"/>
<path d="M99.0908 61.7764H100.689" stroke="#F2D4B9" stroke-width="0.153695" stroke-miterlimit="10"/>
<path d="M97.2441 62.2148H100.688" stroke="#F2D4B9" stroke-width="0.153695" stroke-miterlimit="10"/>
<path d="M97.2461 62.6523H100.69" stroke="#F2D4B9" stroke-width="0.153695" stroke-miterlimit="10"/>
<path d="M97.2461 63.0908H100.69" stroke="#F2D4B9" stroke-width="0.153695" stroke-miterlimit="10"/>
<path d="M97.2451 63.5283H100.689" stroke="#F2D4B9" stroke-width="0.153695" stroke-miterlimit="10"/>
<path d="M97.2441 63.9658H100.688" stroke="#F2D4B9" stroke-width="0.153695" stroke-miterlimit="10"/>
</g>
<rect x="64" y="2" width="12" height="12" rx="6" fill="#ECB98D"/>
<g clip-path="url(#clip2_12278_32680)">
<g clip-path="url(#clip3_12278_32680)">
<path d="M70.4394 7.91217C70.9615 7.91217 71.3857 7.48794 71.3857 6.96679C71.3857 6.44474 70.9615 6.02051 70.4394 6.02051C69.9174 6.02051 69.4932 6.44474 69.4932 6.96679C69.4932 7.48794 69.9174 7.91217 70.4394 7.91217Z" fill="white"/>
<path d="M69.3174 8.81584C69.3777 8.87161 69.4124 8.95206 69.4124 9.03618L69.4124 9.88646C69.4124 9.93675 69.4536 9.97789 69.5039 9.97789L71.4623 9.97789L71.4623 9.27938C71.4623 9.22818 71.5034 9.18795 71.5537 9.18795C71.604 9.18795 71.6451 9.22818 71.6451 9.27938L71.6451 9.97789L72.1023 9.97789C72.1526 9.97789 72.1937 9.93675 72.1937 9.88646L72.1937 9.21172C72.1937 8.54978 71.6552 8.01126 70.9923 8.01126L70.1558 8.01126C69.9427 8.01126 69.7452 7.91618 69.6136 7.75161C69.2799 7.33652 68.9727 6.86292 68.6984 6.34361C68.6344 6.22201 68.521 6.13424 68.3875 6.10315C68.2531 6.07206 68.1123 6.10041 68.0008 6.18086C67.8115 6.31892 67.7503 6.57949 67.86 6.78612C68.3299 7.67755 68.8063 8.34132 69.3174 8.81584Z" fill="white"/>
</g>
</g>
<rect x="33" y="34" width="12" height="12" rx="6" fill="#ECB98D"/>
<g clip-path="url(#clip4_12278_32680)">
<path fill-rule="evenodd" clip-rule="evenodd" d="M36.876 38.251C36.876 37.9058 37.1558 37.626 37.501 37.626H40.501C40.8462 37.626 41.126 37.9058 41.126 38.251V39.751C41.126 40.0962 40.8462 40.376 40.501 40.376H37.501C37.1558 40.376 36.876 40.0962 36.876 39.751V38.251ZM38.8291 38.4235C38.7472 38.358 38.626 38.4163 38.626 38.5211V39.4808C38.626 39.5856 38.7472 39.6439 38.8291 39.5784L39.4289 39.0986C39.4914 39.0485 39.4914 38.9534 39.4289 38.9034L38.8291 38.4235Z" fill="white"/>
<path d="M39.5 41.2505C39.5 41.5264 39.2762 41.75 39 41.75C38.7239 41.75 38.5 41.5264 38.5 41.2505C38.5 40.9746 38.7239 40.751 39 40.751C39.2762 40.751 39.5 40.9746 39.5 41.2505Z" fill="white"/>
<path fill-rule="evenodd" clip-rule="evenodd" d="M39 41.75C39.2762 41.75 39.5 41.5264 39.5 41.2505C39.5 40.9746 39.2762 40.751 39 40.751C38.7239 40.751 38.5 40.9746 38.5 41.2505C38.5 41.5264 38.7239 41.75 39 41.75Z" fill="white"/>
<path d="M41.25 41.2505C41.25 41.5264 41.0261 41.75 40.75 41.75C40.4738 41.75 40.25 41.5264 40.25 41.2505C40.25 40.9746 40.4738 40.751 40.75 40.751C41.0261 40.751 41.25 40.9746 41.25 41.2505Z" fill="white"/>
<path fill-rule="evenodd" clip-rule="evenodd" d="M40.75 41.75C41.0261 41.75 41.25 41.5264 41.25 41.2505C41.25 40.9746 41.0261 40.751 40.75 40.751C40.4738 40.751 40.25 40.9746 40.25 41.2505C40.25 41.5264 40.4738 41.75 40.75 41.75Z" fill="white"/>
<path d="M37.75 41.2505C37.75 41.5264 37.5261 41.75 37.25 41.75C36.9739 41.75 36.75 41.5264 36.75 41.2505C36.75 40.9746 36.9739 40.751 37.25 40.751C37.5261 40.751 37.75 40.9746 37.75 41.2505Z" fill="white"/>
<path fill-rule="evenodd" clip-rule="evenodd" d="M37.25 41.75C37.5261 41.75 37.75 41.5264 37.75 41.2505C37.75 40.9746 37.5261 40.751 37.25 40.751C36.9739 40.751 36.75 40.9746 36.75 41.2505C36.75 41.5264 36.9739 41.75 37.25 41.75Z" fill="white"/>
<path fill-rule="evenodd" clip-rule="evenodd" d="M37.7501 42.5002C37.8881 42.5002 38.0042 42.3854 37.959 42.255C37.8573 41.9616 37.5783 41.751 37.2501 41.751C36.9218 41.751 36.6428 41.9616 36.5412 42.255C36.496 42.3854 36.612 42.5002 36.7501 42.5002H37.7501Z" fill="white"/>
<path fill-rule="evenodd" clip-rule="evenodd" d="M39.5001 42.5002C39.6382 42.5002 39.7542 42.3854 39.709 42.255C39.6073 41.9616 39.3283 41.751 39.0001 41.751C38.6718 41.751 38.3928 41.9616 38.2912 42.255C38.246 42.3854 38.362 42.5002 38.5001 42.5002H39.5001Z" fill="white"/>
<path fill-rule="evenodd" clip-rule="evenodd" d="M41.2501 42.5002C41.3881 42.5002 41.5041 42.3854 41.459 42.255C41.3573 41.9616 41.0783 41.751 40.7501 41.751C40.4218 41.751 40.1428 41.9616 40.0412 42.255C39.996 42.3854 40.112 42.5002 40.2501 42.5002H41.2501Z" fill="white"/>
</g>
<rect x="54" y="21" width="36" height="36" rx="18" fill="white"/>
<path d="M80.6102 33.2127H77.2995V32.5716C77.2996 32.5322 77.2892 32.4934 77.2695 32.4593C77.2498 32.4251 77.2214 32.3967 77.1872 32.377L72.1126 29.4471C72.0784 29.4274 72.0397 29.417 72.0003 29.417C71.9608 29.417 71.9221 29.4274 71.888 29.4471L66.8133 32.3771C66.7791 32.3968 66.7507 32.4252 66.731 32.4594C66.7113 32.4935 66.7009 32.5323 66.701 32.5718V33.2129H63.3903C63.1322 33.2131 62.8848 33.3158 62.7024 33.4982C62.5199 33.6807 62.4173 33.9281 62.417 34.1862V45.2099C62.4173 45.4679 62.5199 45.7153 62.7024 45.8978C62.8849 46.0803 63.1322 46.1829 63.3903 46.1832H70.6757V47.1213H69.584C69.4207 47.1215 69.2642 47.1864 69.1487 47.3019C69.0332 47.4173 68.9683 47.5738 68.9681 47.7371V48.3591C68.9681 48.4186 68.9917 48.4758 69.0338 48.5179C69.076 48.56 69.1331 48.5837 69.1927 48.5837H74.8079C74.8674 48.5837 74.9245 48.56 74.9667 48.5179C75.0088 48.4758 75.0325 48.4186 75.0325 48.3591V47.7371C75.0323 47.5738 74.9673 47.4172 74.8519 47.3018C74.7364 47.1863 74.5798 47.1213 74.4165 47.1212H73.3248V46.1831H80.6102C80.8683 46.1828 81.1157 46.0801 81.2981 45.8977C81.4806 45.7152 81.5832 45.4678 81.5835 45.2098V34.186C81.5832 33.928 81.4806 33.6806 81.2981 33.4981C81.1157 33.3157 80.8683 33.213 80.6102 33.2127ZM67.1502 36.1177V32.9607L71.7756 35.6313V40.9722L67.1502 38.3017V36.1177ZM72.2249 35.6313L76.8503 32.9607V38.3017L72.2249 40.9722V35.6313ZM72.0003 29.9011L76.6257 32.5716L72.0003 35.242L67.3748 32.5716L72.0003 29.9011ZM74.5832 47.7371V48.1344H69.4173V47.7371C69.4173 47.6929 69.4349 47.6505 69.4662 47.6193C69.4974 47.588 69.5398 47.5704 69.584 47.5704H74.4165C74.4607 47.5704 74.5031 47.588 74.5344 47.6193C74.5656 47.6505 74.5832 47.6929 74.5832 47.7371ZM72.8755 47.1212H71.125V46.1831H72.8756L72.8755 47.1212ZM81.1343 45.2098C81.1342 45.3487 81.0789 45.482 80.9806 45.5802C80.8824 45.6785 80.7492 45.7337 80.6102 45.7339H63.3903C63.2513 45.7337 63.1181 45.6785 63.0199 45.5802C62.9216 45.482 62.8664 45.3487 62.8662 45.2098V34.186C62.8664 34.0471 62.9216 33.9139 63.0199 33.8156C63.1181 33.7174 63.2513 33.6621 63.3903 33.662H66.701V35.9897C65.3196 36.7964 64.5604 37.8689 64.5604 39.0201C64.5604 40.0374 65.1753 41.0215 66.2918 41.791C67.3273 42.5046 68.7541 43.0081 70.3236 43.2157L70.2999 43.9298C70.2985 43.971 70.3085 44.0119 70.3288 44.0478C70.3491 44.0838 70.3789 44.1134 70.415 44.1335C70.451 44.1536 70.4919 44.1634 70.5331 44.1618C70.5744 44.1602 70.6144 44.1473 70.6488 44.1244L71.8826 43.3046C71.912 43.2851 71.9364 43.2589 71.9538 43.2282C71.9712 43.1975 71.9811 43.1632 71.9827 43.1279C71.9844 43.0927 71.9777 43.0576 71.9632 43.0254C71.9487 42.9932 71.9269 42.9649 71.8994 42.9427L70.724 41.9943C70.6915 41.9681 70.6523 41.9514 70.6109 41.9462C70.5694 41.941 70.5274 41.9475 70.4894 41.9649C70.4515 41.9823 70.4191 42.0099 70.396 42.0446C70.3728 42.0794 70.3598 42.1199 70.3584 42.1616L70.3385 42.7643C67.2391 42.3433 65.0096 40.786 65.0096 39.0201C65.0096 38.0971 65.6069 37.2179 66.701 36.5162V38.4314C66.7009 38.4708 66.7113 38.5096 66.731 38.5438C66.7507 38.5779 66.7791 38.6063 66.8133 38.6261L71.888 41.5557C71.9221 41.5754 71.9608 41.5858 72.0003 41.5858C72.0397 41.5858 72.0784 41.5754 72.1126 41.5557L77.1872 38.6261C77.2214 38.6063 77.2498 38.5779 77.2695 38.5438C77.2892 38.5096 77.2996 38.4708 77.2995 38.4314V36.5162C78.3936 37.2179 78.9909 38.0971 78.9909 39.0201C78.9909 41.0303 76.144 42.7192 72.5097 42.8651C72.4502 42.8663 72.3935 42.8911 72.3522 42.934C72.3109 42.977 72.2884 43.0346 72.2896 43.0941C72.2908 43.1537 72.3156 43.2104 72.3585 43.2517C72.4015 43.2929 72.4591 43.3155 72.5186 43.3143C72.5217 43.3143 72.5248 43.3143 72.5278 43.3143C74.3812 43.2398 76.1069 42.7727 77.3868 41.9989C78.7108 41.1986 79.44 40.1408 79.44 39.0204C79.44 37.8691 78.6809 36.7968 77.2994 35.9901V33.662H80.6102C80.7492 33.6621 80.8824 33.7174 80.9806 33.8156C81.0789 33.9139 81.1342 34.0471 81.1343 34.186V45.2098ZM70.7633 43.5088L70.7924 42.6267L71.3788 43.0999L70.7633 43.5088Z" fill="#202126" stroke="#202126" stroke-width="0.166667"/>
<path fill-rule="evenodd" clip-rule="evenodd" d="M77.3007 33.2118V32.5707C77.3007 32.5312 77.2903 32.4924 77.2706 32.4583C77.2509 32.4241 77.2225 32.3957 77.1884 32.376L72.1137 29.4461C72.0795 29.4264 72.0408 29.416 72.0014 29.416C71.962 29.416 71.9232 29.4264 71.8891 29.4461L66.8144 32.3761C66.7802 32.3958 66.7519 32.4242 66.7322 32.4584C66.7125 32.4926 66.7021 32.5313 66.7021 32.5708V33.2119V33.661V35.9887C65.3208 36.7955 64.5615 37.868 64.5615 39.0191C64.5615 40.0364 65.1765 41.0205 66.293 41.79C67.3284 42.5036 68.7552 43.0071 70.3247 43.2147L70.3011 43.9288C70.2997 43.9701 70.3097 44.0109 70.33 44.0468C70.3503 44.0828 70.3801 44.1124 70.4161 44.1325C70.4521 44.1527 70.493 44.1625 70.5343 44.1609C70.5755 44.1593 70.6155 44.1463 70.6499 44.1235L71.8838 43.3037C71.9132 43.2841 71.9375 43.258 71.9549 43.2273C71.9723 43.1966 71.9822 43.1622 71.9839 43.127C71.9855 43.0917 71.9788 43.0566 71.9643 43.0244C71.9498 42.9922 71.928 42.9639 71.9005 42.9418L70.7251 41.9933C70.6926 41.9671 70.6534 41.9504 70.612 41.9452C70.5706 41.94 70.5285 41.9465 70.4906 41.9639C70.4526 41.9813 70.4202 42.0089 70.3971 42.0437C70.374 42.0784 70.361 42.1189 70.3596 42.1607L70.3396 42.7634C67.2402 42.3423 65.0107 40.7851 65.0107 39.0191C65.0107 38.0961 65.6081 37.217 66.7021 36.5153V38.4304C66.7021 38.4699 66.7125 38.5086 66.7322 38.5428C66.7519 38.577 66.7802 38.6053 66.8144 38.6251L71.8891 41.5547C71.9232 41.5745 71.962 41.5848 72.0014 41.5848C72.0408 41.5848 72.0795 41.5745 72.1137 41.5547L77.1884 38.6251C77.2225 38.6053 77.2509 38.577 77.2706 38.5428C77.2903 38.5086 77.3007 38.4699 77.3007 38.4304V36.5153C78.3947 37.217 78.992 38.0961 78.992 39.0191C78.992 41.0293 76.1452 42.7182 72.5109 42.8641C72.4513 42.8653 72.3946 42.8901 72.3534 42.933C72.3121 42.976 72.2895 43.0336 72.2907 43.0932C72.2919 43.1527 72.3167 43.2094 72.3597 43.2507C72.4026 43.292 72.4602 43.3145 72.5198 43.3133H72.5289C74.3824 43.2389 76.1081 42.7717 77.3879 41.998C78.712 41.1976 79.4411 40.1398 79.4411 39.0194C79.4411 37.8681 78.682 36.7958 77.3005 35.9891V33.661L77.3007 33.2118ZM72.0011 29.9002L76.6266 32.5707L72.0011 35.2411L67.3757 32.5707L72.0011 29.9002ZM76.8514 32.9601L72.2259 35.6307V40.9717L76.8514 38.3011V32.9601ZM67.1299 38.3006L71.7553 40.9712V35.6302L67.1299 32.9597V38.3006Z" fill="#FC3A52"/>
<path d="M77.3007 32.5707L77.2173 32.5706V32.5707H77.3007ZM77.3007 33.2118L77.384 33.2118V33.2118H77.3007ZM77.2706 32.4583L77.3428 32.4166L77.3428 32.4166L77.2706 32.4583ZM77.1884 32.376L77.1467 32.4482L77.1467 32.4482L77.1884 32.376ZM72.1137 29.4461L72.1554 29.3739L72.1554 29.3739L72.1137 29.4461ZM71.8891 29.4461L71.8474 29.3739L71.8474 29.3739L71.8891 29.4461ZM66.8144 32.3761L66.8561 32.4483L66.8561 32.4483L66.8144 32.3761ZM66.7322 32.4584L66.8043 32.5L66.8043 32.5L66.7322 32.4584ZM66.7021 32.5708L66.7854 32.5708L66.7854 32.5707L66.7021 32.5708ZM66.7021 35.9887L66.7441 36.0607L66.7854 36.0366V35.9887H66.7021ZM66.293 41.79L66.2457 41.8586L66.2457 41.8586L66.293 41.79ZM70.3247 43.2147L70.408 43.2175L70.4105 43.142L70.3356 43.1321L70.3247 43.2147ZM70.3011 43.9288L70.3844 43.9316L70.3844 43.9316L70.3011 43.9288ZM70.33 44.0468L70.4025 44.0059L70.4025 44.0059L70.33 44.0468ZM70.4161 44.1325L70.3755 44.2053L70.3755 44.2053L70.4161 44.1325ZM70.5343 44.1609L70.5375 44.2441L70.5375 44.2441L70.5343 44.1609ZM70.6499 44.1235L70.6038 44.0541L70.6038 44.0541L70.6499 44.1235ZM71.8838 43.3037L71.8377 43.2342L71.8377 43.2342L71.8838 43.3037ZM71.9549 43.2273L71.8824 43.1862L71.8824 43.1862L71.9549 43.2273ZM71.9005 42.9418L71.9529 42.8769L71.9529 42.8769L71.9005 42.9418ZM70.7251 41.9933L70.7774 41.9284L70.7774 41.9284L70.7251 41.9933ZM70.4906 41.9639L70.4559 41.8881L70.4559 41.8881L70.4906 41.9639ZM70.3971 42.0437L70.4665 42.0898L70.4665 42.0898L70.3971 42.0437ZM70.3596 42.1607L70.2763 42.1579L70.2763 42.1579L70.3596 42.1607ZM70.3396 42.7634L70.3284 42.8459L70.4199 42.8584L70.4229 42.7661L70.3396 42.7634ZM66.7021 36.5153H66.7854V36.3628L66.6571 36.4451L66.7021 36.5153ZM66.7021 38.4304L66.7854 38.4305V38.4304H66.7021ZM66.8144 38.6251L66.7727 38.6972L66.7727 38.6972L66.8144 38.6251ZM71.8891 41.5547L71.9308 41.4826L71.9308 41.4826L71.8891 41.5547ZM72.1137 41.5547L72.072 41.4826L72.072 41.4826L72.1137 41.5547ZM77.1884 38.6251L77.23 38.6972L77.23 38.6972L77.1884 38.6251ZM77.3007 38.4304H77.2173L77.2173 38.4305L77.3007 38.4304ZM77.3007 36.5153L77.3457 36.4451L77.2173 36.3628V36.5153H77.3007ZM72.5109 42.8641L72.5125 42.9474L72.5142 42.9474L72.5109 42.8641ZM72.3534 42.933L72.4134 42.9908L72.4134 42.9908L72.3534 42.933ZM72.2907 43.0932L72.2074 43.0948L72.2074 43.0948L72.2907 43.0932ZM72.3597 43.2507L72.4174 43.1906L72.4174 43.1906L72.3597 43.2507ZM72.5198 43.3133V43.23L72.5181 43.23L72.5198 43.3133ZM72.5289 43.3133V43.3967L72.5323 43.3966L72.5289 43.3133ZM77.3879 41.998L77.3448 41.9267L77.3448 41.9267L77.3879 41.998ZM77.3005 35.9891H77.2172V36.0369L77.2585 36.061L77.3005 35.9891ZM77.3005 33.661L77.2172 33.661V33.661H77.3005ZM76.6266 32.5707L76.6682 32.6429L76.7932 32.5707L76.6682 32.4986L76.6266 32.5707ZM72.0011 29.9002L72.0428 29.8281L72.0011 29.804L71.9594 29.8281L72.0011 29.9002ZM72.0011 35.2411L71.9594 35.3133L72.0011 35.3373L72.0428 35.3133L72.0011 35.2411ZM67.3757 32.5707L67.334 32.4986L67.209 32.5707L67.334 32.6429L67.3757 32.5707ZM72.2259 35.6307L72.1842 35.5586L72.1426 35.5826V35.6307H72.2259ZM76.8514 32.9601H76.9347V32.8158L76.8097 32.888L76.8514 32.9601ZM72.2259 40.9717H72.1426V41.116L72.2676 41.0438L72.2259 40.9717ZM76.8514 38.3011L76.893 38.3733L76.9347 38.3493V38.3011H76.8514ZM71.7553 40.9712L71.7137 41.0434L71.8387 41.1155V40.9712H71.7553ZM67.1299 38.3006H67.0465V38.3487L67.0882 38.3727L67.1299 38.3006ZM71.7553 35.6302H71.8387V35.5821L71.797 35.558L71.7553 35.6302ZM67.1299 32.9597L67.1715 32.8875L67.0465 32.8153V32.9597H67.1299ZM67.1513 32.9597L67.193 32.8875L67.068 32.8153V32.9597H67.1513ZM71.7768 35.6303H71.8601V35.5822L71.8185 35.5581L71.7768 35.6303ZM71.7768 40.9712L71.7351 41.0434L71.8601 41.1156V40.9712H71.7768ZM72.226 35.6303L72.1843 35.5581L72.1427 35.5822V35.6303H72.226ZM76.8515 32.9597H76.9348V32.8153L76.8098 32.8875L76.8515 32.9597ZM76.8515 38.3007L76.8931 38.3729L76.9348 38.3489V38.3007H76.8515ZM72.0014 29.9001L72.0431 29.8279L72.0014 29.8039L71.9598 29.8279L72.0014 29.9001ZM76.6268 32.5706L76.6685 32.6428L76.7935 32.5706L76.6685 32.4985L76.6268 32.5706ZM72.0014 35.241L71.9596 35.3131L72.0013 35.3373L72.0431 35.3132L72.0014 35.241ZM70.7644 43.5079L70.6811 43.5051L70.6758 43.6668L70.8105 43.5773L70.7644 43.5079ZM70.7936 42.6257L70.8459 42.5609L70.7158 42.4559L70.7103 42.623L70.7936 42.6257ZM71.3799 43.0989L71.4261 43.1683L71.5207 43.1054L71.4323 43.0341L71.3799 43.0989ZM77.2173 32.5707V33.2118H77.384V32.5707H77.2173ZM77.1984 32.4999C77.2108 32.5214 77.2174 32.5458 77.2173 32.5706L77.384 32.5707C77.384 32.5166 77.3698 32.4635 77.3428 32.4166L77.1984 32.4999ZM77.1467 32.4482C77.1682 32.4606 77.186 32.4784 77.1984 32.4999L77.3428 32.4166C77.3158 32.3698 77.2769 32.3309 77.23 32.3038L77.1467 32.4482ZM72.072 29.5183L77.1467 32.4482L77.23 32.3038L72.1554 29.3739L72.072 29.5183ZM72.0014 29.4993C72.0262 29.4993 72.0506 29.5059 72.072 29.5183L72.1554 29.3739C72.1085 29.3469 72.0554 29.3327 72.0014 29.3327V29.4993ZM71.9308 29.5183C71.9522 29.5059 71.9766 29.4993 72.0014 29.4993V29.3327C71.9473 29.3327 71.8942 29.3469 71.8474 29.3739L71.9308 29.5183ZM66.8561 32.4483L71.9308 29.5183L71.8474 29.3739L66.7727 32.3039L66.8561 32.4483ZM66.8043 32.5C66.8167 32.4785 66.8346 32.4607 66.8561 32.4483L66.7727 32.3039C66.7259 32.331 66.687 32.3699 66.66 32.4167L66.8043 32.5ZM66.7854 32.5707C66.7854 32.5459 66.7919 32.5215 66.8043 32.5L66.66 32.4167C66.633 32.4636 66.6187 32.5167 66.6188 32.5708L66.7854 32.5707ZM66.7854 33.2119V32.5708H66.6188V33.2119H66.7854ZM66.7854 33.661V33.2119H66.6188V33.661H66.7854ZM66.7854 35.9887V33.661H66.6188V35.9887H66.7854ZM64.6449 39.0191C64.6449 37.9086 65.3771 36.8591 66.7441 36.0607L66.6601 35.9168C65.2644 36.7319 64.4782 37.8273 64.4782 39.0191H64.6449ZM66.3403 41.7214C65.238 40.9617 64.6449 40.0003 64.6449 39.0191H64.4782C64.4782 40.0725 65.1149 41.0792 66.2457 41.8586L66.3403 41.7214ZM70.3356 43.1321C68.7758 42.9258 67.3624 42.4258 66.3403 41.7214L66.2457 41.8586C67.2944 42.5814 68.7346 43.0885 70.3138 43.2974L70.3356 43.1321ZM70.3844 43.9316L70.408 43.2175L70.2414 43.212L70.2178 43.9261L70.3844 43.9316ZM70.4025 44.0059C70.3898 43.9833 70.3835 43.9576 70.3844 43.9316L70.2178 43.926C70.2159 43.9825 70.2296 44.0385 70.2574 44.0878L70.4025 44.0059ZM70.4567 44.0598C70.434 44.0471 70.4153 44.0285 70.4025 44.0059L70.2574 44.0878C70.2852 44.1371 70.3261 44.1777 70.3755 44.2053L70.4567 44.0598ZM70.531 44.0776C70.5051 44.0786 70.4794 44.0724 70.4567 44.0598L70.3755 44.2053C70.4249 44.2329 70.481 44.2463 70.5375 44.2441L70.531 44.0776ZM70.6038 44.0541C70.5821 44.0684 70.557 44.0766 70.531 44.0776L70.5375 44.2441C70.594 44.2419 70.6489 44.2242 70.696 44.1929L70.6038 44.0541ZM71.8377 43.2342L70.6038 44.0541L70.696 44.1929L71.9299 43.3731L71.8377 43.2342ZM71.8824 43.1862C71.8715 43.2055 71.8561 43.222 71.8377 43.2342L71.9299 43.3731C71.9702 43.3463 72.0036 43.3104 72.0274 43.2683L71.8824 43.1862ZM71.9006 43.1231C71.8996 43.1453 71.8933 43.1669 71.8824 43.1862L72.0274 43.2683C72.0513 43.2262 72.0649 43.1791 72.0671 43.1308L71.9006 43.1231ZM71.8883 43.0586C71.8974 43.0788 71.9016 43.1009 71.9006 43.1231L72.0671 43.1308C72.0693 43.0825 72.0602 43.0343 72.0403 42.9902L71.8883 43.0586ZM71.8482 43.0066C71.8655 43.0206 71.8792 43.0384 71.8883 43.0586L72.0403 42.9902C72.0205 42.9461 71.9905 42.9073 71.9529 42.8769L71.8482 43.0066ZM70.6728 42.0581L71.8482 43.0066L71.9529 42.8769L70.7774 41.9284L70.6728 42.0581ZM70.6016 42.0279C70.6277 42.0312 70.6523 42.0417 70.6728 42.0582L70.7774 41.9284C70.7329 41.8925 70.6792 41.8697 70.6224 41.8626L70.6016 42.0279ZM70.5253 42.0397C70.5491 42.0287 70.5756 42.0247 70.6016 42.0279L70.6224 41.8626C70.5656 41.8554 70.5079 41.8643 70.4559 41.8881L70.5253 42.0397ZM70.4665 42.0898C70.481 42.068 70.5014 42.0506 70.5253 42.0397L70.4559 41.8881C70.4038 41.912 70.3594 41.9498 70.3277 41.9975L70.4665 42.0898ZM70.4429 42.1634C70.4437 42.1372 70.4519 42.1117 70.4665 42.0898L70.3277 41.9975C70.296 42.0451 70.2782 42.1007 70.2763 42.1579L70.4429 42.1634ZM70.4229 42.7661L70.4429 42.1634L70.2763 42.1579L70.2563 42.7606L70.4229 42.7661ZM64.9274 39.0191C64.9274 39.9396 65.5082 40.7926 66.465 41.4638C67.4231 42.1358 68.7687 42.6341 70.3284 42.8459L70.3508 42.6808C68.8111 42.4716 67.4923 41.9807 66.5607 41.3273C65.628 40.6731 65.0941 39.8645 65.0941 39.0191H64.9274ZM66.6571 36.4451C65.5501 37.1551 64.9274 38.0568 64.9274 39.0191H65.0941C65.0941 38.1354 65.666 37.2788 66.7471 36.5854L66.6571 36.4451ZM66.7854 38.4304V36.5153H66.6188V38.4304H66.7854ZM66.8043 38.5012C66.7919 38.4797 66.7854 38.4553 66.7854 38.4305L66.6188 38.4304C66.6187 38.4844 66.633 38.5376 66.66 38.5844L66.8043 38.5012ZM66.8561 38.5529C66.8346 38.5405 66.8167 38.5227 66.8043 38.5012L66.66 38.5844C66.687 38.6313 66.7259 38.6702 66.7727 38.6972L66.8561 38.5529ZM71.9308 41.4826L66.8561 38.5529L66.7727 38.6972L71.8474 41.6269L71.9308 41.4826ZM72.0014 41.5015C71.9766 41.5015 71.9522 41.495 71.9308 41.4826L71.8474 41.6269C71.8942 41.6539 71.9473 41.6682 72.0014 41.6682V41.5015ZM72.072 41.4826C72.0506 41.495 72.0262 41.5015 72.0014 41.5015V41.6682C72.0554 41.6682 72.1085 41.6539 72.1554 41.6269L72.072 41.4826ZM77.1467 38.5529L72.072 41.4826L72.1554 41.6269L77.23 38.6972L77.1467 38.5529ZM77.1984 38.5012C77.186 38.5227 77.1682 38.5405 77.1467 38.5529L77.23 38.6972C77.2769 38.6702 77.3158 38.6313 77.3428 38.5844L77.1984 38.5012ZM77.2173 38.4305C77.2174 38.4553 77.2108 38.4797 77.1984 38.5012L77.3428 38.5844C77.3698 38.5376 77.384 38.4845 77.384 38.4304L77.2173 38.4305ZM77.2173 36.5153V38.4304H77.384V36.5153H77.2173ZM79.0754 39.0191C79.0754 38.0568 78.4526 37.1551 77.3457 36.4451L77.2557 36.5854C78.3367 37.2788 78.9087 38.1354 78.9087 39.0191H79.0754ZM72.5142 42.9474C74.3423 42.874 75.9767 42.4125 77.1568 41.7124C78.3345 41.0137 79.0754 40.0666 79.0754 39.0191H78.9087C78.9087 39.9818 78.2261 40.8842 77.0718 41.569C75.9199 42.2524 74.3137 42.7083 72.5075 42.7808L72.5142 42.9474ZM72.4134 42.9908C72.4394 42.9638 72.4751 42.9482 72.5125 42.9474L72.5092 42.7808C72.4276 42.7824 72.3499 42.8164 72.2933 42.8753L72.4134 42.9908ZM72.374 43.0915C72.3733 43.054 72.3875 43.0178 72.4134 42.9908L72.2933 42.8753C72.2367 42.9342 72.2058 43.0131 72.2074 43.0948L72.374 43.0915ZM72.4174 43.1906C72.3904 43.1646 72.3748 43.129 72.374 43.0915L72.2074 43.0948C72.209 43.1765 72.243 43.2542 72.3019 43.3108L72.4174 43.1906ZM72.5181 43.23C72.4807 43.2307 72.4444 43.2166 72.4174 43.1906L72.3019 43.3108C72.3608 43.3674 72.4398 43.3982 72.5214 43.3966L72.5181 43.23ZM72.5289 43.23H72.5198V43.3966H72.5289V43.23ZM77.3448 41.9267C76.0796 42.6916 74.3683 43.156 72.5256 43.23L72.5323 43.3966C74.3964 43.3217 76.1366 42.8519 77.431 42.0693L77.3448 41.9267ZM79.3578 39.0194C79.3578 40.1001 78.6545 41.135 77.3448 41.9267L77.431 42.0693C78.7694 41.2602 79.5244 40.1795 79.5244 39.0194H79.3578ZM77.2585 36.061C78.6257 36.8594 79.3578 37.9088 79.3578 39.0194H79.5244C79.5244 37.8274 78.7384 36.7322 77.3425 35.9171L77.2585 36.061ZM77.2172 33.661V35.9891H77.3839V33.661H77.2172ZM77.2173 33.2117L77.2172 33.661L77.3839 33.661L77.384 33.2118L77.2173 33.2117ZM76.6682 32.4986L72.0428 29.8281L71.9594 29.9724L76.5849 32.6429L76.6682 32.4986ZM72.0428 35.3133L76.6682 32.6429L76.5849 32.4986L71.9594 35.1689L72.0428 35.3133ZM67.334 32.6429L71.9594 35.3133L72.0428 35.1689L67.4173 32.4986L67.334 32.6429ZM71.9594 29.8281L67.334 32.4986L67.4173 32.6429L72.0428 29.9724L71.9594 29.8281ZM72.2676 35.7029L76.893 33.0323L76.8097 32.888L72.1842 35.5586L72.2676 35.7029ZM72.3092 40.9717V35.6307H72.1426V40.9717H72.3092ZM76.8097 38.229L72.1842 40.8995L72.2676 41.0438L76.893 38.3733L76.8097 38.229ZM76.768 32.9601V38.3011H76.9347V32.9601H76.768ZM71.797 40.899L67.1716 38.2284L67.0882 38.3727L71.7137 41.0434L71.797 40.899ZM71.672 35.6302V40.9712H71.8387V35.6302H71.672ZM67.0882 33.0318L71.7137 35.7023L71.797 35.558L67.1715 32.8875L67.0882 33.0318ZM67.2132 38.3006V32.9597H67.0465V38.3006H67.2132ZM67.2347 32.972V32.9597H67.068V32.972H67.2347ZM67.1097 33.0319L71.7351 35.7025L71.8185 35.5581L67.193 32.8875L67.1097 33.0319ZM71.6934 35.6303V40.9712H71.8601V35.6303H71.6934ZM71.8185 40.899L71.797 40.8867L71.7137 41.031L71.7351 41.0434L71.8185 40.899ZM72.2677 35.7025L76.8931 33.0319L76.8098 32.8875L72.1843 35.5581L72.2677 35.7025ZM76.7681 32.9597V38.3007H76.9348V32.9597H76.7681ZM76.8099 38.2285L76.8098 38.2285L76.893 38.373L76.8931 38.3729L76.8099 38.2285ZM72.3093 35.6307V35.6303H72.1427V35.6307H72.3093ZM71.9597 29.9723L76.5852 32.6428L76.6685 32.4985L72.0431 29.8279L71.9597 29.9723ZM76.5852 32.4985L71.9597 35.1688L72.0431 35.3132L76.6685 32.6428L76.5852 32.4985ZM72.0432 35.1689L72.0431 35.1689L71.9596 35.3131L71.9596 35.3131L72.0432 35.1689ZM72.0428 29.9724L72.043 29.9723L71.9598 29.8279L71.9595 29.8281L72.0428 29.9724ZM70.8477 43.5106L70.8769 42.6285L70.7103 42.623L70.6811 43.5051L70.8477 43.5106ZM70.7412 42.6906L71.3276 43.1638L71.4323 43.0341L70.8459 42.5609L70.7412 42.6906ZM71.3338 43.0295L70.7183 43.4384L70.8105 43.5773L71.4261 43.1683L71.3338 43.0295Z" fill="#FC3A52"/>
</g>
<defs>
<linearGradient id="paint0_linear_12278_32680" x1="140" y1="3.8404e-06" x2="-1.65681" y2="76.95" gradientUnits="userSpaceOnUse">
<stop stop-color="#ECD2BC"/>
<stop offset="1" stop-color="#FDF9EF"/>
</linearGradient>
<linearGradient id="paint1_linear_12278_32680" x1="89.76" y1="60.2045" x2="69.6117" y2="64.9039" gradientUnits="userSpaceOnUse">
<stop stop-color="#EE6D00"/>
<stop offset="1" stop-color="#FFE6B0"/>
</linearGradient>
<linearGradient id="paint2_linear_12278_32680" x1="89" y1="58" x2="67" y2="62.5" gradientUnits="userSpaceOnUse">
<stop stop-color="#EE6D00"/>
<stop offset="1" stop-color="#FFE6B0"/>
</linearGradient>
<clipPath id="clip0_12278_32680">
<path d="M0 8C0 3.58172 3.58172 0 8 0H132C136.418 0 140 3.58172 140 8V80H0V8Z" fill="white"/>
</clipPath>
<clipPath id="clip1_12278_32680">
<rect width="6" height="6" fill="white" transform="translate(96 59)"/>
</clipPath>
<clipPath id="clip2_12278_32680">
<rect width="6" height="6" fill="white" transform="translate(67 5)"/>
</clipPath>
<clipPath id="clip3_12278_32680">
<rect width="5.48571" height="5.48571" fill="white" transform="translate(67.2568 5.25684)"/>
</clipPath>
<clipPath id="clip4_12278_32680">
<rect width="6" height="6" fill="white" transform="translate(36 37)"/>
</clipPath>
</defs>
</svg>
