<svg width="147" height="235" viewBox="0 0 147 235" fill="none" xmlns="http://www.w3.org/2000/svg">
<g opacity="0.2">
<mask id="path-1-inside-1_3830_65078" fill="white">
<path fill-rule="evenodd" clip-rule="evenodd" d="M0 223.159C0 225.251 0.641584 227.484 1.92475 229.153L2.58467 230.014C3.29959 230.858 4.06949 231.596 4.94938 232.228C5.24267 232.44 5.53597 232.65 5.86593 232.843L6.83747 233.406C7.80901 233.968 9.07386 234.39 10.2287 234.636C13.6016 235.374 16.5163 234.953 19.6326 233.705L26.7266 229.997C26.965 229.892 27.1116 229.785 27.3499 229.662C30.2096 228.274 33.0325 226.78 35.8921 225.409L52.0968 218.098L60.529 214.741C61.4822 214.372 62.4722 214.056 63.3887 213.687L66.2666 212.649C66.78 212.474 67.2565 212.333 67.7515 212.157C69.6945 211.437 71.711 210.874 73.6724 210.241C76.7154 209.258 81.4447 208.028 84.5793 207.306C90.0053 206.076 95.9812 204.952 101.609 204.53C103.827 204.372 106.008 204.195 108.226 204.213C108.667 204.213 108.85 204.16 109.198 204.143C109.913 204.125 110.389 204.213 111.086 204.213L120.398 204.81C122.745 205.11 125.036 205.391 127.345 205.813C129.546 206.217 131.745 206.603 133.889 207.113L137.116 207.869C140.269 208.625 143.257 209.539 146.337 210.418L149.361 211.366C150.332 211.718 151.305 211.999 152.312 212.333C155.483 213.387 159.333 214.759 162.358 216.007L166.574 217.694C167.051 217.887 167.49 218.063 167.931 218.256L177.518 222.439C177.958 222.615 178.379 222.861 178.819 223.054C179.314 223.265 179.717 223.458 180.175 223.669L192.678 229.785C192.952 229.909 193.117 230.014 193.356 230.137C193.796 230.348 194.18 230.542 194.639 230.787C194.877 230.91 195.005 230.998 195.262 231.121C197.059 231.965 198.671 233.037 200.56 233.705C203.749 234.848 208.112 234.795 211.155 233.388C212.016 232.985 212.86 232.598 213.648 232.053C215.646 230.665 217.259 228.907 218.194 226.71C219.368 223.916 219.203 221.261 218.066 218.502C217.626 217.448 216.929 216.077 216.434 214.952C215.902 213.739 215.427 212.579 214.822 211.384C214.235 210.206 213.776 208.959 213.208 207.781C212.915 207.183 212.676 206.621 212.402 206.006L210.788 202.455C210.514 201.823 210.256 201.279 209.982 200.681C209.707 200.083 209.468 199.521 209.176 198.906L204.336 188.184C204.061 187.587 203.822 187.024 203.53 186.409L198.69 175.689C198.14 174.476 197.609 173.281 197.059 172.086L189.011 154.228C187.472 150.608 185.693 147.076 184.135 143.473C183.622 142.295 183.036 141.083 182.54 139.905C180.744 135.704 178.691 131.609 176.894 127.392C175.098 123.174 173.027 119.061 171.23 114.842L167.986 107.671C167.711 107.091 167.454 106.511 167.179 105.896L161.533 93.383C161.001 92.1703 160.47 91.0277 159.92 89.8325L152.661 73.7158C151.066 70.1305 149.471 66.5451 147.803 62.9949L142.138 50.446C140.8 47.4758 139.407 44.5232 138.124 41.5354L130.847 25.4363C128.72 20.6733 126.594 15.8928 124.394 11.1474C123.441 9.07349 123.056 7.80814 121.754 5.9451C120.619 4.31056 119.042 2.86945 117.245 1.93787C115.541 1.02395 113.744 0.408818 111.783 0.14522C107.768 -0.399625 103.607 0.602234 100.381 2.92219C100.106 3.1155 99.9041 3.32636 99.6475 3.51967C99.0975 3.94149 98.8043 4.32821 98.3276 4.80277C98.126 4.99608 97.9243 5.27723 97.7593 5.48809C96.6045 6.98205 96.2195 8.03654 95.4313 9.72382C94.0565 12.6764 92.755 15.6643 91.3984 18.617C91.1235 19.2146 90.8669 19.777 90.592 20.3921C89.8037 22.2024 88.9422 23.9599 88.1539 25.7702C87.1273 28.1604 85.9725 30.4979 84.946 32.8882C84.7994 33.2046 84.6893 33.433 84.561 33.767C84.4144 34.1009 84.2677 34.3821 84.1394 34.6809C84.0111 34.9972 83.8644 35.2785 83.7361 35.5948L80.9132 41.8517C80.6199 42.4844 80.3815 43.0468 80.0883 43.6796C77.8885 48.4248 75.7622 53.2054 73.6357 57.9683L70.3911 65.1215C70.0979 65.7366 69.8596 66.299 69.5846 66.8966C69.3096 67.4941 69.053 68.0566 68.778 68.6717L59.8874 88.3386C59.6125 88.9537 59.3742 89.4985 59.0809 90.1138L54.2049 100.87C53.6183 102.065 53.1966 103.243 52.6101 104.438C51.6568 106.389 50.3004 109.517 49.3655 111.591L46.1575 118.726C45.6076 119.939 45.0393 121.134 44.5261 122.329C42.9863 125.932 41.2448 129.448 39.6683 133.051L34.0224 145.564C33.7474 146.197 33.4907 146.742 33.2158 147.339C32.4459 149.009 31.566 151.135 30.7961 152.735L29.183 156.285C27.8815 159.308 26.4517 162.279 25.1135 165.267C23.2621 169.431 21.319 173.544 19.4859 177.727C17.3961 182.525 15.0864 187.253 13.0151 192.051C12.7583 192.648 12.4468 193.281 12.1902 193.879C11.9335 194.494 11.6585 195.039 11.3836 195.654C10.8703 196.814 10.3387 198.097 9.77044 199.222L7.36907 204.565C7.11244 205.145 6.83748 205.725 6.56251 206.34C6.28754 206.99 6.03091 207.535 5.73761 208.168L1.70479 217.114C0.898221 219.188 0 220.628 0 223.159ZM68.5947 164.967C68.5947 165.758 68.833 166.585 69.3096 167.217L69.5479 167.533C69.8045 167.85 70.0979 168.131 70.4278 168.36C70.5378 168.43 70.6477 168.518 70.7761 168.588L71.1427 168.799C71.5094 169.01 71.9859 169.168 72.4076 169.256C73.6724 169.537 74.7539 169.379 75.9271 168.905L78.5851 167.516C78.6768 167.481 78.7317 167.428 78.8234 167.393C79.8866 166.865 80.9498 166.32 82.013 165.811L88.0623 163.087L91.2152 161.839C91.5635 161.699 91.9301 161.576 92.2784 161.452L93.3599 161.066C93.5432 160.996 93.7265 160.942 93.9099 160.872C94.643 160.609 95.3946 160.398 96.1279 160.152C97.2645 159.783 99.0242 159.326 100.197 159.062C102.232 158.605 104.45 158.183 106.558 158.025C107.383 157.955 108.208 157.902 109.033 157.902C109.198 157.902 109.272 157.884 109.4 157.884C109.674 157.884 109.84 157.902 110.096 157.902L113.578 158.131C114.459 158.254 115.32 158.341 116.182 158.5C117.007 158.641 117.832 158.798 118.638 158.991L119.848 159.273C121.021 159.554 122.14 159.906 123.295 160.222L124.431 160.574C124.797 160.697 125.165 160.802 125.531 160.942C126.722 161.347 128.152 161.839 129.289 162.314L130.866 162.947C131.03 163.017 131.213 163.087 131.378 163.157L134.971 164.722C135.136 164.792 135.302 164.88 135.466 164.95C135.649 165.02 135.796 165.09 135.98 165.178L140.654 167.463C140.764 167.516 140.819 167.551 140.91 167.603C141.076 167.692 141.222 167.762 141.387 167.85C141.478 167.903 141.515 167.92 141.626 167.973C142.286 168.289 142.909 168.693 143.606 168.94C144.797 169.361 146.428 169.343 147.565 168.816C147.894 168.658 148.206 168.518 148.499 168.307C149.252 167.797 149.857 167.13 150.204 166.303C150.645 165.267 150.59 164.264 150.149 163.245C149.985 162.841 149.727 162.331 149.544 161.927C149.343 161.47 149.159 161.031 148.94 160.591C148.72 160.152 148.554 159.694 148.335 159.238C148.225 159.009 148.133 158.798 148.042 158.57L147.437 157.234C147.327 157.006 147.234 156.795 147.143 156.566C147.033 156.338 146.942 156.127 146.85 155.898L145.035 151.892C144.925 151.663 144.834 151.452 144.741 151.224L142.927 147.216C142.725 146.759 142.524 146.32 142.322 145.863L139.316 139.184C138.729 137.831 138.069 136.512 137.501 135.159C137.318 134.72 137.097 134.263 136.896 133.824C136.218 132.259 135.466 130.731 134.788 129.148C134.11 127.567 133.34 126.038 132.68 124.456L131.471 121.784C131.36 121.556 131.268 121.346 131.177 121.117L129.069 116.441C128.868 115.985 128.665 115.563 128.464 115.106L125.751 109.077C125.146 107.742 124.56 106.406 123.936 105.071L121.809 100.378C121.315 99.2701 120.783 98.1637 120.306 97.0563L117.594 91.0277C116.806 89.2526 115.998 87.4598 115.192 85.6847C114.825 84.9114 114.679 84.4369 114.202 83.7514C113.781 83.1363 113.194 82.6091 112.516 82.2575C111.874 81.9237 111.215 81.6952 110.481 81.5897C108.978 81.3788 107.42 81.7654 106.228 82.6266C106.118 82.6969 106.045 82.7672 105.953 82.8551C105.752 83.0132 105.642 83.1539 105.458 83.3297C105.385 83.4 105.312 83.5053 105.238 83.5932C104.798 84.1557 104.67 84.5423 104.377 85.1751C103.864 86.2823 103.369 87.3895 102.874 88.4968C102.764 88.7253 102.672 88.9363 102.58 89.1647C102.287 89.8502 101.957 90.5004 101.664 91.1858C101.279 92.0826 100.857 92.9609 100.454 93.8392C100.399 93.9631 100.362 94.0508 100.307 94.1736C100.252 94.2965 100.197 94.4017 100.161 94.508C100.106 94.6309 100.069 94.7361 100.014 94.8589L98.9692 97.1967C98.8593 97.4248 98.7675 97.6363 98.6575 97.882C97.8327 99.6572 97.0444 101.45 96.2562 103.225L95.0464 105.896C94.9364 106.125 94.8448 106.336 94.7531 106.564C94.6615 106.793 94.5514 107.004 94.4597 107.232L91.1418 114.578C91.0319 114.807 90.9402 115.018 90.8486 115.247L89.0338 119.271C88.8139 119.728 88.6488 120.151 88.4289 120.607C88.0806 121.346 87.5673 122.505 87.2191 123.279L86.0275 125.95C85.8259 126.407 85.6059 126.847 85.4225 127.285C84.8544 128.64 84.1944 129.958 83.6078 131.293L81.4998 135.968C81.3897 136.197 81.2981 136.407 81.2064 136.636C80.9132 137.251 80.5831 138.06 80.3082 138.657L79.7033 139.993C79.2084 141.118 78.6767 142.225 78.1819 143.35C77.4853 144.914 76.752 146.443 76.0738 148.007C75.2855 149.8 74.424 151.557 73.6541 153.368C73.5624 153.596 73.4341 153.825 73.3425 154.053C73.2508 154.282 73.1407 154.493 73.0491 154.721C72.8475 155.16 72.6642 155.635 72.4442 156.056L71.546 158.061C71.4543 158.271 71.3443 158.499 71.2527 158.728C71.1427 158.974 71.0511 159.168 70.9411 159.414L69.4379 162.752C68.9246 163.474 68.5947 164.019 68.5947 164.967Z"/>
</mask>
<path fill-rule="evenodd" clip-rule="evenodd" d="M0 223.159C0 225.251 0.641584 227.484 1.92475 229.153L2.58467 230.014C3.29959 230.858 4.06949 231.596 4.94938 232.228C5.24267 232.44 5.53597 232.65 5.86593 232.843L6.83747 233.406C7.80901 233.968 9.07386 234.39 10.2287 234.636C13.6016 235.374 16.5163 234.953 19.6326 233.705L26.7266 229.997C26.965 229.892 27.1116 229.785 27.3499 229.662C30.2096 228.274 33.0325 226.78 35.8921 225.409L52.0968 218.098L60.529 214.741C61.4822 214.372 62.4722 214.056 63.3887 213.687L66.2666 212.649C66.78 212.474 67.2565 212.333 67.7515 212.157C69.6945 211.437 71.711 210.874 73.6724 210.241C76.7154 209.258 81.4447 208.028 84.5793 207.306C90.0053 206.076 95.9812 204.952 101.609 204.53C103.827 204.372 106.008 204.195 108.226 204.213C108.667 204.213 108.85 204.16 109.198 204.143C109.913 204.125 110.389 204.213 111.086 204.213L120.398 204.81C122.745 205.11 125.036 205.391 127.345 205.813C129.546 206.217 131.745 206.603 133.889 207.113L137.116 207.869C140.269 208.625 143.257 209.539 146.337 210.418L149.361 211.366C150.332 211.718 151.305 211.999 152.312 212.333C155.483 213.387 159.333 214.759 162.358 216.007L166.574 217.694C167.051 217.887 167.49 218.063 167.931 218.256L177.518 222.439C177.958 222.615 178.379 222.861 178.819 223.054C179.314 223.265 179.717 223.458 180.175 223.669L192.678 229.785C192.952 229.909 193.117 230.014 193.356 230.137C193.796 230.348 194.18 230.542 194.639 230.787C194.877 230.91 195.005 230.998 195.262 231.121C197.059 231.965 198.671 233.037 200.56 233.705C203.749 234.848 208.112 234.795 211.155 233.388C212.016 232.985 212.86 232.598 213.648 232.053C215.646 230.665 217.259 228.907 218.194 226.71C219.368 223.916 219.203 221.261 218.066 218.502C217.626 217.448 216.929 216.077 216.434 214.952C215.902 213.739 215.427 212.579 214.822 211.384C214.235 210.206 213.776 208.959 213.208 207.781C212.915 207.183 212.676 206.621 212.402 206.006L210.788 202.455C210.514 201.823 210.256 201.279 209.982 200.681C209.707 200.083 209.468 199.521 209.176 198.906L204.336 188.184C204.061 187.587 203.822 187.024 203.53 186.409L198.69 175.689C198.14 174.476 197.609 173.281 197.059 172.086L189.011 154.228C187.472 150.608 185.693 147.076 184.135 143.473C183.622 142.295 183.036 141.083 182.54 139.905C180.744 135.704 178.691 131.609 176.894 127.392C175.098 123.174 173.027 119.061 171.23 114.842L167.986 107.671C167.711 107.091 167.454 106.511 167.179 105.896L161.533 93.383C161.001 92.1703 160.47 91.0277 159.92 89.8325L152.661 73.7158C151.066 70.1305 149.471 66.5451 147.803 62.9949L142.138 50.446C140.8 47.4758 139.407 44.5232 138.124 41.5354L130.847 25.4363C128.72 20.6733 126.594 15.8928 124.394 11.1474C123.441 9.07349 123.056 7.80814 121.754 5.9451C120.619 4.31056 119.042 2.86945 117.245 1.93787C115.541 1.02395 113.744 0.408818 111.783 0.14522C107.768 -0.399625 103.607 0.602234 100.381 2.92219C100.106 3.1155 99.9041 3.32636 99.6475 3.51967C99.0975 3.94149 98.8043 4.32821 98.3276 4.80277C98.126 4.99608 97.9243 5.27723 97.7593 5.48809C96.6045 6.98205 96.2195 8.03654 95.4313 9.72382C94.0565 12.6764 92.755 15.6643 91.3984 18.617C91.1235 19.2146 90.8669 19.777 90.592 20.3921C89.8037 22.2024 88.9422 23.9599 88.1539 25.7702C87.1273 28.1604 85.9725 30.4979 84.946 32.8882C84.7994 33.2046 84.6893 33.433 84.561 33.767C84.4144 34.1009 84.2677 34.3821 84.1394 34.6809C84.0111 34.9972 83.8644 35.2785 83.7361 35.5948L80.9132 41.8517C80.6199 42.4844 80.3815 43.0468 80.0883 43.6796C77.8885 48.4248 75.7622 53.2054 73.6357 57.9683L70.3911 65.1215C70.0979 65.7366 69.8596 66.299 69.5846 66.8966C69.3096 67.4941 69.053 68.0566 68.778 68.6717L59.8874 88.3386C59.6125 88.9537 59.3742 89.4985 59.0809 90.1138L54.2049 100.87C53.6183 102.065 53.1966 103.243 52.6101 104.438C51.6568 106.389 50.3004 109.517 49.3655 111.591L46.1575 118.726C45.6076 119.939 45.0393 121.134 44.5261 122.329C42.9863 125.932 41.2448 129.448 39.6683 133.051L34.0224 145.564C33.7474 146.197 33.4907 146.742 33.2158 147.339C32.4459 149.009 31.566 151.135 30.7961 152.735L29.183 156.285C27.8815 159.308 26.4517 162.279 25.1135 165.267C23.2621 169.431 21.319 173.544 19.4859 177.727C17.3961 182.525 15.0864 187.253 13.0151 192.051C12.7583 192.648 12.4468 193.281 12.1902 193.879C11.9335 194.494 11.6585 195.039 11.3836 195.654C10.8703 196.814 10.3387 198.097 9.77044 199.222L7.36907 204.565C7.11244 205.145 6.83748 205.725 6.56251 206.34C6.28754 206.99 6.03091 207.535 5.73761 208.168L1.70479 217.114C0.898221 219.188 0 220.628 0 223.159ZM68.5947 164.967C68.5947 165.758 68.833 166.585 69.3096 167.217L69.5479 167.533C69.8045 167.85 70.0979 168.131 70.4278 168.36C70.5378 168.43 70.6477 168.518 70.7761 168.588L71.1427 168.799C71.5094 169.01 71.9859 169.168 72.4076 169.256C73.6724 169.537 74.7539 169.379 75.9271 168.905L78.5851 167.516C78.6768 167.481 78.7317 167.428 78.8234 167.393C79.8866 166.865 80.9498 166.32 82.013 165.811L88.0623 163.087L91.2152 161.839C91.5635 161.699 91.9301 161.576 92.2784 161.452L93.3599 161.066C93.5432 160.996 93.7265 160.942 93.9099 160.872C94.643 160.609 95.3946 160.398 96.1279 160.152C97.2645 159.783 99.0242 159.326 100.197 159.062C102.232 158.605 104.45 158.183 106.558 158.025C107.383 157.955 108.208 157.902 109.033 157.902C109.198 157.902 109.272 157.884 109.4 157.884C109.674 157.884 109.84 157.902 110.096 157.902L113.578 158.131C114.459 158.254 115.32 158.341 116.182 158.5C117.007 158.641 117.832 158.798 118.638 158.991L119.848 159.273C121.021 159.554 122.14 159.906 123.295 160.222L124.431 160.574C124.797 160.697 125.165 160.802 125.531 160.942C126.722 161.347 128.152 161.839 129.289 162.314L130.866 162.947C131.03 163.017 131.213 163.087 131.378 163.157L134.971 164.722C135.136 164.792 135.302 164.88 135.466 164.95C135.649 165.02 135.796 165.09 135.98 165.178L140.654 167.463C140.764 167.516 140.819 167.551 140.91 167.603C141.076 167.692 141.222 167.762 141.387 167.85C141.478 167.903 141.515 167.92 141.626 167.973C142.286 168.289 142.909 168.693 143.606 168.94C144.797 169.361 146.428 169.343 147.565 168.816C147.894 168.658 148.206 168.518 148.499 168.307C149.252 167.797 149.857 167.13 150.204 166.303C150.645 165.267 150.59 164.264 150.149 163.245C149.985 162.841 149.727 162.331 149.544 161.927C149.343 161.47 149.159 161.031 148.94 160.591C148.72 160.152 148.554 159.694 148.335 159.238C148.225 159.009 148.133 158.798 148.042 158.57L147.437 157.234C147.327 157.006 147.234 156.795 147.143 156.566C147.033 156.338 146.942 156.127 146.85 155.898L145.035 151.892C144.925 151.663 144.834 151.452 144.741 151.224L142.927 147.216C142.725 146.759 142.524 146.32 142.322 145.863L139.316 139.184C138.729 137.831 138.069 136.512 137.501 135.159C137.318 134.72 137.097 134.263 136.896 133.824C136.218 132.259 135.466 130.731 134.788 129.148C134.11 127.567 133.34 126.038 132.68 124.456L131.471 121.784C131.36 121.556 131.268 121.346 131.177 121.117L129.069 116.441C128.868 115.985 128.665 115.563 128.464 115.106L125.751 109.077C125.146 107.742 124.56 106.406 123.936 105.071L121.809 100.378C121.315 99.2701 120.783 98.1637 120.306 97.0563L117.594 91.0277C116.806 89.2526 115.998 87.4598 115.192 85.6847C114.825 84.9114 114.679 84.4369 114.202 83.7514C113.781 83.1363 113.194 82.6091 112.516 82.2575C111.874 81.9237 111.215 81.6952 110.481 81.5897C108.978 81.3788 107.42 81.7654 106.228 82.6266C106.118 82.6969 106.045 82.7672 105.953 82.8551C105.752 83.0132 105.642 83.1539 105.458 83.3297C105.385 83.4 105.312 83.5053 105.238 83.5932C104.798 84.1557 104.67 84.5423 104.377 85.1751C103.864 86.2823 103.369 87.3895 102.874 88.4968C102.764 88.7253 102.672 88.9363 102.58 89.1647C102.287 89.8502 101.957 90.5004 101.664 91.1858C101.279 92.0826 100.857 92.9609 100.454 93.8392C100.399 93.9631 100.362 94.0508 100.307 94.1736C100.252 94.2965 100.197 94.4017 100.161 94.508C100.106 94.6309 100.069 94.7361 100.014 94.8589L98.9692 97.1967C98.8593 97.4248 98.7675 97.6363 98.6575 97.882C97.8327 99.6572 97.0444 101.45 96.2562 103.225L95.0464 105.896C94.9364 106.125 94.8448 106.336 94.7531 106.564C94.6615 106.793 94.5514 107.004 94.4597 107.232L91.1418 114.578C91.0319 114.807 90.9402 115.018 90.8486 115.247L89.0338 119.271C88.8139 119.728 88.6488 120.151 88.4289 120.607C88.0806 121.346 87.5673 122.505 87.2191 123.279L86.0275 125.95C85.8259 126.407 85.6059 126.847 85.4225 127.285C84.8544 128.64 84.1944 129.958 83.6078 131.293L81.4998 135.968C81.3897 136.197 81.2981 136.407 81.2064 136.636C80.9132 137.251 80.5831 138.06 80.3082 138.657L79.7033 139.993C79.2084 141.118 78.6767 142.225 78.1819 143.35C77.4853 144.914 76.752 146.443 76.0738 148.007C75.2855 149.8 74.424 151.557 73.6541 153.368C73.5624 153.596 73.4341 153.825 73.3425 154.053C73.2508 154.282 73.1407 154.493 73.0491 154.721C72.8475 155.16 72.6642 155.635 72.4442 156.056L71.546 158.061C71.4543 158.271 71.3443 158.499 71.2527 158.728C71.1427 158.974 71.0511 159.168 70.9411 159.414L69.4379 162.752C68.9246 163.474 68.5947 164.019 68.5947 164.967Z" stroke="url(#paint0_linear_3830_65078)" stroke-width="2" mask="url(#path-1-inside-1_3830_65078)"/>
</g>
<defs>
<linearGradient id="paint0_linear_3830_65078" x1="109.5" y1="0" x2="109.5" y2="235" gradientUnits="userSpaceOnUse">
<stop stop-color="#CC941B"/>
<stop offset="0.375" stop-color="#FEF8B6"/>
<stop offset="0.673077" stop-color="#D39818"/>
<stop offset="1" stop-color="#D39818" stop-opacity="0"/>
</linearGradient>
</defs>
</svg>
