<svg width="25" height="24" viewBox="0 0 25 24" fill="none" xmlns="http://www.w3.org/2000/svg">
<path d="M12.5664 24C19.1938 24 24.5664 18.6274 24.5664 12C24.5664 5.37259 19.1938 0 12.5664 0C5.939 0 0.566406 5.37259 0.566406 12C0.566406 18.6274 5.939 24 12.5664 24Z" fill="#FFD34D"/>
<path d="M9.71264 10.7093C9.93953 11.7328 9.41012 12.721 8.53281 12.9126C7.6555 13.1042 6.76305 12.4336 6.53616 11.4101C6.30927 10.3866 6.83868 9.39834 7.71599 9.20674C8.5933 9.01514 9.48575 9.68573 9.71264 10.7093Z" fill="#351800"/>
<path d="M8.06913 6.39827C8.06913 6.39827 6.80359 5.85877 5.85065 7.326" stroke="#603813" stroke-width="1.5" stroke-miterlimit="10" stroke-linecap="round"/>
<path d="M15.234 10.7093C15.0071 11.7328 15.5366 12.721 16.4139 12.9126C17.2912 13.1042 18.1836 12.4336 18.4105 11.4101C18.6374 10.3866 18.108 9.39834 17.2307 9.20674C16.3534 9.01514 15.4609 9.68573 15.234 10.7093Z" fill="#351800"/>
<path d="M16.8778 6.39833C16.8778 6.39833 18.1434 5.85884 19.0963 7.32606" stroke="#603813" stroke-width="1.5" stroke-miterlimit="10" stroke-linecap="round"/>
<path d="M16.6859 18.8572C16.6859 18.8572 16.5498 16.6891 12.7381 16.6891H12.2086C8.39687 16.6891 8.26074 18.8572 8.26074 18.8572" stroke="#603813" stroke-width="1.5" stroke-miterlimit="10" stroke-linecap="round"/>
<path d="M6.18361 12.7412C6.18361 12.7412 5.03906 14.8891 5.03906 15.9479C5.03906 16.7899 5.49285 17.2437 6.30461 17.2437C7.07604 17.2437 7.36847 16.7446 7.36847 15.9782C7.36847 14.6017 6.18361 12.7412 6.18361 12.7412Z" fill="#0071BC"/>
</svg>
