<svg width="24" height="24" viewBox="0 0 24 24" fill="none" xmlns="http://www.w3.org/2000/svg">
<path d="M5.99734 15.7409L2.99609 15.7409L2.99609 18.7422" stroke="black" stroke-width="1.5" stroke-linecap="round" stroke-linejoin="round"/>
<path d="M7.46484 4.06641C8.36522 3.54519 9.36263 3.17604 10.4251 2.98996" stroke="black" stroke-width="1.5" stroke-linecap="round" stroke-linejoin="round"/>
<path d="M3.48047 8.82031C3.84662 7.81589 4.37684 6.89251 5.05112 6.08918" stroke="black" stroke-width="1.5" stroke-linecap="round" stroke-linejoin="round"/>
<path d="M13.5762 2.98605C14.6386 3.17213 15.635 3.54128 16.5364 4.0625" stroke="black" stroke-width="1.5" stroke-linecap="round" stroke-linejoin="round"/>
<path d="M18.9512 6.08527C19.6255 6.8886 20.1557 7.81199 20.5218 8.81641" stroke="black" stroke-width="1.5" stroke-linecap="round" stroke-linejoin="round"/>
<path d="M21.0034 11.9923C21.0034 16.9654 16.9727 20.9961 11.9997 20.9961C8.36816 20.9961 5.24586 18.8412 3.82227 15.7439" stroke="black" stroke-width="1.5" stroke-linecap="round" stroke-linejoin="round"/>
<path d="M11.7183 9.13686L14.7734 11.359C15.1952 11.6658 15.1961 12.2943 14.7753 12.6023L11.7201 14.8384C11.2117 15.2104 10.4961 14.8474 10.4961 14.2174L10.4961 9.7592C10.4961 9.13024 11.2097 8.7669 11.7183 9.13686Z" stroke="black" stroke-width="1.3989" stroke-linecap="round" stroke-linejoin="round"/>
</svg>
