<svg width="17" height="15" viewBox="0 0 17 15" fill="none" xmlns="http://www.w3.org/2000/svg">
<path d="M3.17462 12.1875H5.12402C6.67732 12.1875 7.93652 13.4467 7.93652 15V4.7619C7.93652 3.28273 7.93652 2.54314 7.69487 1.95974C7.37267 1.18187 6.75466 0.563855 5.97679 0.241652C5.39339 0 4.6538 0 3.17462 0C2.1885 0 1.69544 0 1.30651 0.161102C0.787928 0.375903 0.375919 0.787912 0.161117 1.30649C1.57356e-05 1.69542 1.57356e-05 2.18848 1.57356e-05 3.1746V9.0129C1.57356e-05 9.99902 1.57356e-05 10.4921 0.161117 10.881C0.375919 11.3996 0.787928 11.8116 1.30651 12.0264C1.69544 12.1875 2.1885 12.1875 3.17462 12.1875Z" fill="white"/>
<path d="M13.492 12.1875H11.5426C9.9893 12.1875 8.7301 13.4467 8.7301 15V4.7619C8.7301 3.28273 8.7301 2.54314 8.97175 1.95974C9.29396 1.18187 9.91197 0.563855 10.6898 0.241652C11.2732 0 12.0128 0 13.492 0C14.4781 0 14.9712 0 15.3601 0.161102C15.8787 0.375903 16.2907 0.787912 16.5055 1.30649C16.6666 1.69542 16.6666 2.18848 16.6666 3.1746V9.0129C16.6666 9.99902 16.6666 10.4921 16.5055 10.881C16.2907 11.3996 15.8787 11.8116 15.3601 12.0264C14.9712 12.1875 14.4781 12.1875 13.492 12.1875Z" fill="white"/>
</svg>
