<svg width="64" height="64" viewBox="0 0 64 64" fill="none" xmlns="http://www.w3.org/2000/svg">
<path d="M30.5723 29.3843C30.5723 29.3843 36.7785 28.6731 40.384 29.6779C43.9895 30.6826 52.6767 31.6873 61.248 25.4233C61.248 25.4233 62.0171 24.7121 59.4163 24.2407C56.8155 23.7694 50.5514 22.1734 44.8165 15.1361C39.0816 8.09886 36.6586 10.8815 36.6586 10.8815L30.5723 29.3843Z" fill="#99D49D"/>
<path d="M38.7325 3C37.091 3 35.7554 4.33551 35.7554 5.97699C35.7554 6.96932 36.2433 7.84587 36.9917 8.38752L21.3789 52.389L22.9749 52.9555L38.596 8.94571C38.6415 8.94571 38.687 8.95397 38.7325 8.95397C40.374 8.95397 41.7095 7.61846 41.7095 5.97699C41.7095 4.33551 40.374 3 38.7325 3Z" fill="#7A6D79"/>
<path d="M41.8529 58.72C41.8529 58.72 43.4117 59.7826 39.8021 59.7826C36.1924 59.7826 3.34595 60.2746 3.06478 59.7784C2.78362 59.2823 3.34595 57.7979 6.17825 57.372C9.01056 56.9462 11.9132 54.7548 13.0419 54.118C14.1707 53.4813 21.9606 50.0123 28.1173 52.7743C34.2739 55.5362 35.6921 56.173 38.0985 56.88C40.505 57.587 41.8488 58.72 41.8488 58.72H41.8529Z" fill="#9DA3AC"/>
</svg>
