<svg width="33" height="75" viewBox="0 0 33 75" fill="none" xmlns="http://www.w3.org/2000/svg">
<g opacity="0.4">
<path fill-rule="evenodd" clip-rule="evenodd" d="M59.1392 41.5438C62.177 36.282 52.6757 25.1062 37.9168 16.5848C23.1535 8.06352 8.72687 5.42197 5.68907 10.6838C4.00187 13.5981 2.31891 16.5167 0.635948 19.4353C-2.40185 24.6973 7.09942 35.8686 21.8626 44.39C36.6216 52.9113 51.0524 55.5573 54.0903 50.2953C55.7733 47.3767 57.4562 44.4624 59.1392 41.5438Z" fill="#FE9923"/>
<path fill-rule="evenodd" clip-rule="evenodd" d="M59.1362 41.5424C61.4541 37.5332 56.4818 30.0854 47.4535 23C45.0122 24.1376 42.5196 25.4328 40.0187 26.8771C31.2418 31.9432 24.1051 37.8356 19.7891 43.1571C20.4666 43.5748 21.1568 43.9837 21.8598 44.3885C30.0232 49.1007 38.0844 52.015 44.1728 52.7905C46.8997 51.5549 49.6946 50.1233 52.5024 48.5042C53.8914 47.699 55.2377 46.8767 56.5416 46.0373L59.1362 41.5424Z" fill="#CE7C1D"/>
<path fill-rule="evenodd" clip-rule="evenodd" d="M37.9184 16.585C23.1551 8.06352 8.72843 5.42196 5.69064 10.6838C2.65284 15.9414 12.1541 27.1172 26.9172 35.6386C41.6763 44.1599 56.107 46.8059 59.1407 41.5438C62.1785 36.282 52.6773 25.1062 37.9184 16.585Z" fill="#FECD3D"/>
<path fill-rule="evenodd" clip-rule="evenodd" d="M27.1797 35.7906C41.8492 44.1884 56.1224 46.7703 59.1389 41.5424C61.4567 37.5332 56.4845 30.0854 47.4562 23C45.0149 24.1376 42.5223 25.4328 40.0214 26.8771C35.1726 29.6722 30.8267 32.7229 27.1797 35.7906Z" fill="#CEA732"/>
<path fill-rule="evenodd" clip-rule="evenodd" d="M35.3403 21.0401C23.5978 14.2612 12.7672 11.0359 11.1481 13.8395C9.53325 16.6431 17.7393 24.4103 29.4818 31.189C41.2243 37.9677 52.0549 41.193 53.6738 38.3895C55.2929 35.5902 47.0826 27.823 35.3403 21.0401Z" fill="#FEA832"/>
<path fill-rule="evenodd" clip-rule="evenodd" d="M31.5703 32.3568C42.4819 38.3261 52.1536 41.023 53.6747 38.3857C54.9401 36.1915 50.1853 30.9551 42.4266 25.5312C41.6256 25.9659 40.8202 26.4132 40.0192 26.8776C36.9899 28.6246 34.1609 30.4694 31.5703 32.3568Z" fill="#CE8829"/>
<path d="M48.082 49.2999L45.9645 52.9641C45.0655 52.9087 44.1069 52.8022 43.1055 52.6402L45.7983 47.9748L48.082 49.2999ZM16.7021 41.1664C17.4223 41.6521 18.1594 42.1334 18.9135 42.6064L21.3592 38.3713L19.0755 37.0589L16.7021 41.1664ZM2.39062 27.8048C2.88911 28.559 3.46011 29.3344 4.10347 30.1226L6.79629 25.4615L4.50835 24.1406L2.39062 27.8048ZM9.09272 35.2737C9.74458 35.8532 10.4221 36.437 11.1293 37.0163L13.6942 32.5767L11.4105 31.2645L9.09272 35.2737ZM24.8827 46.0575C25.6752 46.4709 26.4634 46.8713 27.2432 47.2504L29.6164 43.1432L27.3327 41.8181L24.8827 46.0575ZM33.6214 50.0029C34.4777 50.3268 35.3213 50.6208 36.1479 50.8934L38.4658 46.8798L36.1821 45.5675L33.6214 50.0029Z" fill="#C85929"/>
<path d="M7.13906 43.8203V46.4875H9.80625V48.5923H7.13906V51.2595H5.03437V48.5923H2.36719V46.4875H5.03437V43.8203H7.13906Z" fill="#FEA832"/>
<path fill-rule="evenodd" clip-rule="evenodd" d="M15.8546 55.5672C12.8166 50.3053 22.3223 39.1338 37.0812 30.6124C51.8402 22.0868 66.271 19.4451 69.3089 24.7072C70.9919 27.6257 72.6748 30.54 74.362 33.4586C77.4 38.7204 67.8943 49.8919 53.1354 58.4176C38.3721 66.9389 23.9456 69.5806 20.9077 64.3186C19.2247 61.4043 17.5375 58.4857 15.8546 55.5672Z" fill="#FE9923"/>
<path fill-rule="evenodd" clip-rule="evenodd" d="M37.0812 30.6124C51.8402 22.0868 66.271 19.4451 69.3089 24.7072C72.3469 29.969 62.8412 41.1405 48.0823 49.6619C33.319 58.1875 18.8925 60.8292 15.8546 55.5672C12.8166 50.3052 22.3221 39.1338 37.0812 30.6124Z" fill="#FECD3D"/>
<path fill-rule="evenodd" clip-rule="evenodd" d="M39.6504 35.0658C51.3927 28.2829 62.2277 25.0618 63.8424 27.861C65.4615 30.6646 57.2555 38.4318 45.5088 45.2105C33.7664 51.9934 22.9358 55.2145 21.321 52.4153C19.7019 49.6119 27.9079 41.8447 39.6504 35.0658Z" fill="#FEA832"/>
<path d="M38.8142 59.5909L41.3749 64.0262C40.5185 64.35 39.6749 64.6483 38.844 64.9166L36.5262 60.9031L38.8142 59.5909ZM45.3799 57.1666L47.7488 61.2739C48.5328 60.8946 49.321 60.4984 50.1093 60.0809L47.6636 55.8458L45.3799 57.1666ZM26.9141 63.3232L29.0272 66.9875C29.9306 66.9364 30.885 66.8255 31.8904 66.6636L29.1976 62.0025L26.9141 63.3232ZM70.4836 38.1641L68.1999 39.4849L70.8884 44.146C71.5317 43.358 72.107 42.5867 72.6012 41.8325L70.4836 38.1641ZM53.6369 52.3947L56.0826 56.6341C56.8369 56.1569 57.5738 55.6755 58.2939 55.1898L55.9208 51.0825L53.6369 52.3947ZM61.302 46.6001L63.8669 51.044C64.5742 50.4603 65.2517 49.8809 65.8993 49.2972L63.5857 45.2879L61.302 46.6001Z" fill="#C85929"/>
</g>
</svg>
