<svg width="164" height="120" viewBox="0 0 164 120" fill="none" xmlns="http://www.w3.org/2000/svg">
<g clip-path="url(#clip0_7394_160777)">
<rect width="164" height="120" rx="8" fill="#F4ECD7"/>
<g opacity="0.3">
<path d="M39.2482 47.5936C5.85806 20.3868 -25.6771 28.5283 -35.7251 35.9998V93.9688C74.8026 57.6415 144.881 82.8902 199.243 90.1041V39.8642C160.597 9.72032 125.815 37.5455 120.405 41.4101C114.995 45.2747 80.986 81.6022 39.2482 47.5936Z" fill="#F2D084"/>
<path d="M35.8923 58.8578C-0.133965 48.9574 -34.1588 51.92 -45 54.6389V75.7335C74.2536 62.5142 149.864 71.7021 208.518 74.3272V56.0451C166.821 45.0759 129.294 55.2013 123.456 56.6076C117.619 58.0139 80.9251 71.2333 35.8923 58.8578Z" fill="#FFB104"/>
</g>
<g opacity="0.2">
<path d="M126.328 112L123.196 103.516H124.828L127.348 110.728L129.832 103.516H131.452L128.344 112H126.328ZM132.257 112V105.676H133.721V112H132.257ZM132.989 104.944C132.709 104.944 132.485 104.86 132.317 104.692C132.149 104.524 132.065 104.304 132.065 104.032C132.065 103.768 132.153 103.552 132.329 103.384C132.505 103.208 132.725 103.12 132.989 103.12C133.245 103.12 133.465 103.204 133.649 103.372C133.833 103.54 133.925 103.76 133.925 104.032C133.925 104.304 133.837 104.524 133.661 104.692C133.485 104.86 133.261 104.944 132.989 104.944ZM137.72 112.084C137.08 112.084 136.552 111.94 136.136 111.652C135.72 111.356 135.408 110.964 135.2 110.476C135 109.988 134.9 109.444 134.9 108.844C134.9 108.22 135.008 107.664 135.224 107.176C135.44 106.68 135.764 106.292 136.196 106.012C136.628 105.724 137.168 105.58 137.816 105.58C138.056 105.58 138.288 105.608 138.512 105.664C138.744 105.712 138.96 105.792 139.16 105.904C139.368 106.008 139.54 106.148 139.676 106.324V103.516H141.14V112H139.724L139.7 111.208C139.548 111.408 139.368 111.572 139.16 111.7C138.96 111.828 138.736 111.924 138.488 111.988C138.24 112.052 137.984 112.084 137.72 112.084ZM137.996 110.764C138.38 110.764 138.696 110.676 138.944 110.5C139.192 110.316 139.376 110.076 139.496 109.78C139.624 109.476 139.688 109.156 139.688 108.82C139.688 108.468 139.624 108.148 139.496 107.86C139.376 107.572 139.192 107.34 138.944 107.164C138.696 106.988 138.38 106.9 137.996 106.9C137.588 106.9 137.264 106.992 137.024 107.176C136.792 107.36 136.62 107.604 136.508 107.908C136.404 108.204 136.352 108.524 136.352 108.868C136.352 109.124 136.38 109.368 136.436 109.6C136.5 109.824 136.596 110.024 136.724 110.2C136.852 110.376 137.02 110.516 137.228 110.62C137.436 110.716 137.692 110.764 137.996 110.764ZM145.39 112.084C144.734 112.084 144.174 111.948 143.71 111.676C143.254 111.404 142.906 111.028 142.666 110.548C142.434 110.06 142.318 109.496 142.318 108.856C142.318 108.216 142.438 107.652 142.678 107.164C142.926 106.668 143.278 106.28 143.734 106C144.198 105.72 144.754 105.58 145.402 105.58C145.882 105.58 146.302 105.668 146.662 105.844C147.022 106.012 147.322 106.244 147.562 106.54C147.81 106.836 147.994 107.172 148.114 107.548C148.234 107.924 148.29 108.32 148.282 108.736C148.274 108.832 148.266 108.928 148.258 109.024C148.25 109.112 148.238 109.208 148.222 109.312H143.782C143.806 109.592 143.878 109.848 143.998 110.08C144.126 110.312 144.302 110.496 144.526 110.632C144.758 110.768 145.046 110.836 145.39 110.836C145.59 110.836 145.782 110.812 145.966 110.764C146.15 110.708 146.31 110.628 146.446 110.524C146.59 110.42 146.686 110.288 146.734 110.128H148.198C148.094 110.584 147.902 110.956 147.622 111.244C147.342 111.532 147.006 111.744 146.614 111.88C146.23 112.016 145.822 112.084 145.39 112.084ZM143.806 108.22H146.854C146.854 107.956 146.794 107.716 146.674 107.5C146.554 107.284 146.382 107.116 146.158 106.996C145.942 106.868 145.678 106.804 145.366 106.804C145.03 106.804 144.75 106.872 144.526 107.008C144.302 107.144 144.13 107.32 144.01 107.536C143.89 107.752 143.822 107.98 143.806 108.22ZM152.34 112.084C151.692 112.084 151.132 111.952 150.66 111.688C150.196 111.424 149.836 111.048 149.58 110.56C149.332 110.072 149.208 109.5 149.208 108.844C149.208 108.18 149.336 107.608 149.592 107.128C149.848 106.64 150.208 106.26 150.672 105.988C151.136 105.716 151.692 105.58 152.34 105.58C152.98 105.58 153.532 105.716 153.996 105.988C154.46 106.26 154.816 106.644 155.064 107.14C155.312 107.628 155.436 108.204 155.436 108.868C155.436 109.516 155.312 110.084 155.064 110.572C154.824 111.052 154.472 111.424 154.008 111.688C153.544 111.952 152.988 112.084 152.34 112.084ZM152.328 110.752C152.728 110.752 153.048 110.664 153.288 110.488C153.536 110.312 153.716 110.08 153.828 109.792C153.94 109.504 153.996 109.192 153.996 108.856C153.996 108.52 153.94 108.204 153.828 107.908C153.716 107.612 153.536 107.376 153.288 107.2C153.048 107.016 152.728 106.924 152.328 106.924C151.928 106.924 151.604 107.016 151.356 107.2C151.108 107.376 150.928 107.612 150.816 107.908C150.704 108.196 150.648 108.512 150.648 108.856C150.648 109.192 150.704 109.508 150.816 109.804C150.936 110.092 151.116 110.324 151.356 110.5C151.604 110.668 151.928 110.752 152.328 110.752Z" fill="#7B5707"/>
</g>
<path d="M103.065 40.8486V65.9952C103.065 67.0171 102.298 67.8458 101.352 67.8458H62.7132C61.7672 67.8458 61 67.0171 61 65.9952V40.8486C61 39.8267 61.7672 39 62.7132 39H101.352C102.298 39 103.065 39.8267 103.065 40.8486H103.065Z" fill="#F2D084"/>
<path d="M85.6947 54.8963C88.073 52.5179 88.073 48.6618 85.6947 46.2834C83.3163 43.905 79.4602 43.905 77.0818 46.2834C74.7034 48.6618 74.7034 52.5179 77.0818 54.8963C79.4602 57.2746 83.3163 57.2746 85.6947 54.8963Z" fill="white"/>
<path d="M83.7982 51.2179L80.8304 53.138C80.4717 53.3702 79.999 53.1127 79.999 52.685V48.8463C79.999 48.4186 80.4717 48.1628 80.8304 48.3933L83.7982 50.3148C84.1261 50.5272 84.1261 51.0069 83.7982 51.2179Z" fill="#7B5707"/>
<path d="M63.0971 61.6777H62.5195C62.3184 61.6777 62.1553 61.8408 62.1553 62.042V63.8428C62.1553 64.0439 62.3184 64.207 62.5195 64.207H63.0971C63.2983 64.207 63.4614 64.0439 63.4614 63.8428V62.042C63.4614 61.8408 63.2983 61.6777 63.0971 61.6777Z" fill="#7B5707"/>
<path d="M65.1391 61.6777H64.5615C64.3604 61.6777 64.1973 61.8408 64.1973 62.042V63.8428C64.1973 64.0439 64.3604 64.207 64.5615 64.207H65.1391C65.3403 64.207 65.5033 64.0439 65.5033 63.8428V62.042C65.5033 61.8408 65.3403 61.6777 65.1391 61.6777Z" fill="#7B5707"/>
<path d="M100.515 62.9914C100.49 63.163 100.327 63.2806 100.153 63.2806H67.2453C67.0768 63.2806 66.9203 63.1655 66.8933 62.9989C66.8588 62.7868 67.0215 62.6035 67.2273 62.6035H100.18C100.383 62.6035 100.544 62.7826 100.515 62.9914H100.515Z" fill="#7B5707"/>
<path d="M86.0267 63.2062C86.173 62.5862 85.7891 61.965 85.1691 61.8186C84.5491 61.6723 83.9279 62.0563 83.7816 62.6763C83.6352 63.2962 84.0192 63.9175 84.6392 64.0638C85.2592 64.2101 85.8804 63.8261 86.0267 63.2062Z" fill="#7B5707"/>
<g opacity="0.15">
<path d="M73.5759 72.5211V80.7752C73.5759 81.4234 73.0503 81.9489 72.4024 81.9489H63.2096C62.5617 81.9489 62.0381 81.4234 62.0381 80.7752V72.5211C62.0381 71.8729 62.5614 71.3477 63.2096 71.3477H72.4024C73.0503 71.3477 73.5759 71.8732 73.5759 72.5211Z" fill="black"/>
</g>
<path d="M73.0056 71.9879V80.2417C73.0056 80.8899 72.48 81.4155 71.8321 81.4155H62.6393C61.9914 81.4155 61.4678 80.8899 61.4678 80.2417V71.9879C61.4678 71.3397 61.9911 70.8145 62.6393 70.8145H71.8321C72.48 70.8145 73.0056 71.34 73.0056 71.9879Z" fill="#D9C18D"/>
<path d="M68.8365 76.4602L66.5772 77.9217C66.3042 78.0982 65.9443 77.9025 65.9443 77.5769V74.6549C65.9443 74.3293 66.3042 74.1347 66.5772 74.3101L68.8365 75.7728C69.0859 75.9343 69.0859 76.2994 68.8365 76.4602Z" fill="white"/>
<g opacity="0.15">
<path d="M87.3903 72.5211V80.7752C87.3903 81.4234 86.8648 81.9489 86.2169 81.9489H77.024C76.3761 81.9489 75.8525 81.4234 75.8525 80.7752V72.5211C75.8525 71.8729 76.3759 71.3477 77.024 71.3477H86.2169C86.8648 71.3477 87.3903 71.8732 87.3903 72.5211Z" fill="black"/>
</g>
<path d="M86.82 71.9879V80.2417C86.82 80.8899 86.2945 81.4155 85.6466 81.4155H76.4537C75.8058 81.4155 75.2822 80.8899 75.2822 80.2417V71.9879C75.2822 71.3397 75.8055 70.8145 76.4537 70.8145H85.6466C86.2945 70.8145 86.82 71.34 86.82 71.9879Z" fill="#D9C18D"/>
<path d="M82.651 76.4602L80.3917 77.9217C80.1186 78.0982 79.7588 77.9025 79.7588 77.5769V74.6549C79.7588 74.3293 80.1186 74.1347 80.3917 74.3101L82.651 75.7728C82.9004 75.9343 82.9004 76.2994 82.651 76.4602Z" fill="white"/>
<g opacity="0.15">
<path d="M90.8404 71.3477H100.031C100.679 71.3477 101.205 71.8735 101.205 72.5214V80.7752C101.205 81.4228 100.679 81.9489 100.031 81.9489H90.8404C90.1928 81.9489 89.667 81.4231 89.667 80.7755V72.5214C89.667 71.8738 90.1928 71.3479 90.8404 71.3479V71.3477Z" fill="black"/>
</g>
<path d="M100.634 71.9879V80.2417C100.634 80.8899 100.109 81.4155 99.461 81.4155H90.2682C89.6203 81.4155 89.0967 80.8899 89.0967 80.2417V71.9879C89.0967 71.3397 89.62 70.8145 90.2682 70.8145H99.461C100.109 70.8145 100.634 71.34 100.634 71.9879Z" fill="#FFE8B8"/>
<path d="M96.4654 76.4602L94.2061 77.9217C93.9331 78.0982 93.5732 77.9025 93.5732 77.5769V74.6549C93.5732 74.3293 93.9331 74.1347 94.2061 74.3101L96.4654 75.7728C96.7148 75.9343 96.7148 76.2994 96.4654 76.4602Z" fill="white"/>
<path d="M50.5381 49.863C50.6172 49.8532 50.6962 49.8434 50.7755 49.8409L50.4223 49.8523C48.9759 49.7545 47.805 48.5793 47.7282 47.0945L47.7066 47.0952C47.7762 48.5803 46.7205 49.8562 45.2924 50.1044L44.9392 50.1158C45.0185 50.1132 45.098 50.1179 45.1775 50.1225C45.0985 50.1323 45.0194 50.1421 44.9401 50.1446L45.2934 50.1332C46.7398 50.231 47.9106 51.4062 47.9874 52.891L48.009 52.8903C47.9395 51.4052 48.9952 50.1293 50.4232 49.8811L50.7764 49.8697C50.6971 49.8723 50.6176 49.8676 50.5381 49.863Z" fill="white"/>
<path d="M115.467 30.2582C115.585 30.2437 115.702 30.2292 115.82 30.2253L115.295 30.2423C113.144 30.0969 111.402 28.3492 111.288 26.141L111.256 26.142C111.36 28.3506 109.79 30.2481 107.666 30.6173L107.14 30.6342C107.258 30.6304 107.377 30.6373 107.495 30.6442C107.377 30.6588 107.26 30.6733 107.142 30.6771L107.667 30.6602C109.818 30.8055 111.56 32.5533 111.674 34.7615L111.706 34.7605C111.602 32.5519 113.173 30.6544 115.296 30.2852L115.822 30.2683C115.704 30.2721 115.585 30.2651 115.467 30.2582Z" fill="white"/>
<path d="M104.811 90.07C104.864 90.0635 104.916 90.0569 104.97 90.0552L104.733 90.0628C103.765 89.9974 102.981 89.2109 102.93 88.217L102.915 88.2175C102.962 89.2115 102.255 90.0655 101.3 90.2316L101.063 90.2392C101.116 90.2375 101.17 90.2406 101.223 90.2437C101.17 90.2503 101.117 90.2568 101.064 90.2585L101.3 90.2509C102.268 90.3163 103.052 91.1029 103.103 92.0967L103.118 92.0962C103.071 91.1023 103.778 90.2483 104.734 90.0821L104.97 90.0745C104.917 90.0762 104.864 90.0731 104.811 90.07Z" fill="white"/>
</g>
<defs>
<clipPath id="clip0_7394_160777">
<rect width="164" height="120" rx="8" fill="white"/>
</clipPath>
</defs>
</svg>
