<svg width="20" height="20" viewBox="0 0 20 20" fill="none" xmlns="http://www.w3.org/2000/svg">
<g clip-path="url(#clip0_15613_44485)">
<path d="M19.5715 4.02841C19.1953 2.33004 17.5489 0.774238 15.8459 0.443783C14.8084 0.236369 11.914 -0.0198712 9.99961 0.00122175C8.08523 -0.0198712 5.19081 0.236369 4.15335 0.443783C2.45029 0.774238 0.803875 2.33004 0.427718 4.02841C0.213664 5.05962 0.00312488 6.46269 0 8.37785C0.00312488 10.293 0.213664 11.6957 0.427718 12.7269C0.803875 14.4253 2.45029 15.9811 4.15335 16.3115C4.71349 16.4236 5.81501 16.5498 7.01144 16.6389C7.14699 16.8517 7.29386 17.0783 7.45283 17.3185C8.08757 18.2798 8.57349 18.9497 8.94145 19.4165C9.55392 20.1934 10.4457 20.1934 11.0582 19.4165C11.4261 18.9497 11.9116 18.2798 12.5468 17.3185C12.7058 17.0779 12.8522 16.8517 12.9882 16.6389C14.1846 16.5498 15.2861 16.4236 15.8466 16.3115C17.5497 15.9811 19.1961 14.4253 19.5723 12.7269C19.7863 11.6957 19.9969 10.293 20 8.37785C19.9969 6.46269 19.7863 5.06001 19.5723 4.0288L19.5715 4.02841ZM11.1039 14.1843C11.0617 14.4221 10.8461 14.6378 10.6082 14.6799C10.464 14.7038 10.2676 14.7264 9.99922 14.7268C9.73126 14.7268 9.53478 14.7042 9.39026 14.6799C9.15238 14.6378 8.93676 14.4221 8.89457 14.1843C8.87075 14.0401 8.84809 13.8436 8.8477 13.5753C8.8477 13.3073 8.87036 13.1109 8.89457 12.9663C8.93676 12.7285 9.15238 12.5128 9.39026 12.4707C9.53439 12.4468 9.73087 12.4242 9.99922 12.4238C10.2672 12.4238 10.4637 12.4464 10.6082 12.4707C10.8461 12.5128 11.0617 12.7285 11.1039 12.9663C11.1277 13.1105 11.1503 13.307 11.1507 13.5753C11.1507 13.8433 11.1281 14.0397 11.1039 14.1843ZM13.4819 7.78646C13.1803 8.21301 12.7284 8.60245 12.0597 9.01142C11.2132 9.53327 11.0777 9.74771 11.0777 10.1676V10.3336C11.0777 10.9289 10.5933 11.4133 9.99805 11.4133C9.40276 11.4133 8.9184 10.9289 8.9184 10.3336V9.94888C8.9184 9.45359 9.04222 9.03329 9.2969 8.66416C9.54377 8.30637 9.91368 7.98841 10.4625 7.66225C11.4738 7.06735 11.6589 6.73338 11.6589 6.29004C11.6589 5.73303 11.1843 5.37289 10.4504 5.37289C9.64572 5.37289 9.12191 5.7385 8.8934 6.45995C8.74263 6.93572 8.30202 7.25523 7.79735 7.25523C7.76923 7.25523 7.7411 7.25406 7.71298 7.25211C7.35674 7.22633 7.03762 7.04157 6.83762 6.7451C6.63958 6.45175 6.58763 6.09122 6.69505 5.75568C6.94113 4.98853 7.41299 4.35027 8.05945 3.90966C8.71411 3.46359 9.54103 3.22805 10.45 3.22805C11.3589 3.22805 12.2702 3.52921 12.9171 4.07606C13.5827 4.63893 13.9495 5.41468 13.9495 6.26113C13.9495 6.84236 13.7967 7.34156 13.4819 7.78646Z" fill="#A3C9FF"/>
</g>
<defs>
<clipPath id="clip0_15613_44485">
<rect width="20" height="20" fill="white"/>
</clipPath>
</defs>
</svg>
