<svg width="60" height="60" viewBox="0 0 60 60" fill="none" xmlns="http://www.w3.org/2000/svg">
<rect width="60" height="60" rx="30" fill="#FFECEC"/>
<path d="M44.8073 20.8083V38.0517C44.8073 38.4096 44.7815 38.761 44.7363 39.1058C43.9749 38.7414 43.1231 38.5332 42.2262 38.5332C39.0192 38.5332 36.4188 41.1555 36.4188 44.3895C36.4188 44.897 36.4833 45.3915 36.5995 45.86H22.8682C18.5901 45.86 15.125 42.3593 15.125 38.0517V20.8083C15.125 16.4942 18.5901 13 22.8682 13H37.0641C41.3422 13 44.8073 16.4942 44.8073 20.8083Z" fill="#FFB3B5"/>
<path d="M39.6439 27.3756H20.2859C19.9297 27.3756 19.6406 27.0847 19.6406 26.7249C19.6406 26.3651 19.9297 26.0742 20.2859 26.0742H39.6439C40.0001 26.0742 40.2892 26.3651 40.2892 26.7249C40.2892 27.0847 40.0001 27.3756 39.6439 27.3756Z" fill="white"/>
<path d="M39.6439 20.6217H20.2859C19.9297 20.6217 19.6406 20.3308 19.6406 19.971C19.6406 19.6112 19.9297 19.3203 20.2859 19.3203H39.6439C40.0001 19.3203 40.2892 19.6112 40.2892 19.971C40.2892 20.3308 40.0001 20.6217 39.6439 20.6217Z" fill="white"/>
<path d="M29.3196 33.5553H20.2859C19.9297 33.5553 19.6406 33.2644 19.6406 32.9046C19.6406 32.5448 19.9297 32.2539 20.2859 32.2539H29.3196C29.6758 32.2539 29.9649 32.5448 29.9649 32.9046C29.9649 33.2644 29.6758 33.5553 29.3196 33.5553Z" fill="white"/>
<path d="M29.3196 40.3053H20.2859C19.9297 40.3053 19.6406 40.0144 19.6406 39.6546C19.6406 39.2948 19.9297 39.0039 20.2859 39.0039H29.3196C29.6758 39.0039 29.9649 39.2948 29.9649 39.6546C29.9649 40.0144 29.6758 40.3053 29.3196 40.3053Z" fill="white"/>
<path d="M41.2554 34.8733C40.4196 34.4767 39.4846 34.25 38.5 34.25C34.9796 34.25 32.125 37.1046 32.125 40.625C32.125 41.1775 32.1958 41.7158 32.3233 42.2258C33.0388 44.9742 35.5321 47 38.5 47C42.0204 47 44.875 44.1525 44.875 40.625C44.875 38.0892 43.3946 35.9004 41.2554 34.8733ZM41.1279 42.2542C41.4042 42.5304 41.4042 42.9767 41.1279 43.2529C40.9863 43.3946 40.8092 43.4583 40.625 43.4583C40.4408 43.4583 40.2638 43.3946 40.1221 43.2529L38.5 41.6308L36.8779 43.2529C36.7363 43.3946 36.5592 43.4583 36.375 43.4583C36.1908 43.4583 36.0138 43.3946 35.8721 43.2529C35.5958 42.9767 35.5958 42.5304 35.8721 42.2542L37.5013 40.6321L35.8721 39.0029C35.5958 38.7267 35.5958 38.2804 35.8721 38.0042C36.1483 37.7279 36.6017 37.7279 36.8779 38.0042L38.5 39.6263L40.1221 38.0042C40.3983 37.7279 40.8517 37.7279 41.1279 38.0042C41.4042 38.2804 41.4042 38.7267 41.1279 39.0029L39.5058 40.6321L41.1279 42.2542Z" fill="#FC3A52"/>
<path d="M41.1232 42.258C41.3994 42.5342 41.3994 42.9805 41.1232 43.2567C40.9815 43.3984 40.8044 43.4621 40.6203 43.4621C40.4361 43.4621 40.259 43.3984 40.1174 43.2567L38.4953 41.6346L36.8732 43.2567C36.7315 43.3984 36.5544 43.4621 36.3703 43.4621C36.1861 43.4621 36.009 43.3984 35.8673 43.2567C35.5911 42.9805 35.5911 42.5342 35.8673 42.258L37.4965 40.6359L35.8673 39.0067C35.5911 38.7305 35.5911 38.2842 35.8673 38.008C36.1436 37.7317 36.5969 37.7317 36.8732 38.008L38.4953 39.6301L40.1174 38.008C40.3936 37.7317 40.8469 37.7317 41.1232 38.008C41.3994 38.2842 41.3994 38.7305 41.1232 39.0067L39.5011 40.6359L41.1232 42.258Z" fill="white"/>
</svg>
