<svg width="48" height="48" viewBox="0 0 48 48" fill="none" xmlns="http://www.w3.org/2000/svg">
<g clip-path="url(#clip0_6112_283314)">
<path d="M35.1618 44.1739C34.7473 46.5236 32.5067 48.0927 30.1569 47.6784L23.7662 46.5515C23.7883 46.4607 23.8074 46.3684 23.8239 46.2751C24.2382 43.9253 22.6693 41.6846 20.3194 41.2702C17.9696 40.856 15.7289 42.4249 15.3145 44.7747C15.2981 44.868 15.2864 44.9616 15.2761 45.0545L8.88255 43.9271C6.53299 43.5126 4.96399 41.2719 5.37809 38.9222L11.3801 4.88289C11.7946 2.5333 14.0354 0.964317 16.385 1.37843L22.7786 2.50578C22.7564 2.59696 22.7354 2.68908 22.7188 2.78282C22.3045 5.13263 23.8734 7.37422 26.2231 7.78867C28.573 8.20302 30.8138 6.63313 31.2282 4.28325C31.2447 4.18954 31.2584 4.09607 31.2687 4.00282L37.6594 5.12967C40.0092 5.544 41.578 7.7848 41.1638 10.1346L35.1618 44.1739Z" fill="#9E5B05"/>
<path d="M35.1618 44.1739L35.3213 44.2021L35.3214 44.202L35.1618 44.1739ZM30.1569 47.6784L30.185 47.5188L30.1569 47.6784ZM23.7662 46.5515L23.6088 46.5132L23.5679 46.6811L23.7381 46.7111L23.7662 46.5515ZM23.8239 46.2751L23.9835 46.3032L23.9835 46.3032L23.8239 46.2751ZM20.3194 41.2702L20.3476 41.1107L20.3476 41.1107L20.3194 41.2702ZM15.3145 44.7747L15.155 44.7465L15.155 44.7465L15.3145 44.7747ZM15.2761 45.0545L15.248 45.214L15.4182 45.244L15.4371 45.0723L15.2761 45.0545ZM8.88255 43.9271L8.85441 44.0867L8.85442 44.0867L8.88255 43.9271ZM5.37809 38.9222L5.21853 38.8941L5.21853 38.8941L5.37809 38.9222ZM11.3801 4.88289L11.2206 4.85474L11.2206 4.85476L11.3801 4.88289ZM16.385 1.37843L16.4132 1.21887L16.4132 1.21887L16.385 1.37843ZM22.7786 2.50578L22.936 2.54418L22.977 2.37624L22.8067 2.34623L22.7786 2.50578ZM22.7188 2.78282L22.5593 2.75467L22.5593 2.75468L22.7188 2.78282ZM26.2231 7.78867L26.195 7.94823L26.195 7.94823L26.2231 7.78867ZM31.2282 4.28325L31.3877 4.31138L31.3878 4.31136L31.2282 4.28325ZM31.2687 4.00282L31.2968 3.84326L31.1266 3.81325L31.1077 3.98507L31.2687 4.00282ZM37.6594 5.12967L37.6875 4.97011L37.6594 5.12967ZM41.1638 10.1346L41.3234 10.1627L41.3234 10.1627L41.1638 10.1346ZM35.1618 44.1739L35.0022 44.1458C34.6033 46.4073 32.4467 47.9176 30.185 47.5188L30.1569 47.6784L30.1288 47.8379C32.5667 48.2678 34.8913 46.6398 35.3213 44.2021L35.1618 44.1739ZM30.1569 47.6784L30.185 47.5188L23.7944 46.392L23.7662 46.5515L23.7381 46.7111L30.1288 47.8379L30.1569 47.6784ZM23.7662 46.5515L23.9236 46.5899C23.9467 46.4954 23.9664 46.3997 23.9835 46.3032L23.8239 46.2751L23.6643 46.247C23.6484 46.3372 23.63 46.4261 23.6088 46.5132L23.7662 46.5515ZM23.8239 46.2751L23.9835 46.3032C24.4132 43.8653 22.7855 41.5405 20.3476 41.1107L20.3194 41.2702L20.2913 41.4298C22.553 41.8286 24.0631 43.9853 23.6643 46.247L23.8239 46.2751ZM20.3194 41.2702L20.3476 41.1107C17.9097 40.6809 15.5849 42.3087 15.155 44.7465L15.3145 44.7747L15.4741 44.8028C15.873 42.5412 18.0296 41.0311 20.2913 41.4298L20.3194 41.2702ZM15.3145 44.7747L15.155 44.7465C15.1376 44.845 15.1255 44.9425 15.1151 45.0367L15.2761 45.0545L15.4371 45.0723C15.4473 44.9807 15.4585 44.8911 15.4741 44.8028L15.3145 44.7747ZM15.2761 45.0545L15.3042 44.8949L8.91069 43.7676L8.88255 43.9271L8.85442 44.0867L15.248 45.214L15.2761 45.0545ZM8.88255 43.9271L8.9107 43.7676C6.64925 43.3686 5.13908 41.2119 5.53765 38.9504L5.37809 38.9222L5.21853 38.8941C4.7889 41.3319 6.41673 43.6566 8.85441 44.0867L8.88255 43.9271ZM5.37809 38.9222L5.53765 38.9504L11.5397 4.91102L11.3801 4.88289L11.2206 4.85476L5.21853 38.8941L5.37809 38.9222ZM11.3801 4.88289L11.5397 4.91104C11.9386 2.64956 14.0954 1.1394 16.3569 1.53799L16.385 1.37843L16.4132 1.21887C13.9754 0.789229 11.6506 2.41705 11.2206 4.85474L11.3801 4.88289ZM16.385 1.37843L16.3569 1.53798L22.7505 2.66534L22.7786 2.50578L22.8067 2.34623L16.4132 1.21887L16.385 1.37843ZM22.7786 2.50578L22.6212 2.46739C22.5986 2.55997 22.5767 2.65595 22.5593 2.75467L22.7188 2.78282L22.8784 2.81097C22.894 2.72222 22.9141 2.63394 22.936 2.54418L22.7786 2.50578ZM22.7188 2.78282L22.5593 2.75468C22.1294 5.19257 23.7571 7.51823 26.195 7.94823L26.2231 7.78867L26.2513 7.62912C23.9897 7.23022 22.4796 5.07268 22.8784 2.81095L22.7188 2.78282ZM26.2231 7.78867L26.195 7.94823C28.633 8.37812 30.9579 6.74933 31.3877 4.31138L31.2282 4.28325L31.0686 4.25511C30.6698 6.51692 28.513 8.02792 26.2513 7.62912L26.2231 7.78867ZM31.2282 4.28325L31.3878 4.31136C31.4048 4.21465 31.419 4.11771 31.4298 4.02058L31.2687 4.00282L31.1077 3.98507C31.0978 4.07444 31.0846 4.16443 31.0686 4.25513L31.2282 4.28325ZM31.2687 4.00282L31.2406 4.16238L37.6313 5.28922L37.6594 5.12967L37.6875 4.97011L31.2968 3.84326L31.2687 4.00282ZM37.6594 5.12967L37.6313 5.28922C39.8929 5.68801 41.4029 7.84478 41.0043 10.1064L41.1638 10.1346L41.3234 10.1627C41.7531 7.72482 40.1254 5.39998 37.6875 4.97011L37.6594 5.12967ZM41.1638 10.1346L41.0043 10.1064L35.0022 44.1458L35.1618 44.1739L35.3214 44.202L41.3234 10.1627L41.1638 10.1346Z" fill="#9E5B05"/>
<path d="M11.1975 4.91726C11.6331 2.44646 13.9894 0.796719 16.4601 1.23254L18.4482 1.58321L16.257 14.0096L9.79514 12.8702L11.1975 4.91726Z" fill="#FFDD8E"/>
<path d="M9.88281 12.373L11.8711 12.7236L9.02164 28.8836L7.03338 28.533L9.88281 12.373Z" fill="#D07500"/>
<path d="M26.3874 8.88346L26.5628 7.88913C30.3051 7.01146 30.7478 5.54172 31.1303 3.8306L34.3534 4.39892L33.3463 10.1105L26.3874 8.88346Z" fill="#FFDD8E"/>
<path d="M36.7206 44.4483C36.3062 46.7982 34.0655 48.3671 31.7157 47.9528L25.324 46.8258C25.3461 46.7352 25.3661 46.6436 25.3825 46.5505C25.7968 44.2007 24.2278 41.96 21.878 41.5456C19.5281 41.1313 17.2875 42.7002 16.8731 45.0501C16.8567 45.1431 16.8442 45.2361 16.8339 45.3287L10.4413 44.2016C8.09147 43.7872 6.52251 41.5465 6.93685 39.1967L12.9387 5.15828C13.3531 2.80842 15.5938 1.23951 17.9436 1.65382L24.3353 2.78083C24.313 2.87202 24.292 2.96413 24.2755 3.05787C23.8612 5.40775 25.4299 7.64938 27.7798 8.06372C30.1296 8.47797 32.3705 6.90812 32.7849 4.5583C32.8014 4.46458 32.8141 4.37097 32.8244 4.2777L39.218 5.40506C41.5678 5.81946 43.1368 8.06011 42.7224 10.41L36.7206 44.4483Z" fill="url(#paint0_linear_6112_283314)"/>
<path d="M31.7157 47.9528L31.6875 48.1124L31.6875 48.1124L31.7157 47.9528ZM25.324 46.8258L25.1666 46.7875L25.1258 46.9553L25.2959 46.9853L25.324 46.8258ZM25.3825 46.5505L25.542 46.5786L25.542 46.5786L25.3825 46.5505ZM21.878 41.5456L21.9062 41.386L21.9062 41.386L21.878 41.5456ZM16.8731 45.0501L16.7136 45.0219L16.7136 45.0219L16.8731 45.0501ZM16.8339 45.3287L16.8058 45.4883L16.9759 45.5183L16.9949 45.3466L16.8339 45.3287ZM10.4413 44.2016L10.4132 44.3611L10.4132 44.3611L10.4413 44.2016ZM6.93685 39.1967L6.7773 39.1685L6.93685 39.1967ZM12.9387 5.15828L13.0983 5.18641L12.9387 5.15828ZM17.9436 1.65382L17.9718 1.49426L17.9718 1.49426L17.9436 1.65382ZM24.3353 2.78083L24.4927 2.81923L24.5336 2.6513L24.3634 2.62128L24.3353 2.78083ZM24.2755 3.05787L24.116 3.02972L24.116 3.02974L24.2755 3.05787ZM27.7798 8.06372L27.7517 8.22328L27.7517 8.22328L27.7798 8.06372ZM32.7849 4.5583L32.9444 4.58643L32.9444 4.58642L32.7849 4.5583ZM32.8244 4.2777L32.8526 4.11815L32.6823 4.08813L32.6634 4.25995L32.8244 4.2777ZM39.218 5.40506L39.2461 5.2455L39.2461 5.2455L39.218 5.40506ZM36.7206 44.4483L36.561 44.4202C36.1622 46.6819 34.0055 48.192 31.7438 47.7932L31.7157 47.9528L31.6875 48.1124C34.1255 48.5422 36.4502 46.9144 36.8801 44.4765L36.7206 44.4483ZM31.7157 47.9528L31.7438 47.7932L25.3522 46.6662L25.324 46.8258L25.2959 46.9853L31.6875 48.1124L31.7157 47.9528ZM25.324 46.8258L25.4815 46.8641C25.5041 46.7711 25.5249 46.6759 25.542 46.5786L25.3825 46.5505L25.2229 46.5224C25.2073 46.6112 25.188 46.6994 25.1666 46.7875L25.324 46.8258ZM25.3825 46.5505L25.542 46.5786C25.9719 44.1407 24.3441 41.816 21.9062 41.386L21.878 41.5456L21.8499 41.7052C24.1116 42.104 25.6217 44.2607 25.2229 46.5224L25.3825 46.5505ZM21.878 41.5456L21.9062 41.386C19.4682 40.9562 17.1435 42.5839 16.7136 45.0219L16.8731 45.0501L17.0327 45.0782C17.4315 42.8164 19.5881 41.3064 21.8499 41.7052L21.878 41.5456ZM16.8731 45.0501L16.7136 45.0219C16.6964 45.1192 16.6834 45.2157 16.6729 45.3109L16.8339 45.3287L16.9949 45.3466C17.0049 45.2565 17.017 45.1671 17.0327 45.0782L16.8731 45.0501ZM16.8339 45.3287L16.862 45.1692L10.4695 44.042L10.4413 44.2016L10.4132 44.3611L16.8058 45.4883L16.8339 45.3287ZM10.4413 44.2016L10.4695 44.042C8.20773 43.6432 6.6976 41.4865 7.09641 39.2248L6.93685 39.1967L6.7773 39.1685C6.34742 41.6065 7.97522 43.9312 10.4132 44.3611L10.4413 44.2016ZM6.93685 39.1967L7.09641 39.2248L13.0983 5.18641L12.9387 5.15828L12.7792 5.13015L6.7773 39.1685L6.93685 39.1967ZM12.9387 5.15828L13.0983 5.18641C13.4971 2.92468 15.6538 1.4146 17.9155 1.81337L17.9436 1.65382L17.9718 1.49426C15.5338 1.06442 13.2091 2.69217 12.7792 5.13015L12.9387 5.15828ZM17.9436 1.65382L17.9155 1.81337L24.3071 2.94039L24.3353 2.78083L24.3634 2.62128L17.9718 1.49426L17.9436 1.65382ZM24.3353 2.78083L24.1779 2.74243C24.1553 2.83503 24.1334 2.93099 24.116 3.02972L24.2755 3.05787L24.4351 3.08602C24.4507 2.99726 24.4708 2.909 24.4927 2.81923L24.3353 2.78083ZM24.2755 3.05787L24.116 3.02974C23.6861 5.46769 25.3136 7.79339 27.7517 8.22328L27.7798 8.06372L27.8079 7.90417C25.5462 7.50537 24.0362 5.34781 24.4351 3.086L24.2755 3.05787ZM27.7798 8.06372L27.7517 8.22328C30.1896 8.65307 32.5145 7.02434 32.9444 4.58643L32.7849 4.5583L32.6253 4.53016C32.2265 6.79191 30.0696 8.30287 27.8079 7.90417L27.7798 8.06372ZM32.7849 4.5583L32.9444 4.58642C32.9617 4.48861 32.9749 4.39147 32.9855 4.29546L32.8244 4.2777L32.6634 4.25995C32.6534 4.35046 32.6411 4.44054 32.6253 4.53018L32.7849 4.5583ZM32.8244 4.2777L32.7963 4.43726L39.1898 5.56462L39.218 5.40506L39.2461 5.2455L32.8526 4.11815L32.8244 4.2777ZM39.218 5.40506L39.1898 5.56461C41.4515 5.96348 42.9617 8.1201 42.5629 10.3818L42.7224 10.41L42.882 10.4381C43.3119 8.00012 41.684 5.67544 39.2461 5.2455L39.218 5.40506ZM42.7224 10.41L42.5629 10.3818L36.561 44.4202L36.7206 44.4483L36.8801 44.4765L42.882 10.4381L42.7224 10.41Z" fill="#9E5B05"/>
<g filter="url(#filter0_di_6112_283314)">
<mask id="path-8-inside-1_6112_283314" fill="white">
<path d="M41.7031 15.2754L41.4781 16.5518L12.0101 11.3559L12.2352 10.0794L41.7031 15.2754Z"/>
</mask>
<path d="M41.7031 15.2754L41.4781 16.5518L12.0101 11.3559L12.2352 10.0794L41.7031 15.2754Z" fill="#2D8E04"/>
<path d="M41.7031 15.2754L43.8305 15.6505L44.2057 13.5231L42.0782 13.148L41.7031 15.2754ZM41.4781 16.5518L41.1029 18.6793L43.2303 19.0544L43.6055 16.927L41.4781 16.5518ZM12.0101 11.3559L9.8827 10.9807L9.50758 13.1082L11.635 13.4833L12.0101 11.3559ZM12.2352 10.0794L12.6103 7.95198L10.4829 7.57686L10.1078 9.70428L12.2352 10.0794ZM41.7031 15.2754L39.5757 14.9003L39.3506 16.1767L41.4781 16.5518L43.6055 16.927L43.8305 15.6505L41.7031 15.2754ZM41.4781 16.5518L41.8532 14.4244L12.3852 9.22844L12.0101 11.3559L11.635 13.4833L41.1029 18.6793L41.4781 16.5518ZM12.0101 11.3559L14.1375 11.731L14.3626 10.4545L12.2352 10.0794L10.1078 9.70428L9.8827 10.9807L12.0101 11.3559ZM12.2352 10.0794L11.8601 12.2068L41.328 17.4028L41.7031 15.2754L42.0782 13.148L12.6103 7.95198L12.2352 10.0794Z" fill="#7C4908" mask="url(#path-8-inside-1_6112_283314)"/>
</g>
<g filter="url(#filter1_di_6112_283314)">
<mask id="path-10-inside-2_6112_283314" fill="white">
<path d="M12.2363 10.0801L12.0113 11.3565L10.1808 11.0338L10.4058 9.75731L12.2363 10.0801Z"/>
</mask>
<path d="M12.2363 10.0801L14.3637 10.4552L14.7389 8.32778L12.6114 7.95266L12.2363 10.0801ZM12.0113 11.3565L11.6361 13.484L13.7636 13.8591L14.1387 11.7317L12.0113 11.3565ZM10.1808 11.0338L8.05334 10.6586L7.67822 12.7861L9.80563 13.1612L10.1808 11.0338ZM10.4058 9.75731L10.781 7.6299L8.65353 7.25477L8.27841 9.38219L10.4058 9.75731ZM12.2363 10.0801L10.1089 9.70496L9.88384 10.9814L12.0113 11.3565L14.1387 11.7317L14.3637 10.4552L12.2363 10.0801ZM12.0113 11.3565L12.3864 9.22912L10.5559 8.90635L10.1808 11.0338L9.80563 13.1612L11.6361 13.484L12.0113 11.3565ZM10.1808 11.0338L12.3082 11.4089L12.5332 10.1324L10.4058 9.75731L8.27841 9.38219L8.05334 10.6586L10.1808 11.0338ZM10.4058 9.75731L10.0307 11.8847L11.8612 12.2075L12.2363 10.0801L12.6114 7.95266L10.781 7.6299L10.4058 9.75731Z" fill="#AA6207" mask="url(#path-10-inside-2_6112_283314)"/>
</g>
<g filter="url(#filter2_di_6112_283314)">
<path d="M29.3507 20.9598L29.1648 21.1759L24.3839 26.7339L29.4311 27.6238C30.201 27.7596 30.4783 28.7217 29.8986 29.2463L22.6209 35.8326L22.2705 36.1496L23.4616 29.3944L18.5693 28.5318C17.9334 28.4196 17.5971 27.7138 17.9107 27.1493L21.4696 20.7442C21.8253 20.1044 22.5477 19.7604 23.2687 19.8874L29.3507 20.9598Z" fill="#FFEEDD" stroke="#7C4908" stroke-width="0.324035"/>
</g>
</g>
<defs>
<filter id="filter0_di_6112_283314" x="12.0098" y="10.0791" width="29.6934" height="6.79569" filterUnits="userSpaceOnUse" color-interpolation-filters="sRGB">
<feFlood flood-opacity="0" result="BackgroundImageFix"/>
<feColorMatrix in="SourceAlpha" type="matrix" values="0 0 0 0 0 0 0 0 0 0 0 0 0 0 0 0 0 0 127 0" result="hardAlpha"/>
<feOffset dy="0.323029"/>
<feComposite in2="hardAlpha" operator="out"/>
<feColorMatrix type="matrix" values="0 0 0 0 1 0 0 0 0 1 0 0 0 0 1 0 0 0 0.39 0"/>
<feBlend mode="normal" in2="BackgroundImageFix" result="effect1_dropShadow_6112_283314"/>
<feBlend mode="normal" in="SourceGraphic" in2="effect1_dropShadow_6112_283314" result="shape"/>
<feColorMatrix in="SourceAlpha" type="matrix" values="0 0 0 0 0 0 0 0 0 0 0 0 0 0 0 0 0 0 127 0" result="hardAlpha"/>
<feOffset dy="0.323029"/>
<feGaussianBlur stdDeviation="0.291632"/>
<feComposite in2="hardAlpha" operator="arithmetic" k2="-1" k3="1"/>
<feColorMatrix type="matrix" values="0 0 0 0 0 0 0 0 0 0 0 0 0 0 0 0 0 0 0.25 0"/>
<feBlend mode="normal" in2="shape" result="effect2_innerShadow_6112_283314"/>
</filter>
<filter id="filter1_di_6112_283314" x="10.1816" y="9.75684" width="2.05469" height="1.92264" filterUnits="userSpaceOnUse" color-interpolation-filters="sRGB">
<feFlood flood-opacity="0" result="BackgroundImageFix"/>
<feColorMatrix in="SourceAlpha" type="matrix" values="0 0 0 0 0 0 0 0 0 0 0 0 0 0 0 0 0 0 127 0" result="hardAlpha"/>
<feOffset dy="0.323029"/>
<feComposite in2="hardAlpha" operator="out"/>
<feColorMatrix type="matrix" values="0 0 0 0 1 0 0 0 0 1 0 0 0 0 1 0 0 0 0.39 0"/>
<feBlend mode="normal" in2="BackgroundImageFix" result="effect1_dropShadow_6112_283314"/>
<feBlend mode="normal" in="SourceGraphic" in2="effect1_dropShadow_6112_283314" result="shape"/>
<feColorMatrix in="SourceAlpha" type="matrix" values="0 0 0 0 0 0 0 0 0 0 0 0 0 0 0 0 0 0 127 0" result="hardAlpha"/>
<feOffset dy="0.323029"/>
<feGaussianBlur stdDeviation="0.291632"/>
<feComposite in2="hardAlpha" operator="arithmetic" k2="-1" k3="1"/>
<feColorMatrix type="matrix" values="0 0 0 0 0 0 0 0 0 0 0 0 0 0 0 0 0 0 0.25 0"/>
<feBlend mode="normal" in2="shape" result="effect2_innerShadow_6112_283314"/>
</filter>
<filter id="filter2_di_6112_283314" x="17.3049" y="19.6992" width="13.7143" height="17.5358" filterUnits="userSpaceOnUse" color-interpolation-filters="sRGB">
<feFlood flood-opacity="0" result="BackgroundImageFix"/>
<feColorMatrix in="SourceAlpha" type="matrix" values="0 0 0 0 0 0 0 0 0 0 0 0 0 0 0 0 0 0 127 0" result="hardAlpha"/>
<feOffset dx="-0.324035" dy="0.324035"/>
<feComposite in2="hardAlpha" operator="out"/>
<feColorMatrix type="matrix" values="0 0 0 0 0.541176 0 0 0 0 0.34 0 0 0 0 0.0941176 0 0 0 1 0"/>
<feBlend mode="normal" in2="BackgroundImageFix" result="effect1_dropShadow_6112_283314"/>
<feBlend mode="normal" in="SourceGraphic" in2="effect1_dropShadow_6112_283314" result="shape"/>
<feColorMatrix in="SourceAlpha" type="matrix" values="0 0 0 0 0 0 0 0 0 0 0 0 0 0 0 0 0 0 127 0" result="hardAlpha"/>
<feOffset dx="0.648071" dy="0.648071"/>
<feGaussianBlur stdDeviation="0.648071"/>
<feComposite in2="hardAlpha" operator="arithmetic" k2="-1" k3="1"/>
<feColorMatrix type="matrix" values="0 0 0 0 1 0 0 0 0 1 0 0 0 0 1 0 0 0 1 0"/>
<feBlend mode="normal" in2="shape" result="effect2_innerShadow_6112_283314"/>
</filter>
<linearGradient id="paint0_linear_6112_283314" x1="43.2224" y1="6.3306" x2="6.43737" y2="43.2763" gradientUnits="userSpaceOnUse">
<stop stop-color="#EFBB36"/>
<stop offset="1" stop-color="#DC9D22"/>
</linearGradient>
<clipPath id="clip0_6112_283314">
<rect width="48" height="48" fill="white"/>
</clipPath>
</defs>
</svg>
