<svg width="25" height="24" viewBox="0 0 25 24" fill="none" xmlns="http://www.w3.org/2000/svg">
<path d="M12.5664 24C19.1938 24 24.5664 18.6274 24.5664 12C24.5664 5.37259 19.1938 0 12.5664 0C5.93899 0 0.566406 5.37259 0.566406 12C0.566406 18.6274 5.93899 24 12.5664 24Z" fill="#FFD34D"/>
<path d="M6.36452 6.12103L9.74772 8.23868L5.95612 10.3614" stroke="#603813" stroke-width="2" stroke-miterlimit="10" stroke-linecap="round"/>
<path d="M18.768 6.12103L15.3848 8.23868L19.1764 10.3614" stroke="#603813" stroke-width="2" stroke-miterlimit="10" stroke-linecap="round"/>
<path d="M20.4419 13.9059C20.4419 13.9059 20.0234 15.8521 18.5663 17.6017C17.3814 19.0437 15.4906 20.3596 12.5663 20.3596C9.6419 20.3596 7.75115 19.0437 6.56627 17.6017C5.10913 15.847 4.69064 13.9059 4.69064 13.9059C7.74106 12.4538 12.5612 12.5193 12.5612 12.5193C12.5612 12.5193 17.3864 12.4538 20.4318 13.9059H20.4419Z" fill="#351800"/>
<path d="M18.5666 17.6016C17.3817 19.0436 15.491 20.3596 12.5666 20.3596C9.64225 20.3596 7.75149 19.0436 6.56662 17.6016C8.03385 16.7394 10.1767 16.1949 12.5666 16.1949C14.9565 16.1949 17.0994 16.7394 18.5666 17.6016Z" fill="#EC4963"/>
</svg>
