<svg width="19" height="19" viewBox="0 0 19 19" fill="none" xmlns="http://www.w3.org/2000/svg">
<path d="M1.00334 9.83157C0.687141 7.63402 0.529039 6.53525 0.979423 5.5958C1.42981 4.65635 2.38844 4.08529 4.30571 2.94319L5.45974 2.25574C7.20082 1.21859 8.07136 0.700012 9.03328 0.700012C9.99521 0.700012 10.8657 1.21859 12.6068 2.25574L13.7609 2.94319C15.6781 4.08529 16.6368 4.65635 17.0871 5.5958C17.5375 6.53525 17.3794 7.63403 17.0632 9.83157L16.8309 11.446C16.4247 14.2689 16.2216 15.6803 15.2424 16.5235C14.2632 17.3667 12.8271 17.3667 9.95501 17.3667H8.11156C5.23943 17.3667 3.80336 17.3667 2.82414 16.5235C1.84492 15.6803 1.64183 14.2689 1.23565 11.446L1.00334 9.83157Z" stroke="url(#paint0_linear_1640_50460)" stroke-width="1.4"/>
<path d="M6.53333 12.3667C7.24197 12.892 8.1038 13.2 9.03333 13.2C9.96286 13.2 10.8247 12.892 11.5333 12.3667" stroke="url(#paint1_linear_1640_50460)" stroke-width="1.4" stroke-linecap="round"/>
<defs>
<linearGradient id="paint0_linear_1640_50460" x1="9.03328" y1="0.700012" x2="9.03328" y2="17.3667" gradientUnits="userSpaceOnUse">
<stop stop-color="#434343"/>
<stop offset="1" stop-color="#818181"/>
</linearGradient>
<linearGradient id="paint1_linear_1640_50460" x1="9.03333" y1="12.3667" x2="9.03333" y2="13.2" gradientUnits="userSpaceOnUse">
<stop stop-color="#434343"/>
<stop offset="1" stop-color="#818181"/>
</linearGradient>
</defs>
</svg>
