<svg width="17" height="17" viewBox="0 0 17 17" fill="none" xmlns="http://www.w3.org/2000/svg">
<path d="M0.303394 9.13155C-0.0128102 6.93401 -0.170912 5.83524 0.279472 4.89579C0.729856 3.95633 1.68849 3.38528 3.60576 2.24318L4.75979 1.55573C6.50087 0.518575 7.37141 0 8.33333 0C9.29526 0 10.1658 0.518575 11.9069 1.55572L13.0609 2.24317C14.9782 3.38528 15.9368 3.95633 16.3872 4.89579C16.8376 5.83524 16.6795 6.93401 16.3633 9.13156L16.131 10.746C15.7248 13.5689 15.5217 14.9803 14.5425 15.8235C13.5633 16.6667 12.1272 16.6667 9.25506 16.6667H7.4116C4.53947 16.6667 3.10341 16.6667 2.12419 15.8235C1.14497 14.9803 0.941879 13.5689 0.535698 10.746L0.303394 9.13155Z" fill="white"/>
<path d="M5.83337 11.6667C6.54202 12.1919 7.40384 12.5 8.33337 12.5C9.2629 12.5 10.1247 12.1919 10.8334 11.6667" stroke="#343A40" stroke-width="1.2" stroke-linecap="round"/>
</svg>
