<svg width="360" height="760" viewBox="0 0 360 760" fill="none" xmlns="http://www.w3.org/2000/svg">
<g clip-path="url(#clip0_3488_50328)">
<rect width="360" height="760" fill="#FFFFFD"/>
<g opacity="0.2">
<mask id="path-1-inside-1_3488_50328" fill="white">
<path fill-rule="evenodd" clip-rule="evenodd" d="M138 814.454C138 818.968 139.207 823.786 141.621 827.387L142.862 829.246C144.207 831.066 145.656 832.658 147.311 834.024C147.863 834.48 148.415 834.934 149.035 835.351L150.863 836.565C152.691 837.778 155.07 838.689 157.243 839.219C163.588 840.812 169.072 839.903 174.934 837.21L188.28 829.208C188.729 828.981 189.004 828.752 189.453 828.487C194.833 825.492 200.143 822.267 205.523 819.309L236.009 803.532L251.872 796.29C253.665 795.493 255.528 794.811 257.252 794.014L262.666 791.776C263.632 791.397 264.528 791.094 265.459 790.713C269.115 789.159 272.908 787.945 276.598 786.58C282.323 784.457 291.22 781.803 297.117 780.246C307.325 777.591 318.567 775.166 329.155 774.255C333.327 773.914 337.431 773.533 341.604 773.571C342.432 773.571 342.776 773.458 343.432 773.42C344.777 773.382 345.672 773.571 346.985 773.571L364.502 774.861C368.917 775.507 373.228 776.112 377.572 777.023C381.712 777.896 385.849 778.729 389.883 779.829L395.953 781.46C401.884 783.092 407.506 785.063 413.3 786.961L418.991 789.007C420.817 789.767 422.646 790.372 424.542 791.094C430.508 793.368 437.749 796.328 443.44 799.02L451.373 802.662C452.27 803.078 453.096 803.457 453.924 803.873L471.96 812.9C472.788 813.28 473.58 813.81 474.409 814.227C475.34 814.683 476.098 815.1 476.96 815.554L500.48 828.752C500.997 829.019 501.307 829.246 501.756 829.511C502.584 829.966 503.307 830.384 504.17 830.914C504.618 831.18 504.859 831.369 505.343 831.634C508.723 833.456 511.756 835.77 515.308 837.21C521.309 839.676 529.517 839.562 535.242 836.527C536.862 835.656 538.45 834.821 539.932 833.645C543.691 830.649 546.724 826.857 548.484 822.115C550.692 816.086 550.382 810.358 548.243 804.405C547.415 802.129 546.105 799.172 545.173 796.744C544.173 794.127 543.278 791.624 542.139 789.045C541.036 786.504 540.173 783.811 539.104 781.27C538.553 779.981 538.103 778.767 537.587 777.44L534.551 769.778C534.035 768.413 533.551 767.24 533.034 765.95C532.518 764.661 532.068 763.447 531.518 762.119L522.413 738.984C521.896 737.695 521.447 736.481 520.896 735.154L511.791 712.021C510.756 709.404 509.757 706.825 508.723 704.246L493.583 665.713C490.687 657.9 487.341 650.279 484.409 642.504C483.445 639.963 482.341 637.346 481.41 634.805C478.03 625.741 474.168 616.904 470.788 607.804C467.408 598.702 463.511 589.827 460.131 580.725L454.028 565.251C453.511 563.999 453.027 562.748 452.511 561.42L441.889 534.419C440.888 531.802 439.888 529.337 438.853 526.758L425.198 491.98C422.196 484.244 419.197 476.507 416.058 468.846L405.402 441.768C402.885 435.359 400.264 428.988 397.85 422.54L384.16 387.801C380.158 377.523 376.159 367.208 372.019 356.968C370.227 352.493 369.502 349.763 367.054 345.743C364.917 342.216 361.95 339.106 358.57 337.096C355.365 335.124 351.985 333.796 348.295 333.227C340.741 332.052 332.913 334.214 326.844 339.22C326.327 339.637 325.947 340.092 325.465 340.509C324.43 341.419 323.878 342.254 322.982 343.278C322.602 343.695 322.223 344.301 321.913 344.756C319.74 347.98 319.016 350.256 317.533 353.896C314.946 360.268 312.498 366.715 309.946 373.086C309.429 374.376 308.946 375.589 308.429 376.917C306.946 380.823 305.325 384.615 303.842 388.522C301.911 393.679 299.738 398.723 297.807 403.881C297.531 404.564 297.324 405.057 297.083 405.778C296.807 406.498 296.531 407.105 296.29 407.75C296.048 408.432 295.772 409.039 295.531 409.722L290.22 423.223C289.668 424.588 289.22 425.802 288.668 427.167C284.53 437.407 280.53 447.722 276.529 458L270.425 473.435C269.874 474.763 269.425 475.976 268.908 477.266C268.391 478.555 267.908 479.769 267.391 481.096L250.665 523.534C250.148 524.861 249.699 526.037 249.148 527.364L239.974 550.574C238.871 553.153 238.078 555.694 236.974 558.273C235.181 562.483 232.629 569.233 230.87 573.709L224.835 589.105C223.801 591.722 222.732 594.301 221.766 596.88C218.869 604.655 215.593 612.24 212.627 620.015L202.006 647.016C201.488 648.382 201.005 649.558 200.488 650.847C199.04 654.451 197.384 659.038 195.936 662.49L192.901 670.152C190.453 676.675 187.763 683.084 185.246 689.532C181.763 698.518 178.107 707.393 174.658 716.419C170.727 726.773 166.382 736.976 162.485 747.327C162.002 748.617 161.416 749.982 160.933 751.271C160.45 752.599 159.933 753.775 159.416 755.102C158.45 757.605 157.45 760.373 156.381 762.801L151.863 774.331C151.38 775.582 150.863 776.834 150.346 778.161C149.829 779.564 149.346 780.74 148.794 782.105L141.207 801.41C139.69 805.884 138 808.993 138 814.454ZM267.046 688.886C267.046 690.592 267.494 692.376 268.391 693.741L268.839 694.422C269.322 695.106 269.874 695.712 270.494 696.206C270.701 696.358 270.908 696.547 271.149 696.699L271.839 697.153C272.529 697.609 273.426 697.95 274.219 698.139C276.598 698.747 278.633 698.405 280.84 697.382L285.84 694.385C286.013 694.309 286.116 694.195 286.289 694.12C288.289 692.982 290.289 691.806 292.289 690.705L303.67 684.828L309.601 682.136C310.256 681.833 310.946 681.568 311.601 681.3L313.636 680.467C313.981 680.316 314.326 680.2 314.671 680.049C316.05 679.481 317.464 679.027 318.843 678.494C320.982 677.699 324.292 676.713 326.499 676.142C330.327 675.158 334.5 674.247 338.466 673.906C340.018 673.755 341.569 673.639 343.121 673.639C343.432 673.639 343.57 673.601 343.811 673.601C344.328 673.601 344.639 673.639 345.121 673.639L351.673 674.134C353.329 674.399 354.949 674.588 356.572 674.931C358.123 675.234 359.674 675.575 361.191 675.991L363.467 676.599C365.675 677.205 367.779 677.964 369.952 678.646L372.09 679.405C372.779 679.67 373.469 679.897 374.158 680.2C376.4 681.073 379.089 682.136 381.228 683.16L384.195 684.525C384.504 684.677 384.849 684.828 385.159 684.98L391.918 688.356C392.228 688.507 392.54 688.697 392.85 688.848C393.194 688.999 393.47 689.151 393.816 689.34L402.609 694.271C402.816 694.385 402.919 694.46 403.091 694.574C403.403 694.765 403.678 694.917 403.988 695.106C404.16 695.22 404.229 695.258 404.438 695.371C405.679 696.053 406.852 696.926 408.162 697.458C410.404 698.367 413.472 698.329 415.611 697.191C416.23 696.85 416.818 696.547 417.368 696.093C418.784 694.993 419.922 693.552 420.576 691.768C421.405 689.532 421.301 687.369 420.473 685.169C420.163 684.298 419.679 683.198 419.335 682.325C418.956 681.338 418.61 680.392 418.197 679.443C417.784 678.494 417.472 677.508 417.059 676.523C416.852 676.029 416.68 675.575 416.508 675.082L415.37 672.198C415.163 671.706 414.989 671.252 414.817 670.757C414.61 670.265 414.438 669.811 414.266 669.316L410.852 660.671C410.645 660.176 410.473 659.722 410.299 659.23L406.886 650.582C406.506 649.595 406.127 648.649 405.748 647.662L400.092 633.251C398.988 630.331 397.747 627.485 396.678 624.565C396.333 623.616 395.918 622.632 395.539 621.683C394.264 618.307 392.85 615.009 391.574 611.595C390.298 608.183 388.85 604.882 387.609 601.47L385.333 595.704C385.124 595.212 384.952 594.758 384.78 594.263L380.815 584.175C380.436 583.19 380.055 582.279 379.676 581.293L374.573 568.284C373.435 565.402 372.331 562.52 371.159 559.639L367.157 549.512C366.228 547.122 365.227 544.735 364.33 542.345L359.227 529.337C357.744 525.506 356.225 521.638 354.708 517.807C354.018 516.139 353.743 515.115 352.845 513.636C352.054 512.308 350.95 511.171 349.674 510.412C348.467 509.692 347.226 509.198 345.846 508.971C343.017 508.516 340.087 509.35 337.845 511.208C337.638 511.36 337.5 511.512 337.328 511.702C336.948 512.043 336.741 512.346 336.397 512.726C336.259 512.877 336.121 513.105 335.983 513.294C335.155 514.508 334.914 515.342 334.362 516.708C333.396 519.097 332.465 521.486 331.534 523.875C331.327 524.368 331.155 524.824 330.982 525.316C330.431 526.796 329.81 528.199 329.258 529.678C328.534 531.613 327.741 533.508 326.982 535.403C326.879 535.671 326.81 535.86 326.706 536.125C326.603 536.39 326.499 536.617 326.43 536.847C326.327 537.112 326.258 537.339 326.154 537.604L324.189 542.648C323.982 543.14 323.809 543.597 323.602 544.127C322.051 547.958 320.568 551.826 319.085 555.657L316.809 561.42C316.602 561.915 316.429 562.369 316.257 562.861C316.085 563.356 315.878 563.81 315.705 564.302L309.463 580.155C309.256 580.649 309.084 581.103 308.912 581.598L305.497 590.281C305.084 591.268 304.773 592.179 304.359 593.163C303.704 594.758 302.738 597.259 302.083 598.929L299.842 604.693C299.462 605.679 299.048 606.628 298.704 607.575C297.635 610.497 296.393 613.341 295.29 616.222L291.324 626.311C291.117 626.803 290.944 627.258 290.772 627.752C290.22 629.079 289.599 630.823 289.082 632.113L287.944 634.995C287.013 637.422 286.013 639.812 285.082 642.239C283.771 645.613 282.392 648.914 281.116 652.288C279.633 656.156 278.012 659.949 276.564 663.856C276.391 664.348 276.15 664.842 275.978 665.334C275.805 665.829 275.598 666.283 275.426 666.775C275.046 667.724 274.702 668.749 274.288 669.657L272.598 673.982C272.426 674.437 272.219 674.929 272.046 675.423C271.839 675.953 271.667 676.372 271.46 676.902L268.632 684.107C267.666 685.663 267.046 686.839 267.046 688.886Z"/>
</mask>
<path fill-rule="evenodd" clip-rule="evenodd" d="M138 814.454C138 818.968 139.207 823.786 141.621 827.387L142.862 829.246C144.207 831.066 145.656 832.658 147.311 834.024C147.863 834.48 148.415 834.934 149.035 835.351L150.863 836.565C152.691 837.778 155.07 838.689 157.243 839.219C163.588 840.812 169.072 839.903 174.934 837.21L188.28 829.208C188.729 828.981 189.004 828.752 189.453 828.487C194.833 825.492 200.143 822.267 205.523 819.309L236.009 803.532L251.872 796.29C253.665 795.493 255.528 794.811 257.252 794.014L262.666 791.776C263.632 791.397 264.528 791.094 265.459 790.713C269.115 789.159 272.908 787.945 276.598 786.58C282.323 784.457 291.22 781.803 297.117 780.246C307.325 777.591 318.567 775.166 329.155 774.255C333.327 773.914 337.431 773.533 341.604 773.571C342.432 773.571 342.776 773.458 343.432 773.42C344.777 773.382 345.672 773.571 346.985 773.571L364.502 774.861C368.917 775.507 373.228 776.112 377.572 777.023C381.712 777.896 385.849 778.729 389.883 779.829L395.953 781.46C401.884 783.092 407.506 785.063 413.3 786.961L418.991 789.007C420.817 789.767 422.646 790.372 424.542 791.094C430.508 793.368 437.749 796.328 443.44 799.02L451.373 802.662C452.27 803.078 453.096 803.457 453.924 803.873L471.96 812.9C472.788 813.28 473.58 813.81 474.409 814.227C475.34 814.683 476.098 815.1 476.96 815.554L500.48 828.752C500.997 829.019 501.307 829.246 501.756 829.511C502.584 829.966 503.307 830.384 504.17 830.914C504.618 831.18 504.859 831.369 505.343 831.634C508.723 833.456 511.756 835.77 515.308 837.21C521.309 839.676 529.517 839.562 535.242 836.527C536.862 835.656 538.45 834.821 539.932 833.645C543.691 830.649 546.724 826.857 548.484 822.115C550.692 816.086 550.382 810.358 548.243 804.405C547.415 802.129 546.105 799.172 545.173 796.744C544.173 794.127 543.278 791.624 542.139 789.045C541.036 786.504 540.173 783.811 539.104 781.27C538.553 779.981 538.103 778.767 537.587 777.44L534.551 769.778C534.035 768.413 533.551 767.24 533.034 765.95C532.518 764.661 532.068 763.447 531.518 762.119L522.413 738.984C521.896 737.695 521.447 736.481 520.896 735.154L511.791 712.021C510.756 709.404 509.757 706.825 508.723 704.246L493.583 665.713C490.687 657.9 487.341 650.279 484.409 642.504C483.445 639.963 482.341 637.346 481.41 634.805C478.03 625.741 474.168 616.904 470.788 607.804C467.408 598.702 463.511 589.827 460.131 580.725L454.028 565.251C453.511 563.999 453.027 562.748 452.511 561.42L441.889 534.419C440.888 531.802 439.888 529.337 438.853 526.758L425.198 491.98C422.196 484.244 419.197 476.507 416.058 468.846L405.402 441.768C402.885 435.359 400.264 428.988 397.85 422.54L384.16 387.801C380.158 377.523 376.159 367.208 372.019 356.968C370.227 352.493 369.502 349.763 367.054 345.743C364.917 342.216 361.95 339.106 358.57 337.096C355.365 335.124 351.985 333.796 348.295 333.227C340.741 332.052 332.913 334.214 326.844 339.22C326.327 339.637 325.947 340.092 325.465 340.509C324.43 341.419 323.878 342.254 322.982 343.278C322.602 343.695 322.223 344.301 321.913 344.756C319.74 347.98 319.016 350.256 317.533 353.896C314.946 360.268 312.498 366.715 309.946 373.086C309.429 374.376 308.946 375.589 308.429 376.917C306.946 380.823 305.325 384.615 303.842 388.522C301.911 393.679 299.738 398.723 297.807 403.881C297.531 404.564 297.324 405.057 297.083 405.778C296.807 406.498 296.531 407.105 296.29 407.75C296.048 408.432 295.772 409.039 295.531 409.722L290.22 423.223C289.668 424.588 289.22 425.802 288.668 427.167C284.53 437.407 280.53 447.722 276.529 458L270.425 473.435C269.874 474.763 269.425 475.976 268.908 477.266C268.391 478.555 267.908 479.769 267.391 481.096L250.665 523.534C250.148 524.861 249.699 526.037 249.148 527.364L239.974 550.574C238.871 553.153 238.078 555.694 236.974 558.273C235.181 562.483 232.629 569.233 230.87 573.709L224.835 589.105C223.801 591.722 222.732 594.301 221.766 596.88C218.869 604.655 215.593 612.24 212.627 620.015L202.006 647.016C201.488 648.382 201.005 649.558 200.488 650.847C199.04 654.451 197.384 659.038 195.936 662.49L192.901 670.152C190.453 676.675 187.763 683.084 185.246 689.532C181.763 698.518 178.107 707.393 174.658 716.419C170.727 726.773 166.382 736.976 162.485 747.327C162.002 748.617 161.416 749.982 160.933 751.271C160.45 752.599 159.933 753.775 159.416 755.102C158.45 757.605 157.45 760.373 156.381 762.801L151.863 774.331C151.38 775.582 150.863 776.834 150.346 778.161C149.829 779.564 149.346 780.74 148.794 782.105L141.207 801.41C139.69 805.884 138 808.993 138 814.454ZM267.046 688.886C267.046 690.592 267.494 692.376 268.391 693.741L268.839 694.422C269.322 695.106 269.874 695.712 270.494 696.206C270.701 696.358 270.908 696.547 271.149 696.699L271.839 697.153C272.529 697.609 273.426 697.95 274.219 698.139C276.598 698.747 278.633 698.405 280.84 697.382L285.84 694.385C286.013 694.309 286.116 694.195 286.289 694.12C288.289 692.982 290.289 691.806 292.289 690.705L303.67 684.828L309.601 682.136C310.256 681.833 310.946 681.568 311.601 681.3L313.636 680.467C313.981 680.316 314.326 680.2 314.671 680.049C316.05 679.481 317.464 679.027 318.843 678.494C320.982 677.699 324.292 676.713 326.499 676.142C330.327 675.158 334.5 674.247 338.466 673.906C340.018 673.755 341.569 673.639 343.121 673.639C343.432 673.639 343.57 673.601 343.811 673.601C344.328 673.601 344.639 673.639 345.121 673.639L351.673 674.134C353.329 674.399 354.949 674.588 356.572 674.931C358.123 675.234 359.674 675.575 361.191 675.991L363.467 676.599C365.675 677.205 367.779 677.964 369.952 678.646L372.09 679.405C372.779 679.67 373.469 679.897 374.158 680.2C376.4 681.073 379.089 682.136 381.228 683.16L384.195 684.525C384.504 684.677 384.849 684.828 385.159 684.98L391.918 688.356C392.228 688.507 392.54 688.697 392.85 688.848C393.194 688.999 393.47 689.151 393.816 689.34L402.609 694.271C402.816 694.385 402.919 694.46 403.091 694.574C403.403 694.765 403.678 694.917 403.988 695.106C404.16 695.22 404.229 695.258 404.438 695.371C405.679 696.053 406.852 696.926 408.162 697.458C410.404 698.367 413.472 698.329 415.611 697.191C416.23 696.85 416.818 696.547 417.368 696.093C418.784 694.993 419.922 693.552 420.576 691.768C421.405 689.532 421.301 687.369 420.473 685.169C420.163 684.298 419.679 683.198 419.335 682.325C418.956 681.338 418.61 680.392 418.197 679.443C417.784 678.494 417.472 677.508 417.059 676.523C416.852 676.029 416.68 675.575 416.508 675.082L415.37 672.198C415.163 671.706 414.989 671.252 414.817 670.757C414.61 670.265 414.438 669.811 414.266 669.316L410.852 660.671C410.645 660.176 410.473 659.722 410.299 659.23L406.886 650.582C406.506 649.595 406.127 648.649 405.748 647.662L400.092 633.251C398.988 630.331 397.747 627.485 396.678 624.565C396.333 623.616 395.918 622.632 395.539 621.683C394.264 618.307 392.85 615.009 391.574 611.595C390.298 608.183 388.85 604.882 387.609 601.47L385.333 595.704C385.124 595.212 384.952 594.758 384.78 594.263L380.815 584.175C380.436 583.19 380.055 582.279 379.676 581.293L374.573 568.284C373.435 565.402 372.331 562.52 371.159 559.639L367.157 549.512C366.228 547.122 365.227 544.735 364.33 542.345L359.227 529.337C357.744 525.506 356.225 521.638 354.708 517.807C354.018 516.139 353.743 515.115 352.845 513.636C352.054 512.308 350.95 511.171 349.674 510.412C348.467 509.692 347.226 509.198 345.846 508.971C343.017 508.516 340.087 509.35 337.845 511.208C337.638 511.36 337.5 511.512 337.328 511.702C336.948 512.043 336.741 512.346 336.397 512.726C336.259 512.877 336.121 513.105 335.983 513.294C335.155 514.508 334.914 515.342 334.362 516.708C333.396 519.097 332.465 521.486 331.534 523.875C331.327 524.368 331.155 524.824 330.982 525.316C330.431 526.796 329.81 528.199 329.258 529.678C328.534 531.613 327.741 533.508 326.982 535.403C326.879 535.671 326.81 535.86 326.706 536.125C326.603 536.39 326.499 536.617 326.43 536.847C326.327 537.112 326.258 537.339 326.154 537.604L324.189 542.648C323.982 543.14 323.809 543.597 323.602 544.127C322.051 547.958 320.568 551.826 319.085 555.657L316.809 561.42C316.602 561.915 316.429 562.369 316.257 562.861C316.085 563.356 315.878 563.81 315.705 564.302L309.463 580.155C309.256 580.649 309.084 581.103 308.912 581.598L305.497 590.281C305.084 591.268 304.773 592.179 304.359 593.163C303.704 594.758 302.738 597.259 302.083 598.929L299.842 604.693C299.462 605.679 299.048 606.628 298.704 607.575C297.635 610.497 296.393 613.341 295.29 616.222L291.324 626.311C291.117 626.803 290.944 627.258 290.772 627.752C290.22 629.079 289.599 630.823 289.082 632.113L287.944 634.995C287.013 637.422 286.013 639.812 285.082 642.239C283.771 645.613 282.392 648.914 281.116 652.288C279.633 656.156 278.012 659.949 276.564 663.856C276.391 664.348 276.15 664.842 275.978 665.334C275.805 665.829 275.598 666.283 275.426 666.775C275.046 667.724 274.702 668.749 274.288 669.657L272.598 673.982C272.426 674.437 272.219 674.929 272.046 675.423C271.839 675.953 271.667 676.372 271.46 676.902L268.632 684.107C267.666 685.663 267.046 686.839 267.046 688.886Z" stroke="url(#paint0_linear_3488_50328)" stroke-width="2" mask="url(#path-1-inside-1_3488_50328)"/>
</g>
<g opacity="0.23" filter="url(#filter0_f_3488_50328)">
<circle cx="180.5" cy="244.5" r="184.5" fill="#F7EBC6"/>
</g>
</g>
<defs>
<filter id="filter0_f_3488_50328" x="-58" y="6" width="477" height="477" filterUnits="userSpaceOnUse" color-interpolation-filters="sRGB">
<feFlood flood-opacity="0" result="BackgroundImageFix"/>
<feBlend mode="normal" in="SourceGraphic" in2="BackgroundImageFix" result="shape"/>
<feGaussianBlur stdDeviation="27" result="effect1_foregroundBlur_3488_50328"/>
</filter>
<linearGradient id="paint0_linear_3488_50328" x1="344" y1="332.914" x2="344" y2="840.005" gradientUnits="userSpaceOnUse">
<stop stop-color="#CC941B"/>
<stop offset="0.375" stop-color="#FEF8B6"/>
<stop offset="0.673077" stop-color="#D39818"/>
<stop offset="1" stop-color="#D39818" stop-opacity="0"/>
</linearGradient>
<clipPath id="clip0_3488_50328">
<rect width="360" height="760" fill="white"/>
</clipPath>
</defs>
</svg>
