<svg width="24" height="24" viewBox="0 0 24 24" fill="none" xmlns="http://www.w3.org/2000/svg">
<path d="M22.3319 5.0549H18.3591V4.28558C18.3591 4.23823 18.3466 4.19172 18.323 4.15071C18.2993 4.10971 18.2653 4.07565 18.2243 4.05198L12.1347 0.53611C12.0937 0.512454 12.0472 0.5 11.9999 0.5C11.9526 0.5 11.9061 0.512454 11.8651 0.53611L5.77554 4.05212C5.73454 4.07579 5.7005 4.10984 5.67684 4.15085C5.65319 4.19185 5.64075 4.23837 5.64078 4.28571V5.05504H1.66796C1.3583 5.05538 1.06143 5.17854 0.842468 5.39751C0.623508 5.61647 0.500345 5.91334 0.5 6.223L0.5 19.4515C0.500357 19.7611 0.623524 20.058 0.842482 20.277C1.06144 20.4959 1.35831 20.6191 1.66796 20.6195H10.4105V21.7452H9.10036C8.90444 21.7454 8.7166 21.8233 8.57804 21.9619C8.43949 22.1004 8.36153 22.2882 8.36127 22.4841V23.2305C8.36127 23.302 8.38967 23.3705 8.44021 23.4211C8.49076 23.4716 8.55931 23.5 8.6308 23.5H15.369C15.4405 23.5 15.5091 23.4716 15.5596 23.4211C15.6102 23.3705 15.6386 23.302 15.6386 23.2305V22.4841C15.6383 22.2882 15.5604 22.1003 15.4218 21.9617C15.2833 21.8232 15.0954 21.7452 14.8994 21.745H13.5893V20.6193H22.3319C22.6415 20.6189 22.9384 20.4957 23.1573 20.2768C23.3763 20.0578 23.4995 19.761 23.4998 19.4513V6.22286C23.4995 5.91321 23.3763 5.61633 23.1574 5.39737C22.9384 5.17841 22.6415 5.05525 22.3319 5.0549ZM6.17983 8.54081V4.7524L11.7304 7.95715V14.3662L6.17983 11.1616V8.54081ZM12.2694 7.95715L17.82 4.7524V11.1616L12.2694 14.3662V7.95715ZM11.9999 1.08092L17.5505 4.28553L11.9999 7.48996L6.44936 4.28553L11.9999 1.08092ZM15.0995 22.4841V22.9609H8.90033V22.4841C8.90039 22.4311 8.92149 22.3802 8.959 22.3427C8.99651 22.3052 9.04736 22.2841 9.10041 22.2841H14.8995C14.9525 22.2841 15.0033 22.3052 15.0408 22.3427C15.0783 22.3803 15.0994 22.4311 15.0995 22.4841ZM13.0502 21.745H10.9496V20.6193H13.0503L13.0502 21.745ZM22.9608 19.4514C22.9606 19.6181 22.8943 19.778 22.7764 19.8959C22.6585 20.0138 22.4986 20.0801 22.3319 20.0803H1.66796C1.50122 20.0801 1.34136 20.0138 1.22346 19.8959C1.10555 19.778 1.03924 19.6181 1.03906 19.4514V6.22286C1.03924 6.05612 1.10555 5.89626 1.22346 5.77836C1.34136 5.66046 1.50122 5.59414 1.66796 5.59396H5.64078V8.38727C3.98317 9.35533 3.07207 10.6423 3.07207 12.0237C3.07207 13.2445 3.81 14.4254 5.14983 15.3488C6.39231 16.2051 8.1045 16.8093 9.98788 17.0585L9.95953 17.9154C9.95786 17.9649 9.96985 18.0139 9.9942 18.057C10.0185 18.1001 10.0543 18.1357 10.0976 18.1598C10.1408 18.184 10.1899 18.1957 10.2394 18.1938C10.2889 18.1919 10.3369 18.1764 10.3781 18.1489L11.8588 17.1652C11.894 17.1417 11.9233 17.1103 11.9441 17.0735C11.965 17.0367 11.9769 16.9954 11.9789 16.9531C11.9808 16.9108 11.9728 16.8687 11.9554 16.8301C11.9381 16.7915 11.9118 16.7575 11.8789 16.7309L10.4684 15.5927C10.4294 15.5613 10.3824 15.5413 10.3327 15.5351C10.2829 15.5288 10.2325 15.5366 10.1869 15.5574C10.1414 15.5783 10.1025 15.6115 10.0748 15.6532C10.047 15.6949 10.0314 15.7435 10.0297 15.7936L10.0058 16.5168C6.28648 16.0116 3.61113 14.1428 3.61113 12.0237C3.61113 10.9161 4.32794 9.86115 5.64078 9.01909V11.3173C5.64075 11.3646 5.65319 11.4111 5.67684 11.4521C5.7005 11.4931 5.73454 11.5272 5.77554 11.5509L11.8651 15.0665C11.9061 15.0901 11.9526 15.1026 11.9999 15.1026C12.0472 15.1026 12.0937 15.0901 12.1347 15.0665L18.2243 11.5509C18.2653 11.5272 18.2993 11.4931 18.323 11.4521C18.3466 11.4111 18.3591 11.3646 18.3591 11.3173V9.01909C19.6719 9.86115 20.3887 10.9161 20.3887 12.0237C20.3887 14.436 16.9725 16.4626 12.6113 16.6377C12.5398 16.6391 12.4718 16.6689 12.4223 16.7204C12.3727 16.772 12.3457 16.8411 12.3471 16.9126C12.3485 16.9841 12.3783 17.052 12.4298 17.1016C12.4814 17.1511 12.5505 17.1782 12.622 17.1768C12.6256 17.1768 12.6293 17.1768 12.6329 17.1768C14.8571 17.0874 16.9279 16.5269 18.4638 15.5983C20.0526 14.6379 20.9276 13.3685 20.9276 12.0241C20.9276 10.6425 20.0167 9.35574 18.3589 8.38768V5.59396H22.3319C22.4986 5.59414 22.6585 5.66046 22.7764 5.77836C22.8943 5.89626 22.9606 6.05612 22.9608 6.22286V19.4514ZM10.5155 17.4102L10.5505 16.3517L11.2542 16.9195L10.5155 17.4102Z" fill="white" stroke="white" stroke-width="0.2"/>
<path fill-rule="evenodd" clip-rule="evenodd" d="M18.3593 5.0549V4.28558C18.3594 4.23823 18.3469 4.19172 18.3233 4.15071C18.2996 4.10971 18.2656 4.07565 18.2246 4.05198L12.135 0.53611C12.094 0.512454 12.0475 0.5 12.0002 0.5C11.9529 0.5 11.9064 0.512454 11.8654 0.53611L5.77583 4.05212C5.73483 4.07579 5.70079 4.10984 5.67713 4.15085C5.65347 4.19185 5.64103 4.23837 5.64106 4.28571V5.05504V5.59396V8.38727C3.98346 9.35533 3.07236 10.6423 3.07236 12.0237C3.07236 13.2445 3.81028 14.4254 5.15011 15.3488C6.3926 16.2051 8.10478 16.8093 9.98816 17.0585L9.95982 17.9154C9.95814 17.9649 9.97014 18.0139 9.99449 18.057C10.0188 18.1001 10.0546 18.1357 10.0978 18.1598C10.1411 18.184 10.1902 18.1957 10.2397 18.1938C10.2891 18.1919 10.3372 18.1764 10.3784 18.1489L11.8591 17.1652C11.8943 17.1417 11.9236 17.1103 11.9444 17.0735C11.9653 17.0367 11.9772 16.9954 11.9792 16.9531C11.9811 16.9108 11.9731 16.8687 11.9557 16.8301C11.9383 16.7915 11.9121 16.7575 11.8792 16.7309L10.4686 15.5927C10.4296 15.5613 10.3827 15.5413 10.3329 15.5351C10.2832 15.5288 10.2328 15.5366 10.1872 15.5574C10.1416 15.5783 10.1028 15.6115 10.075 15.6532C10.0473 15.6949 10.0317 15.7435 10.03 15.7936L10.0061 16.5168C6.28676 16.0116 3.61142 14.1428 3.61142 12.0237C3.61142 10.9161 4.32823 9.86115 5.64106 9.01909V11.3173C5.64103 11.3646 5.65347 11.4111 5.67713 11.4521C5.70079 11.4931 5.73483 11.5272 5.77583 11.5509L11.8654 15.0665C11.9064 15.0901 11.9529 15.1026 12.0002 15.1026C12.0475 15.1026 12.094 15.0901 12.135 15.0665L18.2246 11.5509C18.2656 11.5272 18.2996 11.4931 18.3233 11.4521C18.3469 11.4111 18.3594 11.3646 18.3593 11.3173V9.01909C19.6722 9.86115 20.389 10.9161 20.389 12.0237C20.389 14.436 16.9727 16.4626 12.6116 16.6377C12.5401 16.6391 12.4721 16.6689 12.4226 16.7204C12.373 16.772 12.346 16.8411 12.3474 16.9126C12.3488 16.9841 12.3786 17.052 12.4301 17.1016C12.4817 17.1511 12.5508 17.1782 12.6223 17.1768H12.6332C14.8574 17.0874 16.9282 16.5269 18.4641 15.5983C20.0529 14.6379 20.9279 13.3685 20.9279 12.0241C20.9279 10.6425 20.017 9.35573 18.3592 8.38768V5.59396L18.3593 5.0549ZM12.0002 1.0807L17.5508 4.28532L12.0002 7.48975L6.44966 4.28532L12.0002 1.0807ZM17.8202 4.75257L12.2697 7.95732V14.3664L17.8202 11.1618V4.75257ZM6.1544 11.1615L11.7049 14.3663V7.95702L6.1544 4.75241V11.1615Z" fill="#FFB3B5"/>
<path d="M18.3593 4.28558L18.2593 4.28551V4.28558H18.3593ZM18.3593 5.0549L18.4593 5.05494V5.0549H18.3593ZM18.3233 4.15071L18.2367 4.20068L18.2367 4.20069L18.3233 4.15071ZM18.2246 4.05198L18.1746 4.13859L18.1746 4.13859L18.2246 4.05198ZM12.135 0.53611L12.185 0.449508L12.185 0.449508L12.135 0.53611ZM11.8654 0.53611L11.8154 0.449508L11.8154 0.449509L11.8654 0.53611ZM5.77583 4.05212L5.82583 4.13872L5.82583 4.13872L5.77583 4.05212ZM5.67713 4.15085L5.59051 4.10088L5.59051 4.10088L5.67713 4.15085ZM5.64106 4.28571L5.74106 4.28571L5.74106 4.28565L5.64106 4.28571ZM5.64106 8.38727L5.69149 8.47362L5.74106 8.44467V8.38727H5.64106ZM5.15011 15.3488L5.09336 15.4311L5.09337 15.4311L5.15011 15.3488ZM9.98816 17.0585L10.0881 17.0618L10.0911 16.9712L10.0013 16.9593L9.98816 17.0585ZM9.95982 17.9154L10.0598 17.9187L10.0598 17.9187L9.95982 17.9154ZM9.99449 18.057L9.9074 18.1062L9.90741 18.1062L9.99449 18.057ZM10.2397 18.1938L10.2358 18.0939L10.2358 18.0939L10.2397 18.1938ZM10.3784 18.1489L10.3231 18.0657L10.323 18.0657L10.3784 18.1489ZM11.8591 17.1652L11.8037 17.0819L11.8037 17.0819L11.8591 17.1652ZM11.8792 16.7309L11.942 16.6531L11.942 16.6531L11.8792 16.7309ZM10.4686 15.5927L10.5314 15.5149L10.5314 15.5149L10.4686 15.5927ZM10.3329 15.5351L10.3205 15.6343L10.3205 15.6343L10.3329 15.5351ZM10.1872 15.5574L10.1456 15.4665L10.1456 15.4665L10.1872 15.5574ZM10.03 15.7936L9.93009 15.7903L9.93009 15.7903L10.03 15.7936ZM10.0061 16.5168L9.99263 16.6159L10.1024 16.6308L10.106 16.5201L10.0061 16.5168ZM5.64106 9.01909H5.74106V8.83615L5.58707 8.93492L5.64106 9.01909ZM5.64106 11.3173L5.74106 11.3173V11.3173H5.64106ZM5.67713 11.4521L5.59051 11.5021L5.59051 11.5021L5.67713 11.4521ZM5.77583 11.5509L5.72583 11.6375L5.72583 11.6375L5.77583 11.5509ZM11.8654 15.0665L11.9154 14.9799L11.9154 14.9799L11.8654 15.0665ZM12.135 15.0665L12.085 14.9799L12.085 14.9799L12.135 15.0665ZM18.2246 11.5509L18.2746 11.6375L18.2746 11.6375L18.2246 11.5509ZM18.3233 11.4521L18.2367 11.4022L18.2367 11.4022L18.3233 11.4521ZM18.3593 11.3173L18.2593 11.3173L18.2593 11.3173L18.3593 11.3173ZM18.3593 9.01909L18.4133 8.93492L18.2593 8.83615V9.01909H18.3593ZM12.6116 16.6377L12.6136 16.7377L12.6156 16.7376L12.6116 16.6377ZM12.4226 16.7204L12.4947 16.7897L12.4947 16.7897L12.4226 16.7204ZM12.4301 17.1016L12.3608 17.1737L12.3608 17.1737L12.4301 17.1016ZM12.6223 17.1768L12.6223 17.0767L12.6203 17.0768L12.6223 17.1768ZM12.6332 17.1768V17.2768L12.6372 17.2767L12.6332 17.1768ZM18.4641 15.5983L18.4123 15.5128L18.4123 15.5128L18.4641 15.5983ZM18.3592 8.38768H18.2592V8.44508L18.3087 8.47403L18.3592 8.38768ZM18.3592 5.59396L18.2592 5.59393V5.59396H18.3592ZM17.5508 4.28532L17.6008 4.37192L17.7508 4.28532L17.6008 4.19871L17.5508 4.28532ZM12.0002 1.0807L12.0502 0.994102L12.0002 0.965234L11.9502 0.994102L12.0002 1.0807ZM12.0002 7.48975L11.9502 7.57635L12.0002 7.60522L12.0502 7.57635L12.0002 7.48975ZM6.44966 4.28532L6.39966 4.19871L6.24966 4.28532L6.39966 4.37192L6.44966 4.28532ZM12.2697 7.95732L12.2197 7.87072L12.1697 7.89959V7.95732H12.2697ZM17.8202 4.75257H17.9202V4.57936L17.7702 4.66597L17.8202 4.75257ZM12.2697 14.3664H12.1697V14.5396L12.3197 14.453L12.2697 14.3664ZM17.8202 11.1618L17.8702 11.2484L17.9202 11.2195V11.1618H17.8202ZM11.7049 14.3663L11.6549 14.4529L11.8049 14.5395V14.3663H11.7049ZM6.1544 11.1615H6.0544V11.2192L6.1044 11.2481L6.1544 11.1615ZM11.7049 7.95702H11.8049V7.89929L11.7549 7.87042L11.7049 7.95702ZM6.1544 4.75241L6.2044 4.66581L6.0544 4.57921V4.75241H6.1544ZM18.2593 4.28558V5.0549H18.4593V4.28558H18.2593ZM18.2367 4.20069C18.2515 4.22648 18.2594 4.25573 18.2593 4.28551L18.4593 4.28564C18.4594 4.22073 18.4423 4.15696 18.4099 4.10074L18.2367 4.20069ZM18.1746 4.13859C18.2004 4.15348 18.2218 4.17489 18.2367 4.20068L18.4099 4.10074C18.3775 4.04452 18.3308 3.99783 18.2746 3.96538L18.1746 4.13859ZM12.085 0.622712L18.1746 4.13859L18.2746 3.96538L12.185 0.449508L12.085 0.622712ZM12.0002 0.6C12.03 0.6 12.0592 0.607833 12.085 0.622713L12.185 0.449508C12.1288 0.417075 12.0651 0.4 12.0002 0.4V0.6ZM11.9154 0.622713C11.9412 0.607833 11.9704 0.6 12.0002 0.6V0.4C11.9353 0.4 11.8716 0.417075 11.8154 0.449508L11.9154 0.622713ZM5.82583 4.13872L11.9154 0.622712L11.8154 0.449509L5.72582 3.96552L5.82583 4.13872ZM5.76375 4.20082C5.77863 4.17503 5.80004 4.15361 5.82583 4.13872L5.72583 3.96552C5.66962 3.99797 5.62295 4.04465 5.59051 4.10088L5.76375 4.20082ZM5.74106 4.28565C5.74104 4.25587 5.74887 4.22661 5.76375 4.20082L5.59051 4.10088C5.55807 4.1571 5.54102 4.22087 5.54106 4.28577L5.74106 4.28565ZM5.74106 5.05504V4.28571H5.54106V5.05504H5.74106ZM5.74106 5.59396V5.05504H5.54106V5.59396H5.74106ZM5.74106 8.38727V5.59396H5.54106V8.38727H5.74106ZM3.17236 12.0237C3.17236 10.6912 4.05108 9.43164 5.69149 8.47362L5.59063 8.30092C3.91584 9.27902 2.97236 10.5935 2.97236 12.0237H3.17236ZM5.20686 15.2665C3.88418 14.3548 3.17236 13.2011 3.17236 12.0237H2.97236C2.97236 13.2878 3.73639 14.4959 5.09336 15.4311L5.20686 15.2665ZM10.0013 16.9593C8.12955 16.7117 6.43337 16.1118 5.20686 15.2665L5.09337 15.4311C6.35183 16.2985 8.08002 16.9069 9.97505 17.1576L10.0013 16.9593ZM10.0598 17.9187L10.0881 17.0618L9.88822 17.0552L9.85987 17.912L10.0598 17.9187ZM10.0816 18.0078C10.0663 17.9807 10.0587 17.9499 10.0598 17.9187L9.85988 17.912C9.85758 17.9798 9.87402 18.047 9.9074 18.1062L10.0816 18.0078ZM10.1466 18.0725C10.1194 18.0573 10.0969 18.035 10.0816 18.0078L9.90741 18.1062C9.94079 18.1653 9.98982 18.2141 10.0491 18.2472L10.1466 18.0725ZM10.2358 18.0939C10.2046 18.0951 10.1738 18.0877 10.1466 18.0725L10.0491 18.2472C10.1084 18.2803 10.1757 18.2964 10.2435 18.2937L10.2358 18.0939ZM10.323 18.0657C10.2971 18.0829 10.2669 18.0927 10.2358 18.0939L10.2435 18.2937C10.3114 18.2911 10.3772 18.2698 10.4338 18.2322L10.323 18.0657ZM11.8037 17.0819L10.3231 18.0657L10.4337 18.2322L11.9144 17.2485L11.8037 17.0819ZM11.8574 17.0242C11.8443 17.0474 11.8259 17.0671 11.8037 17.0819L11.9144 17.2485C11.9627 17.2163 12.0028 17.1733 12.0314 17.1228L11.8574 17.0242ZM11.8793 16.9485C11.878 16.9751 11.8705 17.001 11.8574 17.0242L12.0314 17.1228C12.0601 17.0723 12.0764 17.0157 12.079 16.9578L11.8793 16.9485ZM11.8645 16.8711C11.8754 16.8954 11.8805 16.9219 11.8793 16.9485L12.079 16.9578C12.0817 16.8998 12.0707 16.842 12.0469 16.7891L11.8645 16.8711ZM11.8164 16.8087C11.8371 16.8254 11.8536 16.8468 11.8645 16.8711L12.0469 16.7891C12.0231 16.7361 11.9872 16.6895 11.942 16.6531L11.8164 16.8087ZM10.4058 15.6706L11.8164 16.8087L11.942 16.6531L10.5314 15.5149L10.4058 15.6706ZM10.3205 15.6343C10.3518 15.6382 10.3813 15.6508 10.4059 15.6706L10.5314 15.5149C10.478 15.4718 10.4135 15.4444 10.3454 15.4358L10.3205 15.6343ZM10.2288 15.6484C10.2575 15.6352 10.2892 15.6304 10.3205 15.6343L10.3454 15.4358C10.2772 15.4273 10.208 15.4379 10.1456 15.4665L10.2288 15.6484ZM10.1583 15.7086C10.1757 15.6823 10.2002 15.6615 10.2288 15.6484L10.1456 15.4665C10.0831 15.4951 10.0299 15.5406 9.9918 15.5978L10.1583 15.7086ZM10.13 15.7969C10.131 15.7654 10.1408 15.7348 10.1583 15.7086L9.9918 15.5978C9.95373 15.6549 9.93236 15.7216 9.93009 15.7903L10.13 15.7969ZM10.106 16.5201L10.13 15.7969L9.93009 15.7903L9.90614 16.5135L10.106 16.5201ZM3.51142 12.0237C3.51142 13.1283 4.20834 14.1519 5.35658 14.9573C6.50626 15.7637 8.12101 16.3617 9.99263 16.6159L10.0195 16.4177C8.17184 16.1667 6.58926 15.5777 5.47143 14.7936C4.35217 14.0085 3.71142 13.0382 3.71142 12.0237H3.51142ZM5.58707 8.93492C4.25869 9.78695 3.51142 10.869 3.51142 12.0237H3.71142C3.71142 10.9633 4.39777 9.93535 5.69505 9.10327L5.58707 8.93492ZM5.74106 11.3173V9.01909H5.54106V11.3173H5.74106ZM5.76375 11.4022C5.74887 11.3764 5.74104 11.3471 5.74106 11.3173L5.54106 11.3172C5.54102 11.3821 5.55807 11.4459 5.59051 11.5021L5.76375 11.4022ZM5.82583 11.4643C5.80004 11.4494 5.77863 11.428 5.76375 11.4022L5.59051 11.5021C5.62295 11.5583 5.66962 11.605 5.72583 11.6375L5.82583 11.4643ZM11.9154 14.9799L5.82582 11.4643L5.72583 11.6375L11.8154 15.1531L11.9154 14.9799ZM12.0002 15.0026C11.9704 15.0026 11.9412 14.9948 11.9154 14.9799L11.8154 15.1531C11.8716 15.1855 11.9353 15.2026 12.0002 15.2026V15.0026ZM12.085 14.9799C12.0592 14.9948 12.03 15.0026 12.0002 15.0026V15.2026C12.0651 15.2026 12.1288 15.1855 12.185 15.1531L12.085 14.9799ZM18.1746 11.4643L12.085 14.9799L12.185 15.1531L18.2746 11.6375L18.1746 11.4643ZM18.2367 11.4022C18.2218 11.428 18.2004 11.4494 18.1746 11.4643L18.2746 11.6375C18.3308 11.605 18.3775 11.5583 18.4099 11.5021L18.2367 11.4022ZM18.2593 11.3173C18.2594 11.3471 18.2515 11.3764 18.2367 11.4022L18.4099 11.5021C18.4423 11.4459 18.4594 11.3821 18.4593 11.3172L18.2593 11.3173ZM18.2593 9.01909V11.3173H18.4593V9.01909H18.2593ZM20.489 12.0237C20.489 10.869 19.7417 9.78695 18.4133 8.93492L18.3053 9.10327C19.6026 9.93535 20.289 10.9633 20.289 12.0237H20.489ZM12.6156 16.7376C14.8093 16.6495 16.7706 16.0958 18.1867 15.2556C19.5999 14.4172 20.489 13.2807 20.489 12.0237H20.289C20.289 13.1789 19.4699 14.2618 18.0847 15.0836C16.7024 15.9036 14.775 16.4508 12.6076 16.5378L12.6156 16.7376ZM12.4947 16.7897C12.5258 16.7573 12.5686 16.7386 12.6136 16.7377L12.6096 16.5377C12.5116 16.5397 12.4184 16.5805 12.3505 16.6511L12.4947 16.7897ZM12.4474 16.9106C12.4465 16.8656 12.4635 16.8221 12.4947 16.7897L12.3505 16.6511C12.2825 16.7218 12.2455 16.8166 12.2474 16.9146L12.4474 16.9106ZM12.4994 17.0295C12.467 16.9983 12.4483 16.9556 12.4474 16.9106L12.2474 16.9146C12.2494 17.0126 12.2902 17.1058 12.3608 17.1737L12.4994 17.0295ZM12.6203 17.0768C12.5753 17.0777 12.5318 17.0607 12.4994 17.0295L12.3608 17.1737C12.4315 17.2416 12.5263 17.2787 12.6243 17.2767L12.6203 17.0768ZM12.6332 17.0768H12.6223V17.2768H12.6332V17.0768ZM18.4123 15.5128C16.894 16.4307 14.8405 16.988 12.6292 17.0768L12.6372 17.2767C14.8743 17.1868 16.9624 16.623 18.5158 15.6839L18.4123 15.5128ZM20.8279 12.0241C20.8279 13.3209 19.9839 14.5627 18.4123 15.5128L18.5158 15.6839C20.1219 14.713 21.0279 13.4162 21.0279 12.0241H20.8279ZM18.3087 8.47403C19.9494 9.43205 20.8279 10.6913 20.8279 12.0241H21.0279C21.0279 10.5937 20.0846 9.27942 18.4096 8.30132L18.3087 8.47403ZM18.2592 5.59396V8.38768H18.4592V5.59396H18.2592ZM18.2593 5.05487L18.2592 5.59393L18.4592 5.59399L18.4593 5.05494L18.2593 5.05487ZM17.6008 4.19871L12.0502 0.994102L11.9502 1.16731L17.5008 4.37192L17.6008 4.19871ZM12.0502 7.57635L17.6008 4.37192L17.5008 4.19871L11.9502 7.40315L12.0502 7.57635ZM6.39966 4.37192L11.9502 7.57635L12.0502 7.40315L6.49966 4.19871L6.39966 4.37192ZM11.9502 0.994102L6.39966 4.19871L6.49966 4.37192L12.0502 1.16731L11.9502 0.994102ZM12.3197 8.04392L17.8702 4.83917L17.7702 4.66597L12.2197 7.87072L12.3197 8.04392ZM12.3697 14.3664V7.95732H12.1697V14.3664H12.3697ZM17.7702 11.0752L12.2197 14.2798L12.3197 14.453L17.8702 11.2484L17.7702 11.0752ZM17.7202 4.75257V11.1618H17.9202V4.75257H17.7202ZM11.7549 14.2796L6.2044 11.0749L6.1044 11.2481L11.6549 14.4529L11.7549 14.2796ZM11.6049 7.95702V14.3663H11.8049V7.95702H11.6049ZM6.1044 4.83901L11.6549 8.04363L11.7549 7.87042L6.2044 4.66581L6.1044 4.83901ZM6.2544 11.1615V4.75241H6.0544V11.1615H6.2544Z" fill="#FFB3B5"/>
</svg>
