<svg width="20" height="20" viewBox="0 0 20 20" fill="none" xmlns="http://www.w3.org/2000/svg">
<path d="M18.6099 4.21226H15.2992V3.57115C15.2993 3.5317 15.2889 3.49294 15.2692 3.45877C15.2495 3.42459 15.2211 3.39622 15.1869 3.37649L10.1123 0.446596C10.0781 0.426882 10.0394 0.416504 9.99995 0.416504C9.96052 0.416504 9.92179 0.426882 9.88764 0.446596L4.81297 3.3766C4.77881 3.39633 4.75044 3.42471 4.73072 3.45888C4.71101 3.49305 4.70064 3.53181 4.70067 3.57126V4.21237H1.38999C1.13194 4.21266 0.884544 4.31529 0.702077 4.49776C0.51961 4.68023 0.416974 4.92762 0.416687 5.18567L0.416687 16.2094C0.416984 16.4675 0.519624 16.7148 0.702088 16.8973C0.884553 17.0798 1.13194 17.1824 1.38999 17.1827H8.67544V18.1208H7.58366C7.42038 18.121 7.26385 18.1859 7.14839 18.3014C7.03293 18.4168 6.96796 18.5734 6.96774 18.7366V19.3586C6.96774 19.4181 6.99141 19.4753 7.03353 19.5174C7.07565 19.5595 7.13278 19.5832 7.19235 19.5832H12.8075C12.8671 19.5832 12.9242 19.5595 12.9664 19.5174C13.0085 19.4753 13.0322 19.4181 13.0322 19.3586V18.7366C13.032 18.5733 12.967 18.4168 12.8515 18.3013C12.7361 18.1858 12.5795 18.1209 12.4162 18.1207H11.3245V17.1826H18.6099C18.868 17.1823 19.1153 17.0796 19.2978 16.8972C19.4803 16.7147 19.5829 16.4673 19.5832 16.2093V5.18556C19.5829 4.92751 19.4803 4.68011 19.2978 4.49765C19.1154 4.31518 18.868 4.21254 18.6099 4.21226ZM5.14988 7.11718V3.96017L9.77534 6.63079V11.9717L5.14988 9.30119V7.11718ZM10.2246 6.63079L14.85 3.96017V9.30119L10.2246 11.9717V6.63079ZM9.99995 0.900603L14.6254 3.57111L9.99995 6.24147L5.37449 3.57111L9.99995 0.900603ZM12.5829 18.7366V19.134H7.41696V18.7366C7.41701 18.6924 7.43459 18.65 7.46585 18.6188C7.49711 18.5875 7.53949 18.5699 7.58369 18.5699H12.4162C12.4604 18.57 12.5028 18.5875 12.5341 18.6188C12.5653 18.6501 12.5829 18.6924 12.5829 18.7366ZM10.8752 18.1207H9.12465V17.1826H10.8752L10.8752 18.1207ZM19.134 16.2093C19.1338 16.3483 19.0786 16.4815 18.9803 16.5797C18.8821 16.678 18.7489 16.7332 18.6099 16.7334H1.38999C1.25104 16.7332 1.11782 16.678 1.01957 16.5797C0.921315 16.4815 0.866051 16.3483 0.865902 16.2093V5.18556C0.866051 5.04661 0.921315 4.91339 1.01957 4.81514C1.11782 4.71688 1.25104 4.66162 1.38999 4.66147H4.70067V6.98923C3.31933 7.79595 2.56008 8.86845 2.56008 10.0196C2.56008 11.0369 3.17502 12.021 4.29154 12.7905C5.32695 13.5041 6.75377 14.0076 8.32325 14.2152L8.29963 14.9293C8.29823 14.9705 8.30823 15.0114 8.32852 15.0473C8.34881 15.0833 8.37861 15.1129 8.41466 15.133C8.4507 15.1532 8.49158 15.1629 8.53283 15.1613C8.57407 15.1597 8.61407 15.1468 8.64845 15.124L9.88233 14.3041C9.91172 14.2846 9.93609 14.2584 9.95348 14.2278C9.97087 14.1971 9.98078 14.1627 9.98241 14.1274C9.98405 14.0922 9.97735 14.0571 9.96288 14.0249C9.94841 13.9927 9.92655 13.9644 9.8991 13.9423L8.72365 12.9938C8.69116 12.9676 8.65199 12.9509 8.61056 12.9457C8.56913 12.9405 8.52708 12.947 8.48911 12.9644C8.45115 12.9818 8.41878 13.0094 8.39565 13.0441C8.37251 13.0789 8.35953 13.1194 8.35814 13.1612L8.33819 13.7638C5.23875 13.3428 3.0093 11.7855 3.0093 10.0196C3.0093 9.09661 3.60664 8.21746 4.70067 7.51575V9.4309C4.70064 9.47036 4.71101 9.50912 4.73072 9.54329C4.75044 9.57746 4.77881 9.60584 4.81297 9.62556L9.88764 12.5552C9.92179 12.5749 9.96052 12.5853 9.99995 12.5853C10.0394 12.5853 10.0781 12.5749 10.1123 12.5552L15.1869 9.62556C15.2211 9.60584 15.2495 9.57746 15.2692 9.54329C15.2889 9.50912 15.2993 9.47036 15.2992 9.4309V7.51575C16.3933 8.21746 16.9906 9.09661 16.9906 10.0196C16.9906 12.0298 14.1437 13.7187 10.5094 13.8646C10.4499 13.8658 10.3932 13.8906 10.3519 13.9335C10.3106 13.9765 10.2881 14.0341 10.2893 14.0936C10.2905 14.1532 10.3153 14.2099 10.3582 14.2512C10.4012 14.2925 10.4588 14.315 10.5183 14.3138C10.5214 14.3138 10.5244 14.3138 10.5275 14.3138C12.3809 14.2393 14.1066 13.7722 15.3865 12.9985C16.7105 12.1981 17.4397 11.1403 17.4397 10.0199C17.4397 8.8686 16.6806 7.79628 15.2991 6.98957V4.66147H18.6099C18.7489 4.66162 18.8821 4.71688 18.9803 4.81514C19.0786 4.91339 19.1338 5.04661 19.134 5.18556V16.2093ZM8.76296 14.5083L8.79212 13.6262L9.3785 14.0994L8.76296 14.5083Z" fill="#202126" stroke="#202126" stroke-width="0.166667"/>
<path fill-rule="evenodd" clip-rule="evenodd" d="M15.2993 4.21274V3.57164C15.2994 3.53219 15.289 3.49343 15.2693 3.45925C15.2496 3.42508 15.2212 3.3967 15.187 3.37698L10.1124 0.447084C10.0782 0.42737 10.0395 0.416992 10 0.416992C9.96062 0.416992 9.92189 0.42737 9.88774 0.447084L4.81307 3.37709C4.7789 3.39682 4.75054 3.42519 4.73082 3.45937C4.71111 3.49354 4.70074 3.5323 4.70077 3.57175V4.21286V4.66196V6.98972C3.31943 7.79643 2.56018 8.86894 2.56018 10.0201C2.56018 11.0374 3.17512 12.0215 4.29164 12.791C5.32705 13.5046 6.75387 14.0081 8.32335 14.2157L8.29973 14.9298C8.29833 14.971 8.30833 15.0119 8.32862 15.0478C8.34891 15.0838 8.37871 15.1134 8.41476 15.1335C8.4508 15.1536 8.49168 15.1634 8.53293 15.1618C8.57417 15.1602 8.61417 15.1473 8.64855 15.1244L9.88243 14.3046C9.91182 14.2851 9.93619 14.2589 9.95358 14.2282C9.97097 14.1975 9.98088 14.1632 9.98251 14.1279C9.98414 14.0927 9.97745 14.0576 9.96298 14.0254C9.9485 13.9932 9.92665 13.9649 9.8992 13.9427L8.72375 12.9943C8.69126 12.9681 8.65209 12.9514 8.61066 12.9462C8.56923 12.941 8.52718 12.9475 8.48921 12.9649C8.45125 12.9822 8.41888 13.0099 8.39575 13.0446C8.37261 13.0794 8.35962 13.1199 8.35824 13.1616L8.33829 13.7643C5.23885 13.3433 3.0094 11.786 3.0094 10.0201C3.0094 9.0971 3.60674 8.21795 4.70077 7.51624V9.43139C4.70074 9.47084 4.71111 9.50961 4.73082 9.54378C4.75054 9.57795 4.7789 9.60633 4.81307 9.62605L9.88774 12.5557C9.92189 12.5754 9.96062 12.5858 10 12.5858C10.0395 12.5858 10.0782 12.5754 10.1124 12.5557L15.187 9.62605C15.2212 9.60633 15.2496 9.57795 15.2693 9.54378C15.289 9.50961 15.2994 9.47084 15.2993 9.43139V7.51624C16.3934 8.21795 16.9907 9.0971 16.9907 10.0201C16.9907 12.0303 14.1438 13.7192 10.5095 13.8651C10.45 13.8663 10.3933 13.891 10.352 13.934C10.3107 13.977 10.2882 14.0346 10.2894 14.0941C10.2906 14.1537 10.3154 14.2104 10.3583 14.2517C10.4013 14.2929 10.4589 14.3155 10.5184 14.3143H10.5276C12.381 14.2398 14.1067 13.7727 15.3866 12.9989C16.7106 12.1986 17.4398 11.1408 17.4398 10.0204C17.4398 8.86909 16.6807 7.79677 15.2992 6.99006V4.66196L15.2993 4.21274ZM10.0001 0.900798L14.6255 3.57131L10.0001 6.24167L5.37461 3.57131L10.0001 0.900798ZM14.8501 3.96069L10.2247 6.63132V11.9722L14.8501 9.30171V3.96069ZM5.12859 9.30154L9.75405 11.9722V6.63115L5.12859 3.96064V9.30154Z" fill="#FC3A52"/>
<path d="M15.2993 3.57164L15.216 3.57159V3.57164H15.2993ZM15.2993 4.21274L15.3827 4.21277V4.21274H15.2993ZM15.2693 3.45925L15.3415 3.41761L15.3415 3.41761L15.2693 3.45925ZM15.187 3.37698L15.1454 3.44915L15.1454 3.44915L15.187 3.37698ZM10.1124 0.447084L10.154 0.374915L10.154 0.374915L10.1124 0.447084ZM9.88774 0.447084L9.84608 0.374915L9.84608 0.374916L9.88774 0.447084ZM4.81307 3.37709L4.85474 3.44926L4.85474 3.44926L4.81307 3.37709ZM4.73082 3.45937L4.803 3.50101L4.803 3.50101L4.73082 3.45937ZM4.70077 3.57175L4.7841 3.57175L4.7841 3.5717L4.70077 3.57175ZM4.70077 6.98972L4.74279 7.06168L4.7841 7.03755V6.98972H4.70077ZM4.29164 12.791L4.24435 12.8596L4.24435 12.8596L4.29164 12.791ZM8.32335 14.2157L8.40664 14.2185L8.40914 14.143L8.33428 14.1331L8.32335 14.2157ZM8.29973 14.9298L8.38302 14.9326L8.38302 14.9325L8.29973 14.9298ZM8.32862 15.0478L8.40119 15.0068L8.40119 15.0068L8.32862 15.0478ZM8.41476 15.1335L8.37414 15.2063L8.37415 15.2063L8.41476 15.1335ZM8.53293 15.1618L8.53616 15.2451L8.53616 15.2451L8.53293 15.1618ZM8.64855 15.1244L8.60243 15.055L8.60242 15.055L8.64855 15.1244ZM9.88243 14.3046L9.83632 14.2352L9.83631 14.2352L9.88243 14.3046ZM9.95358 14.2282L9.88107 14.1872L9.88107 14.1872L9.95358 14.2282ZM9.8992 13.9427L9.95153 13.8779L9.95153 13.8779L9.8992 13.9427ZM8.72375 12.9943L8.77608 12.9294L8.77608 12.9294L8.72375 12.9943ZM8.48921 12.9649L8.45452 12.8891L8.45452 12.8891L8.48921 12.9649ZM8.39575 13.0446L8.46512 13.0908L8.46512 13.0908L8.39575 13.0446ZM8.35824 13.1616L8.27495 13.1589L8.27495 13.1589L8.35824 13.1616ZM8.33829 13.7643L8.32707 13.8469L8.41852 13.8593L8.42158 13.7671L8.33829 13.7643ZM4.70077 7.51624H4.7841V7.36378L4.65578 7.44609L4.70077 7.51624ZM4.70077 9.43139L4.7841 9.43144V9.43139H4.70077ZM4.81307 9.62605L4.7714 9.69822L4.77141 9.69822L4.81307 9.62605ZM9.88774 12.5557L9.92941 12.4836L9.92941 12.4836L9.88774 12.5557ZM10.1124 12.5557L10.0707 12.4836L10.0707 12.4836L10.1124 12.5557ZM15.187 9.62605L15.2287 9.69822L15.2287 9.69822L15.187 9.62605ZM15.2993 9.43139L15.216 9.43139L15.216 9.43144L15.2993 9.43139ZM15.2993 7.51624L15.3443 7.44609L15.216 7.36378V7.51624H15.2993ZM10.5095 13.8651L10.5112 13.9484L10.5129 13.9483L10.5095 13.8651ZM10.352 13.934L10.4121 13.9918L10.4121 13.9918L10.352 13.934ZM10.2894 14.0941L10.2061 14.0958L10.2061 14.0958L10.2894 14.0941ZM10.3583 14.2517L10.4161 14.1916L10.4161 14.1916L10.3583 14.2517ZM10.5184 14.3143V14.2309L10.5168 14.231L10.5184 14.3143ZM10.5276 14.3143V14.3977L10.5309 14.3976L10.5276 14.3143ZM15.3866 12.9989L15.3435 12.9276L15.3435 12.9276L15.3866 12.9989ZM15.2992 6.99006H15.2158V7.0379L15.2572 7.06202L15.2992 6.99006ZM15.2992 4.66196L15.2158 4.66193V4.66196H15.2992ZM14.6255 3.57131L14.6672 3.64348L14.7922 3.57131L14.6672 3.49914L14.6255 3.57131ZM10.0001 0.900798L10.0417 0.828629L10.0001 0.804572L9.95841 0.828629L10.0001 0.900798ZM10.0001 6.24167L9.95841 6.31384L10.0001 6.33789L10.0417 6.31384L10.0001 6.24167ZM5.37461 3.57131L5.33295 3.49914L5.20794 3.57131L5.33295 3.64348L5.37461 3.57131ZM10.2247 6.63132L10.183 6.55915L10.1413 6.5832V6.63132H10.2247ZM14.8501 3.96069H14.9335V3.81635L14.8085 3.88853L14.8501 3.96069ZM10.2247 11.9722H10.1413V12.1166L10.2663 12.0444L10.2247 11.9722ZM14.8501 9.30171L14.8918 9.37388L14.9335 9.34983V9.30171H14.8501ZM9.75405 11.9722L9.71238 12.0443L9.83738 12.1165V11.9722H9.75405ZM5.12859 9.30154H5.04526V9.34966L5.08692 9.37371L5.12859 9.30154ZM9.75405 6.63115H9.83738V6.58303L9.79572 6.55898L9.75405 6.63115ZM5.12859 3.96064L5.17026 3.88847L5.04526 3.8163V3.96064H5.12859ZM5.14998 3.96066L5.19165 3.88849L5.06665 3.81632V3.96066H5.14998ZM9.77544 6.63128H9.85877V6.58317L9.81711 6.55911L9.77544 6.63128ZM9.77544 11.9722L9.73377 12.0444L9.85877 12.1165V11.9722H9.77544ZM10.2247 6.63128L10.183 6.55911L10.1413 6.58317V6.63128H10.2247ZM14.8501 3.96066H14.9334V3.81632L14.8084 3.88849L14.8501 3.96066ZM10.2247 11.9722H10.1413V12.1194L10.2675 12.0436L10.2247 11.9722ZM14.6255 3.5716L14.6672 3.64377L14.7921 3.57163L14.6672 3.49945L14.6255 3.5716ZM10 6.24196L9.95838 6.31413L10 6.33819L10.0417 6.31413L10 6.24196ZM5.37459 3.5716L5.33294 3.49942L5.20789 3.57159L5.33292 3.64377L5.37459 3.5716ZM8.76306 14.5088L8.67977 14.5061L8.67443 14.6678L8.80917 14.5782L8.76306 14.5088ZM8.79222 13.6267L8.84455 13.5619L8.71446 13.4569L8.70893 13.624L8.79222 13.6267ZM9.3786 14.0999L9.42471 14.1693L9.51938 14.1064L9.43093 14.035L9.3786 14.0999ZM15.216 3.57164V4.21274H15.3827V3.57164H15.216ZM15.1971 3.5009C15.2095 3.52239 15.216 3.54677 15.216 3.57159L15.3827 3.57169C15.3827 3.5176 15.3685 3.46446 15.3415 3.41761L15.1971 3.5009ZM15.1454 3.44915C15.1668 3.46156 15.1847 3.4794 15.1971 3.5009L15.3415 3.41761C15.3144 3.37076 15.2755 3.33185 15.2287 3.30481L15.1454 3.44915ZM10.0707 0.519253L15.1454 3.44915L15.2287 3.30481L10.154 0.374915L10.0707 0.519253ZM10 0.500326C10.0248 0.500326 10.0492 0.506853 10.0707 0.519253L10.154 0.374915C10.1072 0.347888 10.0541 0.333659 10 0.333659V0.500326ZM9.92941 0.519253C9.95089 0.506853 9.97525 0.500326 10 0.500326V0.333659C9.94599 0.333659 9.89289 0.347888 9.84608 0.374915L9.92941 0.519253ZM4.85474 3.44926L9.92941 0.519252L9.84608 0.374916L4.7714 3.30492L4.85474 3.44926ZM4.803 3.50101C4.8154 3.47952 4.83325 3.46167 4.85474 3.44926L4.7714 3.30492C4.72456 3.33197 4.68567 3.37087 4.65864 3.41772L4.803 3.50101ZM4.7841 3.5717C4.78408 3.54688 4.7906 3.5225 4.803 3.50101L4.65864 3.41772C4.63161 3.46457 4.6174 3.51772 4.61743 3.5718L4.7841 3.5717ZM4.7841 4.21286V3.57175H4.61743V4.21286H4.7841ZM4.7841 4.66196V4.21286H4.61743V4.66196H4.7841ZM4.7841 6.98972V4.66196H4.61743V6.98972H4.7841ZM2.64351 10.0201C2.64351 8.90962 3.37578 7.86003 4.74279 7.06168L4.65874 6.91776C3.26308 7.73284 2.47685 8.82826 2.47685 10.0201H2.64351ZM4.33894 12.7224C3.2367 11.9627 2.64351 11.0013 2.64351 10.0201H2.47685C2.47685 11.0735 3.11354 12.0802 4.24435 12.8596L4.33894 12.7224ZM8.33428 14.1331C6.77451 13.9268 5.36102 13.4268 4.33893 12.7224L4.24435 12.8596C5.29308 13.5824 6.73323 14.0894 8.31242 14.2983L8.33428 14.1331ZM8.38302 14.9325L8.40664 14.2185L8.24006 14.213L8.21644 14.927L8.38302 14.9325ZM8.40119 15.0068C8.38842 14.9842 8.38214 14.9586 8.38302 14.9326L8.21644 14.927C8.21453 14.9835 8.22823 15.0395 8.25605 15.0888L8.40119 15.0068ZM8.45537 15.0608C8.43269 15.0481 8.41395 15.0295 8.40119 15.0068L8.25605 15.0888C8.28387 15.1381 8.32473 15.1787 8.37414 15.2063L8.45537 15.0608ZM8.52969 15.0786C8.50375 15.0796 8.47804 15.0734 8.45536 15.0608L8.37415 15.2063C8.42356 15.2339 8.47961 15.2473 8.53616 15.2451L8.52969 15.0786ZM8.60242 15.055C8.5808 15.0694 8.55564 15.0776 8.52969 15.0786L8.53616 15.2451C8.5927 15.2429 8.64755 15.2252 8.69468 15.1938L8.60242 15.055ZM9.83631 14.2352L8.60243 15.055L8.69466 15.1939L9.92855 14.374L9.83631 14.2352ZM9.88107 14.1872C9.87013 14.2065 9.8548 14.2229 9.83632 14.2352L9.92854 14.374C9.96883 14.3473 10.0022 14.3114 10.0261 14.2693L9.88107 14.1872ZM9.89927 14.1241C9.89824 14.1462 9.892 14.1679 9.88107 14.1872L10.0261 14.2693C10.0499 14.2272 10.0635 14.1801 10.0658 14.1318L9.89927 14.1241ZM9.88698 14.0596C9.89609 14.0798 9.90029 14.1019 9.89927 14.1241L10.0658 14.1318C10.068 14.0835 10.0588 14.0353 10.039 13.9912L9.88698 14.0596ZM9.84686 14.0076C9.86413 14.0215 9.87788 14.0393 9.88698 14.0596L10.039 13.9912C10.0191 13.9471 9.98917 13.9083 9.95153 13.8779L9.84686 14.0076ZM8.67142 13.0591L9.84687 14.0076L9.95153 13.8779L8.77608 12.9294L8.67142 13.0591ZM8.6003 13.0289C8.62636 13.0322 8.65099 13.0426 8.67143 13.0591L8.77608 12.9294C8.73152 12.8935 8.67783 12.8707 8.62103 12.8635L8.6003 13.0289ZM8.52391 13.0406C8.54778 13.0297 8.57424 13.0256 8.6003 13.0289L8.62103 12.8635C8.56423 12.8564 8.50657 12.8653 8.45452 12.8891L8.52391 13.0406ZM8.46512 13.0908C8.47967 13.0689 8.50003 13.0516 8.52391 13.0406L8.45452 12.8891C8.40247 12.9129 8.3581 12.9508 8.32638 12.9985L8.46512 13.0908ZM8.44153 13.1644C8.4424 13.1382 8.45057 13.1127 8.46512 13.0908L8.32638 12.9985C8.29466 13.0461 8.27685 13.1017 8.27495 13.1589L8.44153 13.1644ZM8.42158 13.7671L8.44153 13.1644L8.27495 13.1589L8.255 13.7616L8.42158 13.7671ZM2.92606 10.0201C2.92606 10.9406 3.50683 11.7936 4.4637 12.4648C5.42176 13.1368 6.76739 13.635 8.32707 13.8469L8.3495 13.6818C6.80975 13.4726 5.49093 12.9817 4.55941 12.3283C3.62669 11.6741 3.09273 10.8655 3.09273 10.0201H2.92606ZM4.65578 7.44609C3.54879 8.15611 2.92606 9.05779 2.92606 10.0201H3.09273C3.09273 9.13641 3.66469 8.27978 4.74576 7.58638L4.65578 7.44609ZM4.7841 9.43139V7.51624H4.61743V9.43139H4.7841ZM4.803 9.50213C4.7906 9.48064 4.78408 9.45626 4.7841 9.43144L4.61743 9.43134C4.6174 9.48543 4.63161 9.53857 4.65864 9.58542L4.803 9.50213ZM4.85474 9.55388C4.83325 9.54148 4.8154 9.52363 4.803 9.50213L4.65864 9.58542C4.68567 9.63227 4.72456 9.67118 4.7714 9.69822L4.85474 9.55388ZM9.92941 12.4836L4.85474 9.55388L4.77141 9.69822L9.84608 12.6279L9.92941 12.4836ZM10 12.5025C9.97525 12.5025 9.95089 12.496 9.92941 12.4836L9.84608 12.6279C9.89289 12.6549 9.94599 12.6691 10 12.6691V12.5025ZM10.0707 12.4836C10.0492 12.496 10.0248 12.5025 10 12.5025V12.6691C10.0541 12.6691 10.1072 12.6549 10.154 12.6279L10.0707 12.4836ZM15.1454 9.55388L10.0707 12.4836L10.154 12.6279L15.2287 9.69822L15.1454 9.55388ZM15.1971 9.50213C15.1847 9.52363 15.1668 9.54148 15.1454 9.55388L15.2287 9.69822C15.2755 9.67118 15.3144 9.63227 15.3415 9.58542L15.1971 9.50213ZM15.216 9.43144C15.216 9.45626 15.2095 9.48064 15.1971 9.50213L15.3415 9.58542C15.3685 9.53857 15.3827 9.48543 15.3827 9.43134L15.216 9.43144ZM15.216 7.51624V9.43139H15.3827V7.51624H15.216ZM17.074 10.0201C17.074 9.05779 16.4513 8.15611 15.3443 7.44609L15.2543 7.58638C16.3354 8.27978 16.9074 9.13641 16.9074 10.0201H17.074ZM10.5129 13.9483C12.341 13.8749 13.9754 13.4135 15.1555 12.7134C16.3332 12.0147 17.074 11.0676 17.074 10.0201H16.9074C16.9074 10.9828 16.2248 11.8852 15.0705 12.57C13.9186 13.2534 12.3124 13.7093 10.5062 13.7818L10.5129 13.9483ZM10.4121 13.9918C10.4381 13.9647 10.4737 13.9491 10.5112 13.9484L10.5079 13.7818C10.4262 13.7834 10.3485 13.8174 10.2919 13.8763L10.4121 13.9918ZM10.3727 14.0925C10.372 14.055 10.3861 14.0188 10.4121 13.9918L10.2919 13.8763C10.2353 13.9352 10.2044 14.0141 10.2061 14.0958L10.3727 14.0925ZM10.4161 14.1916C10.389 14.1656 10.3734 14.13 10.3727 14.0925L10.2061 14.0958C10.2077 14.1775 10.2417 14.2551 10.3006 14.3117L10.4161 14.1916ZM10.5168 14.231C10.4793 14.2317 10.4431 14.2175 10.4161 14.1916L10.3006 14.3117C10.3595 14.3683 10.4384 14.3992 10.5201 14.3976L10.5168 14.231ZM10.5276 14.231H10.5184V14.3976H10.5276V14.231ZM15.3435 12.9276C14.0782 13.6926 12.367 14.157 10.5242 14.231L10.5309 14.3976C12.3951 14.3227 14.1353 13.8529 15.4297 13.0703L15.3435 12.9276ZM17.3564 10.0204C17.3564 11.101 16.6531 12.1359 15.3435 12.9276L15.4297 13.0703C16.7681 12.2612 17.5231 11.1805 17.5231 10.0204H17.3564ZM15.2572 7.06202C16.6243 7.86037 17.3564 8.90976 17.3564 10.0204H17.5231C17.5231 8.82841 16.7371 7.73318 15.3412 6.91809L15.2572 7.06202ZM15.2158 4.66196V6.99006H15.3825V4.66196H15.2158ZM15.216 4.21272L15.2158 4.66193L15.3825 4.66199L15.3827 4.21277L15.216 4.21272ZM14.6672 3.49914L10.0417 0.828629L9.95841 0.972966L14.5839 3.64348L14.6672 3.49914ZM10.0417 6.31384L14.6672 3.64348L14.5839 3.49914L9.95841 6.1695L10.0417 6.31384ZM5.33295 3.64348L9.95841 6.31384L10.0417 6.1695L5.41628 3.49914L5.33295 3.64348ZM9.95841 0.828629L5.33295 3.49914L5.41628 3.64348L10.0417 0.972966L9.95841 0.828629ZM10.2663 6.70348L14.8918 4.03286L14.8085 3.88853L10.183 6.55915L10.2663 6.70348ZM10.308 11.9722V6.63132H10.1413V11.9722H10.308ZM14.8085 9.22955L10.183 11.9001L10.2663 12.0444L14.8918 9.37388L14.8085 9.22955ZM14.7668 3.96069V9.30171H14.9335V3.96069H14.7668ZM9.79572 11.9L5.17026 9.22938L5.08692 9.37371L9.71238 12.0443L9.79572 11.9ZM9.67072 6.63115V11.9722H9.83738V6.63115H9.67072ZM5.08692 4.0328L9.71238 6.70331L9.79572 6.55898L5.17026 3.88847L5.08692 4.0328ZM5.21192 9.30154V3.96064H5.04526V9.30154H5.21192ZM5.23332 3.97299V3.96066H5.06665V3.97299H5.23332ZM5.10831 4.03283L9.73377 6.70345L9.81711 6.55911L5.19165 3.88849L5.10831 4.03283ZM9.69211 6.63128V11.9722H9.85877V6.63128H9.69211ZM9.81711 11.9L9.79571 11.8877L9.71238 12.032L9.73377 12.0444L9.81711 11.9ZM10.2663 6.70345L14.8918 4.03283L14.8084 3.88849L10.183 6.55911L10.2663 6.70345ZM14.7668 3.96066V3.9607H14.9334V3.96066H14.7668ZM10.1818 11.9007L10.1818 11.9007L10.2675 12.0436L10.2675 12.0436L10.1818 11.9007ZM10.308 11.9722V6.63128H10.1413V11.9722H10.308ZM14.5836 3.64362L14.5838 3.64376L14.6672 3.49945L14.667 3.49931L14.5836 3.64362ZM14.5838 3.49943L9.95838 6.16979L10.0417 6.31413L14.6672 3.64377L14.5838 3.49943ZM10.0417 6.16979L5.41625 3.49943L5.33292 3.64377L9.95838 6.31413L10.0417 6.16979ZM5.41624 3.64378L5.41651 3.64363L5.3332 3.49927L5.33294 3.49942L5.41624 3.64378ZM8.84635 14.5116L8.87551 13.6295L8.70893 13.624L8.67977 14.5061L8.84635 14.5116ZM8.73989 13.6916L9.32626 14.1648L9.43093 14.035L8.84455 13.5619L8.73989 13.6916ZM9.33248 14.0305L8.71694 14.4394L8.80917 14.5782L9.42471 14.1693L9.33248 14.0305Z" fill="#FC3A52"/>
</svg>
