<svg width="35" height="16" viewBox="0 0 35 16" fill="none" xmlns="http://www.w3.org/2000/svg">
<rect width="16" height="16" rx="8" fill="#FFECEC"/>
<path d="M8.48375 7.86619C7.8995 7.19268 9.44996 4.80947 9.19033 4.41473C8.49874 3.98792 7.00569 3.83002 6.716 4.5356C6.40892 5.2782 7.84456 6.89658 7.26532 7.93521C7.24531 8.39165 5.28036 8.1745 5.33785 8.52977C5.88215 8.39165 5.78726 5.13016 6.23915 4.16063C6.38643 3.74122 6.8234 3.42054 7.49753 3.18369C7.98187 2.87774 9.32517 3.41313 9.69468 4.2001C9.87697 4.32837 10.2714 7.99446 10.0392 8.52733L8.48375 7.86611V7.86619Z" fill="#1B1B25"/>
<path d="M9.55985 5.28516C9.96429 5.29997 9.81701 6.30157 9.34766 6.28927L9.55985 5.28516Z" fill="#FAB38E"/>
<path d="M6.34133 5.28381C5.93688 5.29863 6.06415 6.28793 6.53358 6.27556L6.34133 5.28381Z" fill="#FAB38E"/>
<path d="M7.16035 7.83069C6.53614 7.88001 6.12166 7.96392 5.71721 8.05028C5.47999 8.09716 5.2678 8.22543 5.10298 8.49435L3.32526 11.9508C3.14297 12.3504 3.20039 12.5848 3.39519 12.7254L5.13041 12.7403C5.16789 12.533 5.28024 12.3431 5.465 12.1728C5.13296 12.1136 4.89821 12.0716 4.35893 11.9804C4.66353 11.4006 5.19037 10.5544 5.82949 9.57252C6.02924 10.9615 6.65592 12.5725 5.88691 12.7551H9.73691C8.8081 12.2765 9.65701 10.6408 9.73691 9.51831L11.235 11.9805L10.1414 12.1729C10.4685 12.3925 10.4161 12.5552 10.5059 12.7403H12.1987C12.5308 12.5331 12.386 12.3283 12.3685 12.1211L10.5908 8.61788C10.386 8.27742 10.1189 8.05783 9.76435 8.0085L8.56091 7.8309H7.1602L7.16035 7.83069Z" fill="#FC3A52"/>
<path d="M7.25848 7.26721L7.26598 7.93331C7.32339 8.31569 7.60057 8.40701 7.91762 8.44396C8.22972 8.439 8.41448 8.23674 8.48441 7.86422L8.46192 7.24744L7.25848 7.26714V7.26721Z" fill="#FEC29E"/>
<path d="M10.4339 12.1067C9.91865 12.0839 9.48924 12.3755 9.48438 12.7557H10.7848C10.7112 12.507 10.6498 12.2525 10.4339 12.1067Z" fill="#FFB3B5"/>
<path d="M8.08427 7.25607L7.24286 7.224L7.26534 7.93447C7.30777 8.21819 7.47011 8.34158 7.6823 8.40075C7.85957 8.03563 8.16417 7.66555 8.46631 7.34487L8.08427 7.25607Z" fill="#F2B589"/>
<path d="M9.48722 5.79304C9.46975 5.91642 9.44479 6.04225 9.41729 6.16556C9.33237 6.62444 8.93789 7.01674 8.62332 7.28314C8.15891 7.49532 8.06904 7.7889 7.24262 7.22397C6.88555 6.89336 6.61841 6.65407 6.51603 6.28154L6.3587 5.51923L6.41859 4.36462L9.19003 4.41395C9.62446 4.83832 9.54208 5.3169 9.48714 5.79304H9.48722Z" fill="#FEC29E"/>
<path d="M9.48689 5.79319C9.48936 5.30965 9.49438 4.82366 9.18978 4.4141C7.26478 4.63614 6.2386 4.66331 6.68052 6.51113C6.68052 6.51113 6.49074 5.9733 6.42838 5.64766C6.29856 5.23566 6.14124 5.0605 6.2386 4.16C6.38588 3.74059 6.6755 3.21513 7.3497 2.97584C7.83404 2.67241 9.24224 2.8426 9.69413 4.19947C9.75155 4.8187 9.69166 5.35653 9.48689 5.79319Z" fill="#1B1B25"/>
<path d="M5.28374 12.1067C5.79653 12.0839 6.22837 12.3755 6.23331 12.7557H4.93292C5.01144 12.5298 5.063 12.2926 5.28382 12.1067H5.28374Z" fill="#FFB3B5"/>
<path d="M7.51172 6.83226C7.51172 6.83226 7.95837 6.77654 8.40495 6.83226C8.40495 6.83226 8.10158 7.23268 7.98653 7.2301C7.98653 7.2301 7.7226 7.29028 7.51172 6.83226Z" fill="#6F210A"/>
<path d="M7.61379 6.82236C7.61379 6.82236 7.59407 6.8691 7.63802 6.90591C7.63802 6.90591 8.03635 6.92597 8.19964 6.90591C8.19964 6.90591 8.25036 6.89261 8.23006 6.82236C8.23006 6.82236 8.14776 6.78562 7.61371 6.82236H7.61379Z" fill="white"/>
<path d="M7.71484 7.12817C7.71484 7.12817 7.96946 6.89449 8.15378 7.1212C8.15378 7.1212 8.03844 7.24502 7.95804 7.23351C7.87763 7.22201 7.84051 7.22941 7.71484 7.12817Z" fill="#D6735C"/>
<path d="M6.95584 5.55132C6.95584 5.55132 7.32688 5.42909 7.60682 5.45483C7.60682 5.45483 7.73053 5.42269 7.68498 5.32619C7.68498 5.32619 7.29436 5.19756 6.95584 5.40342C6.95584 5.40342 6.78658 5.53852 6.95584 5.55139V5.55132Z" fill="#562603"/>
<path d="M9.09639 5.55132C9.09639 5.55132 8.72534 5.42909 8.4454 5.45483C8.4454 5.45483 8.3217 5.42269 8.36725 5.32619C8.36725 5.32619 8.75787 5.19756 9.09639 5.40342C9.09639 5.40342 9.26565 5.53852 9.09639 5.55139V5.55132Z" fill="#562603"/>
<path d="M7.64933 5.84034C7.64933 5.84034 7.33236 5.29698 6.98511 5.78268C6.98511 5.78268 7.28149 6.0577 7.64933 5.84034Z" fill="white"/>
<path d="M7.50141 5.75202C7.50141 5.71018 7.48766 5.67164 7.46452 5.64014C7.38833 5.58837 7.29351 5.55832 7.18953 5.60146C7.14419 5.6364 7.11487 5.69076 7.11487 5.75202C7.11487 5.80724 7.13874 5.85679 7.17658 5.89166C7.23843 5.91345 7.31265 5.92797 7.39539 5.92222C7.45819 5.89072 7.50134 5.82637 7.50134 5.75202H7.50141Z" fill="#562603"/>
<path d="M7.46006 5.7534C7.46006 5.83652 7.39188 5.90389 7.30776 5.90389C7.22364 5.90389 7.15546 5.83652 7.15546 5.7534C7.15546 5.67028 7.22364 5.60291 7.30776 5.60291C7.39188 5.60291 7.46006 5.67028 7.46006 5.7534Z" fill="#1B1C1C"/>
<path d="M7.40063 5.83865C7.39838 5.85857 7.38011 5.87295 7.35996 5.87065C7.3398 5.86842 7.32525 5.85037 7.32758 5.83046C7.32983 5.81054 7.3481 5.79616 7.36825 5.79846C7.38841 5.80069 7.40296 5.81874 7.40063 5.83865Z" fill="white"/>
<path d="M7.34274 5.76672C7.34151 5.7775 7.33171 5.78519 7.32083 5.78397C7.30994 5.78275 7.30218 5.77304 7.30341 5.76226C7.30465 5.75147 7.31444 5.74378 7.32532 5.745C7.33621 5.74622 7.34397 5.75593 7.34274 5.76672Z" fill="white"/>
<path d="M7.64946 5.84141C7.64946 5.84141 7.32215 5.29805 6.98523 5.78375C6.98523 5.78375 7.01274 5.62182 7.2373 5.56746C7.2373 5.56746 7.3081 5.55301 7.39317 5.58185C7.39317 5.58185 7.55275 5.65101 7.64938 5.84134L7.64946 5.84141Z" fill="#1B1C1C"/>
<path d="M8.35376 5.85853C8.35376 5.85853 8.67074 5.31517 9.01791 5.80087C9.01791 5.80087 8.72153 6.07589 8.35376 5.85853Z" fill="white"/>
<path d="M8.50171 5.77021C8.50171 5.72836 8.51546 5.68982 8.5386 5.65833C8.61479 5.60656 8.70961 5.57651 8.81359 5.61965C8.85893 5.65459 8.88825 5.70895 8.88825 5.77021C8.88825 5.82543 8.86438 5.87497 8.82654 5.90985C8.76469 5.93163 8.69047 5.94616 8.60773 5.9404C8.54493 5.90891 8.50178 5.84456 8.50178 5.77021H8.50171Z" fill="#562603"/>
<path d="M8.54211 5.77037C8.54211 5.85349 8.6103 5.92086 8.69442 5.92086C8.77854 5.92086 8.84672 5.85349 8.84672 5.77037C8.84672 5.68725 8.77854 5.61987 8.69442 5.61987C8.6103 5.61987 8.54211 5.68725 8.54211 5.77037Z" fill="#1B1C1C"/>
<path d="M8.60352 5.85562C8.60577 5.87554 8.62404 5.88992 8.64419 5.88762C8.66435 5.88539 8.6789 5.86734 8.67658 5.84742C8.67432 5.82751 8.65605 5.81313 8.6359 5.81543C8.61574 5.81766 8.60119 5.8357 8.60352 5.85562Z" fill="white"/>
<path d="M8.66096 5.7849C8.66219 5.79569 8.67198 5.80338 8.68287 5.80216C8.69375 5.80094 8.70152 5.79123 8.70028 5.78045C8.69905 5.76966 8.68925 5.76197 8.67837 5.76319C8.66749 5.76441 8.65972 5.77412 8.66096 5.7849Z" fill="white"/>
<path d="M8.35376 5.85838C8.35376 5.85838 8.68107 5.31502 9.01791 5.80072C9.01791 5.80072 8.99041 5.63879 8.76585 5.58443C8.76585 5.58443 8.69504 5.56998 8.60998 5.59881C8.60998 5.59881 8.4504 5.66798 8.35376 5.85838Z" fill="#1B1C1C"/>
<path d="M8.34358 5.40591C7.86673 5.53152 7.5972 5.40663 7.5972 5.40663C7.25512 5.30079 6.44659 5.44416 6.44659 5.44416L6.47425 5.57934L6.62284 5.60465C6.70579 5.59782 6.71271 5.68662 6.71271 5.68662C6.70929 6.0178 6.8164 6.11681 6.8164 6.11681C7.10318 6.38313 7.49707 6.21927 7.49707 6.21927C7.78734 6.09977 7.8564 5.74471 7.8564 5.74471C7.99117 5.50233 8.06721 5.76175 8.06721 5.76175C8.22963 6.38997 8.84815 6.26025 8.84815 6.26025C9.25245 6.21244 9.21439 5.70711 9.21439 5.70711C9.20406 5.62176 9.27312 5.61148 9.27312 5.61148L9.44245 5.57934L9.4701 5.4374C8.50607 5.29741 8.34365 5.40598 8.34365 5.40598L8.34358 5.40591ZM7.497 6.15089C7.497 6.15089 7.23438 6.29426 6.95451 6.15089C6.95451 6.15089 6.76794 5.99098 6.8474 5.57927C6.8474 5.57927 6.86465 5.50557 6.93727 5.48507C6.93727 5.48507 7.28051 5.35723 7.64559 5.50895C7.64559 5.50895 7.74237 5.53627 7.74579 5.64894C7.74579 5.64894 7.77344 5.99033 7.497 6.15082V6.15089ZM8.97324 6.15089C8.69338 6.29426 8.43076 6.15089 8.43076 6.15089C8.15431 5.9904 8.18196 5.64901 8.18196 5.64901C8.18538 5.53634 8.28217 5.50902 8.28217 5.50902C8.64724 5.3573 8.99049 5.48515 8.99049 5.48515C9.06304 5.50564 9.08036 5.57934 9.08036 5.57934C9.15982 5.99105 8.97324 6.15096 8.97324 6.15096V6.15089Z" fill="#1A2E35"/>
<rect x="9.63331" y="0.3" width="15.4" height="15.4" rx="7.7" fill="#DBF4E9" stroke="white" stroke-width="0.6"/>
<g clip-path="url(#clip0_9445_992)">
<path d="M14.7288 13.6574C14.5283 13.5413 14.5441 13.5281 14.3622 13.3982C14.2562 13.3231 14.7753 11.328 14.9178 10.7228C15.0596 10.1175 15.6267 9.82145 15.9067 9.75196C16.186 9.68247 15.8874 11.6095 15.8874 11.6095C15.8874 11.6095 15.6239 12.8346 15.3604 13.4406C15.2501 13.6935 14.7746 13.6831 14.7295 13.6574H14.7288Z" fill="#12B76A"/>
<path d="M20.2654 15.5976C20.2711 15.6213 20.0227 16.114 20.0499 16.2918C20.0585 16.3481 20.0792 16.4607 20.0592 16.558C20.0449 16.6261 20.2146 16.7074 20.2518 16.5504C20.269 16.4781 20.2711 16.3502 20.3069 16.2356C20.3162 16.2057 20.3929 16.2432 20.4093 16.3641C20.4151 16.4086 20.4766 16.6706 20.3599 16.9937C20.3155 17.1153 20.438 17.098 20.4451 17.0903C20.5712 16.9569 20.6206 16.8401 20.6743 16.6219C20.728 16.4037 20.7631 15.7095 20.7559 15.6755C20.574 14.7735 20.3843 13.0904 20.2475 12.4851C20.1107 11.8798 19.7463 12.0035 19.477 11.934C19.2078 11.8645 19.6689 14.0028 19.6689 14.0028C19.6689 14.0028 20.115 15.0111 20.2654 15.5969V15.5976Z" fill="#FAB38E"/>
<path d="M15.9061 9.75138C16.3207 9.58529 17.2616 9.31775 17.2616 9.31775C17.2616 9.31775 18.6379 9.58043 18.9035 9.67077C19.1692 9.7618 19.19 10.4671 19.1549 11.3775C19.1176 12.342 19.331 14.0043 19.4026 15.0946C18.804 15.3767 15.9533 15.2669 15.6261 15.0696C15.5015 14.515 15.6268 14.0543 15.6204 13.5248C15.6104 12.6665 15.6612 11.9147 15.6261 11.4845C15.591 11.0543 15.7235 9.82504 15.9054 9.75207L15.9061 9.75138Z" fill="#12B76A"/>
<path d="M17.858 9.45714L17.2422 10.4557L16.6686 9.45714V8.724H17.858V9.45714Z" fill="#FEC29E"/>
<g style="mix-blend-mode:multiply">
<path d="M17.2631 9.31746C16.9122 9.31746 16.668 8.94985 16.668 8.94985V8.724H17.8581V9.02073C17.8581 9.02073 17.614 9.31746 17.2631 9.31746Z" fill="#D4B2A2"/>
</g>
<path d="M15.191 7.18664C15.4924 8.44513 15.8075 9.15534 17.2654 9.15534C18.4254 9.15534 18.8701 8.55006 19.2854 7.2054C19.4909 6.54037 19.2317 6.22627 19.2317 5.44587C19.2317 4.37848 18.3653 3.65369 17.2826 3.65369C16.1412 3.65369 15.1938 4.30413 15.191 5.44587C15.1895 6.15886 15.1151 6.86976 15.191 7.18664Z" fill="#FEC29E"/>
<g style="mix-blend-mode:multiply">
<path d="M19.1653 6.56469C19.1932 6.45767 19.2505 6.36038 19.32 6.26935C19.2813 6.03864 19.2319 5.78638 19.2319 5.44588C19.2319 4.37848 18.3655 3.65369 17.2828 3.65369C16.1414 3.65369 15.194 4.30413 15.1911 5.44588C15.1911 5.76345 15.1754 6.08033 15.1661 6.36247C15.1797 6.37081 15.1926 6.38193 15.2033 6.39652C15.2448 6.45211 15.2642 6.48825 15.2892 6.55288C15.4332 6.57164 15.5134 6.52647 15.5313 6.41598C15.5757 6.30757 15.6143 6.19638 15.6587 6.08798C15.749 5.86769 15.9273 5.78638 16.1514 5.73079C16.5867 5.62169 17.0321 5.53274 17.4568 5.38611C17.6565 5.31732 17.8399 5.23948 18.0139 5.12204C18.1005 5.06367 18.2208 4.95248 18.3282 4.93233C18.8259 4.83921 18.9469 5.27354 18.9741 5.65018C18.9899 5.86977 18.9455 6.28047 19.0801 6.46323C19.1102 6.50423 19.1381 6.53759 19.1653 6.56469Z" fill="#E0C9B8"/>
</g>
<path d="M15.2666 6.33077C15.2666 6.33077 15.1292 6.05211 14.7804 6.20986C14.5513 6.3134 14.6501 7.07572 14.8929 7.16745C15.1578 7.26752 15.2674 7.14174 15.2674 7.14174" fill="#FAB38E"/>
<path d="M19.1693 6.33077C19.1693 6.33077 19.3068 6.05211 19.6562 6.20986C19.8854 6.3134 19.7866 7.07572 19.5438 7.16745C19.2789 7.26752 19.1693 7.14174 19.1693 7.14174" fill="#FAB38E"/>
<path d="M15.8102 6.12769C15.8016 6.09572 15.8317 6.01997 15.8603 5.99287C15.9899 5.90531 16.1339 5.86987 16.2671 5.86987C16.4003 5.86987 16.5069 5.9067 16.5277 5.92755C16.5485 5.9477 16.5428 6.12769 16.5191 6.11448C16.4597 6.08113 16.2628 6.04221 16.2212 6.04221C16.1382 6.03804 16.0558 6.03179 15.9434 6.0714C15.8532 6.10336 15.7966 6.14645 15.8095 6.12769H15.8102Z" fill="#572B0D"/>
<path d="M18.5917 6.12769C18.6003 6.09572 18.5702 6.01997 18.5415 5.99287C18.4119 5.90531 18.268 5.86987 18.1348 5.86987C18.0016 5.86987 17.8949 5.9067 17.8742 5.92755C17.8534 5.9477 17.8591 6.12769 17.8828 6.11448C17.9422 6.08113 18.1391 6.04221 18.1806 6.04221C18.263 6.03804 18.3461 6.03179 18.4585 6.0714C18.5487 6.10336 18.6053 6.14645 18.5924 6.12769H18.5917Z" fill="#572B0D"/>
<path d="M16.1791 6.78436C16.1791 6.83092 16.2235 6.86845 16.2786 6.86845C16.3337 6.86845 16.3781 6.83092 16.3781 6.78436V6.55296C16.3781 6.5064 16.3337 6.46887 16.2786 6.46887C16.2235 6.46887 16.1791 6.5064 16.1791 6.55296V6.78436Z" fill="#3C2415"/>
<path d="M16.2142 6.61357C16.2142 6.64345 16.2286 6.66708 16.2465 6.66708C16.2644 6.66708 16.2787 6.64345 16.2787 6.61357C16.2787 6.58369 16.2644 6.56006 16.2465 6.56006C16.2286 6.56006 16.2142 6.58438 16.2142 6.61357Z" fill="white"/>
<path d="M18.0225 6.78436C18.0225 6.83092 18.0669 6.86845 18.1221 6.86845C18.1772 6.86845 18.2216 6.83092 18.2216 6.78436V6.55296C18.2216 6.5064 18.1772 6.46887 18.1221 6.46887C18.0669 6.46887 18.0225 6.5064 18.0225 6.55296V6.78436Z" fill="#3C2415"/>
<path d="M18.0457 6.61357C18.0457 6.64345 18.06 6.66708 18.0779 6.66708C18.0958 6.66708 18.1101 6.64345 18.1101 6.61357C18.1101 6.58369 18.0958 6.56006 18.0779 6.56006C18.06 6.56006 18.0457 6.58438 18.0457 6.61357Z" fill="white"/>
<g style="mix-blend-mode:multiply">
<path d="M17.0531 7.22607C17.0531 7.22607 17.1548 7.19272 17.2515 7.19272C17.3482 7.19272 17.4019 7.22607 17.4019 7.22607C17.4019 7.22607 17.3238 7.10168 17.2271 7.10168C17.1305 7.10168 17.0524 7.22607 17.0524 7.22607H17.0531Z" fill="#D4B2A2"/>
</g>
<g style="mix-blend-mode:multiply">
<path d="M17.0274 8.27612C17.0274 8.27612 17.1176 8.33241 17.2279 8.33241C17.3382 8.33241 17.4284 8.27612 17.4284 8.27612C17.4284 8.27612 17.3389 8.38939 17.2279 8.38939C17.1169 8.38939 17.0274 8.27612 17.0274 8.27612Z" fill="#D4B2A2"/>
</g>
<path d="M16.5469 7.7605C16.5469 7.7605 16.8677 7.82652 17.2437 7.82652C17.6196 7.82652 17.9082 7.7605 17.9082 7.7605C17.9082 7.7605 17.8602 8.1698 17.2279 8.1698C16.6565 8.1698 16.5477 7.7605 16.5477 7.7605H16.5469Z" fill="white"/>
<g style="mix-blend-mode:multiply">
<path d="M16.4575 7.07812C16.4754 7.07812 16.4754 7.09828 16.4575 7.09828C16.4396 7.09828 16.4396 7.07812 16.4575 7.07812Z" fill="#D4B2A2"/>
</g>
<g style="mix-blend-mode:multiply">
<path d="M16.0609 7.13025C16.0796 7.13025 16.0796 7.1504 16.0609 7.1504C16.0423 7.1504 16.043 7.13025 16.0609 7.13025Z" fill="#D4B2A2"/>
</g>
<g style="mix-blend-mode:multiply">
<path d="M16.3572 7.13025C16.3751 7.13025 16.3751 7.1504 16.3572 7.1504C16.3393 7.1504 16.3393 7.13025 16.3572 7.13025Z" fill="#D4B2A2"/>
</g>
<g style="mix-blend-mode:multiply">
<path d="M16.3693 7.03394C16.4051 7.03394 16.4051 7.07424 16.3693 7.07424C16.3335 7.07424 16.3328 7.03394 16.3693 7.03394Z" fill="#D4B2A2"/>
</g>
<g style="mix-blend-mode:multiply">
<path d="M16.4094 7.10425C16.4187 7.10425 16.4187 7.11452 16.4094 7.11452C16.4001 7.11452 16.4001 7.10425 16.4094 7.10425Z" fill="#D4B2A2"/>
</g>
<g style="mix-blend-mode:multiply">
<path d="M16.0754 7.06775C16.0847 7.06775 16.0847 7.07802 16.0754 7.07802C16.0661 7.07802 16.0661 7.06775 16.0754 7.06775Z" fill="#D4B2A2"/>
</g>
<g style="mix-blend-mode:multiply">
<path d="M16.1799 7.0105C16.1892 7.0105 16.1892 7.02077 16.1799 7.02077C16.1706 7.02077 16.1706 7.0105 16.1799 7.0105Z" fill="#D4B2A2"/>
</g>
<g style="mix-blend-mode:multiply">
<path d="M16.1145 7.16675C16.1238 7.16675 16.1238 7.17702 16.1145 7.17702C16.1052 7.17702 16.1052 7.16675 16.1145 7.16675Z" fill="#D4B2A2"/>
</g>
<g style="mix-blend-mode:multiply">
<path d="M16.1873 7.125C16.1966 7.125 16.1966 7.13527 16.1873 7.13527C16.178 7.13527 16.178 7.125 16.1873 7.125Z" fill="#D4B2A2"/>
</g>
<g style="mix-blend-mode:multiply">
<path d="M16.306 7.09375C16.3304 7.09375 16.3304 7.12085 16.306 7.12085C16.2817 7.12085 16.2817 7.09375 16.306 7.09375Z" fill="#D4B2A2"/>
</g>
<g style="mix-blend-mode:multiply">
<path d="M16.2412 7.05212C16.272 7.05212 16.272 7.08687 16.2412 7.08687C16.2104 7.08687 16.2104 7.05212 16.2412 7.05212Z" fill="#D4B2A2"/>
</g>
<g style="mix-blend-mode:multiply">
<path d="M16.2553 7.00525C16.2747 7.00525 16.2747 7.0261 16.2553 7.0261C16.236 7.0261 16.236 7.00525 16.2553 7.00525Z" fill="#D4B2A2"/>
</g>
<g style="mix-blend-mode:multiply">
<path d="M16.0968 6.98962H16.099C16.1284 6.98962 16.1284 7.02229 16.099 7.02229H16.0968C16.0675 7.02229 16.0675 6.98962 16.0968 6.98962Z" fill="#D4B2A2"/>
</g>
<g style="mix-blend-mode:multiply">
<path d="M16.0207 7.05737C16.0465 7.05737 16.0465 7.08656 16.0207 7.08656C15.9949 7.08656 15.9949 7.05737 16.0207 7.05737Z" fill="#D4B2A2"/>
</g>
<g style="mix-blend-mode:multiply">
<path d="M16.1408 7.05782C16.1408 7.05782 16.1429 7.05782 16.1436 7.05782C16.163 7.05504 16.1773 7.06547 16.1744 7.08006C16.1744 7.08076 16.1744 7.08145 16.1744 7.08215C16.1716 7.09674 16.1429 7.10021 16.13 7.09048C16.1171 7.08076 16.1214 7.0606 16.1422 7.05852L16.1408 7.05782Z" fill="#D4B2A2"/>
</g>
<g style="mix-blend-mode:multiply">
<path d="M16.2447 7.14587C16.2877 7.14587 16.2877 7.19382 16.2447 7.19382C16.2018 7.19382 16.2018 7.14587 16.2447 7.14587Z" fill="#D4B2A2"/>
</g>
<g style="mix-blend-mode:multiply">
<path d="M18.36 7.08337C18.3779 7.08337 18.3779 7.10353 18.36 7.10353C18.3421 7.10353 18.3421 7.08337 18.36 7.08337Z" fill="#D4B2A2"/>
</g>
<g style="mix-blend-mode:multiply">
<path d="M17.9636 7.1355C17.9815 7.1355 17.9815 7.15565 17.9636 7.15565C17.9457 7.15565 17.9457 7.1355 17.9636 7.1355Z" fill="#D4B2A2"/>
</g>
<g style="mix-blend-mode:multiply">
<path d="M18.2595 7.1355C18.2774 7.1355 18.2774 7.15565 18.2595 7.15565C18.2416 7.15565 18.2416 7.1355 18.2595 7.1355Z" fill="#D4B2A2"/>
</g>
<g style="mix-blend-mode:multiply">
<path d="M18.2719 7.04175C18.3077 7.04175 18.3077 7.08205 18.2719 7.08205C18.2361 7.08205 18.2354 7.04175 18.2719 7.04175Z" fill="#D4B2A2"/>
</g>
<g style="mix-blend-mode:multiply">
<path d="M18.312 7.11206C18.3213 7.11206 18.3213 7.12233 18.312 7.12233C18.3027 7.12233 18.3027 7.11206 18.312 7.11206Z" fill="#D4B2A2"/>
</g>
<g style="mix-blend-mode:multiply">
<path d="M17.9766 7.073C17.986 7.073 17.986 7.08327 17.9766 7.08327C17.9673 7.08327 17.9673 7.073 17.9766 7.073Z" fill="#D4B2A2"/>
</g>
<g style="mix-blend-mode:multiply">
<path d="M18.0818 7.01575C18.0911 7.01575 18.0911 7.02602 18.0818 7.02602C18.0725 7.02602 18.0725 7.01575 18.0818 7.01575Z" fill="#D4B2A2"/>
</g>
<g style="mix-blend-mode:multiply">
<path d="M18.0167 7.172C18.026 7.172 18.026 7.18227 18.0167 7.18227C18.0074 7.18227 18.0074 7.172 18.0167 7.172Z" fill="#D4B2A2"/>
</g>
<g style="mix-blend-mode:multiply">
<path d="M18.0893 7.13025C18.0986 7.13025 18.0986 7.14052 18.0893 7.14052C18.08 7.14052 18.08 7.13025 18.0893 7.13025Z" fill="#D4B2A2"/>
</g>
<g style="mix-blend-mode:multiply">
<path d="M18.2086 7.099C18.233 7.099 18.233 7.1261 18.2086 7.1261C18.1843 7.1261 18.1843 7.099 18.2086 7.099Z" fill="#D4B2A2"/>
</g>
<g style="mix-blend-mode:multiply">
<path d="M18.1431 7.05737C18.1739 7.05737 18.1739 7.09212 18.1431 7.09212C18.1124 7.09212 18.1124 7.05737 18.1431 7.05737Z" fill="#D4B2A2"/>
</g>
<g style="mix-blend-mode:multiply">
<path d="M18.1574 7.0105C18.1767 7.0105 18.1767 7.03204 18.1574 7.03204C18.138 7.03204 18.138 7.0105 18.1574 7.0105Z" fill="#D4B2A2"/>
</g>
<g style="mix-blend-mode:multiply">
<path d="M17.9989 6.99487H18.001C18.0304 6.99487 18.0304 7.02753 18.001 7.02753H17.9989C17.9695 7.02753 17.9695 6.99487 17.9989 6.99487Z" fill="#D4B2A2"/>
</g>
<g style="mix-blend-mode:multiply">
<path d="M17.9232 7.06519C17.949 7.06519 17.949 7.09437 17.9232 7.09437C17.8974 7.09437 17.8974 7.06519 17.9232 7.06519Z" fill="#D4B2A2"/>
</g>
<g style="mix-blend-mode:multiply">
<path d="M18.0424 7.0629C18.0424 7.0629 18.0446 7.0629 18.0453 7.0629C18.0646 7.06082 18.0789 7.07055 18.0761 7.08514C18.0761 7.08514 18.0761 7.08653 18.0761 7.08723C18.0725 7.10182 18.0446 7.10529 18.0317 7.09556C18.0181 7.08584 18.0231 7.06568 18.0431 7.0636L18.0424 7.0629Z" fill="#D4B2A2"/>
</g>
<g style="mix-blend-mode:multiply">
<path d="M18.1461 7.15112C18.1891 7.15112 18.1891 7.19907 18.1461 7.19907C18.1032 7.19907 18.1032 7.15112 18.1461 7.15112Z" fill="#D4B2A2"/>
</g>
<g style="mix-blend-mode:multiply">
<path d="M15.0134 7.01297C15.0134 7.01297 14.9769 6.90734 15.0027 6.81909C15.027 6.73848 15.1144 6.67594 15.1094 6.64258C15.0951 6.55294 15.0686 6.43271 15.0206 6.35419C14.974 6.27844 14.8444 6.27775 14.8301 6.29721C14.7893 6.3521 14.7284 6.45634 14.7306 6.66412C14.7556 6.53278 14.7872 6.42924 14.8645 6.35488C14.8767 6.34307 14.9461 6.35766 14.9912 6.43132C15.0285 6.49248 15.0614 6.57587 15.085 6.64466C15.0965 6.67732 14.9397 6.68497 14.9203 6.76627C14.8989 6.85383 15.0134 7.01436 15.0134 7.01436V7.01297Z" fill="#D4B2A2"/>
</g>
<g style="mix-blend-mode:multiply">
<path d="M19.4016 7.01297C19.4016 7.01297 19.4381 6.90734 19.4116 6.81909C19.388 6.73848 19.2999 6.67594 19.305 6.64258C19.3193 6.55294 19.3458 6.43271 19.3937 6.35419C19.4403 6.27844 19.5699 6.27775 19.5842 6.29721C19.625 6.3521 19.6859 6.45634 19.6838 6.66412C19.6587 6.53278 19.6272 6.42924 19.5498 6.35488C19.5377 6.34307 19.4682 6.35766 19.4231 6.43132C19.3859 6.49248 19.3529 6.57587 19.3293 6.64466C19.3178 6.67732 19.4739 6.68497 19.494 6.76627C19.5155 6.85383 19.4009 7.01436 19.4009 7.01436L19.4016 7.01297Z" fill="#D4B2A2"/>
</g>
<path d="M15.1012 6.23538C14.9701 6.09015 14.7797 6.20898 14.7797 6.20898C14.7797 6.20898 14.5734 5.40704 14.7231 4.8247C15.0081 3.71701 16.1953 3.23891 16.8068 3.20207C17.4184 3.16594 18.7717 3.36329 18.8591 4.06516C19.558 3.8553 19.7563 4.57592 19.785 4.96369C19.8136 5.35145 19.6554 6.20828 19.6554 6.20828C19.6554 6.20828 19.5172 6.13532 19.4771 6.16103C19.4771 6.16103 19.2952 6.30835 19.2472 6.56199C19.1985 6.82189 19.0009 6.66901 19.0009 6.66901C19.0009 6.66901 19.2107 6.44594 19.1691 5.54811C19.1555 5.25208 19.0424 4.5516 18.7059 4.88864C18.466 4.36258 17.7069 4.99565 16.8777 5.36674C16.186 5.67667 15.606 5.67945 15.563 5.77396C15.437 6.05123 15.5029 6.6426 15.4814 6.70167C15.4599 6.76074 15.2251 6.83788 15.2172 6.76004C15.2093 6.68221 15.1807 6.32364 15.1005 6.23469L15.1012 6.23538Z" fill="#1B1B25"/>
<path d="M20.0755 15.6425C20.2409 15.6071 20.6941 15.5112 20.8195 15.4709C20.944 15.4306 20.0819 11.4897 19.8929 10.6391C19.7582 10.0325 19.1832 9.73781 18.904 9.66832C18.624 9.59883 19.1539 11.8545 19.1539 11.8545C19.1539 11.8545 19.2062 12.3715 19.4031 13.259C19.6523 14.3861 19.9838 15.662 20.0755 15.6425Z" fill="#12B76A"/>
<g style="mix-blend-mode:multiply">
<path d="M18.2951 6.21688C17.8611 6.21688 17.6062 6.29263 17.5045 6.38714C17.4157 6.32876 17.2997 6.2968 17.1952 6.30583C17.1229 6.31208 17.0613 6.3378 17.0112 6.3788C16.9038 6.28776 16.6517 6.21619 16.2307 6.21619C15.6821 6.21619 15.3864 6.35586 15.3864 6.4879C15.3864 6.75266 15.4387 7.36905 15.922 7.36905C16.4054 7.36905 16.7076 7.27524 16.8923 7.0897C17.0856 6.89651 17.0778 6.65676 17.0735 6.5282C17.0735 6.52125 17.0735 6.51639 17.0735 6.51014C17.1057 6.46983 17.1508 6.44551 17.2088 6.44064C17.3019 6.43231 17.3978 6.47261 17.453 6.51847C17.453 6.52195 17.453 6.52473 17.453 6.5282C17.4487 6.65676 17.4408 6.89651 17.6341 7.0897C17.8189 7.27454 18.1454 7.36905 18.6044 7.36905C19.0877 7.36905 19.14 6.75266 19.14 6.4879C19.14 6.35656 18.8443 6.21619 18.2958 6.21619L18.2951 6.21688ZM16.792 6.99588C16.6345 7.15363 16.3416 7.23354 15.922 7.23354C15.5697 7.23354 15.5275 6.72626 15.5268 6.49763C15.5611 6.45524 15.7745 6.35309 16.2307 6.35309C16.7584 6.35309 16.9195 6.46636 16.9324 6.48859C16.9324 6.5018 16.9324 6.51639 16.9331 6.53376C16.9367 6.64981 16.9431 6.84439 16.7913 6.99658L16.792 6.99588ZM18.6037 7.23354C18.1841 7.23354 17.8912 7.15363 17.7337 6.99588C17.5819 6.8437 17.5883 6.64912 17.5919 6.53307C17.5919 6.51639 17.5926 6.5011 17.5919 6.49624C17.6062 6.46566 17.7673 6.35239 18.2951 6.35239C18.7519 6.35239 18.9646 6.45454 18.999 6.49693C18.9975 6.72556 18.9553 7.23285 18.6037 7.23285V7.23354Z" fill="#E0C9B8"/>
</g>
<path d="M18.2951 6.10494C17.8611 6.10494 17.6062 6.18069 17.5045 6.2752C17.4157 6.21682 17.2997 6.18486 17.1952 6.19389C17.1229 6.20015 17.0613 6.22655 17.0112 6.26686C16.9038 6.17582 16.6517 6.10425 16.2307 6.10425C15.6821 6.10425 15.3864 6.24393 15.3864 6.37596C15.3864 6.64072 15.4387 7.25711 15.922 7.25711C16.4054 7.25711 16.7076 7.1633 16.8923 6.97776C17.0856 6.78457 17.0778 6.54482 17.0735 6.41627C17.0735 6.40932 17.0735 6.40445 17.0735 6.3982C17.1057 6.35789 17.1508 6.33357 17.2088 6.32871C17.3019 6.32037 17.3978 6.36067 17.453 6.40654C17.453 6.41001 17.453 6.41279 17.453 6.41627C17.4487 6.54482 17.4408 6.78388 17.6341 6.97776C17.8189 7.1633 18.1454 7.25711 18.6044 7.25711C19.0877 7.25711 19.14 6.64072 19.14 6.37596C19.14 6.24462 18.8443 6.10425 18.2958 6.10425L18.2951 6.10494ZM16.792 6.88394C16.6345 7.04169 16.3416 7.1216 15.922 7.1216C15.5697 7.1216 15.5275 6.61432 15.5268 6.38569C15.5611 6.3433 15.7745 6.24115 16.2307 6.24115C16.7584 6.24115 16.9195 6.35442 16.9324 6.37665C16.9324 6.38986 16.9324 6.40515 16.9331 6.42182C16.9367 6.53788 16.9431 6.73245 16.7913 6.88394H16.792ZM18.6037 7.1216C18.1841 7.1216 17.8912 7.04169 17.7337 6.88394C17.5819 6.73176 17.5883 6.53788 17.5919 6.42182C17.5919 6.40515 17.5926 6.38986 17.5919 6.38499C17.6062 6.35442 17.7673 6.24115 18.2951 6.24115C18.7519 6.24115 18.9646 6.3433 18.999 6.38569C18.9975 6.61432 18.9553 7.1216 18.6037 7.1216Z" fill="#1A2E35"/>
</g>
<rect x="18.9667" y="0.3" width="15.4" height="15.4" rx="7.7" fill="#E8F5FF" stroke="white" stroke-width="0.6"/>
<g clip-path="url(#clip1_9445_992)">
<path d="M28.4962 9.07556C28.0062 9.90196 28.3727 11.0895 28.552 11.6086C28.6339 11.8453 28.9138 12.3273 29.2364 12.7745C28.8304 11.5043 28.6589 9.88525 28.6255 9.12497C28.5849 9.10796 28.5419 9.09155 28.4962 9.07556Z" fill="#1570EF"/>
<path d="M30.7697 12.6466C30.7414 12.3919 30.3545 12.071 30.1941 11.8728C30.0336 11.6746 29.543 10.344 29.3354 9.88169C29.1492 9.4671 28.9781 9.27252 28.6255 9.125C28.659 9.88528 28.8305 11.5043 29.2365 12.7746C29.6211 13.308 30.0661 13.7917 30.3074 13.7506C30.7509 13.6752 30.798 12.9014 30.7697 12.6465V12.6466Z" fill="#1570EF"/>
<path d="M30.7695 12.6458C30.7412 12.391 30.3543 12.0701 30.1939 11.872C30.129 11.7918 30.0102 11.5266 29.8778 11.2084C29.8386 12.0505 29.7677 12.9018 29.7249 13.3755C29.9536 13.617 30.1655 13.7739 30.3071 13.7498C30.7505 13.6744 30.7977 12.9005 30.7694 12.6457L30.7695 12.6458Z" fill="#1570EF"/>
<path d="M25.5703 8.26951C25.1732 8.63611 24.957 8.82628 24.4191 8.95833C23.8811 9.09037 23.8245 9.11877 23.6452 9.27921C23.4659 9.43965 23.4754 10.5531 23.7868 11.1005C24.0983 11.6478 24.5889 12.5819 24.5889 14.29C24.7777 14.6203 24.9381 14.7618 26.4668 14.7618C27.9954 14.7618 28.104 14.7288 28.2031 14.6296C28.3022 14.5305 28.373 12.4498 28.5617 11.978C28.7392 11.5345 28.9916 10.7824 28.9193 9.64346C28.9058 9.42961 28.7895 9.23349 28.6041 9.12605C28.4675 9.04701 28.3456 9.04731 28.2031 8.99606C27.9672 8.91117 27.0489 8.44871 26.956 8.2694C26.8631 8.0901 25.9384 7.92966 25.5703 8.2694V8.26951Z" fill="#1570EF"/>
<path d="M25.4236 13.0669C24.9609 11.6232 24.3514 11.0796 23.6139 10.6328C23.6553 10.8068 23.7123 10.9691 23.7864 11.0994C24.0979 11.6467 24.5885 12.5809 24.5885 14.2889C24.7773 14.6192 24.9377 14.7607 26.4664 14.7607C26.8155 14.7607 27.0904 14.759 27.3082 14.7552C25.6147 14.4206 25.9388 13.6211 25.4236 13.0669Z" fill="#1570EF"/>
<path d="M26.7838 7.57556C26.6354 7.64466 26.4791 7.68269 26.3207 7.68269C26.1624 7.68269 26.0061 7.64466 25.8577 7.57556C25.7718 7.93755 25.6447 8.50581 25.4785 8.83941C25.9578 9.26906 26.6838 9.26906 27.1631 8.83941C26.9969 8.50581 26.8698 7.93745 26.7839 7.57556H26.7838Z" fill="#FEC29E"/>
<path d="M26.7844 7.58007C26.7841 7.57853 26.7837 7.5771 26.7833 7.57556C26.6348 7.64466 26.4786 7.68269 26.3202 7.68269C26.1618 7.68269 26.0056 7.64466 25.8571 7.57556C25.7787 7.90588 25.6659 8.4443 25.5204 8.75155C25.9084 8.26284 26.4074 7.7685 26.7844 7.58007Z" fill="#DF9064"/>
<path d="M24.0801 11.7221C24.133 11.4961 24.193 11.2854 24.2585 11.1078C24.4648 10.5492 24.4519 10.1002 24.3054 9.87473C24.2719 9.82306 24.2389 9.77109 24.2091 9.71726C24.1198 9.55662 23.9156 9.25634 23.6452 9.27715C23.1261 9.48475 22.5222 11.8628 22.5316 13.6368C22.5329 13.6399 22.5345 13.6431 22.536 13.6462C23.1078 13.2084 23.6789 12.3826 24.08 11.7221H24.0801Z" fill="#1570EF"/>
<path d="M22.5367 13.6481C22.6889 13.964 23.4515 14.1878 23.8439 13.4028C23.864 12.9267 23.9508 12.2791 24.0807 11.724C23.6795 12.3845 23.1083 13.2103 22.5367 13.6481Z" fill="#1570EF"/>
<path d="M23.9978 13.5703C23.9978 13.1403 23.6492 12.7917 23.2192 12.7917C22.9402 12.7917 22.6956 12.9387 22.5581 13.1593C22.6774 13.085 22.8182 13.0419 22.9691 13.0419C23.3991 13.0419 23.7476 13.3905 23.7476 13.8204C23.7476 13.9713 23.7046 14.1122 23.6302 14.2314C23.8509 14.0939 23.9978 13.8493 23.9978 13.5703Z" fill="#1570EF"/>
<path d="M22.9698 13.0417C22.8189 13.0417 22.678 13.0848 22.5588 13.1591C22.4845 13.2785 22.4414 13.4192 22.4414 13.5701C22.4414 14.0001 22.79 14.3487 23.2199 14.3487C23.3708 14.3487 23.5117 14.3056 23.6309 14.2313C23.7053 14.1119 23.7483 13.9712 23.7483 13.8203C23.7483 13.3903 23.3997 13.0417 22.9698 13.0417Z" fill="#FFB3B5"/>
<path d="M30.8216 12.6004C31.0017 12.6004 31.1674 12.6617 31.2992 12.7644C31.1567 12.5814 30.9346 12.4636 30.6847 12.4636C30.2548 12.4636 29.9062 12.8122 29.9062 13.2421C29.9062 13.492 30.024 13.7142 30.207 13.8566C30.1043 13.7247 30.0429 13.559 30.0429 13.379C30.0429 12.949 30.3915 12.6005 30.8215 12.6005L30.8216 12.6004Z" fill="#1570EF"/>
<path d="M31.4629 13.2407C31.4629 13.0605 31.4015 12.8949 31.2988 12.763C31.1669 12.6603 31.0012 12.599 30.8212 12.599C30.3912 12.599 30.0427 12.9476 30.0427 13.3775C30.0427 13.5576 30.104 13.7233 30.2067 13.8552C30.3386 13.9579 30.5043 14.0192 30.6843 14.0192C31.1143 14.0192 31.4629 13.6706 31.4629 13.2407Z" fill="#FFB3B5"/>
<path d="M28.0147 14.4718C27.9952 14.4068 27.8061 14.3459 27.6184 14.2787C27.6095 14.1304 27.4437 13.8613 27.2547 13.8793C27.0401 13.8997 26.6111 13.9712 26.1821 13.9406C26.162 13.9428 26.1426 13.9461 26.1236 13.9502L26.1062 13.9446C26.0921 13.94 26.0783 13.9358 26.0634 13.9307L26.0199 13.9166L25.9981 13.9095L25.9759 13.9019C25.858 13.8631 25.7371 13.8215 25.6159 13.78L24.8827 13.5274L24.5157 13.4019C24.4546 13.3813 24.3939 13.3599 24.3328 13.3402C24.3024 13.3303 24.2718 13.3204 24.2413 13.311C24.2109 13.3013 24.1804 13.2921 24.1498 13.2829C24.028 13.2465 23.9061 13.2134 23.7871 13.1851C23.7572 13.1782 23.7287 13.1712 23.6991 13.165L23.6567 13.1558L23.6153 13.1475C23.6021 13.145 23.5889 13.142 23.5754 13.14C23.5638 13.1381 23.5525 13.1359 23.5406 13.1345L23.5362 13.1338C23.5346 13.1336 23.5332 13.1334 23.5324 13.1334L23.5263 13.133C23.5222 13.1328 23.5181 13.1328 23.5139 13.1327H23.5107H23.5091C23.5084 13.1327 23.509 13.1331 23.5088 13.1332C23.5089 13.1341 23.509 13.1351 23.5091 13.136C23.5092 13.1378 23.5091 13.1403 23.5087 13.1427C23.2328 12.9861 22.8823 13.0829 22.7258 13.3588C22.6776 13.4438 22.6535 13.5358 22.6511 13.6272C23.4971 14.2362 25.2452 14.5243 25.6882 14.4915C25.6882 14.4915 26.0237 15.1761 27.1084 15.2646C27.267 15.1706 27.3427 15.0114 27.4183 14.9415C27.5258 14.9318 27.5958 14.7726 27.6107 14.6783C27.7662 14.7122 27.8989 14.7265 27.9228 14.7066C27.9841 14.6555 28.0454 14.5738 28.0148 14.4716L28.0147 14.4718Z" fill="#FFB3B5"/>
<path d="M24.8944 5.90586C24.8944 5.87265 24.8954 5.83974 24.8969 5.80714C24.8112 5.74809 24.7128 5.7244 24.6185 5.74962C24.4146 5.80406 24.3073 6.06518 24.3789 6.33295C24.4503 6.60073 24.6735 6.77378 24.8773 6.71935C24.9338 6.70428 24.9829 6.67321 25.0229 6.63056C24.9411 6.40451 24.8945 6.15836 24.8945 5.90576L24.8944 5.90586Z" fill="#F2B589"/>
<path d="M24.8013 6.62301C24.6678 6.62301 24.5306 6.48656 24.4823 6.30572C24.427 6.09873 24.5022 5.89134 24.6464 5.85279C24.6623 5.84859 24.6787 5.84644 24.6952 5.84644C24.7258 5.84644 24.7575 5.85371 24.7886 5.86776C24.7884 5.88068 24.7882 5.89349 24.7882 5.9061C24.7882 6.13943 24.8253 6.37123 24.8985 6.59615C24.8833 6.60528 24.8672 6.61215 24.8501 6.61666C24.8342 6.62086 24.8177 6.62301 24.8012 6.62301H24.8013Z" fill="#DF9064"/>
<path d="M28.0215 5.74962C27.9271 5.7244 27.8287 5.74809 27.743 5.80714C27.7446 5.83974 27.7455 5.87265 27.7455 5.90586C27.7455 6.15847 27.6989 6.40461 27.6171 6.63067C27.657 6.67332 27.7061 6.70438 27.7627 6.71945C27.9665 6.77389 28.1897 6.60083 28.2611 6.33306C28.3326 6.06528 28.2254 5.80406 28.0216 5.74973L28.0215 5.74962Z" fill="#F2B589"/>
<path d="M27.8398 6.62301C27.8232 6.62301 27.8067 6.62086 27.7908 6.61666C27.7738 6.61215 27.7577 6.60528 27.7424 6.59615C27.8156 6.37123 27.8527 6.13943 27.8527 5.9061C27.8527 5.89349 27.8526 5.88068 27.8523 5.86776C27.8835 5.85371 27.9152 5.84644 27.9457 5.84644C27.9622 5.84644 27.9787 5.84859 27.9946 5.85279C28.1389 5.89124 28.214 6.09863 28.1588 6.30572C28.1105 6.48666 27.9734 6.62301 27.8398 6.62301Z" fill="#DF9064"/>
<path d="M27.7461 5.90724C27.7461 6.8786 27.3019 7.75483 26.3205 7.75483C25.3391 7.75483 24.8949 6.8786 24.8949 5.90724C24.5529 4.91681 25.1315 3.83862 26.3205 3.83862C27.6132 3.83862 28.0615 4.94346 27.7461 5.90724Z" fill="#FEC29E"/>
<path d="M26.3047 6.84208C26.188 6.84208 26.0771 6.82712 25.9768 6.80015C25.9762 6.81399 25.9758 6.82804 25.9758 6.84208C25.9758 7.1724 26.1298 7.44018 26.3197 7.44018C26.5095 7.44018 26.6635 7.1724 26.6635 6.84208C26.6635 6.82517 26.663 6.80836 26.6622 6.79175C26.5542 6.82394 26.433 6.84208 26.3047 6.84208Z" fill="#DF9064"/>
<path d="M26.3047 6.84208C26.188 6.84208 26.0771 6.82712 25.9768 6.80015C25.9762 6.81399 25.9758 6.82804 25.9758 6.84208C25.9758 6.86843 25.977 6.89437 25.9788 6.91979C26.0787 6.95588 26.1952 6.97659 26.3197 6.97659C26.4441 6.97659 26.5607 6.95588 26.6606 6.91979C26.6625 6.89437 26.6635 6.86843 26.6635 6.84208C26.6635 6.82517 26.663 6.80836 26.6622 6.79175C26.5542 6.82394 26.433 6.84208 26.3047 6.84208Z" fill="#F4F4F4"/>
<path d="M26.3204 7.45964C26.1382 7.45964 25.9836 7.22847 25.9606 6.92183C25.9597 6.90963 25.959 6.89733 25.9586 6.88523L25.9584 6.88103C25.9578 6.86647 25.9576 6.85427 25.9576 6.84269C25.9576 6.82987 25.9579 6.81624 25.9586 6.79994C25.9588 6.7942 25.9616 6.78887 25.9663 6.78548C25.9709 6.7821 25.9768 6.78097 25.9823 6.78241C26.0844 6.80978 26.1931 6.82372 26.3055 6.82372C26.429 6.82372 26.5475 6.80701 26.6576 6.77421C26.6632 6.77257 26.6692 6.77359 26.6739 6.77687C26.6787 6.78026 26.6816 6.78559 26.6818 6.79133C26.6828 6.80999 26.6832 6.8267 26.6832 6.84259C26.6832 6.85427 26.683 6.86647 26.6824 6.88093L26.6822 6.88513C26.6817 6.89713 26.681 6.90943 26.6802 6.92163C26.6573 7.22826 26.5026 7.45944 26.3205 7.45944L26.3204 7.45964ZM25.9956 6.82495C25.9955 6.83121 25.9954 6.83705 25.9954 6.84279C25.9954 6.85397 25.9956 6.86576 25.9961 6.8798L25.9963 6.8839C25.9968 6.89579 25.9974 6.90748 25.9983 6.91917C26.0198 7.20581 26.1582 7.42202 26.3205 7.42202C26.4827 7.42202 26.6211 7.20581 26.6426 6.91917C26.6434 6.90748 26.6441 6.89579 26.6446 6.8839L26.6448 6.8798C26.6453 6.86576 26.6455 6.85397 26.6455 6.84279C26.6455 6.83459 26.6454 6.82618 26.6451 6.81726C26.5382 6.84679 26.4241 6.86166 26.3056 6.86166C26.1984 6.86166 26.0942 6.84935 25.9957 6.82495H25.9956Z" fill="#4C1E1E"/>
<path d="M25.768 5.96709C25.8644 5.94451 25.9243 5.84805 25.9017 5.75163C25.8791 5.65521 25.7827 5.59535 25.6862 5.61793C25.5898 5.64051 25.53 5.73698 25.5525 5.83339C25.5751 5.92981 25.6716 5.98967 25.768 5.96709Z" fill="#3C2415"/>
<path d="M27.0336 5.91841C27.1036 5.84839 27.1036 5.73486 27.0336 5.66484C26.9636 5.59482 26.8501 5.59482 26.78 5.66484C26.71 5.73486 26.71 5.84839 26.78 5.91841C26.8501 5.98844 26.9636 5.98844 27.0336 5.91841Z" fill="#3C2415"/>
<path d="M26.3755 5.66381C26.3462 5.7124 26.3159 5.76048 26.2857 5.80836L26.1947 5.95168C26.1645 5.99935 26.1342 6.04692 26.1046 6.09459C26.0751 6.14226 26.0459 6.19014 26.0197 6.23781C26.0133 6.2497 26.007 6.26159 26.0013 6.27328C25.9957 6.28486 25.9902 6.29665 25.9867 6.30649C25.9849 6.31141 25.9839 6.31593 25.9837 6.31726C25.9837 6.31736 25.9837 6.31746 25.9837 6.31757C25.9837 6.31757 25.9838 6.31705 25.9838 6.31675C25.9838 6.31613 25.9838 6.31531 25.9838 6.31418C25.9836 6.31223 25.9832 6.31049 25.9826 6.30926C25.9817 6.3069 25.9814 6.30721 25.9829 6.30865C25.9844 6.31008 25.9871 6.31254 25.9906 6.315C25.9979 6.32003 26.0079 6.32556 26.0187 6.33048C26.0296 6.33551 26.0415 6.33991 26.0536 6.34443C26.078 6.35324 26.1039 6.36083 26.1303 6.36811C26.1831 6.38256 26.2375 6.39527 26.2922 6.40829C26.3471 6.42162 26.4023 6.43403 26.4579 6.45145C26.4738 6.45638 26.4826 6.47329 26.4776 6.48918C26.4734 6.50261 26.4607 6.51092 26.4472 6.5102H26.4468C26.3909 6.50712 26.3339 6.50292 26.277 6.49687C26.22 6.49062 26.1629 6.48252 26.1053 6.47032C26.0765 6.46417 26.0477 6.45689 26.0184 6.44746C26.0038 6.44274 25.989 6.4372 25.974 6.43075C25.959 6.42408 25.9436 6.4166 25.9275 6.40542C25.9195 6.39968 25.9112 6.39312 25.9028 6.38431C25.8945 6.37549 25.8858 6.36411 25.8797 6.34853C25.8768 6.34063 25.8746 6.33192 25.874 6.3229C25.8736 6.31828 25.8736 6.31388 25.874 6.30977C25.8741 6.30772 25.8743 6.30537 25.8746 6.30362L25.8754 6.2987C25.8778 6.28609 25.8809 6.27697 25.884 6.26866C25.8904 6.25195 25.8971 6.23811 25.9042 6.22427C25.9112 6.21064 25.9185 6.19752 25.9259 6.1848C25.9558 6.13385 25.9878 6.08608 26.0207 6.03902C26.0536 5.99207 26.0874 5.94604 26.1223 5.90073C26.157 5.85541 26.1924 5.81071 26.2289 5.76694C26.2652 5.72296 26.3021 5.67959 26.3407 5.63736C26.3489 5.62844 26.3628 5.62782 26.3717 5.63602C26.3796 5.6432 26.381 5.65478 26.3757 5.6636L26.3755 5.66381Z" fill="#4C1E1E"/>
<path d="M24.9127 6.12463C24.9159 6.15047 24.8789 6.15846 24.8713 6.13355C24.7062 5.59328 24.4371 4.61956 24.7636 4.25418C25.1599 3.81069 26.3206 3.83899 26.3206 3.83899C26.3206 3.83899 25.0089 4.13147 25.0562 4.69768C25.1033 5.26389 24.9523 5.39593 24.9523 5.39593C24.9523 5.39593 24.8337 5.49138 24.9127 6.12453V6.12463Z" fill="#1B1B25"/>
<path d="M27.681 6.12463C27.6778 6.15047 27.7148 6.15846 27.7224 6.13355C27.8875 5.59328 28.1565 4.61956 27.8301 4.25418C27.4338 3.81069 26.2731 3.83899 26.2731 3.83899C26.2731 3.83899 27.5848 4.13147 27.5375 4.69768C27.4904 5.26389 27.6414 5.39593 27.6414 5.39593C27.6414 5.39593 27.76 5.49138 27.681 6.12453V6.12463Z" fill="#1B1B25"/>
<path d="M27.8112 4.04567C27.7214 3.96068 27.6318 3.92767 27.528 3.93834C27.5367 3.75524 27.474 3.56302 27.2355 3.45117C26.7732 3.23414 26.0465 3.0171 25.2727 3.45117C24.4989 3.88523 24.8009 4.40428 24.8009 4.40428C24.8426 4.40428 24.8918 4.40018 24.9473 4.39321L24.8953 4.52689L24.8983 4.70538C25.0851 4.51859 25.6879 4.21544 26.273 4.52689C26.7637 4.26137 27.2751 4.50372 27.5379 4.70374C27.6245 4.93574 27.5846 5.18742 27.5846 5.18742L27.8749 4.95727C28.1275 4.61383 27.9904 4.21555 27.811 4.04567H27.8112Z" fill="#1B1B25"/>
<path d="M25.9734 5.42437C25.971 5.42293 25.9664 5.41945 25.9628 5.41678L25.9509 5.40807L25.9265 5.39095C25.9101 5.37957 25.893 5.36932 25.8762 5.35896C25.8422 5.33897 25.8075 5.32144 25.7729 5.3076C25.7034 5.27961 25.6339 5.26731 25.5696 5.27387C25.5373 5.27674 25.5057 5.28453 25.475 5.29714C25.4711 5.29858 25.4674 5.30012 25.4635 5.30145L25.4521 5.30699C25.4445 5.31088 25.4367 5.31386 25.4292 5.31816C25.4144 5.32718 25.3993 5.33528 25.3845 5.34574C25.3543 5.3644 25.3243 5.38716 25.2917 5.40879C25.2759 5.42037 25.2596 5.43216 25.2419 5.44323C25.2251 5.45543 25.2074 5.46722 25.1872 5.47778L25.1806 5.48116C25.1439 5.50034 25.0986 5.48619 25.0794 5.44949C25.0699 5.43124 25.0687 5.41053 25.0743 5.39228C25.0818 5.3685 25.0917 5.34594 25.1026 5.3238C25.1149 5.30248 25.1277 5.28115 25.1425 5.26106C25.173 5.22138 25.2083 5.18407 25.2515 5.15372C25.2936 5.12266 25.3422 5.09764 25.3939 5.07868L25.4134 5.07191L25.4232 5.06863L25.4333 5.06607C25.4469 5.06268 25.4603 5.0592 25.4738 5.05612C25.4876 5.05387 25.5015 5.05192 25.5152 5.04997C25.5291 5.04813 25.5431 5.04802 25.557 5.0471C25.6126 5.04546 25.668 5.05274 25.7196 5.06761C25.7713 5.08216 25.8193 5.1039 25.8632 5.12994C25.9072 5.15598 25.9469 5.18632 25.9831 5.21974C26.0011 5.23656 26.0182 5.25419 26.0343 5.27254C26.0424 5.28166 26.0503 5.2911 26.0579 5.30094C26.0617 5.30576 26.0654 5.31088 26.0691 5.3158C26.0731 5.32113 26.0761 5.32564 26.0809 5.33251C26.1033 5.36409 26.0958 5.40797 26.0642 5.43032C26.0407 5.44692 26.0105 5.44713 25.9873 5.43308L25.9735 5.42468L25.9734 5.42437Z" fill="#4C1E1E"/>
<path d="M26.578 5.32995C26.5828 5.32308 26.5859 5.31857 26.5898 5.31324C26.5936 5.30832 26.5972 5.30319 26.601 5.29837C26.6086 5.28853 26.6164 5.2792 26.6246 5.26998C26.6408 5.25163 26.6578 5.23399 26.6758 5.21718C26.712 5.18376 26.7517 5.15341 26.7957 5.12737C26.8396 5.10144 26.8877 5.0797 26.9393 5.06504C26.9909 5.05018 27.0463 5.0429 27.1019 5.04454C27.1158 5.04546 27.1298 5.04567 27.1437 5.04741C27.1575 5.04936 27.1713 5.05131 27.1851 5.05356C27.1986 5.05664 27.2122 5.06002 27.2256 5.06351L27.2357 5.06607L27.2455 5.06935L27.2651 5.07611C27.3166 5.09508 27.3653 5.1201 27.4074 5.15116C27.4506 5.18161 27.4859 5.21892 27.5164 5.25849C27.5312 5.27859 27.544 5.29991 27.5563 5.32124C27.5672 5.34338 27.5771 5.36593 27.5846 5.38972C27.597 5.42919 27.5751 5.47132 27.5355 5.48373C27.5158 5.48988 27.4955 5.48752 27.4785 5.4787L27.4717 5.47522C27.4515 5.46466 27.4339 5.45287 27.417 5.44067C27.3993 5.4297 27.3829 5.41791 27.3672 5.40622C27.3345 5.38459 27.3046 5.36183 27.2744 5.34318C27.2596 5.33272 27.2445 5.32462 27.2297 5.3156C27.2222 5.31129 27.2144 5.30822 27.2068 5.30442L27.1954 5.29889C27.1915 5.29755 27.1876 5.29602 27.1839 5.29458C27.1531 5.28197 27.1216 5.27418 27.0893 5.27131C27.0248 5.26475 26.9555 5.27705 26.886 5.30504C26.8513 5.31898 26.8167 5.33641 26.7827 5.3564C26.766 5.36675 26.7488 5.37701 26.7324 5.38839L26.708 5.40551L26.6961 5.41422C26.6925 5.41699 26.688 5.42037 26.6855 5.42181L26.6717 5.43021C26.6386 5.45031 26.5954 5.43975 26.5753 5.40663C26.5603 5.38203 26.5624 5.35189 26.5781 5.32975L26.578 5.32995Z" fill="#4C1E1E"/>
</g>
<defs>
<clipPath id="clip0_9445_992">
<rect width="9.2" height="9.81333" fill="white" transform="translate(12.9337 3.20056)"/>
</clipPath>
<clipPath id="clip1_9445_992">
<rect width="9.2" height="9.90769" fill="white" transform="translate(22.2662 3.20056)"/>
</clipPath>
</defs>
</svg>
