<svg width="16" height="16" viewBox="0 0 16 16" fill="none" xmlns="http://www.w3.org/2000/svg">
<g id="Line Lightmode/Refresh">
<path id="Vector" d="M2.15789 6.34618C2.50714 5.12819 3.23302 4.05203 4.23149 3.27194C5.22996 2.49185 6.44976 2.04788 7.71606 2.00366C8.98237 1.95944 10.2302 2.31724 11.2806 3.02578C12.3311 3.73432 13.1302 4.75722 13.5636 5.94788M13.4535 10.3325C13.0022 11.4022 12.2501 12.318 11.2886 12.9688C10.3271 13.6196 9.19747 13.9775 8.03662 13.999C6.87578 14.0205 5.73363 13.7047 4.74868 13.09C3.76373 12.4753 2.97829 11.588 2.48761 10.5357M3.80933 9.9566L2.09803 10.2104L1.27426 11.7317M12.089 6.48659L13.8003 6.23282L14.624 4.71152" stroke="#1570EF" stroke-width="1.4" stroke-linecap="round" stroke-linejoin="round"/>
</g>
</svg>
