<svg xmlns="http://www.w3.org/2000/svg" width="16" height="16" viewBox="0 0 16 16" fill="none">
    <path d="M2 11.3346H9.33333M9.33333 11.3346C9.33333 12.4392 10.2288 13.3346 11.3333 13.3346C12.4379 13.3346 13.3333 12.4392 13.3333 11.3346C13.3333 10.2301 12.4379 9.33464 11.3333 9.33464C10.2288 9.33464 9.33333 10.2301 9.33333 11.3346ZM6 4.66797H13.3333M6 4.66797C6 5.77254 5.10457 6.66797 4 6.66797C2.89543 6.66797 2 5.77254 2 4.66797C2 3.5634 2.89543 2.66797 4 2.66797C5.10457 2.66797 6 3.5634 6 4.66797Z" stroke="white" stroke-width="1.5" stroke-linecap="round"/>
</svg>