<svg width="21" height="20" viewBox="0 0 21 20" fill="none" xmlns="http://www.w3.org/2000/svg">
<g clip-path="url(#clip0_17517_35996)">
<path d="M17.4169 3.84123C16.9913 3.41541 16.4859 3.07761 15.9297 2.84714C15.3735 2.61667 14.7773 2.49805 14.1752 2.49805C13.5732 2.49805 12.977 2.61667 12.4208 2.84714C11.8646 3.07761 11.3592 3.41541 10.9336 3.84123L10.0502 4.72457L9.1669 3.84123C8.30715 2.98149 7.14109 2.49849 5.92523 2.49849C4.70937 2.49849 3.54331 2.98149 2.68356 3.84123C1.82382 4.70098 1.34082 5.86704 1.34082 7.0829C1.34082 8.29876 1.82382 9.46482 2.68356 10.3246L10.0502 17.6912L17.4169 10.3246C17.8427 9.89894 18.1805 9.39358 18.411 8.83736C18.6415 8.28115 18.7601 7.68497 18.7601 7.0829C18.7601 6.48083 18.6415 5.88465 18.411 5.32844C18.1805 4.77222 17.8427 4.26686 17.4169 3.84123Z" fill="#FC3A52" stroke="#EEEFF4" stroke-linecap="round" stroke-linejoin="round"/>
</g>
<defs>
<clipPath id="clip0_17517_35996">
<rect width="20" height="20" fill="white" transform="translate(0.0500488)"/>
</clipPath>
</defs>
</svg>
