<svg width="24" height="24" viewBox="0 0 24 24" fill="none" xmlns="http://www.w3.org/2000/svg">
<path d="M21.4 17.82H2.6C1.72 17.82 1 17.1 1 16.22V2.6C1 1.72 1.72 1 2.6 1H21.4C22.28 1 23 1.72 23 2.6V16.22C23 17.1 22.28 17.82 21.4 17.82ZM2.6 2C2.27 2 2 2.27 2 2.6V16.22C2 16.55 2.27 16.82 2.6 16.82H21.4C21.73 16.82 22 16.55 22 16.22V2.6C22 2.27 21.73 2 21.4 2H2.6Z" fill="white"/>
<path d="M23 21.21H1V22.21H23V21.21Z" fill="white"/>
<path d="M10.3596 12.95C10.2196 12.95 10.0796 12.91 9.94957 12.84C9.70957 12.69 9.55957 12.44 9.55957 12.15V6.76C9.55957 6.46 9.72957 6.19 9.98957 6.05C10.2596 5.91 10.5796 5.94 10.8196 6.11L15.1296 9.19C15.3596 9.35 15.4796 9.62 15.4596 9.89C15.4396 10.17 15.2796 10.41 15.0396 10.54L10.7296 12.85C10.6096 12.91 10.4796 12.95 10.3496 12.95H10.3596ZM10.5596 7.15V11.81L14.2896 9.81L10.5596 7.14V7.15Z" fill="#FFB3B5"/>
<path d="M17.8203 23.5C18.8089 23.5 19.6103 22.6986 19.6103 21.71C19.6103 20.7214 18.8089 19.92 17.8203 19.92C16.8317 19.92 16.0303 20.7214 16.0303 21.71C16.0303 22.6986 16.8317 23.5 17.8203 23.5Z" fill="#FFB3B5"/>
<path d="M17.8203 24C16.5603 24 15.5303 22.97 15.5303 21.71C15.5303 20.45 16.5603 19.42 17.8203 19.42C19.0803 19.42 20.1103 20.45 20.1103 21.71C20.1103 22.97 19.0803 24 17.8203 24ZM17.8203 20.41C17.1103 20.41 16.5303 20.99 16.5303 21.7C16.5303 22.41 17.1103 22.99 17.8203 22.99C18.5303 22.99 19.1103 22.41 19.1103 21.7C19.1103 20.99 18.5303 20.41 17.8203 20.41Z" fill="white"/>
</svg>
