<svg width="54" height="54" viewBox="0 0 54 54" fill="none" xmlns="http://www.w3.org/2000/svg">
<rect width="54" height="54" rx="27" fill="white"/>
<path d="M38.75 34.275H15.25C14.15 34.275 13.25 33.375 13.25 32.275V15.25C13.25 14.15 14.15 13.25 15.25 13.25H38.75C39.85 13.25 40.75 14.15 40.75 15.25V32.275C40.75 33.375 39.85 34.275 38.75 34.275ZM15.25 14.5C14.8375 14.5 14.5 14.8375 14.5 15.25V32.275C14.5 32.6875 14.8375 33.025 15.25 33.025H38.75C39.1625 33.025 39.5 32.6875 39.5 32.275V15.25C39.5 14.8375 39.1625 14.5 38.75 14.5H15.25Z" fill="#202126"/>
<path d="M40.75 38.5127H13.25V39.7627H40.75V38.5127Z" fill="#202126"/>
<path d="M24.9502 28.187C24.7752 28.187 24.6002 28.137 24.4377 28.0495C24.1377 27.862 23.9502 27.5495 23.9502 27.187V20.4495C23.9502 20.0745 24.1627 19.737 24.4877 19.562C24.8252 19.387 25.2252 19.4245 25.5252 19.637L30.9127 23.487C31.2002 23.687 31.3502 24.0245 31.3252 24.362C31.3002 24.712 31.1002 25.012 30.8002 25.1745L25.4127 28.062C25.2627 28.137 25.1002 28.187 24.9377 28.187H24.9502ZM25.2002 20.937V26.762L29.8627 24.262L25.2002 20.9245V20.937Z" fill="#FC3A52"/>
<path d="M34.2746 41.3744C35.5103 41.3744 36.5121 40.3726 36.5121 39.1369C36.5121 37.9012 35.5103 36.8994 34.2746 36.8994C33.0389 36.8994 32.0371 37.9012 32.0371 39.1369C32.0371 40.3726 33.0389 41.3744 34.2746 41.3744Z" fill="#FC3A52"/>
<path d="M34.2746 41.9994C32.6996 41.9994 31.4121 40.7119 31.4121 39.1369C31.4121 37.5619 32.6996 36.2744 34.2746 36.2744C35.8496 36.2744 37.1371 37.5619 37.1371 39.1369C37.1371 40.7119 35.8496 41.9994 34.2746 41.9994ZM34.2746 37.5119C33.3871 37.5119 32.6621 38.2369 32.6621 39.1244C32.6621 40.0119 33.3871 40.7369 34.2746 40.7369C35.1621 40.7369 35.8871 40.0119 35.8871 39.1244C35.8871 38.2369 35.1621 37.5119 34.2746 37.5119Z" fill="white"/>
</svg>
