<svg width="24" height="24" viewBox="0 0 24 24" fill="none" xmlns="http://www.w3.org/2000/svg">
<path d="M21.88 5.21L21.91 5.18L16.51 0.5H3.6C2.44 0.5 1.5 1.44 1.5 2.6V21.4C1.5 22.56 2.44 23.5 3.6 23.5H19.81C20.97 23.5 21.91 22.56 21.91 21.4V5.21H21.88ZM17 2.25L19.84 4.71H18.1C17.49 4.71 17 4.22 17 3.61V2.25ZM20.91 21.4C20.91 22.01 20.42 22.5 19.81 22.5H3.6C2.99 22.5 2.5 22.01 2.5 21.4V2.6C2.5 1.99 2.99 1.5 3.6 1.5H16V3.61C16 4.77 16.94 5.71 18.1 5.71H20.91V21.4Z" fill="white"/>
<path d="M10.5596 10.06C10.5596 10.34 10.7796 10.56 11.0596 10.56H18.8196C19.0996 10.56 19.3196 10.34 19.3196 10.06C19.3196 9.78 19.0996 9.56 18.8196 9.56H11.0596C10.7796 9.56 10.5596 9.78 10.5596 10.06Z" fill="white"/>
<path d="M11.0596 7.97H15.3296C15.6096 7.97 15.8296 7.75 15.8296 7.47C15.8296 7.19 15.6096 6.97 15.3296 6.97H11.0596C10.7796 6.97 10.5596 7.19 10.5596 7.47C10.5596 7.75 10.7796 7.97 11.0596 7.97Z" fill="white"/>
<path d="M11.0596 15.74H15.3296C15.6096 15.74 15.8296 15.52 15.8296 15.24C15.8296 14.96 15.6096 14.74 15.3296 14.74H11.0596C10.7796 14.74 10.5596 14.96 10.5596 15.24C10.5596 15.52 10.7796 15.74 11.0596 15.74Z" fill="white"/>
<path d="M18.8196 17.32H11.0596C10.7796 17.32 10.5596 17.54 10.5596 17.82C10.5596 18.1 10.7796 18.32 11.0596 18.32H18.8196C19.0996 18.32 19.3196 18.1 19.3196 17.82C19.3196 17.54 19.0996 17.32 18.8196 17.32Z" fill="white"/>
<path d="M8.76984 11.35H5.58984C5.03984 11.35 4.58984 10.9 4.58984 10.35V7.17C4.58984 6.62 5.03984 6.17 5.58984 6.17H8.76984C9.31984 6.17 9.76984 6.62 9.76984 7.17V10.35C9.76984 10.9 9.31984 11.35 8.76984 11.35ZM5.58984 7.17V10.35H8.76984V7.17H5.58984Z" fill="#FFB3B5"/>
<path d="M8.76984 19.12H5.58984C5.03984 19.12 4.58984 18.67 4.58984 18.12V14.94C4.58984 14.39 5.03984 13.94 5.58984 13.94H8.76984C9.31984 13.94 9.76984 14.39 9.76984 14.94V18.12C9.76984 18.67 9.31984 19.12 8.76984 19.12ZM5.58984 14.94V18.12H8.76984V14.94H5.58984Z" fill="#FFB3B5"/>
</svg>
