<svg xmlns="http://www.w3.org/2000/svg" width="24" height="24" viewBox="0 0 24 24" fill="none">
    <g clip-path="url(#clip0_14975_42705)">
        <path d="M15.8749 12.5002C14.2207 12.5002 12.8749 13.8457 12.8749 15.5002C12.8749 17.1541 14.2207 18.5002 15.8749 18.5002C17.5294 18.5002 18.8749 17.1541 18.8749 15.5002C18.8749 13.8457 17.5294 12.5002 15.8749 12.5002ZM17.5822 16.5L16.875 17.2068L15.8749 16.207L14.8751 17.2068L14.168 16.5L15.1681 15.5002L14.168 14.4998L14.8751 13.793L15.8749 14.7927L16.875 13.793L17.5822 14.4998L16.582 15.5002L17.5822 16.5ZM12 0.75C5.78687 0.75 0.75 5.78687 0.75 12C0.75 18.2131 5.78687 23.25 12 23.25C18.2131 23.25 23.25 18.2131 23.25 12C23.25 5.78687 18.2131 0.75 12 0.75ZM6.375 18.5002C5.54993 18.5002 4.875 17.825 4.875 17.0002V6.99976C4.875 6.17505 5.54993 5.49976 6.375 5.49976H7.875V4.5H8.87512V5.49976H14.8751V4.5H15.8749V5.49976H17.3749C18.2 5.49976 18.8749 6.17505 18.8749 6.99976V11.5049C18.5702 11.2698 18.2351 11.075 17.8751 10.9197V9.50024H5.87512V17.0002C5.87512 17.2749 6.09998 17.4998 6.375 17.4998H11.295C11.45 17.8601 11.6451 18.1956 11.8799 18.5002H6.375ZM12.8749 11.4998V11.5049C12.4999 11.7854 12.16 12.1252 11.8799 12.5002H10.875V11.4998H12.8749ZM7.37512 12.5002V11.4998H9.375V12.5002H7.37512ZM9.375 14.4998V15.5002H7.37512V14.4998H9.375ZM15.8749 19.5C13.6696 19.5 11.8751 17.7056 11.8751 15.5002C11.8751 13.2942 13.6696 11.4998 15.8749 11.4998C18.0806 11.4998 19.875 13.2942 19.875 15.5002C19.875 17.7056 18.0806 19.5 15.8749 19.5ZM17.8751 8.49976H5.87512V6.99976C5.87512 6.7251 6.09998 6.50024 6.375 6.50024H17.3749C17.6499 6.50024 17.8751 6.7251 17.8751 6.99976V8.49976Z" fill="#CDCECE"/>
    </g>
    <defs>
        <clipPath id="clip0_14975_42705">
            <rect width="24" height="24" fill="white"/>
        </clipPath>
    </defs>
</svg>