<svg width="40" height="40" viewBox="0 0 40 40" fill="none" xmlns="http://www.w3.org/2000/svg">
<rect width="40" height="40" rx="20" fill="none"/>
<path d="M30.3509 12.9458C29.9891 12.5856 29.4999 12.3826 28.9894 12.3809L22.1465 12.384L21.95 12.4348L20 13.296L18.0375 12.4306L17.8333 12.3809H11.0106C10.5 12.3826 10.0108 12.5856 9.64903 12.9458C9.46988 13.1241 9.32784 13.3361 9.23115 13.5696C9.13446 13.8032 9.08502 14.0535 9.0857 14.3063V24.7249C9.0861 25.2353 9.28901 25.7248 9.64988 26.0858C10.0108 26.4468 10.5001 26.6498 11.0106 26.6504H17.7243L19.7968 27.5713L20 27.6205L20.2166 27.5655L22.275 26.6504H28.9887C29.2416 26.6508 29.492 26.6011 29.7255 26.5041C29.959 26.4072 30.171 26.2649 30.3492 26.0855C30.7095 25.7242 30.9125 25.2352 30.9141 24.7249V14.3063C30.9148 14.0535 30.8654 13.8032 30.7687 13.5697C30.672 13.3361 30.53 13.1241 30.3509 12.9458ZM29.8293 24.7249C29.8294 24.8353 29.8078 24.9447 29.7657 25.0467C29.7236 25.1487 29.6617 25.2415 29.5837 25.3196C29.5057 25.3977 29.413 25.4597 29.3111 25.502C29.2091 25.5443 29.0998 25.566 28.9894 25.566L22.1476 25.5681L21.9497 25.6189L20.5427 26.2364V14.2439L22.276 13.4663H28.9898C29.2125 13.4671 29.4259 13.5552 29.5843 13.7117C29.6625 13.7897 29.7244 13.8824 29.7665 13.9844C29.8086 14.0865 29.8301 14.1959 29.8297 14.3063L29.8293 24.7249ZM10.1696 14.3063C10.1695 14.1958 10.1912 14.0864 10.2335 13.9844C10.2758 13.8824 10.3378 13.7897 10.416 13.7117C10.5744 13.5552 10.7879 13.4671 11.0106 13.4663H17.7243L19.4576 14.2439V26.2364L18.0368 25.6132L17.8527 25.5677L11.0106 25.566C10.7876 25.5658 10.5737 25.4772 10.416 25.3195C10.2584 25.1617 10.1697 24.9479 10.1696 24.7249V14.3063Z" fill="#515151"/>
<path d="M17.1424 16.0352H12.4863C12.3641 16.0352 12.2468 16.0837 12.1603 16.1702C12.0739 16.2566 12.0253 16.3739 12.0253 16.4961V21.7985C12.0253 21.9208 12.0739 22.038 12.1603 22.1244C12.2468 22.2109 12.3641 22.2594 12.4863 22.2594H17.1424C17.2646 22.2594 17.3819 22.2108 17.4683 22.1244C17.5548 22.0379 17.6034 21.9207 17.6035 21.7985V16.4965C17.6035 16.3742 17.5549 16.2569 17.4685 16.1704C17.382 16.0839 17.2647 16.0352 17.1424 16.0352ZM16.6814 21.337H12.9475V16.9576H16.6815L16.6814 21.337Z" fill="#FF647C"/>
<path d="M23.0889 16.9571H25.8547C25.977 16.9571 26.0942 16.9085 26.1807 16.8221C26.2671 16.7356 26.3157 16.6184 26.3157 16.4961C26.3157 16.3739 26.2671 16.2566 26.1807 16.1702C26.0942 16.0837 25.977 16.0352 25.8547 16.0352H23.0889C22.9666 16.0352 22.8494 16.0837 22.7629 16.1702C22.6765 16.2566 22.6279 16.3739 22.6279 16.4961C22.6279 16.6184 22.6765 16.7356 22.7629 16.8221C22.8494 16.9085 22.9666 16.9571 23.0889 16.9571Z" fill="#515151"/>
<path d="M27.5143 18.6866H23.0889C22.9678 18.6884 22.8524 18.7378 22.7674 18.8241C22.6825 18.9103 22.6349 19.0265 22.6349 19.1476C22.6349 19.2686 22.6825 19.3849 22.7674 19.4711C22.8524 19.5574 22.9678 19.6067 23.0889 19.6086H27.5143C27.5754 19.6095 27.6362 19.5983 27.6929 19.5756C27.7497 19.5528 27.8013 19.519 27.8449 19.4761C27.8885 19.4332 27.923 19.3821 27.9467 19.3257C27.9703 19.2693 27.9824 19.2087 27.9824 19.1476C27.9824 19.0864 27.9703 19.0259 27.9467 18.9695C27.923 18.9131 27.8885 18.862 27.8449 18.8191C27.8013 18.7762 27.7497 18.7424 27.6929 18.7196C27.6362 18.6969 27.5754 18.6856 27.5143 18.6866Z" fill="#515151"/>
<path d="M27.5143 21.337H23.0889C23.0278 21.336 22.9671 21.3473 22.9103 21.37C22.8536 21.3927 22.8019 21.4265 22.7584 21.4694C22.7148 21.5123 22.6802 21.5635 22.6566 21.6198C22.633 21.6762 22.6208 21.7367 22.6208 21.7979C22.6208 21.859 22.633 21.9195 22.6566 21.9759C22.6802 22.0323 22.7148 22.0834 22.7584 22.1263C22.8019 22.1692 22.8536 22.203 22.9103 22.2257C22.9671 22.2485 23.0278 22.2597 23.0889 22.2588H27.5143C27.5754 22.2597 27.6361 22.2485 27.6928 22.2257C27.7496 22.203 27.8012 22.1692 27.8448 22.1263C27.8884 22.0834 27.9229 22.0323 27.9465 21.9759C27.9702 21.9195 27.9823 21.859 27.9823 21.7979C27.9823 21.7367 27.9702 21.6762 27.9465 21.6198C27.9229 21.5635 27.8884 21.5123 27.8448 21.4694C27.8012 21.4265 27.7496 21.3927 27.6928 21.37C27.6361 21.3473 27.5754 21.336 27.5143 21.337Z" fill="#515151"/>
</svg>
