<svg width="70" height="28" viewBox="0 0 70 28" fill="none" xmlns="http://www.w3.org/2000/svg">
<path d="M8.15997 0.0605469C8.17299 0.0607985 8.18322 0.0719106 8.18341 0.0849609V1.14258C8.18341 1.45001 8.34545 1.66003 8.51935 1.6709C8.44347 1.67385 8.36631 1.71627 8.3006 1.80469C8.22622 1.905 8.18351 2.04885 8.18341 2.2002V3.25781C8.18341 3.56524 8.34543 3.77628 8.51935 3.78711C8.44351 3.79007 8.36629 3.83157 8.3006 3.91992C8.22624 4.02021 8.18353 4.16412 8.18341 4.31543V5.37305C8.18341 5.68047 8.34543 5.89151 8.51935 5.90234C8.44353 5.9053 8.36628 5.94689 8.3006 6.03516C8.22626 6.13545 8.18355 6.2794 8.18341 6.43066V7.48828C8.18341 7.7957 8.34543 8.00674 8.51935 8.01758C8.44354 8.02053 8.36627 8.06217 8.3006 8.15039C8.2262 8.25077 8.18348 8.39547 8.18341 8.54688V9.60449C8.18355 9.91169 8.34551 10.122 8.51935 10.1328C8.44357 10.1358 8.36626 10.1774 8.3006 10.2656C8.2262 10.366 8.18348 10.5107 8.18341 10.6621V11.7197C8.18351 12.027 8.34549 12.2372 8.51935 12.248C8.44347 12.251 8.36632 12.2934 8.3006 12.3818C8.22629 12.4822 8.18348 12.626 8.18341 12.7773V13.835C8.18346 14.1423 8.34547 14.3524 8.51935 14.3633C8.44347 14.3662 8.36632 14.4086 8.3006 14.4971C8.22626 14.5974 8.18348 14.7412 8.18341 14.8926V15.9502C8.18342 16.2576 8.34545 16.4677 8.51935 16.4785C8.44347 16.4815 8.36632 16.5239 8.3006 16.6123C8.22622 16.7127 8.18349 16.8564 8.18341 17.0078V18.0654C8.18341 18.3728 8.34545 18.5829 8.51935 18.5938C8.44347 18.5967 8.36632 18.6392 8.3006 18.7275C8.22623 18.8279 8.18352 18.9717 8.18341 19.123V20.1807C8.18341 20.4881 8.34543 20.6991 8.51935 20.71C8.44351 20.7129 8.36629 20.7544 8.3006 20.8428C8.22624 20.9431 8.18354 21.087 8.18341 21.2383V22.2959C8.18341 22.6034 8.34543 22.8144 8.51935 22.8252C8.44353 22.8281 8.36628 22.8697 8.3006 22.958C8.22626 23.0583 8.18356 23.2023 8.18341 23.3535V24.4111C8.18341 24.7186 8.34543 24.9296 8.51935 24.9404C8.44355 24.9434 8.36627 24.985 8.3006 25.0732C8.2262 25.1736 8.18348 25.3183 8.18341 25.4697V26.5273C8.18355 26.8346 8.34551 27.0448 8.51935 27.0557C8.44357 27.0586 8.36626 27.1003 8.3006 27.1885C8.2262 27.2889 8.18348 27.4336 8.18341 27.585C8.18341 27.7806 8.02449 27.9392 7.82892 27.9395H3.21173C1.54825 27.9393 0.200219 26.5912 0.200012 24.9277V21.001C0.200012 20.0331 0.709465 19.1493 1.27423 18.3633C1.46388 18.0993 1.63679 17.8103 1.78986 17.501C2.2829 16.5044 2.57208 15.2968 2.57208 14C2.57199 12.7032 2.28297 11.4955 1.78986 10.499C1.63684 10.1899 1.46386 9.90148 1.27423 9.6377C0.709333 8.85188 0.200012 7.96876 0.200012 7.00098V3.07324C0.200116 1.40968 1.54819 0.0607202 3.21173 0.0605469H8.15997ZM66.2108 0.0605469C67.8743 0.0606826 69.2233 1.40966 69.2234 3.07324V7.08398C69.2234 8.00487 68.7603 8.85465 68.2527 9.62305C68.0759 9.8908 67.9154 10.1841 67.7733 10.499C67.3235 11.4954 67.0605 12.7033 67.0604 14C67.0604 15.2968 67.3236 16.5045 67.7733 17.501C67.9156 17.8164 68.0766 18.1106 68.2537 18.3789C68.761 19.1473 69.2233 19.9963 69.2234 20.917V24.9277C69.2232 26.5912 67.8743 27.9393 66.2108 27.9395H9.33771C9.14193 27.9395 8.98322 27.7807 8.98322 27.585C8.98313 27.4338 8.94441 27.2898 8.87677 27.1895C8.81686 27.101 8.74578 27.0587 8.67657 27.0557C8.83503 27.0446 8.98313 26.8344 8.98322 26.5273V25.4697C8.98313 25.3184 8.94461 25.1736 8.87677 25.0732C8.81688 24.9848 8.74574 24.9435 8.67657 24.9404C8.83501 24.9293 8.98309 24.7191 8.98322 24.4121V23.3545C8.98313 23.2031 8.94461 23.0583 8.87677 22.958C8.81687 22.8695 8.74576 22.8282 8.67657 22.8252C8.83508 22.8141 8.98322 22.6032 8.98322 22.2959V21.2383C8.98306 21.0871 8.94453 20.943 8.87677 20.8428C8.81686 20.7542 8.74578 20.713 8.67657 20.71C8.83508 20.6989 8.98322 20.4879 8.98322 20.1807V19.123C8.98308 18.9719 8.94451 18.8278 8.87677 18.7275C8.81686 18.639 8.74577 18.5978 8.67657 18.5947C8.83508 18.5836 8.98322 18.3727 8.98322 18.0654V17.0078C8.9831 16.8566 8.9445 16.7126 8.87677 16.6123C8.81686 16.5238 8.74578 16.4816 8.67657 16.4785C8.83507 16.4674 8.98322 16.2574 8.98322 15.9502V14.8926C8.98312 14.7414 8.94448 14.5974 8.87677 14.4971C8.81686 14.4085 8.74578 14.3663 8.67657 14.3633C8.83507 14.3522 8.98321 14.1422 8.98322 13.835V12.7773C8.98313 12.6262 8.94445 12.4821 8.87677 12.3818C8.81686 12.2933 8.74578 12.2511 8.67657 12.248C8.83504 12.237 8.98316 12.0269 8.98322 11.7197V10.6621C8.98313 10.511 8.94442 10.3669 8.87677 10.2666C8.81686 10.1781 8.74578 10.1359 8.67657 10.1328C8.83503 10.1217 8.98312 9.91156 8.98322 9.60449V8.54688C8.98313 8.39551 8.94461 8.25074 8.87677 8.15039C8.81688 8.06197 8.74575 8.02062 8.67657 8.01758C8.83501 8.0065 8.98309 7.79627 8.98322 7.48926V6.43164C8.98313 6.28028 8.94461 6.13551 8.87677 6.03516C8.81687 5.94669 8.74577 5.90539 8.67657 5.90234C8.83508 5.89126 8.98322 5.68028 8.98322 5.37305V4.31543C8.98306 4.16423 8.94453 4.02015 8.87677 3.91992C8.81686 3.8314 8.74577 3.79015 8.67657 3.78711C8.83508 3.77602 8.98322 3.56504 8.98322 3.25781V2.2002C8.98308 2.049 8.94452 1.90494 8.87677 1.80469C8.81686 1.71616 8.74577 1.67492 8.67657 1.67188C8.83508 1.66079 8.98322 1.44984 8.98322 1.14258V0.0849609C8.9834 0.0717506 8.99339 0.0605469 9.00665 0.0605469H66.2108ZM58.657 10.5C57.9059 10.5001 57.2297 10.6303 56.6287 10.8916C56.0343 11.1529 55.5283 11.5093 55.1102 11.96C54.6986 12.4042 54.3811 12.9305 54.159 13.5381C53.9369 14.1391 53.826 14.7829 53.826 15.4688C53.826 16.3505 53.9531 17.128 54.2078 17.8008C54.4626 18.4671 54.8125 19.029 55.2567 19.4863C55.7009 19.9371 56.2239 20.2804 56.825 20.5156C57.426 20.7442 58.0762 20.8584 58.7752 20.8584C59.128 20.8584 59.4907 20.8325 59.8631 20.7803C60.242 20.728 60.6112 20.6397 60.9705 20.5156C61.3363 20.385 61.6862 20.2149 62.0193 20.0059C62.3524 19.7903 62.6529 19.5254 62.9207 19.2119L62.2244 18.3301C62.1265 18.18 61.9766 18.1046 61.7742 18.1045C61.624 18.1045 61.4669 18.1507 61.3035 18.2422C61.1468 18.3336 60.9605 18.4349 60.7449 18.5459C60.5359 18.6569 60.2872 18.7582 59.9998 18.8496C59.719 18.941 59.3827 18.9863 58.991 18.9863C58.5991 18.9863 58.2395 18.9281 57.9129 18.8105C57.5929 18.6865 57.315 18.5033 57.0799 18.2617C56.8447 18.0135 56.6553 17.7025 56.5115 17.3301C56.3679 16.9513 56.2763 16.5041 56.2371 15.9883H62.4598C62.6819 15.9883 62.8326 15.9259 62.9109 15.8018C62.9893 15.6711 63.0281 15.4225 63.0281 15.0566C63.0281 14.3315 62.9172 13.6878 62.6951 13.126C62.4795 12.5577 62.1791 12.0807 61.7938 11.6953C61.4083 11.3034 60.9476 11.0062 60.4119 10.8037C59.8762 10.6012 59.2908 10.5 58.657 10.5ZM14.0643 6.54102V20.7119H16.7V15.7236H18.6697C19.5909 15.7236 20.3949 15.6086 21.0809 15.3799C21.7733 15.1512 22.3482 14.8314 22.8055 14.4199C23.2627 14.0084 23.6061 13.5185 23.8348 12.9502C24.0634 12.3753 24.1775 11.7445 24.1776 11.0586C24.1776 10.3987 24.0667 9.79068 23.8445 9.23535C23.6289 8.68012 23.2953 8.20317 22.8445 7.80469C22.3938 7.40627 21.8221 7.09611 21.1297 6.87402C20.4372 6.65192 19.617 6.54102 18.6697 6.54102H14.0643ZM30.5936 10.4707C30.0056 10.4707 29.4955 10.644 29.0643 10.9902C28.6332 11.3299 28.2606 11.8005 27.9471 12.4014L27.8006 11.2646C27.7679 11.036 27.7023 10.8789 27.6043 10.7939C27.5063 10.7025 27.333 10.6562 27.0848 10.6562H25.6639V20.7119H28.0848V14.5176C28.1958 14.2499 28.3133 14.0117 28.4373 13.8027C28.568 13.5937 28.7154 13.4172 28.8787 13.2734C29.0486 13.1232 29.2381 13.009 29.4471 12.9307C29.6561 12.8523 29.8942 12.8125 30.1619 12.8125C30.3448 12.8125 30.5311 12.8287 30.7205 12.8613C30.9165 12.894 31.0639 12.9102 31.1619 12.9102C31.2664 12.9101 31.3483 12.8875 31.407 12.8418C31.4722 12.7895 31.5209 12.7043 31.5535 12.5869L31.7108 10.7744C31.4299 10.5719 31.0573 10.4707 30.5936 10.4707ZM33.0545 10.6562V20.7119H35.4842V10.6562H33.0545ZM48.6053 10.5C48.2852 10.5 47.9645 10.5356 47.6443 10.6074C47.3309 10.6793 47.0336 10.7902 46.7527 10.9404C46.4718 11.0907 46.2135 11.2876 45.9783 11.5293C45.7433 11.7644 45.5472 12.0488 45.3904 12.3818C45.188 11.8136 44.881 11.3592 44.4695 11.0195C44.0645 10.6733 43.5447 10.5 42.9109 10.5C42.6105 10.5 42.3327 10.5356 42.0779 10.6074C41.8298 10.6727 41.5949 10.7643 41.3729 10.8818C41.1573 10.9994 40.9507 11.1404 40.7547 11.3037C40.5654 11.467 40.3822 11.6469 40.2059 11.8428L40.0496 11.0977C39.9517 10.8038 39.7458 10.6564 39.4324 10.6562H37.952V20.7119H40.3729V13.3516C40.6341 13.0511 40.9152 12.8163 41.2156 12.6465C41.5227 12.4701 41.8531 12.3818 42.2059 12.3818C42.7283 12.3819 43.1236 12.5348 43.3914 12.8418C43.6658 13.1489 43.8026 13.6396 43.8026 14.3125V20.7119H46.2332V14.3125C46.2332 13.999 46.2795 13.7212 46.3709 13.4795C46.4624 13.2378 46.5862 13.0377 46.743 12.8809C46.9063 12.7177 47.0926 12.5937 47.3016 12.5088C47.517 12.4239 47.7488 12.3819 47.9969 12.3818C48.5391 12.3818 48.9513 12.5445 49.2322 12.8711C49.5132 13.1912 49.6531 13.6722 49.6531 14.3125V20.7119H52.074V14.3125C52.074 13.705 51.9954 13.1657 51.8387 12.6953C51.6884 12.2249 51.4667 11.8257 51.1727 11.499C50.8787 11.1725 50.5158 10.9247 50.0848 10.7549C49.6537 10.5851 49.1604 10.5 48.6053 10.5ZM58.7068 12.2344C59.066 12.2344 59.3795 12.2968 59.6473 12.4209C59.9214 12.5384 60.1467 12.7013 60.3231 12.9102C60.4994 13.1192 60.6307 13.3646 60.7156 13.6455C60.8071 13.9198 60.8523 14.2138 60.8524 14.5273H56.2859C56.397 13.7957 56.6521 13.2305 57.0506 12.832C57.4556 12.4337 58.0079 12.2344 58.7068 12.2344ZM18.6697 8.5791C19.1597 8.5791 19.5848 8.63826 19.9442 8.75586C20.3033 8.86689 20.6006 9.02966 20.8358 9.24512C21.0709 9.46069 21.2475 9.72229 21.3651 10.0293C21.4827 10.3364 21.5418 10.6797 21.5418 11.0586C21.5418 11.4571 21.4826 11.8199 21.3651 12.1465C21.2474 12.4665 21.0677 12.7411 20.826 12.9697C20.5908 13.1918 20.2936 13.3652 19.9344 13.4893C19.5751 13.6068 19.1532 13.665 18.6697 13.665H16.7V8.5791H18.6697ZM34.2498 6.17773C34.0408 6.17773 33.8416 6.22077 33.6522 6.30566C33.4692 6.38406 33.3089 6.49171 33.1717 6.62891C33.0345 6.7661 32.9236 6.92969 32.8387 7.11914C32.7603 7.30855 32.7205 7.51104 32.7205 7.72656C32.7205 7.93558 32.7603 8.13156 32.8387 8.31445C32.9236 8.49734 33.0345 8.65775 33.1717 8.79492C33.3089 8.93205 33.4693 9.04303 33.6522 9.12793C33.8415 9.20625 34.0409 9.24512 34.2498 9.24512C34.4653 9.2451 34.6678 9.20629 34.8572 9.12793C35.0467 9.04301 35.2103 8.9321 35.3475 8.79492C35.4912 8.65773 35.6053 8.49737 35.6902 8.31445C35.7752 8.13156 35.8172 7.93558 35.8172 7.72656C35.8172 7.51106 35.7751 7.30853 35.6902 7.11914C35.6053 6.92974 35.4911 6.76608 35.3475 6.62891C35.2103 6.49172 35.0467 6.38406 34.8572 6.30566C34.6678 6.22075 34.4654 6.17775 34.2498 6.17773Z" fill="url(#paint0_linear_9445_2090)"/>
<defs>
<linearGradient id="paint0_linear_9445_2090" x1="3.14971" y1="-7.42482" x2="58.8436" y2="25.7584" gradientUnits="userSpaceOnUse">
<stop stop-color="#FDD664"/>
<stop offset="0.535" stop-color="#FFEFB2"/>
<stop offset="1" stop-color="#FED76A"/>
</linearGradient>
</defs>
</svg>
