<svg width="152" height="168" viewBox="0 0 152 168" fill="none" xmlns="http://www.w3.org/2000/svg">
<path d="M45.3275 75.4839C43.1761 72.2508 37.9918 71.2326 31.4299 69.9525C28.1584 69.3166 22.1074 68.1351 20.7841 66.9701C18.3604 62.4426 19.6509 53.2281 22.3029 50.5645C20.4095 50.1116 18.862 50.0582 18.0971 50.5948C15.1766 52.6553 13.6233 62.6029 16.1708 67.3652C17.494 68.5302 23.5451 69.7118 26.8166 70.3476C33.3785 71.6277 38.5627 72.6459 40.7141 75.879C41.566 77.1662 41.8696 78.7002 41.564 80.2059C40.1237 87.1961 34.4141 89.8484 33.765 90.1191C33.375 90.2881 32.9581 90.3888 32.5525 90.4379C32.5798 90.4272 32.5988 90.4355 32.6178 90.4438C32.6368 90.4521 32.6587 90.4277 32.6859 90.417C32.7132 90.4063 32.7322 90.4146 32.7512 90.4229C32.7702 90.4312 32.7921 90.4068 32.8194 90.3961C32.8466 90.3854 32.8656 90.3937 32.8846 90.402C32.9036 90.4102 32.9255 90.3859 32.9528 90.3752C32.9801 90.3645 32.999 90.3728 33.018 90.381C33.037 90.3893 33.0589 90.365 33.0862 90.3543C33.1135 90.3435 33.1325 90.3518 33.1515 90.3601C33.1705 90.3684 33.1924 90.3441 33.2196 90.3333C33.2469 90.3226 33.2659 90.3309 33.2849 90.3392C33.3039 90.3475 33.3258 90.3231 33.3531 90.3124C33.3803 90.3017 33.3993 90.31 33.4183 90.3183C33.4373 90.3266 33.4592 90.3022 33.4865 90.2915C33.5137 90.2808 33.5327 90.2891 33.5517 90.2974C33.5707 90.3056 33.5926 90.2813 33.6199 90.2706C33.6472 90.2599 33.6662 90.2682 33.6852 90.2764C33.7041 90.2847 33.7261 90.2604 33.7533 90.2497C33.7806 90.239 33.7996 90.2472 33.8186 90.2555C33.8376 90.2638 33.8595 90.2395 33.8867 90.2287C33.914 90.218 33.933 90.2263 33.952 90.2346C33.971 90.2429 33.9929 90.2185 34.0202 90.2078C34.0474 90.1971 34.0664 90.2054 34.0854 90.2137C34.1044 90.222 34.1263 90.1976 34.1536 90.1869C34.1809 90.1762 34.1999 90.1845 34.2188 90.1928C34.2378 90.201 34.2597 90.1767 34.287 90.166C34.3143 90.1553 34.3333 90.1636 34.3523 90.1718C34.3713 90.1801 34.3932 90.1558 34.4204 90.1451C34.4477 90.1343 34.4667 90.1426 34.4857 90.1509C34.5047 90.1592 34.5266 90.1349 34.5539 90.1241C34.5811 90.1134 34.6001 90.1217 34.6191 90.13C34.6381 90.1383 34.66 90.1139 34.6873 90.1032C34.7146 90.0925 34.7335 90.1008 34.7525 90.1091C34.7715 90.1174 34.7934 90.093 34.8207 90.0823C34.848 90.0716 34.867 90.0799 34.886 90.0882C34.9049 90.0964 34.9269 90.0721 34.9541 90.0614C34.9814 90.0507 35.0004 90.059 35.0194 90.0672C35.0384 90.0755 35.0603 90.0512 35.0875 90.0405C35.1148 90.0298 35.1338 90.038 35.1528 90.0463C35.1718 90.0546 35.1937 90.0302 35.221 90.0195C35.2482 90.0088 35.2672 90.0171 35.2862 90.0254C35.3052 90.0337 35.3271 90.0093 35.3544 89.9986C35.3817 89.9879 35.4007 89.9962 35.4196 90.0045C35.4386 90.0128 35.4605 89.9884 35.4878 89.9777C35.5151 89.967 35.5341 89.9753 35.5531 89.9836C35.5721 89.9918 35.594 89.9675 35.6212 89.9568C35.6485 89.9461 35.6675 89.9544 35.6865 89.9626C35.7055 89.9709 35.7274 89.9466 35.7547 89.9359C35.7819 89.9251 35.8009 89.9334 35.8199 89.9417C35.8389 89.95 35.8608 89.9256 35.8881 89.9149C35.9153 89.9042 35.9343 89.9125 35.9533 89.9208C35.9723 89.9291 35.9942 89.9047 36.0215 89.894C36.0488 89.8833 36.0678 89.8916 36.0868 89.8999C36.1057 89.9082 36.1277 89.8838 36.1549 89.8731C36.1822 89.8624 36.2012 89.8707 36.2202 89.879C36.2392 89.8872 36.2611 89.8629 36.2883 89.8522C36.3156 89.8415 36.3346 89.8498 36.3536 89.858C36.3726 89.8663 36.3945 89.842 36.4218 89.8313C36.449 89.8205 36.468 89.8288 36.487 89.8371C36.506 89.8454 36.5279 89.821 36.5552 89.8103C36.5825 89.7996 36.6015 89.8079 36.6204 89.8162C36.6394 89.8245 36.6613 89.8001 36.6886 89.7894C36.7159 89.7787 36.7349 89.787 36.7539 89.7953C36.7729 89.8036 36.7948 89.7792 36.822 89.7685C36.8493 89.7578 36.8683 89.7661 36.8873 89.7744C36.9063 89.7826 36.9282 89.7583 36.9555 89.7476C36.9827 89.7369 37.0017 89.7452 37.0207 89.7534C37.4453 89.7126 37.8758 89.6065 38.2931 89.4268C38.9368 89.1425 44.6328 86.4955 46.0921 79.5136C46.3977 78.0079 46.1077 76.4685 45.2422 75.1867L45.3275 75.4839Z" fill="#BA6101"/>
<path d="M23.3789 46.1863C23.0069 46.0805 22.6484 45.9694 22.2871 45.8909C22.6348 45.9747 23.0015 46.0669 23.3789 46.1863Z" fill="#F0A437"/>
<path d="M37.2885 53.3887C36.5524 54.5597 35.3161 55.2185 34.0345 55.2811C34.0345 55.2811 34.127 55.2762 34.1733 55.2738C34.2195 55.2714 34.2658 55.269 34.312 55.2665C34.3583 55.2641 34.4046 55.2617 34.4508 55.2593C34.4971 55.2568 34.5433 55.2544 34.5896 55.252C34.6359 55.2495 34.6821 55.2471 34.7284 55.2447C34.7746 55.2423 34.8209 55.2398 34.8672 55.2374C34.9134 55.235 34.9597 55.2326 35.0059 55.2301C35.0522 55.2277 35.0985 55.2253 35.1447 55.2229C35.191 55.2204 35.2372 55.218 35.2835 55.2156C35.3298 55.2131 35.376 55.2107 35.4223 55.2083C35.4685 55.2059 35.5148 55.2034 35.5611 55.201C35.6073 55.1986 35.6536 55.1962 35.6998 55.1937C35.7461 55.1913 35.7924 55.1889 35.8386 55.1865C35.8849 55.184 35.9312 55.1816 35.9774 55.1792C36.0237 55.1767 36.0699 55.1743 36.1162 55.1719C36.1624 55.1695 36.2087 55.1671 36.255 55.1646C36.3012 55.1622 36.3475 55.1598 36.3937 55.1573C36.44 55.1549 36.4863 55.1525 36.5325 55.1501C36.5788 55.1476 36.6251 55.1452 36.6713 55.1428C36.7176 55.1404 36.7638 55.1379 36.8101 55.1355C36.8563 55.1331 36.9026 55.1307 36.9489 55.1282C36.9951 55.1258 37.0414 55.1234 37.0876 55.1209C37.1339 55.1185 37.1802 55.1161 37.2264 55.1137C37.2727 55.1112 37.319 55.1088 37.3652 55.1064C37.4115 55.104 37.4577 55.1015 37.504 55.0991C37.5503 55.0967 37.5965 55.0943 37.6428 55.0918C37.689 55.0894 37.7353 55.087 37.7816 55.0846C37.8278 55.0821 37.8741 55.0797 37.9203 55.0773C37.9666 55.0748 38.0129 55.0724 38.0591 55.07C38.1054 55.0676 38.1516 55.0651 38.1979 55.0627C38.2442 55.0603 38.2904 55.0579 38.3367 55.0554C38.3829 55.053 38.4292 55.0506 38.4755 55.0482C38.5217 55.0457 38.568 55.0433 38.6142 55.0409C39.9392 55.0085 41.2354 54.3419 42.0071 53.1412C43.2237 51.2304 42.6623 48.6796 40.7464 47.4483C38.8116 46.2086 30.5633 41.2766 23.4655 41.7974C23.4246 41.8135 23.373 41.8022 23.3267 41.8047C23.2858 41.8207 23.2342 41.8095 23.188 41.8119C23.1471 41.828 23.0954 41.8168 23.0492 41.8192C23.0083 41.8353 22.9567 41.8241 22.9104 41.8265C22.8695 41.8426 22.8179 41.8314 22.7716 41.8338C22.7307 41.8498 22.6791 41.8386 22.6328 41.8411C22.5919 41.8571 22.5403 41.8459 22.494 41.8483C22.4531 41.8644 22.4015 41.8532 22.3553 41.8556C22.3144 41.8717 22.2627 41.8605 22.2165 41.8629C22.1756 41.879 22.124 41.8677 22.0777 41.8702C22.0368 41.8862 21.9852 41.875 21.9389 41.8775C21.898 41.8935 21.8464 41.8823 21.8001 41.8847C21.7592 41.9008 21.7076 41.8896 21.6614 41.892C21.6205 41.9081 21.5688 41.8969 21.5226 41.8993C21.4817 41.9154 21.4301 41.9041 21.3838 41.9066C21.3429 41.9226 21.2913 41.9114 21.245 41.9139C21.2041 41.9299 21.1525 41.9187 21.1062 41.9211C21.0653 41.9372 21.0137 41.926 20.9675 41.9284C20.9266 41.9445 20.8749 41.9333 20.8287 41.9357C20.7878 41.9518 20.7362 41.9405 20.6899 41.943C20.649 41.959 20.5974 41.9478 20.5511 41.9502C20.5102 41.9663 20.4586 41.9551 20.4123 41.9575C20.3714 41.9736 20.3198 41.9624 20.2736 41.9648C20.2327 41.9809 20.181 41.9697 20.1348 41.9721C20.0939 41.9882 20.0423 41.9769 19.996 41.9794C19.9551 41.9954 19.9035 41.9842 19.8572 41.9866C19.8163 42.0027 19.7647 41.9915 19.7184 41.9939C19.6775 42.01 19.6259 41.9988 19.5796 42.0012C19.5387 42.0173 19.4871 42.0061 19.4409 42.0085C19.4 42.0245 19.3483 42.0133 19.3021 42.0158C19.2612 42.0318 19.2096 42.0206 19.1633 42.023C19.1224 42.0391 19.0708 42.0279 19.0245 42.0303C18.9836 42.0464 18.932 42.0352 18.8857 42.0376C25.9504 41.5928 34.0984 46.4697 36.0279 47.6958C37.9384 48.9135 38.5134 51.4589 37.2885 53.3887Z" fill="#FEA301"/>
<path d="M41.5555 80.2258C41.8611 78.7201 41.5711 77.1807 40.7056 75.8989C38.5542 72.6658 33.37 71.6476 26.8081 70.3676C23.5366 69.7317 17.4855 68.5501 16.1623 67.3851C13.6148 62.6228 15.1681 52.6752 18.0886 50.6147C18.8671 50.0727 20.4147 50.1261 22.2944 50.5844C22.6421 50.6683 23.0088 50.7604 23.3862 50.8798C24.5077 51.2108 25.7047 51.6539 26.9012 52.1758C26.9392 52.1924 26.9582 52.2007 26.9962 52.2173C27.3381 52.3664 27.6663 52.5209 28.0135 52.6837C28.1085 52.7251 28.2088 52.7802 28.3038 52.8216C28.575 52.9512 28.8516 53.0945 29.1229 53.2241C29.2422 53.2875 29.3615 53.3508 29.4755 53.4005C29.7331 53.5355 29.996 53.6842 30.24 53.8245C30.3404 53.8796 30.4597 53.9429 30.56 53.998C30.9097 54.207 31.2593 54.4161 31.59 54.6169C31.8014 54.7543 32.0293 54.8537 32.2572 54.9531C32.3521 54.9945 32.4417 55.0223 32.5313 55.0501C32.6589 55.0945 32.8002 55.1335 32.936 55.1588C33.0583 55.1895 33.1751 55.2066 33.292 55.2237C33.3899 55.2325 33.4877 55.2413 33.5993 55.2447C33.7434 55.2511 33.8739 55.2628 34.0263 55.2501C35.308 55.1876 36.5443 54.5287 37.2804 53.3578C38.497 51.447 37.9356 48.8962 36.0197 47.6648C34.0902 46.4388 25.9369 41.5482 18.8776 42.0067C18.415 42.0309 17.9685 42.0961 17.5273 42.1749C17.4728 42.1964 17.4075 42.1905 17.3476 42.1983C16.9201 42.2718 16.5086 42.3861 16.1025 42.5142C16.0343 42.541 15.9662 42.5677 15.8844 42.5999C15.4783 42.7279 15.0882 42.8969 14.6846 43.0712C14.6301 43.0926 14.5619 43.1194 14.5127 43.1545C14.1061 43.3614 13.7103 43.5956 13.3251 43.8572C5.61551 49.3106 5.21807 64.7246 9.0563 71.5307C11.4304 75.7313 17.8184 76.9694 25.2199 78.4235C27.6191 78.8824 30.9612 79.5378 32.8697 80.1895C31.9457 81.8436 30.5215 82.5448 30.4806 82.5609C28.3941 83.4593 27.4274 85.886 28.3398 87.9682C29.0588 89.6383 30.7559 90.5934 32.4734 90.4384C32.487 90.433 32.5143 90.4223 32.5416 90.4116C32.9472 90.3625 33.3504 90.2671 33.754 90.0927C34.3978 89.8084 40.0937 87.1614 41.5531 80.1796L41.5555 80.2258Z" fill="#FFC700"/>
<path d="M116.103 50.2144C116.231 50.1798 116.372 50.1399 116.5 50.1053C116.364 50.1589 116.236 50.1934 116.103 50.2144Z" fill="#F0A437"/>
<path d="M120.996 47.6595C121.339 47.493 121.669 47.3318 122.005 47.1843C121.669 47.3318 121.326 47.4983 120.996 47.6595Z" fill="#F0A437"/>
<path d="M116.856 85.4598C116.856 85.4598 116.804 85.4484 116.79 85.4539C116.79 85.4539 116.842 85.4652 116.856 85.4598Z" fill="#FFD04C"/>
<path d="M120.708 47.7995C120.803 47.762 120.907 47.7055 120.997 47.6544C120.902 47.6919 120.798 47.7484 120.708 47.7995Z" fill="#FFD04C"/>
<path d="M118.458 49.0206C118.562 48.9641 118.665 48.9077 118.777 48.8322C118.674 48.8887 118.556 48.9505 118.458 49.0206Z" fill="#FFD04C"/>
<path d="M115.74 50.2686C115.86 50.253 115.98 50.2374 116.108 50.2029C115.993 50.2321 115.874 50.2476 115.74 50.2686Z" fill="#FFD04C"/>
<path d="M133.071 37.4967C133.071 37.4967 132.924 37.4441 132.854 37.4246C132.924 37.4441 133 37.4772 133.071 37.4967Z" fill="#F0A437"/>
<path d="M134.423 38.0555C134.423 38.0555 134.304 37.9921 134.247 37.9673C134.304 37.9921 134.361 38.017 134.423 38.0555Z" fill="#F0A437"/>
<path d="M131.588 37.1221C131.588 37.1221 131.472 37.105 131.406 37.0991C131.472 37.105 131.523 37.1162 131.588 37.1221Z" fill="#F0A437"/>
<path d="M122.103 47.1355C123.295 46.6043 124.486 46.152 125.609 45.8054C124.5 46.1466 123.295 46.6043 122.103 47.1355Z" fill="#F0A437"/>
<path d="M103.875 75.264C105.995 72.0064 111.172 70.9645 117.731 69.632C120.994 68.9643 127.043 67.7375 128.345 66.5647C130.731 62.0216 129.364 52.812 126.692 50.177C128.569 49.7073 130.134 49.6438 130.908 50.1739C133.85 52.2147 135.488 62.1526 132.976 66.9344C131.66 68.1125 125.624 69.334 122.361 70.0017C115.803 71.3342 110.631 72.3898 108.505 75.6337C107.66 76.9264 107.37 78.473 107.69 79.9691C109.204 86.9481 114.918 89.5535 115.558 89.8216C115.957 89.9955 116.37 90.0853 116.781 90.1287C116.767 90.1341 116.734 90.1311 116.715 90.1228C116.696 90.1146 116.664 90.1116 116.65 90.117C116.636 90.1223 116.604 90.1194 116.585 90.1111C116.566 90.1028 116.533 90.0999 116.52 90.1053C116.506 90.1106 116.473 90.1077 116.454 90.0994C116.435 90.0911 116.403 90.0882 116.389 90.0936C116.375 90.0989 116.343 90.096 116.324 90.0877C116.305 90.0794 116.272 90.0765 116.259 90.0818C116.245 90.0872 116.212 90.0843 116.193 90.076C116.174 90.0677 116.142 90.0648 116.128 90.0701C116.114 90.0755 116.082 90.0725 116.063 90.0643C116.044 90.056 116.011 90.053 115.998 90.0584C115.984 90.0638 115.951 90.0608 115.932 90.0525C115.913 90.0443 115.881 90.0413 115.867 90.0467C115.853 90.052 115.821 90.0491 115.802 90.0408C115.783 90.0325 115.75 90.0296 115.736 90.035C115.723 90.0403 115.69 90.0374 115.671 90.0291C115.652 90.0208 115.62 90.0179 115.606 90.0232C115.592 90.0286 115.56 90.0257 115.541 90.0174C115.522 90.0091 115.489 90.0062 115.475 90.0115C115.462 90.0169 115.429 90.014 115.41 90.0057C115.391 89.9974 115.359 89.9945 115.345 89.9998C115.331 90.0052 115.299 90.0022 115.28 89.994C115.261 89.9857 115.228 89.9827 115.214 89.9881C115.201 89.9934 115.168 89.9905 115.149 89.9822C115.13 89.974 115.098 89.971 115.084 89.9764C115.07 89.9817 115.038 89.9788 115.019 89.9705C115 89.9622 114.967 89.9593 114.953 89.9647C114.94 89.97 114.907 89.9671 114.888 89.9588C114.869 89.9505 114.837 89.9476 114.823 89.9529C114.809 89.9583 114.777 89.9554 114.758 89.9471C114.739 89.9388 114.706 89.9359 114.692 89.9412C114.679 89.9466 114.646 89.9436 114.627 89.9354C114.608 89.9271 114.576 89.9241 114.562 89.9295C114.548 89.9349 114.516 89.9319 114.497 89.9236C114.478 89.9154 114.445 89.9124 114.431 89.9178C114.418 89.9231 114.385 89.9202 114.366 89.9119C114.347 89.9036 114.315 89.9007 114.301 89.9061C114.287 89.9114 114.255 89.9085 114.236 89.9002C114.217 89.8919 114.184 89.889 114.17 89.8944C114.157 89.8997 114.124 89.8968 114.105 89.8885C114.086 89.8802 114.054 89.8773 114.04 89.8826C114.026 89.888 113.994 89.8851 113.975 89.8768C113.956 89.8685 113.923 89.8656 113.909 89.8709C113.896 89.8763 113.863 89.8733 113.844 89.8651C113.825 89.8568 113.793 89.8538 113.779 89.8592C113.765 89.8646 113.733 89.8616 113.714 89.8533C113.695 89.8451 113.662 89.8421 113.648 89.8475C113.635 89.8528 113.602 89.8499 113.583 89.8416C113.564 89.8333 113.532 89.8304 113.518 89.8358C113.504 89.8411 113.472 89.8382 113.453 89.8299C113.434 89.8216 113.401 89.8187 113.387 89.824C113.374 89.8294 113.341 89.8265 113.322 89.8182C113.303 89.8099 113.271 89.807 113.257 89.8123C113.243 89.8177 113.211 89.8148 113.192 89.8065C113.173 89.7982 113.14 89.7953 113.126 89.8006C113.113 89.806 113.08 89.803 113.061 89.7948C113.042 89.7865 113.01 89.7835 112.996 89.7889C112.982 89.7942 112.95 89.7913 112.931 89.783C112.912 89.7748 112.879 89.7718 112.865 89.7772C112.852 89.7825 112.819 89.7796 112.8 89.7713C112.781 89.763 112.748 89.7601 112.735 89.7655C112.721 89.7708 112.689 89.7679 112.67 89.7596C112.651 89.7513 112.618 89.7484 112.604 89.7537C112.591 89.7591 112.558 89.7562 112.539 89.7479C112.52 89.7396 112.487 89.7367 112.474 89.742C112.46 89.7474 112.428 89.7444 112.409 89.7362C111.984 89.6981 111.553 89.6001 111.121 89.4232C110.475 89.1415 104.748 86.5414 103.253 79.5707C102.933 78.0746 103.223 76.528 104.068 75.2353L103.875 75.264Z" fill="#BA6101"/>
<path d="M111.743 53.1119C112.495 54.2651 113.726 54.9152 115.01 54.9778C115.01 54.9778 114.912 54.969 114.879 54.9661C114.833 54.9685 114.781 54.9573 114.749 54.9543C114.703 54.9568 114.651 54.9456 114.618 54.9426C114.572 54.9451 114.52 54.9338 114.488 54.9309C114.442 54.9333 114.39 54.9221 114.357 54.9192C114.311 54.9216 114.259 54.9104 114.227 54.9075C114.181 54.9099 114.129 54.8987 114.096 54.8958C114.05 54.8982 113.998 54.887 113.966 54.884C113.919 54.8865 113.868 54.8752 113.835 54.8723C113.789 54.8747 113.737 54.8635 113.705 54.8606C113.658 54.863 113.607 54.8518 113.574 54.8489C113.528 54.8513 113.476 54.8401 113.444 54.8372C113.397 54.8396 113.346 54.8284 113.313 54.8255C113.267 54.8279 113.215 54.8167 113.183 54.8137C113.136 54.8162 113.085 54.8049 113.052 54.802C113.006 54.8044 112.954 54.7932 112.922 54.7903C112.875 54.7927 112.824 54.7815 112.791 54.7786C112.745 54.781 112.693 54.7698 112.661 54.7669C112.614 54.7693 112.563 54.7581 112.53 54.7551C112.484 54.7576 112.432 54.7464 112.4 54.7434C112.353 54.7459 112.302 54.7346 112.269 54.7317C112.223 54.7341 112.171 54.7229 112.139 54.72C112.092 54.7224 112.041 54.7112 112.008 54.7083C111.962 54.7107 111.91 54.6995 111.878 54.6966C111.831 54.699 111.78 54.6878 111.747 54.6848C111.701 54.6873 111.649 54.676 111.617 54.6731C111.57 54.6755 111.519 54.6643 111.486 54.6614C111.44 54.6638 111.388 54.6526 111.356 54.6497C111.309 54.6521 111.258 54.6409 111.225 54.638C111.179 54.6404 111.127 54.6292 111.095 54.6263C111.048 54.6287 110.997 54.6175 110.964 54.6145C110.918 54.617 110.866 54.6058 110.834 54.6028C110.787 54.6052 110.736 54.594 110.703 54.5911C109.376 54.5772 108.074 53.9076 107.306 52.7135C106.069 50.8061 106.612 48.2623 108.518 47.0254C110.451 45.7777 118.653 40.7765 125.748 41.2489C125.794 41.2465 125.846 41.2577 125.878 41.2607C125.925 41.2582 125.976 41.2694 126.009 41.2724C126.055 41.2699 126.107 41.2812 126.14 41.2841C126.186 41.2817 126.237 41.2929 126.27 41.2958C126.316 41.2934 126.368 41.3046 126.401 41.3075C126.447 41.3051 126.498 41.3163 126.531 41.3192C126.577 41.3168 126.629 41.328 126.662 41.331C126.708 41.3285 126.759 41.3397 126.792 41.3427C126.838 41.3402 126.89 41.3515 126.923 41.3544C126.969 41.352 127.02 41.3632 127.053 41.3661C127.099 41.3637 127.151 41.3749 127.184 41.3778C127.23 41.3754 127.281 41.3866 127.314 41.3895C127.36 41.3871 127.412 41.3983 127.445 41.4013C127.491 41.3988 127.542 41.4101 127.575 41.413C127.621 41.4106 127.673 41.4218 127.706 41.4247C127.752 41.4223 127.803 41.4335 127.836 41.4364C127.882 41.434 127.934 41.4452 127.967 41.4481C128.013 41.4457 128.064 41.4569 128.097 41.4599C128.143 41.4574 128.195 41.4686 128.228 41.4716C128.274 41.4691 128.325 41.4804 128.358 41.4833C128.404 41.4809 128.456 41.4921 128.489 41.495C128.535 41.4926 128.586 41.5038 128.619 41.5067C128.665 41.5043 128.717 41.5155 128.75 41.5184C128.796 41.516 128.848 41.5272 128.88 41.5302C128.926 41.5277 128.978 41.5389 129.011 41.5419C129.057 41.5395 129.109 41.5507 129.141 41.5536C129.187 41.5512 129.239 41.5624 129.272 41.5653C129.318 41.5629 129.37 41.5741 129.402 41.577C129.448 41.5746 129.5 41.5858 129.533 41.5887C129.579 41.5863 129.631 41.5975 129.663 41.6005C129.709 41.598 129.761 41.6092 129.794 41.6122C129.84 41.6098 129.892 41.621 129.924 41.6239C129.97 41.6215 130.022 41.6327 130.055 41.6356C122.992 41.245 114.875 46.1815 112.955 47.4238C111.049 48.6607 110.506 51.2045 111.743 53.1119Z" fill="#FEA301"/>
<path d="M131.417 37.0837C130.963 37.01 130.52 36.9636 130.068 36.9363C130.52 36.9636 130.982 37.0183 131.417 37.0837Z" fill="#FFD04C"/>
<path d="M135.615 38.7386C135.23 38.4803 134.837 38.2411 134.428 38.0398C134.837 38.2411 135.225 38.4667 135.615 38.7386Z" fill="#FFD04C"/>
<path d="M134.265 37.9728C133.88 37.7934 133.473 37.6384 133.071 37.4971C133.487 37.6331 133.875 37.7798 134.265 37.9728Z" fill="#FFD04C"/>
<path d="M107.699 79.977C107.379 78.481 107.668 76.9344 108.514 75.6417C110.634 72.3841 115.811 71.3422 122.37 70.0097C125.633 69.342 131.682 68.1151 132.984 66.9424C135.497 62.1606 133.859 52.2227 130.917 50.1819C130.137 49.6381 128.591 49.7099 126.7 50.185C126.357 50.2726 125.986 50.3709 125.621 50.4829C125.621 50.4829 125.621 50.4829 125.608 50.4882C124.498 50.8295 123.307 51.2818 122.101 51.8184C122.074 51.8291 122.033 51.8452 122.006 51.8559C121.67 52.0034 121.327 52.17 120.996 52.3311C120.901 52.3686 120.797 52.4251 120.707 52.4762C120.432 52.616 120.17 52.7504 119.894 52.8901C119.777 52.952 119.659 53.0138 119.542 53.0757C119.28 53.2101 119.023 53.3581 118.767 53.5062C118.663 53.5626 118.559 53.6191 118.447 53.6946C118.101 53.8938 117.746 54.112 117.418 54.3194C117.202 54.4514 116.981 54.5697 116.75 54.6608C116.654 54.6982 116.572 54.7304 116.477 54.7679C116.341 54.8214 116.213 54.856 116.079 54.8769C115.965 54.9061 115.845 54.9217 115.711 54.9426C115.605 54.9528 115.513 54.9577 115.407 54.9679C115.268 54.9752 115.129 54.9824 114.985 54.9761C113.701 54.9135 112.47 54.2634 111.718 53.1102C110.481 51.2028 111.024 48.659 112.93 47.4221C114.85 46.1798 122.962 41.2296 130.03 41.6339C130.481 41.6613 130.943 41.7159 131.378 41.7813C131.443 41.7872 131.495 41.7984 131.56 41.8042C131.982 41.8749 132.4 41.9783 132.81 42.1007C132.88 42.1202 132.956 42.1533 133.027 42.1728C133.442 42.3088 133.831 42.4555 134.221 42.6485C134.278 42.6733 134.335 42.6982 134.397 42.7367C134.807 42.938 135.195 43.1636 135.585 43.4355C143.333 48.816 143.868 64.2414 140.086 71.0806C137.762 75.3002 131.378 76.5957 123.97 78.0887C121.578 78.5715 118.242 79.2523 116.342 79.9042C117.273 81.5539 118.724 82.2435 118.743 82.2518C120.841 83.1441 121.817 85.5479 120.925 87.6458C120.216 89.3258 118.532 90.2866 116.808 90.145C116.794 90.1503 116.756 90.1338 116.743 90.1391C116.332 90.0957 115.919 90.006 115.52 89.832C114.875 89.5503 109.148 86.9502 107.653 79.9795L107.699 79.977Z" fill="#FFC700"/>
<path d="M106.066 162.069C106.254 155.696 101.998 139.886 101.998 139.886C99.5663 137.503 88.312 138.588 74.7835 138.643C61.2685 138.693 50.0333 137.688 47.6086 140.089L47.595 140.095C47.595 140.095 43.3634 155.443 43.6079 161.835L43.6731 167.537C43.6454 167.627 43.604 161.492 43.6035 161.571C43.6196 164.777 57.6058 155.925 74.8639 155.869C92.1167 155.8 106.088 165.005 106.072 161.8C106.067 161.707 106.016 168.086 105.997 167.999L106.066 162.069Z" fill="#FFC700"/>
<path d="M102.52 140.414C102.512 138.462 90.1096 136.927 74.8187 136.985C59.5277 137.042 47.1385 138.671 47.1466 140.623C47.1546 142.574 59.5569 144.11 74.8478 144.052C90.1387 143.994 102.528 142.365 102.52 140.414Z" fill="#FEA301"/>
<path d="M93.7475 138.881L93.7884 138.865C93.9042 134.993 91.2658 134.028 91.2658 134.028C89.7838 132.579 83.0751 132.572 74.8568 132.604C66.6385 132.636 59.9427 132.568 58.4704 134.028C58.4704 134.028 55.7153 135.13 55.8688 139.007L55.9097 138.99C55.9097 138.99 55.879 139.113 55.8732 139.178C55.8832 141.127 64.375 142.672 74.8566 142.633C85.3383 142.593 93.8165 140.979 93.8201 139.025C93.8123 138.965 93.7772 138.916 93.7694 138.856L93.7475 138.881Z" fill="#FFC700"/>
<path d="M91.6037 134.472C91.5987 133.259 84.0653 132.305 74.7775 132.34C65.4897 132.375 57.9645 133.386 57.9695 134.599C57.9745 135.811 65.5078 136.765 74.7956 136.73C84.0834 136.695 91.6087 135.684 91.6037 134.472Z" fill="#FEA301"/>
<path d="M84.8028 134.018C84.8028 134.018 79.0872 115.982 80.3736 106.077L75.9122 106.097L74.688 106.106L70.2265 106.126C71.5978 116.027 66.0293 134.102 66.0293 134.102C66.0275 135.3 70.1322 136.254 75.2409 136.278C75.2409 136.278 75.3524 136.282 75.4123 136.274C75.4722 136.266 75.5238 136.277 75.5837 136.27C80.6874 136.201 84.7874 135.221 84.7756 134.029L84.8028 134.018Z" fill="#FEA301"/>
<path d="M85.3631 101.364C85.3561 100.264 80.56 99.3927 74.6323 99.4067C68.7099 99.4342 63.9194 100.34 63.9264 101.439C63.934 103.342 67.5888 104.472 68.3192 104.689C69.0152 105.219 71.5917 105.608 74.6712 105.595C77.7507 105.582 80.313 105.174 81.018 104.645C81.7348 104.427 85.3843 103.261 85.3767 101.358L85.3631 101.364Z" fill="#FFC700"/>
<path d="M112.456 37.6272L110.982 37.4817L74.3957 40.2964L37.7871 37.7661L36.3063 37.9227C36.3063 37.9227 34.0768 81.5646 56.3203 97.044C60.5506 101.082 62.7736 104.618 62.7736 104.618C62.7826 105.843 65.0131 109.321 71.5855 109.306C78.1579 109.291 85.1865 108.794 86.5662 104.53C86.5662 104.53 86.5555 104.503 86.5501 104.489C86.6738 104.283 88.8241 100.903 92.8521 96.9749C115.07 81.3816 112.461 37.6408 112.461 37.6408L112.456 37.6272Z" fill="#FFC700"/>
<path d="M116.199 39.3054C116.721 41.9975 98.0184 44.3057 74.3972 44.3891C50.776 44.4725 32.0513 42.3176 32.5491 39.6184L34.941 26.8378L113.688 26.5453L116.199 39.3054Z" fill="#FEA301"/>
<path d="M74.1296 22.8095C52.0767 22.8752 34.2098 24.8482 34.2266 27.2007C34.2268 28.1957 37.4525 29.1036 42.8094 29.8169C50.1229 30.7891 61.442 31.3996 74.1733 31.3615C86.9045 31.3235 98.2175 30.6563 105.517 29.6426C110.869 28.9002 114.082 27.9756 114.076 26.9704C114.068 24.6036 96.1824 22.7439 74.1296 22.8095Z" fill="#FFEF9F"/>
<path d="M74.3044 22.8092C56.9871 22.8523 42.8792 24.173 42.7836 25.7438C42.7478 26.4057 45.2428 27.0159 49.4287 27.4917C55.1406 28.1424 64.0058 28.5427 74.0012 28.5095C83.9965 28.4763 92.9073 28.029 98.6908 27.3559C102.918 26.8594 105.486 26.2368 105.522 25.5749C105.598 23.9981 91.6354 22.7621 74.3044 22.8092Z" fill="#BA6101"/>
<path d="M68.1071 143.823C68.2518 143.75 68.3964 143.678 68.5463 143.619L67.8783 143.881C65.0443 144.68 62.0036 143.229 60.8452 140.44L60.8043 140.456C61.949 143.25 60.7984 146.411 58.2352 147.858L57.5672 148.121C57.7172 148.062 57.8725 148.017 58.0278 147.971C57.8832 148.044 57.7386 148.116 57.5886 148.175L58.2567 147.913C61.0906 147.115 64.1314 148.565 65.2898 151.354L65.3307 151.338C64.1859 148.544 65.3366 145.384 67.8997 143.936L68.5678 143.673C68.4178 143.732 68.2625 143.778 68.1071 143.823Z" fill="white"/>
<path d="M71.9109 56.725L76.2247 60.6328C77.0163 61.3529 78.1023 61.6266 79.1451 61.392L84.8405 60.0496C87.4545 59.4312 89.6463 62.0717 88.5313 64.5134L86.1151 69.82C85.6745 70.7906 85.743 71.9114 86.2965 72.8223L89.3105 77.8049C90.7009 80.0988 88.842 82.9883 86.1645 82.6979L80.34 82.068C79.2798 81.9592 78.2287 82.3721 77.5259 83.1734L73.6875 87.5992C71.9236 89.6344 68.595 88.7826 68.0523 86.1557L66.8692 80.4539C66.6547 79.4099 65.9421 78.5421 64.9586 78.1309L59.5767 75.8876C57.0979 74.8577 56.9064 71.4314 59.2425 70.1052L64.3288 67.2123C65.259 66.6912 65.8617 65.7347 65.9516 64.6684L66.4523 58.8693C66.6737 56.1951 69.8777 54.9365 71.877 56.7383L71.9109 56.725Z" fill="#FFF9A7"/>
</svg>
