<svg width="16" height="16" viewBox="0 0 16 16" fill="none" xmlns="http://www.w3.org/2000/svg">
<path d="M13.9023 3.431L10.569 0.0976562C10.5065 0.0351562 10.4219 0 10.3333 0H3.33331C2.59797 0 2 0.597969 2 1.33334V14.6667C2 15.402 2.59797 16 3.33334 16H12.6667C13.402 16 14 15.402 14 14.6667V3.66666C14 3.57812 13.9648 3.4935 13.9023 3.431ZM10.6667 1.13803L12.862 3.33334H11.3333C10.9658 3.33334 10.6667 3.03419 10.6667 2.66669V1.13803ZM13.3333 14.6667C13.3333 15.0342 13.0342 15.3333 12.6667 15.3333H3.33334C2.96584 15.3333 2.66669 15.0342 2.66669 14.6667V1.33334C2.66669 0.965844 2.96584 0.666687 3.33334 0.666687H10V2.66669C10 3.40203 10.598 4 11.3333 4H13.3333V14.6667Z" fill="#202126"/>
<path d="M9.69953 9.78547C9.39094 9.54263 9.09766 9.29297 8.90234 9.09766C8.64844 8.84375 8.42219 8.59766 8.22559 8.36328C8.53225 7.41569 8.66669 6.92709 8.66669 6.66666C8.66669 5.56022 8.26694 5.33331 7.66669 5.33331C7.21062 5.33331 6.66669 5.57028 6.66669 6.69856C6.66669 7.19597 6.93916 7.79981 7.47919 8.50163C7.34703 8.90494 7.19175 9.37013 7.01728 9.89453C6.93328 10.1462 6.84216 10.3792 6.74578 10.5947C6.66734 10.6296 6.59116 10.665 6.51759 10.7018C6.25262 10.8343 6.001 10.9534 5.76759 11.0641C4.70313 11.568 4 11.9014 4 12.5596C4 13.0374 4.51922 13.3333 5 13.3333C5.61978 13.3333 6.55566 12.5055 7.23925 11.111C7.94888 10.831 8.83106 10.6237 9.52734 10.4938C10.0853 10.9228 10.7015 11.3333 11 11.3333C11.8265 11.3333 12 10.8554 12 10.4547C12 9.66663 11.0996 9.66663 10.6667 9.66663C10.5322 9.66666 10.1716 9.70638 9.69953 9.78547ZM5 12.6667C4.80956 12.6667 4.68066 12.5768 4.66666 12.5596C4.66666 12.3232 5.37141 11.9893 6.05306 11.6663C6.09634 11.6458 6.14031 11.6253 6.18491 11.6042C5.68425 12.3301 5.18913 12.6667 5 12.6667ZM7.33334 6.69856C7.33334 6 7.55016 6 7.66669 6C7.90237 6 8.00003 6 8.00003 6.66666C8.00003 6.80728 7.90628 7.15884 7.73472 7.70769C7.47297 7.30469 7.33334 6.95931 7.33334 6.69856ZM7.58887 10.2813C7.60972 10.2233 7.62991 10.1647 7.64944 10.1055C7.77312 9.73438 7.88447 9.40103 7.98375 9.10091C8.12209 9.25325 8.27119 9.40919 8.43103 9.569C8.49353 9.6315 8.64847 9.77213 8.85487 9.94822C8.444 10.0378 8.00684 10.1488 7.58887 10.2813ZM11.3333 10.4548C11.3333 10.6045 11.3333 10.6667 11.0241 10.6686C10.9333 10.6491 10.7233 10.5254 10.4642 10.349C10.5582 10.3386 10.6276 10.3333 10.6667 10.3333C11.1592 10.3333 11.2988 10.3815 11.3333 10.4548Z" fill="#FC3A52"/>
</svg>
