<svg width="16" height="16" viewBox="0 0 16 16" fill="none" xmlns="http://www.w3.org/2000/svg">
<path d="M13.9023 3.431L10.569 0.0976562C10.5065 0.0351562 10.4219 0 10.3333 0H3.33331C2.59797 0 2 0.597969 2 1.33334V14.6667C2 15.402 2.59797 16 3.33334 16H12.6667C13.402 16 14 15.402 14 14.6667V3.66666C14 3.57812 13.9648 3.4935 13.9023 3.431ZM10.6667 1.13803L12.862 3.33334H11.3333C10.9658 3.33334 10.6667 3.03419 10.6667 2.66669V1.13803ZM13.3333 14.6667C13.3333 15.0342 13.0342 15.3333 12.6667 15.3333H3.33334C2.96584 15.3333 2.66669 15.0342 2.66669 14.6667V1.33334C2.66669 0.965844 2.96584 0.666687 3.33334 0.666687H10V2.66669C10 3.40203 10.598 4 11.3333 4H13.3333V14.6667Z" fill="white"/>
<path d="M9.69953 9.78516C9.39094 9.54232 9.09766 9.29266 8.90234 9.09735C8.64844 8.84345 8.42219 8.59735 8.22559 8.36298C8.53225 7.41538 8.66669 6.92679 8.66669 6.66635C8.66669 5.55991 8.26694 5.33301 7.66669 5.33301C7.21062 5.33301 6.66669 5.56998 6.66669 6.69826C6.66669 7.19566 6.93916 7.79951 7.47919 8.50132C7.34703 8.90463 7.19175 9.36982 7.01728 9.89423C6.93328 10.1459 6.84216 10.3789 6.74578 10.5944C6.66734 10.6293 6.59116 10.6647 6.51759 10.7015C6.25262 10.834 6.001 10.9531 5.76759 11.0638C4.70313 11.5677 4 11.9011 4 12.5593C4 13.0371 4.51922 13.333 5 13.333C5.61978 13.333 6.55566 12.5052 7.23925 11.1107C7.94888 10.8307 8.83106 10.6234 9.52734 10.4935C10.0853 10.9225 10.7015 11.333 11 11.333C11.8265 11.333 12 10.8551 12 10.4544C12 9.66632 11.0996 9.66632 10.6667 9.66632C10.5322 9.66635 10.1716 9.70607 9.69953 9.78516ZM5 12.6664C4.80956 12.6664 4.68066 12.5765 4.66666 12.5593C4.66666 12.3229 5.37141 11.9889 6.05306 11.666C6.09634 11.6455 6.14031 11.625 6.18491 11.6039C5.68425 12.3298 5.18913 12.6664 5 12.6664ZM7.33334 6.69826C7.33334 5.9997 7.55016 5.9997 7.66669 5.9997C7.90237 5.9997 8.00003 5.9997 8.00003 6.66635C8.00003 6.80698 7.90628 7.15854 7.73472 7.70738C7.47297 7.30438 7.33334 6.95901 7.33334 6.69826ZM7.58887 10.2809C7.60972 10.223 7.62991 10.1644 7.64944 10.1052C7.77312 9.73407 7.88447 9.40073 7.98375 9.1006C8.12209 9.25295 8.27119 9.40888 8.43103 9.5687C8.49353 9.6312 8.64847 9.77182 8.85487 9.94791C8.444 10.0374 8.00684 10.1484 7.58887 10.2809ZM11.3333 10.4544C11.3333 10.6042 11.3333 10.6664 11.0241 10.6683C10.9333 10.6488 10.7233 10.5251 10.4642 10.3487C10.5582 10.3383 10.6276 10.333 10.6667 10.333C11.1592 10.333 11.2988 10.3812 11.3333 10.4544Z" fill="#FFB3B5"/>
</svg>
