<svg width="16" height="16" viewBox="0 0 16 16" fill="none" xmlns="http://www.w3.org/2000/svg">
<path d="M3.33333 14.6667C2.93333 14.6667 2.66667 14.4 2.66667 14V8.66667C2.66667 8.26667 2.93333 8 3.33333 8C3.73333 8 4 8.26667 4 8.66667V14C4 14.4 3.73333 14.6667 3.33333 14.6667Z" fill="#202126"/>
<path d="M8 14.6667C7.6 14.6667 7.33333 14.4 7.33333 14V2C7.33333 1.6 7.6 1.33333 8 1.33333C8.4 1.33333 8.66667 1.6 8.66667 2V14C8.66667 14.4 8.4 14.6667 8 14.6667Z" fill="#FC3A52"/>
<path d="M12.6667 14.6667C12.2667 14.6667 12 14.4 12 14V6.33333C12 5.93333 12.2667 5.66667 12.6667 5.66667C13.0667 5.66667 13.3333 5.93333 13.3333 6.33333V14C13.3333 14.4 13.0667 14.6667 12.6667 14.6667Z" fill="#202126"/>
</svg>
