<svg width="328" height="50" viewBox="0 0 328 50" fill="none" xmlns="http://www.w3.org/2000/svg">
    <g clip-path="url(#clip0_19456_7964)">
        <rect width="328" height="50" rx="12" fill="url(#paint0_linear_19456_7964)"/>
        <path d="M42.6529 43.9107C26.8875 38.2316 9.84481 34.0746 -5.63405 28.0809C-8.1304 27.1143 -10.5953 26.0875 -13 25V80H84.9371C85.3536 75.817 83.667 71.5637 80.9193 67.7289C73.3748 57.1996 58.4183 49.5897 42.6529 43.9107Z" fill="url(#paint1_linear_19456_7964)" fill-opacity="0.5"/>
        <path d="M330.755 15.5218C324.091 16.9336 317.59 19.6931 312.908 24.3101C308.378 28.777 305.858 34.6203 302.736 40.0249C295.827 51.9835 285.466 62.2997 272.757 69.0273C271.534 69.6751 270.259 70.3222 269 71H333.937V15C332.875 15.1302 331.814 15.2977 330.755 15.5218Z" fill="url(#paint2_linear_19456_7964)"/>
        <path d="M199.356 14.9188C200.766 14.566 201.593 13.1806 201.205 11.8246C200.815 10.4686 199.358 9.65526 197.948 10.0082C196.537 10.361 195.709 11.7464 196.099 13.1024C196.487 14.4585 197.946 15.2717 199.356 14.9188Z" fill="#E88102"/>
        <path d="M199.282 14.6581C200.678 14.309 201.51 12.9845 201.142 11.7002C200.773 10.4158 199.343 9.65766 197.947 10.0069C196.552 10.3562 195.72 11.6805 196.088 12.9649C196.457 14.2492 197.887 15.0074 199.282 14.6581Z" fill="#FDD835"/>
        <path opacity="0.5" d="M199.011 9.94317L196.563 13.8357C196.384 13.6286 196.242 13.391 196.144 13.1286L198.133 9.96239C198.43 9.90978 198.725 9.90468 199.011 9.94317Z" fill="white"/>
        <path opacity="0.5" d="M200.489 10.6392L197.956 14.6681C197.71 14.6106 197.476 14.52 197.26 14.4004L199.89 10.2188C200.109 10.3303 200.312 10.4719 200.489 10.6392Z" fill="white"/>
        <path opacity="0.5" d="M199.761 10.1567L197.139 14.3283C197.066 14.2826 196.996 14.2336 196.928 14.1817L199.518 10.0625C199.6 10.0901 199.682 10.122 199.761 10.1567Z" fill="white"/>
        <path opacity="0.5" d="M200.895 11.1427L198.63 14.7459C198.532 14.7471 198.433 14.7429 198.336 14.7344L200.737 10.9141C200.794 10.9873 200.847 11.0634 200.895 11.1427Z" fill="white"/>
        <path opacity="0.5" d="M201.134 11.6967C201.138 11.713 201.143 11.7283 201.146 11.7448C200.757 10.492 199.348 9.75809 197.971 10.1024C196.595 10.4467 195.767 11.7401 196.102 13.0064C196.097 12.9901 196.092 12.9751 196.087 12.9589C195.719 11.6773 196.55 10.3552 197.944 10.0067C199.337 9.65823 200.766 10.4151 201.134 11.6967Z" fill="white"/>
        <path opacity="0.5" d="M200.696 11.9216C200.985 12.9276 200.332 13.9655 199.239 14.2389C198.626 14.3925 198.003 14.2719 197.523 13.9592C197.988 14.2284 198.569 14.3244 199.144 14.1805C200.237 13.907 200.89 12.8691 200.601 11.8632C200.474 11.4221 200.189 11.061 199.815 10.8164C200.235 11.0599 200.559 11.4441 200.696 11.9216Z" fill="white"/>
        <path d="M199.145 14.1796C200.238 13.906 200.89 12.8683 200.602 11.862C200.312 10.8558 199.193 10.2617 198.099 10.5354C197.006 10.809 196.353 11.8466 196.642 12.8529C196.931 13.8592 198.051 14.4532 199.145 14.1796Z" fill="#F39E09"/>
        <path d="M199.781 10.7888C199.355 10.6005 198.856 10.5474 198.362 10.671C197.269 10.9446 196.617 11.9826 196.905 12.9885C197.036 13.4431 197.335 13.8132 197.726 14.0577C197.209 13.8284 196.8 13.4012 196.642 12.8489C196.353 11.8429 197.006 10.8049 198.099 10.5314C198.698 10.3815 199.306 10.4924 199.781 10.7888Z" fill="#E88102"/>
        <path d="M199.283 11.0307L199.242 10.8867L199.101 11.0761L197.463 11.4858L197.436 11.8548L197.477 11.9987L197.998 11.8686C198.164 11.8322 198.292 11.8631 198.381 11.9621L197.632 12.1493L197.593 12.4073L197.634 12.5512L198.504 12.3338C198.494 12.5028 198.398 12.6123 198.214 12.6613L197.758 12.7755L197.858 13.1187L199.027 13.8729L199.754 13.6912L199.712 13.5472L199.575 13.5507L198.707 12.9745C198.889 12.8693 199.019 12.7513 199.096 12.6197C199.174 12.4882 199.204 12.3367 199.187 12.1639L199.472 12.0928L199.47 11.6908L199.429 11.5469L199.32 11.7284L199.083 11.7876C199.037 11.6871 198.973 11.6012 198.891 11.532L199.284 11.434L199.283 11.0307Z" fill="#DB6704"/>
        <path d="M199.244 11.2853L198.851 11.3834C198.932 11.4528 198.996 11.5385 199.043 11.6389L199.43 11.5422L199.431 11.9442L199.147 12.0153C199.164 12.188 199.135 12.3393 199.056 12.4711C198.979 12.6026 198.849 12.7206 198.666 12.8258L199.706 13.5164L199.714 13.5433L198.987 13.725L197.82 12.9716L197.719 12.6284L198.176 12.5143C198.359 12.4643 198.455 12.3558 198.465 12.1858L197.596 12.4032L197.594 12.0013L198.342 11.8141C198.254 11.7158 198.125 11.6843 197.959 11.7206L197.439 11.8507L197.425 11.3378L199.244 10.8828L199.244 11.2853Z" fill="#FDD835"/>
        <path opacity="0.5" d="M197.594 11.9982L197.743 11.9609L197.594 12.1963L197.594 11.9982Z" fill="white"/>
        <path opacity="0.5" d="M198.264 11.125L197.88 11.7363L197.436 11.8474L197.422 11.3359L198.264 11.125Z" fill="white"/>
        <path opacity="0.5" d="M199.237 11.289L199.207 11.2966L199.237 11.25V11.289Z" fill="white"/>
        <path opacity="0.5" d="M199.429 11.5469L199.429 11.9485L199.145 12.0198C199.164 12.1921 199.133 12.3436 199.055 12.4752C198.977 12.6067 198.847 12.7247 198.665 12.8298L198.982 13.0394L198.676 13.5274L198.06 13.1304L199.021 11.6017C199.028 11.6153 199.035 11.6289 199.042 11.6427L199.429 11.5469Z" fill="white"/>
        <path opacity="0.5" d="M198.177 12.5159C198.234 12.5008 198.282 12.4795 198.322 12.4531L197.945 13.0518L197.822 12.9727L197.781 12.832L197.942 12.5747L198.177 12.5159Z" fill="white"/>
        <path opacity="0.5" d="M199.238 10.8867L199.238 10.9853L199.012 11.3449L198.847 11.3861C198.879 11.4123 198.907 11.4411 198.933 11.4726L198.456 12.2298C198.459 12.2169 198.46 12.2022 198.46 12.1887L198.127 12.2722L198.952 10.9582L199.238 10.8867Z" fill="white"/>
        <path opacity="0.5" d="M199.493 13.3802L199.327 13.6456L198.988 13.7303L198.977 13.7221L199.281 13.2383L199.493 13.3802Z" fill="white"/>
        <path opacity="0.25" d="M199.984 10.9354C198.822 11.6704 198.053 12.838 197.88 14.1198C197.829 14.1011 197.777 14.0811 197.725 14.0579C197.335 13.8134 197.035 13.4433 196.905 12.9897C196.617 11.9837 197.269 10.9457 198.362 10.6722C198.856 10.5486 199.354 10.6016 199.779 10.7903C199.851 10.835 199.919 10.8838 199.984 10.9354Z" fill="white"/>
        <g opacity="0.8">
            <path d="M139.668 14.3927C141.136 15.0388 142.901 14.4139 143.61 12.9973C144.319 11.5807 143.704 9.90855 142.235 9.26257C140.768 8.6166 139.004 9.24144 138.295 10.6581C137.585 12.0747 138.201 13.7468 139.668 14.3927Z" fill="#E88102"/>
            <path d="M139.804 14.1216C141.257 14.7609 142.979 14.1915 143.65 12.8496C144.322 11.5077 143.689 9.90178 142.237 9.2623C140.784 8.62303 139.061 9.19239 138.39 10.5342C137.718 11.8761 138.352 13.4822 139.804 14.1216Z" fill="#FDD835"/>
            <path opacity="0.5" d="M143.19 9.92839L138.126 11.6018C138.134 11.3053 138.195 11.0068 138.313 10.7176L142.429 9.35547C142.72 9.50962 142.976 9.70371 143.19 9.92839Z" fill="white"/>
            <path opacity="0.5" d="M143.909 11.5109L138.67 13.2435C138.504 13.029 138.375 12.7948 138.284 12.5478L143.721 10.75C143.822 10.9926 143.886 11.2491 143.909 11.5109Z" fill="white"/>
            <path opacity="0.5" d="M143.661 10.6111L138.237 12.4051C138.211 12.3177 138.187 12.2282 138.17 12.1387L143.527 10.3672C143.576 10.4462 143.621 10.5285 143.661 10.6111Z" fill="white"/>
            <path opacity="0.5" d="M143.868 12.2073L139.183 13.757C139.097 13.6914 139.017 13.6218 138.941 13.5492L143.908 11.9062C143.901 12.0067 143.888 12.1072 143.868 12.2073Z" fill="white"/>
            <path opacity="0.5" d="M143.651 12.845C143.643 12.8619 143.636 12.8779 143.626 12.8944C144.257 11.5651 143.622 9.99278 142.189 9.36184C140.755 8.7311 139.06 9.27831 138.373 10.583C138.381 10.566 138.387 10.5494 138.396 10.5325C139.067 9.19244 140.788 8.62349 142.239 9.26185C143.69 9.9002 144.323 11.5049 143.651 12.845Z" fill="white"/>
            <path opacity="0.5" d="M143.102 12.7404C142.577 13.7915 141.227 14.2378 140.09 13.7371C139.45 13.4559 139.014 12.9348 138.847 12.3466C139.034 12.8879 139.455 13.3601 140.053 13.6236C141.191 14.1243 142.54 13.6779 143.067 12.6269C143.297 12.1661 143.331 11.6665 143.202 11.207C143.371 11.6961 143.352 12.2416 143.102 12.7404Z" fill="white"/>
            <path d="M140.056 13.6222C141.194 14.1231 142.543 13.677 143.069 12.6256C143.595 11.5742 143.099 10.3159 141.96 9.81493C140.822 9.31396 139.473 9.76016 138.947 10.8116C138.422 11.8629 138.918 13.1212 140.056 13.6222Z" fill="#F39E09"/>
            <path d="M143.192 11.1634C142.975 10.7168 142.593 10.3369 142.078 10.1107C140.94 9.60993 139.591 10.0562 139.065 11.1073C138.827 11.5822 138.798 12.0986 138.942 12.5692C138.679 12.0267 138.659 11.3885 138.948 10.8114C139.474 9.76032 140.824 9.31402 141.961 9.81479C142.585 10.0894 143.017 10.5922 143.192 11.1634Z" fill="#E88102"/>
            <path d="M142.588 11.0327L142.662 10.8823L142.399 10.9496L140.693 10.1992L140.387 10.4952L140.313 10.6456L140.854 10.8839C141.023 10.9644 141.107 11.0762 141.107 11.2208L140.328 10.8778L140.097 11.0707L140.021 11.2211L140.927 11.6194C140.789 11.757 140.623 11.7859 140.43 11.7043L139.954 11.4951L139.776 11.855L140.191 13.2816L140.947 13.6145L141.023 13.4642L140.904 13.3748L140.607 12.3014C140.843 12.334 141.044 12.3211 141.211 12.261C141.378 12.201 141.519 12.092 141.637 11.9335L141.933 12.0639L142.24 11.7206L142.316 11.5702L142.084 11.6519L141.837 11.5435C141.875 11.4266 141.887 11.3106 141.87 11.1971L142.278 11.3768L142.588 11.0327Z" fill="#DB6704"/>
            <path d="M142.355 11.2226L141.947 11.043C141.963 11.156 141.952 11.2725 141.914 11.3893L142.317 11.5666L142.01 11.9098L141.714 11.7794C141.596 11.9381 141.456 12.0473 141.288 12.107C141.122 12.167 140.92 12.18 140.684 12.1473L141.038 13.4334L141.024 13.4614L140.268 13.1285L139.854 11.7035L140.031 11.3437L140.506 11.5528C140.701 11.6334 140.866 11.6057 141.004 11.4671L140.099 11.0687L140.405 10.7255L141.185 11.0684C141.185 10.9254 141.1 10.812 140.932 10.7316L140.389 10.4933L140.771 10.0469L142.664 10.8803L142.355 11.2226Z" fill="#FDD835"/>
            <path opacity="0.5" d="M140.408 10.7266L140.562 10.7948L140.257 10.8959L140.408 10.7266Z" fill="white"/>
            <path opacity="0.5" d="M141.651 10.4331L140.855 10.6962L140.392 10.4926L140.773 10.0469L141.651 10.4331Z" fill="white"/>
            <path opacity="0.5" d="M142.355 11.2207L142.323 11.2069L142.385 11.1875L142.355 11.2207Z" fill="white"/>
            <path opacity="0.5" d="M142.315 11.5669L142.008 11.9099L141.712 11.7796C141.595 11.9387 141.453 12.0474 141.286 12.1069C141.119 12.167 140.918 12.1801 140.683 12.1475L140.792 12.5389L140.157 12.7488L139.938 11.9973L141.926 11.3398C141.922 11.3563 141.917 11.3728 141.913 11.3888L142.315 11.5669Z" fill="white"/>
            <path opacity="0.5" d="M140.507 11.5533C140.566 11.5781 140.624 11.5925 140.678 11.5965L139.899 11.8539L139.855 11.7038L139.927 11.5561L140.262 11.4453L140.507 11.5533Z" fill="white"/>
            <path opacity="0.5" d="M142.662 10.8809L142.586 10.9651L142.119 11.1198L141.948 11.0444C141.954 11.0874 141.956 11.1311 141.954 11.1753L140.969 11.5009C140.98 11.4913 140.992 11.4797 141.003 11.4685L140.657 11.3158L142.364 10.75L142.662 10.8809Z" fill="white"/>
            <path opacity="0.5" d="M140.96 13.17L140.616 13.2849L140.263 13.1297L140.26 13.1144L140.889 12.9062L140.96 13.17Z" fill="white"/>
            <path opacity="0.25" d="M143.253 11.4248C141.703 11.2705 140.155 11.7498 139.026 12.726C138.997 12.6749 138.967 12.6233 138.942 12.5692C138.798 12.0985 138.827 11.5821 139.065 11.1083C139.59 10.0572 140.94 9.61094 142.078 10.1116C142.591 10.3379 142.975 10.7178 143.191 11.1638C143.218 11.2502 143.237 11.3372 143.253 11.4248Z" fill="white"/>
        </g>
        <g opacity="0.8">
            <path d="M109.307 43.8931C110.58 44.443 112.142 43.8484 112.797 42.565C113.451 41.2817 112.95 39.7955 111.677 39.2457C110.404 38.6958 108.842 39.2904 108.187 40.5737C107.533 41.8571 108.034 43.3432 109.307 43.8931Z" fill="#E88102"/>
            <path d="M109.429 43.6524C110.69 44.1969 112.215 43.6524 112.835 42.4361C113.455 41.2198 112.936 39.7923 111.676 39.2477C110.415 38.7032 108.89 39.2477 108.27 40.464C107.65 41.6803 108.169 43.1078 109.429 43.6524Z" fill="#FDD835"/>
            <path opacity="0.5" d="M112.469 39.8194L107.987 41.4196C107.999 41.1536 108.06 40.8848 108.17 40.6233L111.815 39.3207C112.068 39.4532 112.287 39.6222 112.469 39.8194Z" fill="white"/>
            <path opacity="0.5" d="M113.099 41.225L108.46 42.8818C108.32 42.6927 108.212 42.4854 108.137 42.2656L112.952 40.5465C113.035 40.762 113.085 40.9907 113.099 41.225Z" fill="white"/>
            <path opacity="0.5" d="M112.888 40.425L108.085 42.1405C108.064 42.0626 108.046 41.9829 108.033 41.9029L112.775 40.209C112.817 40.2789 112.854 40.3516 112.888 40.425Z" fill="white"/>
            <path opacity="0.5" d="M113.069 41.8528L108.92 43.3346C108.847 43.2775 108.778 43.2167 108.713 43.1531L113.111 41.582C113.102 41.6722 113.088 41.7626 113.069 41.8528Z" fill="white"/>
            <path opacity="0.5" d="M112.827 42.4687C112.819 42.4843 112.812 42.4989 112.803 42.5141C113.392 41.2978 112.867 39.8866 111.613 39.344C110.359 38.8014 108.846 39.3307 108.208 40.5257C108.216 40.5101 108.222 40.4951 108.23 40.4795C108.855 39.2528 110.39 38.7032 111.66 39.2524C112.929 39.8016 113.451 41.242 112.827 42.4687Z" fill="white"/>
            <path opacity="0.5" d="M112.371 42.3382C111.884 43.2915 110.689 43.7187 109.701 43.2919C109.146 43.0523 108.774 42.5934 108.641 42.0688C108.794 42.5508 109.152 42.9661 109.672 43.1907C110.66 43.6175 111.856 43.1903 112.342 42.237C112.555 41.819 112.597 41.3701 112.493 40.9605C112.63 41.3959 112.601 41.8857 112.371 42.3382Z" fill="white"/>
            <path d="M109.662 43.1923C110.65 43.619 111.844 43.1923 112.33 42.2393C112.816 41.2864 112.41 40.1679 111.422 39.7413C110.434 39.3146 109.24 39.7413 108.754 40.6943C108.268 41.6472 108.674 42.7657 109.662 43.1923Z" fill="#F39E09"/>
            <path d="M112.463 40.9262C112.283 40.5302 111.955 40.197 111.509 40.0043C110.522 39.5777 109.327 40.0046 108.841 40.9572C108.621 41.3877 108.584 41.8513 108.7 42.2704C108.481 41.7892 108.479 41.2174 108.745 40.6943C109.231 39.7416 110.426 39.3148 111.414 39.7413C111.955 39.9751 112.322 40.4174 112.463 40.9262Z" fill="#E88102"/>
            <path d="M111.938 40.8258L112.007 40.6903L111.775 40.7553L110.302 40.1182L110.029 40.388L109.96 40.5235L110.428 40.7259C110.573 40.7944 110.645 40.8925 110.642 41.0215L109.969 40.7303L109.763 40.9067L109.694 41.0422L110.475 41.3804C110.352 41.5057 110.207 41.5345 110.04 41.4654L109.629 41.2878L109.466 41.612L109.797 42.8764L110.45 43.1591L110.519 43.0235L110.417 42.9461L110.182 41.9945C110.387 42.0191 110.563 42.0037 110.709 41.947C110.856 41.8903 110.982 41.7906 111.089 41.6469L111.344 41.7576L111.62 41.4457L111.689 41.3102L111.485 41.3873L111.272 41.2953C111.307 41.1903 111.32 41.0867 111.309 40.9858L111.661 41.1382L111.938 40.8258Z" fill="#DB6704"/>
            <path d="M111.731 41.002L111.378 40.8494C111.389 40.95 111.377 41.0541 111.342 41.1591L111.69 41.3096L111.414 41.6217L111.158 41.5109C111.052 41.6546 110.926 41.7548 110.779 41.8111C110.632 41.8679 110.456 41.8833 110.251 41.8586L110.532 42.9994L110.519 43.0247L109.865 42.7419L109.535 41.4782L109.698 41.1538L110.109 41.3315C110.276 41.3997 110.421 41.3718 110.545 41.2456L109.763 40.9072L110.038 40.5951L110.712 40.8864C110.715 40.7587 110.643 40.6593 110.497 40.5907L110.029 40.3882L110.372 39.9827L112.008 40.6907L111.731 41.002Z" fill="#FDD835"/>
            <path opacity="0.5" d="M110.013 40.5866L110.147 40.6445L109.877 40.7409L110.013 40.5866Z" fill="white"/>
            <path opacity="0.5" d="M111.111 40.3143L110.401 40.5681L109.997 40.3931L110.343 39.9824L111.111 40.3143Z" fill="white"/>
            <path opacity="0.5" d="M111.734 41.0266L111.707 41.0148L111.761 40.9963L111.734 41.0266Z" fill="white"/>
            <path opacity="0.5" d="M111.698 41.3061L111.421 41.6194L111.164 41.5085C111.058 41.6532 110.932 41.7534 110.783 41.8101C110.636 41.8671 110.46 41.8827 110.254 41.8582L110.34 42.2065L109.779 42.4069L109.605 41.7383L111.363 41.1105C111.359 41.1253 111.354 41.1401 111.349 41.1545L111.698 41.3061Z" fill="white"/>
            <path opacity="0.5" d="M110.1 41.3189C110.152 41.34 110.202 41.3518 110.249 41.3543L109.558 41.6011L109.523 41.4671L109.59 41.3329L109.887 41.2268L110.1 41.3189Z" fill="white"/>
            <path opacity="0.5" d="M112.006 40.7029L111.938 40.7801L111.523 40.9284L111.374 40.8641C111.379 40.9026 111.379 40.9418 111.376 40.9816L110.502 41.2939C110.513 41.285 110.524 41.2743 110.534 41.2641L110.232 41.1337L111.748 40.5913L112.006 40.7029Z" fill="white"/>
            <path opacity="0.5" d="M110.496 42.7574L110.19 42.8676L109.883 42.735L109.88 42.7213L110.439 42.5214L110.496 42.7574Z" fill="white"/>
            <path opacity="0.25" d="M112.518 41.1614C111.16 41.0537 109.79 41.514 108.776 42.4117C108.751 42.3665 108.727 42.3207 108.706 42.2727C108.59 41.8535 108.627 41.3899 108.847 40.9602C109.332 40.0074 110.528 39.5804 111.515 40.0069C111.962 40.1997 112.289 40.5329 112.469 40.9286C112.49 41.0055 112.506 41.0832 112.518 41.1614Z" fill="white"/>
        </g>
        <path d="M168.509 37.8103C168.509 37.0342 167.833 36.4052 167 36.4052C167.832 36.4052 168.509 35.776 168.509 35C168.509 35.7762 169.184 36.4052 170.017 36.4052C169.184 36.4052 168.509 37.0343 168.509 37.8103Z" fill="white"/>
        <path d="M129 42C129 40.8953 128.105 40 127 40C128.103 40 129 39.1046 129 38C129 39.1047 129.895 40 131 40C129.895 40 129 40.8954 129 42Z" fill="white"/>
        <path d="M204.509 26.8103C204.509 26.0342 203.833 25.4052 203 25.4052C203.832 25.4052 204.509 24.776 204.509 24C204.509 24.7762 205.184 25.4052 206.017 25.4052C205.184 25.4052 204.509 26.0343 204.509 26.8103Z" fill="white"/>
        <path d="M176.449 31.9963C177.306 32.0412 178.049 31.4074 178.107 30.5807C178.166 29.7538 177.519 29.0472 176.662 29.0023C175.805 28.9573 175.062 29.5911 175.004 30.4178C174.945 31.2447 175.592 31.9513 176.449 31.9963Z" fill="#E88102"/>
        <path d="M176.461 31.8382C177.309 31.8827 178.041 31.2839 178.097 30.5007C178.153 29.7177 177.51 29.0468 176.662 29.0023C175.814 28.9578 175.081 29.5566 175.025 30.3396C174.97 31.1228 175.612 31.7936 176.461 31.8382Z" fill="#FDD835"/>
        <path opacity="0.5" d="M177.267 29.1481L175.113 30.9079C175.056 30.7611 175.024 30.6033 175.023 30.4396L176.774 29.0078C176.95 29.0294 177.116 29.0774 177.267 29.1481Z" fill="white"/>
        <path opacity="0.5" d="M177.949 29.7957L175.72 31.6174C175.594 31.5427 175.483 31.4517 175.386 31.3475L177.7 29.457C177.8 29.5573 177.884 29.6714 177.949 29.7957Z" fill="white"/>
        <path opacity="0.5" d="M177.641 29.3994L175.334 31.2855C175.303 31.2475 175.273 31.2078 175.246 31.1671L177.525 29.3047C177.565 29.3343 177.604 29.3663 177.641 29.3994Z" fill="white"/>
        <path opacity="0.5" d="M178.073 30.1476L176.08 31.7767C176.024 31.7603 175.97 31.741 175.918 31.7195L178.031 29.9922C178.048 30.0429 178.062 30.0948 178.073 30.1476Z" fill="white"/>
        <path opacity="0.5" d="M178.094 30.4982C178.093 30.5082 178.092 30.5175 178.091 30.5274C178.129 29.7586 177.493 29.1048 176.656 29.0607C175.819 29.0167 175.096 29.599 175.025 30.3661C175.026 30.3562 175.026 30.3468 175.026 30.3369C175.082 29.5554 175.813 28.9577 176.66 29.0023C177.507 29.047 178.149 29.7168 178.094 30.4982Z" fill="white"/>
        <path opacity="0.5" d="M177.804 30.5523C177.76 31.1655 177.186 31.6347 176.522 31.5999C176.149 31.5804 175.827 31.4056 175.623 31.1479C175.827 31.3787 176.132 31.5325 176.481 31.5508C177.145 31.5857 177.719 31.1164 177.763 30.5031C177.782 30.2342 177.696 29.9826 177.538 29.7812C177.722 29.9898 177.825 30.261 177.804 30.5523Z" fill="white"/>
        <path d="M176.481 31.5479C177.145 31.5827 177.72 31.1137 177.763 30.5C177.807 29.8866 177.303 29.3609 176.639 29.326C175.974 29.2912 175.4 29.7603 175.357 30.3739C175.313 30.9874 175.816 31.5131 176.481 31.5479Z" fill="#F39E09"/>
        <path d="M177.524 29.7559C177.325 29.577 177.058 29.4614 176.758 29.4457C176.093 29.4109 175.519 29.8802 175.475 30.4935C175.456 30.7707 175.547 31.0296 175.715 31.2339C175.474 31.0164 175.333 30.7068 175.357 30.37C175.4 29.7565 175.975 29.2873 176.639 29.3221C177.003 29.3412 177.319 29.5081 177.524 29.7559Z" fill="#E88102"/>
        <path d="M177.199 29.8066L177.205 29.7188L177.088 29.8007L176.092 29.7483L176.002 29.9504L175.996 30.0383L176.313 30.0549C176.412 30.063 176.477 30.1023 176.507 30.1732L176.052 30.1493L175.977 30.2869L175.971 30.3748L176.5 30.4026C176.46 30.4957 176.384 30.5404 176.272 30.5363L175.994 30.5217L175.981 30.7314L176.479 31.355L176.92 31.3783L176.927 31.2906L176.849 31.2688L176.483 30.7965C176.606 30.7689 176.702 30.7253 176.772 30.6649C176.842 30.6045 176.889 30.5247 176.915 30.4251L177.088 30.4341L177.169 30.2087L177.175 30.1208L177.077 30.2038L176.934 30.1963C176.928 30.132 176.91 30.0728 176.879 30.02L177.117 30.0326L177.199 29.8066Z" fill="#DB6704"/>
        <path d="M177.124 29.9437L176.885 29.9312C176.916 29.9839 176.935 30.043 176.94 30.1073L177.175 30.1197L177.095 30.3452L176.922 30.3361C176.896 30.4357 176.849 30.5156 176.779 30.5759C176.709 30.6363 176.612 30.6799 176.49 30.7076L176.928 31.2735L176.927 31.2898L176.486 31.2666L175.988 30.6436L176.002 30.434L176.279 30.4486C176.392 30.4521 176.467 30.4079 176.507 30.3143L175.979 30.2864L176.059 30.061L176.514 30.0849C176.485 30.0146 176.42 29.9749 176.32 29.9666L176.004 29.95L176.1 29.6602L177.206 29.7184L177.124 29.9437Z" fill="#FDD835"/>
        <path opacity="0.5" d="M176.06 30.0586L176.151 30.0633L176.021 30.1698L176.06 30.0586Z" fill="white"/>
        <path opacity="0.5" d="M176.611 29.6832L176.273 29.9595L176.003 29.9453L176.099 29.6562L176.611 29.6832Z" fill="white"/>
        <path opacity="0.5" d="M177.175 30.1176L177.094 30.3429L176.921 30.3337C176.896 30.4335 176.848 30.5131 176.778 30.5735C176.708 30.6337 176.612 30.6774 176.489 30.705L176.623 30.877L176.353 31.0977L176.091 30.7693L176.937 30.0781C176.938 30.087 176.939 30.0959 176.94 30.1047L177.175 30.1176Z" fill="white"/>
        <path opacity="0.5" d="M176.281 30.4478C176.315 30.4491 176.346 30.4454 176.374 30.4375L176.042 30.7081L175.99 30.6426L175.995 30.5566L176.137 30.4403L176.281 30.4478Z" fill="white"/>
        <path opacity="0.5" d="M177.202 29.7201L177.183 29.7755L176.983 29.9379L176.883 29.9328C176.895 29.9527 176.905 29.9738 176.913 29.9959L176.494 30.3382C176.498 30.3313 176.502 30.3233 176.505 30.3159L176.302 30.3053L177.029 29.7109L177.202 29.7201Z" fill="white"/>
        <path opacity="0.25" d="M177.607 29.8738C176.81 30.0855 176.146 30.6076 175.789 31.296C175.764 31.2765 175.739 31.2565 175.715 31.2347C175.547 31.0305 175.456 30.7715 175.475 30.4949C175.519 29.8817 176.093 29.4124 176.757 29.4471C177.058 29.4629 177.324 29.5784 177.523 29.7573C177.554 29.7947 177.582 29.8337 177.607 29.8738Z" fill="white"/>
        <path d="M42 3.47698C50.2711 11.8 62.0276 17 75.0712 17C94.9965 17 111.919 4.86642 118 -12H42V3.47698Z" fill="url(#paint3_linear_19456_7964)"/>
        <path d="M56.5085 13.8103C56.5085 13.0342 55.8335 12.4052 55 12.4052C55.8322 12.4052 56.5085 11.776 56.5085 11C56.5085 11.7762 57.1836 12.4052 58.0172 12.4052C57.1837 12.4052 56.5085 13.0343 56.5085 13.8103Z" fill="white"/>
    </g>
    <defs>
        <linearGradient id="paint0_linear_19456_7964" x1="11.5" y1="9.46442e-07" x2="254.886" y2="51.5476" gradientUnits="userSpaceOnUse">
            <stop stop-color="#1570EF"/>
            <stop offset="1" stop-color="#6AA8FF"/>
        </linearGradient>
        <linearGradient id="paint1_linear_19456_7964" x1="-26.5224" y1="52.2207" x2="58.7623" y2="121.491" gradientUnits="userSpaceOnUse">
            <stop stop-color="#1570EF"/>
            <stop offset="1" stop-color="#A3C9FF"/>
        </linearGradient>
        <linearGradient id="paint2_linear_19456_7964" x1="301.468" y1="15" x2="301.468" y2="71" gradientUnits="userSpaceOnUse">
            <stop stop-color="#6AA8FF"/>
            <stop offset="1" stop-color="#A3C9FF"/>
        </linearGradient>
        <linearGradient id="paint3_linear_19456_7964" x1="14.3333" y1="-28.0426" x2="146.136" y2="24.3138" gradientUnits="userSpaceOnUse">
            <stop offset="0.000500023" stop-color="#1570EF"/>
            <stop offset="0.935413" stop-color="#6AA8FF"/>
        </linearGradient>
        <clipPath id="clip0_19456_7964">
            <rect width="328" height="50" rx="12" fill="white"/>
        </clipPath>
    </defs>
</svg>
