<svg width="20" height="20" viewBox="0 0 20 20" fill="none" xmlns="http://www.w3.org/2000/svg">
<g id="Thumbs-29" clip-path="url(#clip0_8282_9292)">
<path id="Vector" d="M18.1182 14.3176H18.3239C19.2011 14.3176 19.9122 13.6065 19.9122 12.7293C19.9122 11.852 19.2011 11.1409 18.3239 11.1409H17.9367C18.8139 11.1409 19.525 10.4298 19.525 9.5526C19.525 8.67535 18.7544 7.96426 17.8773 7.96426H14.7554C13.8084 7.53801 13.5018 6.7891 13.466 5.96801C13.4386 5.3381 13.5703 4.66585 13.6939 4.0646C13.8553 3.28026 13.9394 2.46026 13.6869 1.69493C13.4344 0.929596 12.7853 0.225763 11.9076 0.0401795C11.6328 -0.0179038 11.3323 -0.0219038 11.0784 0.0879295C10.6685 0.265263 10.4745 0.698263 10.4642 1.10135C10.4539 1.50435 10.5884 1.89785 10.6609 2.29585C10.7648 2.86518 10.7394 3.4601 10.5188 4.00285C10.091 5.0551 9.01228 5.77235 8.01203 6.45743C7.45053 6.84201 6.91445 7.26543 6.41003 7.71951C6.20561 7.90351 6.13911 8.04885 6.03653 8.31293C6.00445 8.3956 5.90461 8.79626 5.78103 8.79626H1.3252V18.6381H3.45636C4.32145 18.6381 5.51861 18.3825 6.16061 19.0778C6.30595 19.2353 6.42578 19.4202 6.60061 19.5441C7.15836 19.9393 8.21078 19.7433 8.84845 19.742C11.462 19.7369 14.0756 19.7363 16.6893 19.7363H17.6089C18.228 19.7363 18.73 19.2343 18.73 18.6152C18.73 17.996 18.228 17.494 17.6089 17.494H18.1183C18.9954 17.494 19.7066 16.7829 19.7066 15.9057C19.7066 15.0284 18.9954 14.3176 18.1182 14.3176Z" fill="#178552"/>
<path id="Vector_2" d="M2.40447 7.63672H1.89797C0.898293 7.63672 0.0878906 8.44712 0.0878906 9.4468V18.1898C0.0878906 19.1895 0.898293 19.9999 1.89797 19.9999H2.40447C3.40416 19.9999 4.21456 19.1895 4.21456 18.1898V9.4468C4.21456 8.44712 3.40416 7.63672 2.40447 7.63672Z" fill="#89DBB4"/>
</g>
<defs>
<clipPath id="clip0_8282_9292">
<rect width="20" height="20" fill="white"/>
</clipPath>
</defs>
</svg>
