<svg width="16" height="16" viewBox="0 0 16 16" fill="none" xmlns="http://www.w3.org/2000/svg">
    <path
        d="M8.60016 5.08337C8.60016 4.752 8.33153 4.48337 8.00016 4.48337C7.66879 4.48337 7.40016 4.752 7.40016 5.08337H8.60016ZM8.00016 8.58337H7.40016C7.40016 8.7425 7.46338 8.89512 7.5759 9.00764L8.00016 8.58337ZM9.03423 10.466C9.26855 10.7003 9.64845 10.7003 9.88276 10.466C10.1171 10.2317 10.1171 9.85176 9.88276 9.61744L9.03423 10.466ZM13.8168 8.00004C13.8168 11.2125 11.2126 13.8167 8.00016 13.8167V15.0167C11.8754 15.0167 15.0168 11.8752 15.0168 8.00004H13.8168ZM8.00016 13.8167C4.78771 13.8167 2.1835 11.2125 2.1835 8.00004H0.983496C0.983496 11.8752 4.12496 15.0167 8.00016 15.0167V13.8167ZM2.1835 8.00004C2.1835 4.78758 4.78771 2.18337 8.00016 2.18337V0.983374C4.12496 0.983374 0.983496 4.12484 0.983496 8.00004H2.1835ZM8.00016 2.18337C11.2126 2.18337 13.8168 4.78758 13.8168 8.00004H15.0168C15.0168 4.12484 11.8754 0.983374 8.00016 0.983374V2.18337ZM7.40016 5.08337V8.58337H8.60016V5.08337H7.40016ZM7.5759 9.00764L9.03423 10.466L9.88276 9.61744L8.42443 8.15911L7.5759 9.00764Z"
        fill="#383B41" />
</svg>
