<svg width="20" height="20" viewBox="0 0 20 20" fill="none" xmlns="http://www.w3.org/2000/svg">
<g id="Thumbs-29" clip-path="url(#clip0_8037_8702)">
<path id="Vector" d="M18.1177 14.3176H18.3234C19.2006 14.3176 19.9117 13.6065 19.9117 12.7293C19.9117 11.852 19.2006 11.1409 18.3234 11.1409H17.9362C18.8134 11.1409 19.5245 10.4298 19.5245 9.5526C19.5245 8.67535 18.754 7.96426 17.8768 7.96426H14.7549C13.808 7.53801 13.5013 6.7891 13.4655 5.96801C13.4381 5.3381 13.5698 4.66585 13.6935 4.0646C13.8548 3.28026 13.9389 2.46026 13.6864 1.69493C13.4339 0.929596 12.7848 0.225763 11.9071 0.0401795C11.6323 -0.0179038 11.3318 -0.0219038 11.078 0.0879295C10.668 0.265263 10.474 0.698263 10.4637 1.10135C10.4534 1.50435 10.5879 1.89785 10.6605 2.29585C10.7643 2.86518 10.739 3.4601 10.5183 4.00285C10.0905 5.0551 9.01179 5.77235 8.01154 6.45743C7.45004 6.84201 6.91396 7.26543 6.40954 7.71951C6.20512 7.90351 6.13862 8.04885 6.03604 8.31293C6.00396 8.3956 5.90412 8.79626 5.78054 8.79626H1.32471V18.6381H3.45587C4.32096 18.6381 5.51812 18.3825 6.16012 19.0778C6.30546 19.2353 6.42529 19.4202 6.60012 19.5441C7.15787 19.9393 8.21029 19.7433 8.84796 19.742C11.4615 19.7369 14.0751 19.7363 16.6888 19.7363H17.6084C18.2275 19.7363 18.7295 19.2343 18.7295 18.6152C18.7295 17.996 18.2275 17.494 17.6084 17.494H18.1178C18.995 17.494 19.7061 16.7829 19.7061 15.9057C19.7061 15.0284 18.995 14.3176 18.1177 14.3176Z" fill="#29CB80"/>
<path id="Vector_2" d="M2.40496 7.63672H1.89846C0.898781 7.63672 0.0883789 8.44712 0.0883789 9.4468V18.1898C0.0883789 19.1895 0.898781 19.9999 1.89846 19.9999H2.40496C3.40464 19.9999 4.21505 19.1895 4.21505 18.1898V9.4468C4.21505 8.44712 3.40464 7.63672 2.40496 7.63672Z" fill="#12B76A"/>
</g>
<defs>
<clipPath id="clip0_8037_8702">
<rect width="20" height="20" fill="white"/>
</clipPath>
</defs>
</svg>
