<svg width="16" height="16" viewBox="0 0 16 16" fill="none" xmlns="http://www.w3.org/2000/svg">
    <path
        d="M8.60065 5.08337C8.60065 4.752 8.33202 4.48337 8.00065 4.48337C7.66928 4.48337 7.40065 4.752 7.40065 5.08337H8.60065ZM8.00065 8.58337H7.40065C7.40065 8.7425 7.46387 8.89512 7.57639 9.00764L8.00065 8.58337ZM9.03472 10.466C9.26904 10.7003 9.64893 10.7003 9.88325 10.466C10.1176 10.2317 10.1176 9.85176 9.88325 9.61744L9.03472 10.466ZM13.8173 8.00004C13.8173 11.2125 11.2131 13.8167 8.00065 13.8167V15.0167C11.8758 15.0167 15.0173 11.8752 15.0173 8.00004H13.8173ZM8.00065 13.8167C4.78819 13.8167 2.18398 11.2125 2.18398 8.00004H0.983984C0.983984 11.8752 4.12545 15.0167 8.00065 15.0167V13.8167ZM2.18398 8.00004C2.18398 4.78758 4.78819 2.18337 8.00065 2.18337V0.983374C4.12545 0.983374 0.983984 4.12484 0.983984 8.00004H2.18398ZM8.00065 2.18337C11.2131 2.18337 13.8173 4.78758 13.8173 8.00004H15.0173C15.0173 4.12484 11.8758 0.983374 8.00065 0.983374V2.18337ZM7.40065 5.08337V8.58337H8.60065V5.08337H7.40065ZM7.57639 9.00764L9.03472 10.466L9.88325 9.61744L8.42492 8.15911L7.57639 9.00764Z"
        fill="#FFB3B5" />
</svg>
