<svg width="20" height="20" viewBox="0 0 20 20" fill="none" xmlns="http://www.w3.org/2000/svg">
<g id="Thumbs-30" clip-path="url(#clip0_8282_9298)">
<path id="Vector" d="M18.1172 5.68215H18.3229C19.2001 5.68215 19.9112 6.39324 19.9112 7.27049C19.9112 8.14774 19.2001 8.85882 18.3229 8.85882H17.9357C18.8129 8.85882 19.5241 9.5699 19.5241 10.4472C19.5241 11.3244 18.7535 12.0355 17.8763 12.0355H14.7544C13.8075 12.4617 13.5008 13.2107 13.4651 14.0317C13.4376 14.6617 13.5693 15.3339 13.693 15.9352C13.8543 16.7195 13.9384 17.5395 13.6859 18.3048C13.4334 19.0702 12.7843 19.774 11.9066 19.9596C11.6318 20.0177 11.3313 20.0217 11.0775 19.9118C10.6676 19.7345 10.4736 19.3015 10.4632 18.8984C10.4529 18.4954 10.5874 18.1019 10.66 17.7039C10.7638 17.1346 10.7385 16.5397 10.5178 15.9969C10.0901 14.9447 9.0113 14.2274 8.01105 13.5423C7.44955 13.1577 6.91347 12.7343 6.40905 12.2802C6.20464 12.0962 6.13814 11.9509 6.03555 11.6868C6.00347 11.6042 5.90364 11.2035 5.78005 11.2035H1.32422V1.36165H3.45539C4.32047 1.36165 5.51764 1.61724 6.15964 0.921904C6.30497 0.764488 6.4248 0.579571 6.59964 0.455654C7.15739 0.0604045 8.2098 0.256488 8.84747 0.257738C11.4611 0.262821 14.0746 0.263488 16.6883 0.263488H17.6079C18.2271 0.263488 18.7291 0.765404 18.7291 1.38457C18.7291 2.00374 18.2271 2.50574 17.6079 2.50574H18.1173C18.9945 2.50574 19.7056 3.21682 19.7056 4.09407C19.7056 4.97132 18.9945 5.68215 18.1172 5.68215Z" fill="#FD7586"/>
<path id="Vector_2" d="M2.40447 0H1.89797C0.898293 0 0.0878906 0.810402 0.0878906 1.81008V10.5531C0.0878906 11.5528 0.898293 12.3632 1.89797 12.3632H2.40447C3.40416 12.3632 4.21456 11.5528 4.21456 10.5531V1.81008C4.21456 0.810402 3.40416 0 2.40447 0Z" fill="#FFB3B5"/>
</g>
<defs>
<clipPath id="clip0_8282_9298">
<rect width="20" height="20" fill="white"/>
</clipPath>
</defs>
</svg>
