<svg width="20" height="20" viewBox="0 0 20 20" fill="none" xmlns="http://www.w3.org/2000/svg">
<path d="M15.3167 10.7002V14.8085C15.3167 15.8669 14.4917 17.0002 13.5 17.3335L10.8417 18.2169C10.375 18.3752 9.61668 18.3752 9.15835 18.2169L6.50002 17.3335C5.50002 17.0002 4.68335 15.8669 4.68335 14.8085L4.69168 10.7002L8.37502 13.1002C9.27502 13.6919 10.7583 13.6919 11.6583 13.1002L15.3167 10.7002Z" fill="#F9C63E"/>
<path d="M16.65 5.38379L11.6583 2.10879C10.7583 1.51712 9.27502 1.51712 8.37502 2.10879L3.35835 5.38379C1.75002 6.42546 1.75002 8.78379 3.35835 9.83379L4.69168 10.7005L8.37502 13.1005C9.27502 13.6921 10.7583 13.6921 11.6583 13.1005L15.3167 10.7005L16.4583 9.95045V12.5005C16.4583 12.8421 16.7417 13.1255 17.0833 13.1255C17.425 13.1255 17.7083 12.8421 17.7083 12.5005V8.40045C18.0417 7.32546 17.7 6.07546 16.65 5.38379Z" fill="#252E23"/>
</svg>
