<svg width="18" height="18" viewBox="0 0 18 18" fill="none" xmlns="http://www.w3.org/2000/svg">
<path fill-rule="evenodd" clip-rule="evenodd" d="M0 3.26786C0 2.08439 0.959391 1.125 2.14286 1.125H15.8571C17.0406 1.125 18 2.08439 18 3.26786V12.6964C18 13.8799 17.0406 14.8393 15.8571 14.8393H2.14286C0.959391 14.8393 0 13.8799 0 12.6964V3.26786ZM2.14286 1.98214C1.43277 1.98214 0.857143 2.55777 0.857143 3.26786V12.6964C0.857143 13.4065 1.43277 13.9821 2.14286 13.9821H15.8571C16.5672 13.9821 17.1429 13.4065 17.1429 12.6964V3.26786C17.1429 2.55777 16.5672 1.98214 15.8571 1.98214H2.14286Z" fill="#495057"/>
<path fill-rule="evenodd" clip-rule="evenodd" d="M7.08221 4.60313C7.22396 4.52933 7.39499 4.54052 7.52588 4.63216L11.8116 7.63217C11.9262 7.71232 11.9944 7.84338 11.9944 7.98326C11.9944 8.12315 11.9262 8.2542 11.8116 8.33435L7.52588 11.3343C7.39499 11.426 7.22396 11.4372 7.08221 11.3634C6.94047 11.2896 6.85156 11.143 6.85156 10.9833V4.98326C6.85156 4.82346 6.94047 4.67693 7.08221 4.60313ZM7.70871 5.8064V10.1601L10.8185 7.98326L7.70871 5.8064Z" fill="#495057"/>
<path fill-rule="evenodd" clip-rule="evenodd" d="M14.1373 16.9821H3.85156V16.125H14.1373V16.9821Z" fill="#495057"/>
</svg>
