<svg width="48" height="48" viewBox="0 0 48 48" fill="none" xmlns="http://www.w3.org/2000/svg">
<path d="M25.98 16.47L24 14" stroke="white" stroke-width="1.5" stroke-linecap="round" stroke-linejoin="round"/>
<path d="M31.0894 19.7988C32.1994 21.2788 32.8894 23.1088 32.8894 25.1088C32.8894 30.0188 28.9094 33.9988 23.9994 33.9988C19.0894 33.9988 15.1094 30.0188 15.1094 25.1088C15.1094 20.1988 19.0894 16.2188 23.9994 16.2188C24.6794 16.2188 25.3394 16.3088 25.9794 16.4588" stroke="white" stroke-width="1.5" stroke-linecap="round" stroke-linejoin="round"/>
<path d="M21.5391 27.9181V22.5781L20.0391 24.2481" stroke="white" stroke-width="1.5" stroke-linecap="round" stroke-linejoin="round"/>
<path d="M26 22.5781C27.1 22.5781 28 23.4781 28 24.5781V25.9281C28 27.0281 27.1 27.9281 26 27.9281C24.9 27.9281 24 27.0281 24 25.9281V24.5781C24 23.4681 24.9 22.5781 26 22.5781Z" stroke="white" stroke-width="1.5" stroke-linecap="round" stroke-linejoin="round"/>
</svg>
