<svg width="16" height="16" viewBox="0 0 16 16" fill="none" xmlns="http://www.w3.org/2000/svg">
<path d="M8 9.28C8.70693 9.28 9.28 8.70693 9.28 8C9.28 7.29308 8.70693 6.72 8 6.72C7.29308 6.72 6.72 7.29308 6.72 8C6.72 8.70693 7.29308 9.28 8 9.28Z" fill="#202126"/>
<path d="M8 13.36C8.70693 13.36 9.28 12.7869 9.28 12.08C9.28 11.3731 8.70693 10.8 8 10.8C7.29308 10.8 6.72 11.3731 6.72 12.08C6.72 12.7869 7.29308 13.36 8 13.36Z" fill="#202126"/>
<path d="M8 5.2C8.70693 5.2 9.28 4.62692 9.28 3.92C9.28 3.21307 8.70693 2.64 8 2.64C7.29308 2.64 6.72 3.21307 6.72 3.92C6.72 4.62692 7.29308 5.2 8 5.2Z" fill="#202126"/>
</svg>
