<svg width="14" height="14" viewBox="0 0 14 14" fill="none" xmlns="http://www.w3.org/2000/svg">
<ellipse cx="6.99999" cy="7.49416" rx="6.99999" ry="6.50588" fill="#626262"/>
<mask id="mask0_3304_25394" style="mask-type:alpha" maskUnits="userSpaceOnUse" x="0" y="0" width="14" height="14">
<ellipse cx="6.99999" cy="7.49416" rx="6.99999" ry="6.50588" fill="#3B3B3B"/>
</mask>
<g mask="url(#mask0_3304_25394)">
<path d="M7.81738 15.8107V5.69873" stroke="#7D7D7D" stroke-width="0.32" stroke-linecap="round" stroke-linejoin="round"/>
<path d="M0.959961 15.8107V5.69873" stroke="#7D7D7D" stroke-width="0.32" stroke-linecap="round" stroke-linejoin="round"/>
<path d="M9.53125 15.8107V5.69873" stroke="#7D7D7D" stroke-width="0.32" stroke-linecap="round" stroke-linejoin="round"/>
<path d="M2.67383 15.8107V5.69873" stroke="#7D7D7D" stroke-width="0.32" stroke-linecap="round" stroke-linejoin="round"/>
<path d="M11.2461 15.8107V5.69873" stroke="#7D7D7D" stroke-width="0.32" stroke-linecap="round" stroke-linejoin="round"/>
<path d="M4.38867 15.8107V5.69873" stroke="#7D7D7D" stroke-width="0.32" stroke-linecap="round" stroke-linejoin="round"/>
<path d="M12.96 15.8107V5.69873" stroke="#7D7D7D" stroke-width="0.32" stroke-linecap="round" stroke-linejoin="round"/>
<path d="M6.10254 15.8107V5.69873" stroke="#7D7D7D" stroke-width="0.32" stroke-linecap="round" stroke-linejoin="round"/>
</g>
<ellipse cx="7.00001" cy="6.50584" rx="6.99999" ry="6.50588" transform="rotate(-180 7.00001 6.50584)" fill="#ABABAB"/>
<ellipse cx="7.00034" cy="6.50613" rx="6.11391" ry="5.68235" transform="rotate(-180 7.00034 6.50613)" fill="#828282"/>
<ellipse cx="6.99964" cy="6.50575" rx="4.87341" ry="4.52941" transform="rotate(-180 6.99964 6.50575)" fill="#828282"/>
<ellipse cx="6.99964" cy="6.3412" rx="4.87341" ry="4.52941" transform="rotate(-180 6.99964 6.3412)" fill="#FFD200"/>
<ellipse cx="6.99964" cy="6.3412" rx="4.87341" ry="4.52941" transform="rotate(-180 6.99964 6.3412)" fill="#626262"/>
<ellipse cx="7.04651" cy="6.40028" rx="4.87341" ry="4.52941" transform="rotate(-180 7.04651 6.40028)" fill="#FFD200"/>
<ellipse cx="7.04651" cy="6.40028" rx="4.87341" ry="4.52941" transform="rotate(-180 7.04651 6.40028)" fill="#DFDFDF"/>
<path d="M10.0431 5.0697V8.11C9.62328 8.06496 9.19938 8.06725 8.78042 8.1123C8.24644 8.17414 7.71658 8.33448 7.28036 8.62461C7.27543 8.62767 7.28036 8.63454 7.28529 8.63225C7.52599 8.53223 7.77326 8.45893 8.02793 8.42304C8.72127 8.32837 9.42776 8.43068 10.0866 8.6353C10.1786 8.65973 10.2501 8.70631 10.3413 8.70631C10.5056 8.70631 10.6395 8.58262 10.6395 8.42915V5.0697C10.6271 4.70245 10.0546 4.70551 10.0439 5.0697H10.0431Z" fill="white"/>
<path d="M10.0431 5.0697V8.11C9.62328 8.06496 9.19938 8.06725 8.78042 8.1123C8.24644 8.17414 7.71658 8.33448 7.28036 8.62461C7.27543 8.62767 7.28036 8.63454 7.28529 8.63225C7.52599 8.53223 7.77326 8.45893 8.02793 8.42304C8.72127 8.32837 9.42776 8.43068 10.0866 8.6353C10.1786 8.65973 10.2501 8.70631 10.3413 8.70631C10.5056 8.70631 10.6395 8.58262 10.6395 8.42915V5.0697C10.6271 4.70245 10.0546 4.70551 10.0439 5.0697H10.0431Z" fill="#828282"/>
<path d="M9.88213 7.59762V4.54968C9.8698 4.18243 9.29722 4.18549 9.28654 4.54968V7.33268C8.50036 7.38842 7.73473 7.77094 7.24511 8.32448C7.24183 8.3283 7.24758 8.33364 7.25169 8.33059C7.84727 7.91448 8.57594 7.67321 9.47138 7.84652C9.66279 7.916 9.90184 7.82591 9.88213 7.59686V7.59762Z" fill="white"/>
<path d="M9.88213 7.59762V4.54968C9.8698 4.18243 9.29722 4.18549 9.28654 4.54968V7.33268C8.50036 7.38842 7.73473 7.77094 7.24511 8.32448C7.24183 8.3283 7.24758 8.33364 7.25169 8.33059C7.84727 7.91448 8.57594 7.67321 9.47138 7.84652C9.66279 7.916 9.90184 7.82591 9.88213 7.59686V7.59762Z" fill="#828282"/>
<path d="M3.95969 5.0614V8.1017C4.37948 8.05666 4.80337 8.05895 5.22233 8.10399C5.75631 8.16584 6.28617 8.32618 6.72239 8.61631C6.72732 8.61936 6.72239 8.62624 6.71746 8.62395C6.47676 8.52393 6.22949 8.45063 5.97483 8.41474C5.28148 8.32007 4.57499 8.42238 3.91615 8.627C3.82414 8.65143 3.75267 8.69801 3.66149 8.69801C3.49719 8.69801 3.36328 8.57432 3.36328 8.42085V5.0614C3.3756 4.69415 3.94819 4.69721 3.95887 5.0614H3.95969Z" fill="white"/>
<path d="M3.95969 5.0614V8.1017C4.37948 8.05666 4.80337 8.05895 5.22233 8.10399C5.75631 8.16584 6.28617 8.32618 6.72239 8.61631C6.72732 8.61936 6.72239 8.62624 6.71746 8.62395C6.47676 8.52393 6.22949 8.45063 5.97483 8.41474C5.28148 8.32007 4.57499 8.42238 3.91615 8.627C3.82414 8.65143 3.75267 8.69801 3.66149 8.69801C3.49719 8.69801 3.36328 8.57432 3.36328 8.42085V5.0614C3.3756 4.69415 3.94819 4.69721 3.95887 5.0614H3.95969Z" fill="#828282"/>
<path d="M4.24626 7.59762V4.54968C4.25858 4.18243 4.83117 4.18549 4.84185 4.54968V7.33268C5.62802 7.38842 6.39366 7.77094 6.88327 8.32448C6.88656 8.3283 6.88081 8.33364 6.8767 8.33059C6.28111 7.91448 5.55244 7.67321 4.65701 7.84652C4.4656 7.916 4.22655 7.82591 4.24626 7.59686V7.59762Z" fill="white"/>
<path d="M4.24626 7.59762V4.54968C4.25858 4.18243 4.83117 4.18549 4.84185 4.54968V7.33268C5.62802 7.38842 6.39366 7.77094 6.88327 8.32448C6.88656 8.3283 6.88081 8.33364 6.8767 8.33059C6.28111 7.91448 5.55244 7.67321 4.65701 7.84652C4.4656 7.916 4.22655 7.82591 4.24626 7.59686V7.59762Z" fill="#828282"/>
<path d="M7.06391 4.35156C7.85666 4.35156 8.49989 4.94863 8.49989 5.68618C8.49989 6.42297 7.85748 7.0208 7.06391 7.0208C6.27116 7.0208 5.62793 6.42297 5.62793 5.68618C5.62793 4.94939 6.27034 4.35156 7.06391 4.35156Z" fill="white"/>
<path d="M7.06391 4.35156C7.85666 4.35156 8.49989 4.94863 8.49989 5.68618C8.49989 6.42297 7.85748 7.0208 7.06391 7.0208C6.27116 7.0208 5.62793 6.42297 5.62793 5.68618C5.62793 4.94939 6.27034 4.35156 7.06391 4.35156Z" fill="#828282"/>
<path d="M7.50442 5.62119L6.94005 5.09665C6.87843 5.03939 6.77246 5.07986 6.77246 5.16079V6.21062C6.77246 6.29155 6.87843 6.33278 6.94005 6.27475L7.50442 5.75022C7.54303 5.71433 7.54303 5.65707 7.50442 5.62119Z" fill="white"/>
<path d="M7.50442 5.62119L6.94005 5.09665C6.87843 5.03939 6.77246 5.07986 6.77246 5.16079V6.21062C6.77246 6.29155 6.87843 6.33278 6.94005 6.27475L7.50442 5.75022C7.54303 5.71433 7.54303 5.65707 7.50442 5.62119Z" fill="#D1D1D1"/>
<path d="M7.00042 -0.000132025C3.13443 -0.000132339 0.000429917 2.91265 0.000429579 6.50575C0.000429414 8.26648 0.753004 9.86385 1.9755 11.0352L12.1396 2.08848C10.8609 0.804019 9.03172 -0.00013186 7.00042 -0.000132025Z" fill="white" fill-opacity="0.2"/>
</svg>
