<svg width="64" height="64" viewBox="0 0 64 64" fill="none" xmlns="http://www.w3.org/2000/svg">
<path d="M41.8762 10.126H18.3139C15.4481 10.126 13.125 12.4491 13.125 15.3148V48.2694C13.125 51.1351 15.4481 53.4582 18.3139 53.4582H41.8762C44.7419 53.4582 47.0651 51.1351 47.0651 48.2694V20.959V15.3148C47.0651 12.4491 44.7419 10.126 41.8762 10.126Z" stroke="#FFB2A8" stroke-width="5.983"/>
<path d="M8.84766 12.077C8.84766 10.4095 9.96087 8.94713 11.5682 8.50323L31.0025 3.13592C33.3636 2.48383 35.6969 4.26011 35.6969 6.70971V56.2903C35.6969 58.7399 33.3636 60.5162 31.0025 59.8641L11.5682 54.4968C9.96087 54.0529 8.84766 52.5905 8.84766 50.923V12.077Z" fill="#ED9300"/>
<path d="M6 12.077C6 10.4095 7.11321 8.94713 8.72052 8.50323L28.1548 3.13592C30.5159 2.48383 32.8492 4.26011 32.8492 6.70971V56.2903C32.8492 58.7399 30.5159 60.5162 28.1548 59.8641L8.72052 54.4968C7.11321 54.0529 6 52.5905 6 50.923V12.077Z" fill="#FFB741"/>
<ellipse cx="27.5764" cy="31.2721" rx="1.85373" ry="3.53378" fill="white"/>
<path d="M40.9121 30.79H58.7241M58.7241 30.79L55.1617 27.2275M58.7241 30.79L55.1617 34.3525" stroke="#DA8800" stroke-width="5.983" stroke-linecap="round" stroke-linejoin="round"/>
</svg>
