<svg width="25" height="24" viewBox="0 0 25 24" fill="none" xmlns="http://www.w3.org/2000/svg">
<path d="M12.5666 24C19.194 24 24.5666 18.6274 24.5666 12C24.5666 5.37259 19.194 0 12.5666 0C5.93914 0 0.566559 5.37259 0.566559 12C0.566559 18.6274 5.93914 24 12.5666 24Z" fill="#FFD34D"/>
<path d="M9.80769 8.63695C9.56063 9.65543 8.65306 10.3109 7.78584 10.0991C6.91357 9.88737 6.40432 8.89409 6.65138 7.87056C6.89844 6.84703 7.80601 6.19661 8.67324 6.40837C9.54551 6.62014 10.0547 7.61342 9.80769 8.63695Z" fill="#351800"/>
<path d="M10.2156 4.03867C10.2156 4.03867 9.31306 2.99497 7.81558 3.90254" stroke="#603813" stroke-width="1.5" stroke-miterlimit="10" stroke-linecap="round"/>
<path d="M15.3233 8.63704C15.5703 9.65552 16.4779 10.311 17.3451 10.0992C18.2174 9.88746 18.7266 8.89419 18.4796 7.87066C18.2325 6.85217 17.325 6.1967 16.4577 6.40847C15.5855 6.62023 15.0762 7.61351 15.3233 8.63704Z" fill="#351800"/>
<path d="M14.9103 4.03867C14.9103 4.03867 15.8129 2.99497 17.3103 3.90254" stroke="#603813" stroke-width="1.5" stroke-miterlimit="10" stroke-linecap="round"/>
<path d="M15.7574 16.6336C15.7574 19.1395 14.3305 21.1715 12.5658 21.1715C10.8011 21.1715 9.37418 19.1395 9.37418 16.6336C9.37418 14.1278 10.8011 12.0958 12.5658 12.0958C14.3305 12.0958 15.7574 14.1278 15.7574 16.6336Z" fill="#351800"/>
</svg>
