<svg width="76" height="76" viewBox="0 0 76 76" fill="none" xmlns="http://www.w3.org/2000/svg">
<g clip-path="url(#clip0_6785_101910)">
<g clip-path="url(#clip1_6785_101910)">
<path d="M58.506 27.6325C58.2246 27.3406 57.9362 27.0566 57.6441 26.7729L57.6191 26.8494C57.917 27.1065 58.2111 27.3639 58.5058 27.6287L58.506 27.6325Z" fill="#868E96"/>
<path d="M25.001 46.5317C25.001 46.5317 26.3144 46.5055 28.2731 46.721C27.2091 46.5515 26.1182 46.4847 25.001 46.5317Z" fill="#868E96"/>
<path d="M40.5296 51.1443C40.4822 51.1062 40.4312 51.0722 40.3838 51.0342L40.3848 51.0491C40.4317 51.0796 40.4787 51.1102 40.5296 51.1443Z" fill="#868E96"/>
<path d="M37.7105 58.9378L35.5073 62.537L39.9525 59.8751L38.7002 58.4317L37.7105 58.9378Z" fill="#DEE2E6"/>
<path d="M41.4498 45.3668L40.2431 43.5914L41.5222 42.356L44.999 41.3803L47.2595 42.6566L46.07 44.2301L42.5171 45.0725L41.4498 45.3668Z" fill="#DEE2E6"/>
<path d="M28.9235 17.3094C34.9002 16.9175 40.6531 17.8565 45.8994 19.868L45.8839 19.0614C38.4845 15.8114 30.2115 14.4955 23.1809 15.4425C15.8717 16.4265 9.05577 18.3614 3.36229 22.2155L7.09211 30.5293C8.30833 29.6495 9.58589 28.8479 10.9215 28.1322L9.10487 24.0824C14.7984 20.2282 21.5627 17.7919 28.9235 17.3094Z" fill="#DEE2E6"/>
<path d="M52.9683 36.2658C56.4971 40.6558 58.8629 46.0529 59.5863 52.1709L65.7494 55.4055C66.7968 47.4929 61.8073 39.2867 56.2104 34.0977L52.9648 36.2698L52.9683 36.2658Z" fill="#DEE2E6"/>
<path d="M72.9678 53.3081L66.3975 56.2378C66.3975 54.3847 62.5928 40.6206 56.7178 36.7456L56.7178 35.2456L58.4678 34.6831L58.4678 27.3081C68.0178 30.8581 72.1136 46.1206 72.9678 53.3081Z" fill="#ADB5BD"/>
<path d="M41.3848 27.3047C43.0265 28.057 44.5907 28.9415 46.0687 29.9401L46.0527 29.0102C44.5506 28.331 42.9918 27.7564 41.3848 27.3047Z" fill="#DEE2E6"/>
<path d="M30.6188 32.6633C35.0734 32.3713 39.3425 33.1944 43.1586 34.8809L43.2263 34.8279C37.9639 31.6546 31.5657 30.3616 24.8765 30.8002C19.161 31.1749 13.9809 33.3166 9.84244 36.6576L13.5366 44.884C14.6483 43.839 15.881 42.9244 17.213 42.1528L15.585 38.5244C19.7235 35.1835 24.9035 33.0417 30.6191 32.667L30.6188 32.6633Z" fill="#DEE2E6"/>
<path d="M41.9294 43.4084L41.8 43.4916L41.447 45.3655C44.333 48.4665 46.1749 52.6156 46.4893 57.4107C46.4873 57.3809 46.4883 57.3958 46.4893 57.4107L52.9947 60.1697C52.9908 60.1102 52.9869 60.0506 52.983 59.991C52.5007 52.6346 48.0881 46.478 41.9219 43.4089L41.9294 43.4084Z" fill="#DEE2E6"/>
<path d="M26.5238 49.1353C25.673 47.7591 24.9966 46.5285 24.9966 46.5285C21.5706 46.6783 18.4005 47.8732 15.7514 49.8153L19.1301 57.3446C20.2386 56.3073 21.5668 55.536 23.0342 55.1145L21.494 51.6822C23.0132 50.5656 24.7099 49.6991 26.5238 49.1353Z" fill="#DEE2E6"/>
<path d="M31.5059 56.6108C32.3933 57.3453 33.1109 58.2891 33.6215 59.4483L35.3249 57.542C34.1595 56.9678 32.8677 56.6375 31.5096 56.6106L31.5059 56.6108Z" fill="#DEE2E6"/>
<path d="M35.5063 62.5337L40.6548 64.9966C40.3708 63.1794 39.6339 61.5415 38.5794 60.201L35.5063 62.5337Z" fill="#DEE2E6"/>
<path d="M34.0944 48.5934L33.9794 47.8681C31.8802 47.2243 29.8649 46.8891 28.2725 46.7168C30.1391 47.0132 31.9105 47.6299 33.5309 48.5144C33.7199 48.5394 33.9091 48.5682 34.0946 48.5971L34.0944 48.5934Z" fill="#DEE2E6"/>
<path d="M30.7396 48.3947C31.6887 48.3549 32.6171 48.3987 33.5276 48.5148C31.9072 47.6302 30.1395 47.0133 28.2692 46.7171C26.3067 46.5018 24.9971 46.5278 24.9971 46.5278C24.9971 46.5278 25.6735 47.7584 26.5243 49.1347C27.8718 48.7136 29.2827 48.4603 30.7396 48.3947Z" fill="#DEE2E6"/>
<path d="M34.1396 48.8671L34.0959 48.6008C33.9104 48.5718 33.7212 48.5431 33.5322 48.5181C33.7383 48.6317 33.9406 48.7455 34.1396 48.8671Z" fill="#868E96"/>
<path d="M10.9243 28.1293L12.8374 32.3933C17.7446 28.8338 23.6883 26.5672 30.1948 26.1406C34.0785 25.886 37.8455 26.3083 41.3877 27.3024C36.3159 24.9803 30.5221 23.8758 24.4522 24.2738C19.5574 24.5947 14.982 25.9565 10.9243 28.1293Z" fill="#ADB5BD"/>
<path d="M45.9008 19.8688C40.6546 17.8572 34.9016 16.9183 28.925 17.3101C21.5642 17.7927 14.7998 20.229 9.10634 24.0831L10.923 28.1329C14.9807 25.96 19.5562 24.5982 24.451 24.2773C30.5246 23.8791 36.3147 24.9839 41.3864 27.306C42.9935 27.7577 44.5523 28.3323 46.0544 29.0115L45.8971 19.869L45.9008 19.8688Z" fill="#ADB5BD"/>
<path d="M25.9565 39.4943C22.7667 39.7034 19.8051 40.6491 17.217 42.1498L19.2832 46.7478C22.5514 43.677 26.8678 41.6779 31.6991 41.3612C32.8519 41.2856 33.9854 41.316 35.0982 41.4299L35.4826 41.1206C32.6463 39.8633 29.4152 39.2713 25.9605 39.4978L25.9565 39.4943Z" fill="#ADB5BD"/>
<path d="M55.8052 54.6616C55.823 54.7614 52.9974 60.0689 53.0003 60.1696L59.0353 57.8111C59.0287 57.7106 59.0222 57.61 59.0156 57.5095C58.5133 49.8478 54.8075 43.1589 49.2923 38.6449L48.5591 39.1192C52.1361 42.9302 54.7144 48.0816 55.8015 54.6618L55.8052 54.6616Z" fill="#ADB5BD"/>
<path d="M48.5629 39.1186L41.9313 43.4081C48.0937 46.4775 52.5101 52.6339 52.9924 59.9903C52.9963 60.0498 53.0002 60.1094 53.0041 60.169C52.9975 60.0685 55.8268 54.7607 55.8091 54.6609C54.722 48.0807 52.1437 42.9293 48.5667 39.1183L48.5629 39.1186Z" fill="#ADB5BD"/>
<path d="M35.8045 41.3234L43.4885 35.0842C39.6724 33.3976 35.4033 32.5745 30.9488 32.8666C25.2332 33.2413 20.0532 35.383 15.9147 38.724L17.5426 42.3524C20.1307 40.8517 23.0924 39.906 26.2822 39.6969C29.7369 39.4704 32.9717 40.0622 35.8043 41.3197L35.8045 41.3234Z" fill="#ADB5BD"/>
<path d="M23.0399 55.1169L24.8784 59.2138C26.5055 57.6864 28.6117 56.722 30.9282 56.6225C31.1224 56.6135 31.3134 56.6122 31.5087 56.6181C29.8998 55.2803 27.7262 54.6451 25.1856 54.7556C24.4459 54.7892 23.7275 54.9185 23.0399 55.1169Z" fill="#ADB5BD"/>
<path d="M40.132 52.3618L39.7568 54.353C40.8991 56.1177 41.7564 58.1067 42.2573 60.2611L40.6498 65.0027L47.9999 62.1279C46.9241 57.4912 44.192 53.5949 40.5245 51.1471C40.7456 51.3195 40.9635 51.4997 41.1779 51.6838C41.147 51.783 40.7181 52.043 40.132 52.3618Z" fill="#ADB5BD"/>
<path d="M35.4971 57.3515L34.9569 53.9695C33.274 53.5041 30.3769 52.7481 29.6227 52.8461C29.0133 52.9235 27.6261 50.9094 26.5281 49.1344C24.7144 49.702 23.0214 50.5682 21.4982 51.6813L23.0384 55.1136C23.726 54.9152 24.4444 54.7859 25.1841 54.7523C27.7247 54.6418 29.8945 55.2773 31.5071 56.6148C32.869 56.6414 34.1608 56.9717 35.3225 57.5461L35.4968 57.3477L35.4971 57.3515Z" fill="#ADB5BD"/>
<path d="M39.7626 54.3509L38.6766 60.1314L38.5802 60.205C39.6348 61.5454 40.3716 63.1833 40.6556 65.0005L42.2631 60.2589C41.7622 58.1045 40.9049 56.1155 39.7626 54.3509Z" fill="#ADB5BD"/>
<path d="M40.1321 52.3606C40.7219 52.0415 41.147 51.7819 41.178 51.6826C40.9634 51.4948 40.7457 51.3184 40.5246 51.1459C40.4774 51.1116 40.4267 51.0813 40.376 51.051L40.1284 52.3609L40.1321 52.3606Z" fill="#868E96"/>
<path d="M33.5319 48.5159C32.6213 48.3999 31.693 48.3561 30.7439 48.3959C29.283 48.458 27.8723 48.715 26.5286 49.1358C27.6266 50.9109 29.0176 52.9247 29.6232 52.8476C30.3774 52.7495 33.2745 53.5055 34.9574 53.971L34.1396 48.8687C33.9405 48.7471 33.738 48.6296 33.5322 48.5197L33.5319 48.5159Z" fill="#ADB5BD"/>
<path d="M43.1595 34.8784L43.2278 34.8249L43.1595 34.8784Z" fill="#868E96"/>
<path d="M28.5242 69.3484L27.9505 66.4846L31.2141 62.1429C30.3566 61.5224 29.3544 61.0946 28.2715 60.9225C25.6117 61.7288 23.7595 64.2805 23.9489 67.1694C24.1695 70.5349 27.0833 73.0883 30.4596 72.8669C31.064 72.8273 31.6439 72.6995 32.1853 72.4995C33.4645 71.1519 34.2007 69.294 34.0697 67.2948C33.9984 66.2078 33.6736 65.1971 33.1661 64.3144L29.5611 67.0483C29.5611 67.0483 28.6286 68.9415 28.5209 69.3561L28.5242 69.3484Z" fill="#ADB5BD"/>
<path d="M57.618 26.8444L53.4176 29.7557L52.9774 33.3851L55.0021 34.9498L58.0536 34.002L57.618 26.8444Z" fill="#868E96"/>
<path d="M41.9267 43.4059L41.5204 42.352L43.4873 41.2061C43.6844 41.1259 46.1611 38.3837 46.3625 38.3705C46.564 38.3573 49.2919 38.6458 49.2919 38.6458C49.2919 38.6458 48.6161 43.6553 48.067 43.624C47.518 43.5927 41.927 43.4097 41.927 43.4097" fill="#868E96"/>
<path d="M40.3782 51.0475L39.3908 51.9311L37.7066 58.9323L38.5728 60.1991C38.5728 60.1991 41.5335 60.2106 41.5223 60.0393C41.511 59.8681 41.9398 57.0919 41.9398 57.0919L40.3743 51.0441L40.3782 51.0475Z" fill="#868E96"/>
<path d="M52.9677 36.2616L52.9775 33.3821L54.824 31.4289L56.8256 32.9279L55.8678 35.978L54.3387 36.4858L52.9677 36.2616Z" fill="#868E96"/>
<path d="M3.3623 22.2114L9.10489 24.0783L12.8347 32.3921L7.09213 30.5252L3.3623 22.2114Z" fill="#868E96"/>
<path d="M9.8418 36.6494L15.5844 38.5163L19.2785 46.7427L13.5359 44.8758L9.8418 36.6494Z" fill="#868E96"/>
<path d="M15.752 49.8159L21.4945 51.6828L24.8732 59.212L19.1306 57.3451L15.752 49.8159Z" fill="#868E96"/>
<path d="M23.9453 67.1678C23.7559 64.2788 25.6082 61.7271 28.268 60.9209C27.764 60.8342 27.2415 60.8087 26.708 60.8437C25.0404 60.953 23.5531 61.6412 22.4232 62.6949C20.9653 64.0617 20.1064 66.0473 20.2472 68.1954C20.4134 70.7307 21.9315 72.8558 24.0546 73.9205C25.1201 74.4564 26.3364 74.7206 27.6123 74.637C29.4254 74.5181 31.0213 73.7143 32.1818 72.4978C31.6404 72.6978 31.0605 72.8256 30.4561 72.8652C27.0798 73.0866 24.166 70.5333 23.9453 67.1678Z" fill="#868E96"/>
<path d="M32.3254 63.1462L31.7634 64.5179L28.7949 66.9034L28.5245 69.3515C28.6322 68.9369 29.5647 67.0437 29.5647 67.0437L33.1698 64.3097C32.9288 63.8918 32.6448 63.5029 32.3291 63.146L32.3254 63.1462Z" fill="#868E96"/>
<path d="M54.9651 18.7473L53.029 19.1061L51.028 21.2749L53.4542 23.3629L52.9574 21.0998L54.9651 18.7473Z" fill="#868E96"/>
<path d="M61.9492 13.3487C61.5955 13.5551 59.9446 14.8336 59.9446 14.8336L58.8314 21.4571L61.1768 16.4839L61.9529 13.3484L61.9492 13.3487Z" fill="#868E96"/>
<path d="M47.8996 33.4187L47.6831 35.7734L49.7305 35.456L50.219 34.22L47.8959 33.4189L47.8996 33.4187Z" fill="#DEE2E6"/>
<path d="M44.5989 36.6983L45.5688 37.3189L45.8883 36.3632L45.4629 35.8751L44.5989 36.6983Z" fill="#DEE2E6"/>
<path d="M37.122 52.0783L36.3977 52.1744L36.635 52.7645L37.04 52.8277L37.122 52.0783Z" fill="#868E96"/>
<path d="M38.1453 48.4165L37.0122 46.2774L35.4643 47.6426L35.746 48.9664L38.149 48.4163L38.1453 48.4165Z" fill="#DEE2E6"/>
<path d="M54.9624 18.7462L52.2878 21.0415L53.4516 23.3619L54.1347 22.7525L54.9624 18.7462Z" fill="#ADB5BD"/>
<path d="M60.9878 15.0972L58.8304 21.4527L62.433 15.4811L61.9519 13.344L60.9913 15.0933L60.9878 15.0972Z" fill="#ADB5BD"/>
<path d="M62.0884 5.72305L56.268 4.37942L56.3728 9.57677L59.3027 11.2148L62.0878 5.72546L62.0884 5.72305Z" fill="#DEE2E6"/>
<path d="M56.2742 4.37508L58.0784 4.31403L61.0546 4.77663L62.094 5.72112L56.2742 4.37508Z" fill="#868E96"/>
<path d="M48.9111 6.1255L45.2001 9.55819L44.5278 14.1088L48.1673 12.8366L50.5365 11.057L48.9111 6.1255Z" fill="#868E96"/>
<path d="M48.913 6.12184L48.1751 12.8325L53.0645 14.9159L55.1238 11.8395L48.9189 6.12146L48.913 6.12184Z" fill="#DEE2E6"/>
<path d="M53.0569 14.913L48.1679 12.8356L44.5284 14.1078L49.7358 14.8118L53.0569 14.913Z" fill="#ADB5BD"/>
<path d="M59.3078 11.2115C59.4618 11.2175 62.6095 6.56329 62.6095 6.56329L62.0936 5.71975L59.3084 11.2091L59.3078 11.2115Z" fill="#ADB5BD"/>
</g>
</g>
<defs>
<clipPath id="clip0_6785_101910">
<rect width="76" height="76" fill="white"/>
</clipPath>
<clipPath id="clip1_6785_101910">
<rect width="65.8584" height="71.8455" fill="white" transform="translate(2.18945 4.30811) rotate(-3.7509)"/>
</clipPath>
</defs>
</svg>
