<svg width="224" height="192" viewBox="0 0 224 192" fill="none" xmlns="http://www.w3.org/2000/svg">
<path d="M3.65391 116.663C3.76723 105.703 5.13604 94.7439 4.90828 83.8976C4.56496 65.1426 -6.03432 44.0149 5.02048 26.5026C14.4843 11.25 35.4585 6.0528 52.4429 5.03596C74.787 3.79316 97.1288 1.87246 119.472 1.19456C144.663 0.403685 185.587 -4.90649 205.078 15.6563C213.857 24.9209 215.566 38.7047 214.199 51.1328C212.83 63.5608 208.841 75.8759 207.815 88.3039C207.13 96.0997 207.358 104.912 210.893 111.917C217.846 125.475 226.509 135.305 223.318 151.461C219.671 169.764 204.965 185.13 186.841 190.327C171.793 194.507 160.393 190.101 146.601 185.356C134.062 181.062 119.472 179.481 106.363 181.175C81.8532 184.339 60.309 191.231 36.9406 179.255C22.4638 171.798 12.09 158.353 6.96149 143.1C4.22388 134.401 3.54172 125.475 3.65504 116.663H3.65391Z" fill="#F7F7F9"/>
<path d="M186.041 119.374C185.129 119.939 183.989 119.939 183.078 119.487C178.289 116.663 170.765 112.256 168.713 109.884C165.408 106.381 160.279 99.0374 167.345 94.2922C168.6 93.3883 170.765 93.1624 172.248 93.5013C173.5 93.8403 174.527 94.6311 175.555 95.422C176.579 96.2129 177.377 97.1167 178.175 98.0206C179.315 99.3764 179.656 97.4557 179.656 96.5518C179.885 92.2585 176.466 89.321 174.414 85.8185C172.704 82.9939 170.88 80.0564 170.424 76.6669C169.969 73.2775 170.881 69.888 172.248 66.7245C173.045 64.9168 174.072 63.222 175.439 61.7533C177.377 59.7196 179.999 58.9287 182.735 58.9287C186.611 58.9287 190.258 60.5105 192.766 63.561C195.388 66.9505 196.072 72.0347 194.362 75.8761C193.223 78.4746 191.627 80.7343 190.714 83.6718C189.916 86.3834 189.574 89.8859 191.513 92.2585C193.792 94.8571 198.239 91.9195 201.201 92.2585C203.596 92.4845 205.534 95.309 205.305 97.6817C204.85 101.749 198.809 111.014 186.041 119.374Z" fill="#EEEFF4"/>
<path opacity="0.2" fill-rule="evenodd" clip-rule="evenodd" d="M172.931 102.766L183.76 110.901L172.931 102.766ZM183.874 70.001V135.192V70.001ZM189.688 71.4697L183.989 77.1189L189.688 71.4697ZM175.096 75.8761L183.76 84.4627L175.096 75.8761ZM194.817 98.9245L183.988 106.494L194.817 98.9245Z" stroke="#52565E" stroke-width="0.5" stroke-linecap="round" stroke-linejoin="round"/>
<path d="M129.046 165.697C126.993 160.5 125.512 150.445 144.889 150.558C144.889 150.558 150.248 142.197 159.254 143.101C159.254 143.101 160.963 126.154 179.999 126.38C199.036 126.606 199.606 144.683 199.606 144.683C199.606 144.683 218.529 144.683 218.758 157.902C218.758 157.902 218.984 162.082 217.389 165.584C216.591 167.279 214.654 168.409 212.601 168.409C200.062 168.522 147.968 168.861 133.947 168.861C131.668 168.861 129.728 167.618 129.046 165.697ZM16.0802 153.156C17.5612 147.846 22.9186 142.875 37.0543 142.197C37.0543 142.197 35.23 122.651 54.4942 122.199C54.4942 122.199 70.4532 122.538 70.3387 140.389C70.3387 140.389 84.8178 140.954 86.1832 149.654C86.1832 149.654 106.816 143.553 102.029 168.748C102.029 168.748 50.0479 168.635 28.276 168.522C20.2976 168.522 13.9136 160.952 16.079 153.156H16.0802Z" fill="#EEEFF4"/>
<path d="M54.6072 122.538C54.0373 122.538 53.4673 122.425 52.8973 122.312C50.3897 121.747 48.2243 120.391 46.4011 118.922C43.3235 116.55 41.6125 113.499 41.6125 109.997C41.5003 107.737 44.5779 106.72 45.1467 104.687C46.1722 101.41 41.8403 98.9244 39.2182 96.7778C37.6239 95.535 34.3175 92.9364 37.1673 91.3546C40.7004 89.4339 47.1977 87.6262 46.9711 84.9146C46.9711 84.9146 47.4266 80.5083 43.7791 77.2318C43.7791 77.2318 41.3848 73.1645 45.2601 71.3567C49.1365 69.662 50.0475 65.2557 49.8198 61.8662C49.592 58.7027 51.0752 55.7652 55.8627 55.8782C62.3589 55.9911 60.1935 61.7532 60.649 65.0297C61.2201 68.6452 65.7787 70.3399 66.6909 73.7294C67.0331 74.8592 67.0331 75.989 66.6909 77.0059C66.122 78.7006 64.2966 79.7174 63.3844 81.2992C62.2456 83.2199 62.1323 85.7055 64.4121 87.1743C68.7429 89.7729 76.8368 91.6936 70.9083 96.3258C70.9083 96.3258 63.9555 100.28 64.2966 102.879C64.6388 105.477 67.4897 107.624 67.603 110.11C67.7152 111.465 67.1475 113.047 66.4631 114.29C64.7532 118.357 60.0791 122.651 54.6083 122.538H54.6072Z" fill="#EEEFF4"/>
<path opacity="0.4" d="M74.9594 60.2046C69.6996 68.6133 69.9973 80.3254 75.7533 88.3336C79.6237 93.7392 85.3797 97.3429 90.044 102.048C94.6091 106.853 98.1818 113.86 95.7007 119.966C93.2197 126.273 85.9751 128.775 80.6161 132.779C74.6616 137.084 70.5928 143.791 69.3026 151.098C68.0125 158.406 69.6996 166.114 73.7685 172.22H130.038C130.038 172.22 139.962 153.201 127.259 138.686C114.557 124.171 107.709 123.97 108.205 114.461C108.701 104.951 115.251 101.848 119.022 98.344C122.794 94.7402 141.153 86.4317 130.336 60.1045H74.9594V60.2046Z" fill="#A3C9FF"/>
<path d="M103.738 110.056C102.547 116.162 104.234 122.068 103.143 127.874C102.944 128.875 101.555 128.675 101.555 127.674C101.654 123.87 101.555 120.066 100.86 116.262C100.066 111.657 98.4785 107.153 95.6997 103.449C95.1043 102.648 95.8982 101.447 96.8906 101.847C100.066 103.148 104.334 107.453 103.738 110.056Z" fill="#1570EF"/>
<path d="M128.748 155.002C128.55 152.9 127.954 150.498 126.168 149.597C125.076 148.996 123.687 149.096 122.496 149.396C121.305 149.697 120.114 150.297 118.923 150.598C116.542 151.298 113.961 151.198 111.58 150.398C109.297 149.597 107.411 148.095 105.327 146.894C103.243 145.693 100.762 144.792 98.4798 145.392C94.5101 146.393 92.4261 151.298 88.4564 152.4C86.6701 152.9 84.7845 152.6 82.9982 152.199C81.2118 151.799 79.4255 151.298 77.5399 151.298C76.1505 151.399 74.5627 151.899 73.5703 152.8C73.3718 153 73.2725 153.1 73.0741 153.301C71.8832 155.002 71.6847 157.205 71.9824 159.207C72.3794 161.509 73.471 163.511 74.5627 165.513C75.8528 167.916 77.3414 170.218 79.624 171.82C82.3035 173.722 85.6777 172.42 89.0519 172.721C96.7927 173.321 105.03 173.722 112.77 173.121C116.839 172.821 120.71 173.221 123.885 170.718C126.168 168.917 127.657 166.314 128.351 163.511C129.046 160.808 129.046 157.905 128.748 155.002Z" fill="#1570EF"/>
<path d="M69.5005 174.923C69.5005 174.923 69.302 172.32 72.6762 170.818H131.923C131.923 170.818 135 172.42 135.396 174.822L69.5005 174.923Z" fill="#383B41"/>
<path d="M130.732 60.6048C130.633 60.6048 130.732 60.6048 130.732 60.6048L74.9588 60.2043C74.9588 60.2043 74.7603 60.1042 74.4626 59.8039C72.8747 58.5026 73.7679 56 75.7527 56L129.839 56.4004C132.022 56.5005 132.717 59.6037 130.732 60.6048Z" fill="#383B41"/>
<path d="M101.654 134.881C102.25 134.681 103.044 135.281 102.845 135.882C102.746 136.483 101.853 136.883 101.357 136.483C100.86 136.182 100.96 135.181 101.654 134.881Z" fill="#1570EF"/>
<g opacity="0.24">
<g opacity="0.24">
<path opacity="0.24" d="M89.9442 157.505C91.5321 156.304 93.7154 156.604 95.6009 157.005C97.5858 157.405 99.4713 158.106 101.456 157.805C102.945 157.605 104.334 156.904 105.724 156.504C107.212 156.204 108.899 156.404 109.792 157.705C103.441 159.807 96.3949 159.807 89.9442 157.505Z" fill="#202126"/>
</g>
</g>
<path d="M142.84 168.617L142.641 172.721C142.641 172.721 142.84 173.622 142.84 173.822C142.84 174.122 142.74 174.923 142.74 174.923C142.343 175.224 141.252 175.324 140.656 175.123L140.557 175.023C140.557 175.023 140.458 175.123 139.664 175.324C138.87 175.524 136.389 175.624 136.091 175.324C136.091 175.324 135.794 174.122 136.786 173.822C139.267 173.221 139.664 172.521 139.862 171.72C140.061 170.719 140.359 168.316 140.359 168.316L142.84 168.617Z" fill="#FFC2A0"/>
<path d="M139.068 172.62C139.068 172.62 139.763 172.52 140.16 172.921C140.557 173.321 140.755 173.621 141.35 173.421C142.74 173.121 142.641 172.02 143.236 172.52V175.323L135.594 175.724V173.621L139.068 172.62Z" fill="#202126"/>
<path d="M135.793 174.923C135.793 174.923 135.892 175.324 138.274 175.124C140.656 175.023 140.854 174.423 142.74 174.423L142.641 175.124L135.594 175.824L135.793 174.923Z" fill="#202126"/>
<path d="M148 128.976C146.511 125.172 141.847 124.872 140.954 128.876C139.167 137.685 141.251 149.697 139.366 172.121C140.358 172.821 141.748 173.022 142.839 172.521C143.931 172.621 150.183 134.482 148 128.976Z" fill="#2F3136"/>
<path d="M150.083 168.417L149.885 172.521C149.885 172.521 149.686 173.322 149.686 173.622C149.686 173.922 149.686 174.723 149.686 174.723C149.984 175.023 151.175 175.224 151.671 175.123L151.77 175.023C151.77 175.023 151.87 175.123 152.664 175.324C153.457 175.624 155.839 175.824 156.236 175.624C156.236 175.624 156.633 174.423 155.641 174.122C153.16 173.322 152.862 172.521 152.763 171.82C152.664 170.819 152.564 168.316 152.564 168.316L150.083 168.417Z" fill="#FFC2A0"/>
<path d="M153.458 172.721C153.458 172.721 152.763 172.621 152.366 172.921C151.969 173.221 151.672 173.522 151.175 173.321C149.786 172.921 149.984 171.82 149.389 172.32L149.091 175.123L156.634 176.124L156.832 174.022L153.458 172.721Z" fill="#202126"/>
<path d="M156.534 175.324C156.534 175.324 156.435 175.725 154.053 175.324C151.671 175.024 151.473 174.423 149.686 174.323V175.024L156.633 176.325L156.534 175.324Z" fill="#202126"/>
<path d="M155.343 128.275C154.748 124.171 147.603 124.871 147.503 129.076C147.404 135.282 149.687 172.52 149.687 172.52C151.175 173.321 151.374 173.121 153.061 172.42C153.855 153.901 157.527 142.69 155.343 128.275Z" fill="#2F3136"/>
<path fill-rule="evenodd" clip-rule="evenodd" d="M144.526 109.055C144.526 109.055 142.839 112.959 142.541 111.157C141.847 107.453 137.182 104.25 135.992 102.248C135.198 101.046 134.602 100.746 135.198 99.9452C136.984 97.1423 141.351 95.3404 145.122 94.0391C146.511 93.5386 146.213 94.8399 145.32 95.9411C144.427 96.842 139.167 99.745 139.564 100.446C139.961 101.247 142.641 103.649 146.313 104.45C149.786 105.251 146.61 108.254 144.526 109.055Z" fill="#FC3A52"/>
<path fill-rule="evenodd" clip-rule="evenodd" d="M150.977 106.653C150.977 106.653 150.481 105.952 151.076 107.854C151.473 109.256 157.328 114.761 160.008 117.064C162.687 119.366 162.786 119.066 166.558 118.766C169.336 118.565 172.512 118.165 173.207 117.664C173.207 117.664 173.306 117.564 173.207 117.464C173.008 117.264 172.314 116.964 172.314 116.563C172.314 116.263 172.016 116.263 171.619 116.463C171.321 116.563 165.069 116.363 163.58 116.163C162.092 115.963 157.527 108.255 156.832 107.554C156.137 106.653 153.259 105.352 150.977 106.653Z" fill="#FC3A52"/>
<path fill-rule="evenodd" clip-rule="evenodd" d="M151.572 99.4453L151.473 100.647C151.473 100.647 151.374 103.149 151.374 103.449C151.374 103.75 151.473 103.85 151.771 104.05C152.168 104.751 150.977 107.754 150.183 107.854C149.389 107.954 145.717 107.554 145.419 107.353C145.221 107.153 147.106 104.45 147.007 104.05C147.206 104.05 147.603 104.05 147.702 103.95C147.9 103.449 148.297 101.347 147.702 100.647C147.404 100.046 151.572 99.4453 151.572 99.4453Z" fill="#FFC2A0"/>
<path fill-rule="evenodd" clip-rule="evenodd" d="M152.764 104.451C152.466 104.05 151.871 103.95 151.871 103.95C151.474 105.352 149.588 107.053 148.298 106.853C148.099 106.853 148 106.753 147.802 106.653C146.611 105.752 147.702 103.85 147.702 103.85C147.206 103.65 146.71 103.95 146.71 103.95C141.946 104.651 142.443 112.159 142.046 118.866C141.748 125.572 139.962 130.177 140.061 131.679C140.16 132.38 141.053 132.58 141.649 132.68C144.13 132.98 146.611 133.08 149.191 132.98C150.481 132.98 151.771 132.88 152.962 132.78C153.657 132.68 155.542 132.88 155.84 132.079C156.932 129.076 153.558 118.665 156.634 110.657C157.527 108.355 156.237 105.352 152.764 104.451Z" fill="#FC3A52"/>
<path fill-rule="evenodd" clip-rule="evenodd" d="M146.114 98.0436C146.114 98.0436 145.618 97.7433 145.618 97.1426C145.618 96.6421 145.816 96.4419 145.816 96.4419C145.816 96.4419 145.419 95.2407 145.419 94.2397C145.419 93.2386 146.709 89.6349 152.664 90.5358C157.527 91.2366 156.336 97.3429 156.236 97.6432C156.137 98.0436 155.343 98.8444 154.152 98.9445C152.862 99.2448 149.091 99.7453 146.114 98.0436Z" fill="#202126"/>
<path fill-rule="evenodd" clip-rule="evenodd" d="M146.312 97.3429C146.908 97.443 147.404 98.0436 147.305 98.6442C147.205 99.2449 146.61 99.7454 146.015 99.6453C145.419 99.5452 144.923 98.9446 145.022 98.3439C145.121 97.7433 145.717 97.2428 146.312 97.3429Z" fill="#FFC2A0"/>
<path fill-rule="evenodd" clip-rule="evenodd" d="M154.252 98.4445C154.847 98.5446 155.343 99.1452 155.244 99.7458C155.145 100.346 154.549 100.847 153.954 100.747C153.358 100.647 152.862 100.046 152.961 99.4455C153.061 98.8449 153.656 98.3444 154.252 98.4445Z" fill="#FFC2A0"/>
<path fill-rule="evenodd" clip-rule="evenodd" d="M150.877 91.9377C153.06 92.238 154.549 94.3401 154.251 96.5424L153.755 100.146C153.457 102.348 151.373 103.85 149.19 103.55C147.007 103.249 145.518 101.147 145.816 98.9449L146.312 95.3412C146.61 93.239 148.694 91.6373 150.877 91.9377Z" fill="#FFC2A0"/>
<path fill-rule="evenodd" clip-rule="evenodd" d="M152.068 95.3406C150.778 93.9391 146.808 95.3406 146.312 95.1403C144.327 94.6398 147.503 91.937 148.098 91.4365C148.098 91.4365 152.266 91.4365 152.465 91.7368C152.564 91.8369 152.663 92.0371 152.862 92.2373C153.259 92.3375 153.755 92.4376 153.755 92.5377C153.854 92.6378 155.144 93.9391 155.343 94.2394C155.541 94.5397 156.038 97.743 154.152 97.6429C152.167 97.4427 152.564 95.8411 152.068 95.3406Z" fill="#202126"/>
<path fill-rule="evenodd" clip-rule="evenodd" d="M147.702 101.547C147.9 100.647 148.297 100.246 148.892 100.246C149.786 100.346 149.587 101.948 149.587 101.948L147.702 101.547Z" fill="white"/>
<path fill-rule="evenodd" clip-rule="evenodd" d="M173.406 117.864C173.406 117.864 173.505 117.864 173.406 117.864C173.703 117.864 174.001 117.864 174.2 117.764C175.291 117.564 176.681 116.963 176.78 116.563C176.978 116.162 176.383 116.363 176.383 116.363C176.383 116.363 176.879 116.062 176.978 115.762C176.978 115.462 176.581 115.462 176.581 115.462C176.581 115.462 177.078 115.061 176.978 114.861C176.879 114.661 176.482 114.761 176.482 114.761C176.482 114.761 176.879 114.361 176.681 114.26C176.482 114.16 175.589 114.761 175.093 114.861C174.795 114.961 174.2 115.061 173.803 115.161C173.803 115.061 173.803 115.061 173.803 114.961C174.1 114.06 173.505 113.159 173.306 113.76C173.207 114.06 173.108 114.461 172.81 114.661C172.314 115.061 171.917 115.862 171.917 116.363C172.314 117.464 172.91 117.764 173.406 117.864Z" fill="#FFC2A0"/>
<path fill-rule="evenodd" clip-rule="evenodd" d="M173.406 117.864C173.406 117.864 173.505 117.864 173.406 117.864C173.703 117.864 174.001 117.864 174.2 117.764C174.398 117.764 174.597 117.664 174.795 117.564C174.398 117.664 174.001 117.664 173.803 117.664C172.81 117.463 172.314 116.462 172.314 115.361C172.016 115.762 171.917 116.162 171.917 116.563C172.314 117.463 172.91 117.764 173.406 117.864Z" fill="#FFC2A0"/>
<path opacity="0.2" d="M142.344 110.357C142.443 107.153 142.741 106.553 141.55 105.752C140.359 104.951 136.29 102.248 135.198 100.046C134.702 100.847 135.298 101.147 136.092 102.348C137.084 104.15 141.252 106.953 142.344 110.357Z" fill="#202126"/>
<path opacity="0.2" d="M156.335 111.558C156.137 112.058 156.037 112.659 155.839 113.259C157.328 114.761 158.915 116.162 160.007 117.063C162.687 119.366 162.786 119.065 166.557 118.765C169.038 118.565 171.817 118.265 172.908 117.764C172.71 117.664 172.511 117.564 172.313 117.264C170.03 117.764 166.259 118.465 164.374 118.365C161.893 118.164 157.526 112.959 156.335 111.558Z" fill="#202126"/>
<path d="M147.206 83.0283C147.305 83.0283 148.496 82.8281 148.496 82.8281L149.29 87.6331H148.595L147.206 83.0283Z" fill="#FC3A52"/>
<path d="M151.671 82.0273L152.962 82.1274L152.664 86.8323L151.473 86.7322L151.671 82.0273Z" fill="#FC3A52"/>
<path d="M151.126 88.8534L151.213 87.7558L152.4 87.8515L152.313 88.9491L151.126 88.8534Z" fill="#FC3A52"/>
<path opacity="0.1" d="M108.502 176.124C141.004 176.124 167.352 175.004 167.352 173.622C167.352 172.24 141.004 171.119 108.502 171.119C75.9999 171.119 49.6519 172.24 49.6519 173.622C49.6519 175.004 75.9999 176.124 108.502 176.124Z" fill="#202126"/>
</svg>
