<svg width="225" height="192" viewBox="0 0 225 192" fill="none" xmlns="http://www.w3.org/2000/svg">
<path d="M4.15391 116.663C4.26723 105.703 5.63604 94.7439 5.40828 83.8976C5.06496 65.1426 -5.53432 44.0149 5.52048 26.5026C14.9843 11.25 35.9585 6.0528 52.9429 5.03596C75.287 3.79316 97.6288 1.87246 119.972 1.19456C145.163 0.403685 186.087 -4.90649 205.578 15.6563C214.357 24.9209 216.066 38.7047 214.699 51.1328C213.33 63.5608 209.341 75.8759 208.315 88.3039C207.63 96.0997 207.858 104.912 211.393 111.917C218.346 125.475 227.009 135.305 223.818 151.461C220.171 169.764 205.465 185.13 187.341 190.327C172.293 194.507 160.893 190.101 147.101 185.356C134.562 181.062 119.972 179.481 106.863 181.175C82.3532 184.339 60.809 191.231 37.4406 179.255C22.9638 171.798 12.59 158.353 7.46149 143.1C4.72388 134.401 4.04172 125.475 4.15504 116.663H4.15391Z" fill="#2F3136"/>
<path d="M186.542 119.374C185.629 119.939 184.489 119.939 183.578 119.487C178.79 116.663 171.266 112.256 169.214 109.884C165.908 106.381 160.78 99.0374 167.846 94.2922C169.1 93.3883 171.266 93.1624 172.749 93.5013C174.001 93.8403 175.028 94.6311 176.056 95.422C177.08 96.2129 177.878 97.1167 178.675 98.0206C179.815 99.3764 180.156 97.4557 180.156 96.5518C180.385 92.2585 176.967 89.321 174.915 85.8185C173.205 82.9939 171.38 80.0564 170.925 76.6669C170.469 73.2775 171.381 69.888 172.749 66.7245C173.546 64.9168 174.572 63.222 175.94 61.7533C177.878 59.7196 180.5 58.9287 183.236 58.9287C187.111 58.9287 190.759 60.5105 193.267 63.561C195.889 66.9505 196.573 72.0347 194.863 75.8761C193.723 78.4747 192.128 80.7343 191.215 83.6718C190.417 86.3834 190.075 89.8859 192.013 92.2585C194.293 94.8571 198.74 91.9196 201.702 92.2585C204.097 92.4845 206.035 95.309 205.806 97.6817C205.35 101.749 199.31 111.014 186.542 119.374Z" fill="#383B41"/>
<path opacity="0.2" fill-rule="evenodd" clip-rule="evenodd" d="M173.43 102.766L184.259 110.901L173.43 102.766ZM184.373 70.001V135.192V70.001ZM190.187 71.4697L184.488 77.1189L190.187 71.4697ZM175.595 75.8761L184.259 84.4627L175.595 75.8761ZM195.316 98.9245L184.487 106.494L195.316 98.9245Z" stroke="#52565E" stroke-width="0.5" stroke-linecap="round" stroke-linejoin="round"/>
<path d="M129.546 165.696C127.493 160.499 126.012 150.444 145.389 150.557C145.389 150.557 150.748 142.196 159.754 143.1C159.754 143.1 161.463 126.153 180.499 126.379C199.536 126.605 200.106 144.682 200.106 144.682C200.106 144.682 219.029 144.682 219.258 157.901C219.258 157.901 219.484 162.081 217.889 165.583C217.091 167.278 215.154 168.408 213.101 168.408C200.562 168.521 148.468 168.86 134.447 168.86C132.168 168.86 130.228 167.617 129.546 165.696ZM16.5802 153.155C18.0612 147.845 23.4186 142.874 37.5543 142.196C37.5543 142.196 35.73 122.65 54.9942 122.198C54.9942 122.198 70.9532 122.537 70.8387 140.388C70.8387 140.388 85.3178 140.953 86.6832 149.653C86.6832 149.653 107.316 143.552 102.529 168.747C102.529 168.747 50.5479 168.634 28.776 168.521C20.7976 168.521 14.4136 160.951 16.579 153.155H16.5802Z" fill="#383B41"/>
<path d="M55.1075 122.538C54.5375 122.538 53.9675 122.425 53.3976 122.312C50.89 121.747 48.7246 120.391 46.9013 118.922C43.8238 116.55 42.1128 113.499 42.1128 109.997C42.0006 107.737 45.0781 106.72 45.647 104.687C46.6725 101.41 42.3405 98.9244 39.7185 96.7778C38.1242 95.535 34.8177 92.9364 37.6675 91.3546C41.2006 89.4339 47.6979 87.6262 47.4713 84.9146C47.4713 84.9146 47.9268 80.5083 44.2793 77.2318C44.2793 77.2318 41.885 73.1645 45.7603 71.3567C49.6367 69.662 50.5478 65.2557 50.32 61.8662C50.0922 58.7027 51.5755 55.7652 56.3629 55.8782C62.8592 55.9911 60.6938 61.7532 61.1493 65.0297C61.7204 68.6452 66.2789 70.3399 67.1911 73.7294C67.5333 74.8592 67.5333 75.989 67.1911 77.0058C66.6223 78.7006 64.7968 79.7174 63.8846 81.2992C62.7458 83.2199 62.6325 85.7055 64.9124 87.1743C69.2432 89.7729 77.3371 91.6936 71.4086 96.3258C71.4086 96.3258 64.4557 100.28 64.7968 102.879C65.139 105.477 67.9899 107.624 68.1033 110.11C68.2155 111.465 67.6477 113.047 66.9633 114.29C65.2535 118.357 60.5793 122.651 55.1086 122.538H55.1075Z" fill="#383B41"/>
<path d="M123.948 85.3438C123.948 85.3438 123.624 95.8202 130.338 97.4174L126.807 109.379L113.225 107.599L111.34 102.943L114.22 96.6887C114.22 96.6887 115.629 95.7528 114.914 93.699L123.948 85.3438Z" fill="#F9C1A0"/>
<path d="M110.044 77.3201C110.044 77.3201 107.304 92.4559 114.517 94.0306C114.517 94.0306 120.957 94.7942 123.294 85.8226C123.294 85.8226 125.504 86.4365 126.413 83.9759C126.413 83.9759 127.647 80.0728 124.725 81.3056C124.725 81.3056 126.787 76.3818 121.224 75.2813C121.224 75.2813 119.159 74.9344 115.896 76.5889C115.271 76.9034 114.624 77.1554 113.94 77.2652C112.834 77.4374 110.745 77.6695 110.044 77.3201Z" fill="#F9C1A0"/>
<path d="M112.828 143.803C114.711 143.803 116.591 143.803 118.474 143.803C118.545 143.813 118.618 143.83 118.689 143.83C120.248 143.858 121.804 143.873 123.359 143.913C125.152 143.957 126.943 144.007 128.733 144.085C130.838 144.172 132.946 144.284 135.047 144.472C136.598 144.611 138.151 144.736 139.674 145.098C142.694 145.814 144.714 147.731 145.656 150.838C146.154 152.485 146.329 154.207 146.511 155.921C146.559 156.363 146.563 156.807 146.661 157.239C146.661 163.618 146.661 169.991 146.661 176.37C146.608 176.435 146.618 176.515 146.613 176.59C146.459 178.461 146.272 180.331 145.874 182.165C145.095 185.753 143.016 188.005 139.582 188.781C137.597 189.23 135.568 189.34 133.548 189.484C131.03 189.664 128.513 189.764 125.991 189.836C122.642 189.934 119.293 190.008 115.945 189.998C109.87 189.981 103.798 189.869 97.7351 189.447C95.8027 189.31 93.8726 189.145 91.9638 188.773C89.7708 188.346 88.023 187.186 86.7442 185.252C85.9461 184.047 85.5861 182.671 85.3445 181.249C84.9822 179.138 84.7951 177.004 84.653 174.863C84.4707 172.1 84.3641 169.333 84.383 166.565C84.4043 163.178 84.537 159.802 84.8543 156.43C85.0224 154.654 85.1906 152.874 85.65 151.152C86.4837 148.023 88.3948 145.979 91.3835 145.13C92.8495 144.714 94.3722 144.619 95.8808 144.479C98.152 144.272 100.428 144.16 102.704 144.067C105.752 143.947 108.8 143.865 111.85 143.838C112.165 143.843 112.499 143.863 112.828 143.803Z" fill="#6AA8FF"/>
<path fill-rule="evenodd" clip-rule="evenodd" d="M108.503 173.876C108.502 174.019 108.545 174.158 108.626 174.275L108.668 174.333C108.712 174.389 108.763 174.438 108.819 174.481C108.838 174.496 108.858 174.509 108.878 174.521L108.94 174.558C109.008 174.596 109.081 174.624 109.157 174.641C109.358 174.687 109.57 174.665 109.757 174.579L110.211 174.332C110.227 174.325 110.235 174.318 110.252 174.31C110.434 174.217 110.615 174.119 110.798 174.026L111.833 173.54L112.372 173.316C112.432 173.292 112.495 173.27 112.555 173.246L112.74 173.177L112.835 173.144C112.958 173.096 113.088 173.059 113.214 173.017C113.408 172.952 113.71 172.869 113.909 172.821C114.267 172.733 114.631 172.671 114.998 172.636C115.138 172.626 115.278 172.614 115.418 172.615C115.445 172.615 115.457 172.615 115.48 172.615C115.526 172.615 115.556 172.615 115.601 172.615L116.195 172.655C116.344 172.675 116.491 172.693 116.638 172.721C116.786 172.75 116.919 172.774 117.059 172.809L117.269 172.859C117.471 172.909 117.661 172.97 117.858 173.028L118.051 173.092C118.113 173.115 118.175 173.134 118.24 173.156C118.442 173.228 118.689 173.318 118.882 173.402L119.151 173.515L119.238 173.552L119.851 173.831C119.879 173.842 119.906 173.859 119.934 173.872C119.962 173.884 119.992 173.898 120.021 173.913L120.821 174.321L120.863 174.345L120.945 174.388C120.96 174.395 120.968 174.401 120.985 174.41C121.094 174.472 121.207 174.53 121.323 174.581C121.543 174.66 121.785 174.652 121.999 174.56C122.055 174.535 122.108 174.505 122.158 174.471C122.287 174.382 122.388 174.258 122.449 174.114C122.484 174.027 122.501 173.934 122.5 173.84C122.498 173.746 122.478 173.653 122.441 173.567C122.412 173.497 122.368 173.405 122.336 173.331C122.303 173.256 122.27 173.172 122.23 173.093C122.191 173.015 122.164 172.933 122.125 172.853C122.107 172.813 122.092 172.775 122.074 172.734L121.969 172.498C121.951 172.456 121.934 172.419 121.917 172.379C121.901 172.339 121.884 172.301 121.866 172.26L121.557 171.546C121.539 171.505 121.523 171.467 121.506 171.427L121.196 170.712C121.161 170.632 121.127 170.552 121.091 170.471L120.576 169.282C120.477 169.041 120.366 168.806 120.261 168.564C120.229 168.486 120.19 168.406 120.156 168.327C120.04 168.048 119.91 167.774 119.794 167.494C119.679 167.213 119.548 166.938 119.433 166.654L119.223 166.176C119.206 166.137 119.188 166.098 119.171 166.057L118.811 165.224C118.776 165.143 118.742 165.067 118.706 164.987L118.258 163.917C118.153 163.678 118.056 163.439 117.95 163.203L117.587 162.362C117.501 162.164 117.413 161.968 117.331 161.769L116.865 160.695C116.73 160.38 116.594 160.065 116.454 159.743C116.409 159.623 116.353 159.507 116.286 159.398C116.212 159.287 116.113 159.195 115.998 159.13C115.89 159.068 115.772 159.028 115.649 159.01C115.391 158.973 115.129 159.04 114.92 159.196C114.903 159.208 114.889 159.222 114.873 159.235C114.843 159.262 114.815 159.29 114.789 159.321C114.775 159.335 114.763 159.351 114.752 159.367C114.69 159.454 114.64 159.549 114.603 159.65C114.514 159.845 114.431 160.046 114.345 160.242L114.294 160.361C114.244 160.482 114.189 160.599 114.139 160.719C114.074 160.879 114.001 161.034 113.929 161.194C113.921 161.215 113.913 161.231 113.904 161.252C113.894 161.273 113.886 161.293 113.878 161.313C113.869 161.333 113.861 161.353 113.851 161.374L113.672 161.794L113.618 161.915C113.478 162.23 113.343 162.545 113.206 162.867L112.996 163.344C112.978 163.385 112.963 163.423 112.945 163.463L112.893 163.582L112.339 164.894C112.322 164.935 112.306 164.972 112.287 165.012L111.972 165.729C111.935 165.809 111.907 165.887 111.867 165.968C111.806 166.098 111.719 166.306 111.657 166.445L111.452 166.919C111.416 167 111.38 167.079 111.347 167.159C111.249 167.399 111.137 167.634 111.032 167.873L110.671 168.707C110.655 168.748 110.638 168.786 110.62 168.826C110.572 168.931 110.515 169.079 110.466 169.184L110.36 169.422C110.278 169.622 110.186 169.821 110.101 170.021C109.982 170.299 109.857 170.573 109.742 170.851C109.607 171.167 109.46 171.482 109.328 171.806C109.311 171.846 109.291 171.887 109.275 171.927C109.26 171.967 109.241 172.005 109.224 172.046C109.19 172.123 109.157 172.21 109.119 172.283L108.977 172.636C108.96 172.675 108.942 172.713 108.925 172.755L108.872 172.876L108.615 173.473C108.546 173.596 108.507 173.732 108.5 173.873L108.503 173.876ZM112.885 169.998C112.885 170.052 112.901 170.104 112.931 170.148L112.947 170.169C112.963 170.19 112.982 170.208 113.004 170.224C113.01 170.23 113.018 170.235 113.026 170.239L113.049 170.253C113.074 170.267 113.101 170.278 113.13 170.284C113.205 170.301 113.284 170.293 113.355 170.261L113.524 170.169L113.538 170.16C113.607 170.126 113.674 170.089 113.748 170.055L114.135 169.873L114.337 169.789L114.405 169.764L114.473 169.738C114.485 169.734 114.497 169.73 114.509 169.725C114.555 169.707 114.604 169.694 114.651 169.678C114.723 169.654 114.837 169.622 114.911 169.606C115.045 169.572 115.18 169.549 115.317 169.536C115.37 169.536 115.422 169.528 115.476 169.528H115.49C115.507 169.528 115.519 169.528 115.535 169.528L115.757 169.543C115.813 169.551 115.868 169.557 115.923 169.568C115.978 169.578 116.028 169.588 116.08 169.6L116.156 169.619C116.232 169.638 116.303 169.661 116.377 169.682L116.449 169.706L116.52 169.731C116.595 169.757 116.688 169.79 116.759 169.822L116.864 169.864L116.897 169.879L117.126 169.984L117.157 169.998L117.19 170.014L117.488 170.167L117.504 170.175L117.535 170.192L117.549 170.199C117.592 170.22 117.631 170.247 117.676 170.264C117.758 170.294 117.849 170.291 117.929 170.256C117.949 170.246 117.969 170.235 117.988 170.222C118.035 170.189 118.072 170.142 118.093 170.089C118.107 170.057 118.114 170.022 118.114 169.987C118.114 169.952 118.107 169.917 118.093 169.885C118.083 169.859 118.066 169.824 118.055 169.797C118.043 169.769 118.03 169.737 118.017 169.707C118.003 169.678 117.992 169.648 117.978 169.618C117.964 169.589 117.965 169.589 117.959 169.574L117.92 169.485L117.901 169.441C117.894 169.426 117.889 169.411 117.881 169.397L117.766 169.13C117.759 169.114 117.754 169.1 117.747 169.084L117.631 168.818C117.619 168.788 117.606 168.758 117.592 168.728L117.4 168.284C117.363 168.194 117.321 168.105 117.284 168.015C117.272 167.986 117.257 167.956 117.246 167.927C117.203 167.822 117.154 167.717 117.11 167.612C117.066 167.507 117.019 167.402 116.976 167.296L116.898 167.118L116.879 167.074L116.745 166.759C116.732 166.728 116.718 166.701 116.706 166.67L116.532 166.269C116.495 166.18 116.456 166.09 116.417 166.002L116.281 165.687C116.249 165.614 116.216 165.54 116.186 165.465L116.016 165.073C115.965 164.954 115.91 164.835 115.862 164.717C115.845 164.672 115.824 164.629 115.799 164.588C115.773 164.545 115.737 164.509 115.694 164.483C115.654 164.461 115.61 164.446 115.564 164.439C115.468 164.425 115.37 164.45 115.292 164.508L115.274 164.523C115.261 164.534 115.254 164.543 115.242 164.555L115.229 164.572C115.206 164.605 115.187 164.64 115.173 164.678C115.14 164.751 115.109 164.826 115.077 164.899L115.057 164.943C115.04 164.988 115.019 165.033 115 165.078C114.981 165.123 114.948 165.195 114.923 165.255L114.914 165.276L114.904 165.299C114.901 165.307 114.897 165.315 114.894 165.323L114.826 165.478L114.807 165.523C114.755 165.641 114.702 165.761 114.653 165.879L114.575 166.058L114.556 166.102C114.55 166.117 114.544 166.13 114.537 166.146L114.327 166.636L114.308 166.681L114.192 166.949C114.178 166.978 114.168 167.008 114.154 167.037C114.131 167.086 114.098 167.164 114.076 167.216L114 167.393C113.987 167.424 113.973 167.453 113.961 167.482C113.924 167.573 113.882 167.66 113.845 167.75L113.71 168.065L113.691 168.11C113.673 168.152 113.652 168.204 113.633 168.244L113.594 168.332C113.564 168.408 113.529 168.481 113.497 168.556C113.453 168.661 113.407 168.766 113.363 168.871C113.319 168.976 113.258 169.108 113.208 169.227C113.202 169.243 113.195 169.258 113.189 169.274L113.17 169.318C113.157 169.346 113.144 169.379 113.132 169.406L113.074 169.539L113.054 169.583L113.035 169.629L112.939 169.851C112.913 169.898 112.898 169.949 112.895 170.002L112.885 169.998Z" fill="white"/>
<path d="M129.285 142.914L129.679 144.17C129.679 144.17 126.493 151.043 105.343 148.342L97.4114 166.563L95.8223 158.19L98.702 141.762L101.283 140.716L107.142 138.308L126.901 140.716L129.285 142.914Z" fill="#1570EF"/>
<path d="M68.004 171.514C68.004 171.514 66.6968 174.044 64.9111 175.901C64.9111 175.901 64.4659 180.568 69.3113 180.568C69.3113 180.568 71.5422 177.194 72.345 174.354L68.004 171.514Z" fill="#F9C1A0"/>
<path d="M87.2399 178.988C87.2399 178.988 86.9178 181.132 85.8379 182.152C85.8379 182.152 87.9954 184.426 89.3973 184.084L91.7703 183.173C91.7703 183.173 91.8248 182.013 93.2836 178.509L87.2399 178.988Z" fill="#F9C1A0"/>
<path d="M67.5299 171.728C68.0178 172.756 69.3179 174.825 72.1432 175.724C72.5364 175.846 72.9603 175.721 73.2587 175.422C76.3634 172.267 93.77 154.259 96.5669 144.017C96.5669 144.017 132.529 154.032 132.853 138.008L121.483 126.628L91.5201 129.962C90.1205 130.119 88.8772 130.975 88.1833 132.268L67.5702 170.6C67.3807 170.947 67.3594 171.374 67.5299 171.728Z" fill="#2F3136"/>
<path d="M103.77 145.652L94.0773 178.094C93.8854 178.741 93.4142 179.242 92.8055 179.449C91.7114 179.821 89.7765 180.108 87.2402 178.988C86.435 178.633 85.9637 177.728 86.0774 176.812C86.0774 176.812 86.7594 159.387 90.9133 141.067C98.179 144.411 103.77 145.652 103.77 145.652Z" fill="#2F3136"/>
<path d="M104.711 110.437C104.711 110.437 104.711 98.293 115.098 96.4388C115.501 96.3689 115.898 96.2491 116.268 96.0694L117.329 95.5479C117.329 95.5479 117.007 105.662 127.358 96.002C127.358 96.002 139.747 96.6833 138.79 113.092L134.693 122.712C134.693 122.712 138.468 139.647 133.075 138.397L122.181 128.737L105.14 127.713L104.711 110.437Z" fill="#FC3A52"/>
<path d="M104.711 110.437C104.711 112.825 104.818 122.483 104.818 123.848L99.9512 126.328L100.181 128.891L108.877 128.302C110.646 128.1 111.951 126.463 111.833 124.589L111.056 110.908L104.711 110.437Z" fill="#F9C1A0"/>
<path d="M131.058 113.693C131.058 113.693 130.757 120.406 131.532 123.974C131.532 123.974 118.355 123.73 101.635 127.531C101.323 127.601 101.116 127.925 101.109 128.262L108.046 129.145L133.831 131.324C136.581 131.464 138.329 129.021 138.414 126.123L138.795 113.161L131.058 113.693Z" fill="#F9C1A0"/>
<path d="M98.9936 115.986L100.277 130.086C100.336 130.747 100.58 131.217 100.862 131.217H108.315L106.726 114.244H99.5762C98.8539 114.292 98.9083 114.843 98.9936 115.986Z" fill="#2F3136"/>
<path d="M107.197 115.22C107.141 114.694 107.133 114.23 106.729 114.244L108.318 131.217C108.318 131.217 108.472 131.152 108.647 131.062L107.197 115.22Z" fill="#2F3136"/>
<path d="M103.398 123.69C103.789 123.663 104.084 123.322 104.057 122.929C104.03 122.535 103.69 122.239 103.299 122.267C102.907 122.294 102.612 122.635 102.639 123.028C102.667 123.421 103.006 123.718 103.398 123.69Z" fill="white"/>
<path d="M52.5843 176.463L65.6215 185.06C66.4196 185.587 67.4758 185.282 67.9115 184.399C68.5439 183.121 69.3183 181.384 69.4414 180.331C69.4414 180.331 65.9885 180.785 64.911 175.899C64.911 175.899 60.9181 177.004 54.1781 174.304C53.9721 174.222 53.7495 174.197 53.534 174.239C53.1243 174.319 52.492 174.551 52.2101 175.215C52.0301 175.649 52.203 176.213 52.5843 176.463Z" fill="#2F3136"/>
<path d="M85.837 182.152C85.837 182.152 83.0804 185.264 78.4149 186.235C77.8844 186.345 77.4084 186.687 77.1432 187.186C77.1361 187.201 77.129 187.213 77.1219 187.228C76.6695 188.114 77.2592 189.192 78.2113 189.255C80.6553 189.417 88.191 189.771 91.5089 188.354C92.1152 188.097 92.5202 187.493 92.5865 186.809C92.6836 185.793 92.6504 184.241 91.7742 183.173C91.7694 183.176 87.9921 184.086 85.837 182.152Z" fill="#2F3136"/>
<path d="M104.937 123.858C105.633 124.103 108.442 125.183 109.484 127.155C109.484 127.155 108.087 128.68 106.699 126.608C106.699 126.608 106.197 125.904 105.747 125.495C105.33 125.113 104.617 124.687 104.731 123.99C104.747 123.89 104.845 123.826 104.937 123.858Z" fill="#F9C1A0"/>
<path d="M107.068 125.567C107.068 125.567 106.55 127.329 101.185 126.69C100.792 126.643 99.5774 127.242 102.116 128.263C104.072 129.049 108.461 130.214 109.46 128.53C110.462 126.845 107.068 125.567 107.068 125.567Z" fill="#F9C1A0"/>
<path d="M99.3159 120.062C99.522 119.939 99.7564 119.934 99.9885 119.957C100.199 119.974 100.438 119.942 100.609 120.101C101.061 120.523 100.562 121.155 100.735 121.656C100.803 121.858 100.952 122.061 100.995 122.27C101.031 122.457 100.912 122.702 100.87 122.887C100.822 123.104 100.96 123.268 100.969 123.49C100.978 123.718 100.848 123.892 100.834 124.119C100.815 124.394 100.976 124.579 101.038 124.856C101.094 125.113 100.957 125.452 100.697 125.577C100.427 125.704 100.05 125.796 99.8085 125.634C99.1289 125.177 98.9228 123.416 98.8802 122.717C98.847 122.17 98.7547 120.398 99.3159 120.062Z" fill="#F9C1A0"/>
<path d="M117.052 103.611C116.919 104.21 116.301 104.532 115.78 104.253C110.307 101.318 104.515 92.0345 106.618 79.3894C106.788 78.3637 107.136 77.3779 107.65 76.4895C109.37 73.5297 114.215 67.5578 124.034 71.0791C124.034 71.0791 131.041 73.5697 132.462 87.1406C132.524 87.7321 132.649 88.6954 132.753 89.2819C133.35 92.5386 135.176 102.284 136.339 105.85C136.758 107.135 136.571 108.58 135.766 109.643C134.887 110.801 133.248 111.667 130.295 110.829C130.295 110.829 119.686 107.974 122.141 90.0181C122.265 89.1221 122.513 88.2487 122.838 87.4127L122.84 87.4077C122.921 87.198 123.044 87.0109 123.198 86.8561C124.022 86.0002 126.62 82.9356 123.02 81.7003C122.932 81.6703 122.84 81.6553 122.748 81.6553C121.772 81.6603 115.69 81.573 112.979 78.753C112.673 78.4335 112.183 78.3861 111.811 78.6182C111.567 78.7705 111.29 78.9901 111.006 79.3045C110.227 80.1655 109.857 81.3484 109.886 82.5388C109.959 85.6957 109.592 94.026 116.072 93.3896C116.948 93.3047 117.708 94.0334 117.744 94.9568C117.819 96.9508 117.789 100.28 117.052 103.611Z" fill="#202126"/>
</svg>
