<svg width="19" height="19" viewBox="0 0 19 19" fill="none" xmlns="http://www.w3.org/2000/svg">
    <g clip-path="url(#clip0_1345_5819)">
        <path
            d="M17.373 5.70201H14.1738V17.3739H13.1191V9.92076H9.95508V17.3739H8.90039V7.81139H5.73633V17.3739H4.68164V12.0301H1.48242V17.3739H0.427734V18.4286H18.4277V17.3739H17.373V5.70201Z"
            fill="#202126" />
        <path
            d="M3.09961 9.92076C3.97192 9.92076 4.68164 9.21104 4.68164 8.33873C4.68164 8.03304 4.59059 7.75 4.43994 7.50789L6.80324 4.55394C6.96556 4.61024 7.13708 4.64732 7.31836 4.64732C7.64218 4.64732 7.94307 4.54886 8.19411 4.38118L10.034 5.76079C9.98735 5.90979 9.95508 6.06511 9.95508 6.22935C9.95508 7.10167 10.6648 7.81139 11.5371 7.81139C12.4094 7.81139 13.1191 7.10167 13.1191 6.22935C13.1191 5.98587 13.0593 5.7579 12.9605 5.55164L15.0781 3.43402C15.2844 3.53276 15.5124 3.59264 15.7559 3.59264C16.6282 3.59264 17.3379 2.88292 17.3379 2.0106C17.3379 1.13829 16.6282 0.428574 15.7559 0.428574C14.8835 0.428574 14.1738 1.13829 14.1738 2.0106C14.1738 2.25409 14.2337 2.48206 14.3324 2.68832L12.2148 4.80594C12.0086 4.7072 11.7806 4.64732 11.5371 4.64732C11.2133 4.64732 10.9124 4.74579 10.6614 4.91347L8.82143 3.53386C8.86812 3.38486 8.90039 3.22954 8.90039 3.06529C8.90039 2.19298 8.19067 1.48326 7.31836 1.48326C6.44604 1.48326 5.73633 2.19298 5.73633 3.06529C5.73633 3.37099 5.82738 3.65402 5.97803 3.89613L3.61473 6.85008C3.45241 6.79378 3.28088 6.7567 3.09961 6.7567C2.22729 6.7567 1.51758 7.46642 1.51758 8.33873C1.51758 9.21104 2.22729 9.92076 3.09961 9.92076Z"
            fill="#202126" />
    </g>
    <defs>
        <clipPath id="clip0_1345_5819">
            <rect width="18" height="18" fill="white" transform="translate(0.427734 0.428574)" />
        </clipPath>
    </defs>
</svg>
