<svg width="164" height="120" viewBox="0 0 164 120" fill="none" xmlns="http://www.w3.org/2000/svg">
<rect width="164" height="120" rx="8" fill="#F4ECD7"/>
<path fill-rule="evenodd" clip-rule="evenodd" d="M69.25 72.068C69.2492 72.318 69.3287 72.562 69.4771 72.7658L69.5521 72.8677C69.6306 72.9642 69.7214 73.0505 69.8224 73.1246C69.8564 73.149 69.8905 73.1734 69.9268 73.1955L70.0404 73.2598C70.161 73.3263 70.2912 73.3748 70.4265 73.4037C70.7879 73.4838 71.1662 73.4457 71.5031 73.2952L72.314 72.8655L72.3867 72.8256C72.7137 72.6639 73.0363 72.4911 73.3633 72.3316L75.2167 71.4832L76.182 71.0911C76.2887 71.049 76.4091 71.0114 76.509 70.9693L76.8383 70.8497C76.8974 70.8297 76.9519 70.8142 77.0087 70.7921C77.2358 70.7079 77.4629 70.6437 77.6901 70.5706C78.0376 70.4576 78.5781 70.3136 78.9347 70.2317C79.5742 70.0759 80.2249 69.9678 80.8812 69.9082C81.1356 69.8883 81.3855 69.8684 81.6376 69.8706C81.6875 69.8706 81.708 69.8706 81.7489 69.8706C81.8306 69.8706 81.8851 69.8706 81.9646 69.8706L83.0298 69.9393C83.2956 69.9747 83.559 70.0079 83.8225 70.0567C84.086 70.1054 84.3267 70.1475 84.572 70.2073L84.9423 70.2959C85.3034 70.3845 85.6441 70.4908 85.9961 70.5927L86.3437 70.7035C86.455 70.7434 86.5708 70.7766 86.6798 70.8165C87.0432 70.9405 87.4838 71.0978 87.8291 71.244L88.3106 71.4411C88.3651 71.4611 88.4151 71.4832 88.4651 71.5054L89.562 71.9927C89.6143 72.0126 89.662 72.0414 89.712 72.0636L89.8687 72.1367L91.2973 72.8477L91.3745 72.8898L91.5199 72.9629L91.5926 73.0028C91.797 73.1003 91.9832 73.2243 92.1967 73.3018C92.5906 73.4395 93.0233 73.4261 93.4074 73.2642C93.5075 73.2213 93.6033 73.1694 93.6935 73.1091C93.9241 72.9541 94.1045 72.7382 94.2136 72.4867C94.2769 72.3347 94.3081 72.1718 94.3054 72.0077C94.3027 71.8437 94.2661 71.6819 94.1978 71.5319C94.1478 71.4101 94.0683 71.2484 94.0138 71.1199C93.9593 70.9915 93.8957 70.843 93.8298 70.7057C93.7639 70.5684 93.7094 70.4244 93.6435 70.2848C93.6095 70.2161 93.5822 70.1497 93.5504 70.0788L93.3664 69.6646L93.2756 69.4586C93.2438 69.3877 93.2166 69.3212 93.1825 69.2503L92.6283 68.0032C92.5987 67.9323 92.5692 67.8681 92.5374 67.795L91.9833 66.5479C91.9197 66.4083 91.8606 66.2688 91.797 66.1292L90.8885 64.0514C90.7113 63.6305 90.5092 63.2207 90.332 62.7998C90.273 62.6625 90.2048 62.5229 90.1481 62.3856C89.9436 61.8961 89.7074 61.4198 89.503 60.9303C89.2986 60.4407 89.0488 59.9622 88.8557 59.4705L88.4832 58.6376C88.4537 58.5689 88.4219 58.5025 88.3924 58.4294L87.7473 56.9762C87.686 56.8344 87.6247 56.7015 87.5611 56.562L86.732 54.688C86.5481 54.2715 86.3664 53.8529 86.1756 53.4408L85.5282 51.9811C85.3761 51.6333 85.2171 51.2921 85.074 50.9444L84.2427 49.0704C83.9974 48.5166 83.7567 47.9628 83.5046 47.409C83.4246 47.1982 83.3234 46.9956 83.2025 46.8043C83.072 46.61 82.895 46.4496 82.6869 46.3369C82.4942 46.2311 82.2833 46.1605 82.0645 46.1286C81.6032 46.0644 81.1346 46.1806 80.7608 46.4521L80.6746 46.5229C80.6212 46.5691 80.5711 46.6187 80.5246 46.6714C80.5002 46.6959 80.4782 46.7226 80.4588 46.7511C80.335 46.8988 80.2318 47.062 80.1521 47.2362C79.9954 47.5774 79.8478 47.9273 79.6979 48.2707L79.6048 48.4767C79.5162 48.6982 79.4163 48.8931 79.3277 49.1036C79.2119 49.3827 79.0801 49.6552 78.9597 49.9321C78.9438 49.9697 78.9325 49.9963 78.9143 50.0339C78.8961 50.0716 78.8825 50.1048 78.8666 50.1381C78.8507 50.1713 78.8371 50.2089 78.8212 50.2466L78.4986 50.9732C78.4646 51.0463 78.4373 51.1127 78.4033 51.1947C78.1534 51.744 77.9104 52.3023 77.6674 52.856L77.2949 53.6889L77.204 53.8972C77.1722 53.9636 77.1427 54.0323 77.1109 54.1032L76.0956 56.3914C76.0661 56.4623 76.0366 56.5265 76.0048 56.5996L75.4483 57.8512C75.3802 57.9908 75.3325 58.1259 75.2643 58.2654C75.1553 58.4869 75.0009 58.8569 74.8942 59.0983L74.5262 59.9268C74.4649 60.0686 74.399 60.2081 74.3399 60.3455C74.165 60.7663 73.9652 61.1761 73.7857 61.5926L73.1407 63.0479L73.0476 63.2562C72.9613 63.4489 72.8591 63.6992 72.7705 63.883L72.5865 64.2973C72.4389 64.6473 72.2753 64.9928 72.1322 65.3406C71.9187 65.8257 71.6962 66.3064 71.4872 66.7915C71.2488 67.3497 70.9853 67.8991 70.7491 68.4573C70.7195 68.5282 70.6832 68.6013 70.6536 68.6788C70.6241 68.7564 70.5923 68.814 70.5605 68.8849C70.5015 69.02 70.4424 69.1706 70.3788 69.3013L70.1017 69.9215C70.0745 69.9902 70.0404 70.0567 70.0109 70.1298C69.9814 70.2029 69.9473 70.2671 69.9155 70.3402L69.4612 71.3813C69.3402 71.596 69.2703 71.8345 69.2568 72.0791L69.25 72.068ZM77.0927 65.3007C77.0916 65.3933 77.1201 65.484 77.1745 65.5599L77.204 65.5976C77.2333 65.6338 77.2668 65.6665 77.304 65.695L77.3425 65.7216L77.3857 65.746C77.4311 65.7709 77.4801 65.7888 77.5311 65.7991C77.666 65.8284 77.807 65.8144 77.9331 65.7593L78.2352 65.5976L78.2624 65.5821L78.6281 65.3982L79.3095 65.0814L79.6684 64.9352L79.791 64.8887L79.9159 64.8444L79.9795 64.8223C80.0613 64.7913 80.1476 64.7669 80.2317 64.7403C80.3634 64.696 80.5632 64.6428 80.6972 64.6118C80.9368 64.5541 81.1806 64.5141 81.4264 64.4922C81.5195 64.4922 81.6126 64.4767 81.708 64.4767H81.8306L82.2281 64.5033C82.328 64.5166 82.4257 64.5277 82.5256 64.5476C82.6256 64.5675 82.7119 64.5808 82.805 64.603L82.9436 64.6362C83.0776 64.6694 83.2048 64.7093 83.3365 64.747L83.466 64.789L83.5931 64.8311C83.7271 64.8776 83.893 64.9352 84.0224 64.9906L84.2019 65.0637L84.2586 65.0881L84.6697 65.2697C84.6879 65.2799 84.7069 65.2888 84.7265 65.2963L84.7833 65.3251L85.317 65.5909C85.3278 65.5943 85.3378 65.5995 85.3466 65.6064L85.4011 65.633L85.4283 65.6485C85.5055 65.684 85.5737 65.7305 85.6555 65.7593C85.803 65.8122 85.9657 65.8074 86.1097 65.746C86.1465 65.729 86.1821 65.7097 86.2165 65.6884C86.3021 65.6303 86.3691 65.5496 86.4095 65.4558C86.4337 65.3993 86.4461 65.3387 86.4461 65.2775C86.4461 65.2163 86.4337 65.1557 86.4095 65.0992C86.3891 65.0526 86.3596 64.9928 86.3391 64.9441C86.3187 64.8954 86.2959 64.84 86.271 64.789C86.246 64.7381 86.2255 64.6849 86.2005 64.6318C86.1756 64.5786 86.1778 64.583 86.1665 64.5542L86.0983 64.4014C86.087 64.3726 86.0756 64.3482 86.0643 64.3239L86.0302 64.2463L85.8235 63.7789C85.8099 63.7523 85.8008 63.728 85.7872 63.7014L85.5805 63.2362L85.5124 63.0789L85.1671 62.3036C85.1013 62.1464 85.0263 61.9913 84.9604 61.8363C84.9377 61.7831 84.9128 61.7321 84.8901 61.6812C84.8151 61.4973 84.7265 61.3201 84.6493 61.1363C84.5721 60.9524 84.4835 60.7752 84.4062 60.5913L84.2699 60.279C84.2699 60.2546 84.245 60.2281 84.2336 60.2015L83.9929 59.6588L83.9248 59.5037L83.6136 58.8037C83.5454 58.6487 83.4773 58.4914 83.4069 58.3363L83.1639 57.7914C83.1071 57.6629 83.048 57.5344 82.9935 57.4037L82.6823 56.7038C82.5915 56.4977 82.5006 56.2895 82.4075 56.0835C82.3763 56.0066 82.3383 55.9325 82.2939 55.862C82.2447 55.7896 82.1786 55.7296 82.1009 55.687C82.0308 55.6476 81.9538 55.6213 81.8738 55.6095C81.7885 55.5976 81.7017 55.6022 81.6183 55.6231C81.5349 55.644 81.4565 55.6808 81.3877 55.7313L81.3559 55.7557C81.3332 55.7756 81.3196 55.7911 81.2992 55.811C81.2787 55.831 81.2832 55.8332 81.2741 55.8421C81.2329 55.8989 81.1993 55.9607 81.1742 56.0259C81.1152 56.1544 81.0607 56.2851 81.0039 56.4136L80.9698 56.4911C80.9358 56.5686 80.8971 56.6462 80.8653 56.7237C80.8335 56.8012 80.7722 56.9297 80.7268 57.0338C80.7225 57.0467 80.7171 57.0593 80.7109 57.0715C80.7109 57.087 80.6972 57.098 80.6927 57.1113C80.6876 57.125 80.6815 57.1384 80.6746 57.1512L80.5542 57.4237L80.5201 57.5012C80.427 57.7072 80.3361 57.9154 80.243 58.1237L80.1067 58.4338C80.0931 58.4604 80.084 58.4869 80.0704 58.5113L80.0363 58.5888L79.657 59.4439L79.6229 59.5214L79.414 59.9888C79.3913 60.042 79.3708 60.0929 79.3458 60.1461C79.3208 60.1993 79.2482 60.3676 79.2073 60.4562L79.071 60.7663C79.0483 60.8195 79.0233 60.8704 79.0006 60.9236C78.9347 61.0787 78.8598 61.2315 78.7939 61.3888L78.5532 61.9315C78.5418 61.9603 78.5305 61.9847 78.5191 62.009C78.485 62.0821 78.4487 62.1752 78.4146 62.2438L78.3465 62.3989C78.2897 62.5296 78.2284 62.6581 78.1716 62.7888C78.0921 62.9704 78.0103 63.1498 77.9308 63.3315C77.8513 63.5131 77.7446 63.7457 77.656 63.9539L77.6197 64.0337L77.5856 64.1112C77.5629 64.1599 77.5402 64.2175 77.5174 64.2663L77.413 64.4989C77.413 64.5232 77.3903 64.5476 77.3789 64.5742L77.3448 64.6539L77.1722 65.0438C77.1259 65.1238 77.0995 65.2134 77.095 65.3052L77.0927 65.3007Z" fill="#E7D6AF"/>
</svg>
