<svg width="55" height="60" viewBox="0 0 55 60" fill="none" xmlns="http://www.w3.org/2000/svg">
<path fill-rule="evenodd" clip-rule="evenodd" d="M1.22159e-05 56.9781C-0.00168082 57.5269 0.172647 58.0624 0.498586 58.5098L0.663154 58.7335C0.835524 58.9453 1.03487 59.1349 1.25643 59.2975C1.33121 59.351 1.40598 59.4045 1.48575 59.4531L1.73504 59.5941C1.9998 59.7402 2.28547 59.8467 2.58259 59.9102C3.37579 60.086 4.20626 60.0022 4.94582 59.6719L6.72576 58.7286L6.88534 58.6411C7.60329 58.2861 8.31129 57.9068 9.02923 57.5567L13.0975 55.6944L15.2165 54.8337C15.4508 54.7413 15.715 54.6587 15.9344 54.5663L16.6573 54.3037C16.7869 54.2599 16.9066 54.2259 17.0312 54.1773C17.5298 53.9925 18.0284 53.8515 18.527 53.691C19.2898 53.443 20.4764 53.127 21.2591 52.9471C22.6629 52.6051 24.0913 52.3678 25.5319 52.2371C26.0903 52.1934 26.6388 52.1496 27.1922 52.1545C27.3019 52.1545 27.3468 52.1545 27.4365 52.1545C27.616 52.1545 27.7356 52.1545 27.9101 52.1545L30.2484 52.3052C30.8318 52.383 31.4101 52.4559 31.9884 52.5629C32.5668 52.6699 33.0953 52.7623 33.6338 52.8936L34.4465 53.0881C35.2392 53.2826 35.987 53.516 36.7598 53.7397L37.5227 53.9828C37.767 54.0703 38.0212 54.1432 38.2605 54.2308C39.0583 54.5031 40.0255 54.8483 40.7834 55.1692L41.8403 55.602C41.9599 55.6458 42.0697 55.6944 42.1794 55.743L44.5874 56.8128C44.7021 56.8565 44.8069 56.9197 44.9165 56.9684L45.2605 57.1288L48.3966 58.6897L48.566 58.7821L48.8852 58.9425L49.0447 59.0301C49.4935 59.244 49.9023 59.5163 50.3709 59.6865C51.2354 59.9887 52.1854 59.9592 53.0283 59.6038C53.2481 59.5096 53.4584 59.3957 53.6566 59.2635C54.1627 58.9232 54.5586 58.4492 54.7982 57.8971C54.9371 57.5634 55.0056 57.2059 54.9996 56.8458C54.9936 56.4857 54.9133 56.1305 54.7634 55.8013C54.6537 55.5339 54.4791 55.179 54.3595 54.8969C54.2398 54.6149 54.1002 54.2891 53.9556 53.9876C53.811 53.6862 53.6913 53.3701 53.5468 53.0638C53.472 52.913 53.4122 52.7671 53.3424 52.6115L52.9385 51.7023L52.7391 51.25C52.6693 51.0944 52.6096 50.9486 52.5348 50.793L51.3181 48.0554C51.2533 47.8998 51.1886 47.7588 51.1188 47.5983L49.9023 44.8607C49.7627 44.5544 49.633 44.248 49.4934 43.9417L47.4991 39.3806C47.1102 38.4568 46.6665 37.5572 46.2776 36.6333C46.148 36.3318 45.9984 36.0255 45.8738 35.724C45.4251 34.6494 44.9065 33.604 44.4578 32.5294C44.0091 31.4547 43.4607 30.4044 43.0369 29.325L42.2192 27.4966C42.1544 27.3459 42.0846 27.2 42.0198 27.0396L40.6038 23.8498C40.4692 23.5386 40.3347 23.2468 40.1951 22.9405L38.3752 18.8268C37.9714 17.9126 37.5725 16.9936 37.1537 16.0892L35.7327 12.8848C35.3987 12.1214 35.0497 11.3725 34.7356 10.6091L32.9109 6.49544C32.3724 5.27981 31.8439 4.06418 31.2905 2.84855C31.1151 2.38575 30.8929 1.94107 30.6273 1.52108C30.3409 1.09471 29.9525 0.742616 29.4956 0.495092C29.0725 0.262927 28.6096 0.108028 28.1295 0.0380138C27.1169 -0.103121 26.0881 0.15208 25.2677 0.747937L25.0783 0.903541C24.9612 1.00482 24.8512 1.11367 24.7491 1.22934C24.6956 1.28328 24.6473 1.34186 24.6047 1.40438C24.3329 1.72866 24.1065 2.08676 23.9315 2.46927C23.5875 3.2181 23.2635 3.98638 22.9344 4.74007L22.73 5.19229C22.5356 5.67854 22.3162 6.10643 22.1218 6.56837C21.8675 7.18105 21.5783 7.77915 21.314 8.38696C21.2791 8.46962 21.2542 8.52797 21.2143 8.61063C21.1745 8.6933 21.1446 8.76623 21.1097 8.83917C21.0748 8.91211 21.0447 8.99477 21.0098 9.07743L20.3019 10.6723C20.2271 10.8328 20.1673 10.9787 20.0925 11.1586C19.5441 12.3645 19.0106 13.5898 18.4772 14.8055L17.6594 16.6338L17.4601 17.0909C17.3903 17.2367 17.3255 17.3875 17.2557 17.5431L15.027 22.566C14.9621 22.7216 14.8974 22.8627 14.8276 23.0231L13.6061 25.7705C13.4565 26.0768 13.3518 26.3734 13.2022 26.6797C12.9629 27.166 12.6239 27.978 12.3896 28.508L11.5819 30.3266C11.4473 30.6378 11.3026 30.9442 11.173 31.2456C10.7891 32.1695 10.3504 33.0691 9.95651 33.9832L8.54052 37.1779L8.33615 37.635C8.14669 38.058 7.92235 38.6075 7.7279 39.0111L7.32403 39.9204C6.99996 40.6887 6.64098 41.4472 6.32688 42.2106C5.85822 43.2755 5.3697 44.3307 4.91101 45.3956C4.38751 46.6209 3.80916 47.8268 3.29065 49.0522C3.22583 49.2078 3.14598 49.3682 3.08116 49.5384C3.01635 49.7086 2.94659 49.8351 2.87679 49.9907C2.74716 50.2873 2.61751 50.6179 2.47791 50.9048L1.86966 52.2663C1.80983 52.417 1.7351 52.5629 1.67028 52.7234C1.60547 52.8838 1.5306 53.0249 1.4608 53.1853L0.463652 55.4707C0.19799 55.9419 0.0446675 56.4654 0.014984 57.0024L1.22159e-05 56.9781ZM17.2158 42.1231C17.2132 42.3264 17.2759 42.5253 17.3952 42.692L17.4601 42.7747C17.5242 42.8542 17.5978 42.9261 17.6794 42.9886L17.7641 43.047L17.8589 43.1005C17.9585 43.1551 18.0661 43.1945 18.178 43.2172C18.4741 43.2813 18.7836 43.2506 19.0605 43.1296L19.7236 42.7747L19.7834 42.7406L20.5861 42.337L22.0819 41.6417L22.8696 41.3208L23.1388 41.2187L23.413 41.1214L23.5526 41.0728C23.7321 41.0047 23.9216 40.9512 24.1061 40.8929C24.3953 40.7956 24.8339 40.6789 25.1281 40.6109C25.654 40.484 26.1891 40.3963 26.7286 40.3483C26.933 40.3483 27.1374 40.3142 27.3468 40.3142H27.6159L28.4885 40.3726C28.7078 40.4018 28.9222 40.4261 29.1416 40.4698C29.361 40.5136 29.5504 40.5428 29.7548 40.5914L30.059 40.6643C30.3532 40.7373 30.6324 40.8248 30.9216 40.9075L31.2058 40.9998L31.4849 41.0922C31.779 41.1944 32.1431 41.3208 32.4273 41.4423L32.8211 41.6028L32.9458 41.6563L33.8481 42.055C33.8882 42.0774 33.9298 42.0969 33.9728 42.1134L34.0974 42.1766L35.2691 42.7601C35.2927 42.7674 35.3147 42.7789 35.334 42.7941L35.4536 42.8525L35.5134 42.8865C35.6829 42.9643 35.8325 43.0664 36.012 43.1296C36.3357 43.2458 36.6931 43.2354 37.0091 43.1005C37.0898 43.0631 37.1681 43.0209 37.2434 42.974C37.4315 42.8465 37.5786 42.6694 37.6673 42.4635C37.7203 42.3395 37.7476 42.2064 37.7476 42.072C37.7476 41.9377 37.7203 41.8046 37.6673 41.6806C37.6224 41.5785 37.5575 41.4472 37.5127 41.3402C37.4678 41.2333 37.4179 41.1117 37.3631 40.9998C37.3082 40.888 37.2633 40.7713 37.2085 40.6546C37.1536 40.5379 37.1587 40.5476 37.1338 40.4844L36.9842 40.1489C36.9592 40.0857 36.9344 40.0322 36.9094 39.9787L36.8346 39.8085L36.3809 38.7825C36.351 38.7242 36.3311 38.6707 36.3012 38.6124L35.8474 37.5912L35.6979 37.246L34.9401 35.5441C34.7955 35.1989 34.6309 34.8585 34.4863 34.5181C34.4364 34.4014 34.3817 34.2896 34.3318 34.1777C34.1673 33.7742 33.9728 33.3852 33.8033 32.9816C33.6338 32.578 33.4393 32.189 33.2698 31.7854L32.9706 31.0998C32.9706 31.0463 32.9158 30.9879 32.8909 30.9296L32.3624 29.7383L32.2129 29.3979L31.5298 27.8613C31.3802 27.521 31.2307 27.1757 31.0761 26.8353L30.5426 25.6392C30.418 25.3571 30.2884 25.0751 30.1687 24.7882L29.4856 23.2517C29.2862 22.7994 29.0868 22.3424 28.8823 21.8902C28.8139 21.7213 28.7304 21.5586 28.6331 21.4039C28.5249 21.245 28.3798 21.1133 28.2093 21.0198C28.0555 20.9333 27.8864 20.8755 27.7108 20.8496C27.5236 20.8235 27.333 20.8336 27.1499 20.8795C26.9668 20.9254 26.7948 21.0061 26.6438 21.117L26.574 21.1705C26.5241 21.2143 26.4942 21.2483 26.4494 21.2921C26.4045 21.3358 26.4144 21.3407 26.3945 21.3602C26.3039 21.485 26.2302 21.6206 26.1751 21.7637C26.0455 22.0458 25.9258 22.3326 25.8012 22.6147L25.7265 22.7849C25.6517 22.9551 25.5668 23.1252 25.497 23.2954C25.4272 23.4656 25.2927 23.7477 25.1929 23.9762C25.1835 24.0046 25.1718 24.0322 25.158 24.0588C25.158 24.0929 25.1281 24.1172 25.1181 24.1464C25.1069 24.1764 25.0936 24.2057 25.0783 24.2339L24.814 24.832L24.7393 25.0022C24.5349 25.4544 24.3353 25.9115 24.1309 26.3685L23.8319 27.0493C23.8019 27.1076 23.7819 27.166 23.752 27.2195L23.6773 27.3897L22.8447 29.2666L22.7698 29.4368L22.3112 30.4628C22.2613 30.5795 22.2164 30.6913 22.1616 30.808C22.1067 30.9247 21.9473 31.2943 21.8575 31.4888L21.5583 32.1695C21.5085 32.2862 21.4536 32.3981 21.4037 32.5148C21.2592 32.8551 21.0947 33.1907 20.9501 33.5359L20.4216 34.7272C20.3966 34.7904 20.3718 34.8439 20.3468 34.8974C20.272 35.0579 20.1923 35.2621 20.1175 35.4128L19.9679 35.7532C19.8433 36.0401 19.7086 36.3221 19.584 36.609C19.4095 37.0077 19.23 37.4016 19.0555 37.8003C18.881 38.1991 18.6467 38.7096 18.4522 39.1667L18.3725 39.3417L18.2976 39.5119C18.2478 39.6189 18.1979 39.7453 18.148 39.8523L17.9187 40.3629C17.9187 40.4163 17.8689 40.4698 17.844 40.5282L17.7691 40.7032L17.3902 41.5591C17.2886 41.7348 17.2306 41.9313 17.2208 42.1328L17.2158 42.1231Z" fill="#E7D6AF"/>
</svg>
