<svg width="216" height="130" viewBox="0 0 216 130" fill="none" xmlns="http://www.w3.org/2000/svg">
<rect width="216" height="130" rx="12" fill="#F4ECD7"/>
<path fill-rule="evenodd" clip-rule="evenodd" d="M95.25 77.068C95.2492 77.318 95.3287 77.562 95.4771 77.7658L95.5521 77.8677C95.6306 77.9642 95.7214 78.0505 95.8224 78.1246C95.8564 78.149 95.8905 78.1734 95.9268 78.1955L96.0404 78.2598C96.161 78.3263 96.2912 78.3748 96.4265 78.4037C96.7879 78.4838 97.1662 78.4457 97.5031 78.2952L98.314 77.8655L98.3867 77.8256C98.7137 77.6639 99.0363 77.4911 99.3633 77.3316L101.217 76.4832L102.182 76.0911C102.289 76.049 102.409 76.0114 102.509 75.9693L102.838 75.8497C102.897 75.8297 102.952 75.8142 103.009 75.7921C103.236 75.7079 103.463 75.6437 103.69 75.5706C104.038 75.4576 104.578 75.3136 104.935 75.2317C105.574 75.0759 106.225 74.9678 106.881 74.9082C107.136 74.8883 107.385 74.8684 107.638 74.8706C107.688 74.8706 107.708 74.8706 107.749 74.8706C107.831 74.8706 107.885 74.8706 107.965 74.8706L109.03 74.9393C109.296 74.9747 109.559 75.0079 109.823 75.0567C110.086 75.1054 110.327 75.1475 110.572 75.2073L110.942 75.2959C111.303 75.3845 111.644 75.4908 111.996 75.5927L112.344 75.7035C112.455 75.7434 112.571 75.7766 112.68 75.8165C113.043 75.9405 113.484 76.0978 113.829 76.244L114.311 76.4411C114.365 76.4611 114.415 76.4832 114.465 76.5054L115.562 76.9927C115.614 77.0126 115.662 77.0414 115.712 77.0636L115.869 77.1367L117.297 77.8477L117.375 77.8898L117.52 77.9629L117.593 78.0028C117.797 78.1003 117.983 78.2243 118.197 78.3018C118.591 78.4395 119.023 78.4261 119.407 78.2642C119.507 78.2213 119.603 78.1694 119.694 78.1091C119.924 77.9541 120.104 77.7382 120.214 77.4867C120.277 77.3347 120.308 77.1718 120.305 77.0077C120.303 76.8437 120.266 76.6819 120.198 76.5319C120.148 76.4101 120.068 76.2484 120.014 76.1199C119.959 75.9915 119.896 75.843 119.83 75.7057C119.764 75.5684 119.709 75.4244 119.644 75.2848C119.609 75.2161 119.582 75.1497 119.55 75.0788L119.366 74.6646L119.276 74.4586C119.244 74.3877 119.217 74.3212 119.183 74.2503L118.628 73.0032C118.599 72.9323 118.569 72.8681 118.537 72.795L117.983 71.5479C117.92 71.4083 117.861 71.2688 117.797 71.1292L116.888 69.0514C116.711 68.6305 116.509 68.2207 116.332 67.7998C116.273 67.6625 116.205 67.5229 116.148 67.3856C115.944 66.8961 115.707 66.4198 115.503 65.9303C115.299 65.4407 115.049 64.9622 114.856 64.4705L114.483 63.6376C114.454 63.5689 114.422 63.5025 114.392 63.4294L113.747 61.9762C113.686 61.8344 113.625 61.7015 113.561 61.562L112.732 59.688C112.548 59.2715 112.366 58.8529 112.176 58.4408L111.528 56.9811C111.376 56.6333 111.217 56.2921 111.074 55.9444L110.243 54.0704C109.997 53.5166 109.757 52.9628 109.505 52.409C109.425 52.1982 109.323 51.9956 109.202 51.8043C109.072 51.61 108.895 51.4496 108.687 51.3369C108.494 51.2311 108.283 51.1605 108.065 51.1286C107.603 51.0644 107.135 51.1806 106.761 51.4521L106.675 51.5229C106.621 51.5691 106.571 51.6187 106.525 51.6714C106.5 51.6959 106.478 51.7226 106.459 51.7511C106.335 51.8988 106.232 52.062 106.152 52.2362C105.995 52.5774 105.848 52.9273 105.698 53.2707L105.605 53.4767C105.516 53.6982 105.416 53.8931 105.328 54.1036C105.212 54.3827 105.08 54.6552 104.96 54.9321C104.944 54.9697 104.932 54.9963 104.914 55.0339C104.896 55.0716 104.883 55.1048 104.867 55.1381C104.851 55.1713 104.837 55.2089 104.821 55.2466L104.499 55.9732C104.465 56.0463 104.437 56.1127 104.403 56.1947C104.153 56.744 103.91 57.3023 103.667 57.856L103.295 58.6889L103.204 58.8972C103.172 58.9636 103.143 59.0323 103.111 59.1032L102.096 61.3914C102.066 61.4623 102.037 61.5265 102.005 61.5996L101.448 62.8512C101.38 62.9908 101.332 63.1259 101.264 63.2654C101.155 63.4869 101.001 63.8569 100.894 64.0983L100.526 64.9268C100.465 65.0686 100.399 65.2081 100.34 65.3455C100.165 65.7663 99.9652 66.1761 99.7857 66.5926L99.1407 68.0479L99.0476 68.2562C98.9613 68.4489 98.8591 68.6992 98.7705 68.883L98.5865 69.2973C98.4389 69.6473 98.2753 69.9928 98.1322 70.3406C97.9187 70.8257 97.6962 71.3064 97.4872 71.7915C97.2488 72.3497 96.9853 72.8991 96.7491 73.4573C96.7195 73.5282 96.6832 73.6013 96.6536 73.6788C96.6241 73.7564 96.5923 73.814 96.5605 73.8849C96.5015 74.02 96.4424 74.1706 96.3788 74.3013L96.1017 74.9215C96.0745 74.9902 96.0404 75.0567 96.0109 75.1298C95.9814 75.2029 95.9473 75.2671 95.9155 75.3402L95.4612 76.3813C95.3402 76.596 95.2703 76.8345 95.2568 77.0791L95.25 77.068ZM103.093 70.3007C103.092 70.3933 103.12 70.484 103.174 70.5599L103.204 70.5976C103.233 70.6338 103.267 70.6665 103.304 70.695L103.343 70.7216L103.386 70.746C103.431 70.7709 103.48 70.7888 103.531 70.7991C103.666 70.8284 103.807 70.8144 103.933 70.7593L104.235 70.5976L104.262 70.5821L104.628 70.3982L105.31 70.0814L105.668 69.9352L105.791 69.8887L105.916 69.8444L105.98 69.8223C106.061 69.7913 106.148 69.7669 106.232 69.7403C106.363 69.696 106.563 69.6428 106.697 69.6118C106.937 69.5541 107.181 69.5141 107.426 69.4922C107.519 69.4922 107.613 69.4767 107.708 69.4767H107.831L108.228 69.5033C108.328 69.5166 108.426 69.5277 108.526 69.5476C108.626 69.5675 108.712 69.5808 108.805 69.603L108.944 69.6362C109.078 69.6694 109.205 69.7093 109.336 69.747L109.466 69.789L109.593 69.8311C109.727 69.8776 109.893 69.9352 110.022 69.9906L110.202 70.0637L110.259 70.0881L110.67 70.2697C110.688 70.2799 110.707 70.2888 110.726 70.2963L110.783 70.3251L111.317 70.5909C111.328 70.5943 111.338 70.5995 111.347 70.6064L111.401 70.633L111.428 70.6485C111.506 70.684 111.574 70.7305 111.655 70.7593C111.803 70.8122 111.966 70.8074 112.11 70.746C112.146 70.729 112.182 70.7097 112.216 70.6884C112.302 70.6303 112.369 70.5496 112.41 70.4558C112.434 70.3993 112.446 70.3387 112.446 70.2775C112.446 70.2163 112.434 70.1557 112.41 70.0992C112.389 70.0526 112.36 69.9928 112.339 69.9441C112.319 69.8954 112.296 69.84 112.271 69.789C112.246 69.7381 112.226 69.6849 112.201 69.6318C112.176 69.5786 112.178 69.583 112.166 69.5542L112.098 69.4014C112.087 69.3726 112.076 69.3482 112.064 69.3239L112.03 69.2463L111.824 68.7789C111.81 68.7523 111.801 68.728 111.787 68.7014L111.58 68.2362L111.512 68.0789L111.167 67.3036C111.101 67.1464 111.026 66.9913 110.96 66.8363C110.938 66.7831 110.913 66.7321 110.89 66.6812C110.815 66.4973 110.727 66.3201 110.649 66.1363C110.572 65.9524 110.483 65.7752 110.406 65.5913L110.27 65.279C110.27 65.2546 110.245 65.2281 110.234 65.2015L109.993 64.6588L109.925 64.5037L109.614 63.8037C109.545 63.6487 109.477 63.4914 109.407 63.3363L109.164 62.7914C109.107 62.6629 109.048 62.5344 108.994 62.4037L108.682 61.7038C108.591 61.4977 108.501 61.2895 108.408 61.0835C108.376 61.0066 108.338 60.9325 108.294 60.862C108.245 60.7896 108.179 60.7296 108.101 60.687C108.031 60.6476 107.954 60.6213 107.874 60.6095C107.789 60.5976 107.702 60.6022 107.618 60.6231C107.535 60.644 107.457 60.6808 107.388 60.7313L107.356 60.7557C107.333 60.7756 107.32 60.7911 107.299 60.811C107.279 60.831 107.283 60.8332 107.274 60.8421C107.233 60.8989 107.199 60.9607 107.174 61.0259C107.115 61.1544 107.061 61.2851 107.004 61.4136L106.97 61.4911C106.936 61.5686 106.897 61.6462 106.865 61.7237C106.834 61.8012 106.772 61.9297 106.727 62.0338C106.722 62.0467 106.717 62.0593 106.711 62.0715C106.711 62.087 106.697 62.098 106.693 62.1113C106.688 62.125 106.682 62.1384 106.675 62.1512L106.554 62.4237L106.52 62.5012C106.427 62.7072 106.336 62.9154 106.243 63.1237L106.107 63.4338C106.093 63.4604 106.084 63.4869 106.07 63.5113L106.036 63.5888L105.657 64.4439L105.623 64.5214L105.414 64.9888C105.391 65.042 105.371 65.0929 105.346 65.1461C105.321 65.1993 105.248 65.3676 105.207 65.4562L105.071 65.7663C105.048 65.8195 105.023 65.8704 105.001 65.9236C104.935 66.0787 104.86 66.2315 104.794 66.3888L104.553 66.9315C104.542 66.9603 104.53 66.9847 104.519 67.009C104.485 67.0821 104.449 67.1752 104.415 67.2438L104.346 67.3989C104.29 67.5296 104.228 67.6581 104.172 67.7888C104.092 67.9704 104.01 68.1498 103.931 68.3315C103.851 68.5131 103.745 68.7457 103.656 68.9539L103.62 69.0337L103.586 69.1112C103.563 69.1599 103.54 69.2175 103.517 69.2663L103.413 69.4989C103.413 69.5232 103.39 69.5476 103.379 69.5742L103.345 69.6539L103.172 70.0438C103.126 70.1238 103.099 70.2134 103.095 70.3052L103.093 70.3007Z" fill="#E7D6AF"/>
</svg>
