<svg width="20" height="20" viewBox="0 0 20 20" fill="none" xmlns="http://www.w3.org/2000/svg">
<g clip-path="url(#clip0_16128_17049)">
<path d="M18.8281 5.85938H15.2734V18.8281H14.1016V10.5469H10.5859V18.8281H9.41406V8.20312H5.89844V18.8281H4.72656V12.8906H1.17188V18.8281H0V20H20V18.8281H18.8281V5.85938Z" fill="#A3C9FF"/>
<path d="M2.96875 10.5469C3.93799 10.5469 4.72656 9.7583 4.72656 8.78906C4.72656 8.4494 4.6254 8.13492 4.45801 7.86591L7.08389 4.58374C7.26425 4.6463 7.45483 4.6875 7.65625 4.6875C8.01605 4.6875 8.35037 4.57809 8.6293 4.39178L10.6737 5.92468C10.6218 6.09024 10.5859 6.26282 10.5859 6.44531C10.5859 7.41455 11.3745 8.20312 12.3438 8.20312C13.313 8.20312 14.1016 7.41455 14.1016 6.44531C14.1016 6.17477 14.035 5.92148 13.9253 5.69229L16.2782 3.33939C16.5074 3.4491 16.7607 3.51562 17.0312 3.51562C18.0005 3.51562 18.7891 2.72705 18.7891 1.75781C18.7891 0.788574 18.0005 0 17.0312 0C16.062 0 15.2734 0.788574 15.2734 1.75781C15.2734 2.02835 15.34 2.28165 15.4497 2.51083L13.0968 4.86374C12.8676 4.75403 12.6143 4.6875 12.3438 4.6875C11.9839 4.6875 11.6496 4.79691 11.3707 4.98322L9.32632 3.45032C9.3782 3.28476 9.41406 3.11218 9.41406 2.92969C9.41406 1.96045 8.62549 1.17188 7.65625 1.17188C6.68701 1.17188 5.89844 1.96045 5.89844 2.92969C5.89844 3.26935 5.9996 3.58383 6.16699 3.85284L3.54111 7.13501C3.36075 7.07245 3.17017 7.03125 2.96875 7.03125C1.99951 7.03125 1.21094 7.81982 1.21094 8.78906C1.21094 9.7583 1.99951 10.5469 2.96875 10.5469Z" fill="#A3C9FF"/>
</g>
<defs>
<clipPath id="clip0_16128_17049">
<rect width="20" height="20" fill="white"/>
</clipPath>
</defs>
</svg>
