<svg width="22" height="20" viewBox="0 0 22 20" fill="none" xmlns="http://www.w3.org/2000/svg">
<path d="M21.2998 8.2002V12.123C21.2998 12.9556 21.2181 13.6913 20.9014 14.3027C19.8313 16.3683 16.9453 19.2998 11 19.2998C5.05466 19.2998 2.16868 16.3683 1.09863 14.3027C0.781894 13.6913 0.700195 12.9556 0.700195 12.123V8.2002H21.2998Z" fill="#171717" stroke="url(#paint0_linear_4118_218100)" stroke-width="1.4"/>
<path d="M4.40039 11.25V17.5" stroke="#767676" stroke-width="1.4"/>
<path d="M7.7002 12.5V18.75" stroke="#7B7B7B" stroke-width="1.4"/>
<path d="M11 0.700195C13.9154 0.700195 16.5239 1.50725 18.3838 2.77539C20.2472 4.04594 21.2998 5.72852 21.2998 7.5C21.2998 9.27148 20.2472 10.9541 18.3838 12.2246C16.5239 13.4927 13.9154 14.2998 11 14.2998C8.08457 14.2998 5.47615 13.4927 3.61621 12.2246C1.7528 10.9541 0.700195 9.27148 0.700195 7.5C0.700195 5.72852 1.7528 4.04594 3.61621 2.77539C5.47615 1.50725 8.08457 0.700195 11 0.700195Z" fill="#171717" stroke="url(#paint1_linear_4118_218100)" stroke-width="1.4"/>
<defs>
<linearGradient id="paint0_linear_4118_218100" x1="11" y1="7.5" x2="11" y2="20" gradientUnits="userSpaceOnUse">
<stop stop-color="#434343"/>
<stop offset="1" stop-color="#818181"/>
</linearGradient>
<linearGradient id="paint1_linear_4118_218100" x1="11" y1="0" x2="11" y2="15" gradientUnits="userSpaceOnUse">
<stop stop-color="#434343"/>
<stop offset="1" stop-color="#818181"/>
</linearGradient>
</defs>
</svg>
