<svg width="17" height="17" viewBox="0 0 17 17" fill="none" xmlns="http://www.w3.org/2000/svg">
<path d="M9.58333 0H7.08333C4.19497 0 2.75079 0 1.7236 0.710926C1.32787 0.984815 0.984815 1.32787 0.710926 1.7236C0 2.75079 0 4.19497 0 7.08333C0 9.9717 0 11.4159 0.710926 12.4431C0.984815 12.8388 1.32787 13.1819 1.7236 13.4557C2.75079 14.1667 4.19497 14.1667 7.08333 14.1667H9.16667L11.25 16.25C12.0833 17.0833 12.9167 16.4304 12.9167 15.6456V14.1667C14.9877 14.1667 16.6667 12.4877 16.6667 10.4167V7.08333C16.6667 4.19497 16.6667 2.75079 15.9557 1.7236C15.6819 1.32787 15.3388 0.984815 14.9431 0.710926C13.9159 0 12.4717 0 9.58333 0Z" fill="white"/>
<path d="M8.33337 2.5V11.6667" stroke="#343A40" stroke-width="1.4" stroke-linecap="round" stroke-linejoin="round"/>
<path d="M4.19163 9.05C5.31 9.05 6.21663 8.14338 6.21663 7.025C6.21663 5.90662 5.31 5 4.19163 5C3.07325 5 2.16663 5.90662 2.16663 7.025C2.16663 8.14338 3.07325 9.05 4.19163 9.05Z" stroke="#343A40" stroke-width="1.4" stroke-linecap="round" stroke-linejoin="round"/>
<path d="M5.09167 7.99155L6.06667 8.96655" stroke="#343A40" stroke-width="1.4" stroke-linecap="round" stroke-linejoin="round"/>
<path d="M10.8334 8.68333L11.5167 7.24167M11.5167 7.24167L12.5834 5L13.7584 7.24167M11.5167 7.24167H13.7584M14.5167 8.68333L13.7584 7.24167" stroke="#343A40" stroke-width="1.4" stroke-linecap="round" stroke-linejoin="round"/>
</svg>
