<svg width="22" height="20" viewBox="0 0 22 20" fill="none" xmlns="http://www.w3.org/2000/svg">
<path d="M21.3 10.1222C21.1 10.4822 20.87 10.8222 20.6 11.1622V12.1322C20.6 12.9922 20.5 13.5622 20.28 13.9922C19.72 15.0722 17.39 18.6122 11 18.6122C10.04 18.6122 9.18 18.5222 8.4 18.3822V14.7922C7.92 14.7122 7.45 14.6122 7 14.4922V18.0522C6.28 17.8322 5.65 17.5622 5.1 17.2622V13.8322C4.61 13.6222 4.14 13.3722 3.7 13.1022V16.3422C2.56 15.4222 1.97 14.4622 1.72 13.9822C1.5 13.5522 1.4 12.9822 1.4 12.1222V11.1522C1.13 10.8222 0.89 10.4722 0.7 10.1122C0.25 9.28219 0 8.40219 0 7.49219V12.1122C0 12.8522 0.05 13.8022 0.48 14.6122C1.13 15.8722 3.82 19.9922 11 19.9922C18.18 19.9922 20.87 15.8822 21.52 14.6122C21.94 13.7922 22 12.8422 22 12.1122V7.49219C22 8.40219 21.75 9.28219 21.3 10.1122V10.1222Z" fill="#A87D7D"/>
<path d="M21.3 10.1222C21.1 10.4822 20.87 10.8222 20.6 11.1622V12.1322C20.6 12.9922 20.5 13.5622 20.28 13.9922C19.72 15.0722 17.39 18.6122 11 18.6122C10.04 18.6122 9.18 18.5222 8.4 18.3822V14.7922C7.92 14.7122 7.45 14.6122 7 14.4922V18.0522C6.28 17.8322 5.65 17.5622 5.1 17.2622V13.8322C4.61 13.6222 4.14 13.3722 3.7 13.1022V16.3422C2.56 15.4222 1.97 14.4622 1.72 13.9822C1.5 13.5522 1.4 12.9822 1.4 12.1222V11.1522C1.13 10.8222 0.89 10.4722 0.7 10.1122C0.25 9.28219 0 8.40219 0 7.49219V12.1122C0 12.8522 0.05 13.8022 0.48 14.6122C1.13 15.8722 3.82 19.9922 11 19.9922C18.18 19.9922 20.87 15.8822 21.52 14.6122C21.94 13.7922 22 12.8422 22 12.1122V7.49219C22 8.40219 21.75 9.28219 21.3 10.1122V10.1222Z" fill="url(#paint0_linear_4131_218168)"/>
<path d="M18.78 2.2C16.7 0.78 13.94 0 11 0C8.06 0 5.3 0.78 3.22 2.2C1.14 3.61 0 5.5 0 7.5C0 8.41 0.25 9.29 0.7 10.12C0.9 10.48 1.13 10.82 1.4 11.16C1.89 11.76 2.49 12.31 3.22 12.81C3.37 12.91 3.54 13.01 3.7 13.11C4.14 13.38 4.61 13.62 5.1 13.84C5.7 14.1 6.34 14.32 7 14.5C7.46 14.62 7.92 14.72 8.4 14.8C9.24 14.94 10.11 15.02 11 15.02C13.94 15.02 16.7 14.24 18.78 12.82C19.51 12.32 20.11 11.77 20.6 11.17C20.87 10.84 21.11 10.49 21.3 10.13C21.75 9.3 22 8.42 22 7.51C22 5.51 20.86 3.62 18.78 2.21V2.2ZM20.53 8.2C20.49 8.44 20.42 8.67 20.33 8.9C19.94 9.91 19.15 10.86 17.99 11.65C16.14 12.91 13.66 13.6 11 13.6C10.11 13.6 9.24 13.52 8.4 13.36C7.92 13.27 7.45 13.16 7 13.03C6.33 12.83 5.69 12.58 5.1 12.28C4.72 12.09 4.35 11.88 4.01 11.65C3.9 11.58 3.8 11.5 3.7 11.42C2.71 10.68 2.02 9.82 1.68 8.91C1.59 8.68 1.52 8.45 1.48 8.21C1.44 7.98 1.41 7.75 1.41 7.51C1.41 5.98 2.34 4.51 4.02 3.36C5.87 2.1 8.35 1.41 11.01 1.41C13.67 1.41 16.15 2.1 18 3.36C19.68 4.51 20.61 5.98 20.61 7.51C20.61 7.75 20.58 7.98 20.54 8.21L20.53 8.2Z" fill="#A87D7D"/>
<path d="M18.78 2.2C16.7 0.78 13.94 0 11 0C8.06 0 5.3 0.78 3.22 2.2C1.14 3.61 0 5.5 0 7.5C0 8.41 0.25 9.29 0.7 10.12C0.9 10.48 1.13 10.82 1.4 11.16C1.89 11.76 2.49 12.31 3.22 12.81C3.37 12.91 3.54 13.01 3.7 13.11C4.14 13.38 4.61 13.62 5.1 13.84C5.7 14.1 6.34 14.32 7 14.5C7.46 14.62 7.92 14.72 8.4 14.8C9.24 14.94 10.11 15.02 11 15.02C13.94 15.02 16.7 14.24 18.78 12.82C19.51 12.32 20.11 11.77 20.6 11.17C20.87 10.84 21.11 10.49 21.3 10.13C21.75 9.3 22 8.42 22 7.51C22 5.51 20.86 3.62 18.78 2.21V2.2ZM20.53 8.2C20.49 8.44 20.42 8.67 20.33 8.9C19.94 9.91 19.15 10.86 17.99 11.65C16.14 12.91 13.66 13.6 11 13.6C10.11 13.6 9.24 13.52 8.4 13.36C7.92 13.27 7.45 13.16 7 13.03C6.33 12.83 5.69 12.58 5.1 12.28C4.72 12.09 4.35 11.88 4.01 11.65C3.9 11.58 3.8 11.5 3.7 11.42C2.71 10.68 2.02 9.82 1.68 8.91C1.59 8.68 1.52 8.45 1.48 8.21C1.44 7.98 1.41 7.75 1.41 7.51C1.41 5.98 2.34 4.51 4.02 3.36C5.87 2.1 8.35 1.41 11.01 1.41C13.67 1.41 16.15 2.1 18 3.36C19.68 4.51 20.61 5.98 20.61 7.51C20.61 7.75 20.58 7.98 20.54 8.21L20.53 8.2Z" fill="url(#paint1_linear_4131_218168)"/>
<defs>
<linearGradient id="paint0_linear_4131_218168" x1="9" y1="12" x2="9" y2="19" gradientUnits="userSpaceOnUse">
<stop stop-color="#434343"/>
<stop offset="1" stop-color="#818181"/>
</linearGradient>
<linearGradient id="paint1_linear_4131_218168" x1="11" y1="1" x2="11" y2="15.02" gradientUnits="userSpaceOnUse">
<stop stop-color="#434343"/>
<stop offset="1" stop-color="#818181"/>
</linearGradient>
</defs>
</svg>
