<svg width="121" height="105" viewBox="0 0 121 105" fill="none" xmlns="http://www.w3.org/2000/svg">
<path opacity="0.5" d="M51.9599 63.7456C51.7143 65.0133 56.054 69.239 49.5035 71.3518C43.7718 74.7324 50.3223 76.4229 48.6846 78.1132C47.0469 79.8035 44.9999 76.4226 45 73.4647C45.0001 70.5067 49.0941 70.0843 48.2753 67.5489C47.4564 65.0135 44.5906 62.9007 46.2282 60.7878C47.8658 58.675 50.7317 54.8715 54.4164 57.4069C58.9198 60.5059 52.4362 61.2874 51.9599 63.7456Z" fill="#EBEBEC"/>
<path opacity="0.3" d="M82.5988 102.427C82.5572 102.46 82.5074 102.493 82.4492 102.535C82.5074 102.502 82.5489 102.468 82.5988 102.427Z" fill="#A3C3F9"/>
<path opacity="0.3" d="M82.3581 102.585C82.2916 102.618 82.2252 102.66 82.1504 102.693C82.2252 102.66 82.2999 102.618 82.3581 102.585Z" fill="#A3C3F9"/>
<path opacity="0.3" d="M82.051 102.734C81.9596 102.776 81.86 102.817 81.752 102.851C81.86 102.809 81.9596 102.768 82.051 102.734Z" fill="#A3C3F9"/>
<path opacity="0.3" d="M69.6309 99.5605C71.5167 99.6852 73.2531 99.8264 74.7983 99.9926C73.2448 99.8264 71.5167 99.6852 69.6309 99.5605Z" fill="#A3C3F9"/>
<path opacity="0.3" d="M56.8281 99.1445C57.7586 99.1445 58.6891 99.1611 59.5946 99.1778C58.6891 99.1611 57.7669 99.1528 56.8281 99.1445Z" fill="#A3C3F9"/>
<path opacity="0.3" d="M82.8316 102.045C82.8316 102.103 82.815 102.153 82.79 102.203C82.815 102.153 82.8316 102.095 82.8316 102.045Z" fill="#A3C3F9"/>
<path d="M55.4154 101.704C44.6152 101.704 35.2772 102.369 30.8076 103.332C30.1429 103.191 29.5946 103.042 29.1543 102.884C32.5439 104.08 43.0118 104.952 55.4154 104.952C67.819 104.952 78.2869 104.08 81.6765 102.884C81.2362 103.042 80.6878 103.191 80.0232 103.332C75.5536 102.369 66.2156 101.704 55.4154 101.704Z" fill="#C6C6C7"/>
<path opacity="0.3" d="M76.5674 100.2C77.4065 100.308 78.1708 100.425 78.8603 100.541C78.1708 100.425 77.4065 100.308 76.5674 100.2Z" fill="#A3C3F9"/>
<path opacity="0.3" d="M82.7478 102.261C82.7478 102.261 82.6984 102.335 82.6572 102.368C82.6984 102.335 82.7231 102.294 82.7478 102.261Z" fill="#A3C3F9"/>
<path opacity="0.3" d="M66.0918 99.3701C66.9143 99.4033 67.7118 99.4449 68.4845 99.4947C67.7035 99.4532 66.906 99.4117 66.0918 99.3701Z" fill="#A3C3F9"/>
<path opacity="0.3" d="M82.7902 102.212C82.8151 102.162 82.8317 102.104 82.8317 102.054C82.8317 101.505 81.3779 100.982 78.8606 100.55C78.1711 100.434 77.4067 100.317 76.5676 100.209C76.011 100.135 75.4212 100.068 74.7981 100.002C73.2445 99.8355 71.5165 99.6943 69.6306 99.5697C69.2567 99.5448 68.8746 99.5198 68.4841 99.5032C67.7032 99.4617 66.9056 99.4201 66.0914 99.3786C64.0394 99.2872 61.8628 99.2208 59.5947 99.1875C58.6892 99.1709 57.767 99.1626 56.8282 99.1543C56.363 99.1543 55.8894 99.1543 55.4159 99.1543C40.2707 99.1543 28 100.459 28 102.062C28 102.12 28.0166 102.17 28.0415 102.22C28.0498 102.237 28.0665 102.253 28.0748 102.27C28.0997 102.303 28.1246 102.345 28.1662 102.378C28.1828 102.394 28.2077 102.411 28.2326 102.436C28.2742 102.469 28.324 102.502 28.3822 102.544C28.4071 102.561 28.4403 102.577 28.4735 102.594C28.54 102.627 28.6065 102.669 28.6812 102.702C28.7145 102.718 28.7477 102.735 28.7809 102.743C28.8723 102.785 28.972 102.826 29.08 102.86C29.1049 102.868 29.1299 102.876 29.1631 102.893C29.6034 103.051 30.1517 103.2 30.8164 103.341C35.286 102.378 44.624 101.713 55.4242 101.713C66.2244 101.713 75.5624 102.378 80.032 103.341C80.6966 103.2 81.245 103.051 81.6853 102.893C81.7102 102.885 81.7351 102.876 81.7683 102.86C81.8763 102.818 81.976 102.777 82.0674 102.743C82.1007 102.727 82.1339 102.71 82.1671 102.702C82.2419 102.669 82.3167 102.627 82.3748 102.594C82.408 102.577 82.433 102.561 82.4662 102.544C82.5244 102.511 82.5659 102.477 82.6157 102.436C82.6407 102.419 82.6656 102.403 82.6822 102.378C82.7237 102.345 82.7487 102.303 82.7736 102.27C82.7819 102.253 82.7985 102.237 82.8068 102.22L82.7902 102.212Z" fill="#D0D0D0"/>
<path opacity="0.5" d="M55.4162 104.952C61.0572 104.952 66.2828 104.77 70.6361 104.462C68.8832 96.8107 63.1092 98.4224 63.1092 91.7097C63.1092 84.997 69.8968 87.1819 80.4643 71.7958C91.0236 56.4014 75.4879 49.1569 65.9755 49.0074C56.463 48.8579 58.2824 59.5667 60.3926 66.3625C62.5028 73.15 62.0542 76.4731 57.5264 81.1504C52.9986 85.8278 49.5259 89.1509 50.1324 92.9227C50.7389 96.6944 55.4162 99.1452 55.4162 101.712C55.4162 102.975 54.6851 104.122 53.9374 104.952C54.4276 104.952 54.9177 104.952 55.4162 104.952Z" fill="#F4F4F4"/>
<path d="M39.0457 43.2349C41.4261 45.3508 44.8593 46.5968 49.0737 46.5968C59.6785 46.5968 71.211 38.701 74.8364 28.9578C76.4233 24.6953 76.2311 20.7875 74.6289 17.7371L69.7522 11.0781L35.3867 38.6424L39.0457 43.2349Z" fill="#B3B3B4"/>
<path d="M60.8152 37.9034C71.0731 31.3063 75.73 20.1472 71.2167 12.9788C66.7034 5.81049 54.729 5.34742 44.4711 11.9445C34.2131 18.5416 29.5562 29.7007 34.0695 36.8691C38.5828 44.0374 50.5573 44.5005 60.8152 37.9034Z" fill="#CACACC"/>
<path d="M58.9066 34.8717C66.7686 29.8155 70.3377 21.2628 66.8785 15.7687C63.4193 10.2746 54.2418 9.9196 46.3798 14.9758C38.5179 20.032 34.9487 28.5847 38.4079 34.0788C41.8671 39.5729 51.0447 39.9279 58.9066 34.8717Z" fill="#F4F4F4"/>
<path d="M39.7662 26.9274C42.5433 19.4603 51.3841 13.4089 59.5139 13.4089C62.5168 13.4089 65.0009 14.2386 66.8015 15.6574C65.0925 13.0419 61.8973 11.4072 57.6768 11.4072C49.55 11.4072 40.7092 17.4586 37.929 24.9257C36.1774 29.6323 37.2546 33.7745 40.3247 36.1957C38.7408 33.7745 38.4295 30.5144 39.7662 26.9274V26.9274Z" fill="#BFBFC1"/>
<path d="M42.0208 45.1735C42.1825 44.8589 42.155 44.3932 41.8957 43.8472C41.3769 42.7554 40.1348 41.7653 39.1186 41.6358C38.6456 41.5741 38.3068 41.7098 38.1298 41.9812L30.6348 50.8146L34.367 53.9082L42.0208 45.1735V45.1735Z" fill="#D8D8DA"/>
<path d="M27.7665 50.1681L15.6145 64.433C14.6319 65.6698 14.1497 67.2983 14.4274 68.9545C14.934 71.9741 17.7721 73.9295 20.7719 73.3219C22.0415 73.0628 23.137 72.3874 23.9396 71.4621L35.997 57.4378C36.4121 56.7438 36.6837 55.9265 35.8109 54.517C34.4437 52.3117 31.8985 49.9121 29.7166 49.6191C28.8254 49.5019 28.1724 49.7209 27.7665 50.1681V50.1681Z" fill="#BFBFC1"/>
<path d="M43.4306 28.4383C43.2352 28.4383 43.0338 28.4044 42.8385 28.3304C41.9718 28.0004 41.5324 27.0227 41.8589 26.1467C43.0949 22.828 45.994 19.7561 49.6195 17.9302C50.4495 17.5107 51.4566 17.8531 51.8716 18.692C52.2867 19.5309 51.9479 20.5487 51.1179 20.9682C48.2309 22.424 45.9452 24.8081 45.0022 27.3434C44.7489 28.0251 44.1111 28.4414 43.4306 28.4414V28.4383Z" fill="white"/>
<path d="M56.3488 17.8896C56.5671 16.9774 55.9221 16.0368 54.9081 15.7889C53.8941 15.541 52.895 16.0795 52.6766 16.9918C52.4583 17.904 53.1033 18.8445 54.1173 19.0925C55.1313 19.3404 56.1304 18.8019 56.3488 17.8896Z" fill="white"/>
<path d="M35.8107 54.517C34.4435 52.3117 31.8984 49.9121 29.7164 49.6191C28.8253 49.5019 28.1722 49.7209 27.7664 50.1681L15.6144 64.433C14.9552 65.2627 14.5218 66.2712 14.3906 67.3445C15.8799 69.4449 18.5044 70.5738 21.2296 70.0186C22.8317 69.6917 24.2141 68.8404 25.2243 67.6715L36.0915 55.0321C36.0152 54.8686 35.9206 54.6959 35.8077 54.5108L35.8107 54.517Z" fill="#CACACC"/>
</svg>
