<svg width="48" height="48" viewBox="0 0 48 48" fill="none" xmlns="http://www.w3.org/2000/svg">
    <circle cx="24" cy="24" r="24" fill="url(#paint0_linear_3223_16379)" />
    <path
        d="M24.8433 17.9062C27.057 17.9062 28.8461 16.1114 28.8461 13.9033C28.8461 16.1171 30.6409 17.9062 32.849 17.9062C30.6352 17.9062 28.8461 19.7009 28.8461 21.9147C28.8461 19.7009 27.0513 17.9118 24.8433 17.9118V17.9062Z"
        fill="white" />
    <path
        d="M23.8291 18.8936C22.9761 18.9483 22.2115 19.1883 21.5352 19.6133C20.759 20.0816 20.1475 20.7352 19.7012 21.5742C19.2548 22.4134 19.0312 23.3896 19.0312 24.502C19.0313 25.5948 19.2449 26.571 19.6719 27.4297C20.0988 28.2882 20.7102 28.9614 21.5059 29.4492C22.3209 29.937 23.2717 30.1806 24.3584 30.1807C25.1347 30.1807 25.8242 30.0447 26.4258 29.7715C27.0274 29.4788 27.5032 29.0786 27.8525 28.5713C28.0931 28.2085 28.2483 27.8079 28.3232 27.3711H23.835V23.2725H33.5V26.2881L33.4902 26.291C33.4304 28.139 33.0372 29.6995 32.3066 30.9717C31.5109 32.3572 30.4139 33.3912 29.0166 34.0742C27.6386 34.7572 26.0372 35.0986 24.2129 35.0986C22.1171 35.0986 20.2641 34.6496 18.6533 33.752C17.0425 32.8347 15.7803 31.5857 14.8682 30.0049C13.9561 28.4047 13.5 26.5704 13.5 24.502C13.5 22.4333 13.956 20.6081 14.8682 19.0273C15.7803 17.4272 17.0425 16.1789 18.6533 15.2812C20.165 14.4205 21.8901 13.9631 23.8291 13.9102V18.8936Z"
        fill="white" />
    <defs>
        <linearGradient id="paint0_linear_3223_16379" x1="-24.5122" y1="-231" x2="76.0248"
            y2="-223.801" gradientUnits="userSpaceOnUse">
            <stop stop-color="#CFA954" />
            <stop offset="0.706731" stop-color="#392700" />
            <stop offset="1" stop-color="#CFA954" />
        </linearGradient>
    </defs>
</svg>
