<svg width="64" height="64" viewBox="0 0 64 64" fill="none" xmlns="http://www.w3.org/2000/svg">
<path d="M0 12.2859C0 7.22349 4.14039 3.12805 9.21962 3.20116C14.1397 3.2719 18.1403 7.30686 18.1714 12.2272C18.1888 14.9828 16.9792 17.4559 15.0571 19.1333C14.8542 19.3103 14.8835 19.6334 15.1152 19.7705L16.8272 20.7835C17.104 20.9473 16.9878 21.3715 16.6662 21.3715L8.91377 21.3696C3.97525 21.2778 0 17.2463 0 12.2859Z" fill="#73C09D"/>
<path d="M44.2717 36.1795H23.6604C18.5124 36.1795 15.6952 30.1801 18.9832 26.2188L19.166 25.9985C20.6145 24.2534 21.4073 22.0568 21.4073 19.7889V15.8142C21.4074 8.84764 27.0549 3.2002 34.0215 3.2002C40.9881 3.2002 46.6355 8.84764 46.6355 15.8142V19.9231C46.6355 22.2147 47.445 24.4327 48.9212 26.1857C52.2502 30.1389 49.44 36.1795 44.2717 36.1795Z" fill="#E09191"/>
<path d="M55.1046 46.3924V60.0187H12.8242V46.4949C12.8242 43.433 14.6593 40.6697 17.4801 39.4823L24.3057 36.5151L26.6037 35.5159C28.3476 34.7577 29.4752 33.0375 29.4752 31.136V30.2539H38.4524V31.0909C38.4524 33.0004 39.5913 34.7273 41.3476 35.4798L50.5794 39.4373C53.3303 40.6561 55.1046 43.3823 55.1046 46.3924Z" fill="white"/>
<path d="M24.3051 39.7637C26.6347 40.4598 30.0634 41.2022 34.2429 41.1291C38.1644 41.0606 41.3836 40.298 43.6235 39.5826L44.7365 36.9322L41.3473 35.4796C39.5915 34.727 38.453 33.0006 38.453 31.0902V30.2539H29.4758V31.1357C29.4758 33.0371 28.348 34.7572 26.6045 35.5153L23.8594 36.7088L24.3051 39.7637Z" fill="#FFCEBF"/>
<path d="M50.5804 39.4367L43.6262 36.4561L43.625 36.4562V60.0185H55.1062V46.3925C55.1062 43.3828 53.3321 40.656 50.5804 39.4367Z" fill="#8B9DFA"/>
<path d="M24.3057 36.5146V60.0183H12.8242V46.4944C12.8242 43.4326 14.6593 40.6692 17.4801 39.4819L24.3057 36.5146Z" fill="#8B9DFA"/>
<path d="M37.0753 35.1851C38.1081 35.1851 39.0922 34.9777 39.9892 34.6035C39.027 33.7152 38.452 32.4512 38.452 31.0941V30.2578H29.4748V31.1395C29.4748 31.8264 29.3269 32.4893 29.0566 33.092C30.416 34.3878 32.255 35.185 34.2813 35.185L37.0753 35.1851Z" fill="#FFB09E"/>
<path d="M42.937 16.7486V24.1751C42.937 28.359 39.5453 31.7506 35.3615 31.7506H32.5677C28.3838 31.7506 24.9922 28.3589 24.9922 24.1751V16.7486C24.9922 14.0268 27.1986 11.8203 29.9205 11.8203H38.0088C40.7306 11.8204 42.937 14.0268 42.937 16.7486Z" fill="#FFCEBF"/>
<path d="M42.9382 20.6133C42.9349 20.6235 42.9307 20.6334 42.9276 20.6439C42.6538 21.5896 41.9351 23.3761 40.1982 24.7154C39.3895 25.3391 38.467 25.7897 37.4565 26.0549C36.9985 26.1751 36.7245 26.6439 36.8447 27.1019C36.9459 27.487 37.2932 27.742 37.6736 27.742C37.7456 27.742 37.8188 27.7329 37.8918 27.7137C39.1255 27.3899 40.2539 26.8381 41.2455 26.0735C41.9303 25.5454 42.4846 24.9621 42.9333 24.3756C42.935 24.3092 42.9383 24.243 42.9383 24.1761V20.6133H42.9382Z" fill="#7A6D79"/>
<path d="M36.5151 28.4264H34.5057C33.5911 28.4264 32.8496 27.685 32.8496 26.7703C32.8496 25.8557 33.5911 25.1143 34.5057 25.1143H36.5151C37.4297 25.1143 38.1712 25.8557 38.1712 26.7703C38.171 27.6851 37.4297 28.4264 36.5151 28.4264Z" fill="#7A6D79"/>
<path d="M34.0202 3.2002C36.8689 3.2002 39.4968 4.14489 41.6085 5.73767C40.5551 7.57062 38.1362 11.1946 33.6005 13.8775C30.2334 15.8693 27.0584 16.5386 25.1032 16.7913H21.4063V15.8141C21.4061 8.84764 27.0536 3.2002 34.0202 3.2002Z" fill="#E09191"/>
<path d="M48.1201 60.0179H20.6721L19.1582 45.7365C19.0508 44.7236 19.8449 43.8408 20.8635 43.8408H47.9288C48.9474 43.8408 49.7415 44.7236 49.6341 45.7365L48.1201 60.0179Z" fill="#EFEDEF"/>
<path d="M62.8131 60.8753H6.82535C6.35864 60.8753 5.98047 60.497 5.98047 60.0304C5.98047 59.5638 6.35864 59.1855 6.82535 59.1855H62.8131C63.2799 59.1855 63.658 59.5638 63.658 60.0304C63.658 60.497 63.2799 60.8753 62.8131 60.8753Z" fill="#C9BFC8"/>
<path d="M34.3969 54.329C35.7229 54.329 36.7977 53.2541 36.7977 51.9282C36.7977 50.6022 35.7229 49.5273 34.3969 49.5273C33.071 49.5273 31.9961 50.6022 31.9961 51.9282C31.9961 53.2541 33.071 54.329 34.3969 54.329Z" fill="white"/>
<path d="M5.65622 13.1406C6.12974 13.1406 6.51361 12.7567 6.51361 12.2832C6.51361 11.8096 6.12974 11.4258 5.65622 11.4258C5.18269 11.4258 4.79883 11.8096 4.79883 12.2832C4.79883 12.7567 5.18269 13.1406 5.65622 13.1406Z" fill="white"/>
<path d="M9.08591 13.1406C9.55943 13.1406 9.9433 12.7567 9.9433 12.2832C9.9433 11.8096 9.55943 11.4258 9.08591 11.4258C8.61238 11.4258 8.22852 11.8096 8.22852 12.2832C8.22852 12.7567 8.61238 13.1406 9.08591 13.1406Z" fill="white"/>
<path d="M12.5156 13.1406C12.9891 13.1406 13.373 12.7567 13.373 12.2832C13.373 11.8096 12.9891 11.4258 12.5156 11.4258C12.0421 11.4258 11.6582 11.8096 11.6582 12.2832C11.6582 12.7567 12.0421 13.1406 12.5156 13.1406Z" fill="white"/>
</svg>
