<svg width="77" height="24" viewBox="0 0 77 24" fill="none" xmlns="http://www.w3.org/2000/svg">
<rect width="77" height="24" rx="4" fill="#FFD17B"/>
<path d="M14.7774 9.608V12.014H17.8134V13.256H14.7774V15.71H18.6294V17H13.1574V8.324H18.6294V9.608H14.7774ZM27.1098 17H25.5018C25.3898 17 25.2998 16.972 25.2318 16.916C25.1678 16.86 25.1158 16.796 25.0758 16.724L23.0658 13.394C23.0338 13.494 22.9958 13.58 22.9518 13.652L21.0258 16.724C20.9778 16.792 20.9218 16.856 20.8577 16.916C20.7978 16.972 20.7178 17 20.6178 17H19.1118L21.9918 12.536L19.2258 8.324H20.8338C20.9458 8.324 21.0258 8.34 21.0738 8.372C21.1258 8.4 21.1738 8.448 21.2178 8.516L23.1918 11.696C23.2318 11.596 23.2798 11.496 23.3358 11.396L25.1478 8.546C25.1918 8.47 25.2398 8.414 25.2917 8.378C25.3438 8.342 25.4098 8.324 25.4898 8.324H27.0318L24.2418 12.47L27.1098 17ZM30.9305 12.686C31.2265 12.686 31.4845 12.65 31.7045 12.578C31.9245 12.502 32.1065 12.396 32.2505 12.26C32.3985 12.12 32.5085 11.952 32.5805 11.756C32.6525 11.556 32.6885 11.334 32.6885 11.09C32.6885 10.858 32.6525 10.648 32.5805 10.46C32.5085 10.272 32.4005 10.112 32.2565 9.98C32.1125 9.848 31.9305 9.748 31.7105 9.68C31.4905 9.608 31.2305 9.572 30.9305 9.572H29.7245V12.686H30.9305ZM30.9305 8.324C31.5105 8.324 32.0125 8.392 32.4365 8.528C32.8605 8.664 33.2105 8.854 33.4865 9.098C33.7625 9.342 33.9665 9.634 34.0985 9.974C34.2345 10.314 34.3025 10.686 34.3025 11.09C34.3025 11.51 34.2325 11.896 34.0925 12.248C33.9525 12.596 33.7425 12.896 33.4625 13.148C33.1825 13.4 32.8305 13.596 32.4065 13.736C31.9865 13.876 31.4945 13.946 30.9305 13.946H29.7245V17H28.1105V8.324H30.9305ZM40.6222 15.668V17H35.5402V8.324H37.1542V15.668H40.6222ZM49.7439 12.662C49.7439 13.298 49.6379 13.888 49.4259 14.432C49.2179 14.972 48.9219 15.44 48.5379 15.836C48.1539 16.232 47.6919 16.542 47.1519 16.766C46.6119 16.986 46.0119 17.096 45.3519 17.096C44.6959 17.096 44.0979 16.986 43.5579 16.766C43.0179 16.542 42.5539 16.232 42.1659 15.836C41.7819 15.44 41.4839 14.972 41.2719 14.432C41.0599 13.888 40.9539 13.298 40.9539 12.662C40.9539 12.026 41.0599 11.438 41.2719 10.898C41.4839 10.354 41.7819 9.884 42.1659 9.488C42.5539 9.092 43.0179 8.784 43.5579 8.564C44.0979 8.34 44.6959 8.228 45.3519 8.228C45.7919 8.228 46.2059 8.28 46.5939 8.384C46.9819 8.484 47.3379 8.628 47.6619 8.816C47.9859 9 48.2759 9.226 48.5319 9.494C48.7919 9.758 49.0119 10.054 49.1919 10.382C49.3719 10.71 49.5079 11.066 49.5999 11.45C49.6959 11.834 49.7439 12.238 49.7439 12.662ZM48.0939 12.662C48.0939 12.186 48.0299 11.76 47.9019 11.384C47.7739 11.004 47.5919 10.682 47.3559 10.418C47.1199 10.154 46.8319 9.952 46.4919 9.812C46.1559 9.672 45.7759 9.602 45.3519 9.602C44.9279 9.602 44.5459 9.672 44.2059 9.812C43.8699 9.952 43.5819 10.154 43.3419 10.418C43.1059 10.682 42.9239 11.004 42.7959 11.384C42.6679 11.76 42.6039 12.186 42.6039 12.662C42.6039 13.138 42.6679 13.566 42.7959 13.946C42.9239 14.322 43.1059 14.642 43.3419 14.906C43.5819 15.166 43.8699 15.366 44.2059 15.506C44.5459 15.646 44.9279 15.716 45.3519 15.716C45.7759 15.716 46.1559 15.646 46.4919 15.506C46.8319 15.366 47.1199 15.166 47.3559 14.906C47.5919 14.642 47.7739 14.322 47.9019 13.946C48.0299 13.566 48.0939 13.138 48.0939 12.662ZM53.7833 12.452C54.0873 12.452 54.3513 12.414 54.5753 12.338C54.8033 12.262 54.9893 12.158 55.1333 12.026C55.2813 11.89 55.3913 11.73 55.4633 11.546C55.5353 11.362 55.5713 11.16 55.5713 10.94C55.5713 10.5 55.4253 10.162 55.1333 9.926C54.8453 9.69 54.4033 9.572 53.8073 9.572H52.7753V12.452H53.7833ZM57.9353 17H56.4773C56.2013 17 56.0013 16.892 55.8773 16.676L54.0533 13.898C53.9853 13.794 53.9093 13.72 53.8253 13.676C53.7453 13.632 53.6253 13.61 53.4653 13.61H52.7753V17H51.1613V8.324H53.8073C54.3953 8.324 54.8993 8.386 55.3193 8.51C55.7433 8.63 56.0893 8.8 56.3573 9.02C56.6293 9.24 56.8293 9.504 56.9573 9.812C57.0853 10.116 57.1493 10.452 57.1493 10.82C57.1493 11.112 57.1053 11.388 57.0173 11.648C56.9333 11.908 56.8093 12.144 56.6453 12.356C56.4853 12.568 56.2853 12.754 56.0453 12.914C55.8093 13.074 55.5393 13.2 55.2353 13.292C55.3393 13.352 55.4353 13.424 55.5233 13.508C55.6113 13.588 55.6913 13.684 55.7633 13.796L57.9353 17ZM60.4923 9.608V12.014H63.5283V13.256H60.4923V15.71H64.3443V17H58.8723V8.324H64.3443V9.608H60.4923Z" fill="#951C16"/>
</svg>
