<svg width="105" height="104" viewBox="0 0 105 104" fill="none" xmlns="http://www.w3.org/2000/svg">
<g clip-path="url(#clip0_14492_19699)">
<path opacity="0.2" d="M19.5874 82.7616C7.09682 71.1606 8.66433 51.5798 14.4976 45.0101C20.3308 38.4404 30.302 34.027 35.0428 26.5967C39.7835 19.1665 45.5931 13.5597 57.6818 15.6667C69.7706 17.7737 70.6745 26.8706 74.8438 32.0699C79.013 37.2692 94.9985 38.5508 95.8214 53.0676C96.6443 67.5845 86.7319 68.7373 82.6342 72.8246C78.5366 76.9119 73.4005 94.5255 59.1549 96.3952C41.6971 98.6865 30.1581 92.5794 19.5874 82.7616Z" fill="#4489FF"/>
<path d="M79.7844 27.3018H15.9915V91.0947H79.7844V27.3018Z" fill="#91C4FB"/>
<path d="M79.7844 24.0996H15.9915V87.8926H79.7844V24.0996Z" fill="#E4F1FF"/>
<path d="M79.7844 24.0996H15.9915V35.2073H79.7844V24.0996Z" fill="#FFCB50"/>
<path d="M21.8168 30.4088C22.9483 30.4088 23.8655 29.4916 23.8655 28.3602C23.8655 27.2287 22.9483 26.3115 21.8168 26.3115C20.6854 26.3115 19.7682 27.2287 19.7682 28.3602C19.7682 29.4916 20.6854 30.4088 21.8168 30.4088Z" fill="#C79E3B"/>
<path d="M21.8167 29.1128C21.3027 29.1128 20.886 28.696 20.886 28.182V19.2481C20.886 18.7341 21.3027 18.3174 21.8167 18.3174C22.3307 18.3174 22.7475 18.7341 22.7475 19.2481V28.182C22.7475 28.696 22.3307 29.1128 21.8167 29.1128Z" fill="#FFE39D"/>
<path d="M28.3345 30.4088C29.466 30.4088 30.3832 29.4916 30.3832 28.3602C30.3832 27.2287 29.466 26.3115 28.3345 26.3115C27.2031 26.3115 26.2859 27.2287 26.2859 28.3602C26.2859 29.4916 27.2031 30.4088 28.3345 30.4088Z" fill="#C79E3B"/>
<path d="M28.3346 29.1128C27.8206 29.1128 27.4038 28.696 27.4038 28.182V19.2481C27.4038 18.7341 27.8206 18.3174 28.3346 18.3174C28.8486 18.3174 29.2653 18.7341 29.2653 19.2481V28.182C29.2653 28.696 28.8486 29.1128 28.3346 29.1128Z" fill="#FFE39D"/>
<path d="M34.8524 30.4088C35.9838 30.4088 36.901 29.4916 36.901 28.3602C36.901 27.2287 35.9838 26.3115 34.8524 26.3115C33.7209 26.3115 32.8037 27.2287 32.8037 28.3602C32.8037 29.4916 33.7209 30.4088 34.8524 30.4088Z" fill="#C79E3B"/>
<path d="M34.8524 29.1128C34.3384 29.1128 33.9216 28.696 33.9216 28.182V19.2481C33.9216 18.7341 34.3384 18.3174 34.8524 18.3174C35.3664 18.3174 35.7831 18.7341 35.7831 19.2481V28.182C35.7831 28.696 35.3666 29.1128 34.8524 29.1128Z" fill="#FFE39D"/>
<path d="M41.3702 30.4088C42.5016 30.4088 43.4188 29.4916 43.4188 28.3602C43.4188 27.2287 42.5016 26.3115 41.3702 26.3115C40.2387 26.3115 39.3215 27.2287 39.3215 28.3602C39.3215 29.4916 40.2387 30.4088 41.3702 30.4088Z" fill="#C79E3B"/>
<path d="M41.3702 29.1128C40.8562 29.1128 40.4395 28.696 40.4395 28.182V19.2481C40.4395 18.7341 40.8562 18.3174 41.3702 18.3174C41.8842 18.3174 42.301 18.7341 42.301 19.2481V28.182C42.301 28.696 41.8842 29.1128 41.3702 29.1128Z" fill="#FFE39D"/>
<path d="M47.888 30.4088C49.0194 30.4088 49.9367 29.4916 49.9367 28.3602C49.9367 27.2287 49.0194 26.3115 47.888 26.3115C46.7566 26.3115 45.8394 27.2287 45.8394 28.3602C45.8394 29.4916 46.7566 30.4088 47.888 30.4088Z" fill="#C79E3B"/>
<path d="M47.888 29.1128C47.374 29.1128 46.9573 28.696 46.9573 28.182V19.2481C46.9573 18.7341 47.374 18.3174 47.888 18.3174C48.402 18.3174 48.8188 18.7341 48.8188 19.2481V28.182C48.8188 28.696 48.402 29.1128 47.888 29.1128Z" fill="#FFE39D"/>
<path d="M54.4058 30.4088C55.5373 30.4088 56.4545 29.4916 56.4545 28.3602C56.4545 27.2287 55.5373 26.3115 54.4058 26.3115C53.2744 26.3115 52.3572 27.2287 52.3572 28.3602C52.3572 29.4916 53.2744 30.4088 54.4058 30.4088Z" fill="#C79E3B"/>
<path d="M54.4059 29.1128C53.8919 29.1128 53.4751 28.696 53.4751 28.182V19.2481C53.4751 18.7341 53.8919 18.3174 54.4059 18.3174C54.9199 18.3174 55.3366 18.7341 55.3366 19.2481V28.182C55.3366 28.696 54.9199 29.1128 54.4059 29.1128Z" fill="#FFE39D"/>
<path d="M60.9234 30.4088C62.0548 30.4088 62.9721 29.4916 62.9721 28.3602C62.9721 27.2287 62.0548 26.3115 60.9234 26.3115C59.792 26.3115 58.8748 27.2287 58.8748 28.3602C58.8748 29.4916 59.792 30.4088 60.9234 30.4088Z" fill="#C79E3B"/>
<path d="M60.9234 29.1128C60.4094 29.1128 59.9927 28.696 59.9927 28.182V19.2481C59.9927 18.7341 60.4094 18.3174 60.9234 18.3174C61.4374 18.3174 61.8542 18.7341 61.8542 19.2481V28.182C61.8542 28.696 61.4374 29.1128 60.9234 29.1128Z" fill="#FFE39D"/>
<path d="M67.4415 30.4088C68.5729 30.4088 69.4901 29.4916 69.4901 28.3602C69.4901 27.2287 68.5729 26.3115 67.4415 26.3115C66.31 26.3115 65.3928 27.2287 65.3928 28.3602C65.3928 29.4916 66.31 30.4088 67.4415 30.4088Z" fill="#C79E3B"/>
<path d="M67.4415 29.1128C66.9275 29.1128 66.5107 28.696 66.5107 28.182V19.2481C66.5107 18.7341 66.9275 18.3174 67.4415 18.3174C67.9555 18.3174 68.3723 18.7341 68.3723 19.2481V28.182C68.3723 28.696 67.9555 29.1128 67.4415 29.1128Z" fill="#FFE39D"/>
<path d="M73.9591 30.4088C75.0905 30.4088 76.0077 29.4916 76.0077 28.3602C76.0077 27.2287 75.0905 26.3115 73.9591 26.3115C72.8276 26.3115 71.9104 27.2287 71.9104 28.3602C71.9104 29.4916 72.8276 30.4088 73.9591 30.4088Z" fill="#C79E3B"/>
<path d="M73.9591 29.1128C73.4451 29.1128 73.0283 28.696 73.0283 28.182V19.2481C73.0283 18.7341 73.4451 18.3174 73.9591 18.3174C74.4731 18.3174 74.8898 18.7341 74.8898 19.2481V28.182C74.8898 28.696 74.4733 29.1128 73.9591 29.1128Z" fill="#FFE39D"/>
<path d="M26.6213 44.998H19.7682V51.8512H26.6213V44.998Z" fill="#E4F1FF"/>
<path d="M34.9254 44.998H28.0723V51.8512H34.9254V44.998Z" fill="#E4F1FF"/>
<path d="M43.2294 44.998H36.3762V51.8512H43.2294V44.998Z" fill="#E4F1FF"/>
<path d="M51.5338 44.998H44.6807V51.8512H51.5338V44.998Z" fill="#E4F1FF"/>
<path d="M59.8378 44.998H52.9846V51.8512H59.8378V44.998Z" fill="#E4F1FF"/>
<path d="M68.1417 44.998H61.2886V51.8512H68.1417V44.998Z" fill="#E4F1FF"/>
<path d="M76.4459 44.998H69.5928V51.8512H76.4459V44.998Z" fill="#E4F1FF"/>
<path d="M26.6213 53.3779H19.7682V60.2311H26.6213V53.3779Z" fill="#E4F1FF"/>
<path d="M34.9254 53.3779H28.0723V60.2311H34.9254V53.3779Z" fill="#E4F1FF"/>
<path d="M43.2294 53.3779H36.3762V60.2311H43.2294V53.3779Z" fill="#E4F1FF"/>
<path d="M51.5338 53.3779H44.6807V60.2311H51.5338V53.3779Z" fill="#E4F1FF"/>
<path d="M59.8378 53.3779H52.9846V60.2311H59.8378V53.3779Z" fill="#E4F1FF"/>
<path d="M68.1417 53.3779H61.2886V60.2311H68.1417V53.3779Z" fill="#E4F1FF"/>
<path d="M76.4459 53.3779H69.5928V60.2311H76.4459V53.3779Z" fill="#E4F1FF"/>
<path d="M26.6213 61.7568H19.7682V68.61H26.6213V61.7568Z" fill="#E4F1FF"/>
<path d="M34.9254 61.7568H28.0723V68.61H34.9254V61.7568Z" fill="#E4F1FF"/>
<path d="M43.2294 61.7568H36.3762V68.61H43.2294V61.7568Z" fill="#E4F1FF"/>
<path d="M51.5338 61.7568H44.6807V68.61H51.5338V61.7568Z" fill="#E4F1FF"/>
<path d="M59.8378 61.7568H52.9846V68.61H59.8378V61.7568Z" fill="#E4F1FF"/>
<path d="M68.1417 61.7568H61.2886V68.61H68.1417V61.7568Z" fill="#E4F1FF"/>
<path d="M76.4459 61.7568H69.5928V68.61H76.4459V61.7568Z" fill="#E4F1FF"/>
<path d="M26.6213 70.1357H19.7682V76.9889H26.6213V70.1357Z" fill="#E4F1FF"/>
<path d="M34.9254 70.1357H28.0723V76.9889H34.9254V70.1357Z" fill="#E4F1FF"/>
<path d="M43.2294 70.1357H36.3762V76.9889H43.2294V70.1357Z" fill="#E4F1FF"/>
<path d="M51.5338 70.1357H44.6807V76.9889H51.5338V70.1357Z" fill="#E4F1FF"/>
<path d="M59.8378 70.1357H52.9846V76.9889H59.8378V70.1357Z" fill="#E4F1FF"/>
<path d="M68.1417 70.1357H61.2886V76.9889H68.1417V70.1357Z" fill="#E4F1FF"/>
<path d="M76.4459 70.1357H69.5928V76.9889H76.4459V70.1357Z" fill="#E4F1FF"/>
<path d="M76.4459 38.5342H36.3765V39.2852H76.4459V38.5342Z" fill="#E4F1FF"/>
<path d="M76.4459 40.0449H36.3765V40.7959H76.4459V40.0449Z" fill="#E4F1FF"/>
<path d="M76.4459 41.5566H36.3765V42.3076H76.4459V41.5566Z" fill="#E4F1FF"/>
<path d="M76.4456 79.6758H19.7681V80.4268H76.4456V79.6758Z" fill="#E4F1FF"/>
<path d="M76.4456 81.1865H19.7681V81.9375H76.4456V81.1865Z" fill="#E4F1FF"/>
<path d="M76.4456 82.6982H19.7681V83.4492H76.4456V82.6982Z" fill="#E4F1FF"/>
<path d="M34.9251 38.5322H20.2386V42.3057H34.9251V38.5322Z" fill="#FFA29D"/>
<path d="M15.9915 88.3916H79.7387" stroke="#E4F1FF" stroke-width="0.0893622" stroke-miterlimit="10"/>
<path d="M15.9915 89.1152H79.7387" stroke="#E4F1FF" stroke-width="0.0893622" stroke-miterlimit="10"/>
<path d="M15.9915 89.8389H79.7387" stroke="#E4F1FF" stroke-width="0.0893622" stroke-miterlimit="10"/>
<path d="M15.9915 90.5625H79.7387" stroke="#E4F1FF" stroke-width="0.0893622" stroke-miterlimit="10"/>
<path d="M38.1531 45.7471C38.3425 46.1063 38.5457 46.4521 38.7541 46.7971L39.3756 47.8305L40.6173 49.893L39.9236 49.8977C40.6098 48.4214 41.3666 46.9842 42.1956 45.5848C42.6109 44.8857 43.0425 44.1953 43.5067 43.5238C43.968 42.851 44.452 42.1899 44.9962 41.5713C44.695 42.3374 44.3697 43.0827 44.0288 43.8203C43.6912 44.5592 43.3352 45.2875 42.9685 46.01C42.2338 47.4538 41.4527 48.8742 40.6198 50.2652L40.2359 50.9061L39.926 50.2699C39.748 49.9043 39.5759 49.5399 39.4096 49.1707C39.2428 48.8021 39.0867 48.4284 38.9292 48.0554C38.7732 47.6817 38.632 47.3007 38.493 46.9194C38.3614 46.5351 38.2326 46.1467 38.1531 45.7471Z" fill="#5BCA5B"/>
<path d="M37.8374 62.8098C38.0268 63.169 38.23 63.5147 38.4385 63.8597L39.0599 64.8932L40.3017 66.9557L39.6079 66.9604C40.2941 65.4839 41.051 64.0469 41.8799 62.6474C42.2952 61.9484 42.7269 61.258 43.191 60.5863C43.6523 59.9135 44.1363 59.2524 44.6807 58.6338C44.3793 59.3999 44.0542 60.1452 43.7133 60.8828C43.3757 61.6217 43.0197 62.35 42.653 63.0725C41.9183 64.5163 41.1373 65.9367 40.3043 67.3277L39.9204 67.9686L39.6105 67.3324C39.4325 66.9668 39.2606 66.6024 39.0941 66.2332C38.9274 65.8646 38.7712 65.4909 38.6137 65.1179C38.4577 64.7442 38.3165 64.3632 38.1775 63.9817C38.0457 63.5978 37.9171 63.2094 37.8374 62.8098Z" fill="#5BCA5B"/>
<path d="M21.3764 68.8145C21.9857 69.5634 22.5286 70.3293 23.0598 71.1022C23.5891 71.8752 24.0997 72.6557 24.6035 73.4394C25.6108 75.0065 26.5819 76.59 27.5824 78.1564C26.3971 76.7241 25.2373 75.2697 24.0506 73.8442C23.4575 73.1316 22.8589 72.4246 22.2488 71.7336C21.6387 71.0444 21.0161 70.3646 20.3712 69.746L21.3764 68.8145Z" fill="#FC7171"/>
<path d="M21.5758 75.7418C22.4367 74.1647 23.3678 72.6325 24.3726 71.1564C24.8745 70.418 25.3929 69.6927 25.9284 68.9818C26.4634 68.2697 27.0216 67.5806 27.5724 66.8848C27.1158 67.645 26.6503 68.4009 26.2147 69.17C25.7777 69.939 25.3608 70.7177 24.9629 71.5044C24.1662 73.0772 23.4538 74.6866 22.8189 76.3193L21.5758 75.7418Z" fill="#FC7171"/>
<path d="M32.0243 52.4502C30.9183 52.1139 29.6656 52.4434 28.779 53.1853C27.8925 53.9272 27.3584 55.0393 27.1955 56.184C27.0903 56.9229 27.1354 57.7005 27.4498 58.3775C27.9893 59.5386 29.2334 60.2252 30.4798 60.5175C32.0181 60.8782 33.7754 60.7012 34.9565 59.6521C36.1365 58.6039 36.5189 56.8207 36.072 55.307C35.7139 54.0943 34.8111 53.0002 33.6007 52.635C33.048 52.4683 32.4581 52.4562 31.884 52.5182C30.6264 52.6537 29.3857 53.1596 28.4986 54.0611C27.6113 54.9626 27.1175 56.2801 27.3426 57.5247C27.4687 58.2217 27.8097 58.8716 28.2748 59.4057C29.7341 61.081 32.4858 61.4318 34.3188 60.1763C36.1518 58.9207 36.8188 56.2282 35.7838 54.262C35.2783 53.3018 34.35 52.5027 33.268 52.4201C32.4498 52.3578 31.5841 52.6943 30.8296 52.372" stroke="#32338C" stroke-width="0.178724" stroke-miterlimit="10"/>
<path d="M30.8645 58.6356L31.1159 54.6025L34.0496 58.1394L29.23 56.6191L34.0496 55.1377L30.8645 58.6356Z" fill="#32338C"/>
<path d="M31.4898 60.6445C31.0583 64.0267 32.3305 67.5398 34.672 70.0184C37.0135 72.497 40.3506 73.9507 43.7509 74.2048C47.1511 74.459 50.4991 73.6023 53.4581 71.9082" stroke="#32338C" stroke-width="0.357449" stroke-miterlimit="10"/>
<path d="M50.4116 71.4199C51.42 71.6146 53.4581 71.8758 53.4581 71.8758L51.9349 74.249" stroke="#32338C" stroke-width="0.42229" stroke-miterlimit="10"/>
<path d="M66.5664 102.988H75.0006L74.6868 90.5849L78.2961 102.988H88.1685C87.6709 97.1384 87.0242 90.5879 86.3468 86.5833C84.8949 77.999 81.6264 76.2861 81.6264 76.2861L69.7199 75.8916C69.7199 75.8916 65.314 81.7764 65.5012 89.6979C65.5803 93.0528 66.0505 98.1852 66.5664 102.988Z" fill="#324C8C"/>
<path d="M66.4171 66.3896C65.7099 66.2922 64.9942 66.2576 64.2812 66.295C64.1105 66.3039 63.9328 66.319 63.7861 66.4066C63.5474 66.5492 63.4509 66.8456 63.415 67.1215C63.3214 67.8382 63.5068 68.5604 63.7242 69.2497C63.7708 69.3975 63.8205 69.5452 63.8711 69.6929C64.3127 69.5176 64.7238 69.2616 65.0711 68.9389C65.7883 68.2725 66.2377 67.3555 66.4171 66.3896Z" fill="#FE5228"/>
<path d="M73.1118 57.6779C73.0478 57.4178 72.8958 56.7752 72.5971 56.6859C72.3401 56.6091 71.8321 56.9899 71.6242 57.1159C70.2225 57.9649 69.1703 59.3137 68.4563 60.771C67.586 62.5469 67.1647 64.5032 66.7512 66.4373C66.6403 66.4186 66.5285 66.4057 66.4171 66.3904C66.2377 67.3563 65.7883 68.2733 65.0711 68.9397C64.7239 69.2624 64.3126 69.5185 63.8711 69.6937C64.7816 72.3478 66.3424 74.9044 68.8227 76.183C69.2307 76.3933 69.7357 76.5627 70.1319 76.3308C70.5384 76.0927 70.6292 75.5555 70.6825 75.0875C71.2556 70.0648 72.3792 65.1211 73.0941 60.1165C73.208 59.3185 73.3073 58.4708 73.1118 57.6779Z" fill="#FFC69D"/>
<path d="M86.8168 59.0061L79.1049 55.5187C79.1049 55.5187 72.7705 55.4626 71.0725 57.429C69.3745 59.3953 68.0266 63.7214 68.0266 63.7214L69.7199 75.8902C69.7199 75.8902 70.3844 77.9789 73.9664 78.8753C77.5483 79.7719 81.6266 76.2847 81.6266 76.2847L86.8168 59.0061Z" fill="#FC7171"/>
<path d="M88.4509 71.2239L86.8232 70.3711L83.2742 77.145L84.9019 77.9978L88.4509 71.2239Z" fill="#E4F1FF"/>
<path d="M90.066 72.0776L88.4385 71.2246L84.8887 77.9977L86.5162 78.8507L90.066 72.0776Z" fill="#D0CDFF"/>
<path d="M91.7051 72.929L90.0774 72.0762L86.5283 78.85L88.156 79.7028L91.7051 72.929Z" fill="#E4F1FF"/>
<path d="M93.3333 73.7835L91.7056 72.9307L88.1565 79.7045L89.7842 80.5573L93.3333 73.7835Z" fill="#D0CDFF"/>
<path d="M94.1449 82.8453L89.7776 80.5566L93.3271 73.7832L97.6942 76.0717C98.878 76.692 99.3346 78.1543 98.7143 79.3381L97.4112 81.8252C96.7908 83.0088 95.3285 83.4654 94.1449 82.8453Z" fill="#FFD078"/>
<path d="M45.9902 51.0089L40.5337 50.4365L44.2726 54.7869C44.3831 54.6483 44.5049 54.5191 44.6081 54.3744C45.3183 53.3789 45.829 52.2119 45.9902 51.0089Z" fill="#32338C"/>
<path d="M50.8335 51.515L45.9901 51.0068C45.8289 52.2099 45.3183 53.3769 44.6083 54.3722C44.505 54.5171 44.3832 54.646 44.2727 54.7846L47.284 58.2884L50.8335 51.515Z" fill="#FEC5B7"/>
<path d="M49.0537 54.9206L48.3965 56.1748L84.3816 75.0327L85.0389 73.7785L49.0537 54.9206Z" fill="#FC3A52"/>
<path d="M47.7333 57.4252L47.2827 58.2852L83.2678 77.139L83.7184 76.279L47.7333 57.4252Z" fill="#FC3A52"/>
<path d="M48.3965 56.1736L47.7393 57.4277L83.7244 76.2856L84.3816 75.0314L48.3965 56.1736Z" fill="#FC7171"/>
<path d="M49.7052 53.6638L49.0481 54.918L85.0332 73.7718L85.6903 72.5176L49.7052 53.6638Z" fill="#FC7171"/>
<path d="M50.3679 52.4118L49.7107 53.666L85.6958 72.5239L86.3531 71.2697L50.3679 52.4118Z" fill="#FC3A52"/>
<path d="M50.8379 51.5142L50.3679 52.4111L86.353 71.269L86.8231 70.3721L50.8379 51.5142Z" fill="#FC7171"/>
<path d="M81.7126 67.6961L69.0239 61.0469L82.0676 66.7417L81.7126 67.6961Z" fill="#32338C"/>
<path d="M72.5507 48.9073C72.0887 49.067 71.6071 49.206 71.119 49.1785C70.6309 49.1509 70.1297 48.9292 69.8791 48.5094C69.5354 47.9339 69.7618 47.1608 70.2075 46.66C69.2643 46.5206 68.3252 45.7827 68.1067 44.8545C67.8882 43.9264 68.2871 42.8839 69.069 42.3385C69.1544 42.2791 69.2495 42.2179 69.2837 42.1195C69.3154 42.0287 69.2866 41.9291 69.2614 41.8362C68.9348 40.6302 69.2947 39.2623 70.1726 38.373C71.0504 37.4838 72.4136 37.1065 73.6239 37.4177C73.7232 36.4936 74.3737 35.5843 75.1385 35.0564C75.9033 34.5284 76.8433 34.291 77.7725 34.2701C78.4725 34.2542 79.1895 34.3607 79.8063 34.6923C80.423 35.0237 80.9287 35.6017 81.0654 36.2883C81.7677 35.6261 82.9787 35.6038 83.8562 36.0056C84.5955 36.3442 85.2392 36.9168 85.5932 37.6487C85.9473 38.3806 85.99 39.2732 85.6388 40.0064C86.6868 40.0608 87.7273 40.8364 88.1449 41.799C88.5626 42.7617 88.2617 44.0197 87.3834 44.5941C87.7458 44.8353 88.0445 45.2213 88.2581 45.6004C88.4652 45.9683 88.5149 46.4037 88.5198 46.826C88.5241 47.1978 88.4958 47.5751 88.3717 47.9255C88.1079 48.6701 87.3875 49.2308 86.601 49.3038C86.7053 49.6615 86.6088 50.0341 86.4296 50.3605C86.2504 50.687 85.9749 50.952 85.6743 51.172C85.4295 51.3512 85.1627 51.5053 84.8727 51.5936C84.0495 51.8446 83.0801 51.4869 82.6172 50.7616L72.5507 48.9073Z" fill="#324C8C"/>
<path d="M79.5211 55.1455C79.3923 55.2805 79.2533 55.4057 79.1045 55.5173C78.5951 55.899 77.9934 56.1427 77.3784 56.307C76.9224 56.4288 76.4456 56.5093 75.9784 56.4413C75.9265 56.4337 75.8745 56.4233 75.823 56.4116C75.8345 56.5047 75.8572 56.5954 75.9027 56.6769C76.0462 56.9334 76.3608 57.034 76.6499 57.0877C77.4268 57.2315 78.237 57.1936 78.9969 56.9774C79.0796 56.9538 79.1669 56.9249 79.2203 56.8575C79.2749 56.7887 79.2824 56.6951 79.2885 56.6076C79.3242 56.104 79.4125 55.621 79.5211 55.1455Z" fill="#FFC69D"/>
<path d="M77.3787 56.308C77.9937 56.1438 78.5954 55.9002 79.1048 55.5183C79.2536 55.4069 79.3926 55.2815 79.5214 55.1465C79.7004 54.3623 79.9346 53.5979 80.0775 52.7957C79.2874 52.5023 77.8668 53.1821 77.2327 53.6442C76.4157 54.2396 75.8297 55.1919 75.8127 56.2029C75.8116 56.2725 75.8148 56.3432 75.8235 56.4127C75.875 56.4244 75.9268 56.4348 75.9789 56.4423C76.4457 56.5103 76.9225 56.4298 77.3787 56.308Z" fill="#FE5228"/>
<path d="M74.0331 44.725C74.9569 44.3481 75.5817 43.4032 75.7128 42.4141C75.9536 43.1483 76.1356 44.0603 76.8482 44.3587C77.2474 44.5258 77.7029 44.5018 78.124 44.4023C78.7166 44.2622 79.2744 43.9767 79.7346 43.5777C79.7025 44.1742 79.5323 45.1106 79.88 45.5965C80.014 45.7838 80.1947 45.9336 80.3879 46.059C80.9199 46.4043 81.5627 46.5764 82.196 46.5429C81.4945 47.3192 81.0658 48.5189 81.4127 49.5061C81.5745 49.9667 81.8608 50.3778 82.2241 50.7035C82.2944 50.5785 82.3669 50.4544 82.433 50.3275C82.9273 49.3777 83.3258 48.365 83.4685 47.3037C83.6111 46.2425 83.4846 45.1259 82.9804 44.1814C82.27 42.8509 80.8878 41.9924 79.4517 41.5311C78.7502 41.3058 78.0132 41.1599 77.278 41.2116C76.2995 41.2805 74.9318 41.6542 74.2118 42.3803C73.7631 42.8327 73.3964 43.4081 73.1052 44.0203C72.9764 44.2909 72.8639 44.5689 72.7642 44.8465C73.1873 44.9241 73.6351 44.8874 74.0331 44.725Z" fill="#324C8C"/>
<path d="M81.4124 49.5041C81.0657 48.5169 81.4941 47.3172 82.1956 46.5409C81.5621 46.5744 80.9195 46.4023 80.3876 46.057C80.1944 45.9316 80.0137 45.7818 79.8796 45.5945C79.5322 45.1086 79.7023 44.1722 79.7342 43.5757C79.274 43.9745 78.7164 44.26 78.1237 44.4003C77.7026 44.4999 77.2471 44.5238 76.8479 44.3567C76.1352 44.0584 75.9532 43.1463 75.7124 42.4121C75.5814 43.4012 74.9565 44.3461 74.0328 44.7231C73.6347 44.8854 73.187 44.9223 72.7634 44.8447C72.6488 45.1638 72.5516 45.4829 72.4743 45.7905C72.1627 47.0304 72.1012 48.3216 72.1527 49.5989C72.2092 50.9925 72.4148 52.4273 73.1434 53.6165C73.8719 54.8058 75.2281 55.6963 76.6119 55.5228C77.1279 55.458 77.617 55.2537 78.0757 55.0082C79.7648 54.1041 81.0934 52.6357 82.0695 50.9791C82.1233 50.8877 82.1719 50.7937 82.2238 50.7013C81.8605 50.3758 81.5742 49.9647 81.4124 49.5041Z" fill="#FFC69D"/>
<path d="M81.5835 48.9389C81.3099 49.4597 81.2334 50.0658 81.2657 50.6533C81.2906 51.1067 81.4111 51.6088 81.7952 51.8509C82.079 52.0297 82.4529 52.02 82.7628 51.8916C83.0728 51.7632 83.328 51.5304 83.5512 51.2802C83.8882 50.9023 84.1732 50.4642 84.2938 49.9725C84.4145 49.4808 84.3546 48.9298 84.0572 48.5202C83.7668 48.1203 83.209 47.7855 82.719 47.9414C82.2257 48.0984 81.8216 48.4857 81.5835 48.9389Z" fill="#FFC69D"/>
<path d="M83.7591 49.0278C83.6361 48.8203 83.4001 48.7151 83.1758 48.7136C82.9488 48.7044 82.7339 48.812 82.5715 48.9655C82.4061 49.1192 82.283 49.3143 82.1986 49.528C82.1111 49.7412 82.0607 49.9703 82.0003 50.1997L81.8679 50.1231C82.0297 49.9727 82.2552 49.8594 82.4971 49.9057C82.6147 49.928 82.7246 50.0001 82.7945 50.0942C82.8655 50.189 82.9006 50.3019 82.9106 50.4137C82.9341 50.6401 82.8228 50.8659 82.6538 50.9975C82.4843 51.131 82.2786 51.2026 82.0734 51.2211C82.2722 51.1699 82.4642 51.0831 82.6045 50.9424C82.7477 50.8055 82.8259 50.6144 82.7938 50.4269C82.7677 50.2413 82.6416 50.0764 82.4695 50.0507C82.2983 50.0234 82.1107 50.1093 81.978 50.2379L81.7837 50.4259L81.8456 50.1612C81.8996 49.9301 81.9648 49.6963 82.0603 49.4704C82.1564 49.2463 82.2922 49.0278 82.4858 48.8679C82.6765 48.7094 82.9286 48.6039 83.1809 48.6313C83.4258 48.6583 83.6703 48.8003 83.7591 49.0278Z" fill="#32338C"/>
<path d="M74.6813 47.9117C74.6581 48.2182 74.4798 48.4546 74.2829 48.4399C74.0861 48.425 73.9453 48.1646 73.9683 47.8579C73.9915 47.5514 74.1698 47.315 74.3667 47.3298C74.5637 47.3447 74.7045 47.6053 74.6813 47.9117Z" fill="#32328C"/>
<path d="M78.6524 48.4879C78.6291 48.7944 78.4509 49.031 78.2539 49.0161C78.057 49.0012 77.9163 48.7406 77.9395 48.4341C77.9626 48.1276 78.141 47.8912 78.338 47.9059C78.5347 47.9208 78.6756 48.1814 78.6524 48.4879Z" fill="#32328C"/>
<path d="M73.3142 46.5388C73.3882 46.36 73.497 46.1938 73.6303 46.0416C73.7651 45.8907 73.9296 45.7587 74.1201 45.6605C74.2155 45.6111 74.3131 45.5578 74.4179 45.5167C74.5227 45.4766 74.6368 45.4643 74.7484 45.4834C74.8598 45.5025 74.9691 45.542 75.0655 45.6082C75.1618 45.6721 75.2477 45.758 75.2994 45.8798L75.2747 45.9393C75.1567 45.9904 75.0653 46.0244 74.9809 46.0539C74.8966 46.0858 74.8219 46.109 74.7493 46.1283C74.677 46.1477 74.6071 46.1525 74.531 46.1449C74.455 46.1364 74.3743 46.1313 74.2971 46.1449C74.1421 46.1728 73.9831 46.2244 73.8263 46.2973C73.6679 46.369 73.5161 46.4663 73.365 46.5783L73.3142 46.5388Z" fill="#32338C"/>
<path d="M79.4677 47.3482C79.349 47.2024 79.2258 47.0706 79.0901 46.962C78.9562 46.8527 78.8148 46.7633 78.6716 46.698C78.6001 46.6657 78.5207 46.6506 78.445 46.64C78.3695 46.6285 78.3028 46.6066 78.2377 46.57C78.1722 46.5332 78.1057 46.4924 78.0319 46.4406C77.9575 46.3912 77.8772 46.3358 77.7756 46.2569L77.7664 46.1931C77.8468 46.0879 77.9512 46.0258 78.0602 45.9878C78.1699 45.9476 78.2856 45.9363 78.3982 45.9453C78.5111 45.9544 78.6184 45.9944 78.7101 46.0592C78.8015 46.1249 78.8829 46.2006 78.9632 46.2722C79.1235 46.4146 79.2504 46.5832 79.3437 46.7626C79.4355 46.9431 79.4997 47.131 79.5272 47.3227L79.4677 47.3482Z" fill="#32338C"/>
<path opacity="0.4" d="M74.16 50.4598C74.1295 50.7032 73.7752 50.8592 73.3687 50.808C72.9621 50.757 72.6573 50.5183 72.6879 50.2749C72.7185 50.0315 73.0728 49.8755 73.4793 49.9267C73.8857 49.9777 74.1906 50.2164 74.16 50.4598Z" fill="#F8AB74"/>
<path opacity="0.4" d="M79.2643 51.1004C79.2337 51.3438 78.8795 51.4998 78.4729 51.4486C78.0663 51.3976 77.7616 51.159 77.7922 50.9155C77.8227 50.6721 78.177 50.5162 78.5836 50.5673C78.9901 50.6183 79.2949 50.857 79.2643 51.1004Z" fill="#F8AB74"/>
<path d="M76.2743 47.4736C76.2926 47.9064 76.2926 48.3578 76.1129 48.7787C76.0292 48.9898 75.871 49.1726 75.705 49.3166C75.5405 49.4637 75.3702 49.5959 75.2603 49.764C75.0291 50.0901 75.102 50.589 75.4342 50.8318C75.5919 50.9621 75.803 51.0092 76.015 51.0173C76.2256 51.0307 76.4429 50.9788 76.618 50.8458C76.4671 51.0076 76.2381 51.0843 76.0154 51.0964C75.9023 51.1009 75.7924 51.0917 75.6791 51.07C75.5662 51.0447 75.4576 50.9984 75.3615 50.9323C75.1666 50.8043 75.0263 50.5892 74.9851 50.3552C74.9428 50.1226 74.9925 49.872 75.1268 49.6743C75.2623 49.4789 75.4472 49.3459 75.6085 49.2066C75.7747 49.0702 75.9055 48.9137 76.0013 48.7262C76.0981 48.5404 76.1531 48.3313 76.1907 48.1198C76.2328 47.908 76.2496 47.6906 76.2743 47.4736Z" fill="#32338C"/>
<path d="M74.3782 51.0762C74.5542 51.332 74.7332 51.5843 74.9507 51.789C75.1675 51.9899 75.4313 52.1452 75.7136 52.1795C75.995 52.2171 76.2905 52.1302 76.5666 52.016C76.8423 51.8968 77.1038 51.7365 77.3406 51.535C77.155 51.7847 76.9089 51.995 76.6272 52.1427C76.3488 52.2885 76.0288 52.3976 75.6908 52.358C75.3556 52.3127 75.0638 52.1248 74.8506 51.887C74.6342 51.6485 74.4928 51.3638 74.3782 51.0762Z" fill="#32338C"/>
<path d="M62.1712 67.0646C61.8827 66.5326 61.8326 65.9004 61.8902 65.298C61.9546 64.6248 62.1604 63.9396 62.6212 63.4446C62.7334 63.3242 62.9248 63.2139 63.0481 63.323C63.129 63.3944 63.1256 63.5194 63.1129 63.6265C63.0478 64.1752 62.9058 64.7128 62.8468 65.2623C62.7879 65.8118 62.8187 66.391 63.0785 66.8788C63.1156 66.043 63.1779 65.1726 63.5999 64.4504C63.7221 64.2411 63.8767 64.0449 64.0814 63.915C64.1589 63.8659 64.2635 63.8278 64.3381 63.8812C64.3941 63.9214 64.4092 63.9972 64.4172 64.0657C64.4378 64.2417 64.4408 64.4196 64.4264 64.5961C64.5097 64.4381 64.5975 64.2747 64.7401 64.1671C64.8827 64.0593 65.0968 64.0242 65.2371 64.1348C65.4033 64.2659 65.39 64.5172 65.3615 64.7268C65.4845 64.5227 65.7409 64.4082 65.9751 64.453C66.1414 64.7589 66.0464 65.1337 65.969 65.4733C65.8712 65.9023 65.8079 66.3393 65.7802 66.7785C65.7634 67.0415 65.7549 67.3204 65.6104 67.541C65.5247 67.672 65.4344 68.2093 64.4036 68.2013C63.9855 68.1981 63.572 68.052 63.1833 67.926C62.7494 67.785 62.3876 67.4638 62.1712 67.0646Z" fill="#FFC69D"/>
<path d="M64.4351 64.5371C64.3426 64.8315 64.2559 65.1249 64.1866 65.422C64.119 65.7194 64.0604 66.0179 64.0215 66.3197C63.9793 66.6209 63.9566 66.9243 63.943 67.2291C63.9309 67.5339 63.9368 67.8398 63.9477 68.1484C63.876 67.8477 63.8412 67.5388 63.8295 67.2291C63.8165 66.9191 63.8355 66.608 63.8754 66.3002C63.9186 65.9928 63.9826 65.6879 64.0776 65.3925C64.1711 65.0964 64.2865 64.8081 64.4351 64.5371Z" fill="#32338C"/>
<path d="M65.3728 64.6904C65.3145 64.9646 65.2584 65.2362 65.2167 65.5098C65.1768 65.7836 65.1425 66.0574 65.1247 66.3327C65.1036 66.6078 65.099 66.8837 65.1002 67.1604C65.1028 67.4372 65.1202 67.714 65.1392 67.9937C65.0599 67.7244 65.0135 67.4464 64.987 67.1664C64.9589 66.8862 64.9595 66.6037 64.9778 66.3225C64.9995 66.0417 65.0386 65.7617 65.1058 65.4883C65.1717 65.2146 65.2567 64.9457 65.3728 64.6904Z" fill="#32338C"/>
<path d="M80.3433 71.8576C81.1521 68.8863 84.089 60.8768 85.8215 59.1533C86.2915 58.6857 87.0862 58.9833 87.478 59.5181C87.8698 60.0529 87.8955 60.7663 87.8657 61.4287C87.7518 63.9523 87.0593 66.41 86.3465 68.8334C85.4159 71.9975 80.7312 77.607 80.0774 77.3834C77.7183 76.5769 70.8042 65.8907 70.8042 65.8907L73.6769 65.5043L80.3433 71.8576Z" fill="#FFC69D"/>
<path d="M66.2871 68.2568C66.4978 68.5301 66.6993 68.8084 66.9035 69.0847L67.5143 69.9133L68.1254 70.7417C68.3288 71.0183 68.535 71.2931 68.7336 71.5754C68.4881 71.3326 68.2593 71.0748 68.0365 70.8119C67.8125 70.5498 67.6018 70.277 67.3959 70.0005C67.1929 69.722 66.9945 69.4401 66.8106 69.1485C66.6251 68.8579 66.4467 68.5629 66.2871 68.2568Z" fill="#32338C"/>
<path d="M73.6769 65.5045L73.7913 62.1933C73.8007 61.9229 73.5464 61.7199 73.2846 61.7892L73.1562 61.8232L72.6545 61.3522C72.5508 61.2548 72.4034 61.2193 72.2666 61.2587L71.8607 61.3756L71.2673 60.9583C71.1792 60.8964 71.07 60.8722 70.9639 60.8911L70.6266 60.9515L70.5164 60.9034C70.2497 60.7869 69.951 60.9821 69.9512 61.2731L69.9517 63.3146L70.8039 65.8906" fill="#FFC69D"/>
<path d="M85.4339 33.3212C85.9309 32.1752 86.8683 31.2606 88.0483 30.7706L88.085 30.7555L87.9262 30.6845C86.8202 30.1909 85.9408 29.3202 85.4558 28.2386L85.4339 28.1895L85.3114 28.4312C84.8406 29.3598 84.0723 30.1163 83.1209 30.5878L82.7827 30.7553L82.8031 30.7636C83.9355 31.2304 84.8478 32.0885 85.3624 33.1707L85.4339 33.3212Z" fill="#5496F2"/>
<path d="M88.7688 34.894C89.0173 34.3211 89.486 33.8637 90.0761 33.6188L90.0944 33.6112L90.0149 33.5757C89.4618 33.3289 89.0222 32.8935 88.7797 32.3527L88.7688 32.3281L88.7076 32.449C88.4723 32.9133 88.088 33.2916 87.6124 33.5272L87.4434 33.6109L87.4536 33.615C88.0199 33.8484 88.4759 34.2775 88.7331 34.8186L88.7688 34.894Z" fill="#1570EF"/>
<path d="M15.9394 56.5651C16.4364 55.4191 17.3738 54.5046 18.5538 54.0146L18.5905 53.9995L18.4316 53.9286C17.3257 53.4348 16.4463 52.5643 15.9613 51.4827L15.9394 51.4336L15.8169 51.6753C15.3461 52.604 14.5777 53.3604 13.6264 53.832L13.2882 53.9995L13.3086 54.0078C14.4408 54.4746 15.3533 55.3326 15.8679 56.4148L15.9394 56.5651Z" fill="#5496F2"/>
<path d="M19.2745 58.1381C19.523 57.5652 19.9917 57.1079 20.5818 56.8628L20.6001 56.8552L20.5206 56.8197C19.9675 56.5729 19.5279 56.1374 19.2854 55.5968L19.2745 55.5723L19.2133 55.6931C18.978 56.1575 18.5937 56.5357 18.118 56.7714L17.9489 56.855L17.959 56.8592C18.5254 57.0926 18.9814 57.5216 19.2388 58.0628L19.2745 58.1381Z" fill="#1570EF"/>
<path d="M57.2626 98.1845C56.8868 97.3181 56.1781 96.6266 55.2861 96.2561L55.2583 96.2446L55.3784 96.1909C56.2145 95.8176 56.8794 95.1593 57.246 94.3417L57.2626 94.3047L57.3553 94.4875C57.7111 95.1896 58.2921 95.7615 59.0114 96.1179L59.267 96.2446L59.2516 96.2508C58.3954 96.6037 57.7058 97.2526 57.3168 98.0706L57.2626 98.1845Z" fill="#5496F2"/>
<path d="M54.7411 99.3733C54.5533 98.9401 54.199 98.5943 53.7528 98.4091L53.739 98.4034L53.7991 98.3766C54.2171 98.1901 54.5497 97.8609 54.7328 97.4521L54.7411 97.4336L54.7874 97.525C54.9653 97.876 55.2559 98.1621 55.6154 98.3402L55.7433 98.4034L55.7355 98.4066C55.3075 98.5832 54.9627 98.9074 54.7682 99.3166L54.7411 99.3733Z" fill="#1570EF"/>
</g>
<defs>
<clipPath id="clip0_14492_19699">
<rect width="94.4166" height="94.4166" fill="white" transform="translate(5.62854 8.57129)"/>
</clipPath>
</defs>
</svg>
